<svg width="39" height="48" viewBox="0 0 39 48" fill="none" xmlns="http://www.w3.org/2000/svg">
<g clip-path="url(#clip0_876_2174)">
<path d="M13.192 48.0002H11.791C10.2907 47.6025 9.04153 46.7778 7.99079 45.6549C6.03524 43.5669 4.46497 41.2158 3.17489 38.6716C1.62797 35.6244 0.670625 32.396 0.226979 29.0096C-0.0940808 26.5765 -0.117431 24.1493 0.483827 21.7514C1.41198 18.0433 3.29748 15.002 6.71822 13.0895C8.93062 11.8496 11.2831 11.3759 13.7932 11.9256C15.2117 12.2356 16.5602 12.762 17.8969 13.3352C19.117 13.8557 20.3195 13.92 21.557 13.3703C22.3684 13.0076 23.2149 12.7444 24.0496 12.4403C26.1978 11.6624 28.3868 11.3525 30.6576 11.8145C33.4713 12.3935 35.8763 13.6217 37.5867 16.0255C37.791 16.3121 37.7793 16.435 37.4816 16.6221C36.3841 17.324 35.3918 18.172 34.6329 19.2306C32.1228 22.7457 32.1053 26.5064 33.8098 30.3197C34.7672 32.472 36.5301 33.9049 38.5907 34.946C39.0402 35.1741 39.0869 35.3788 38.9293 35.8291C37.6334 39.4144 35.6486 42.5843 33.2027 45.4736C31.469 47.5206 29.2975 48.4038 26.6123 47.7078C25.6607 47.4621 24.7501 47.0995 23.8395 46.7369C21.8372 45.9473 19.8175 45.8245 17.7627 46.4912C16.2449 46.9884 14.7797 47.6493 13.2095 47.9944L13.192 48.0002Z" fill="#25282F"/>
<path d="M29.1181 1.2108C28.7913 5.41014 26.789 8.53333 23.053 10.4809C22.0432 11.0073 20.9107 11.1009 19.7782 11.0717C19.463 11.06 19.4805 10.8962 19.4747 10.6856C19.393 8.2292 20.1577 6.0535 21.6637 4.12928C23.4383 1.84831 25.8083 0.55575 28.6161 0.0235215C28.943 -0.0408138 29.1648 -0.0115705 29.1181 0.415382C29.089 0.678572 29.1181 0.947611 29.1181 1.2108Z" fill="#25282F"/>
</g>
<defs>
<clipPath id="clip0_876_2174">
<rect width="39" height="48" fill="white"/>
</clipPath>
</defs>
</svg>
