<svg width="65" height="13" viewBox="0 0 65 13" fill="none" xmlns="http://www.w3.org/2000/svg">
<g clip-path="url(#clip0_749_11)">
<path d="M0 6.50002C-1.93129e-07 8.70916 1.79086 10.5 4 10.5C6.20914 10.5 8 8.70916 8 6.50002C8 4.29088 6.20914 2.50002 4 2.50002C1.79086 2.50002 1.93129e-07 4.29088 0 6.50002ZM64.5303 7.03036C64.8232 6.73746 64.8232 6.26259 64.5303 5.9697L59.7574 1.19672C59.4645 0.903829 58.9896 0.903829 58.6967 1.19672C58.4038 1.48962 58.4038 1.96449 58.6967 2.25738L62.9393 6.50003L58.6967 10.7426C58.4038 11.0355 58.4038 11.5104 58.6967 11.8033C58.9896 12.0962 59.4645 12.0962 59.7574 11.8033L64.5303 7.03036ZM4 7.25002L64 7.25003V5.75003L4 5.75002V7.25002Z" fill="#713FFF"/>
</g>
<defs>
<clipPath id="clip0_749_11">
<rect width="65" height="13" fill="white"/>
</clipPath>
</defs>
</svg>
