<svg width="65" height="13" viewBox="0 0 65 13" fill="none" xmlns="http://www.w3.org/2000/svg">
<path d="M0 6.5C-1.93129e-07 8.70914 1.79086 10.5 4 10.5C6.20914 10.5 8 8.70914 8 6.5C8 4.29086 6.20914 2.5 4 2.5C1.79086 2.5 1.93129e-07 4.29086 0 6.5ZM64.5303 7.03034C64.8232 6.73744 64.8232 6.26257 64.5303 5.96968L59.7574 1.1967C59.4645 0.903811 58.9896 0.903811 58.6967 1.1967C58.4038 1.4896 58.4038 1.96447 58.6967 2.25736L62.9393 6.50001L58.6967 10.7426C58.4038 11.0355 58.4038 11.5104 58.6967 11.8033C58.9896 12.0962 59.4645 12.0962 59.7574 11.8033L64.5303 7.03034ZM4 7.25L64 7.25001L64 5.75001L4 5.75L4 7.25Z" fill="#3E3E3E"/>
</svg>
