<svg width="864" height="864" viewBox="0 0 864 864" fill="none" xmlns="http://www.w3.org/2000/svg">
<mask id="mask0_414_532" style="mask-type:alpha" maskUnits="userSpaceOnUse" x="0" y="0" width="864" height="864">
<rect width="864" height="864" fill="#D9D9D9"/>
</mask>
<g mask="url(#mask0_414_532)">
<path d="M469 513C363.4 629.8 136.334 776.333 233.001 785C585.001 835 950.001 793.907 1174 739.907C1398 685.907 1170 371.907 1174 191.907C1178 11.907 1072 -165 974.001 -119C876.001 -73.0003 661.001 -176 481.001 47.9998C301.001 272 601 367 469 513Z" fill="#3F97FF"/>
<path d="M38.6917 661.865C-79.0875 778.656 107.099 825.186 214.914 833.852C607.512 883.848 913.113 867.849 1162.95 813.853C1412.78 759.857 1158.49 445.881 1162.95 265.894C1167.41 85.9078 1082.64 69.909 973.341 115.906C864.038 161.902 732.76 214.017 532 438C331.24 661.983 185.916 515.875 38.6917 661.865Z" fill="#713FFF"/>
</g>
</svg>
