<svg width="385" height="302" viewBox="0 0 385 302" fill="none" xmlns="http://www.w3.org/2000/svg">
<path d="M385 266.448H0V266.64H385V266.448Z" fill="#E6E6E6"/>
<path d="M96.1113 278.098H70.6089V278.291H96.1113V278.098Z" fill="#E6E6E6"/>
<path d="M62.5395 278.098H47.7632V278.291H62.5395V278.098Z" fill="#E6E6E6"/>
<path d="M162.123 280.932H147.347V281.124H162.123V280.932Z" fill="#E6E6E6"/>
<path d="M239.17 285.229H205.913V285.421H239.17V285.229Z" fill="#E6E6E6"/>
<path d="M199.06 285.229H194.186V285.421H199.06V285.229Z" fill="#E6E6E6"/>
<path d="M349.079 280.932H276.946V281.124H349.079V280.932Z" fill="#E6E6E6"/>
<path d="M182.49 232.106H33.8106C32.6459 232.104 31.5295 231.64 30.7067 230.816C29.8838 229.991 29.4216 228.874 29.4216 227.709V18.7083C29.4318 17.5502 29.8984 16.4429 30.7202 15.6269C31.542 14.8109 32.6525 14.3521 33.8106 14.3501H182.49C183.656 14.3501 184.774 14.8133 185.599 15.6379C186.423 16.4624 186.887 17.5807 186.887 18.7468V227.709C186.887 228.875 186.423 229.994 185.599 230.818C184.774 231.643 183.656 232.106 182.49 232.106ZM33.8106 14.5041C32.6969 14.5061 31.6296 14.95 30.8428 15.7382C30.056 16.5264 29.6141 17.5946 29.6141 18.7083V227.709C29.6141 228.823 30.056 229.891 30.8428 230.68C31.6296 231.468 32.6969 231.912 33.8106 231.914H182.49C183.604 231.912 184.673 231.468 185.461 230.68C186.249 229.892 186.692 228.824 186.694 227.709V18.7083C186.692 17.5939 186.249 16.5257 185.461 15.7377C184.673 14.9497 183.604 14.5061 182.49 14.5041H33.8106Z" fill="#E6E6E6"/>
<path d="M349.049 232.106H200.362C199.196 232.104 198.079 231.64 197.255 230.816C196.431 229.992 195.967 228.875 195.965 227.709V18.7083C195.977 17.5495 196.446 16.4422 197.269 15.6264C198.092 14.8106 199.203 14.3521 200.362 14.3501H349.049C350.206 14.3541 351.314 14.8138 352.134 15.6296C352.954 16.4454 353.42 17.5516 353.43 18.7083V227.709C353.43 228.873 352.969 229.989 352.148 230.813C351.327 231.637 350.212 232.102 349.049 232.106ZM200.362 14.5041C199.247 14.5061 198.179 14.9497 197.391 15.7377C196.603 16.5257 196.16 17.5939 196.158 18.7083V227.709C196.16 228.824 196.603 229.892 197.391 230.68C198.179 231.468 199.247 231.912 200.362 231.914H349.049C350.163 231.912 351.231 231.468 352.019 230.68C352.807 229.892 353.251 228.824 353.253 227.709V18.7083C353.251 17.5939 352.807 16.5257 352.019 15.7377C351.231 14.9497 350.163 14.5061 349.049 14.5041H200.362Z" fill="#E6E6E6"/>
<path d="M205.898 200.675H188.966V267.842H205.898V200.675Z" fill="#E0E0E0"/>
<path d="M202.679 267.842H205.898V258.694H199.307L202.679 267.842Z" fill="#FAFAFA"/>
<path d="M131.701 200.675H114.769V267.842H131.701V200.675Z" fill="#E0E0E0"/>
<path d="M205.898 200.675H128.898V262.229H205.898V200.675Z" fill="#FAFAFA"/>
<path d="M203.103 203.701V219.986H131.67V203.701H203.08M203.38 203.4H131.393V220.279H203.403V203.4H203.38Z" fill="#E0E0E0"/>
<path d="M132.109 267.842H128.898V258.694H135.481L132.109 267.842Z" fill="#FAFAFA"/>
<path d="M165.696 211.84C165.696 212.176 165.796 212.505 165.983 212.785C166.17 213.065 166.436 213.283 166.747 213.412C167.058 213.541 167.4 213.574 167.73 213.509C168.06 213.443 168.363 213.281 168.601 213.043C168.839 212.805 169.001 212.502 169.067 212.172C169.133 211.842 169.099 211.499 168.97 211.188C168.841 210.877 168.623 210.612 168.343 210.425C168.064 210.238 167.735 210.138 167.398 210.138C166.947 210.138 166.514 210.317 166.195 210.636C165.876 210.955 165.696 211.388 165.696 211.84Z" fill="#E6E6E6"/>
<path d="M203.103 223.305V239.591H131.67V223.305H203.08M203.38 223.012H131.393V239.891H203.403V223.02L203.38 223.012Z" fill="#E0E0E0"/>
<path d="M165.696 231.49C165.696 231.827 165.796 232.156 165.983 232.435C166.17 232.715 166.436 232.933 166.747 233.062C167.058 233.191 167.4 233.225 167.73 233.159C168.06 233.093 168.363 232.931 168.601 232.693C168.839 232.455 169.001 232.152 169.067 231.822C169.133 231.492 169.099 231.15 168.97 230.839C168.841 230.528 168.623 230.262 168.343 230.075C168.064 229.888 167.735 229.788 167.398 229.788C166.947 229.788 166.514 229.968 166.195 230.287C165.876 230.606 165.696 231.039 165.696 231.49Z" fill="#E6E6E6"/>
<path d="M203.103 242.917V259.21H131.67V242.917H203.08M203.38 242.617H131.393V259.503H203.403V242.617H203.38Z" fill="#E0E0E0"/>
<path d="M165.696 251.063C165.698 251.4 165.799 251.728 165.987 252.007C166.175 252.286 166.441 252.502 166.752 252.63C167.063 252.758 167.405 252.79 167.735 252.724C168.064 252.657 168.367 252.495 168.604 252.256C168.841 252.018 169.003 251.715 169.068 251.385C169.133 251.055 169.098 250.713 168.969 250.403C168.84 250.092 168.622 249.827 168.343 249.64C168.063 249.454 167.734 249.354 167.398 249.354C167.174 249.354 166.952 249.398 166.745 249.484C166.538 249.57 166.35 249.696 166.192 249.855C166.034 250.014 165.909 250.202 165.824 250.41C165.739 250.617 165.695 250.839 165.696 251.063Z" fill="#E6E6E6"/>
<path d="M121.36 161.667H104.427V267.85H121.36V161.667Z" fill="#E0E0E0"/>
<path d="M118.141 267.842H121.36V258.694H114.776L118.141 267.842Z" fill="#FAFAFA"/>
<path d="M58.081 161.667H41.1487V267.85H58.081V161.667Z" fill="#E0E0E0"/>
<path d="M121.36 161.667H55.2705V262.236H121.36V161.667Z" fill="#FAFAFA"/>
<path d="M118.511 164.5V187.269H58.1196V164.5H118.511ZM118.865 164.154H57.75V187.6H118.85V164.161L118.865 164.154Z" fill="#E0E0E0"/>
<path d="M118.511 190.049V250.44H89.7435V190.049H118.511ZM118.865 189.695H89.397V250.794H118.865V189.695Z" fill="#E0E0E0"/>
<path d="M86.8868 190.049V250.44H58.1196V190.049H86.8868ZM87.2333 189.695H57.75V250.794H87.2179V189.695H87.2333Z" fill="#E0E0E0"/>
<path d="M58.4891 267.842H55.2705V258.694H61.8617L58.4891 267.842Z" fill="#FAFAFA"/>
<path d="M86.6096 175.896C86.6081 176.234 86.7071 176.566 86.894 176.848C87.0809 177.13 87.3473 177.35 87.6595 177.481C87.9717 177.611 88.3157 177.646 88.6478 177.581C88.9799 177.516 89.2852 177.354 89.525 177.115C89.7648 176.876 89.9284 176.572 89.995 176.24C90.0616 175.908 90.0282 175.564 89.899 175.251C89.7699 174.939 89.5508 174.671 89.2695 174.483C88.9882 174.295 88.6574 174.194 88.319 174.194C87.867 174.194 87.4334 174.373 87.113 174.692C86.7927 175.011 86.6117 175.444 86.6096 175.896Z" fill="#E6E6E6"/>
<path d="M92.708 218.808C92.708 219.147 92.8085 219.478 92.9967 219.759C93.1848 220.04 93.4523 220.259 93.7651 220.388C94.0779 220.517 94.422 220.551 94.7538 220.484C95.0856 220.418 95.3901 220.254 95.6289 220.014C95.8676 219.774 96.0298 219.469 96.0949 219.137C96.16 218.805 96.125 218.461 95.9945 218.149C95.8639 217.837 95.6436 217.57 95.3615 217.383C95.0794 217.196 94.7481 217.097 94.4097 217.099C94.1856 217.099 93.9637 217.143 93.7567 217.229C93.5498 217.315 93.3618 217.441 93.2037 217.6C93.0456 217.759 92.9204 217.947 92.8353 218.155C92.7503 218.362 92.707 218.584 92.708 218.808Z" fill="#E6E6E6"/>
<path d="M80.5188 218.808C80.5203 219.145 80.6214 219.473 80.8093 219.752C80.9972 220.03 81.2635 220.247 81.5746 220.375C81.8857 220.503 82.2276 220.535 82.5572 220.469C82.8868 220.402 83.1893 220.239 83.4265 220.001C83.6637 219.763 83.825 219.46 83.8901 219.13C83.9551 218.8 83.921 218.458 83.7919 218.148C83.6629 217.837 83.4448 217.572 83.1651 217.385C82.8855 217.198 82.5568 217.099 82.2205 217.099C81.9964 217.099 81.7745 217.143 81.5675 217.229C81.3606 217.315 81.1726 217.441 81.0145 217.6C80.8564 217.759 80.7312 217.947 80.6461 218.155C80.5611 218.362 80.5178 218.584 80.5188 218.808Z" fill="#E6E6E6"/>
<path d="M78.594 132.06H71.4561C72.1139 135.523 72.5281 139.027 72.6958 142.547C72.6958 146.397 67.2596 161.667 75.0058 161.667C82.752 161.667 77.3158 146.436 77.3158 142.547C77.4962 139.026 77.9233 135.522 78.594 132.06Z" fill="#E0E0E0"/>
<path d="M51.436 147.676V152.296C51.4442 154.772 52.4316 157.145 54.1829 158.896C55.9342 160.648 58.3071 161.635 60.7838 161.643H65.4038C67.8805 161.635 70.2535 160.648 72.0048 158.896C73.7561 157.145 74.7435 154.772 74.7516 152.296V147.676H51.436Z" fill="#F5F5F5"/>
<path d="M150.666 190.88C150.666 196.27 156.695 200.675 164.064 200.675H170.717C178.086 200.675 184.115 196.27 184.115 190.88H150.666Z" fill="#E0E0E0"/>
<path d="M326.95 182.98C322.915 186.276 317.34 192.305 312.243 200.79C308.839 206.442 306.791 212.34 305.89 220.179C305.89 211.324 305.944 201.814 305.975 192.836C306.999 190.526 309.34 185.198 311.018 180.993C316.616 166.956 318.718 163.499 323.746 151.395C330.469 135.225 337.352 116.082 335.381 117.615C331.362 120.733 315.962 149.57 314.299 153.697C309.765 164.711 306.962 176.36 305.99 188.231C305.99 179.761 306.052 172.061 306.083 166.086C306.19 146.598 306.522 140.307 306.683 138.366C307.307 137.381 308.038 136.233 308.47 135.617C312.089 130.381 313.482 125.931 316.886 118.123C321.721 107.073 325.879 87.4462 324.663 88.4318C319.596 92.559 315.608 101.414 310.356 112.71C305.105 124.006 306.606 130.497 305.567 140.137C305.351 142.031 305.182 149.177 305.059 159.072C303.703 148.523 301.147 141.577 296.488 135.263C290.76 127.494 285.216 122.25 281.15 119.509C277.084 116.768 288.172 135.848 293.47 144.149C298.19 151.572 302.541 158.109 305.02 164.554C304.889 177.975 304.828 194.961 304.828 210.754C303.611 203.562 301.624 195.808 298.976 189.81C295.788 182.603 290.891 171.546 286.987 167.796C286.055 166.895 291.068 188.401 294.286 194.114C297.505 199.828 299.869 205.225 301.894 208.467C302.364 209.237 303.934 212.14 304.828 213.819C304.828 233.122 304.935 250.155 305.105 255.953H305.936C305.882 254.459 305.867 244.634 305.89 231.636C307.9 224.583 312.489 216.529 316.277 209.183C320.405 201.229 330.984 179.708 326.95 182.98Z" fill="#E0E0E0"/>
<path d="M317.579 267.842H293.447L291.622 244.188H319.404L317.579 267.842Z" fill="#F0F0F0"/>
<path d="M321.198 246.944H289.82L288.927 238.959H322.099L321.198 246.944Z" fill="#F5F5F5"/>
<path d="M95.6802 30.135H52.5217V77.5285H95.6802V30.135Z" fill="#E0E0E0"/>
<path d="M100.354 30.135H55.771V77.5285H100.354V30.135Z" fill="#F5F5F5"/>
<path d="M96.6196 73.7941V33.8696H59.5056V73.7941H96.6196Z" fill="white"/>
<path d="M87.6184 64.1075V43.5408H68.4993V64.1075H87.6184Z" fill="#F5F5F5"/>
<path d="M315.738 35.656H275.645V79.6846H315.738V35.656Z" fill="#E0E0E0"/>
<path d="M320.081 35.656H278.671V79.6846H320.081V35.656Z" fill="#F5F5F5"/>
<path d="M316.616 76.2119V39.1287H282.143V76.2119H316.616Z" fill="white"/>
<path d="M299.376 68.4271C305.317 68.4271 310.133 63.6111 310.133 57.6702C310.133 51.7294 305.317 46.9133 299.376 46.9133C293.435 46.9133 288.619 51.7294 288.619 57.6702C288.619 63.6111 293.435 68.4271 299.376 68.4271Z" fill="#F5F5F5"/>
<path d="M140.517 58.394H108.501V93.5522H140.517V58.394Z" fill="#E0E0E0"/>
<path d="M143.982 58.394H110.911V93.5522H143.982V58.394Z" fill="#F5F5F5"/>
<path d="M141.21 90.7802V61.166H113.683V90.7802H141.21Z" fill="white"/>
<path d="M127.451 68.4812L119.92 81.525H134.981L127.451 68.4812Z" fill="#F5F5F5"/>
<path d="M192.5 301.221C274.953 301.221 341.795 297.319 341.795 292.505C341.795 287.691 274.953 283.788 192.5 283.788C110.046 283.788 43.2046 287.691 43.2046 292.505C43.2046 297.319 110.046 301.221 192.5 301.221Z" fill="#F5F5F5"/>
<path d="M268.922 97.8412L261.284 94.7612C261.284 94.7612 251.205 113.141 248.317 114.073C244.39 115.336 236.259 118.847 231.439 119.463C230.784 120.233 229.714 122.628 229.814 123.498C236.29 125.661 250.519 122.789 253.569 120.525C260.506 115.39 268.922 97.8412 268.922 97.8412Z" fill="#E58A7B"/>
<path d="M271.271 93.66C272.695 98.9191 264.98 109.499 264.98 109.499L254.87 103.832C254.87 103.832 256.764 99.4812 259.074 95.0537C262.778 87.9004 269.646 87.6617 271.271 93.66Z" fill="#3F97FF"/>
<path opacity="0.2" d="M271.271 93.66C272.695 98.9191 264.98 109.499 264.98 109.499L254.87 103.832C254.87 103.832 256.764 99.4812 259.074 95.0537C262.778 87.9004 269.646 87.6617 271.271 93.66Z" fill="#713FFF"/>
<path opacity="0.2" d="M258.882 106.096L262.863 108.329L263.563 96.1086C261.246 97.8873 259.613 103.247 258.882 106.096Z" fill="black"/>
<path d="M264.618 89.7023C264.618 89.7023 256.749 107.212 261.338 139.814H292.346C292.839 135.055 291.206 111.832 297.112 89.4097C293.711 88.745 290.269 88.3051 286.81 88.093C282.422 87.8388 278.023 87.8388 273.635 88.093C270.593 88.4019 267.579 88.9399 264.618 89.7023Z" fill="#3F97FF"/>
<path opacity="0.2" d="M264.618 89.7023C264.618 89.7023 256.749 107.212 261.338 139.814H292.346C292.839 135.055 291.206 111.832 297.112 89.4097C293.711 88.745 290.269 88.3051 286.81 88.093C282.422 87.8388 278.023 87.8388 273.635 88.093C270.593 88.4019 267.579 88.9399 264.618 89.7023Z" fill="#713FFF"/>
<g style="mix-blend-mode:multiply">
<path d="M257.426 293.198C257.38 294.03 269.138 294.699 283.683 294.699C298.229 294.699 310.071 294.03 310.117 293.198C310.164 292.366 298.413 291.704 283.86 291.704C269.307 291.704 257.48 292.374 257.426 293.198Z" fill="#E8ECF1"/>
</g>
<path d="M278.124 271.347L272.625 273.476L277.362 285.714L282.862 283.586L278.124 271.347Z" fill="#E58A7B"/>
<path d="M302.648 287.277H296.85L294.725 273.855H300.523L302.648 287.277Z" fill="#E58A7B"/>
<path d="M296.45 286.607H302.964C303.077 286.607 303.186 286.647 303.272 286.721C303.358 286.794 303.416 286.896 303.434 287.007L304.273 292.158C304.291 292.288 304.28 292.419 304.243 292.544C304.205 292.669 304.141 292.784 304.055 292.882C303.969 292.98 303.862 293.058 303.743 293.111C303.624 293.165 303.495 293.191 303.365 293.19C301.093 293.152 300 293.013 297.135 293.013C295.372 293.013 291.745 293.198 289.297 293.198C286.848 293.198 286.686 290.796 287.695 290.572C292.223 289.594 293.978 288.262 295.487 286.969C295.754 286.735 296.096 286.606 296.45 286.607Z" fill="#263238"/>
<path d="M277.2 284.62L283.36 282.818C283.47 282.787 283.587 282.795 283.692 282.84C283.797 282.885 283.884 282.964 283.937 283.065L286.247 287.685C286.301 287.802 286.329 287.929 286.328 288.058C286.327 288.187 286.298 288.314 286.243 288.431C286.188 288.548 286.108 288.651 286.009 288.733C285.91 288.816 285.795 288.876 285.67 288.909C283.429 289.525 281.928 289.902 279.125 290.719C277.192 291.281 275.221 292.197 273.312 292.805C271.987 293.229 268.876 293.244 267.267 293.244C264.888 293.244 264.356 290.734 265.38 290.618C267.96 290.334 268.306 290.464 269.731 289.748C272.062 288.729 274.174 287.271 275.953 285.452C276.288 285.07 276.718 284.783 277.2 284.62Z" fill="#263238"/>
<path d="M232.409 119.432L226.033 116.76L223.408 123.829C226.021 124.227 228.679 124.227 231.293 123.829L232.409 119.432Z" fill="#E58A7B"/>
<path d="M221.29 116.575L221.121 121.272L223.408 123.813L226.033 116.745L221.29 116.575Z" fill="#E58A7B"/>
<path d="M278.879 272.387L273.362 274.517L275.805 280.845L281.322 278.715L278.879 272.387Z" fill="#CF6F64"/>
<path d="M300.523 273.855H294.725L295.826 280.778H301.624L300.523 273.855Z" fill="#CF6F64"/>
<path opacity="0.2" d="M260.352 130.997C260.468 132.391 260.599 133.816 260.768 135.279L283.822 127.794C287.422 126.727 290.551 124.465 292.692 121.38C292.785 119.324 292.9 117.161 293.077 114.904C293.154 113.811 293.247 112.687 293.347 111.547C293.447 110.408 293.585 109.145 293.732 107.928L260.352 130.997Z" fill="black"/>
<path d="M267.883 105.741L267.113 105.649C267.567 101.799 270.439 98.7653 273.466 98.8423V99.6123C270.817 99.5584 268.291 102.292 267.883 105.741Z" fill="white"/>
<path d="M271.987 112.849H271.856V112.079C274.505 112.179 276.992 109.414 277.4 105.972L278.17 106.065C277.762 109.83 274.982 112.849 271.987 112.849Z" fill="white"/>
<path d="M286.378 73.2551C285.293 77.4978 284.014 85.2671 286.81 88.093C286.81 88.093 284.854 92.3973 276.977 92.3973C269.777 92.3973 273.635 88.093 273.635 88.093C278.424 86.9688 278.509 83.473 277.878 80.162L286.378 73.2551Z" fill="#E58A7B"/>
<path d="M282.913 76.0732L277.885 80.1619C278.041 80.9228 278.131 81.6956 278.155 82.4719C279.625 83.9349 282.575 80.2312 282.875 78.337C283.027 77.5913 283.04 76.8237 282.913 76.0732Z" fill="#CF6F64"/>
<path d="M269.238 73.2012C269.588 73.8076 270.059 74.3353 270.622 74.7513C271.185 75.1673 271.828 75.4627 272.511 75.619C274.359 76.0271 275.283 74.3254 274.775 72.616C274.32 71.076 272.803 69.0047 270.925 69.3589C270.522 69.4418 270.145 69.6199 269.826 69.8783C269.506 70.1368 269.254 70.468 269.088 70.8442C268.923 71.2205 268.851 71.6308 268.877 72.0409C268.903 72.451 269.027 72.8488 269.238 73.2012Z" fill="#CF6F64"/>
<path d="M272.295 59.626C269.415 60.9427 268.399 72.3849 272.018 74.0789C275.637 75.7729 277.747 57.1235 272.295 59.626Z" fill="#263238"/>
<path d="M287.256 66.8717C286.563 72.6159 286.486 75.9962 283.406 78.9376C282.452 79.9137 281.246 80.6071 279.922 80.9411C278.599 81.2752 277.209 81.237 275.905 80.8307C274.602 80.4244 273.436 79.6659 272.537 78.6388C271.638 77.6118 271.04 76.3561 270.809 75.0106C269.877 69.8516 271.163 61.3277 276.923 59.0408C278.133 58.507 279.464 58.3067 280.777 58.4605C282.091 58.6142 283.34 59.1166 284.394 59.9154C285.448 60.7143 286.269 61.7806 286.772 63.0037C287.276 64.2268 287.443 65.5623 287.256 66.8717Z" fill="#E58A7B"/>
<path d="M277.793 62.5983C282.059 61.5126 285.192 60.7734 284.068 64.3231C282.582 69.0663 280.796 73.6555 283.19 73.8634C284.653 73.9943 291.121 71.2531 290.298 68.4734C289.581 66.0556 292.608 65.3934 293.147 64.1691C295.141 59.7339 289.435 60.3191 290.452 57.6241C291.468 54.9291 285.832 50.5863 282.752 52.75C277.739 56.2458 269.138 56.1919 273.658 50.44C276.9 46.3359 271.117 47.1752 271.117 47.1752C271.117 47.1752 274.613 49.2465 268.73 52.4497C262.508 55.8685 268.214 65.0546 277.793 62.5983Z" fill="#263238"/>
<path d="M289.52 73.2012C288.678 74.4197 287.413 75.2815 285.97 75.619C284.068 76.0271 283.337 74.3254 284.053 72.616C284.692 71.076 286.448 69.0047 288.265 69.3589C290.082 69.7131 290.498 71.692 289.52 73.2012Z" fill="#E58A7B"/>
<path d="M261.338 139.814C261.338 139.814 256.133 186.399 255.725 204.078C255.309 222.466 273.365 279.838 273.365 279.838L282.605 275.988C282.605 275.988 271.825 223.567 273.365 205.51C274.998 185.821 281.743 139.845 281.743 139.845L261.338 139.814Z" fill="#343434"/>
<path opacity="0.2" d="M274.274 152.604C270.124 161.212 272.919 178.237 275.167 188.324C276.022 181.201 277.038 173.471 278.001 166.317C277.908 155.322 277.054 146.829 274.274 152.604Z" fill="black"/>
<path d="M282.197 272.939C282.244 272.939 283.291 275.881 283.291 275.881L272.634 280.362L270.955 277.236L282.197 272.939Z" fill="#3F97FF"/>
<path d="M272.341 139.814C272.341 139.814 276.322 184.12 278.956 200.713C281.851 218.893 293.201 279.438 293.201 279.438H303.819C303.819 279.438 297.459 220.364 296.258 202.361C294.949 182.834 292.346 139.814 292.346 139.814H272.341Z" fill="#2E383E"/>
<path d="M303.98 276.674C304.027 276.674 304.335 279.638 304.335 279.638H292.661L291.83 276.235L303.98 276.674Z" fill="#3F97FF"/>
<path opacity="0.2" d="M299.915 273.163C299.891 273.163 299.867 273.154 299.849 273.139C299.831 273.123 299.819 273.102 299.815 273.078C299.753 272.539 294.017 219.178 292.939 203.008C291.768 185.467 289.412 146.559 289.389 146.167C289.388 146.154 289.39 146.141 289.394 146.129C289.398 146.117 289.405 146.106 289.413 146.096C289.422 146.087 289.432 146.079 289.444 146.074C289.456 146.069 289.469 146.066 289.481 146.066C289.507 146.066 289.531 146.076 289.55 146.093C289.568 146.11 289.58 146.134 289.581 146.159C289.581 146.552 291.961 185.429 293.131 203C294.209 219.17 299.946 272.493 300 273.07C300.002 273.083 300.001 273.096 299.998 273.109C299.995 273.121 299.989 273.133 299.981 273.143C299.973 273.153 299.963 273.161 299.952 273.167C299.94 273.174 299.928 273.177 299.915 273.178V273.163Z" fill="black"/>
<path d="M278.447 68.4735C278.447 68.9432 278.155 69.3205 277.847 69.3205C277.539 69.3205 277.316 68.9432 277.346 68.4735C277.377 68.0038 277.639 67.6265 277.947 67.6265C278.255 67.6265 278.478 68.0115 278.447 68.4735Z" fill="#263238"/>
<path d="M273.165 68.4735C273.165 68.9432 272.865 69.3205 272.564 69.3205C272.264 69.3205 272.033 68.9432 272.056 68.4735C272.079 68.0038 272.357 67.6265 272.665 67.6265C272.973 67.6265 273.196 68.0115 273.165 68.4735Z" fill="#263238"/>
<path d="M274.828 68.7122C274.186 70.1464 273.357 71.49 272.364 72.7085C273.134 73.4785 274.574 73.1243 274.574 73.1243L274.828 68.7122Z" fill="#DF5753"/>
<path d="M274.967 75.0878C274.949 75.0879 274.931 75.0842 274.915 75.0772C274.898 75.0701 274.884 75.0598 274.871 75.0468C274.859 75.0338 274.85 75.0185 274.844 75.0017C274.837 74.9849 274.835 74.967 274.836 74.9492C274.838 74.9118 274.854 74.8765 274.881 74.8507C274.909 74.8249 274.945 74.8106 274.982 74.8106C275.571 74.8147 276.153 74.6868 276.686 74.4363C277.219 74.1858 277.69 73.819 278.062 73.363C278.089 73.3397 278.123 73.3269 278.158 73.3269C278.194 73.3269 278.228 73.3397 278.255 73.363C278.28 73.3889 278.294 73.4234 278.294 73.4593C278.294 73.4952 278.28 73.5297 278.255 73.5555C277.856 74.0402 277.353 74.4294 276.785 74.6945C276.216 74.9597 275.594 75.0941 274.967 75.0878Z" fill="#263238"/>
<path d="M279.387 67.0566C279.35 67.0755 279.309 67.0854 279.267 67.0854C279.226 67.0854 279.185 67.0755 279.148 67.0566C278.86 66.8704 278.532 66.7546 278.191 66.7184C277.85 66.6823 277.505 66.7269 277.185 66.8487C277.153 66.8643 277.119 66.8736 277.084 66.8758C277.049 66.8781 277.014 66.8733 276.981 66.8618C276.948 66.8503 276.918 66.8324 276.892 66.8089C276.866 66.7855 276.845 66.7572 276.83 66.7255C276.802 66.657 276.801 66.58 276.828 66.511C276.856 66.4419 276.909 66.3863 276.977 66.3559C277.379 66.1915 277.815 66.1266 278.248 66.1669C278.681 66.2071 279.098 66.3512 279.464 66.5869C279.493 66.607 279.518 66.6327 279.538 66.6626C279.557 66.6925 279.571 66.726 279.577 66.7611C279.584 66.7962 279.583 66.8322 279.575 66.8671C279.568 66.9019 279.553 66.935 279.533 66.9642C279.494 67.0084 279.443 67.0404 279.387 67.0566Z" fill="#263238"/>
<path d="M271.125 65.5167C271.084 65.5067 271.046 65.4854 271.017 65.4551C270.991 65.43 270.971 65.4 270.957 65.367C270.943 65.3339 270.936 65.2984 270.936 65.2626C270.936 65.2267 270.943 65.1912 270.957 65.1582C270.971 65.1251 270.991 65.0952 271.017 65.0701C271.312 64.7391 271.68 64.4807 272.091 64.3151C272.502 64.1494 272.946 64.0811 273.389 64.1153C273.424 64.1207 273.458 64.1334 273.488 64.1525C273.519 64.1716 273.545 64.1968 273.565 64.2264C273.585 64.256 273.599 64.2894 273.606 64.3246C273.612 64.3598 273.612 64.396 273.604 64.431C273.588 64.5023 273.546 64.5651 273.486 64.6076C273.427 64.6502 273.354 64.6695 273.281 64.662C272.931 64.6399 272.581 64.6978 272.256 64.8312C271.932 64.9646 271.643 65.1701 271.41 65.432C271.375 65.4709 271.329 65.4995 271.279 65.5144C271.229 65.5294 271.175 65.5301 271.125 65.5167Z" fill="#263238"/>
<path d="M300.092 96.9864L292.084 94.8535C292.084 94.8535 284.23 114.188 281.45 115.443C277.677 117.168 268.122 123.143 264.056 125.969C263.833 126.932 264.01 129.48 264.518 130.181C271.448 128.918 284.715 123.813 287.487 121.218C293.809 115.297 300.092 96.9864 300.092 96.9864Z" fill="#E58A7B"/>
<path d="M294.502 287.623C294.111 287.654 293.722 287.548 293.401 287.323C293.301 287.233 293.227 287.119 293.185 286.993C293.144 286.866 293.136 286.73 293.162 286.599C293.167 286.517 293.194 286.438 293.24 286.37C293.286 286.303 293.349 286.249 293.424 286.214C294.071 285.883 295.88 287.03 296.088 287.161C296.111 287.175 296.128 287.196 296.138 287.221C296.148 287.246 296.149 287.274 296.142 287.3C296.135 287.327 296.122 287.351 296.103 287.372C296.084 287.392 296.06 287.407 296.034 287.415C295.532 287.539 295.018 287.608 294.502 287.623ZM293.732 286.422C293.673 286.409 293.613 286.409 293.555 286.422C293.525 286.437 293.501 286.46 293.484 286.489C293.468 286.518 293.46 286.551 293.462 286.584C293.442 286.673 293.445 286.767 293.472 286.855C293.499 286.942 293.549 287.022 293.616 287.084C293.917 287.354 294.671 287.384 295.664 287.192C295.073 286.802 294.407 286.54 293.709 286.422H293.732Z" fill="#3F97FF"/>
<path d="M295.996 287.415C295.976 287.422 295.954 287.422 295.934 287.415C295.356 287.092 294.271 285.821 294.432 285.174C294.457 285.072 294.515 284.98 294.597 284.915C294.679 284.849 294.781 284.813 294.887 284.813C294.99 284.799 295.095 284.807 295.195 284.838C295.295 284.869 295.386 284.92 295.464 284.99C296.103 285.536 296.142 287.215 296.142 287.3C296.146 287.325 296.141 287.351 296.128 287.373C296.116 287.395 296.096 287.413 296.073 287.423C296.047 287.428 296.02 287.425 295.996 287.415ZM294.964 285.067H294.91C294.733 285.067 294.71 285.167 294.702 285.205C294.61 285.583 295.295 286.545 295.865 286.999C295.862 286.349 295.661 285.715 295.287 285.182C295.198 285.104 295.082 285.063 294.964 285.067Z" fill="#3F97FF"/>
<path d="M274.058 286.661C273.587 286.825 273.074 286.825 272.603 286.661C272.496 286.603 272.405 286.519 272.339 286.416C272.274 286.314 272.234 286.197 272.226 286.076C272.216 285.999 272.226 285.922 272.254 285.851C272.282 285.779 272.328 285.716 272.388 285.667C273.004 285.113 275.521 285.667 275.806 285.775C275.833 285.782 275.857 285.798 275.874 285.821C275.891 285.843 275.9 285.87 275.899 285.898C275.9 285.927 275.892 285.956 275.877 285.981C275.862 286.005 275.84 286.025 275.814 286.037C275.247 286.293 274.66 286.502 274.058 286.661ZM272.803 285.744C272.715 285.762 272.633 285.802 272.565 285.86C272.54 285.878 272.521 285.903 272.51 285.932C272.499 285.96 272.497 285.992 272.503 286.022C272.508 286.102 272.533 286.181 272.576 286.249C272.619 286.318 272.679 286.375 272.749 286.414C273.158 286.63 274.105 286.461 275.329 285.945C274.504 285.737 273.65 285.669 272.803 285.744Z" fill="#3F97FF"/>
<path d="M275.791 286.037H275.729C274.959 285.898 273.419 285.013 273.373 284.351C273.373 284.197 273.442 283.981 273.812 283.858C273.937 283.813 274.069 283.795 274.202 283.803C274.334 283.81 274.463 283.845 274.582 283.904C275.414 284.312 275.852 285.791 275.876 285.86C275.881 285.883 275.88 285.907 275.874 285.93C275.867 285.953 275.854 285.974 275.837 285.991C275.826 286.01 275.81 286.026 275.791 286.037ZM273.966 284.089H273.889C273.65 284.174 273.65 284.274 273.65 284.305C273.65 284.705 274.767 285.436 275.544 285.683C275.365 285.064 274.986 284.523 274.466 284.143C274.312 284.064 274.134 284.045 273.966 284.089Z" fill="#3F97FF"/>
<path d="M264.711 125.515L256.679 129.211L255.748 131.521L258.712 133.515C258.712 133.515 264.256 132.915 265.835 129.35L264.711 125.515Z" fill="#E58A7B"/>
<path d="M265.049 130.312C264.87 128.769 264.36 127.283 263.555 125.954L264.826 124.999C265.782 126.53 266.391 128.251 266.612 130.043L265.049 130.312Z" fill="#263238"/>
<path d="M266.42 126.608C266.59 126.875 266.673 127.188 266.659 127.504C266.644 127.82 266.533 128.125 266.34 128.375C266.147 128.626 265.881 128.811 265.579 128.905C265.277 128.999 264.953 128.998 264.651 128.902C264.35 128.805 264.086 128.618 263.894 128.366C263.703 128.114 263.593 127.81 263.581 127.493C263.569 127.177 263.655 126.865 263.827 126.599C263.998 126.333 264.248 126.127 264.541 126.008C264.87 125.84 265.252 125.809 265.604 125.922C265.956 126.034 266.249 126.281 266.42 126.608Z" fill="#263238"/>
<path d="M251.251 132.199L252.321 133.277L259.528 130.197L256.679 129.211L251.251 132.199Z" fill="#E58A7B"/>
<path opacity="0.2" d="M282.197 272.939C282.244 272.939 283.291 275.881 283.291 275.881L272.634 280.362L270.955 277.236L282.197 272.939Z" fill="black"/>
<path opacity="0.2" d="M303.98 276.674C304.027 276.674 304.335 279.638 304.335 279.638H292.661L291.83 276.235L303.98 276.674Z" fill="black"/>
<path d="M302.179 94.769C304.296 101.599 296.019 110.939 296.019 110.939L284.584 106.273C285.94 102.325 287.502 98.4518 289.266 94.6689C292.777 87.0998 300.038 87.8775 302.179 94.769Z" fill="#3F97FF"/>
<path opacity="0.2" d="M302.179 94.769C304.296 101.599 296.019 110.939 296.019 110.939L284.584 106.273C285.94 102.325 287.502 98.4518 289.266 94.6689C292.777 87.0998 300.038 87.8775 302.179 94.769Z" fill="#713FFF"/>
<path d="M188.558 26.3389H183.637V27.132H188.558V26.3389Z" fill="#407BFF"/>
<path d="M252.251 57.7292L251.655 70.9443L252.447 70.98L253.043 57.7649L252.251 57.7292Z" fill="#407BFF"/>
<path d="M250.72 29.8962H159.86L151.405 219.101H242.265L250.72 29.8962Z" fill="#407BFF"/>
<path opacity="0.56" d="M248.009 32.4988H157.149L148.695 221.703H239.555L248.009 32.4988Z" fill="#FAFAFA"/>
<path opacity="0.07" d="M245.299 35.0938H154.439L145.977 224.298H236.837L245.299 35.0938Z" fill="#713FFF"/>
<g filter="url(#filter0_d_928_2695)">
<circle cx="189" cy="56" r="55.5" stroke="black" shape-rendering="crispEdges"/>
</g>
<path d="M234.85 117.53H157.723L157.08 146.02H234.207L234.85 117.53Z" fill="white"/>
<path opacity="0.47" d="M218.988 190.711H166.836L166.058 208.059H218.21L218.988 190.711Z" fill="#407BFF"/>
<path d="M215.5 210.754H163.348C163.325 210.76 163.301 210.76 163.278 210.754C163.271 210.731 163.271 210.707 163.278 210.685L164.048 193.329C164.048 193.317 164.051 193.305 164.056 193.294C164.06 193.284 164.067 193.274 164.076 193.266C164.085 193.258 164.095 193.252 164.106 193.248C164.117 193.244 164.129 193.243 164.141 193.244H216.293C216.302 193.239 216.313 193.237 216.324 193.237C216.334 193.237 216.345 193.239 216.355 193.244C216.36 193.253 216.363 193.264 216.363 193.275C216.363 193.286 216.36 193.296 216.355 193.306L215.6 210.7C215.591 210.718 215.576 210.733 215.558 210.742C215.54 210.752 215.52 210.756 215.5 210.754ZM163.44 210.569H215.407L216.177 193.398H164.21L163.44 210.569Z" fill="white"/>
<path d="M217.995 70.8525C217.796 75.0654 216.297 79.1135 213.706 82.441C211.787 84.9544 209.318 86.9948 206.489 88.4056C203.659 89.8165 200.544 90.5603 197.382 90.5799C194.827 90.5994 192.295 90.0955 189.942 89.0994C187.589 88.1033 185.464 86.6359 183.7 84.7878C181.935 82.9396 180.568 80.7498 179.682 78.3532C178.796 75.9566 178.41 73.4039 178.547 70.8525C178.818 65.558 181.101 60.5669 184.93 56.9C188.759 53.233 193.844 51.1672 199.145 51.1251C201.702 51.1012 204.237 51.602 206.593 52.5964C208.949 53.5908 211.075 55.0578 212.842 56.9066C214.609 58.7555 215.977 60.9469 216.864 63.3456C217.75 65.7442 218.135 68.2992 217.995 70.8525Z" fill="white"/>
<path d="M219.85 55.2523C219.8 56.3725 219.402 57.4492 218.711 58.3323C218.199 58.9999 217.542 59.5418 216.79 59.9168C216.037 60.2918 215.209 60.4899 214.368 60.496C213.553 60.501 212.75 60.3064 212.028 59.9292C211.306 59.552 210.687 59.0038 210.225 58.3323C209.614 57.425 209.312 56.345 209.363 55.2523C209.437 53.8466 210.045 52.5222 211.063 51.5493C212.08 50.5763 213.43 50.0281 214.838 50.0163C215.517 50.0101 216.19 50.143 216.816 50.4069C217.441 50.6707 218.007 51.0599 218.476 51.5505C218.946 52.041 219.31 52.6225 219.546 53.2592C219.783 53.8958 219.886 54.5742 219.85 55.2523Z" fill="#407BFF"/>
<path d="M204.014 69.8251C207.237 66.6735 207.408 61.6217 204.396 58.5418C201.384 55.4618 196.33 55.5199 193.107 58.6716C189.884 61.8233 189.713 66.875 192.725 69.9549C195.737 73.0349 200.791 72.9768 204.014 69.8251Z" fill="#407BFF"/>
<path d="M213.706 82.441C211.787 84.9544 209.318 86.9948 206.489 88.4057C203.659 89.8165 200.544 90.5603 197.382 90.5799C194.316 90.6059 191.29 89.8771 188.572 88.4577C185.854 87.0384 183.528 84.972 181.797 82.441C185.539 78.7142 191.46 76.281 198.021 76.281C204.581 76.281 210.295 78.7142 213.706 82.441Z" fill="#407BFF"/>
<path opacity="0.1" d="M204.014 69.8251C207.237 66.6735 207.408 61.6217 204.396 58.5418C201.384 55.4618 196.33 55.5199 193.107 58.6716C189.884 61.8233 189.713 66.875 192.725 69.9549C195.737 73.0349 200.791 72.9768 204.014 69.8251Z" fill="white"/>
<path opacity="0.1" d="M213.706 82.441C211.787 84.9544 209.318 86.9948 206.489 88.4057C203.659 89.8165 200.544 90.5603 197.382 90.5799C194.316 90.6059 191.29 89.8771 188.572 88.4577C185.854 87.0384 183.528 84.972 181.797 82.441C185.539 78.7142 191.46 76.281 198.021 76.281C204.581 76.281 210.295 78.7142 213.706 82.441Z" fill="white"/>
<path d="M218.795 95.2002H176.615L176.33 101.676H218.51L218.795 95.2002Z" fill="#407BFF"/>
<path d="M184.03 95.9702L184.743 97.4898L186.34 97.735L185.185 98.9174L185.456 100.59L184.03 99.7976L182.6 100.59L182.875 98.9174L181.72 97.735L183.317 97.4898L184.03 95.9702Z" fill="#FFB800"/>
<path d="M190.19 95.9702L190.903 97.4898L192.5 97.735L191.345 98.9174L191.616 100.59L190.19 99.7976L188.76 100.59L189.035 98.9174L187.88 97.735L189.477 97.4898L190.19 95.9702Z" fill="#FFB800"/>
<path d="M196.35 95.9702L197.063 97.4898L198.66 97.735L197.505 98.9174L197.776 100.59L196.35 99.7976L194.92 100.59L195.195 98.9174L194.04 97.735L195.637 97.4898L196.35 95.9702Z" fill="#FFB800"/>
<path d="M202.51 95.9702L203.223 97.4898L204.82 97.735L203.665 98.9174L203.936 100.59L202.51 99.7976L201.08 100.59L201.355 98.9174L200.2 97.735L201.797 97.4898L202.51 95.9702Z" fill="#FFB800"/>
<path d="M208.67 95.9702L209.383 97.4898L210.98 97.735L209.825 98.9174L210.096 100.59L208.67 99.7976L207.24 100.59L207.515 98.9174L206.36 97.735L207.957 97.4898L208.67 95.9702Z" fill="#FFB800"/>
<path d="M100.416 135.579C99.6842 137.18 98.9142 138.944 98.2443 140.653C97.5744 142.362 96.8891 144.126 96.2962 145.881C95.0857 149.341 94.1636 152.895 93.5396 156.507L93.3702 157.639C93.3541 157.833 93.3723 158.029 93.4241 158.217C93.6058 158.855 93.8921 159.459 94.2711 160.003C95.26 161.413 96.407 162.705 97.6899 163.853C99.0425 165.111 100.461 166.296 101.94 167.403C103.419 168.542 104.974 169.651 106.506 170.698L105.067 173.401C101.408 171.807 97.9347 169.816 94.71 167.464C92.9896 166.21 91.437 164.74 90.09 163.091C89.2916 162.109 88.669 160.997 88.2497 159.803C88.006 159.057 87.8812 158.278 87.8801 157.493C87.8801 157.308 87.8801 157.039 87.8801 156.908V156.53L87.9571 155.76C88.3986 151.749 89.2421 147.792 90.475 143.949C91.0756 142.054 91.7147 140.168 92.4462 138.328C93.1777 136.487 93.9323 134.686 94.864 132.814L100.416 135.579Z" fill="#E58A7B"/>
<path d="M105.421 170.221L110.865 167.465L109.456 173.44C109.456 173.44 105.721 174.487 103.989 172.67L105.421 170.221Z" fill="#E58A7B"/>
<path d="M115.846 168.442L114.399 173.386L109.455 173.44L110.864 167.465L115.846 168.442Z" fill="#E58A7B"/>
<path d="M123.531 106.75C123.822 107.817 124.228 108.85 124.74 109.83C124.59 110 124.397 110.126 124.182 110.195C123.966 110.264 123.736 110.274 123.516 110.223L123.531 106.75Z" fill="#DF5753"/>
<path d="M123.369 106.796C123.688 106.796 123.947 106.4 123.947 105.911C123.947 105.422 123.688 105.025 123.369 105.025C123.05 105.025 122.792 105.422 122.792 105.911C122.792 106.4 123.05 106.796 123.369 106.796Z" fill="#263238"/>
<path d="M123.2 105.056L124.37 104.725C124.37 104.725 123.801 105.633 123.2 105.056Z" fill="#263238"/>
<path d="M108.493 112.402C109.194 115.982 109.894 122.55 107.384 124.945C107.384 124.945 108.37 128.58 115.03 128.58C122.353 128.58 118.526 124.945 118.526 124.945C114.53 123.99 114.63 121.026 115.33 118.238L108.493 112.402Z" fill="#E58A7B"/>
<path d="M106.545 104.24C106.914 110.223 106.945 112.764 109.964 115.836C114.514 120.456 121.783 118.701 123.208 112.756C124.493 107.366 123.677 98.4957 117.818 96.1164C116.531 95.5866 115.131 95.3936 113.75 95.5557C112.368 95.7179 111.051 96.2298 109.922 97.0431C108.793 97.8564 107.891 98.9442 107.3 100.204C106.709 101.463 106.449 102.852 106.545 104.24Z" fill="#E58A7B"/>
<path d="M107.138 97.5099C104.135 98.6033 100.131 97.7871 101.702 107.05C103.365 116.86 100.808 120.086 100.808 120.086C100.808 120.086 112.197 122.512 123.824 119.94C123.824 119.94 120.274 113.734 121.267 109.16C122.538 103.385 121.537 101.252 121.537 101.252C121.537 101.252 111.357 95.9699 107.138 97.5099Z" fill="#263238"/>
<path d="M119.843 107.358C119.846 108.496 120.172 109.609 120.782 110.569C121.598 111.817 122.561 111.339 122.8 110.015C123.015 108.852 122.853 106.796 121.814 105.996C120.774 105.195 119.858 105.98 119.843 107.358Z" fill="#E58A7B"/>
<path d="M104.527 98.5188C103.665 96.0933 107.777 92.3588 116.478 93.8988C125.179 95.4388 125.556 102.684 125.556 102.684L123.801 100.59L123.878 102.792L114.938 104.509L104.527 98.5188Z" fill="#263238"/>
<path d="M105.267 125.353C105.215 125.002 105.303 124.644 105.512 124.356C105.72 124.069 106.033 123.874 106.383 123.813C109.093 123.367 115.253 122.458 118.349 122.889C120.659 123.213 121.259 124.552 121.36 125.654C121.375 125.846 121.349 126.04 121.284 126.222C121.218 126.404 121.115 126.57 120.98 126.709C120.845 126.847 120.682 126.955 120.502 127.026C120.321 127.096 120.128 127.127 119.935 127.117L106.552 126.516C106.237 126.5 105.937 126.376 105.702 126.164C105.468 125.952 105.314 125.666 105.267 125.353Z" fill="#407BFF"/>
<path opacity="0.6" d="M105.267 125.353C105.215 125.002 105.303 124.644 105.512 124.356C105.72 124.069 106.033 123.874 106.383 123.813C109.093 123.367 115.253 122.458 118.349 122.889C120.659 123.213 121.259 124.552 121.36 125.654C121.375 125.846 121.349 126.04 121.284 126.222C121.218 126.404 121.115 126.57 120.98 126.709C120.845 126.847 120.682 126.955 120.502 127.026C120.321 127.096 120.128 127.127 119.935 127.117L106.552 126.516C106.237 126.5 105.937 126.376 105.702 126.164C105.468 125.952 105.314 125.666 105.267 125.353Z" fill="black"/>
<path d="M113.005 259.872L117.972 263.322L126.28 252.057L121.313 248.615L113.005 259.872Z" fill="#E58A7B"/>
<path d="M101.424 259.649L106.668 262.637L114.022 250.725L108.778 247.737L101.424 259.649Z" fill="#E58A7B"/>
<path d="M126.272 252.057L121.991 257.862L117.024 254.421L121.306 248.615L126.272 252.057Z" fill="#CF6F64"/>
<path d="M108.77 247.737L114.021 250.732L110.233 256.869L104.982 253.874L108.77 247.737Z" fill="#CF6F64"/>
<path d="M117.194 162.96C117.194 162.96 136.583 187.392 132.941 210.762C130.007 229.634 112.99 255.191 112.99 255.191L104.99 251.217C110.629 239.918 115.441 228.224 119.389 216.229C120.606 212.504 120.961 208.552 120.428 204.671C119.894 200.789 118.486 197.079 116.309 193.822C106.483 179.476 90.7445 188.016 101.332 162.96H117.194Z" fill="#407BFF"/>
<path opacity="0.6" d="M117.194 162.96C117.194 162.96 136.583 187.392 132.941 210.762C130.007 229.634 112.99 255.191 112.99 255.191L104.99 251.217C110.629 239.918 115.441 228.224 119.389 216.229C120.606 212.504 120.961 208.552 120.428 204.671C119.894 200.789 118.486 197.079 116.309 193.822C106.483 179.476 90.7445 188.016 101.332 162.96H117.194Z" fill="black"/>
<path opacity="0.4" d="M126.703 178.653L123.885 175.85C123.885 176.073 129.345 209.776 130.877 219.247C131.781 216.48 132.474 213.649 132.948 210.777C134.75 199.312 130.985 187.6 126.703 178.653Z" fill="black"/>
<path d="M125.849 162.96C125.849 162.96 149.195 193.668 149.857 212.078C150.404 227.478 124.447 257.316 124.447 257.316L116.901 252.434C116.901 252.434 132.093 231.244 135.92 213.934C134.442 196.778 103.18 162.96 103.18 162.96H125.849Z" fill="#407BFF"/>
<path opacity="0.6" d="M125.849 162.96C125.849 162.96 149.195 193.668 149.857 212.078C150.404 227.478 124.447 257.316 124.447 257.316L116.901 252.434C116.901 252.434 132.093 231.244 135.92 213.934C134.442 196.778 103.18 162.96 103.18 162.96H125.849Z" fill="black"/>
<path d="M96.9659 126.316C94.4711 126.909 92.0764 135.979 92.0764 135.979L101.832 142.493C101.832 142.493 105.082 135.317 103.942 132.175C102.764 128.903 100.1 125.569 96.9659 126.316Z" fill="#713FFF"/>
<path opacity="0.2" d="M98.8756 132.16L98.198 140.068L101.825 142.501C102.826 140.247 103.567 137.886 104.035 135.463L98.8756 132.16Z" fill="black"/>
<path d="M128.736 126.493C128.736 126.493 131.616 127.501 125.849 162.952H101.317C101.732 152.942 101.74 146.782 96.9661 126.316C100.401 125.608 103.883 125.15 107.384 124.945C111.093 124.679 114.817 124.679 118.526 124.945C123.315 125.384 128.736 126.493 128.736 126.493Z" fill="#713FFF"/>
<path d="M131.231 132.16C131.786 133.7 132.371 135.355 132.987 136.949C133.603 138.543 134.188 140.183 134.812 141.8L136.698 146.636L137.176 147.845L137.422 148.445L137.537 148.746C137.537 148.8 137.537 148.8 137.537 148.792C137.397 148.594 137.212 148.43 136.998 148.315C136.694 148.135 136.35 148.032 135.997 148.014C135.704 148.005 135.412 148.06 135.143 148.176C134.789 148.338 134.789 148.407 134.796 148.399C134.86 148.348 134.917 148.288 134.966 148.222C135.392 147.663 135.761 147.061 136.067 146.428C136.429 145.72 136.775 144.965 137.122 144.203C137.799 142.663 138.423 141.069 139.047 139.46C139.67 137.85 140.263 136.226 140.841 134.585L142.596 129.673L145.561 130.443C144.976 133.954 144.221 137.373 143.312 140.853C142.874 142.586 142.358 144.303 141.772 146.035C141.48 146.905 141.156 147.768 140.787 148.653C140.402 149.614 139.927 150.537 139.37 151.41C139.165 151.704 138.939 151.982 138.692 152.242C138.299 152.666 137.822 153.004 137.291 153.235C136.82 153.437 136.31 153.532 135.797 153.512C135.223 153.491 134.664 153.324 134.173 153.027C133.592 152.665 133.111 152.165 132.771 151.572C132.656 151.371 132.556 151.171 132.486 151.025L132.34 150.732L132.047 150.132L131.462 148.938C130.692 147.337 129.922 145.72 129.252 144.095C128.582 142.47 127.874 140.822 127.212 139.167C126.55 137.511 125.957 135.856 125.395 134.07L131.231 132.16Z" fill="#E58A7B"/>
<path d="M128.736 126.493C131.685 127.194 135.004 135.91 135.004 135.91L126.234 143.371C126.234 143.371 120.559 133.87 121.706 130.736C122.9 127.471 124.886 125.577 128.736 126.493Z" fill="#713FFF"/>
<path d="M143.99 126.916L147.07 124.344L149.211 127.679L147.632 130.458C147.632 130.458 145.122 132.768 142.904 131.59C142.552 130.799 142.468 129.915 142.664 129.071C142.86 128.228 143.325 127.471 143.99 126.916Z" fill="#E58A7B"/>
<path d="M152.629 124.352L152.398 125.191L147.524 126.008L147.047 124.344L152.629 124.352Z" fill="#E58A7B"/>
<path d="M125.048 257.708L116.254 252.026L117.833 249.285L127.712 255.36L125.048 257.708Z" fill="#407BFF"/>
<path d="M110.11 262.236C109.338 262.142 108.597 261.879 107.939 261.466C107.911 261.457 107.888 261.439 107.871 261.416C107.854 261.392 107.845 261.364 107.845 261.335C107.845 261.307 107.854 261.278 107.871 261.255C107.888 261.232 107.911 261.214 107.939 261.204C108.177 261.127 110.249 260.488 110.849 260.981C110.917 261.037 110.968 261.11 110.998 261.193C111.027 261.276 111.035 261.365 111.019 261.451C111.008 261.589 110.962 261.723 110.885 261.839C110.808 261.955 110.703 262.049 110.58 262.113C110.435 262.192 110.274 262.234 110.11 262.236ZM108.377 261.389C109.34 261.882 110.11 262.059 110.48 261.874C110.56 261.83 110.628 261.765 110.676 261.687C110.725 261.609 110.752 261.52 110.757 261.428C110.757 261.305 110.757 261.251 110.687 261.22C110.364 260.958 109.209 261.158 108.362 261.389H108.377Z" fill="#263238"/>
<path d="M107.992 261.52C107.952 261.52 107.913 261.503 107.885 261.474C107.873 261.453 107.867 261.429 107.867 261.405C107.867 261.38 107.873 261.357 107.885 261.335C107.885 261.266 108.385 259.595 109.171 259.218C109.271 259.172 109.38 259.148 109.49 259.148C109.6 259.148 109.709 259.172 109.81 259.218C109.918 259.252 110.011 259.321 110.076 259.415C110.14 259.508 110.171 259.621 110.164 259.734C110.11 260.427 108.701 261.382 108.054 261.543L107.992 261.52ZM109.486 259.418C109.411 259.42 109.338 259.439 109.271 259.472C108.793 259.703 108.401 260.604 108.208 261.151C108.886 260.866 109.817 260.111 109.848 259.688C109.848 259.618 109.848 259.534 109.671 259.457C109.613 259.426 109.551 259.405 109.486 259.395V259.418Z" fill="#263238"/>
<path d="M121.098 265.563C120.228 265.563 119.019 264.446 118.357 263.761C118.34 263.737 118.331 263.709 118.331 263.68C118.331 263.651 118.34 263.623 118.357 263.599C118.372 263.574 118.393 263.554 118.419 263.541C118.445 263.527 118.474 263.521 118.503 263.522C118.811 263.522 121.483 263.923 121.86 264.677C121.9 264.745 121.921 264.822 121.921 264.9C121.921 264.979 121.9 265.056 121.86 265.124C121.804 265.241 121.718 265.343 121.612 265.418C121.505 265.493 121.381 265.541 121.252 265.555L121.098 265.563ZM118.865 263.869C119.835 264.808 120.69 265.332 121.175 265.27C121.26 265.259 121.341 265.227 121.41 265.178C121.48 265.128 121.537 265.062 121.575 264.985C121.592 264.959 121.602 264.928 121.602 264.897C121.602 264.865 121.592 264.834 121.575 264.808C121.375 264.392 119.95 264.038 118.865 263.869Z" fill="#263238"/>
<path d="M118.95 263.83C118.777 263.835 118.604 263.822 118.434 263.792C118.41 263.788 118.387 263.778 118.369 263.763C118.35 263.749 118.335 263.729 118.326 263.707C118.314 263.684 118.308 263.659 118.308 263.634C118.308 263.608 118.314 263.583 118.326 263.56C118.372 263.507 119.412 262.251 120.397 262.167C120.676 262.145 120.953 262.234 121.167 262.413C121.467 262.675 121.452 262.906 121.375 263.052C121.183 263.576 119.85 263.83 118.95 263.83ZM118.749 263.545C119.612 263.591 120.99 263.306 121.167 262.929C121.167 262.929 121.229 262.806 121.029 262.637C120.949 262.567 120.856 262.515 120.755 262.483C120.654 262.451 120.548 262.441 120.443 262.452C119.779 262.637 119.188 263.021 118.749 263.553V263.545Z" fill="#263238"/>
<path d="M108.2 260.689L101.671 258.841C101.558 258.806 101.437 258.815 101.33 258.865C101.224 258.915 101.139 259.002 101.093 259.11L98.8909 264.061C98.8392 264.188 98.8149 264.324 98.8197 264.461C98.8244 264.598 98.8581 264.732 98.9185 264.855C98.9788 264.978 99.0645 265.087 99.1699 265.174C99.2753 265.262 99.3981 265.326 99.53 265.362C101.84 265.963 102.949 266.132 105.821 266.956C107.592 267.449 110.118 268.365 112.558 269.058C114.999 269.751 115.816 267.372 114.868 266.864C110.587 264.6 110.248 263.014 109.078 261.32C108.868 261.013 108.558 260.79 108.2 260.689Z" fill="#407BFF"/>
<path d="M118.534 262.86L112.959 259.01C112.864 258.941 112.748 258.909 112.631 258.921C112.515 258.932 112.407 258.986 112.327 259.072L108.631 263.045C108.541 263.147 108.474 263.268 108.434 263.399C108.395 263.529 108.383 263.667 108.4 263.803C108.418 263.938 108.464 264.068 108.536 264.185C108.607 264.301 108.703 264.4 108.816 264.477C110.78 265.794 111.796 266.325 114.252 268.027C115.792 269.074 118.772 271.399 120.851 272.847C122.93 274.294 124.478 272.308 123.739 271.522C120.428 267.988 119.704 265.771 119.157 263.761C119.062 263.396 118.841 263.077 118.534 262.86Z" fill="#407BFF"/>
<path d="M114.014 255.699L103.965 250.702L105.005 247.976L115.739 253.243L114.014 255.699Z" fill="#407BFF"/>
<path d="M100.947 161.512L100.1 163.73C100.015 163.899 100.215 164.076 100.5 164.076H125.972C126.195 164.076 126.38 163.969 126.395 163.83L126.611 161.628C126.611 161.482 126.434 161.351 126.195 161.351H101.347C101.273 161.344 101.197 161.355 101.127 161.383C101.058 161.411 100.996 161.455 100.947 161.512Z" fill="#407BFF"/>
<path opacity="0.4" d="M100.947 161.512L100.1 163.73C100.015 163.899 100.215 164.076 100.5 164.076H125.972C126.195 164.076 126.38 163.969 126.395 163.83L126.611 161.628C126.611 161.482 126.434 161.351 126.195 161.351H101.347C101.273 161.344 101.197 161.355 101.127 161.383C101.058 161.411 100.996 161.455 100.947 161.512Z" fill="white"/>
<path d="M104.959 164.292H104.289C104.158 164.292 104.058 164.223 104.065 164.138L104.381 161.282C104.381 161.205 104.504 161.135 104.635 161.135H105.305C105.436 161.135 105.536 161.205 105.528 161.282L105.213 164.138C105.205 164.223 105.089 164.292 104.959 164.292Z" fill="#407BFF"/>
<path d="M120.667 164.292H120.004C119.874 164.292 119.773 164.223 119.781 164.138L120.089 161.282C120.089 161.205 120.22 161.135 120.351 161.135H121.013C121.144 161.135 121.252 161.205 121.236 161.282L120.928 164.138C120.89 164.223 120.805 164.292 120.667 164.292Z" fill="#407BFF"/>
<g style="mix-blend-mode:multiply">
<path d="M104.373 294.692C115.766 294.692 125.002 294.023 125.002 293.198C125.002 292.373 115.766 291.704 104.373 291.704C92.9807 291.704 83.7451 292.373 83.7451 293.198C83.7451 294.023 92.9807 294.692 104.373 294.692Z" fill="#F5F5F5"/>
</g>
<path d="M116.94 291.088C113.29 290.025 109.24 288.663 106.791 287.238C106.722 287.192 106.645 287.169 106.576 287.13V270.606H113.96C114.521 270.573 115.047 270.327 115.432 269.918C115.818 269.51 116.032 268.969 116.032 268.408C116.032 267.846 115.818 267.306 115.432 266.897C115.047 266.489 114.521 266.243 113.96 266.209H106.614V190.888H102.179V266.209H94.8409C94.5413 266.192 94.2412 266.235 93.9591 266.338C93.6769 266.44 93.4187 266.599 93.2003 266.805C92.9819 267.011 92.8078 267.259 92.6889 267.535C92.5699 267.811 92.5086 268.108 92.5086 268.408C92.5086 268.708 92.5699 269.005 92.6889 269.28C92.8078 269.556 92.9819 269.804 93.2003 270.01C93.4187 270.216 93.6769 270.375 93.9591 270.478C94.2412 270.58 94.5413 270.624 94.8409 270.606H102.179V287.107C102.11 287.107 102.04 287.169 101.971 287.215C99.484 288.663 95.4646 290.025 91.8148 291.065C91.5683 291.139 91.3566 291.3 91.218 291.517C91.0795 291.734 91.0233 291.994 91.0596 292.249C91.0959 292.504 91.2223 292.737 91.4159 292.907C91.6095 293.077 91.8576 293.172 92.1151 293.175H116.64C116.886 293.158 117.119 293.057 117.3 292.89C117.48 292.722 117.598 292.497 117.633 292.253C117.668 292.009 117.619 291.76 117.493 291.548C117.366 291.336 117.171 291.174 116.94 291.088Z" fill="#E0E0E0"/>
<path d="M118.072 183.219H90.6905C88.4877 183.219 86.7019 185.005 86.7019 187.207V195.346C86.7019 197.549 88.4877 199.335 90.6905 199.335H118.072C120.275 199.335 122.06 197.549 122.06 195.346V187.207C122.06 185.005 120.275 183.219 118.072 183.219Z" fill="#407BFF"/>
<path d="M90.4365 199.343V200.744C90.4365 201.899 91.6916 202.838 93.2316 202.838H115.562C117.102 202.838 118.357 201.899 118.357 200.744V199.343H90.4365Z" fill="#407BFF"/>
<path opacity="0.3" d="M90.4365 199.343V200.744C90.4365 201.899 91.6916 202.838 93.2316 202.838H115.562C117.102 202.838 118.357 201.899 118.357 200.744V199.343H90.4365Z" fill="white"/>
<rect x="160.16" y="124.46" width="70.84" height="0.77" fill="#713FFF"/>
<rect x="160.16" y="128.31" width="70.84" height="0.77" fill="#D9D9D9"/>
<rect x="160.16" y="132.16" width="70.84" height="0.77" fill="#D9D9D9"/>
<rect x="160.16" y="136.01" width="70.84" height="0.77" fill="#D9D9D9"/>
<rect x="160.16" y="139.86" width="70.84" height="0.77" fill="#D9D9D9"/>
<defs>
<filter id="filter0_d_928_2695" x="129" y="0" width="120" height="120" filterUnits="userSpaceOnUse" color-interpolation-filters="sRGB">
<feFlood flood-opacity="0" result="BackgroundImageFix"/>
<feColorMatrix in="SourceAlpha" type="matrix" values="0 0 0 0 0 0 0 0 0 0 0 0 0 0 0 0 0 0 127 0" result="hardAlpha"/>
<feOffset dy="4"/>
<feGaussianBlur stdDeviation="2"/>
<feComposite in2="hardAlpha" operator="out"/>
<feColorMatrix type="matrix" values="0 0 0 0 0 0 0 0 0 0 0 0 0 0 0 0 0 0 0.25 0"/>
<feBlend mode="normal" in2="BackgroundImageFix" result="effect1_dropShadow_928_2695"/>
<feBlend mode="normal" in="SourceGraphic" in2="effect1_dropShadow_928_2695" result="shape"/>
</filter>
</defs>
</svg>
