<svg width="560" height="341" viewBox="0 0 560 341" fill="none" xmlns="http://www.w3.org/2000/svg">
<g filter="url(#filter0_d_928_2696)">
<path d="M508.503 322.164H477.439V322.398H508.503V322.164Z" fill="#EBEBEB"/>
<path d="M397.191 324.715H389.041V324.949H397.191V324.715Z" fill="#EBEBEB"/>
<path d="M476.501 313.46H458.503V313.694H476.501V313.46Z" fill="#EBEBEB"/>
<path d="M176.247 315.036H135.739V315.27H176.247V315.036Z" fill="#EBEBEB"/>
<path d="M190.541 315.036H184.604V315.27H190.541V315.036Z" fill="#EBEBEB"/>
<path d="M297.707 318.993H209.844V319.228H297.707V318.993Z" fill="#EBEBEB"/>
<path d="M308.821 265.242H127.72C126.301 265.239 124.941 264.674 123.939 263.67C122.936 262.666 122.374 261.305 122.374 259.886V5.30859C122.386 3.89799 122.954 2.54923 123.955 1.55526C124.956 0.561302 126.309 0.00241643 127.72 0H308.821C310.242 0 311.604 0.564237 312.608 1.56858C313.612 2.57293 314.177 3.93512 314.177 5.35548V259.886C314.177 261.307 313.612 262.669 312.608 263.673C311.604 264.677 310.242 265.242 308.821 265.242ZM127.72 0.187583C126.363 0.190068 125.063 0.730695 124.105 1.6908C123.146 2.65091 122.608 3.95203 122.608 5.30859V259.886C122.608 261.243 123.146 262.544 124.105 263.504C125.063 264.464 126.363 265.005 127.72 265.007H308.821C310.179 265.005 311.48 264.464 312.44 263.505C313.399 262.545 313.94 261.244 313.942 259.886V5.30859C313.94 3.95117 313.399 2.65007 312.44 1.69023C311.48 0.73039 310.179 0.190063 308.821 0.187583H127.72Z" fill="#EBEBEB"/>
<path d="M511.701 265.242H330.59C329.171 265.239 327.81 264.674 326.806 263.67C325.802 262.667 325.237 261.306 325.235 259.886V5.30859C325.25 3.89713 325.82 2.54838 326.823 1.55468C327.825 0.560974 329.179 0.00239007 330.59 0H511.701C513.11 0.00488136 514.461 0.564857 515.46 1.55856C516.459 2.55225 517.026 3.89961 517.038 5.30859V259.886C517.038 261.303 516.476 262.663 515.476 263.667C514.476 264.67 513.118 265.237 511.701 265.242ZM330.59 0.187583C329.233 0.190063 327.932 0.73039 326.972 1.69023C326.012 2.65007 325.472 3.95117 325.469 5.30859V259.886C325.472 261.244 326.012 262.545 326.972 263.505C327.932 264.464 329.233 265.005 330.59 265.007H511.701C513.059 265.005 514.36 264.464 515.32 263.505C516.279 262.545 516.82 261.244 516.822 259.886V5.30859C516.82 3.95117 516.279 2.65007 515.32 1.69023C514.36 0.73039 513.059 0.190063 511.701 0.187583H330.59Z" fill="#EBEBEB"/>
<path d="M555.492 307.073H86.5361V307.307H555.492V307.073Z" fill="#EBEBEB"/>
<path d="M195.662 270.944H179.614L173.396 181.917H189.444L195.662 270.944Z" fill="#EBEBEB"/>
<path d="M419.551 270.944H435.599L429.371 181.917H413.324L419.551 270.944Z" fill="#EBEBEB"/>
<path d="M422.9 278.391H449.33L448.814 270.944H422.384L422.9 278.391Z" fill="#E0E0E0"/>
<path d="M134.051 213.375L164.064 213.262C165.233 213.262 166.355 213.727 167.181 214.554C168.008 215.38 168.473 216.501 168.473 217.671V228.26C168.473 229.431 168.938 230.555 169.766 231.383C170.595 232.212 171.719 232.677 172.89 232.677H216.972C218.143 232.677 219.266 232.213 220.096 231.387C220.925 230.561 221.394 229.44 221.399 228.269V189.383C221.4 188.805 221.515 188.232 221.738 187.698C221.961 187.165 222.287 186.68 222.697 186.272C223.108 185.864 223.594 185.542 224.13 185.322C224.665 185.103 225.238 184.991 225.817 184.994H235.196C236.367 184.994 237.491 184.528 238.319 183.7C239.148 182.871 239.613 181.748 239.613 180.576V159.361C239.612 158.781 239.725 158.208 239.946 157.672C240.167 157.137 240.492 156.65 240.902 156.241C241.311 155.831 241.798 155.507 242.333 155.285C242.868 155.064 243.442 154.951 244.021 154.952H259.394C260.563 154.952 261.684 155.417 262.511 156.244C263.338 157.07 263.802 158.191 263.802 159.361V165.607C263.802 166.779 264.267 167.902 265.096 168.731C265.924 169.559 267.048 170.025 268.22 170.025H269.655C270.823 170.022 271.943 169.557 272.769 168.731C273.595 167.905 274.06 166.785 274.063 165.616V142.563C274.063 141.391 274.528 140.267 275.357 139.439C276.185 138.61 277.309 138.145 278.48 138.145H293.703C294.874 138.147 295.996 138.614 296.824 139.442C297.652 140.27 298.118 141.392 298.12 142.563V165.692C298.12 166.861 298.585 167.982 299.411 168.809C300.238 169.635 301.359 170.1 302.528 170.1H307.274C308.443 170.1 309.565 169.635 310.391 168.809C311.218 167.982 311.682 166.861 311.682 165.692V119.03V95.667H312.62V110.055C312.7 109.928 312.791 109.809 312.892 109.698L347.923 89.5799C348.664 88.7733 349.086 89.5799 349.086 88.5013V59.7074L351.497 57.9816L395.204 26.6272V14.153H396.141V25.9519L396.32 25.83V165.663C396.32 166.835 396.785 167.959 397.614 168.787C398.442 169.616 399.566 170.081 400.737 170.081H406.487C407.066 170.082 407.641 169.969 408.176 169.748C408.712 169.527 409.199 169.203 409.61 168.793C410.02 168.384 410.346 167.897 410.568 167.362C410.79 166.826 410.904 166.252 410.904 165.673L412.283 113.487C412.294 112.984 412.413 112.488 412.63 112.034L421.184 94.2132H421.822V73.9636C421.822 73.0184 422.197 72.1119 422.865 71.4435C423.534 70.7751 424.44 70.3996 425.386 70.3996H427.111V56.0964H428.049V70.3996H428.987C429.933 70.3996 430.841 70.7748 431.511 71.4429C432.181 72.111 432.558 73.0175 432.561 73.9636V74.9016H436.566V73.9636C436.566 73.0184 436.941 72.1119 437.609 71.4435C438.278 70.7751 439.184 70.3996 440.13 70.3996H441.649V56.0964H442.587V70.3996H443.694C444.64 70.3996 445.547 70.7748 446.217 71.4429C446.887 72.111 447.265 73.0175 447.267 73.9636V94.1569H447.905L456.468 111.977C456.68 112.434 456.798 112.928 456.815 113.431L458.222 165.588C458.222 166.76 458.687 167.884 459.516 168.712C460.344 169.54 461.468 170.006 462.639 170.006H470.715C471.884 170.006 473.005 170.47 473.832 171.297C474.659 172.124 475.123 173.245 475.123 174.414V180.492C475.123 181.661 475.588 182.782 476.414 183.609C477.241 184.436 478.362 184.9 479.531 184.9H485.299C486.34 184.894 487.348 185.257 488.145 185.926C488.942 186.594 489.476 187.523 489.651 188.548L505.014 269.284C505.071 269.559 505.099 269.838 505.099 270.119C505.094 271.29 504.625 272.411 503.796 273.237C502.966 274.063 501.843 274.527 500.672 274.527H134.098C133.17 274.555 134.051 213.375 134.051 213.375Z" fill="#F5F5F5"/>
<path d="M464.674 182.387V181.758C464.242 176.586 461.902 171.759 458.11 168.216C454.317 164.673 449.342 162.667 444.153 162.587H168.135C165.605 162.561 163.098 163.064 160.774 164.064C158.45 165.063 156.361 166.538 154.641 168.392C152.921 170.247 151.607 172.441 150.784 174.833C149.962 177.225 149.648 179.763 149.864 182.283H153.494L157.893 245.124H154.263L157.602 292.957H210.069C210.069 292.957 209.44 287.273 209.225 284.197C208.912 280.606 209.356 276.99 210.528 273.582C211.7 270.174 213.573 267.049 216.028 264.41C218.482 261.771 221.463 259.675 224.778 258.26C228.092 256.844 231.667 256.139 235.27 256.191C250.737 256.191 264.158 268.731 265.237 284.197C265.452 287.273 266.175 292.957 266.175 292.957H353.279C353.279 292.957 353.194 287.273 352.978 284.197C352.667 280.606 353.113 276.99 354.286 273.581C355.459 270.173 357.333 267.048 359.788 264.409C362.244 261.77 365.225 259.675 368.54 258.26C371.855 256.844 375.429 256.139 379.034 256.191C394.5 256.191 407.921 268.731 409 284.197C409.216 287.273 409.375 292.957 409.375 292.957H472.412L467.066 216.423L459.816 216.498L457.434 182.499L464.674 182.387ZM193.618 282.743H167.197L160.2 182.312H186.63L193.618 282.743ZM230.374 216.386H205.989C204.679 216.367 203.423 215.861 202.465 214.966C201.508 214.071 200.919 212.852 200.811 211.546L199.104 187.161C199.051 186.54 199.128 185.915 199.33 185.326C199.533 184.737 199.857 184.197 200.281 183.741C200.705 183.285 201.22 182.923 201.793 182.679C202.366 182.434 202.984 182.312 203.606 182.321H227.992C229.302 182.34 230.558 182.846 231.516 183.741C232.473 184.636 233.062 185.855 233.169 187.161L234.876 211.546C234.931 212.164 234.856 212.787 234.657 213.375C234.457 213.962 234.137 214.501 233.716 214.958C233.296 215.414 232.785 215.778 232.216 216.026C231.647 216.273 231.032 216.399 230.412 216.395L230.374 216.386ZM285.28 216.386H260.847C259.536 216.367 258.279 215.861 257.32 214.967C256.362 214.072 255.77 212.853 255.661 211.546L253.954 187.161C253.9 186.539 253.977 185.914 254.18 185.324C254.383 184.734 254.708 184.194 255.133 183.738C255.558 183.281 256.075 182.92 256.649 182.676C257.223 182.432 257.841 182.311 258.465 182.321H282.935C284.247 182.338 285.505 182.843 286.464 183.738C287.424 184.633 288.014 185.853 288.122 187.161L289.829 211.546C289.884 212.168 289.808 212.795 289.605 213.386C289.403 213.977 289.078 214.518 288.653 214.975C288.228 215.433 287.711 215.795 287.136 216.04C286.561 216.285 285.942 216.406 285.317 216.395L285.28 216.386ZM340.12 216.386H315.734C314.422 216.369 313.164 215.864 312.205 214.969C311.245 214.074 310.655 212.854 310.547 211.546L308.84 187.161C308.786 186.539 308.863 185.914 309.067 185.324C309.27 184.734 309.595 184.194 310.02 183.738C310.445 183.281 310.961 182.92 311.535 182.676C312.109 182.432 312.728 182.311 313.352 182.321H337.737C339.047 182.34 340.304 182.846 341.261 183.741C342.218 184.636 342.808 185.855 342.915 187.161L344.622 211.546C344.676 212.164 344.602 212.787 344.402 213.375C344.202 213.962 343.882 214.501 343.461 214.958C343.041 215.414 342.53 215.778 341.961 216.026C341.392 216.273 340.778 216.399 340.157 216.395L340.12 216.386ZM395.034 216.386H370.649C369.339 216.367 368.082 215.861 367.125 214.966C366.168 214.071 365.579 212.852 365.471 211.546L363.764 187.161C363.711 186.54 363.787 185.915 363.99 185.326C364.193 184.737 364.517 184.197 364.941 183.741C365.365 183.285 365.88 182.923 366.453 182.679C367.026 182.434 367.644 182.312 368.266 182.321H392.652C393.962 182.34 395.218 182.846 396.176 183.741C397.133 184.636 397.722 185.855 397.829 187.161L399.536 211.546C399.591 212.161 399.517 212.781 399.32 213.366C399.122 213.951 398.805 214.488 398.389 214.944C397.973 215.4 397.466 215.764 396.902 216.014C396.337 216.264 395.727 216.394 395.109 216.395L395.034 216.386ZM449.508 282.753H423.097L416.072 182.312H442.502L449.508 282.753Z" fill="#E0E0E0"/>
<path d="M236.096 262.315C233.242 262.276 230.413 262.835 227.789 263.956C225.164 265.077 222.804 266.736 220.86 268.824C218.916 270.913 217.432 273.386 216.502 276.084C215.572 278.782 215.218 281.644 215.462 284.487C215.948 290.478 218.65 296.073 223.039 300.179C227.428 304.286 233.19 306.61 239.2 306.697C242.06 306.751 244.899 306.204 247.532 305.089C250.166 303.975 252.536 302.319 254.489 300.228C256.441 298.138 257.931 295.661 258.864 292.957C259.796 290.253 260.149 287.383 259.9 284.534C259.422 278.527 256.715 272.917 252.31 268.805C247.905 264.693 242.121 262.378 236.096 262.315ZM238.422 295.611C235.43 295.53 232.572 294.352 230.393 292.301C228.214 290.25 226.865 287.469 226.604 284.487C226.483 283.072 226.66 281.647 227.123 280.304C227.587 278.961 228.325 277.73 229.293 276.689C230.26 275.649 231.434 274.822 232.74 274.262C234.045 273.702 235.454 273.422 236.874 273.439C239.888 273.458 242.786 274.601 245.001 276.645C247.217 278.688 248.59 281.485 248.851 284.487C248.964 285.918 248.776 287.356 248.301 288.711C247.826 290.065 247.074 291.305 246.092 292.352C245.111 293.399 243.921 294.229 242.601 294.79C241.28 295.352 239.857 295.631 238.422 295.611Z" fill="#E0E0E0"/>
<path d="M379.765 262.315C376.91 262.267 374.076 262.82 371.448 263.938C368.819 265.057 366.456 266.715 364.51 268.806C362.564 270.896 361.08 273.373 360.153 276.075C359.227 278.776 358.878 281.643 359.131 284.488C359.606 290.491 362.311 296.1 366.713 300.21C371.114 304.32 376.895 306.634 382.917 306.697C385.775 306.743 388.611 306.187 391.241 305.066C393.87 303.944 396.235 302.282 398.18 300.188C400.126 298.094 401.61 295.614 402.535 292.909C403.46 290.204 403.806 287.335 403.551 284.488C403.063 278.492 400.353 272.895 395.953 268.794C391.553 264.692 385.78 262.382 379.765 262.315ZM382.101 295.611C379.107 295.533 376.248 294.356 374.066 292.304C371.885 290.253 370.535 287.47 370.274 284.488C370.154 283.068 370.334 281.64 370.8 280.294C371.266 278.949 372.009 277.716 372.981 276.675C373.953 275.634 375.133 274.808 376.443 274.251C377.754 273.693 379.167 273.417 380.591 273.439C383.592 273.474 386.473 274.625 388.673 276.667C390.873 278.709 392.235 281.497 392.493 284.488C392.605 285.915 392.419 287.35 391.946 288.702C391.473 290.053 390.724 291.292 389.746 292.338C388.769 293.384 387.584 294.215 386.268 294.779C384.952 295.343 383.533 295.626 382.101 295.611Z" fill="#E0E0E0"/>
<path d="M240.954 284.572C240.985 284.925 240.942 285.281 240.828 285.616C240.713 285.951 240.528 286.258 240.287 286.518C240.045 286.777 239.752 286.982 239.426 287.121C239.099 287.259 238.748 287.327 238.393 287.32C237.648 287.309 236.933 287.022 236.388 286.514C235.842 286.007 235.504 285.315 235.439 284.572C235.409 284.218 235.453 283.862 235.569 283.526C235.685 283.191 235.87 282.883 236.112 282.623C236.354 282.363 236.648 282.157 236.975 282.018C237.301 281.879 237.654 281.81 238.009 281.815C238.755 281.824 239.471 282.112 240.016 282.622C240.561 283.133 240.895 283.828 240.954 284.572Z" fill="#E0E0E0"/>
<path d="M383.901 284.572C383.932 284.926 383.887 285.281 383.771 285.617C383.655 285.952 383.47 286.259 383.228 286.518C382.986 286.777 382.692 286.982 382.365 287.121C382.038 287.259 381.686 287.327 381.332 287.32C380.587 287.311 379.872 287.024 379.327 286.516C378.783 286.008 378.447 285.315 378.387 284.572C378.355 284.219 378.398 283.863 378.513 283.527C378.628 283.191 378.812 282.884 379.053 282.624C379.295 282.364 379.588 282.157 379.914 282.018C380.24 281.879 380.592 281.809 380.947 281.815C381.694 281.826 382.41 282.115 382.956 282.624C383.502 283.134 383.839 283.828 383.901 284.572Z" fill="#E0E0E0"/>
<path d="M193.355 278.391H166.925L166.399 270.944H192.83L193.355 278.391Z" fill="#E0E0E0"/>
<path d="M156.589 278.391L155.229 258.958H155.942C157.161 258.957 158.336 259.42 159.227 260.252C160.119 261.084 160.661 262.224 160.744 263.441L161.429 273.242C161.475 273.904 161.384 274.569 161.162 275.194C160.939 275.819 160.59 276.392 160.135 276.875C159.68 277.359 159.131 277.743 158.521 278.004C157.91 278.265 157.253 278.397 156.589 278.391Z" fill="#FAFAFA"/>
<path d="M145.1 213.225C143.454 213.211 141.874 212.579 140.672 211.455C139.47 210.332 138.734 208.797 138.609 207.157L137.671 194.082C137.612 193.308 137.713 192.529 137.969 191.796C138.225 191.062 138.63 190.39 139.159 189.821C139.688 189.252 140.328 188.798 141.041 188.489C141.753 188.179 142.522 188.021 143.299 188.023L145.1 213.225Z" fill="#E0E0E0"/>
<path d="M138.768 199.353H137.362L136.686 189.73C136.564 188.308 136.742 186.877 137.206 185.527C137.671 184.178 138.414 182.941 139.385 181.896C140.357 180.85 141.537 180.02 142.849 179.459C144.161 178.897 145.576 178.616 147.003 178.635H154.779L154.882 180.042H147.097C145.854 180.031 144.622 180.279 143.48 180.772C142.339 181.264 141.313 181.99 140.468 182.902C139.623 183.814 138.978 184.893 138.574 186.068C138.169 187.244 138.015 188.491 138.121 189.73L138.768 199.353Z" fill="#E0E0E0"/>
<path d="M497.417 158.985C497.738 158.985 498.046 159.113 498.272 159.34C498.499 159.567 498.627 159.874 498.627 160.195V305.759H496.207V160.177C496.214 159.86 496.345 159.558 496.571 159.336C496.796 159.113 497.1 158.988 497.417 158.985Z" fill="#E0E0E0"/>
<path d="M495.898 195.17C504.6 195.17 511.654 188.116 511.654 179.414C511.654 170.711 504.6 163.657 495.898 163.657C487.195 163.657 480.141 170.711 480.141 179.414C480.141 188.116 487.195 195.17 495.898 195.17Z" fill="#E0E0E0"/>
<path d="M493.956 195.17C502.658 195.17 509.713 188.116 509.713 179.414C509.713 170.711 502.658 163.657 493.956 163.657C485.254 163.657 478.199 170.711 478.199 179.414C478.199 188.116 485.254 195.17 493.956 195.17Z" fill="#FAFAFA"/>
<path d="M484.436 176.59L484.239 178.841H483.761L483.32 183.915H487.503C487.503 183.915 487.503 183.54 487.503 183.334C487.551 182.827 487.784 182.356 488.158 182.01C488.532 181.664 489.02 181.467 489.529 181.458C489.768 181.454 490.006 181.501 490.226 181.596C490.446 181.691 490.643 181.833 490.804 182.01C490.965 182.188 491.086 182.398 491.159 182.626C491.231 182.855 491.255 183.096 491.226 183.334C491.226 183.54 491.226 183.915 491.226 183.915H497.013C497.013 183.915 497.06 183.54 497.079 183.334C497.127 182.827 497.361 182.356 497.734 182.01C498.108 181.664 498.596 181.467 499.105 181.458C499.344 181.454 499.582 181.501 499.801 181.596C500.021 181.691 500.217 181.833 500.377 182.011C500.538 182.188 500.658 182.399 500.729 182.627C500.801 182.855 500.823 183.096 500.793 183.334C500.793 183.54 500.727 183.915 500.727 183.915H504.217L504.489 180.745H504.245L504.61 176.581H504.845C504.864 176.414 504.847 176.246 504.795 176.086C504.743 175.927 504.658 175.78 504.546 175.656C504.433 175.531 504.295 175.433 504.141 175.366C503.988 175.299 503.821 175.266 503.654 175.268H485.346C484.999 175.275 484.666 175.409 484.411 175.644C484.155 175.878 483.994 176.198 483.958 176.544L484.436 176.59ZM502.406 176.59H504.16L503.579 183.25H501.825L502.406 176.59ZM499.339 176.59H501.6L501.403 178.851H499.142L499.339 176.59ZM495.691 176.59H497.961L497.764 178.851H495.466L495.691 176.59ZM492.052 176.59H494.322L494.115 178.851H491.855L492.052 176.59ZM488.413 176.59H490.673L490.476 178.851H488.216L488.413 176.59ZM485.43 176.59H487.184L486.603 183.25H484.849L485.43 176.59Z" fill="#E0E0E0"/>
<path d="M497.427 183.362C497.406 183.549 497.427 183.739 497.486 183.918C497.545 184.097 497.642 184.262 497.77 184.4C497.898 184.539 498.054 184.648 498.227 184.722C498.401 184.795 498.589 184.83 498.777 184.825C499.176 184.82 499.56 184.668 499.854 184.398C500.148 184.128 500.332 183.759 500.372 183.362C500.393 183.175 500.374 182.985 500.316 182.805C500.258 182.626 500.162 182.461 500.035 182.321C499.908 182.182 499.753 182.071 499.58 181.997C499.406 181.922 499.219 181.886 499.03 181.889C498.629 181.894 498.243 182.047 497.947 182.319C497.651 182.591 497.466 182.962 497.427 183.362ZM498.158 183.362C498.179 183.161 498.272 182.975 498.421 182.838C498.569 182.702 498.763 182.625 498.965 182.621C499.059 182.62 499.152 182.64 499.238 182.678C499.324 182.716 499.401 182.772 499.464 182.842C499.527 182.912 499.575 182.994 499.603 183.084C499.632 183.174 499.641 183.268 499.631 183.362C499.61 183.56 499.518 183.744 499.371 183.879C499.224 184.014 499.033 184.09 498.833 184.094C498.739 184.095 498.646 184.077 498.559 184.04C498.473 184.003 498.395 183.949 498.331 183.879C498.268 183.81 498.219 183.728 498.189 183.639C498.159 183.55 498.149 183.456 498.158 183.362Z" fill="#E0E0E0"/>
<path d="M487.897 183.362C487.876 183.549 487.895 183.738 487.953 183.917C488.011 184.097 488.107 184.261 488.234 184.4C488.361 184.539 488.517 184.648 488.69 184.722C488.863 184.795 489.05 184.83 489.239 184.825C489.639 184.82 490.023 184.669 490.319 184.399C490.615 184.129 490.801 183.76 490.842 183.362C490.864 183.175 490.845 182.985 490.787 182.805C490.729 182.626 490.633 182.461 490.506 182.321C490.379 182.182 490.224 182.071 490.05 181.997C489.877 181.922 489.69 181.886 489.501 181.889C489.099 181.892 488.712 182.045 488.416 182.317C488.119 182.589 487.935 182.961 487.897 183.362ZM488.629 183.362C488.65 183.161 488.743 182.975 488.892 182.838C489.04 182.702 489.234 182.625 489.436 182.621C489.53 182.62 489.623 182.64 489.709 182.678C489.795 182.716 489.872 182.772 489.935 182.842C489.998 182.912 490.045 182.994 490.074 183.084C490.103 183.174 490.112 183.268 490.101 183.362C490.079 183.559 489.986 183.742 489.839 183.877C489.693 184.011 489.503 184.088 489.304 184.094C489.211 184.094 489.118 184.075 489.032 184.037C488.946 184 488.869 183.945 488.806 183.876C488.742 183.808 488.694 183.726 488.663 183.638C488.633 183.549 488.621 183.455 488.629 183.362Z" fill="#E0E0E0"/>
<path d="M489.201 42.5998H427.411C419.495 42.5998 417.582 31.5137 425.057 28.9157L425.348 28.8219C417.075 21.9282 435.224 7.39993 454.929 27.5182C453.401 20.8121 470.874 23.2319 476.276 32.3859C478.18 26.3739 494.885 36.8129 489.201 42.5998Z" fill="#F5F5F5"/>
<path d="M178.311 127.49H143.392C143.392 127.49 135.204 124.405 136.264 116.235C137.324 108.066 149.686 114.875 149.686 114.875C149.686 114.875 145.934 103.48 157.911 106.716C161.285 107.579 164.33 109.418 166.665 112.002C169 114.586 170.522 117.8 171.042 121.244C171.042 121.244 186.771 118.505 178.311 127.49Z" fill="#F5F5F5"/>
<path d="M185.852 317.024C286.286 317.024 367.704 312.27 367.704 306.407C367.704 300.543 286.286 295.79 185.852 295.79C85.4179 295.79 4 300.543 4 306.407C4 312.27 85.4179 317.024 185.852 317.024Z" fill="#F5F5F5"/>
<path d="M202.356 210.094L185.347 297.58H228.983L245.992 210.094H202.356ZM220.451 266.055L218.002 278.647C217.623 280.381 216.68 281.939 215.319 283.079C213.959 284.218 212.259 284.874 210.486 284.943C209.702 284.972 208.922 284.818 208.208 284.492C207.493 284.166 206.865 283.678 206.373 283.067C205.881 282.455 205.539 281.737 205.373 280.97C205.207 280.203 205.223 279.407 205.419 278.647L207.859 266.055C208.239 264.32 209.184 262.761 210.546 261.621C211.908 260.482 213.61 259.827 215.384 259.759C216.169 259.73 216.949 259.885 217.663 260.211C218.377 260.536 219.005 261.024 219.497 261.636C219.99 262.247 220.332 262.965 220.498 263.733C220.663 264.5 220.647 265.295 220.451 266.055Z" fill="#263238"/>
<path opacity="0.3" d="M202.356 210.094L185.347 297.58H228.983L245.992 210.094H202.356ZM220.451 266.055L218.002 278.647C217.623 280.381 216.68 281.939 215.319 283.079C213.959 284.218 212.259 284.874 210.486 284.943C209.702 284.972 208.922 284.818 208.208 284.492C207.493 284.166 206.865 283.678 206.373 283.067C205.881 282.455 205.539 281.737 205.373 280.97C205.207 280.203 205.223 279.407 205.419 278.647L207.859 266.055C208.239 264.32 209.184 262.761 210.546 261.621C211.908 260.482 213.61 259.827 215.384 259.759C216.169 259.73 216.949 259.885 217.663 260.211C218.377 260.536 219.005 261.024 219.497 261.636C219.99 262.247 220.332 262.965 220.498 263.733C220.663 264.5 220.647 265.295 220.451 266.055Z" fill="white"/>
<path d="M185.445 297.58H181.615L198.615 210.094H202.445L185.445 297.58Z" fill="#263238"/>
<path opacity="0.6" d="M185.445 297.58H181.615L198.615 210.094H202.445L185.445 297.58Z" fill="white"/>
<path opacity="0.2" d="M202.347 210.094H198.615L189.55 256.767H236.917L245.992 210.094H202.445H202.347Z" fill="black"/>
<path d="M215.384 259.759C214.783 259.76 214.184 259.841 213.603 260C214.841 260.376 215.886 261.216 216.52 262.345C217.153 263.473 217.327 264.802 217.005 266.055L214.565 278.647C214.243 280.085 213.536 281.408 212.519 282.475C211.503 283.542 210.215 284.312 208.794 284.703C209.335 284.862 209.896 284.943 210.46 284.943C212.233 284.874 213.933 284.218 215.293 283.079C216.653 281.939 217.597 280.381 217.976 278.647L220.425 266.055C220.62 265.297 220.636 264.505 220.472 263.739C220.308 262.974 219.968 262.258 219.479 261.647C218.99 261.036 218.365 260.547 217.654 260.22C216.944 259.892 216.167 259.734 215.384 259.759Z" fill="#263238"/>
<path opacity="0.6" d="M215.384 259.759C214.783 259.76 214.184 259.841 213.603 260C214.841 260.376 215.886 261.216 216.52 262.345C217.153 263.473 217.327 264.802 217.005 266.055L214.565 278.647C214.243 280.085 213.536 281.408 212.519 282.475C211.503 283.542 210.215 284.312 208.794 284.703C209.335 284.862 209.896 284.943 210.46 284.943C212.233 284.874 213.933 284.218 215.293 283.079C216.653 281.939 217.597 280.381 217.976 278.647L220.425 266.055C220.62 265.297 220.636 264.505 220.472 263.739C220.308 262.974 219.968 262.258 219.479 261.647C218.99 261.036 218.365 260.547 217.654 260.22C216.944 259.892 216.167 259.734 215.384 259.759Z" fill="white"/>
<path d="M208.821 297.197H146.199V311.232H208.821V297.197Z" fill="#407BFF"/>
<path opacity="0.4" d="M208.821 297.197H146.199V311.232H208.821V297.197Z" fill="white"/>
<path d="M291.498 297.197H208.821V311.232H291.498V297.197Z" fill="#407BFF"/>
<path opacity="0.6" d="M291.498 297.197H208.821V311.232H291.498V297.197Z" fill="white"/>
<path d="M106.09 251.575H326.113C327.065 251.593 328.012 251.423 328.898 251.074C329.784 250.725 330.593 250.205 331.278 249.543C331.963 248.882 332.511 248.091 332.89 247.217C333.269 246.343 333.471 245.403 333.486 244.451C333.494 244.133 333.479 243.814 333.442 243.498L319.541 84.5298C319.323 82.3486 318.312 80.3232 316.7 78.8376C315.088 77.3521 312.987 76.5098 310.796 76.4705H90.7725C89.8203 76.4528 88.8738 76.6232 87.9875 76.9719C87.1012 77.3206 86.2924 77.8407 85.6074 78.5025C84.9224 79.1643 84.3748 79.9548 83.9958 80.8286C83.6169 81.7024 83.414 82.6424 83.399 83.5947C83.3768 83.912 83.3768 84.2304 83.399 84.5476L97.3714 243.525C97.5812 245.704 98.5861 247.729 100.194 249.214C101.802 250.699 103.901 251.539 106.09 251.575Z" fill="#263238"/>
<path opacity="0.3" d="M106.09 251.575H326.113C327.065 251.593 328.012 251.423 328.898 251.074C329.784 250.725 330.593 250.205 331.278 249.543C331.963 248.882 332.511 248.091 332.89 247.217C333.269 246.343 333.471 245.403 333.486 244.451C333.494 244.133 333.479 243.814 333.442 243.498L319.541 84.5298C319.323 82.3486 318.312 80.3232 316.7 78.8376C315.088 77.3521 312.987 76.5098 310.796 76.4705H90.7725C89.8203 76.4528 88.8738 76.6232 87.9875 76.9719C87.1012 77.3206 86.2924 77.8407 85.6074 78.5025C84.9224 79.1643 84.3748 79.9548 83.9958 80.8286C83.6169 81.7024 83.414 82.6424 83.399 83.5947C83.3768 83.912 83.3768 84.2304 83.399 84.5476L97.3714 243.525C97.5812 245.704 98.5861 247.729 100.194 249.214C101.802 250.699 103.901 251.539 106.09 251.575Z" fill="white"/>
<path d="M331.955 226.347L333.451 243.525C333.666 245.433 333.116 247.348 331.921 248.851C330.725 250.354 328.982 251.321 327.075 251.54C326.759 251.577 326.44 251.592 326.122 251.584H106.09C103.897 251.552 101.793 250.712 100.181 249.225C98.5684 247.738 97.5619 245.708 97.3537 243.525L95.8398 226.347H331.955Z" fill="#407BFF"/>
<path opacity="0.6" d="M331.955 226.347L333.451 243.525C333.666 245.433 333.116 247.348 331.921 248.851C330.725 250.354 328.982 251.321 327.075 251.54C326.759 251.577 326.44 251.592 326.122 251.584H106.09C103.897 251.552 101.793 250.712 100.181 249.225C98.5684 247.738 97.5619 245.708 97.3537 243.525L95.8398 226.347H331.955Z" fill="white"/>
<path d="M103.605 221.476H323.343C323.859 221.486 324.371 221.395 324.851 221.207C325.331 221.02 325.769 220.739 326.141 220.382C326.512 220.024 326.81 219.597 327.016 219.125C327.222 218.652 327.333 218.144 327.342 217.629C327.355 217.457 327.355 217.284 327.342 217.112L315.827 85.7144C315.707 84.533 315.158 83.4367 314.283 82.6339C313.408 81.8311 312.268 81.3777 311.081 81.3597H91.3514C90.8357 81.3491 90.3229 81.4402 89.8423 81.6278C89.3618 81.8154 88.9229 82.0958 88.5508 82.4531C88.1786 82.8103 87.8805 83.2374 87.6735 83.7099C87.4664 84.1824 87.3545 84.6911 87.3441 85.2068C87.3352 85.3759 87.3352 85.5453 87.3441 85.7144L98.8586 217.139C98.9845 218.316 99.5365 219.407 100.411 220.206C101.285 221.005 102.421 221.456 103.605 221.476Z" fill="#407BFF"/>
<path opacity="0.8" d="M103.605 221.476H323.343C323.859 221.486 324.371 221.395 324.851 221.207C325.331 221.02 325.769 220.739 326.141 220.382C326.512 220.024 326.81 219.597 327.016 219.125C327.222 218.652 327.333 218.144 327.342 217.629C327.355 217.457 327.355 217.284 327.342 217.112L315.827 85.7144C315.707 84.533 315.158 83.4367 314.283 82.6339C313.408 81.8311 312.268 81.3777 311.081 81.3597H91.3514C90.8357 81.3491 90.3229 81.4402 89.8423 81.6278C89.3618 81.8154 88.9229 82.0958 88.5508 82.4531C88.1786 82.8103 87.8805 83.2374 87.6735 83.7099C87.4664 84.1824 87.3545 84.6911 87.3441 85.2068C87.3352 85.3759 87.3352 85.5453 87.3441 85.7144L98.8586 217.139C98.9845 218.316 99.5365 219.407 100.411 220.206C101.285 221.005 102.421 221.456 103.605 221.476Z" fill="#407BFF"/>
<path opacity="0.8" d="M103.605 221.476H323.343C323.859 221.486 324.371 221.395 324.851 221.207C325.331 221.02 325.769 220.739 326.141 220.382C326.512 220.024 326.81 219.597 327.016 219.125C327.222 218.652 327.333 218.144 327.342 217.629C327.355 217.457 327.355 217.284 327.342 217.112L315.827 85.7144C315.707 84.533 315.158 83.4367 314.283 82.6339C313.408 81.8311 312.268 81.3777 311.081 81.3597H91.3514C90.8357 81.3491 90.3229 81.4402 89.8423 81.6278C89.3618 81.8154 88.9229 82.0958 88.5508 82.4531C88.1786 82.8103 87.8805 83.2374 87.6735 83.7099C87.4664 84.1824 87.3545 84.6911 87.3441 85.2068C87.3352 85.3759 87.3352 85.5453 87.3441 85.7144L98.8586 217.139C98.9845 218.316 99.5365 219.407 100.411 220.206C101.285 221.005 102.421 221.456 103.605 221.476Z" fill="white"/>
<g opacity="0.5">
<path d="M261.772 221.475H281.827L252.048 81.3594H231.984L261.772 221.475Z" fill="white"/>
<path d="M249.065 221.475H254.203L224.415 81.3594H219.276L249.065 221.475Z" fill="white"/>
<path d="M174.331 221.475H177.688L147.909 81.3594H144.542L174.331 221.475Z" fill="white"/>
<path d="M161.623 221.475H166.753L136.973 81.3594H131.835L161.623 221.475Z" fill="white"/>
</g>
<path d="M85.9103 76.4973H90.7726C89.8203 76.4796 88.8739 76.65 87.9876 76.9987C87.1012 77.3474 86.2924 77.8675 85.6075 78.5293C84.9225 79.1911 84.3748 79.9816 83.9959 80.8554C83.6169 81.7292 83.4141 82.6692 83.399 83.6216C83.3766 83.9388 83.3766 84.2572 83.399 84.5744L97.3714 243.525C97.5796 245.708 98.5861 247.738 100.198 249.225C101.81 250.713 103.914 251.553 106.108 251.584H101.245C99.0535 251.545 96.9525 250.703 95.3406 249.217C93.7287 247.732 92.718 245.706 92.5002 243.525L78.5723 84.5388C78.3597 82.6271 78.9146 80.7092 80.1152 79.2064C81.3158 77.7036 83.0638 76.7388 84.9753 76.524C85.2862 76.4974 85.5984 76.4885 85.9103 76.4973Z" fill="#263238"/>
<path opacity="0.6" d="M85.9103 76.4973H90.7726C89.8203 76.4796 88.8739 76.65 87.9876 76.9987C87.1012 77.3474 86.2924 77.8675 85.6075 78.5293C84.9225 79.1911 84.3748 79.9816 83.9959 80.8554C83.6169 81.7292 83.4141 82.6692 83.399 83.6216C83.3766 83.9388 83.3766 84.2572 83.399 84.5744L97.3714 243.525C97.5796 245.708 98.5861 247.738 100.198 249.225C101.81 250.713 103.914 251.553 106.108 251.584H101.245C99.0535 251.545 96.9525 250.703 95.3406 249.217C93.7287 247.732 92.718 245.706 92.5002 243.525L78.5723 84.5388C78.3597 82.6271 78.9146 80.7092 80.1152 79.2064C81.3158 77.7036 83.0638 76.7388 84.9753 76.524C85.2862 76.4974 85.5984 76.4885 85.9103 76.4973Z" fill="white"/>
<path d="M159.611 269.394H116.447C115.378 269.396 114.334 269.075 113.452 268.472C112.57 267.87 111.891 267.015 111.504 266.019L94.8156 223.095C94.4365 222.107 93.8653 221.204 93.1352 220.438C92.4051 219.671 91.5304 219.057 90.5617 218.631C89.593 218.205 88.5495 217.974 87.4913 217.953C86.4331 217.932 85.3812 218.121 84.3964 218.509C84.3964 218.509 40.5022 216.897 36.3612 218.509L33.0752 219.809L54.724 275.467C55.3546 277.081 56.4562 278.469 57.8855 279.448C59.3148 280.428 61.0058 280.956 62.7387 280.962H167.661V277.444C167.666 276.386 167.461 275.337 167.058 274.358C166.655 273.379 166.062 272.49 165.314 271.741C164.565 270.993 163.676 270.4 162.697 269.997C161.718 269.594 160.669 269.389 159.611 269.394Z" fill="#713FFF"/>
<path opacity="0.3" d="M159.611 269.394H116.447C115.378 269.396 114.334 269.075 113.452 268.472C112.57 267.87 111.891 267.015 111.504 266.019L94.8156 223.095C94.4365 222.107 93.8653 221.204 93.1352 220.438C92.4051 219.671 91.5304 219.057 90.5617 218.631C89.593 218.205 88.5495 217.974 87.4913 217.953C86.4331 217.932 85.3812 218.121 84.3964 218.509C84.3964 218.509 40.5022 216.897 36.3612 218.509L33.0752 219.809L54.724 275.467C55.3546 277.081 56.4562 278.469 57.8855 279.448C59.3148 280.428 61.0058 280.956 62.7387 280.962H167.661V277.444C167.666 276.386 167.461 275.337 167.058 274.358C166.655 273.379 166.062 272.49 165.314 271.741C164.565 270.993 163.676 270.4 162.697 269.997C161.718 269.594 160.669 269.389 159.611 269.394Z" fill="white"/>
<path opacity="0.2" d="M63.469 266.019L46.7805 223.096C46.4013 222.107 45.8302 221.204 45.1 220.438C44.3699 219.672 43.4953 219.058 42.5266 218.631C41.5578 218.205 40.5143 217.975 39.4561 217.954C38.3979 217.933 37.3461 218.122 36.3612 218.509L33.0752 219.809L54.724 275.468C55.3546 277.082 56.4562 278.469 57.8855 279.449C59.3148 280.429 61.0058 280.956 62.7387 280.962H119.635V277.445C119.635 275.319 118.79 273.28 117.287 271.777C115.784 270.274 113.746 269.43 111.62 269.43H68.4114C67.339 269.429 66.292 269.103 65.4093 268.494C64.5266 267.885 63.8499 267.022 63.469 266.019Z" fill="black"/>
<path d="M160.074 285.709H101.513L95.3857 307.883H98.8232L105.44 293.83H156.155L162.772 307.883H166.21L160.074 285.709Z" fill="#263238"/>
<path opacity="0.2" d="M160.074 285.709H101.513L95.3857 307.883H98.8232L105.44 293.83H156.155L162.772 307.883H166.21L160.074 285.709Z" fill="white"/>
<path d="M157.295 285.709H98.7334L92.5977 307.883H96.044L102.661 293.83H153.367L159.993 307.883H163.43L157.295 285.709Z" fill="#263238"/>
<path opacity="0.3" d="M157.295 285.709H98.7334L92.5977 307.883H96.044L102.661 293.83H153.367L159.993 307.883H163.43L157.295 285.709Z" fill="white"/>
<path d="M118.37 285.709H59.8086L53.6729 307.883H57.1192L63.7358 293.83H114.443L121.059 307.883H124.506L118.37 285.709Z" fill="#263238"/>
<path opacity="0.2" d="M118.37 285.709H59.8086L53.6729 307.883H57.1192L63.7358 293.83H114.443L121.059 307.883H124.506L118.37 285.709Z" fill="white"/>
<path d="M115.592 285.709H57.0303L50.8945 307.883H54.332L60.9575 293.83H111.664L118.281 307.883H121.727L115.592 285.709Z" fill="#263238"/>
<path opacity="0.4" d="M115.592 285.709H57.0303L50.8945 307.883H54.332L60.9575 293.83H111.664L118.281 307.883H121.727L115.592 285.709Z" fill="white"/>
<path d="M114.274 280.962H60.6816V285.7H114.274V280.962Z" fill="#263238"/>
<path opacity="0.2" d="M114.274 280.962H60.6816V285.7H114.274V280.962Z" fill="white"/>
<path d="M156.289 280.962H114.274V285.7H156.289V280.962Z" fill="#263238"/>
<path opacity="0.1" d="M156.289 280.962H114.274V285.7H156.289V280.962Z" fill="white"/>
<path d="M122.912 262.778L133.171 266.954L132.013 271.291L121.06 269.029L122.912 262.778Z" fill="#CE7A63"/>
<path d="M87.8874 247.977C87.8874 247.977 136.982 230.967 141.025 246.596C145.068 262.225 107.871 273 88.3772 272.35C68.8835 271.7 87.8874 247.977 87.8874 247.977Z" fill="#263238"/>
<path opacity="0.3" d="M87.8874 247.977C87.8874 247.977 136.982 230.967 141.025 246.596C145.068 262.225 107.871 273 88.3772 272.35C68.8835 271.7 87.8874 247.977 87.8874 247.977Z" fill="black"/>
<path opacity="0.7" d="M124.381 249.562L100.56 264.701L104.362 270.935C104.362 270.935 102.065 271.701 98.8765 264.078L113.615 254.335C113.615 254.335 109.002 253.872 109.118 253.151C109.313 251.966 119.448 249.713 124.07 248.698C124.184 248.657 124.31 248.663 124.421 248.714C124.531 248.766 124.616 248.86 124.657 248.974C124.699 249.089 124.693 249.215 124.641 249.325C124.589 249.435 124.496 249.521 124.381 249.562Z" fill="black"/>
<path opacity="0.7" d="M99.6955 264.069L103.828 271.077C98.7317 272.009 93.5565 272.435 88.3769 272.351C86.6741 272.34 84.9874 272.02 83.3988 271.407L81.9473 268.628L85.073 262.047L99.6955 264.069Z" fill="black"/>
<path d="M100.114 265.146L95.4741 269.038L97.6114 272.342L104.664 271.237L100.114 265.146Z" fill="#CE7A63"/>
<path d="M105.912 271.353L101.058 263.721L98.8765 265.279L103.071 271.869L105.912 271.353Z" fill="#713FFF"/>
<path d="M70.6557 264.238C67.9841 259.785 62.9259 246.294 75.1796 243.943C87.4332 241.592 127.65 264.238 127.65 264.238L125.779 270.133L87.6737 263.846C87.6737 263.846 98.271 273.428 86.6763 272.244C77.4771 271.291 73.2026 268.593 70.6557 264.238Z" fill="#263238"/>
<path d="M126.652 262.778L124.274 270.472L126.652 270.801L128.798 264.158L126.652 262.778Z" fill="#713FFF"/>
<path d="M95.19 268.014L98.859 272.369C98.9263 272.45 98.9632 272.553 98.9632 272.658C98.9632 272.764 98.9263 272.866 98.859 272.948L95.9737 276.723C95.8503 276.883 95.6688 276.988 95.4687 277.015C95.2686 277.041 95.066 276.988 94.905 276.866C94.8603 276.838 94.8211 276.801 94.7893 276.759C93.4891 275.165 92.4027 273.696 90.7552 271.736C88.8049 269.43 89.0276 270.249 86.7033 267.56C85.3051 265.948 86.9081 264.078 87.5938 264.701C90.6661 267.533 91.904 267.061 94.0679 267.328C94.5157 267.405 94.9172 267.651 95.19 268.014Z" fill="#713FFF"/>
<path opacity="0.3" d="M95.19 268.014L98.859 272.369C98.9263 272.45 98.9632 272.553 98.9632 272.658C98.9632 272.764 98.9263 272.866 98.859 272.948L95.9737 276.723C95.8503 276.883 95.6688 276.988 95.4687 277.015C95.2686 277.041 95.066 276.988 94.905 276.866C94.8603 276.838 94.8211 276.801 94.7893 276.759C93.4891 275.165 92.4027 273.696 90.7552 271.736C88.8049 269.43 89.0276 270.249 86.7033 267.56C85.3051 265.948 86.9081 264.078 87.5938 264.701C90.6661 267.533 91.904 267.061 94.0679 267.328C94.5157 267.405 94.9172 267.651 95.19 268.014Z" fill="black"/>
<path d="M132.343 266.402L130.562 271.825C130.526 271.924 130.526 272.033 130.562 272.132C130.598 272.231 130.667 272.315 130.758 272.368L134.845 274.8C134.931 274.853 135.026 274.888 135.126 274.904C135.225 274.92 135.327 274.916 135.425 274.891C135.523 274.867 135.615 274.824 135.696 274.764C135.777 274.704 135.845 274.628 135.896 274.541C135.925 274.497 135.949 274.449 135.967 274.399C136.582 272.431 137.045 270.659 137.855 268.219C138.799 265.351 138.906 266.188 140.064 262.831C140.767 260.8 138.576 259.669 138.176 260.489C136.395 264.282 135.05 264.291 133.135 265.351C132.747 265.587 132.463 265.963 132.343 266.402Z" fill="#713FFF"/>
<path opacity="0.3" d="M132.343 266.402L130.562 271.825C130.526 271.924 130.526 272.033 130.562 272.132C130.598 272.231 130.667 272.315 130.758 272.368L134.845 274.8C134.931 274.853 135.026 274.888 135.126 274.904C135.225 274.92 135.327 274.916 135.425 274.891C135.523 274.867 135.615 274.824 135.696 274.764C135.777 274.704 135.845 274.628 135.896 274.541C135.925 274.497 135.949 274.449 135.967 274.399C136.582 272.431 137.045 270.659 137.855 268.219C138.799 265.351 138.906 266.188 140.064 262.831C140.767 260.8 138.576 259.669 138.176 260.489C136.395 264.282 135.05 264.291 133.135 265.351C132.747 265.587 132.463 265.963 132.343 266.402Z" fill="black"/>
<path d="M103.16 215.286C103.16 215.286 106.401 231.226 108.583 233.871C110.765 236.516 120.276 243.622 120.276 243.622L125.93 242.438L129.982 245.822L127.311 247.915L124.176 246.73C122.465 247.036 120.731 247.188 118.993 247.185C116.072 247.185 104.202 240.203 101.851 236.276C99.4995 232.348 96.2046 217.574 96.2046 217.574L103.16 215.286Z" fill="#CE7A63"/>
<path d="M96.1334 219.952C96.1334 219.952 92.0281 207.485 97.4425 203.308C102.857 199.131 105.395 217.646 105.395 217.646L96.1334 219.952Z" fill="#713FFF"/>
<path d="M95.0293 218.883L95.8575 221.02L106.223 218.349L105.814 216.22L95.0293 218.883Z" fill="#713FFF"/>
<path d="M67.9839 249.945C67.9839 249.945 61.296 229.677 70.1746 203.308C70.1746 203.308 81.698 197.965 98.1372 201.883C98.5847 201.989 99.0064 202.184 99.3778 202.455C99.7491 202.726 100.063 203.069 100.3 203.463C100.537 203.857 100.693 204.294 100.759 204.749C100.825 205.204 100.8 205.668 100.684 206.113C99.0366 212.507 96.4986 227.753 102.634 247.024C91.1602 248.752 79.5853 249.727 67.9839 249.945Z" fill="#713FFF"/>
<path opacity="0.8" d="M67.9839 249.945C67.9839 249.945 61.296 229.677 70.1746 203.308C70.1746 203.308 81.698 197.965 98.1372 201.883C98.5847 201.989 99.0064 202.184 99.3778 202.455C99.7491 202.726 100.063 203.069 100.3 203.463C100.537 203.857 100.693 204.294 100.759 204.749C100.825 205.204 100.8 205.668 100.684 206.113C99.0366 212.507 96.4986 227.753 102.634 247.024C91.1602 248.752 79.5853 249.727 67.9839 249.945Z" fill="white"/>
<path d="M86.7293 204.412C86.7293 204.412 88.8132 206.71 90.6299 204.412L91.6273 204.261C91.6273 204.261 91.556 206.71 90.2202 207.529C92.269 217.335 93.797 227.243 94.7975 237.21L93.0165 238.484L90.7991 237.21C90.7991 237.21 91.3512 229.489 88.9022 207.716C88.0993 207.433 87.3686 206.977 86.7621 206.38C86.1557 205.783 85.6884 205.059 85.3936 204.261L86.7293 204.412Z" fill="#263238"/>
<path d="M83.3013 200.556L88.8671 205.383L92.0997 202.515C90.8708 201.625 91.2092 199.559 91.8949 197.341L83.9959 191.107C84.3966 194.037 84.6994 198.045 83.3013 200.556Z" fill="#CE7A63"/>
<path d="M76.1499 211.26C76.1499 211.26 79.712 228.732 82.0898 231.627C84.4675 234.521 94.9134 242.313 94.9134 242.313L101.147 241.013L105.6 244.717L102.697 247.015L99.2592 245.724C97.3833 246.053 95.4822 246.217 93.5776 246.214C90.3717 246.214 77.3611 238.555 74.7874 234.263C72.2138 229.97 68.5537 213.78 68.5537 213.78L76.1499 211.26Z" fill="#CE7A63"/>
<path d="M81.2441 200.68L83.4527 199.398L88.8671 205.382C88.8671 205.382 85.8927 204.162 85.0556 204.652C84.2185 205.142 84.8241 207.012 83.9514 207.03C82.01 207.066 81.2441 200.68 81.2441 200.68Z" fill="#713FFF"/>
<path d="M88.8667 205.383L91.6808 199.808L93.9872 201.055C93.9872 201.055 96.1334 206.461 94.4949 207.031C93.4975 207.378 93.1145 204.849 92.126 204.484C91.3335 204.19 88.8667 205.383 88.8667 205.383Z" fill="#713FFF"/>
<path d="M68.8746 219.952C68.8746 219.952 64.7603 207.485 70.1747 203.308C75.5892 199.131 78.1272 217.646 78.1272 217.646L68.8746 219.952Z" fill="#713FFF"/>
<path d="M67.7793 218.883L68.6075 221.02L78.9733 218.349L78.5636 216.22L67.7793 218.883Z" fill="#713FFF"/>
<path opacity="0.1" d="M84.1297 192.14C84.1297 191.784 84.0406 191.437 83.9961 191.107L91.8951 197.341C91.6069 198.209 91.4099 199.104 91.3073 200.013C86.543 200.057 84.7352 194.785 84.1297 192.14Z" fill="black"/>
<path d="M85.4824 182.015C83.8438 187.581 83.0245 189.923 84.761 193.672C87.3703 199.381 94.5569 200.182 97.8429 195.222C100.764 190.769 103.008 182.407 98.4396 178.302C97.4396 177.394 96.2243 176.757 94.9089 176.451C93.5935 176.144 92.2217 176.179 90.9237 176.552C89.6256 176.925 88.4444 177.624 87.4921 178.581C86.5398 179.539 85.848 180.724 85.4824 182.024V182.015Z" fill="#CE7A63"/>
<path d="M92.1704 188.56C92.0101 189.006 92.117 189.451 92.402 189.558C92.6869 189.665 93.061 189.389 93.2213 188.943C93.3816 188.498 93.2747 188.053 92.9897 187.955C92.7048 187.857 92.3307 188.115 92.1704 188.56Z" fill="#263238"/>
<path d="M97.1846 190.422C97.0154 190.858 97.1312 191.312 97.4162 191.41C97.7012 191.508 98.0663 191.241 98.2355 190.796C98.4047 190.351 98.2889 189.905 98.0039 189.807C97.719 189.709 97.3717 189.941 97.1846 190.422Z" fill="#263238"/>
<path d="M94.9402 189.665C94.9693 190.818 95.152 191.962 95.4834 193.067C95.1997 193.146 94.902 193.163 94.6113 193.115C94.3206 193.067 94.0438 192.957 93.8003 192.791L94.9402 189.665Z" fill="#BA4D3C"/>
<path d="M91.5831 184.643C91.6115 184.694 91.655 184.735 91.7076 184.76C91.7601 184.786 91.8192 184.794 91.8769 184.785C92.3322 184.777 92.7843 184.862 93.2054 185.035C93.6265 185.208 94.0078 185.466 94.3259 185.791C94.351 185.818 94.3811 185.839 94.4144 185.854C94.4477 185.868 94.4836 185.876 94.52 185.877C94.5563 185.878 94.5925 185.872 94.6265 185.858C94.6604 185.845 94.6914 185.825 94.7177 185.8C94.744 185.775 94.7651 185.745 94.7798 185.712C94.7945 185.679 94.8025 185.643 94.8033 185.606C94.8041 185.57 94.7978 185.534 94.7846 185.5C94.7715 185.466 94.7518 185.435 94.7266 185.408C94.3458 185.021 93.8889 184.716 93.3847 184.514C92.8805 184.312 92.3398 184.216 91.7968 184.233C91.7249 184.244 91.6603 184.283 91.617 184.341C91.5736 184.4 91.555 184.473 91.5652 184.545C91.5617 184.578 91.5679 184.612 91.5831 184.643Z" fill="#263238"/>
<path d="M99.9895 188.231C100.036 188.249 100.086 188.253 100.135 188.244C100.184 188.234 100.229 188.211 100.266 188.178C100.291 188.153 100.311 188.123 100.325 188.09C100.339 188.057 100.346 188.022 100.346 187.986C100.346 187.951 100.339 187.915 100.325 187.882C100.311 187.849 100.291 187.82 100.266 187.795C99.9908 187.447 99.6357 187.171 99.2309 186.991C98.826 186.812 98.3834 186.733 97.9413 186.762C97.9049 186.766 97.8697 186.778 97.8379 186.796C97.806 186.814 97.7781 186.838 97.7557 186.867C97.7333 186.896 97.717 186.929 97.7075 186.965C97.6981 187 97.6958 187.037 97.7008 187.073C97.7052 187.11 97.7168 187.145 97.7349 187.177C97.753 187.209 97.7773 187.237 97.8063 187.259C97.8353 187.281 97.8685 187.298 97.9039 187.307C97.9393 187.317 97.9762 187.319 98.0125 187.314C98.3611 187.301 98.7079 187.369 99.025 187.515C99.3422 187.66 99.6207 187.878 99.8381 188.151C99.8817 188.189 99.9335 188.216 99.9895 188.231Z" fill="#263238"/>
<path d="M84.4053 185.266C84.6959 185.255 84.9802 185.178 85.2369 185.042C85.4937 184.905 85.7161 184.712 85.8875 184.478C86.0589 184.243 86.1749 183.972 86.2267 183.686C86.2784 183.4 86.2646 183.106 86.1864 182.826C86.1864 182.826 89.6416 182.737 89.7485 180.154C89.7485 180.154 92.7585 182.826 93.8271 180.742C93.8271 180.742 97.5317 184.046 98.0126 181.864C98.0126 181.864 101.86 186.628 101.664 183.707C101.664 183.707 105.992 183.271 102.1 179.522C102.1 179.522 105.662 176.414 99.9094 175.149C99.9094 175.149 100.417 171.454 96.3473 173.083C96.3473 173.083 95.4123 169.067 91.8947 171.4C91.8947 171.4 90.0067 168.586 87.9318 172.38C87.9318 172.38 84.8862 170.599 83.9066 174.57C83.9066 174.57 78.3853 175.238 80.6651 178.872C80.6651 178.872 82.366 191.063 83.9066 191.063C85.0465 191.108 84.4053 185.266 84.4053 185.266Z" fill="#263238"/>
<path d="M92.242 194.536C92.4368 194.595 92.6365 194.637 92.8387 194.661C92.8702 194.664 92.9018 194.656 92.9279 194.638C92.954 194.62 92.9729 194.593 92.9812 194.563C92.9815 194.53 92.9699 194.499 92.9485 194.474C92.9272 194.45 92.8977 194.434 92.8654 194.429C92.3523 194.376 91.8589 194.202 91.4257 193.922C90.9924 193.642 90.6313 193.263 90.3719 192.817C90.3568 192.79 90.3319 192.769 90.3022 192.759C90.2725 192.749 90.2402 192.751 90.2116 192.764C90.1962 192.769 90.1823 192.778 90.1708 192.79C90.1594 192.801 90.1508 192.815 90.1456 192.831C90.1405 192.846 90.1389 192.863 90.1411 192.879C90.1433 192.895 90.1491 192.911 90.1582 192.924C90.3785 193.32 90.6768 193.667 91.0349 193.944C91.3931 194.221 91.8038 194.422 92.242 194.536Z" fill="#263238"/>
<path d="M128.994 249.019H106.9C106.653 249.02 106.408 248.972 106.18 248.878C105.951 248.784 105.743 248.646 105.569 248.471C105.394 248.297 105.256 248.089 105.162 247.86C105.068 247.632 105.02 247.387 105.021 247.14H130.846C130.849 247.634 130.655 248.11 130.308 248.462C129.961 248.814 129.489 249.014 128.994 249.019Z" fill="#263238"/>
<path opacity="0.2" d="M128.994 249.019H106.9C106.653 249.02 106.408 248.972 106.18 248.878C105.951 248.784 105.743 248.646 105.569 248.471C105.394 248.297 105.256 248.089 105.162 247.86C105.068 247.632 105.02 247.387 105.021 247.14H130.846C130.849 247.634 130.655 248.11 130.308 248.462C129.961 248.814 129.489 249.014 128.994 249.019Z" fill="white"/>
<path d="M112.733 249.019H96.7038C96.4563 249.02 96.211 248.972 95.982 248.879C95.753 248.785 95.5448 248.646 95.3694 248.472C95.194 248.297 95.0548 248.09 94.9598 247.861C94.8648 247.633 94.8159 247.388 94.8159 247.14H114.639C114.639 247.389 114.59 247.636 114.494 247.865C114.397 248.095 114.257 248.303 114.079 248.478C113.902 248.653 113.692 248.791 113.461 248.884C113.23 248.977 112.982 249.023 112.733 249.019Z" fill="#263238"/>
<path opacity="0.5" d="M112.733 249.019H96.7038C96.4563 249.02 96.211 248.972 95.982 248.879C95.753 248.785 95.5448 248.646 95.3694 248.472C95.194 248.297 95.0548 248.09 94.9598 247.861C94.8648 247.633 94.8159 247.388 94.8159 247.14H114.639C114.639 247.389 114.59 247.636 114.494 247.865C114.397 248.095 114.257 248.303 114.079 248.478C113.902 248.653 113.692 248.791 113.461 248.884C113.23 248.977 112.982 249.023 112.733 249.019Z" fill="white"/>
<path d="M129.145 248.449H114.612C114.54 248.448 114.47 248.431 114.407 248.398C114.343 248.365 114.288 248.317 114.247 248.259C114.205 248.201 114.178 248.134 114.167 248.063C114.156 247.992 114.162 247.92 114.185 247.852L120.659 229.383C120.738 229.127 120.896 228.903 121.11 228.743C121.325 228.583 121.584 228.495 121.852 228.492H136.394C136.466 228.492 136.536 228.509 136.6 228.542C136.663 228.575 136.718 228.623 136.759 228.682C136.8 228.74 136.826 228.808 136.836 228.879C136.845 228.949 136.837 229.022 136.813 229.089L130.321 247.594C130.236 247.839 130.077 248.053 129.867 248.206C129.657 248.358 129.405 248.443 129.145 248.449Z" fill="#263238"/>
<path opacity="0.5" d="M129.145 248.449H114.612C114.54 248.448 114.47 248.431 114.407 248.398C114.343 248.365 114.288 248.317 114.247 248.259C114.205 248.201 114.178 248.134 114.167 248.063C114.156 247.992 114.162 247.92 114.185 247.852L120.659 229.383C120.738 229.127 120.896 228.903 121.11 228.743C121.325 228.583 121.584 228.495 121.852 228.492H136.394C136.466 228.492 136.536 228.509 136.6 228.542C136.663 228.575 136.718 228.623 136.759 228.682C136.8 228.74 136.826 228.808 136.836 228.879C136.845 228.949 136.837 229.022 136.813 229.089L130.321 247.594C130.236 247.839 130.077 248.053 129.867 248.206C129.657 248.358 129.405 248.443 129.145 248.449Z" fill="white"/>
<path d="M129.716 248.449H115.182C115.111 248.448 115.04 248.431 114.977 248.398C114.913 248.365 114.859 248.317 114.817 248.259C114.775 248.201 114.748 248.134 114.737 248.063C114.726 247.992 114.732 247.92 114.755 247.852L121.22 229.383C121.3 229.126 121.459 228.901 121.675 228.74C121.892 228.58 122.153 228.493 122.422 228.492H136.965C137.036 228.492 137.107 228.509 137.17 228.542C137.233 228.575 137.288 228.623 137.329 228.682C137.37 228.74 137.396 228.808 137.406 228.879C137.415 228.949 137.408 229.022 137.383 229.089L130.918 247.558C130.837 247.815 130.677 248.039 130.461 248.199C130.245 248.359 129.984 248.446 129.716 248.449Z" fill="#263238"/>
<path opacity="0.7" d="M129.716 248.449H115.182C115.111 248.448 115.04 248.431 114.977 248.398C114.913 248.365 114.859 248.317 114.817 248.259C114.775 248.201 114.748 248.134 114.737 248.063C114.726 247.992 114.732 247.92 114.755 247.852L121.22 229.383C121.3 229.126 121.459 228.901 121.675 228.74C121.892 228.58 122.153 228.493 122.422 228.492H136.965C137.036 228.492 137.107 228.509 137.17 228.542C137.233 228.575 137.288 228.623 137.329 228.682C137.37 228.74 137.396 228.808 137.406 228.879C137.415 228.949 137.408 229.022 137.383 229.089L130.918 247.558C130.837 247.815 130.677 248.039 130.461 248.199C130.245 248.359 129.984 248.446 129.716 248.449Z" fill="white"/>
<path d="M127.302 238.51C127.151 239.223 126.661 239.793 126.207 239.793C125.753 239.793 125.512 239.223 125.655 238.51C125.797 237.798 126.296 237.237 126.75 237.237C127.204 237.237 127.454 237.78 127.302 238.51Z" fill="white"/>
<path opacity="0.3" d="M85.4742 180.778C85.1806 180.928 84.8555 181.006 84.5258 181.006C84.196 181.006 83.871 180.928 83.5774 180.778C82.8026 180.217 83.7911 178.658 83.7911 178.658C81.823 179.807 80.7544 178.916 80.7544 178.916C80.7544 178.916 82.4553 191.108 83.9959 191.108C85.0468 191.108 84.4056 185.266 84.4056 185.266C84.6961 185.255 84.9805 185.179 85.2372 185.042C85.4939 184.906 85.7163 184.713 85.8878 184.478C86.0592 184.243 86.1752 183.972 86.2269 183.686C86.2787 183.4 86.2649 183.106 86.1866 182.826C84.3254 182.47 85.4742 180.778 85.4742 180.778Z" fill="white"/>
<path d="M100.328 188.846C100.244 188.547 100.092 188.273 99.8829 188.044C99.6741 187.815 99.4147 187.638 99.1254 187.528C98.5182 187.382 97.8784 187.47 97.3326 187.773C96.7868 188.076 96.3747 188.574 96.1778 189.166L95.1091 188.73C95.2277 188.179 95.1781 187.605 94.9667 187.082C94.8406 186.763 94.6485 186.475 94.4029 186.235C94.1573 185.996 93.8639 185.811 93.5418 185.693C92.9746 185.505 92.36 185.518 91.8007 185.728C91.2415 185.939 90.7716 186.335 90.4695 186.851L89.107 186.308L85.4647 184.286L85.251 184.678L88.9111 186.708L90.2647 187.252L90.1845 187.421C89.926 188.094 89.926 188.84 90.1845 189.514C90.3106 189.833 90.5027 190.121 90.7483 190.361C90.9939 190.6 91.2873 190.785 91.6094 190.903C91.8714 191.001 92.1488 191.052 92.4286 191.054C92.8328 191.053 93.2305 190.952 93.5863 190.76C94.2288 190.428 94.7218 189.865 94.9667 189.184L95.9997 189.603C95.8127 190.203 95.8127 190.846 95.9997 191.446C96.0865 191.743 96.2399 192.016 96.4483 192.244C96.6566 192.473 96.9144 192.65 97.2019 192.764C97.4052 192.835 97.6189 192.871 97.8342 192.871C98.2378 192.864 98.632 192.747 98.974 192.532C99.5647 192.15 100.012 191.584 100.247 190.921C100.508 190.258 100.537 189.526 100.328 188.846ZM93.5151 190.564C93.2437 190.709 92.9452 190.795 92.6386 190.818C92.332 190.841 92.0239 190.8 91.734 190.698C91.4432 190.588 91.1783 190.418 90.956 190.201C90.7338 189.983 90.559 189.722 90.4428 189.433C90.2016 188.812 90.2016 188.123 90.4428 187.501C90.6094 187.01 90.9221 186.581 91.3391 186.272C91.7561 185.963 92.2574 185.789 92.7759 185.773C93.0277 185.772 93.2777 185.814 93.5151 185.898C93.8071 186.009 94.0727 186.179 94.2951 186.398C94.5174 186.618 94.6916 186.881 94.8064 187.171C95.0475 187.793 95.0475 188.482 94.8064 189.104C94.5753 189.736 94.1141 190.258 93.5151 190.564ZM100.052 190.823C99.8422 191.446 99.4238 191.978 98.8672 192.328C98.6405 192.494 98.3764 192.602 98.0982 192.641C97.82 192.681 97.5363 192.652 97.2721 192.556C97.008 192.46 96.7715 192.3 96.5838 192.091C96.396 191.882 96.2627 191.63 96.1956 191.357C95.9984 190.733 96.0204 190.061 96.2579 189.451C96.4079 188.969 96.6979 188.542 97.0912 188.225C97.4845 187.908 97.9632 187.715 98.4664 187.67C98.655 187.667 98.8425 187.701 99.0186 187.768C99.2755 187.868 99.5058 188.026 99.6912 188.23C99.8766 188.434 100.012 188.678 100.087 188.944C100.279 189.558 100.263 190.218 100.043 190.823H100.052Z" fill="#713FFF"/>
<path opacity="0.5" d="M100.328 188.846C100.244 188.547 100.092 188.273 99.8829 188.044C99.6741 187.815 99.4147 187.638 99.1254 187.528C98.5182 187.382 97.8784 187.47 97.3326 187.773C96.7868 188.076 96.3747 188.574 96.1778 189.166L95.1091 188.73C95.2277 188.179 95.1781 187.605 94.9667 187.082C94.8406 186.763 94.6485 186.475 94.4029 186.235C94.1573 185.996 93.8639 185.811 93.5418 185.693C92.9746 185.505 92.36 185.518 91.8007 185.728C91.2415 185.939 90.7716 186.335 90.4695 186.851L89.107 186.308L85.4647 184.286L85.251 184.678L88.9111 186.708L90.2647 187.252L90.1845 187.421C89.926 188.094 89.926 188.84 90.1845 189.514C90.3106 189.833 90.5027 190.121 90.7483 190.361C90.9939 190.6 91.2873 190.785 91.6094 190.903C91.8714 191.001 92.1488 191.052 92.4286 191.054C92.8328 191.053 93.2305 190.952 93.5863 190.76C94.2288 190.428 94.7218 189.865 94.9667 189.184L95.9997 189.603C95.8127 190.203 95.8127 190.846 95.9997 191.446C96.0865 191.743 96.2399 192.016 96.4483 192.244C96.6566 192.473 96.9144 192.65 97.2019 192.764C97.4052 192.835 97.6189 192.871 97.8342 192.871C98.2378 192.864 98.632 192.747 98.974 192.532C99.5647 192.15 100.012 191.584 100.247 190.921C100.508 190.258 100.537 189.526 100.328 188.846ZM93.5151 190.564C93.2437 190.709 92.9452 190.795 92.6386 190.818C92.332 190.841 92.0239 190.8 91.734 190.698C91.4432 190.588 91.1783 190.418 90.956 190.201C90.7338 189.983 90.559 189.722 90.4428 189.433C90.2016 188.812 90.2016 188.123 90.4428 187.501C90.6094 187.01 90.9221 186.581 91.3391 186.272C91.7561 185.963 92.2574 185.789 92.7759 185.773C93.0277 185.772 93.2777 185.814 93.5151 185.898C93.8071 186.009 94.0727 186.179 94.2951 186.398C94.5174 186.618 94.6916 186.881 94.8064 187.171C95.0475 187.793 95.0475 188.482 94.8064 189.104C94.5753 189.736 94.1141 190.258 93.5151 190.564ZM100.052 190.823C99.8422 191.446 99.4238 191.978 98.8672 192.328C98.6405 192.494 98.3764 192.602 98.0982 192.641C97.82 192.681 97.5363 192.652 97.2721 192.556C97.008 192.46 96.7715 192.3 96.5838 192.091C96.396 191.882 96.2627 191.63 96.1956 191.357C95.9984 190.733 96.0204 190.061 96.2579 189.451C96.4079 188.969 96.6979 188.542 97.0912 188.225C97.4845 187.908 97.9632 187.715 98.4664 187.67C98.655 187.667 98.8425 187.701 99.0186 187.768C99.2755 187.868 99.5058 188.026 99.6912 188.23C99.8766 188.434 100.012 188.678 100.087 188.944C100.279 189.558 100.263 190.218 100.043 190.823H100.052Z" fill="white"/>
<path d="M82.4991 185.836C82.5333 186.958 83.0103 188.021 83.826 188.792C84.9124 189.807 86.1502 188.997 86.4085 187.608C86.64 186.37 86.4085 184.339 85.0015 183.85C84.7623 183.772 84.5102 183.742 84.2594 183.762C84.0087 183.781 83.7643 183.85 83.5402 183.964C83.3161 184.078 83.1167 184.236 82.9533 184.427C82.7899 184.618 82.6659 184.839 82.5881 185.079C82.5085 185.323 82.4782 185.58 82.4991 185.836Z" fill="#CE7A63"/>
<path d="M358.318 51.5H224.717V104.91H358.318V51.5Z" fill="#FEFEFF"/>
<path d="M250.344 100.332C261.826 100.332 271.134 91.0233 271.134 79.5408C271.134 68.0584 261.826 58.75 250.344 58.75C238.861 58.75 229.553 68.0584 229.553 79.5408C229.553 91.0233 238.861 100.332 250.344 100.332Z" fill="#D1D1FF"/>
<path d="M286.096 62.1129L287.613 65.192L291.012 65.689L288.554 68.0848L289.13 71.4745L286.096 69.8684L283.052 71.4745L283.638 68.0848L281.18 65.689L284.578 65.192L286.096 62.1129Z" fill="#FFB800"/>
<path d="M299.485 62.1129L301.003 65.192L304.401 65.689L301.943 68.0848L302.52 71.4745L299.485 69.8684L296.442 71.4745L297.019 68.0848L294.561 65.689L297.959 65.192L299.485 62.1129Z" fill="#FFB800"/>
<path d="M312.868 62.1129L314.394 65.192L317.792 65.689L315.334 68.0848L315.911 71.4745L312.868 69.8684L309.833 71.4745L310.41 68.0848L307.952 65.689L311.35 65.192L312.868 62.1129Z" fill="#FFB800"/>
<path d="M326.258 62.1129L327.775 65.192L331.174 65.689L328.716 68.0848L329.301 71.4745L326.258 69.8684L323.214 71.4745L323.8 68.0848L321.342 65.689L324.74 65.192L326.258 62.1129Z" fill="#FFB800"/>
<path d="M339.647 62.1129L341.164 65.192L344.563 65.689L342.105 68.0848L342.682 71.4745L339.647 69.8684L336.603 71.4745L337.189 68.0848L334.722 65.689L338.121 65.192L339.647 62.1129Z" fill="#FFB800"/>
<path d="M344.573 78.2003H281.18V79.5314H344.573V78.2003Z" fill="#713FFF"/>
<path d="M318.245 82.2556H281.18V83.5867H318.245V82.2556Z" fill="#D9D4E7"/>
<path d="M335.903 86.3201H281.18V87.6511H335.903V86.3201Z" fill="#D9D4E7"/>
<path d="M331.182 90.3749H281.18V91.7059H331.182V90.3749Z" fill="#D9D4E7"/>
<path d="M103.478 101.838C102.982 96.8371 106.91 92.5 111.936 92.5H171.439C175.809 92.5 179.467 95.8131 179.898 100.162L188.522 187.162C189.018 192.163 185.09 196.5 180.064 196.5H120.561C116.191 196.5 112.533 193.187 112.102 188.838L103.478 101.838Z" fill="white" stroke="black"/>
<circle cx="121" cy="116" r="11" fill="#3F97FF"/>
<rect x="139" y="113" width="14" height="4" fill="#263238"/>
<rect x="161" y="113" width="14" height="4" fill="#263238"/>
<ellipse cx="124.5" cy="143" rx="10.5" ry="11" fill="#FCD776"/>
<rect x="143" y="141" width="14" height="4" fill="#263238"/>
<rect x="164" y="141" width="14" height="4" fill="#263238"/>
<circle cx="129" cy="171" r="11" fill="#AB98E2"/>
<rect x="148" y="168" width="14" height="5" fill="#263238"/>
<rect x="169" y="168" width="14" height="5" fill="#263238"/>
<path d="M263.486 300.363H256.958V299.703C267.867 299.703 279.039 299.703 290.15 299.527V300.187C281.248 300.301 272.283 300.363 263.486 300.363Z" fill="#407BFF"/>
<path d="M251.583 300.328C246.894 300.328 242.109 300.248 237.34 300.178V299.518C242.1 299.589 246.894 299.641 251.583 299.668V300.328Z" fill="#407BFF"/>
<path d="M232.554 299.518H227.223V300.178H232.554V299.518Z" fill="#407BFF"/>
<path d="M368.738 313.4H335.272V314.06H368.738V313.4Z" fill="#407BFF"/>
<path d="M331.665 313.4H328.938V314.06H331.665V313.4Z" fill="#407BFF"/>
<path d="M395.622 274.719H380.412V275.378H395.622V274.719Z" fill="#407BFF"/>
<path d="M376.532 274.719H367.963V275.378H376.532V274.719Z" fill="#407BFF"/>
<path d="M323.871 279.161L300.479 289.471C299.766 288.899 295.385 281.07 295.385 281.07L316.068 270.513L323.871 279.161Z" fill="#FFB573"/>
<path d="M301.315 291.644C301.303 291.594 301.305 291.541 301.32 291.491C301.336 291.442 301.364 291.397 301.403 291.363C301.448 291.335 301.499 291.32 301.552 291.32C301.605 291.32 301.657 291.335 301.702 291.363C301.86 291.459 305.538 293.712 305.96 295.515C306.01 295.682 306.025 295.857 306.004 296.03C305.983 296.202 305.926 296.369 305.837 296.518C305.754 296.7 305.616 296.851 305.442 296.949C305.268 297.047 305.067 297.087 304.869 297.063C304.13 297.011 303.329 295.929 302.67 294.715C302.125 293.735 301.671 292.707 301.315 291.644ZM305.309 295.163C304.44 293.968 303.347 292.955 302.089 292.181C302.793 294.055 304.121 296.439 304.966 296.58C305.08 296.58 305.247 296.58 305.432 296.254C305.488 296.166 305.523 296.067 305.537 295.964C305.551 295.86 305.542 295.755 305.511 295.656C305.468 295.494 305.406 295.337 305.326 295.19L305.309 295.163Z" fill="#407BFF"/>
<path d="M301.385 291.477C301.397 291.434 301.42 291.394 301.453 291.363C301.485 291.332 301.526 291.311 301.57 291.301C301.684 291.301 304.35 290.122 305.968 290.782C306.198 290.883 306.406 291.029 306.578 291.212C306.751 291.395 306.884 291.611 306.971 291.847C307.085 292.035 307.129 292.257 307.096 292.474C307.062 292.692 306.952 292.89 306.786 293.034C305.827 293.8 302.564 292.656 301.429 291.803L301.35 291.715L301.385 291.477ZM305.783 291.275C304.583 291.012 303.331 291.132 302.203 291.618C303.54 292.392 306.021 293.096 306.602 292.603C306.602 292.559 306.786 292.445 306.602 292.031L306.487 291.908C306.344 291.614 306.092 291.386 305.783 291.275Z" fill="#407BFF"/>
<path d="M302.291 289.243L300.76 288.02C299.914 287.346 299.221 286.499 298.728 285.535C298.235 284.572 297.953 283.515 297.901 282.434L297.778 279.874C297.691 279.677 297.534 279.518 297.338 279.429C297.142 279.34 296.92 279.326 296.714 279.39L288.119 281.299C287.239 281.545 287.089 283.48 287.133 283.568C289.333 289.559 295.051 301.99 297.057 306.011C299.063 310.031 303.347 308.544 302.872 306.714C300.743 298.515 301.561 294.592 302.485 291.169C302.674 290.527 302.605 289.835 302.291 289.243Z" fill="#263238"/>
<g opacity="0.2">
<path d="M308.828 274.173L316.068 270.469L323.871 279.161L313.165 283.877L311.317 281.809C310.213 280.579 309.5 279.048 309.268 277.411L308.828 274.173Z" fill="black"/>
</g>
<path d="M348.011 186.269C347.334 188.033 346.865 189.869 346.612 191.741C345.108 201.594 340.568 252.188 338.316 253.367C331.569 256.886 327.152 258.065 312.179 271.428C314.211 275.316 316.103 278.043 317.994 282.627C317.994 282.627 345.266 273.17 353.993 264.003C362.966 254.537 374.148 211.289 377.245 199.914C379.004 193.448 381.019 185.733 377.069 180.384C374.852 177.349 354.037 168.842 348.011 186.269Z" fill="#407BFF"/>
<path d="M348.011 186.269C347.334 188.033 346.865 189.869 346.612 191.741C345.108 201.594 340.568 252.188 338.316 253.367C331.569 256.886 327.152 258.065 312.179 271.428C314.211 275.316 316.103 278.043 317.994 282.627C317.994 282.627 345.266 273.17 353.993 264.003C362.966 254.537 374.148 211.289 377.245 199.914C379.004 193.448 381.019 185.733 377.069 180.384C374.852 177.349 354.037 168.842 348.011 186.269Z" fill="#407BFF"/>
<path opacity="0.5" d="M348.011 186.269C347.334 188.033 346.865 189.869 346.612 191.741C345.108 201.594 340.568 252.188 338.316 253.367C331.569 256.886 327.152 258.065 312.179 271.428C314.211 275.316 316.103 278.043 317.994 282.627C317.994 282.627 345.266 273.17 353.993 264.003C362.966 254.537 374.148 211.289 377.245 199.914C379.004 193.448 381.019 185.733 377.069 180.384C374.852 177.349 354.037 168.842 348.011 186.269Z" fill="#263238"/>
<path d="M419.929 131.154L401.604 157.546C400.503 159.159 398.857 160.321 396.968 160.819C394.232 161.505 390.247 161.699 387.036 158.356C384.142 155.65 381.44 152.746 378.951 149.664C374.013 143.799 369.151 137.858 364.365 131.84C362.465 129.448 360.529 126.967 359.614 124.055C358.699 121.143 358.981 117.633 361.128 115.451C363.582 112.944 369.142 111.545 372.309 113.058C378.027 115.794 388.056 133.925 393.836 143.673C400.285 137.928 412.311 127.758 412.311 127.758L419.929 131.154Z" fill="#407BFF"/>
<path opacity="0.6" d="M419.929 131.154L401.604 157.546C400.503 159.159 398.857 160.321 396.968 160.819C394.232 161.505 390.247 161.699 387.036 158.356C384.142 155.65 381.44 152.746 378.951 149.664C374.013 143.799 369.151 137.858 364.365 131.84C362.465 129.448 360.529 126.967 359.614 124.055C358.699 121.143 358.981 117.633 361.128 115.451C363.582 112.944 369.142 111.545 372.309 113.058C378.027 115.794 388.056 133.925 393.836 143.673C400.285 137.928 412.311 127.758 412.311 127.758L419.929 131.154Z" fill="white"/>
<path d="M379.153 169.036C378.44 174.464 348.362 176.417 342.635 171.675L329.817 127.838C329.404 126.416 329.292 124.924 329.488 123.457C329.684 121.989 330.185 120.579 330.957 119.316C331.73 118.054 332.758 116.966 333.975 116.123C335.192 115.28 336.571 114.701 338.025 114.422C338.817 114.272 339.521 114.14 340.119 114.008C341.395 113.744 342.107 113.551 341.782 113.524C341.782 113.524 342.415 113.304 343.541 112.997C348.851 111.446 354.347 110.62 359.878 110.542C364.901 114.422 369.036 121.099 370.593 125.454C373.919 134.752 373.32 145.213 371.631 154.784C370.685 160.52 369.213 166.156 367.233 171.622C366.581 173.382 369.423 174.015 370.074 172.282C375.352 158.206 378.344 140.717 373.892 126.149C371.993 120.197 368.493 114.883 363.775 110.788C368.279 111.343 372.502 112.917 375.308 116.304C377.948 119.48 378.484 124.504 379.03 127.336C380.165 133.362 379.857 163.608 379.153 169.036Z" fill="#713FFF"/>
<path d="M370.039 172.282C369.388 174.042 366.52 173.373 367.198 171.622C369.178 166.156 370.65 160.52 371.597 154.784C373.286 145.213 373.884 134.752 370.558 125.454C369.001 121.108 364.867 114.422 359.843 110.542C361.149 110.549 362.453 110.631 363.749 110.788C368.461 114.885 371.955 120.199 373.849 126.149C378.309 140.717 375.291 158.233 370.039 172.282Z" fill="#407BFF"/>
<path d="M379.154 169.036C381.055 177.834 380.841 186.957 378.529 195.656L376.506 203.293C376.506 203.293 353.421 214.553 343.639 204.7C333.856 194.847 342.662 171.684 342.662 171.684C354.889 172.361 367.153 171.471 379.154 169.036Z" fill="#407BFF"/>
<path opacity="0.5" d="M379.154 169.036C381.055 177.834 380.841 186.957 378.529 195.656L376.506 203.293C376.506 203.293 353.421 214.553 343.639 204.7C333.856 194.847 342.662 171.684 342.662 171.684C354.889 172.361 367.153 171.471 379.154 169.036Z" fill="black"/>
<path opacity="0.4" d="M345.917 196.263C348.556 196.932 373.189 217.623 373.189 217.623L367.295 235.491L344.923 211.606L345.917 196.263Z" fill="black"/>
<path d="M420.959 293.404L423.986 318.784C423.229 319.303 414.907 323.623 414.467 321.204C413.13 313.831 410.367 298.33 410.367 298.33L420.959 293.404Z" fill="#FFB573"/>
<path d="M425.806 317.966C425.756 317.981 425.702 317.981 425.652 317.965C425.602 317.95 425.558 317.919 425.525 317.878C425.497 317.835 425.483 317.785 425.483 317.733C425.483 317.682 425.497 317.631 425.525 317.588C425.622 317.43 427.83 313.726 429.624 313.268C429.791 313.219 429.965 313.204 430.137 313.224C430.31 313.243 430.476 313.298 430.627 313.383C430.808 313.465 430.959 313.602 431.06 313.773C431.161 313.945 431.206 314.143 431.19 314.342C431.137 315.081 430.073 315.899 428.859 316.567C427.888 317.13 426.866 317.598 425.806 317.966ZM429.325 313.928C428.142 314.814 427.144 315.923 426.387 317.192C428.243 316.453 430.61 315.107 430.706 314.254C430.706 314.139 430.706 313.981 430.372 313.788C430.281 313.731 430.179 313.695 430.073 313.681C429.967 313.667 429.859 313.677 429.756 313.708C429.598 313.758 429.445 313.823 429.299 313.902L429.325 313.928Z" fill="#407BFF"/>
<path d="M425.639 317.931C425.594 317.921 425.553 317.898 425.52 317.865C425.487 317.832 425.465 317.791 425.454 317.746C425.41 317.632 424.24 314.984 424.874 313.347C424.974 313.116 425.12 312.907 425.303 312.734C425.486 312.56 425.702 312.425 425.938 312.336C426.119 312.21 426.34 312.156 426.558 312.186C426.777 312.215 426.976 312.325 427.117 312.494C427.891 313.444 426.8 316.726 425.956 317.869L425.877 317.949L425.639 317.931ZM425.375 313.532C425.13 314.738 425.269 315.99 425.771 317.113C426.528 315.758 427.187 313.268 426.651 312.714C426.607 312.714 426.501 312.529 426.088 312.714L425.965 312.828C425.682 312.98 425.466 313.231 425.357 313.532H425.375Z" fill="#407BFF"/>
<path d="M423.387 317.051L414.079 321.687C413.883 321.778 413.728 321.937 413.642 322.135C413.556 322.333 413.545 322.556 413.613 322.761L415.627 331.373C415.891 332.253 417.827 332.376 417.915 332.332C423.871 330.045 436.231 324.203 440.225 322.11C444.219 320.016 442.671 315.784 440.85 316.286C432.677 318.52 428.753 317.755 425.313 316.875C424.673 316.681 423.982 316.744 423.387 317.051Z" fill="#263238"/>
<g opacity="0.2">
<path d="M411.748 305.993L410.375 298.33L420.968 293.413L422.085 303.811L411.748 305.993Z" fill="black"/>
</g>
<path d="M341.052 201.533C346.868 210.876 372.723 228.726 385.532 243.198C395.209 254.097 403.355 287.096 409.646 301.093C415.144 299.747 420.097 299.738 423.29 298.454C423.29 298.454 419.367 258.083 416.824 247.112C412.144 226.878 385.347 202.096 359.263 180.094C354.864 176.417 348.574 175.502 342.416 179.522C341.29 180.235 335.422 192.463 341.052 201.533Z" fill="#407BFF"/>
<path opacity="0.5" d="M341.052 201.533C346.868 210.876 372.723 228.726 385.532 243.198C395.209 254.097 403.355 287.096 409.646 301.093C415.144 299.747 420.097 299.738 423.29 298.454C423.29 298.454 419.367 258.083 416.824 247.112C412.144 226.878 385.347 202.096 359.263 180.094C354.864 176.417 348.574 175.502 342.416 179.522C341.29 180.235 335.422 192.463 341.052 201.533Z" fill="#263238"/>
<path d="M370.039 172.282C369.388 174.041 366.521 173.373 367.198 171.622C369.178 166.156 370.65 160.52 371.597 154.784C373.286 145.212 373.884 134.752 370.559 125.453C369.001 121.108 364.867 114.422 359.843 110.542C355.841 107.454 346.647 107.806 343.507 112.996C342.407 113.304 341.747 113.524 341.747 113.524C342.073 113.524 341.36 113.744 340.084 114.008C341.462 111.455 343.577 109.377 346.155 108.046C348.732 106.715 351.651 106.193 354.53 106.548C358.374 107.067 360.635 108.167 363.723 110.788C368.435 114.885 371.928 120.199 373.822 126.148C378.309 140.717 375.292 158.232 370.039 172.282Z" fill="#263238"/>
<path d="M322.399 145.1L369.013 168.893C369.687 169.236 370.196 169.833 370.429 170.553C370.662 171.272 370.6 172.054 370.256 172.727L357.278 198.154C356.685 199.316 355.655 200.194 354.415 200.597C353.174 200.999 351.824 200.892 350.662 200.299L307.731 178.386C306.569 177.793 305.69 176.763 305.288 175.522C304.886 174.282 304.993 172.932 305.586 171.77L318.564 146.343C318.908 145.67 319.505 145.161 320.224 144.928C320.943 144.695 321.725 144.757 322.399 145.1Z" fill="#407BFF"/>
<path opacity="0.3" d="M322.399 145.1L369.013 168.893C369.687 169.236 370.196 169.833 370.429 170.553C370.662 171.272 370.6 172.054 370.256 172.727L357.278 198.154C356.685 199.316 355.655 200.194 354.415 200.597C353.174 200.999 351.824 200.892 350.662 200.299L307.731 178.386C306.569 177.793 305.69 176.763 305.288 175.522C304.886 174.282 304.993 172.932 305.586 171.77L318.564 146.343C318.908 145.67 319.505 145.161 320.224 144.928C320.943 144.695 321.725 144.757 322.399 145.1Z" fill="white"/>
<path opacity="0.2" d="M367.4 171.771L320.941 148.062C320.247 147.708 319.44 147.644 318.699 147.883C317.957 148.122 317.34 148.645 316.983 149.338L316.499 150.297C316.003 151.265 315.703 152.321 315.616 153.405C315.529 154.489 315.657 155.579 315.992 156.614C316.327 157.648 316.863 158.607 317.569 159.434C318.275 160.261 319.137 160.941 320.106 161.434L357.055 180.296C359.01 181.295 361.282 181.476 363.37 180.799C365.459 180.123 367.193 178.644 368.192 176.689L368.685 175.73C369.036 175.034 369.098 174.228 368.857 173.486C368.617 172.745 368.093 172.129 367.4 171.771Z" fill="black"/>
<path d="M368.939 168.851L322.48 145.098C321.785 144.747 320.978 144.685 320.237 144.926C319.495 145.166 318.879 145.69 318.522 146.383L318.038 147.342C317.542 148.31 317.242 149.366 317.155 150.45C317.068 151.534 317.196 152.624 317.531 153.658C317.866 154.693 318.402 155.651 319.108 156.478C319.814 157.306 320.676 157.985 321.645 158.479L358.594 177.341C360.549 178.337 362.82 178.516 364.908 177.84C366.996 177.164 368.731 175.687 369.731 173.734L370.224 172.775C370.564 172.083 370.62 171.285 370.38 170.552C370.14 169.819 369.623 169.208 368.939 168.851Z" fill="#407BFF"/>
<path d="M368.939 168.851L322.48 145.098C321.785 144.747 320.978 144.685 320.237 144.926C319.495 145.166 318.879 145.69 318.522 146.383L318.038 147.342C317.542 148.31 317.242 149.366 317.155 150.45C317.068 151.534 317.196 152.624 317.531 153.658C317.866 154.693 318.402 155.651 319.108 156.478C319.814 157.306 320.676 157.985 321.645 158.479L358.594 177.341C360.549 178.337 362.82 178.516 364.908 177.84C366.996 177.164 368.731 175.687 369.731 173.734L370.224 172.775C370.564 172.083 370.62 171.285 370.38 170.552C370.14 169.819 369.623 169.208 368.939 168.851Z" fill="#407BFF"/>
<path opacity="0.5" d="M368.939 168.851L322.48 145.098C321.785 144.747 320.978 144.685 320.237 144.926C319.495 145.166 318.879 145.69 318.522 146.383L318.038 147.342C317.542 148.31 317.242 149.366 317.155 150.45C317.068 151.534 317.196 152.624 317.531 153.658C317.866 154.693 318.402 155.651 319.108 156.478C319.814 157.306 320.676 157.985 321.645 158.479L358.594 177.341C360.549 178.337 362.82 178.516 364.908 177.84C366.996 177.164 368.731 175.687 369.731 173.734L370.224 172.775C370.564 172.083 370.62 171.285 370.38 170.552C370.14 169.819 369.623 169.208 368.939 168.851Z" fill="white"/>
<path d="M330.86 157.637L328.971 156.673C328.127 156.242 327.094 156.577 326.663 157.421L322.92 164.755C322.489 165.599 322.824 166.632 323.668 167.063L325.557 168.027C326.4 168.458 327.434 168.123 327.864 167.279L331.608 159.945C332.039 159.101 331.704 158.068 330.86 157.637Z" fill="#407BFF"/>
<path d="M355.869 170.41L353.98 169.446C353.136 169.016 352.103 169.351 351.673 170.195L347.93 177.53C347.5 178.374 347.835 179.407 348.679 179.837L350.567 180.801C351.411 181.231 352.445 180.896 352.875 180.052L356.617 172.717C357.048 171.874 356.713 170.84 355.869 170.41Z" fill="#407BFF"/>
<path opacity="0.3" d="M330.86 157.637L328.971 156.673C328.127 156.242 327.094 156.577 326.663 157.421L322.92 164.755C322.489 165.599 322.824 166.632 323.668 167.063L325.557 168.027C326.4 168.458 327.434 168.123 327.864 167.279L331.608 159.945C332.039 159.101 331.704 158.068 330.86 157.637Z" fill="black"/>
<path opacity="0.3" d="M355.869 170.41L353.98 169.446C353.136 169.016 352.103 169.351 351.673 170.195L347.93 177.53C347.5 178.374 347.835 179.407 348.679 179.837L350.567 180.801C351.411 181.231 352.445 180.896 352.875 180.052L356.617 172.717C357.048 171.874 356.713 170.84 355.869 170.41Z" fill="black"/>
<path opacity="0.2" d="M311.422 180.27C311.422 180.27 327.882 189.947 333.108 181.686L329.193 189.34L311.422 180.27Z" fill="black"/>
<path d="M344.588 115.591C344.967 116.744 349.568 125.664 352.013 128.735C352.809 127.525 353.823 126.475 355.005 125.638C355.353 125.407 355.755 125.268 356.172 125.234C356.589 125.2 357.007 125.272 357.389 125.445C360.6 126.887 363.081 128.224 363.081 128.224C363.831 126.149 364.922 124.214 366.309 122.497C367.435 121.292 370.066 123.817 371.588 124.503C370.831 120.386 367.303 113.436 363.388 111.395C359.878 109.556 342.169 108.149 344.588 115.591Z" fill="white"/>
<path d="M425.208 293.017C425.304 293.017 425.612 300.24 425.612 300.24L407.094 303.442L405.889 296.993L425.208 293.017Z" fill="#407BFF"/>
<path opacity="0.6" d="M425.208 293.017C425.304 293.017 425.612 300.24 425.612 300.24L407.094 303.442L405.889 296.993L425.208 293.017Z" fill="white"/>
<path d="M323.792 282.918C323.792 282.997 317.484 285.68 317.484 285.68L309.1 268.842L314.528 265.613L323.792 282.918Z" fill="#407BFF"/>
<path opacity="0.6" d="M323.792 282.918C323.792 282.997 317.484 285.68 317.484 285.68L309.1 268.842L314.528 265.613L323.792 282.918Z" fill="white"/>
<path d="M415.68 127.31L407.543 127.644C407.121 127.67 406.699 127.606 406.304 127.455C405.909 127.305 405.551 127.072 405.254 126.772C404.957 126.473 404.727 126.113 404.58 125.717C404.433 125.321 404.372 124.898 404.402 124.477L405.431 101.991C405.454 101.606 405.617 101.244 405.89 100.971C406.162 100.699 406.525 100.536 406.909 100.513L416.92 100.099C417.342 100.073 417.764 100.137 418.159 100.288C418.554 100.438 418.912 100.671 419.209 100.971C419.506 101.271 419.736 101.631 419.883 102.026C420.03 102.422 420.091 102.845 420.061 103.266L419.12 123.87C419.064 124.764 418.683 125.606 418.05 126.24C417.417 126.873 416.574 127.253 415.68 127.31Z" fill="#407BFF"/>
<path opacity="0.2" d="M415.68 127.31L407.543 127.644C407.121 127.67 406.699 127.606 406.304 127.455C405.909 127.305 405.551 127.072 405.254 126.772C404.957 126.473 404.727 126.113 404.58 125.717C404.433 125.321 404.372 124.898 404.402 124.477L405.431 101.991C405.454 101.606 405.617 101.244 405.89 100.971C406.162 100.699 406.525 100.536 406.909 100.513L416.92 100.099C417.342 100.073 417.764 100.137 418.159 100.288C418.554 100.438 418.912 100.671 419.209 100.971C419.506 101.271 419.736 101.631 419.883 102.026C420.03 102.422 420.091 102.845 420.061 103.266L419.12 123.87C419.064 124.764 418.683 125.606 418.05 126.24C417.417 126.873 416.574 127.253 415.68 127.31Z" fill="black"/>
<path d="M416.137 127.706L408 128.049C407.579 128.073 407.157 128.008 406.763 127.857C406.369 127.706 406.012 127.474 405.715 127.174C405.418 126.874 405.188 126.515 405.04 126.12C404.893 125.725 404.831 125.303 404.859 124.882L405.888 102.387C405.91 102.003 406.073 101.64 406.345 101.368C406.618 101.097 406.982 100.937 407.366 100.918L417.378 100.495C417.799 100.471 418.221 100.536 418.615 100.687C419.009 100.838 419.366 101.07 419.663 101.37C419.96 101.67 420.19 102.029 420.337 102.424C420.485 102.819 420.547 103.241 420.518 103.662L419.577 124.266C419.525 125.161 419.146 126.006 418.512 126.64C417.877 127.274 417.033 127.653 416.137 127.706Z" fill="#407BFF"/>
<path opacity="0.5" d="M416.058 127.714L408.088 128.04C407.657 128.064 407.225 127.997 406.822 127.843C406.419 127.688 406.053 127.451 405.748 127.145C405.443 126.839 405.206 126.472 405.053 126.069C404.9 125.665 404.834 125.233 404.859 124.802L405.889 102.457C405.916 102.054 406.089 101.674 406.375 101.389C406.662 101.104 407.042 100.933 407.446 100.909L417.29 100.504C417.721 100.478 418.153 100.544 418.557 100.698C418.961 100.852 419.328 101.089 419.633 101.395C419.939 101.702 420.175 102.069 420.328 102.473C420.481 102.878 420.546 103.31 420.519 103.741L419.577 124.204C419.521 125.118 419.132 125.98 418.483 126.626C417.835 127.273 416.972 127.66 416.058 127.714Z" fill="white"/>
<path opacity="0.3" d="M410.78 107.436L407.209 107.586C407.009 107.597 406.809 107.566 406.622 107.495C406.435 107.423 406.265 107.312 406.125 107.17C405.984 107.027 405.875 106.857 405.806 106.669C405.736 106.481 405.708 106.281 405.722 106.081L405.889 102.421C405.912 102.028 406.079 101.656 406.358 101.377C406.637 101.098 407.008 100.931 407.402 100.908L411.088 100.759C411.287 100.747 411.486 100.778 411.672 100.849C411.857 100.92 412.026 101.03 412.166 101.172C412.306 101.313 412.414 101.483 412.483 101.67C412.552 101.857 412.58 102.056 412.566 102.254L412.408 105.773C412.385 106.201 412.208 106.606 411.908 106.912C411.608 107.218 411.207 107.404 410.78 107.436Z" fill="white"/>
<path d="M410.464 107.146L407.218 107.287C407.018 107.297 406.819 107.265 406.633 107.193C406.446 107.121 406.277 107.01 406.137 106.868C405.997 106.726 405.888 106.556 405.818 106.369C405.748 106.182 405.718 105.982 405.731 105.783L405.88 102.537C405.911 102.115 406.092 101.719 406.391 101.42C406.69 101.121 407.086 100.94 407.508 100.909L410.754 100.777C410.953 100.765 411.152 100.796 411.339 100.867C411.525 100.939 411.694 101.048 411.834 101.19C411.975 101.331 412.084 101.501 412.154 101.688C412.224 101.874 412.254 102.074 412.241 102.273L412.091 105.519C412.061 105.94 411.879 106.337 411.581 106.636C411.282 106.934 410.885 107.116 410.464 107.146Z" fill="#263238"/>
<path opacity="0.1" d="M410.464 107.146L407.218 107.287C407.018 107.297 406.819 107.265 406.633 107.193C406.446 107.121 406.277 107.01 406.137 106.868C405.997 106.726 405.888 106.556 405.818 106.369C405.748 106.182 405.718 105.982 405.731 105.783L405.88 102.537C405.911 102.115 406.092 101.719 406.391 101.42C406.69 101.121 407.086 100.94 407.508 100.909L410.754 100.777C410.953 100.765 411.152 100.796 411.339 100.867C411.525 100.939 411.694 101.048 411.834 101.19C411.975 101.331 412.084 101.501 412.154 101.688C412.224 101.874 412.254 102.074 412.241 102.273L412.091 105.519C412.061 105.94 411.879 106.337 411.581 106.636C411.282 106.934 410.885 107.116 410.464 107.146Z" fill="white"/>
<path d="M414.334 114.536C414.315 114.996 414.123 115.433 413.797 115.759C413.472 116.084 413.035 116.276 412.575 116.295C412.362 116.31 412.149 116.279 411.95 116.203C411.751 116.128 411.57 116.011 411.42 115.86C411.27 115.709 411.154 115.528 411.08 115.328C411.006 115.129 410.976 114.915 410.991 114.703C411.015 114.244 411.208 113.81 411.533 113.485C411.858 113.16 412.292 112.967 412.751 112.944C412.963 112.932 413.174 112.965 413.372 113.042C413.57 113.118 413.75 113.235 413.899 113.385C414.049 113.535 414.165 113.716 414.24 113.914C414.315 114.112 414.347 114.324 414.334 114.536Z" fill="white"/>
<path d="M420.079 131.127L421.363 128.488C422.125 127.004 422.404 125.319 422.159 123.668C421.914 122.018 421.159 120.485 420 119.286L417.14 116.594C417.14 116.594 412.311 127.934 413.516 128.075C414.114 128.145 414.396 129.245 416.472 130.608C416.984 130.985 417.581 131.229 418.21 131.32C418.839 131.411 419.481 131.344 420.079 131.127Z" fill="#FFB573"/>
<path d="M417.141 116.577C417.141 116.577 413.349 115.82 412.293 117.114C411.238 118.407 410.534 123.738 410.446 124.442C410.27 126.316 413.516 128.057 413.516 128.057L417.141 116.577Z" fill="#FFB573"/>
<path d="M348.275 102.281C344.993 99.739 342.064 96.5719 340.63 92.6483C339.09 88.4607 339.601 83.2967 342.715 80.1472C342.97 79.9009 343.304 79.637 343.639 79.7601C343.761 79.8318 343.868 79.9282 343.951 80.0433C344.035 80.1585 344.093 80.2898 344.123 80.4287C344.193 80.6047 344.254 80.7982 344.316 80.983C344.378 81.1677 344.457 81.3965 344.518 81.6076C344.107 82.4486 343.794 83.3342 343.586 84.2468C343.197 85.9866 343.212 87.7922 343.63 89.5252C343.929 90.8272 344.184 91.9973 344.448 93.0882C345.433 97.2933 346.278 99.9325 348.275 102.281Z" fill="#263238"/>
<path d="M348.952 102.8L348.292 102.299C346.295 99.9849 345.451 97.2753 344.466 93.0702C344.202 91.9793 343.947 90.8092 343.647 89.5072C343.23 87.7742 343.215 85.9686 343.603 84.2288C343.812 83.3162 344.125 82.4306 344.536 81.5896C345.706 85.3285 346.014 89.2521 346.533 93.1142C346.849 96.4458 347.665 99.711 348.952 102.8Z" fill="#263238"/>
<path d="M349.612 98.173C350.272 102.51 350.853 108.607 348.644 112.161C348.254 112.756 348.051 113.454 348.06 114.166C348.07 114.877 348.292 115.57 348.697 116.155C350.175 118.196 353.492 121.231 360.961 124.556C363.002 121.811 363.697 119.621 363.776 117.967C363.805 117.026 363.543 116.099 363.027 115.313C362.511 114.526 361.765 113.917 360.89 113.568C357.301 112.055 357.6 109.926 358.55 106.592L349.612 98.173Z" fill="#FFB573"/>
<path opacity="0.2" d="M353.22 101.595L358.498 106.627C358.231 107.506 358.043 108.407 357.935 109.319C355.868 108.932 352.657 107.014 352.349 104.709C352.384 103.616 352.683 102.548 353.22 101.595Z" fill="black"/>
<path d="M368.078 97.3456C367.963 99.8676 366.912 102.256 365.131 104.046C363.35 105.835 360.966 106.896 358.445 107.023H358.383C356.422 107.111 354.473 106.686 352.726 105.791C352.078 105.464 351.46 105.081 350.879 104.647C350.641 104.48 350.404 104.295 350.193 104.12C349.503 103.568 348.867 102.952 348.292 102.281C346.295 99.9672 345.451 97.2576 344.466 93.0524C344.202 91.9616 343.947 90.7915 343.647 89.4895C343.23 87.7565 343.215 85.9509 343.603 84.2111C343.812 83.2985 344.125 82.4129 344.536 81.5719C344.717 81.2007 344.923 80.8421 345.152 80.4986C346.377 78.5522 348.178 77.0366 350.306 76.1629C352.433 75.2893 354.78 75.1012 357.019 75.6249C360.864 76.5046 363.609 79.4517 365.412 83.1642C365.588 83.5337 365.755 83.912 365.914 84.2903C367.595 88.4275 368.334 92.8871 368.078 97.3456Z" fill="#FFB573"/>
<path d="M356.87 89.4546C356.993 90.1232 357.433 90.607 357.855 90.5454C358.277 90.4838 358.541 89.8592 358.436 89.1906C358.33 88.522 357.881 88.0382 357.459 88.0998C357.037 88.1613 356.799 88.8123 356.87 89.4546Z" fill="#263238"/>
<path d="M364.312 88.2051C364.427 88.8913 364.867 89.3575 365.289 89.2959C365.711 89.2344 365.984 88.6097 365.878 87.9411C365.773 87.2725 365.324 86.7887 364.893 86.8679C364.462 86.947 364.207 87.5365 364.312 88.2051Z" fill="#263238"/>
<path d="M362.219 89.8156C363.061 91.24 364.091 92.5449 365.28 93.6952C364.987 93.9981 364.631 94.2336 364.238 94.3855C363.844 94.5374 363.423 94.602 363.002 94.5749L362.219 89.8156Z" fill="#ED893E"/>
<path d="M359.852 97.7768C360.182 97.7737 360.511 97.7443 360.837 97.6888C360.888 97.6801 360.933 97.6526 360.964 97.6118C360.995 97.571 361.009 97.5199 361.004 97.4689C360.994 97.4182 360.964 97.3736 360.921 97.3441C360.879 97.3147 360.827 97.3027 360.775 97.3105C359.957 97.4626 359.115 97.4192 358.317 97.1837C357.519 96.9483 356.788 96.5275 356.183 95.9557C356.165 95.9366 356.143 95.9213 356.119 95.9108C356.095 95.9004 356.069 95.895 356.042 95.895C356.016 95.895 355.99 95.9004 355.966 95.9108C355.942 95.9213 355.92 95.9366 355.902 95.9557C355.865 95.9935 355.845 96.0439 355.845 96.0965C355.845 96.149 355.865 96.1995 355.902 96.2372C356.423 96.7462 357.041 97.1448 357.72 97.4093C358.399 97.6738 359.124 97.7988 359.852 97.7768Z" fill="#263238"/>
<path d="M353.632 88.4341C353.716 88.437 353.797 88.4117 353.865 88.3622C353.932 88.3127 353.98 88.2419 354.002 88.1614C354.267 87.5748 354.65 87.0489 355.127 86.6161C355.603 86.1833 356.164 85.8529 356.773 85.6454C356.874 85.613 356.958 85.5423 357.007 85.4486C357.057 85.3548 357.067 85.2454 357.037 85.1439C357.023 85.0946 356.999 85.0487 356.967 85.0086C356.935 84.9686 356.895 84.9354 356.85 84.9108C356.805 84.8862 356.756 84.8709 356.705 84.8656C356.654 84.8603 356.602 84.8652 356.553 84.88C355.818 85.1187 355.143 85.5146 354.577 86.0403C354.01 86.5659 353.565 87.2087 353.272 87.9239C353.241 88.0219 353.251 88.1279 353.299 88.2186C353.347 88.3093 353.429 88.3774 353.527 88.4078C353.559 88.4265 353.595 88.4356 353.632 88.4341Z" fill="#263238"/>
<path d="M365.966 84.3258C366.056 84.3286 366.144 84.3008 366.216 84.2469C366.288 84.1931 366.34 84.1163 366.362 84.0293C366.385 83.9423 366.377 83.8502 366.34 83.7682C366.304 83.6862 366.24 83.6191 366.16 83.578C365.628 83.2369 365.019 83.0354 364.388 82.9924C363.758 82.9493 363.126 83.066 362.553 83.3317C362.464 83.3755 362.395 83.452 362.36 83.5454C362.326 83.6388 362.329 83.7418 362.368 83.8331C362.391 83.8789 362.422 83.9196 362.461 83.953C362.499 83.9863 362.544 84.0116 362.592 84.0272C362.641 84.0428 362.692 84.0484 362.743 84.0438C362.793 84.0392 362.843 84.0244 362.887 84.0003C363.342 83.8094 363.837 83.7312 364.328 83.7726C364.82 83.814 365.295 83.9736 365.711 84.2378C365.746 84.2685 365.786 84.2921 365.83 84.3072C365.874 84.3223 365.92 84.3286 365.966 84.3258Z" fill="#263238"/>
<path opacity="0.2" d="M348.636 95.164C348.31 95.6303 347.087 93.2286 346.515 93.1318C345.832 93.0177 345.138 92.9911 344.448 93.0526C344.184 91.9618 343.929 90.7917 343.63 89.4897C343.212 87.7567 343.197 85.9511 343.586 84.2113C343.794 83.2987 344.107 82.4131 344.518 81.5721C344.457 81.3609 344.395 81.1498 344.316 80.9475C344.571 80.7725 344.842 80.6223 345.125 80.4988C345.772 80.2161 346.483 80.1128 347.184 80.1997C347.706 80.3019 348.195 80.5268 348.613 80.8557C349.031 81.1845 349.364 81.608 349.586 82.0911C346.955 87.6159 349.7 93.6949 348.636 95.164Z" fill="black"/>
<path d="M348.152 71.622C345.306 72.4207 342.842 74.2161 341.211 76.6805C340.252 78.2113 339.689 80.5074 340.771 81.8886C341.65 83.0322 343.225 82.9179 344.554 82.7243L361.735 80.1467C363.714 79.8476 365.817 79.4869 367.312 77.9298C367.974 77.1973 368.465 76.3277 368.751 75.3833C369.037 74.4388 369.11 73.4428 368.966 72.4666C369.045 73.012 364.136 73.2935 363.688 73.2671C361.781 73.1182 359.926 72.5729 358.242 71.666C355.11 70.0209 351.459 70.6015 348.152 71.622Z" fill="#263238"/>
<path d="M342.477 96.2021C343.223 97.5891 344.488 98.6236 345.996 99.0788C347.993 99.6418 348.996 97.8296 348.442 95.8942C347.931 94.1347 346.295 91.777 344.289 92.0233C343.848 92.1064 343.434 92.2975 343.085 92.5796C342.735 92.8617 342.461 93.226 342.287 93.6399C342.112 94.0538 342.043 94.5045 342.086 94.9516C342.128 95.3987 342.281 95.8283 342.53 96.2021H342.477Z" fill="#FFB573"/>
<path d="M349.595 82.0564C349.595 82.0564 349.516 83.2881 349.472 84.4141C349.459 84.881 349.293 85.3308 348.999 85.6935C348.704 86.0562 348.299 86.3116 347.844 86.4199L342.364 87.7307C342.364 87.7307 339.768 83.1913 342.144 82.3643C344.519 81.5374 349.701 80.4817 349.595 82.0564Z" fill="#263238"/>
<path d="M336.434 186.806L343.164 196.202C343.164 196.202 350.897 192.023 351.434 191.345C351.434 191.345 349.481 186.78 345.786 184.835L342.267 183.331L336.434 186.806Z" fill="#FFB573"/>
<path d="M342.038 194.706L351.213 191.038L353.536 194.803C353.636 194.968 353.701 195.153 353.724 195.345C353.748 195.537 353.73 195.732 353.673 195.916C353.616 196.101 353.52 196.272 353.391 196.416C353.263 196.561 353.105 196.677 352.929 196.756L348.02 198.929C347.504 199.159 346.928 199.213 346.378 199.085C345.828 198.956 345.336 198.651 344.976 198.216L342.038 194.706Z" fill="#FFB573"/>
<path d="M324.329 124.723C320.141 134.453 315.294 143.154 316.341 153.306C317.335 162.983 329 181.176 336.056 187.888C334.956 187.396 345.091 182.971 345.091 182.971C344.976 179.865 334.481 161.699 330.856 154.054C328.402 148.872 345.082 130.046 343.832 124.143C340.648 108.985 327.117 118.266 324.329 124.723Z" fill="#407BFF"/>
<path opacity="0.7" d="M324.329 124.723C320.141 134.453 315.294 143.154 316.341 153.306C317.335 162.983 329 181.176 336.056 187.888C334.956 187.396 345.091 182.971 345.091 182.971C344.976 179.865 334.481 161.699 330.856 154.054C328.402 148.872 345.082 130.046 343.832 124.143C340.648 108.985 327.117 118.266 324.329 124.723Z" fill="white"/>
<path d="M389.016 85.5222C387.966 85.5328 386.917 85.4444 385.884 85.2583L384.705 84.9943L385.769 84.4313C389.288 82.5927 391.347 80.5341 391.927 78.2732C392.223 77.0795 392.043 75.8178 391.426 74.7542H391.232V74.5695C384.643 71.0505 380.869 65.8249 380.869 60.2386C380.869 50.0248 393.573 41.7113 409.188 41.7113C424.803 41.7113 437.515 50.0248 437.515 60.2386C437.515 70.4523 424.759 78.8186 409.144 78.8186C406.89 78.8233 404.639 78.6468 402.414 78.2907C398.816 84.4753 392.719 85.5222 389.016 85.5222ZM387.335 84.5721C390.318 84.8448 397.822 84.748 401.798 77.5782L401.948 77.3054L402.256 77.3494C404.531 77.7341 406.836 77.9254 409.144 77.9213C424.275 77.9213 436.592 70.0036 436.592 60.2737C436.592 50.5439 424.275 42.6262 409.144 42.6262C394.012 42.6262 381.705 50.5439 381.705 60.2737C381.705 65.5522 385.365 70.5315 391.751 73.9097H391.866L391.927 73.9976L392.068 74.068V74.2C392.462 74.8375 392.724 75.547 392.841 76.2871C392.957 77.0273 392.925 77.7832 392.746 78.5107C392.2 80.7276 390.388 82.7598 387.335 84.5721Z" fill="#407BFF"/>
<path d="M397.988 53.6845H392.675L404.525 69.898L426.756 40.3301H424.257L403.777 61.3118L397.988 53.6845Z" fill="#263238"/>
</g>
<defs>
<filter id="filter0_d_928_2696" x="0" y="0" width="559.493" height="340.34" filterUnits="userSpaceOnUse" color-interpolation-filters="sRGB">
<feFlood flood-opacity="0" result="BackgroundImageFix"/>
<feColorMatrix in="SourceAlpha" type="matrix" values="0 0 0 0 0 0 0 0 0 0 0 0 0 0 0 0 0 0 127 0" result="hardAlpha"/>
<feOffset dy="4"/>
<feGaussianBlur stdDeviation="2"/>
<feComposite in2="hardAlpha" operator="out"/>
<feColorMatrix type="matrix" values="0 0 0 0 0 0 0 0 0 0 0 0 0 0 0 0 0 0 0.25 0"/>
<feBlend mode="normal" in2="BackgroundImageFix" result="effect1_dropShadow_928_2696"/>
<feBlend mode="normal" in="SourceGraphic" in2="effect1_dropShadow_928_2696" result="shape"/>
</filter>
</defs>
</svg>
