<svg width="109" height="106" viewBox="0 0 109 106" fill="none" xmlns="http://www.w3.org/2000/svg">
<rect x="25.6133" y="20.5" width="75.2754" height="77" rx="9.5" fill="#E7E7E7" stroke="#D1D1D1"/>
<rect opacity="0.9" x="40.1758" y="35.375" width="21.2917" height="17.875" fill="white"/>
<rect opacity="0.9" x="65.4062" y="35.375" width="21.2917" height="17.875" fill="white"/>
<path d="M40.5137 57.75H74.3887V60.25H40.5137V57.75Z" fill="white"/>
<path d="M40.5137 61.625H81.3359V64.125H40.5137V61.625Z" fill="white"/>
<path d="M40.5137 65.5H62.4375V68H40.5137V65.5Z" fill="white"/>
<circle cx="28.9746" cy="28.7549" r="28.25" fill="#713FFF"/>
<rect x="18.75" y="82.0249" width="89" height="23.1743" rx="11.5872" fill="white" stroke="#713FFF"/>
<path d="M90.5696 96.8005L91.4249 92.441H92.7535L93.7417 96.8005H92.8282L91.8235 92.4659H92.3051L91.4166 96.8005H90.5696ZM90.2291 96.8005L90.2208 95.8538H91.1426V96.8005H90.2291ZM89.7641 96.8005L88.5352 92.2915H89.6562L90.827 96.8005H89.7641ZM93.1189 96.8005V95.8538H94.0406L94.0323 96.8005H93.1189ZM93.4842 96.8005L94.5222 92.2915H95.5685L94.4807 96.8005H93.4842Z" fill="#343434"/>
<path d="M85.9379 96.9583C85.5504 96.9583 85.2099 96.8919 84.9165 96.759C84.6286 96.6262 84.3878 96.449 84.1941 96.2276C84.0058 96.0006 83.8619 95.7487 83.7623 95.4719C83.6682 95.1951 83.6211 94.9128 83.6211 94.6249V94.4672C83.6211 94.1682 83.6682 93.8804 83.7623 93.6036C83.8619 93.3212 84.0058 93.0721 84.1941 92.8562C84.3878 92.6348 84.6259 92.4604 84.9082 92.3331C85.1905 92.2002 85.5171 92.1338 85.888 92.1338C86.3752 92.1338 86.7821 92.2417 87.1087 92.4576C87.4409 92.668 87.69 92.9476 87.8561 93.2963C88.0221 93.6396 88.1052 94.0105 88.1052 94.409V94.8242H84.111V94.1184H87.3827L87.0257 94.4672C87.0257 94.1793 86.9841 93.933 86.9011 93.7281C86.8181 93.5233 86.6907 93.3655 86.5191 93.2548C86.3531 93.1441 86.1427 93.0887 85.888 93.0887C85.6334 93.0887 85.4175 93.1469 85.2403 93.2631C85.0632 93.3794 84.9276 93.5482 84.8335 93.7696C84.7449 93.9855 84.7006 94.2457 84.7006 94.5502C84.7006 94.8325 84.7449 95.0844 84.8335 95.3059C84.922 95.5218 85.0577 95.6934 85.2403 95.8207C85.423 95.9425 85.6555 96.0034 85.9379 96.0034C86.2202 96.0034 86.4499 95.948 86.6271 95.8373C86.8042 95.721 86.9177 95.5799 86.9675 95.4138H88.0304C87.964 95.7238 87.8367 95.9951 87.6485 96.2276C87.4602 96.4601 87.2194 96.64 86.926 96.7673C86.6382 96.8947 86.3088 96.9583 85.9379 96.9583Z" fill="#343434"/>
<path d="M81.4338 96.8002V92.2912H82.5881V96.8002H81.4338ZM80.8027 93.1548V92.2912H82.5881V93.1548H80.8027ZM81.8573 91.7514C81.6304 91.7514 81.4615 91.6933 81.3508 91.5771C81.2456 91.4553 81.193 91.3058 81.193 91.1287C81.193 90.9404 81.2456 90.7882 81.3508 90.6719C81.4615 90.5557 81.6304 90.4976 81.8573 90.4976C82.0843 90.4976 82.2504 90.5557 82.3556 90.6719C82.4607 90.7882 82.5133 90.9404 82.5133 91.1287C82.5133 91.3058 82.4607 91.4553 82.3556 91.5771C82.2504 91.6933 82.0843 91.7514 81.8573 91.7514Z" fill="#343434"/>
<path d="M77.273 96.8005L75.8613 92.2915H77.0488L78.4023 96.8005H77.273ZM77.6134 96.8005V95.8538H78.8341V96.8005H77.6134ZM78.0701 96.8005L79.2327 92.2915H80.3454L79.1247 96.8005H78.0701Z" fill="#343434"/>
<path d="M73.2797 96.9583C72.8921 96.9583 72.5517 96.8919 72.2583 96.759C71.9704 96.6262 71.7296 96.449 71.5359 96.2276C71.3476 96.0006 71.2037 95.7487 71.1041 95.4719C71.0099 95.1951 70.9629 94.9128 70.9629 94.6249V94.4672C70.9629 94.1682 71.0099 93.8804 71.1041 93.6036C71.2037 93.3212 71.3476 93.0721 71.5359 92.8562C71.7296 92.6348 71.9677 92.4604 72.25 92.3331C72.5323 92.2002 72.8589 92.1338 73.2298 92.1338C73.717 92.1338 74.1239 92.2417 74.4505 92.4576C74.7827 92.668 75.0318 92.9476 75.1978 93.2963C75.3639 93.6396 75.447 94.0105 75.447 94.409V94.8242H71.4528V94.1184H74.7245L74.3675 94.4672C74.3675 94.1793 74.3259 93.933 74.2429 93.7281C74.1599 93.5233 74.0325 93.3655 73.8609 93.2548C73.6949 93.1441 73.4845 93.0887 73.2298 93.0887C72.9752 93.0887 72.7593 93.1469 72.5821 93.2631C72.405 93.3794 72.2694 93.5482 72.1753 93.7696C72.0867 93.9855 72.0424 94.2457 72.0424 94.5502C72.0424 94.8325 72.0867 95.0844 72.1753 95.3059C72.2638 95.5218 72.3995 95.6934 72.5821 95.8207C72.7648 95.9425 72.9973 96.0034 73.2797 96.0034C73.562 96.0034 73.7917 95.948 73.9689 95.8373C74.146 95.721 74.2595 95.5799 74.3093 95.4138H75.3722C75.3058 95.7238 75.1785 95.9951 74.9903 96.2276C74.802 96.4601 74.5612 96.64 74.2678 96.7673C73.98 96.8947 73.6506 96.9583 73.2797 96.9583Z" fill="#343434"/>
<path d="M65.459 96.8016V90.6982H66.6381V96.8016H65.459ZM69.1625 96.8016L67.3024 94.1609H68.6227L70.5409 96.8016H69.1625ZM66.2894 94.7754V93.8205H67.8339C68.0498 93.8205 68.2352 93.7762 68.3902 93.6876C68.5508 93.599 68.6753 93.4745 68.7639 93.3139C68.8525 93.1534 68.8968 92.9707 68.8968 92.7659C68.8968 92.5555 68.8525 92.3701 68.7639 92.2095C68.6753 92.049 68.5508 91.9244 68.3902 91.8359C68.2352 91.7473 68.0498 91.703 67.8339 91.703H66.2894V90.6982H67.7093C68.1965 90.6982 68.6172 90.7702 68.9715 90.9141C69.3313 91.0581 69.6081 91.2767 69.8019 91.5701C69.9956 91.8635 70.0925 92.2317 70.0925 92.6746V92.8074C70.0925 93.2558 69.9929 93.624 69.7936 93.9118C69.5998 94.1997 69.3258 94.4156 68.9715 94.5595C68.6172 94.7035 68.1965 94.7754 67.7093 94.7754H66.2894Z" fill="#343434"/>
<path d="M61.9043 96.8015V92.2925H62.8177V94.2024H62.7928C62.7928 93.5547 62.9312 93.0648 63.208 92.7326C63.4848 92.4005 63.8917 92.2344 64.4287 92.2344H64.5947V93.2391H64.2792C63.8917 93.2391 63.59 93.3443 63.3741 93.5547C63.1637 93.7595 63.0585 94.0585 63.0585 94.4515V96.8015H61.9043Z" fill="#343434"/>
<path d="M58.1378 96.9412C57.6174 96.9412 57.2133 96.7696 56.9254 96.4263C56.6431 96.0831 56.502 95.5738 56.502 94.8984V92.2827H57.6562V94.9981C57.6562 95.2749 57.7337 95.4963 57.8887 95.6624C58.0437 95.8229 58.2541 95.9032 58.5198 95.9032C58.7855 95.9032 59.0014 95.8174 59.1675 95.6458C59.3391 95.4742 59.4249 95.2416 59.4249 94.9482V92.2827H60.5791V96.8H59.6657V94.8818H59.7571C59.7571 95.3358 59.6989 95.715 59.5827 96.0194C59.4664 96.3239 59.292 96.5537 59.0595 96.7087C58.827 96.8637 58.5364 96.9412 58.1876 96.9412H58.1378Z" fill="#343434"/>
<path d="M53.1323 96.9583C52.7337 96.9583 52.3821 96.8947 52.0777 96.7673C51.7732 96.64 51.5158 96.4684 51.3054 96.2525C51.095 96.0311 50.9345 95.7819 50.8238 95.5051C50.7186 95.2284 50.666 94.9405 50.666 94.6415V94.4672C50.666 94.1572 50.7214 93.8638 50.8321 93.587C50.9483 93.3046 51.1117 93.0555 51.322 92.8396C51.5379 92.6182 51.7981 92.4466 52.1026 92.3248C52.4071 92.1975 52.7503 92.1338 53.1323 92.1338C53.5142 92.1338 53.8575 92.1975 54.1619 92.3248C54.4664 92.4466 54.7238 92.6182 54.9342 92.8396C55.1501 93.0555 55.3134 93.3046 55.4241 93.587C55.5348 93.8638 55.5902 94.1572 55.5902 94.4672V94.6415C55.5902 94.9405 55.5348 95.2284 55.4241 95.5051C55.3189 95.7819 55.1612 96.0311 54.9508 96.2525C54.7404 96.4684 54.483 96.64 54.1785 96.7673C53.8741 96.8947 53.5253 96.9583 53.1323 96.9583ZM53.1323 95.9702C53.4146 95.9702 53.6526 95.9093 53.8464 95.7875C54.0401 95.6602 54.1868 95.4913 54.2865 95.2809C54.3861 95.065 54.436 94.8215 54.436 94.5502C54.436 94.2734 54.3834 94.0298 54.2782 93.8195C54.1785 93.6036 54.0291 93.4347 53.8298 93.3129C53.636 93.1856 53.4035 93.1219 53.1323 93.1219C52.861 93.1219 52.6257 93.1856 52.4264 93.3129C52.2327 93.4347 52.0832 93.6036 51.978 93.8195C51.8728 94.0298 51.8202 94.2734 51.8202 94.5502C51.8202 94.8215 51.8701 95.065 51.9697 95.2809C52.0749 95.4913 52.2244 95.6602 52.4181 95.7875C52.6119 95.9093 52.8499 95.9702 53.1323 95.9702Z" fill="#343434"/>
<path d="M47.239 94.4833L45.4121 90.7383H46.6245L48.0195 93.6695L47.7538 93.5865H48.5427L48.2603 93.6695L49.5308 90.7383H50.6767L48.9911 94.4833H47.239ZM47.5379 96.8001V94.3006H48.6921V96.8001H47.5379Z" fill="#343434"/>
<path d="M28.3324 93.6819C27.6036 92.6173 28.0748 91.1512 29.2873 90.7104L36.208 88.1946C37.2331 87.8219 38.3661 88.3508 38.7387 89.3759L40.2919 93.6484C40.6055 94.5111 40.2833 95.4762 39.5143 95.9774L34.4865 99.2548C33.5873 99.8408 32.3847 99.6015 31.7785 98.7159L28.3324 93.6819Z" fill="#713FFF"/>
<path d="M38.8934 95.7528L36.5657 97.3895C36.4288 97.4858 36.4253 97.6876 36.5589 97.7884L38.3411 99.1342C38.4877 99.2449 38.6996 99.1623 38.7327 98.9816L39.2783 95.9992C39.318 95.7819 39.0742 95.6258 38.8934 95.7528Z" fill="#713FFF"/>
<rect x="88.6074" y="16.9463" width="16.1914" height="15.8314" rx="7.91569" fill="white" stroke="#713FFF"/>
<path d="M98.832 22.7319L94.5723 26.9917M94.5723 22.7319L98.832 26.9917" stroke="#713FFF" stroke-width="1.5" stroke-linecap="round" stroke-linejoin="round"/>
<path d="M22.6241 36.3734V33.8339M28.973 36.3734V32.5641M35.3219 36.3734V30.0245M21.3445 28.1025C24.0809 28.1936 30.2861 27.7806 33.8156 22.179M31.5028 21.5022L33.8843 21.119C34.1745 21.082 34.6007 21.3111 34.7054 21.5843L35.3351 23.6648M16.9102 28.7548C16.9102 23.0683 16.9102 20.225 18.6767 18.4585C20.4433 16.6919 23.2865 16.6919 28.973 16.6919C34.6595 16.6919 37.5027 16.6919 39.2694 18.4585C41.0359 20.225 41.0359 23.0683 41.0359 28.7548C41.0359 34.4412 41.0359 37.2845 39.2694 39.0511C37.5027 40.8176 34.6595 40.8176 28.973 40.8176C23.2865 40.8176 20.4433 40.8176 18.6767 39.0511C16.9102 37.2845 16.9102 34.4412 16.9102 28.7548Z" stroke="white" stroke-width="1.5" stroke-linecap="round" stroke-linejoin="round"/>
</svg>
