<svg width="128" height="108" viewBox="0 0 128 108" fill="none" xmlns="http://www.w3.org/2000/svg">
<rect x="0.5" y="13.5" width="111" height="77" rx="9.5" fill="#E7E7E7" stroke="#D1D1D1"/>
<rect y="13" width="112" height="10" rx="5" fill="#C2BCD2"/>
<rect opacity="0.9" x="20.75" y="35.6875" width="71.75" height="17.875" fill="white"/>
<rect opacity="0.9" x="20.75" y="56.1875" width="21.2917" height="17.875" fill="white"/>
<rect opacity="0.9" x="45.9805" y="56.1875" width="21.2917" height="17.875" fill="white"/>
<rect opacity="0.9" x="71.207" y="56.1875" width="21.2917" height="17.875" fill="white"/>
<circle cx="99.457" cy="78.875" r="28.25" fill="#713FFF"/>
<rect x="12.5" y="0.5" width="87.5" height="29.2778" rx="14.6389" fill="white" stroke="#713FFF"/>
<path d="M39.1284 14.4334C39.1284 14.8476 39.4642 15.1834 39.8784 15.1834C40.2926 15.1834 40.6284 14.8476 40.6284 14.4334H39.1284ZM39.8674 13.0604L39.1176 13.0764V13.0764L39.8674 13.0604ZM39.0133 9.07608L39.5447 8.54676L39.5447 8.54674L39.0133 9.07608ZM34.9455 8.20461L34.9266 8.95438H34.9266L34.9455 8.20461ZM30.9134 8.20461L30.8946 7.45484L30.8946 7.45484L30.9134 8.20461ZM26.8456 9.07607L27.3769 9.60539L27.3769 9.60539L26.8456 9.07607ZM25.9914 13.0604L25.2416 13.0444L25.2416 13.0444L25.9914 13.0604ZM25.9914 15.1112L26.7413 15.0952V15.0952L25.9914 15.1112ZM26.8456 19.0956L26.3142 19.6249L26.3143 19.625L26.8456 19.0956ZM30.9134 19.967L30.9323 19.2173L30.9323 19.2173L30.9134 19.967ZM32.5787 20.7417C32.9929 20.7435 33.3302 20.4092 33.332 19.995C33.3338 19.5808 32.9995 19.2435 32.5853 19.2417L32.5787 20.7417ZM30.7843 12.6437L31.1546 11.9914L31.1546 11.9914L30.7843 12.6437ZM35.0746 12.6437L34.7043 11.9914L35.0746 12.6437ZM34.3192 17.1578C33.905 17.1578 33.5692 17.4936 33.5692 17.9078C33.5692 18.322 33.905 18.6578 34.3192 18.6578V17.1578ZM38.6639 15.6327C38.3669 15.344 37.892 15.3508 37.6034 15.6478C37.3147 15.9448 37.3214 16.4197 37.6185 16.7084L38.6639 15.6327ZM37.6185 19.1072C37.3214 19.3959 37.3147 19.8707 37.6034 20.1677C37.892 20.4648 38.3669 20.4715 38.6639 20.1828L37.6185 19.1072ZM40.6284 14.4334C40.6284 14.0907 40.6247 13.3952 40.6173 13.0445L39.1176 13.0764C39.1247 13.4106 39.1284 14.0931 39.1284 14.4334H40.6284ZM40.6173 13.0445C40.5951 12.0021 40.5786 11.1369 40.4571 10.437C40.3293 9.7013 40.076 9.08013 39.5447 8.54676L38.482 9.60539C38.7367 9.86103 38.8877 10.1669 38.9792 10.6936C39.0768 11.256 39.0944 11.9885 39.1176 13.0764L40.6173 13.0445ZM39.5447 8.54674C39.0103 8.01041 38.38 7.75616 37.6338 7.6262C36.9213 7.50212 36.0358 7.48177 34.9643 7.45485L34.9266 8.95438C36.043 8.98243 36.7985 9.00331 37.3764 9.10396C37.9207 9.19874 38.2303 9.35273 38.482 9.60542L39.5447 8.54674ZM34.9643 7.45485C33.6033 7.42065 32.2556 7.42065 30.8946 7.45484L30.9323 8.95437C32.2681 8.92081 33.5908 8.92081 34.9266 8.95438L34.9643 7.45485ZM30.8946 7.45484C29.8231 7.48176 28.9376 7.50211 28.2251 7.62619C27.4789 7.75615 26.8486 8.0104 26.3142 8.54675L27.3769 9.60539C27.6286 9.35272 27.9382 9.19873 28.4825 9.10395C29.0604 9.0033 29.8159 8.98242 30.9323 8.95437L30.8946 7.45484ZM26.3142 8.54675C25.7829 9.08012 25.5296 9.70129 25.4018 10.437C25.2803 11.1369 25.2638 12.0021 25.2416 13.0444L26.7412 13.0764C26.7645 11.9886 26.7821 11.256 26.8797 10.6936C26.9712 10.1669 27.1222 9.86103 27.3769 9.60539L26.3142 8.54675ZM25.2416 13.0444C25.2268 13.7401 25.2268 14.4316 25.2416 15.1272L26.7413 15.0952C26.7269 14.4209 26.7269 13.7507 26.7412 13.0764L25.2416 13.0444ZM25.2416 15.1272C25.2638 16.1696 25.2803 17.0348 25.4018 17.7347C25.5296 18.4704 25.7829 19.0916 26.3142 19.6249L27.3769 18.5663C27.1223 18.3106 26.9712 18.0047 26.8797 17.4781C26.7821 16.9156 26.7645 16.1831 26.7413 15.0952L25.2416 15.1272ZM26.3143 19.625C26.8486 20.1613 27.4789 20.4155 28.2251 20.5455C28.9376 20.6695 29.8231 20.6899 30.8946 20.7168L30.9323 19.2173C29.8159 19.1892 29.0604 19.1683 28.4825 19.0677C27.9382 18.9729 27.6286 18.819 27.3769 18.5663L26.3143 19.625ZM30.8946 20.7168C31.4576 20.731 32.0184 20.7392 32.5787 20.7417L32.5853 19.2417C32.0353 19.2393 31.4849 19.2312 30.9323 19.2173L30.8946 20.7168ZM25.6102 10.5687L30.414 13.2959L31.1546 11.9914L26.3507 9.26422L25.6102 10.5687ZM30.414 13.2959C31.3145 13.8071 32.0914 14.141 32.9294 14.141C33.7675 14.141 34.5444 13.8071 35.4449 13.2959L34.7043 11.9914C33.8497 12.4766 33.359 12.641 32.9294 12.641C32.4999 12.641 32.0092 12.4766 31.1546 11.9914L30.414 13.2959ZM35.4449 13.2959L40.2487 10.5687L39.5081 9.26422L34.7043 11.9914L35.4449 13.2959ZM39.8784 17.1578H34.3192V18.6578H39.8784V17.1578ZM40.6284 17.9078C40.6284 17.6762 40.5489 17.4833 40.4795 17.3536C40.4068 17.2178 40.3152 17.0959 40.2274 16.9928C40.0522 16.7871 39.8313 16.5862 39.6264 16.4126C39.4183 16.2362 39.1998 16.0658 39.0241 15.9278C38.8315 15.7765 38.7166 15.6839 38.6639 15.6327L37.6185 16.7084C37.7415 16.8279 37.9316 16.9771 38.0976 17.1074C38.2806 17.2512 38.4745 17.4025 38.6567 17.557C38.8423 17.7142 38.9898 17.8531 39.0854 17.9654C39.133 18.0212 39.1524 18.0529 39.1569 18.0613C39.1646 18.0757 39.1284 18.0177 39.1284 17.9078H40.6284ZM39.1284 17.9078C39.1284 17.7978 39.1646 17.7398 39.1569 17.7542C39.1524 17.7627 39.133 17.7943 39.0854 17.8502C38.9898 17.9625 38.8423 18.1014 38.6567 18.2586C38.4745 18.413 38.2806 18.5643 38.0976 18.7081C37.9316 18.8385 37.7415 18.9876 37.6185 19.1072L38.6639 20.1828C38.7166 20.1316 38.8315 20.0391 39.0241 19.8877C39.1998 19.7497 39.4183 19.5793 39.6264 19.403C39.8313 19.2294 40.0522 19.0284 40.2274 18.8228C40.3152 18.7196 40.4068 18.5977 40.4795 18.462C40.5489 18.3322 40.6284 18.1394 40.6284 17.9078H39.1284Z" fill="#713FFF"/>
<path d="M51.9284 10.5987V17.8811H50.3887V10.5987H51.9284Z" fill="black"/>
<path d="M54.6815 14.7235V17.8811H53.1667V12.4193H54.6104V13.3829H54.6744C54.7953 13.0653 54.998 12.814 55.2825 12.6291C55.567 12.4418 55.9119 12.3482 56.3172 12.3482C56.6965 12.3482 57.0272 12.4311 57.3093 12.5971C57.5914 12.763 57.8107 13.0001 57.9672 13.3083C58.1236 13.6141 58.2019 13.9791 58.2019 14.4035V17.8811H56.6871V14.6737C56.6894 14.3395 56.6041 14.0787 56.431 13.8914C56.258 13.7018 56.0197 13.607 55.7163 13.607C55.5124 13.607 55.3323 13.6508 55.1758 13.7385C55.0217 13.8262 54.9008 13.9542 54.8131 14.1226C54.7278 14.2885 54.6839 14.4888 54.6815 14.7235Z" fill="black"/>
<path d="M64.2922 12.4193L62.3827 17.8811H60.6759L58.7664 12.4193H60.3665L61.5009 16.3272H61.5578L62.6885 12.4193H64.2922Z" fill="black"/>
<path d="M65.0674 17.8811V12.4193H66.5822V17.8811H65.0674ZM65.8284 11.7152C65.6032 11.7152 65.41 11.6405 65.2488 11.4912C65.09 11.3395 65.0105 11.1581 65.0105 10.9471C65.0105 10.7385 65.09 10.5595 65.2488 10.4102C65.41 10.2585 65.6032 10.1826 65.8284 10.1826C66.0536 10.1826 66.2456 10.2585 66.4045 10.4102C66.5657 10.5595 66.6463 10.7385 66.6463 10.9471C66.6463 11.1581 66.5657 11.3395 66.4045 11.4912C66.2456 11.6405 66.0536 11.7152 65.8284 11.7152Z" fill="black"/>
<path d="M70.7009 12.4193V13.5572H67.4117V12.4193H70.7009ZM68.1584 11.1107H69.6732V16.2028C69.6732 16.3426 69.6945 16.4517 69.7372 16.5299C69.7799 16.6058 69.8392 16.6591 69.915 16.6899C69.9932 16.7207 70.0833 16.7361 70.1853 16.7361C70.2564 16.7361 70.3275 16.7302 70.3986 16.7184C70.4697 16.7041 70.5243 16.6935 70.5622 16.6864L70.8004 17.8136C70.7246 17.8373 70.6179 17.8645 70.4804 17.8954C70.3429 17.9286 70.1758 17.9487 69.979 17.9558C69.6139 17.97 69.2939 17.9214 69.0189 17.81C68.7463 17.6986 68.5341 17.5256 68.3824 17.2909C68.2307 17.0562 68.156 16.7599 68.1584 16.4019V11.1107Z" fill="black"/>
<path d="M74.1181 17.9878C73.5563 17.9878 73.0727 17.874 72.6673 17.6465C72.2643 17.4165 71.9537 17.0917 71.7356 16.6721C71.5175 16.2502 71.4085 15.7512 71.4085 15.1751C71.4085 14.6133 71.5175 14.1202 71.7356 13.6958C71.9537 13.2715 72.2607 12.9408 72.6566 12.7038C73.0549 12.4667 73.5219 12.3482 74.0576 12.3482C74.418 12.3482 74.7534 12.4062 75.064 12.5224C75.3769 12.6362 75.6495 12.8081 75.8818 13.038C76.1165 13.268 76.299 13.5572 76.4294 13.9056C76.5598 14.2518 76.625 14.6571 76.625 15.1218V15.5378H72.013V14.599H75.1991C75.1991 14.381 75.1517 14.1877 75.0568 14.0194C74.962 13.8511 74.8305 13.7196 74.6621 13.6247C74.4962 13.5275 74.303 13.4789 74.0825 13.4789C73.8526 13.4789 73.6487 13.5323 73.4709 13.639C73.2955 13.7433 73.158 13.8843 73.0584 14.0621C72.9589 14.2375 72.9079 14.4331 72.9055 14.6488V15.5414C72.9055 15.8116 72.9553 16.0451 73.0549 16.2419C73.1568 16.4386 73.3002 16.5904 73.4851 16.697C73.67 16.8037 73.8893 16.857 74.143 16.857C74.3113 16.857 74.4654 16.8333 74.6052 16.7859C74.7451 16.7385 74.8648 16.6674 74.9644 16.5726C75.064 16.4777 75.1398 16.3616 75.192 16.2241L76.593 16.3165C76.5219 16.6532 76.3761 16.9471 76.1556 17.1984C75.9375 17.4473 75.6554 17.6417 75.3093 17.7816C74.9656 17.9191 74.5685 17.9878 74.1181 17.9878Z" fill="black"/>
<path d="M107.379 66.0469V68.6875M91.5352 66.0469V68.6875M99.4511 80.5703H99.463M99.4511 85.8516H99.463M104.726 80.5703H104.738M94.1758 80.5703H94.1876M94.1758 85.8516H94.1876M88.2344 73.9688H110.68M87.5742 73.9688H111.34M86.9141 79.5711C86.9141 73.8182 86.9141 70.9416 88.5673 69.1544C90.2204 67.3672 92.8812 67.3672 98.2027 67.3672H100.711C106.033 67.3672 108.694 67.3672 110.347 69.1544C112 70.9416 112 73.8182 112 79.5711V80.2492C112 86.0022 112 88.8786 110.347 90.666C108.694 92.4531 106.033 92.4531 100.711 92.4531H98.2027C92.8812 92.4531 90.2204 92.4531 88.5673 90.666C86.9141 88.8786 86.9141 86.0022 86.9141 80.2492V79.5711Z" stroke="white" stroke-width="1.5" stroke-linecap="round" stroke-linejoin="round"/>
</svg>
