<svg width="146" height="102" viewBox="0 0 146 102" fill="none" xmlns="http://www.w3.org/2000/svg">
<rect x="7.51758" y="12.2749" width="111" height="77" rx="9.5" fill="#E7E7E7" stroke="#D3D3D3"/>
<rect x="7.01758" y="11.7749" width="112" height="10" rx="5" fill="#C2BCD2"/>
<rect x="0.689453" y="0.675781" width="81.3105" height="22.699" rx="11.3495" fill="white" stroke="#713FFF"/>
<path d="M15.0837 7.33129L16.0491 9.27798C16.1808 9.54897 16.5318 9.80889 16.828 9.85867L18.5777 10.1518C19.6967 10.3398 19.96 11.1583 19.1537 11.9657L17.7934 13.3373C17.563 13.5695 17.4369 14.0175 17.5081 14.3383L17.8976 16.0361C18.2048 17.38 17.4972 17.8998 16.3179 17.1975L14.6779 16.2186C14.3817 16.0416 13.8935 16.0416 13.5918 16.2186L11.9518 17.1975C10.778 17.8998 10.0649 17.3744 10.3721 16.0361L10.7615 14.3383C10.8329 14.0175 10.7067 13.5695 10.4763 13.3373L9.11603 11.9657C8.31522 11.1583 8.57302 10.3398 9.69196 10.1518L11.4417 9.85867C11.7324 9.80889 12.0834 9.54897 12.2151 9.27798L13.1804 7.33129C13.707 6.27499 14.5627 6.27499 15.0837 7.33129Z" fill="#713FFF"/>
<path d="M28.6892 7.33129L29.6546 9.27798C29.7862 9.54897 30.1373 9.80889 30.4335 9.85867L32.1832 10.1518C33.3022 10.3398 33.5655 11.1583 32.7591 11.9657L31.3989 13.3373C31.1685 13.5695 31.0423 14.0175 31.1136 14.3383L31.5031 16.0361C31.8102 17.38 31.1026 17.8998 29.9234 17.1975L28.2833 16.2186C27.9872 16.0416 27.499 16.0416 27.1973 16.2186L25.5573 17.1975C24.3835 17.8998 23.6704 17.3744 23.9776 16.0361L24.367 14.3383C24.4383 14.0175 24.3122 13.5695 24.0818 13.3373L22.7215 11.9657C21.9207 11.1583 22.1785 10.3398 23.2974 10.1518L25.0472 9.85867C25.3379 9.80889 25.6889 9.54897 25.8206 9.27798L26.7859 7.33129C27.3125 6.27499 28.1681 6.27499 28.6892 7.33129Z" fill="#713FFF"/>
<path d="M42.2927 7.33129L43.2581 9.27798C43.3897 9.54897 43.7408 9.80889 44.037 9.85867L45.7867 10.1518C46.9057 10.3398 47.169 11.1583 46.3626 11.9657L45.0024 13.3373C44.772 13.5695 44.6459 14.0175 44.7171 14.3383L45.1066 16.0361C45.4137 17.38 44.7061 17.8998 43.5269 17.1975L41.8868 16.2186C41.5907 16.0416 41.1025 16.0416 40.8008 16.2186L39.1608 17.1975C37.987 17.8998 37.2739 17.3744 37.5811 16.0361L37.9705 14.3383C38.0418 14.0175 37.9157 13.5695 37.6853 13.3373L36.325 11.9657C35.5242 11.1583 35.782 10.3398 36.9009 10.1518L38.6507 9.85867C38.9414 9.80889 39.2924 9.54897 39.4241 9.27798L40.3894 7.33129C40.916 6.27499 41.7716 6.27499 42.2927 7.33129Z" fill="#713FFF"/>
<path d="M55.8982 7.33129L56.8636 9.27798C56.9952 9.54897 57.3462 9.80889 57.6425 9.85867L59.3922 10.1518C60.5111 10.3398 60.7744 11.1583 59.9681 11.9657L58.6078 13.3373C58.3774 13.5695 58.2513 14.0175 58.3226 14.3383L58.7121 16.0361C59.0192 17.38 58.3116 17.8998 57.1324 17.1975L55.4923 16.2186C55.1961 16.0416 54.708 16.0416 54.4063 16.2186L52.7663 17.1975C51.5925 17.8998 50.8794 17.3744 51.1866 16.0361L51.576 14.3383C51.6473 14.0175 51.5212 13.5695 51.2908 13.3373L49.9305 11.9657C49.1297 11.1583 49.3875 10.3398 50.5064 10.1518L52.2561 9.85867C52.5469 9.80889 52.8979 9.54897 53.0295 9.27798L53.9949 7.33129C54.5215 6.27499 55.3771 6.27499 55.8982 7.33129Z" fill="#713FFF"/>
<path d="M69.5037 7.33129L70.469 9.27798C70.6007 9.54897 70.9517 9.80889 71.2479 9.85867L72.9976 10.1518C74.1166 10.3398 74.3799 11.1583 73.5736 11.9657L72.2133 13.3373C71.9829 13.5695 71.8568 14.0175 71.9281 14.3383L72.3175 16.0361C72.6247 17.38 71.9171 17.8998 70.7378 17.1975L69.0978 16.2186C68.8016 16.0416 68.3134 16.0416 68.0117 16.2186L66.3717 17.1975C65.1979 17.8998 64.4849 17.3744 64.792 16.0361L65.1815 14.3383C65.2528 14.0175 65.1266 13.5695 64.8962 13.3373L63.536 11.9657C62.7351 11.1583 62.9929 10.3398 64.1119 10.1518L65.8616 9.85867C66.1523 9.80889 66.5034 9.54897 66.635 9.27798L67.6004 7.33129C68.1269 6.27499 68.9826 6.27499 69.5037 7.33129Z" fill="#713FFF"/>
<circle cx="117.541" cy="73.5747" r="28.25" fill="#713FFF"/>
<path d="M114.899 72.2536L112.917 70.272M112.917 70.272L110.936 68.2903M112.917 70.272L110.936 72.2536M112.917 70.272L114.899 68.2903M124.146 72.2536L122.165 70.272M122.165 70.272L120.183 68.2903M122.165 70.272L120.183 72.2536M122.165 70.272L124.146 68.2903M112.257 77.538C113.462 79.1423 115.38 80.1802 117.541 80.1802C119.702 80.1802 121.62 79.1423 122.825 77.538M130.752 73.5747C130.752 80.8709 124.837 86.7856 117.541 86.7856C110.245 86.7856 104.33 80.8709 104.33 73.5747C104.33 66.2785 110.245 60.3638 117.541 60.3638C124.837 60.3638 130.752 66.2785 130.752 73.5747Z" stroke="white" stroke-width="1.5" stroke-linecap="round" stroke-linejoin="round"/>
<path d="M35.6953 34.6499H69.5703V37.1499H35.6953V34.6499Z" fill="white"/>
<path d="M35.6953 38.5249H76.5176V41.0249H35.6953V38.5249Z" fill="white"/>
<path d="M35.6953 42.3999H57.6191V44.8999H35.6953V42.3999Z" fill="white"/>
<path d="M35.6953 49.8984H69.5703V52.3984H35.6953V49.8984Z" fill="white"/>
<path d="M35.6953 53.7734H76.5176V56.2734H35.6953V53.7734Z" fill="white"/>
<path d="M35.6953 57.6484H57.6191V60.1484H35.6953V57.6484Z" fill="white"/>
<path d="M35.6953 65.1465H69.5703V67.6465H35.6953V65.1465Z" fill="white"/>
<path d="M35.6953 69.0215H76.5176V71.5215H35.6953V69.0215Z" fill="white"/>
<path d="M35.6953 72.8965H57.6191V75.3965H35.6953V72.8965Z" fill="white"/>
<circle cx="25.6873" cy="39.8376" r="5.06226" fill="white"/>
<circle cx="25.6873" cy="54.9607" r="5.06226" fill="white"/>
<circle cx="25.6873" cy="70.0833" r="5.06226" fill="white"/>
</svg>
