<svg width="51" height="48" viewBox="0 0 51 48" fill="none" xmlns="http://www.w3.org/2000/svg">
<path d="M4.57031 20.8291C4.57031 20.4149 4.23453 20.0791 3.82031 20.0791C3.4061 20.0791 3.07031 20.4149 3.07031 20.8291H4.57031ZM5.92915 45.1289L6.4596 44.5987L6.45957 44.5986L5.92915 45.1289ZM44.9114 45.1289L44.381 44.5986L44.381 44.5987L44.9114 45.1289ZM47.7703 20.8291C47.7703 20.4149 47.4345 20.0791 47.0203 20.0791C46.6061 20.0791 46.2703 20.4149 46.2703 20.8291H47.7703ZM33.1182 36.9831C33.428 36.7081 33.4562 36.2341 33.1812 35.9243C32.9063 35.6145 32.4322 35.5863 32.1225 35.8612L33.1182 36.9831ZM18.7182 35.8612C18.4084 35.5863 17.9344 35.6145 17.6594 35.9243C17.3844 36.2341 17.4127 36.7081 17.7224 36.9831L18.7182 35.8612ZM21.6719 16.043C21.7825 15.6438 21.5484 15.2306 21.1493 15.12C20.7501 15.0095 20.3368 15.2435 20.2263 15.6427L21.6719 16.043ZM13.1346 23.1142L13.0375 22.3705H13.0375L13.1346 23.1142ZM5.07398 21.0977L5.58827 20.5518C5.56101 20.5261 5.53188 20.5025 5.5011 20.4812L5.07398 21.0977ZM1.68974 17.3093L2.38542 17.0291L2.38542 17.0291L1.68974 17.3093ZM2.18198 12.3599L2.88307 12.6263C2.88578 12.6192 2.88839 12.612 2.89089 12.6047L2.18198 12.3599ZM3.82183 7.61179L4.53076 7.85663L4.53284 7.85045L3.82183 7.61179ZM6.12002 2.64439L5.59155 2.1122L5.59154 2.11221L6.12002 2.64439ZM26.6398 1.64879L26.6504 0.898794H26.6398V1.64879ZM42.3007 1.64882L42.2852 2.39866L42.2852 2.39866L42.3007 1.64882ZM45.6235 3.92757L46.3168 3.64137C46.3108 3.62691 46.3044 3.61264 46.2975 3.59859L45.6235 3.92757ZM49.5 16.2095L50.2344 16.3615C50.2448 16.3115 50.25 16.2605 50.25 16.2095H49.5ZM42.3007 22.7477L42.4989 23.471L42.4989 23.471L42.3007 22.7477ZM33.2063 19.6891C32.9345 19.3765 32.4608 19.3433 32.1482 19.6151C31.8356 19.8868 31.8025 20.3605 32.0742 20.6732L33.2063 19.6891ZM19.2542 19.7076C18.9926 19.3864 18.5202 19.338 18.199 19.5995C17.8778 19.861 17.8294 20.3334 18.0909 20.6546L19.2542 19.7076ZM25.441 23.1142L25.4513 22.3642H25.4513L25.441 23.1142ZM33.1325 19.448L33.6969 19.9418C33.7003 19.9379 33.7037 19.934 33.707 19.9301L33.1325 19.448ZM35.5082 16.0717C35.6346 15.6773 35.4173 15.255 35.0229 15.1286C34.6284 15.0022 34.2062 15.2195 34.0798 15.6139L35.5082 16.0717ZM3.07031 20.8291V32.8334H4.57031V20.8291H3.07031ZM3.07031 32.8334C3.07031 36.2075 3.06872 38.8135 3.3406 40.8364C3.61538 42.8809 4.18178 44.4417 5.39872 45.6591L6.45957 44.5986C5.56768 43.7064 5.07967 42.5148 4.82723 40.6366C4.57191 38.7368 4.57031 36.2499 4.57031 32.8334H3.07031ZM5.39869 45.6591C6.61567 46.8766 8.17608 47.4434 10.22 47.7183C12.2423 47.9903 14.8474 47.9887 18.2203 47.9887V46.4887C14.805 46.4887 12.319 46.4871 10.4199 46.2317C8.54251 45.9791 7.35146 45.491 6.4596 44.5987L5.39869 45.6591ZM18.2203 47.9887H32.6203V46.4887H18.2203V47.9887ZM32.6203 47.9887C35.9932 47.9887 38.5983 47.9903 40.6206 47.7183C42.6645 47.4434 44.2249 46.8766 45.4419 45.6591L44.381 44.5987C43.4891 45.491 42.298 45.9791 40.4206 46.2317C38.5216 46.4871 36.0356 46.4887 32.6203 46.4887V47.9887ZM45.4419 45.6591C46.6588 44.4417 47.2252 42.8809 47.5 40.8364C47.7719 38.8135 47.7703 36.2075 47.7703 32.8334H46.2703C46.2703 36.2499 46.2687 38.7368 46.0134 40.6366C45.761 42.5148 45.2729 43.7064 44.381 44.5986L45.4419 45.6591ZM47.7703 32.8334V20.8291H46.2703V32.8334H47.7703ZM32.1225 35.8612C30.6443 37.1732 28.2199 38.0722 25.4203 38.0722V39.5722C28.5094 39.5722 31.3126 38.5857 33.1182 36.9831L32.1225 35.8612ZM25.4203 38.0722C22.6207 38.0722 20.1963 37.1732 18.7182 35.8612L17.7224 36.9831C19.528 38.5857 22.3313 39.5722 25.4203 39.5722V38.0722ZM20.2263 15.6427C19.586 17.9552 17.2801 21.8161 13.0375 22.3705L13.2318 23.8578C18.342 23.1901 20.9587 18.6188 21.6719 16.043L20.2263 15.6427ZM13.0375 22.3705C11.1051 22.623 9.40657 22.3275 8.09808 21.881C6.77273 21.4288 5.89148 20.8374 5.58827 20.5518L4.55969 21.6436C5.05639 22.1115 6.14095 22.7982 7.61369 23.3007C9.10329 23.8089 11.0352 24.1449 13.2318 23.8578L13.0375 22.3705ZM5.5011 20.4812C5.11966 20.2169 4.43713 19.6163 3.78241 18.9192C3.11272 18.2061 2.57483 17.4993 2.38542 17.0291L0.994051 17.5895C1.29689 18.3414 2.01013 19.2232 2.68902 19.9461C3.38287 20.6849 4.14634 21.3674 4.64685 21.7142L5.5011 20.4812ZM2.38542 17.0291C2.31077 16.8438 2.25925 16.552 2.25113 16.1568C2.24321 15.7713 2.27719 15.3338 2.34015 14.8854C2.46691 13.9824 2.70076 13.1061 2.88307 12.6263L1.48089 12.0935C1.25299 12.6932 0.994583 13.6805 0.854713 14.6769C0.784349 15.1781 0.741417 15.6992 0.751449 16.1876C0.761281 16.6663 0.822571 17.1638 0.994056 17.5896L2.38542 17.0291ZM2.89089 12.6047L4.53074 7.85662L3.11291 7.36695L1.47307 12.1151L2.89089 12.6047ZM4.53284 7.85045C4.73406 7.251 5.06056 6.27197 5.45338 5.32636C5.64967 4.85383 5.85776 4.40143 6.06925 4.01645C6.28579 3.62227 6.48369 3.34022 6.6485 3.17656L5.59154 2.11221C5.27597 2.42559 4.99645 2.8539 4.75457 3.29422C4.50763 3.74372 4.27627 4.24992 4.06815 4.75091C3.65214 5.75233 3.30992 6.77997 3.11081 7.37312L4.53284 7.85045ZM6.64849 3.17657C6.96693 2.86035 7.51102 2.64719 8.16871 2.5265C8.80567 2.40961 9.43635 2.39879 9.82655 2.39879V0.898794C9.41615 0.898794 8.67394 0.908737 7.89797 1.05113C7.14275 1.18972 6.23388 1.47435 5.59155 2.1122L6.64849 3.17657ZM9.82655 2.39879H26.6398V0.898794H9.82655V2.39879ZM26.6292 2.39872C28.8012 2.42941 32.2563 2.41971 35.3946 2.40725C38.5444 2.39475 41.3622 2.3796 42.2852 2.39866L42.3162 0.898977C41.3687 0.879417 38.5198 0.894835 35.3887 0.907263C32.2461 0.919736 28.806 0.929329 26.6504 0.898869L26.6292 2.39872ZM42.2852 2.39866C43.0014 2.41343 43.5884 2.71864 44.0499 3.11784C44.5183 3.52306 44.8231 3.9976 44.9495 4.25655L46.2975 3.59859C46.0958 3.1854 45.6745 2.53985 45.0312 1.98339C44.381 1.42089 43.4706 0.922793 42.3162 0.898977L42.2852 2.39866ZM44.9303 4.21377C46.3205 7.58117 47.2804 10.2159 47.8914 12.2052C48.5093 14.2167 48.75 15.505 48.75 16.2095H50.25C50.25 15.2641 49.9479 13.7917 49.3253 11.7647C48.6959 9.71563 47.7175 7.03434 46.3168 3.64137L44.9303 4.21377ZM48.7656 16.0574C48.451 17.5768 47.1246 20.6483 42.1025 22.0243L42.4989 23.471C48.1314 21.9277 49.8203 18.362 50.2344 16.3615L48.7656 16.0574ZM42.1026 22.0243C36.9607 23.4329 34.0972 20.714 33.2063 19.6891L32.0742 20.6732C33.1527 21.9139 36.5671 25.096 42.4989 23.471L42.1026 22.0243ZM18.0909 20.6546C18.9853 21.7533 21.6277 23.8118 25.4306 23.8641L25.4513 22.3642C22.1661 22.3191 19.9185 20.5237 19.2542 19.7076L18.0909 20.6546ZM25.4306 23.8641C27.3779 23.891 29.1617 23.2265 30.5801 22.4166C31.9976 21.6073 33.0992 20.625 33.6969 19.9418L32.568 18.9541C32.0788 19.5133 31.1068 20.3886 29.8363 21.114C28.5668 21.8389 27.0484 22.3863 25.4513 22.3642L25.4306 23.8641ZM33.707 19.9301C34.1028 19.4584 34.8044 18.2678 35.5082 16.0717L34.0798 15.6139C33.405 17.7196 32.7775 18.7042 32.558 18.9658L33.707 19.9301Z" fill="#A1A0B1"/>
</svg>
