<svg width="47" height="49" viewBox="0 0 47 49" fill="none" xmlns="http://www.w3.org/2000/svg">
<path d="M13.8816 34.1781L13.1476 34.3322L13.2727 34.9281H13.8816V34.1781ZM44.9402 17.9452L44.2049 17.7971L44.2049 17.7972L44.9402 17.9452ZM45.1067 12.8534L44.5 13.2943L44.5 13.2943L45.1067 12.8534ZM9.19735 11.1781C8.78314 11.1781 8.44735 11.5139 8.44735 11.9281C8.44735 12.3423 8.78314 12.6781 9.19735 12.6781V11.1781ZM7.74228 4.93679L8.47627 4.78269L8.47334 4.76873L8.46988 4.75489L7.74228 4.93679ZM1 0.638672C0.585786 0.638672 0.25 0.974458 0.25 1.38867C0.25 1.80289 0.585786 2.13867 1 2.13867V0.638672ZM15.9426 34.9281C16.3568 34.9281 16.6926 34.5923 16.6926 34.1781C16.6926 33.7639 16.3568 33.4281 15.9426 33.4281V34.9281ZM13.8816 34.9281H30.8927V33.4281H13.8816V34.9281ZM30.8927 34.9281C33.5963 34.9281 35.7816 34.5038 37.5648 33.6762C39.3566 32.8448 40.703 31.6243 41.7496 30.0968C43.8087 27.0914 44.7145 22.8665 45.6754 18.0932L44.2049 17.7972C43.2272 22.6539 42.3645 26.5454 40.5122 29.249C39.603 30.576 38.458 31.6081 36.9334 32.3156C35.4003 33.0271 33.4443 33.4281 30.8927 33.4281V34.9281ZM45.6754 18.0932C45.9509 16.7251 46.1736 15.6266 46.2335 14.7562C46.2944 13.8725 46.2005 13.0828 45.7134 12.4125L44.5 13.2943C44.6853 13.5493 44.7878 13.9167 44.7371 14.6531C44.6855 15.4028 44.4887 16.3876 44.2049 17.7971L45.6754 18.0932ZM45.7134 12.4125C45.2148 11.7265 44.5015 11.4352 43.6693 11.3031C42.8683 11.1759 41.8308 11.1781 40.5677 11.1781V12.6781C41.8823 12.6781 42.7781 12.6804 43.4341 12.7845C44.0588 12.8837 44.3261 13.0551 44.5 13.2943L45.7134 12.4125ZM40.5677 11.1781H9.19735V12.6781H40.5677V11.1781ZM14.6156 34.024L8.47627 4.78269L7.00828 5.0909L13.1476 34.3322L14.6156 34.024ZM8.46988 4.75489C7.86511 2.33575 5.69151 0.638672 3.19795 0.638672V2.13867C5.00321 2.13867 6.57683 3.3673 7.01467 5.11869L8.46988 4.75489ZM3.19795 0.638672H1V2.13867H3.19795V0.638672ZM15.9426 33.4281H14.979V34.9281H15.9426V33.4281ZM14.979 33.4281C11.3431 33.4281 8.44735 36.4895 8.44735 40.2006H9.94735C9.94735 37.2596 12.2287 34.9281 14.979 34.9281V33.4281ZM8.44735 40.2006C8.44735 41.1399 9.18594 41.9544 10.161 41.9544V40.4544C10.0716 40.4544 9.94735 40.3699 9.94735 40.2006H8.44735ZM10.161 41.9544H36.1315V40.4544H10.161V41.9544ZM22.5 44.7175C22.5 46.2436 21.2629 47.4807 19.7368 47.4807V48.9807C22.0913 48.9807 24 47.072 24 44.7175H22.5ZM19.7368 47.4807C18.2108 47.4807 16.9737 46.2436 16.9737 44.7175H15.4737C15.4737 47.072 17.3823 48.9807 19.7368 48.9807V47.4807ZM16.9737 44.7175C16.9737 43.1915 18.2108 41.9544 19.7368 41.9544V40.4544C17.3823 40.4544 15.4737 42.3631 15.4737 44.7175H16.9737ZM19.7368 41.9544C21.2629 41.9544 22.5 43.1915 22.5 44.7175H24C24 42.3631 22.0913 40.4544 19.7368 40.4544V41.9544ZM38.8947 44.7175C38.8947 46.2436 37.6576 47.4807 36.1315 47.4807V48.9807C38.486 48.9807 40.3947 47.072 40.3947 44.7175H38.8947ZM36.1315 47.4807C34.6055 47.4807 33.3684 46.2436 33.3684 44.7175H31.8684C31.8684 47.072 33.777 48.9807 36.1315 48.9807V47.4807ZM33.3684 44.7175C33.3684 43.1915 34.6055 41.9544 36.1315 41.9544V40.4544C33.777 40.4544 31.8684 42.3631 31.8684 44.7175H33.3684ZM36.1315 41.9544C37.6576 41.9544 38.8947 43.1915 38.8947 44.7175H40.3947C40.3947 42.3631 38.486 40.4544 36.1315 40.4544V41.9544Z" fill="#A1A0B1"/>
</svg>
