<svg width="35" height="35" viewBox="0 0 35 35" fill="none" xmlns="http://www.w3.org/2000/svg">
<circle cx="17.5" cy="17.5" r="17.5" fill="#713FFF"/>
<path d="M5.95679 17.1802C4.48062 15.0238 5.43489 12.0542 7.8909 11.1614L20.1807 6.69379C22.2569 5.93904 24.5519 7.0103 25.3066 9.08652L28.025 16.5644C28.6602 18.3119 28.0076 20.2666 26.45 21.282L24.4568 22.5812L17.4973 27.1176C15.6762 28.3047 13.2403 27.82 12.0124 26.0262L5.95679 17.1802Z" fill="white"/>
<path d="M24.4167 21.485L21.7416 23.3659C21.1869 23.756 21.173 24.5733 21.7142 24.982L23.7623 26.5285C24.3563 26.9771 25.2146 26.6426 25.3485 25.9104L25.9755 22.483C26.1366 21.6026 25.1488 20.9702 24.4167 21.485Z" fill="#FBFAFF"/>
</svg>
