<svg width="53" height="53" viewBox="0 0 53 53" fill="none" xmlns="http://www.w3.org/2000/svg">
<g clip-path="url(#clip0_826_4186)">
<path d="M0 39.6762C0.0981891 39.2757 0.183932 38.8723 0.294567 38.4759C1.26954 34.9679 4.60797 32.541 8.11789 32.7849C11.9597 33.0524 14.9261 35.7593 15.4447 39.4725C16.038 43.7179 13.1435 47.6015 8.89372 48.2626C4.75872 48.9057 0.793811 46.0062 0.103721 41.8356C0.0815938 41.7012 0.0359566 41.5709 0.00138295 41.4392C0 40.853 0 40.2653 0 39.6762Z" fill="#5E5E5E"/>
<path d="M45.2195 48.3334C40.931 48.325 37.4709 44.8434 37.4736 40.5398C37.4778 36.2611 40.9891 32.7559 45.2555 32.7725C49.562 32.7892 53.0179 36.2958 52.9986 40.6299C52.9806 44.8905 49.4942 48.3417 45.2181 48.3334H45.2195Z" fill="#5E5E5E"/>
<path d="M26.5122 15.5484C22.2306 15.5567 18.7415 12.0722 18.7373 7.78527C18.7332 3.49139 22.2044 0.00416178 26.4887 3.72643e-06C30.7772 -0.00415433 34.2595 3.47198 34.2636 7.76171C34.2678 12.0542 30.798 15.5401 26.5108 15.5484H26.5122Z" fill="#5E5E5E"/>
<path d="M26.4929 53.0001C22.9733 53.0084 19.6293 52.2405 16.4486 50.7339C16.0959 50.5662 16.0074 50.4262 16.219 50.0576C16.5882 49.4158 16.9091 48.745 17.2202 48.0714C17.3571 47.7762 17.4927 47.7623 17.7679 47.8954C20.8076 49.3646 24.0188 49.9966 27.3877 49.858C30.1093 49.7457 32.7009 49.1123 35.1557 47.9356C35.5318 47.7554 35.6743 47.8178 35.8361 48.1781C36.1168 48.8074 36.4114 49.4366 36.7723 50.0215C37.0406 50.4581 36.8664 50.5912 36.4957 50.7644C33.326 52.2516 29.9959 53.0084 26.4943 52.9973L26.4929 53.0001Z" fill="#5E5E5E"/>
<path d="M48.1352 28.5008C47.7908 28.5008 47.4409 28.4648 47.1021 28.5105C46.7176 28.5632 46.643 28.3955 46.6112 28.0628C46.0082 21.6775 43.0653 16.6476 37.8557 12.9428C37.6234 12.7778 37.5805 12.6683 37.752 12.423C38.1862 11.8007 38.6122 11.17 38.998 10.5158C39.2041 10.1666 39.3562 10.1777 39.6646 10.3953C44.4233 13.7467 47.5516 18.2387 49.0576 23.8646C49.4158 25.2007 49.6232 26.5659 49.7311 27.9478C49.7601 28.3151 49.6481 28.3899 49.3217 28.3886C48.9262 28.3886 48.5307 28.4385 48.1352 28.4662C48.1352 28.4773 48.1352 28.4897 48.1352 28.5008Z" fill="#5E5E5E"/>
<path d="M5.42669 28.4896C4.76426 28.4466 4.23044 28.3843 3.69662 28.387C3.32876 28.3884 3.24578 28.2817 3.27344 27.913C3.49748 24.8943 4.28576 22.0321 5.62722 19.328C7.42919 15.6966 9.99871 12.7236 13.3233 10.4048C13.6621 10.1692 13.8143 10.1927 14.0217 10.5462C14.3896 11.1699 14.7934 11.7742 15.2152 12.3633C15.4309 12.664 15.3632 12.7957 15.0769 12.9967C10.8962 15.9267 8.1746 19.8755 6.90506 24.8277C6.64783 25.8326 6.45007 26.8527 6.4072 27.8894C6.38645 28.3912 6.24263 28.6296 5.70881 28.4937C5.57881 28.4605 5.43499 28.4882 5.42531 28.4882L5.42669 28.4896Z" fill="#5E5E5E"/>
</g>
<defs>
<clipPath id="clip0_826_4186">
<rect width="53" height="53" fill="white"/>
</clipPath>
</defs>
</svg>
