<svg width="568" height="391" viewBox="0 0 568 391" fill="none" xmlns="http://www.w3.org/2000/svg">
<g clip-path="url(#clip0_826_5787)">
<g opacity="0.2">
<path opacity="0.3" d="M567.817 131.616C566.664 126.591 562.907 124.797 559.968 125.039C556.778 125.306 554.44 127.843 554.44 127.843C554.44 127.843 553.781 124.463 551.192 122.568C548.813 120.824 544.671 120.39 541.064 124.071C533.525 131.749 548.537 148.76 548.537 148.76C548.537 148.76 570.221 142.107 567.817 131.616Z" fill="#EBEBEB"/>
<path opacity="0.3" d="M270.394 22.3769C266.712 15.6413 260.6 14.598 256.492 16.1337C252.025 17.803 249.712 22.3769 249.712 22.3769C249.712 22.3769 247.391 17.803 242.932 16.1337C238.824 14.598 232.712 15.6496 229.03 22.3769C221.34 36.4241 249.712 54.7196 249.712 54.7196C249.712 54.7196 278.084 36.4324 270.394 22.3769Z" fill="#EBEBEB"/>
<path opacity="0.3" d="M310.247 4.34015C307.917 0.0834331 304.052 -0.57594 301.455 0.392253C298.633 1.44391 297.163 4.34015 297.163 4.34015C297.163 4.34015 295.694 1.44391 292.871 0.392253C290.275 -0.57594 286.409 0.0834331 284.079 4.34015C279.22 13.2208 297.155 24.7891 297.155 24.7891C297.155 24.7891 315.098 13.2208 310.23 4.34015H310.247Z" fill="#EBEBEB"/>
<g opacity="0.3">
<path d="M394.737 78.0814C415.092 78.0814 431.592 61.587 431.592 41.24C431.592 20.893 415.092 4.39856 394.737 4.39856C374.383 4.39856 357.882 20.893 357.882 41.24C357.882 61.587 374.383 78.0814 394.737 78.0814Z" fill="#F5F5F5"/>
<path d="M408.138 40.5305C407.011 42.9677 407.596 45.6302 409.441 46.4899C411.286 47.3413 413.699 46.0642 414.826 43.6271C415.954 41.1899 415.369 38.5274 413.524 37.6677C411.679 36.8163 409.266 38.0933 408.138 40.5305Z" fill="#E0E0E0"/>
<path d="M380.334 27.677C379.207 30.1142 379.791 32.7767 381.636 33.6364C383.482 34.4877 385.895 33.2107 387.022 30.7735C388.149 28.3364 387.564 25.6738 385.719 24.8141C383.874 23.9628 381.461 25.2398 380.334 27.677Z" fill="#E0E0E0"/>
</g>
<path d="M382.814 36.7412C379.683 43.5102 382.304 51.3893 388.683 54.344C395.054 57.2903 402.761 54.1937 405.9 47.4164L382.822 36.7412H382.814Z" fill="#E0E0E0"/>
<path d="M383.507 49.7618C383.507 49.7618 387.131 47.9089 390.854 49.6366C394.578 51.3643 395.53 55.3289 395.53 55.3289C395.53 55.3289 388.216 56.4474 383.507 49.7702V49.7618Z" fill="#EBEBEB"/>
<g opacity="0.3">
<path d="M139.57 24.0637L126.745 28.0347L137.422 62.4931L150.247 58.5221L139.57 24.0637Z" fill="#E0E0E0"/>
<path d="M143.031 22.9948L130.206 26.9658L140.883 61.4242L153.708 57.4533L143.031 22.9948Z" fill="#EBEBEB"/>
<path d="M136.641 34.1038C137.134 35.698 138.837 36.5994 140.432 36.0986C142.027 35.6062 142.929 33.9035 142.428 32.3093C141.935 30.7151 140.232 29.8137 138.637 30.3145C137.042 30.807 136.14 32.5096 136.641 34.1038Z" fill="white"/>
<path d="M128.367 33.2023C128.459 33.0855 129.653 33.8617 131.03 34.9384C132.408 36.0151 133.452 36.9833 133.36 37.1001C133.268 37.217 132.074 36.4408 130.696 35.3641C129.319 34.2874 128.275 33.3192 128.367 33.2023Z" fill="#EBEBEB"/>
<path d="M129.553 37.0166C129.644 36.8998 130.838 37.676 132.216 38.7527C133.594 39.8294 134.637 40.7976 134.546 40.9145C134.454 41.0313 133.26 40.2551 131.882 39.1784C130.504 38.1017 129.461 37.1335 129.553 37.0166Z" fill="#EBEBEB"/>
<path d="M130.73 40.8311C130.822 40.7142 132.016 41.4905 133.394 42.5672C134.771 43.6439 135.815 44.6121 135.723 44.7289C135.631 44.8458 134.437 44.0695 133.06 42.9928C131.682 41.9161 130.638 40.9479 130.73 40.8311Z" fill="#EBEBEB"/>
<path d="M131.916 44.6454C132.008 44.5286 133.202 45.3048 134.579 46.3815C135.957 47.4582 137.001 48.4264 136.909 48.5432C136.817 48.6601 135.623 47.8839 134.245 46.8072C132.868 45.7305 131.824 44.7623 131.916 44.6454Z" fill="#EBEBEB"/>
<path d="M133.093 48.4513C133.184 48.3345 134.378 49.1107 135.756 50.1874C137.134 51.2641 138.177 52.2323 138.086 52.3492C137.994 52.466 136.8 51.6898 135.422 50.6131C134.044 49.5364 133.001 48.5682 133.093 48.4513Z" fill="#EBEBEB"/>
<path d="M134.278 52.2658C134.37 52.1489 135.564 52.9252 136.942 54.0019C138.319 55.0786 139.363 56.0468 139.271 56.1636C139.179 56.2805 137.985 55.5042 136.608 54.4275C135.23 53.3508 134.186 52.3826 134.278 52.2658Z" fill="#EBEBEB"/>
<path d="M135.456 56.08C135.548 55.9631 136.742 56.7394 138.119 57.8161C139.497 58.8928 140.541 59.861 140.449 59.9778C140.357 60.0947 139.163 59.3184 137.785 58.2417C136.408 57.165 135.364 56.1968 135.456 56.08Z" fill="#EBEBEB"/>
<path d="M127.365 29.8304C127.457 29.7135 128.651 30.4897 130.029 31.5664C131.406 32.6431 132.45 33.6113 132.358 33.7282C132.266 33.845 131.072 33.0688 129.695 31.9921C128.317 30.9154 127.273 29.9472 127.365 29.8304Z" fill="#EBEBEB"/>
<path d="M128.108 27.6102C128.2 27.4933 128.935 27.9106 129.753 28.5533C130.571 29.1877 131.156 29.8053 131.064 29.9221C130.972 30.039 130.237 29.6217 129.419 28.979C128.601 28.3447 128.016 27.727 128.108 27.6102Z" fill="#EBEBEB"/>
</g>
<g opacity="0.3">
<path d="M130.103 61.7891L119.967 31.5581C119.967 31.5581 112.778 32.3427 103.877 24.9978C97.9906 20.1401 97.4562 13.2208 95.8614 10.7837C94.8845 9.28964 91.1272 10.8171 89.499 11.5349C87.9543 12.2193 85.583 13.9303 85.2574 16.8098C84.6479 22.1516 91.0186 32.4929 91.0186 32.4929C91.0186 32.4929 92.9891 34.3959 89.7829 35.3891L78.3439 38.9281C76.8577 39.3871 75.5551 40.3303 74.7285 41.6407C74.0021 42.7925 73.5679 44.3449 74.311 46.1979C76.006 50.4379 78.895 51.6815 79.1789 52.5913C79.4627 53.5094 78.7029 55.4958 80.4313 57.8496C82.1597 60.1949 82.669 59.7943 83.0531 61.0546C83.4455 62.3149 84.6646 65.4449 86.0673 67.1476C87.47 68.8419 88.6724 69.4762 88.6724 69.4762C88.6724 69.4762 89.4906 73.8164 91.4946 75.7528C94.1247 78.2901 102.307 77.9813 104.979 75.5942C106.232 74.4758 112.536 70.7449 115.491 68.9504C118.447 67.1559 126.546 61.2549 130.103 61.7891Z" fill="#E0E0E0"/>
<path d="M134.303 60.871L124.759 30.0724C124.759 30.0724 117.57 30.857 108.67 23.5121C102.783 18.6544 99.4516 14.2809 97.8485 11.8437C96.8716 10.3497 94.9595 9.73204 93.3313 10.4498C91.7866 11.1342 90.0499 12.3612 89.7243 15.2407C89.1147 20.5825 95.8028 31.0073 95.8028 31.0073C95.8028 31.0073 97.7733 32.9103 94.5671 33.9035L83.1281 37.4424C81.6418 37.9015 80.3393 38.8446 79.5127 40.155C78.7863 41.3068 78.3521 42.8593 79.0952 44.7122C80.7902 48.9522 83.6791 50.1959 83.963 51.1056C84.2469 52.0237 83.4871 54.0102 85.2155 56.3639C86.9438 58.7176 87.4532 58.3087 87.8373 59.569C88.2297 60.8293 89.4487 63.9592 90.8515 65.6619C92.2542 67.3563 93.4566 67.9906 93.4566 67.9906C93.4566 67.9906 94.3917 72.2223 96.2787 74.2672C98.1657 76.312 103.368 76.0867 104.971 75.5859C106.574 75.0935 117.32 69.2509 120.276 67.4564C123.231 65.6619 130.746 60.3285 134.295 60.8543L134.303 60.871Z" fill="#EBEBEB"/>
<path d="M88.0461 26.6755C88.1296 26.5419 89.7745 27.4183 91.8035 28.4867C93.8324 29.555 95.4857 30.4231 95.4189 30.5649C95.3604 30.6985 93.5986 30.0475 91.5446 28.9624C89.499 27.8857 87.9627 26.8007 88.0378 26.6755H88.0461Z" fill="#EBEBEB"/>
<path d="M86.151 22.7526C86.2345 22.6274 87.7291 23.4036 89.6411 24.2299C91.5615 25.0479 93.0812 25.8408 93.0144 25.9827C92.9559 26.1079 91.3611 25.5487 89.424 24.7224C87.4786 23.8877 86.0675 22.8778 86.151 22.7526Z" fill="#EBEBEB"/>
<path d="M85.3156 18.9383C85.4075 18.7964 86.6015 19.4641 88.1879 20.0066C89.8077 20.5408 91.0518 21.2419 90.9767 21.3755C90.9099 21.509 89.6324 21.0499 88.0042 20.5158C86.351 19.9482 85.2321 19.0468 85.3073 18.9383H85.3156Z" fill="#EBEBEB"/>
<path d="M85.617 15.4494C85.6754 15.3159 86.6523 15.5997 87.8046 16.1005C88.9568 16.5929 89.8419 17.1104 89.7835 17.2439C89.725 17.3775 88.7481 17.0937 87.5959 16.5929C86.4436 16.1005 85.5585 15.583 85.617 15.4494Z" fill="#EBEBEB"/>
<path d="M87.3696 12.9037C87.403 12.7618 88.0125 12.8119 88.7306 13.0205C89.4487 13.2292 89.9831 13.513 89.9413 13.6549C89.8912 13.7967 89.2817 13.7467 88.5803 13.538C87.879 13.3377 87.3362 13.0539 87.3696 12.9037Z" fill="#EBEBEB"/>
<path d="M90.6178 31.8252C90.6763 31.6917 91.7116 32.0005 92.9307 32.5264C94.1497 33.0522 95.0849 33.5864 95.0264 33.7282C94.968 33.8618 93.9326 33.553 92.7136 33.0271C91.4945 32.5013 90.5594 31.9671 90.6178 31.8252Z" fill="#EBEBEB"/>
<path d="M75.3298 48.3263C75.3715 48.1844 77.3087 48.6602 79.6549 49.378C82.0011 50.1041 83.8631 50.8052 83.8214 50.9471C83.7796 51.089 81.8425 50.6133 79.4963 49.8871C77.15 49.161 75.288 48.4599 75.3298 48.318V48.3263Z" fill="#EBEBEB"/>
<path d="M73.8937 43.0513C73.9355 42.9094 75.1044 43.1431 76.5072 43.5855C77.9015 44.0195 79.0037 44.4869 78.9619 44.6288C78.9202 44.7707 77.7513 44.537 76.3485 44.0946C74.9541 43.6606 73.852 43.1932 73.8937 43.0513Z" fill="#EBEBEB"/>
<path d="M79.3958 55.2622C79.4209 55.1203 80.9071 55.2873 82.6522 55.8298C84.3973 56.364 85.7249 57.0567 85.6664 57.1903C85.608 57.3322 84.2136 56.8731 82.4936 56.3473C80.7735 55.8131 79.3708 55.4125 79.3958 55.2622Z" fill="#EBEBEB"/>
<path d="M82.9027 60.6791C82.9528 60.5372 84.3639 60.9128 86.0589 61.5221C87.7539 62.1231 89.0815 62.7324 89.0314 62.8743C88.9813 63.0161 87.5702 62.6406 85.8752 62.0313C84.1802 61.4303 82.8526 60.821 82.9027 60.6791Z" fill="#EBEBEB"/>
<path d="M86.4186 67.2812C86.4771 67.1393 88.0719 67.7152 90.0424 68.3746C92.0129 69.034 93.6327 69.5264 93.5993 69.6767C93.5659 69.8186 91.8709 69.5515 89.8754 68.8837C87.8715 68.216 86.3602 67.4148 86.4186 67.2812Z" fill="#EBEBEB"/>
<path d="M89.7167 72.7314C89.7751 72.5979 91.6287 73.2572 93.9416 74.0168C96.2461 74.793 98.1247 75.3773 98.0913 75.5192C98.0579 75.6694 96.0958 75.3105 93.7662 74.5259C91.4367 73.758 89.6499 72.865 89.7167 72.7231V72.7314Z" fill="#EBEBEB"/>
</g>
<path d="M133.711 143.126H13.7266C10.3557 143.126 7.62305 145.857 7.62305 149.227V184.633C7.62305 188.003 10.3557 190.734 13.7266 190.734H133.711C137.082 190.734 139.814 188.003 139.814 184.633V149.227C139.814 145.857 137.082 143.126 133.711 143.126Z" fill="#F5F5F5"/>
<path d="M30.1754 175.368C34.9758 175.368 38.8673 171.478 38.8673 166.679C38.8673 161.881 34.9758 157.991 30.1754 157.991C25.3749 157.991 21.4834 161.881 21.4834 166.679C21.4834 171.478 25.3749 175.368 30.1754 175.368Z" fill="#E0E0E0"/>
<path d="M113.655 162.64H44.9043V166.68H113.655V162.64Z" fill="#E0E0E0"/>
<path d="M72.6501 169.768H44.9043V173.808H72.6501V169.768Z" fill="#E0E0E0"/>
<path d="M555.843 202.62H435.858C432.488 202.62 429.755 205.351 429.755 208.721V244.127C429.755 247.496 432.488 250.228 435.858 250.228H555.843C559.214 250.228 561.946 247.496 561.946 244.127V208.721C561.946 205.351 559.214 202.62 555.843 202.62Z" fill="#F5F5F5"/>
<path d="M459.456 231.115C462.183 227.166 461.193 221.755 457.243 219.028C453.293 216.301 447.879 217.291 445.151 221.24C442.423 225.188 443.414 230.6 447.364 233.327C451.314 236.054 456.728 235.063 459.456 231.115Z" fill="#E0E0E0"/>
<path d="M535.787 222.142H467.036V226.182H535.787V222.142Z" fill="#E0E0E0"/>
<path d="M494.782 229.27H467.036V233.31H494.782V229.27Z" fill="#E0E0E0"/>
<g opacity="0.3">
<path d="M36.5062 65.894L26.0381 83.1316L32.4546 87.0253L42.9227 69.7877L36.5062 65.894Z" fill="#E0E0E0"/>
<path d="M34.7728 64.8459L24.3047 82.0835L30.7212 85.9772L41.1893 68.7396L34.7728 64.8459Z" fill="#EBEBEB"/>
<path d="M31.3283 80.6438C31.8126 79.8426 31.5621 78.7993 30.7605 78.3152C29.959 77.8311 28.9153 78.0815 28.431 78.8827C27.9467 79.684 28.1972 80.7273 28.9987 81.2114C29.8003 81.6955 30.844 81.4451 31.3283 80.6438Z" fill="white"/>
<path d="M34.0161 84.4332C33.9326 84.4332 33.8157 83.6486 33.7573 82.6721C33.6988 81.6956 33.7155 80.9026 33.799 80.8943C33.8825 80.8943 33.9994 81.6789 34.0578 82.6554C34.1163 83.6319 34.0996 84.4249 34.0161 84.4332Z" fill="#EBEBEB"/>
<path d="M35.1772 82.5301C35.0937 82.5301 34.9768 81.7456 34.9184 80.769C34.8599 79.7925 34.8766 78.9996 34.9601 78.9912C35.0436 78.9912 35.1605 79.7758 35.219 80.7523C35.2774 81.7289 35.2607 82.5218 35.1772 82.5301Z" fill="#EBEBEB"/>
<path d="M36.3374 80.6187C36.2539 80.6187 36.137 79.8342 36.0785 78.8576C36.0201 77.8811 36.0368 77.0882 36.1203 77.0798C36.2038 77.0798 36.3207 77.8644 36.3791 78.8409C36.4376 79.8175 36.4209 80.6104 36.3374 80.6187Z" fill="#EBEBEB"/>
<path d="M37.4985 78.7159C37.415 78.7159 37.2981 77.9313 37.2397 76.9548C37.1812 75.9783 37.1979 75.1853 37.2814 75.177C37.3649 75.177 37.4818 75.9616 37.5403 76.9381C37.5987 77.9147 37.582 78.7076 37.4985 78.7159Z" fill="#EBEBEB"/>
<path d="M38.6509 76.8045C38.5674 76.8045 38.4505 76.02 38.392 75.0434C38.3336 74.0669 38.3503 73.274 38.4338 73.2656C38.5173 73.2656 38.6342 74.0502 38.6926 75.0267C38.7511 76.0033 38.7344 76.7962 38.6509 76.8045Z" fill="#EBEBEB"/>
<path d="M39.811 74.9015C39.7275 74.9015 39.6106 74.1169 39.5522 73.1404C39.4937 72.1638 39.5104 71.3709 39.5939 71.3625C39.6774 71.3625 39.7943 72.1471 39.8528 73.1237C39.9112 74.1002 39.8945 74.8931 39.811 74.9015Z" fill="#EBEBEB"/>
<path d="M40.9722 72.9901C40.8887 72.9901 40.7718 72.2055 40.7133 71.229C40.6549 70.2524 40.6716 69.4595 40.7551 69.4512C40.8386 69.4512 40.9555 70.2357 41.0139 71.2123C41.0723 72.1888 41.0556 72.9817 40.9722 72.9901Z" fill="#EBEBEB"/>
<path d="M32.9809 86.1109C32.8974 86.1109 32.7805 85.3264 32.7221 84.3498C32.6637 83.3733 32.6804 82.5804 32.7639 82.572C32.8473 82.572 32.9642 83.3566 33.0227 84.3331C33.0811 85.3097 33.0644 86.1026 32.9809 86.1109Z" fill="#EBEBEB"/>
<path d="M31.7709 86.6201C31.6874 86.6201 31.5872 86.161 31.5538 85.5851C31.5204 85.0092 31.5538 84.5334 31.6373 84.5334C31.7208 84.5334 31.821 84.9925 31.8544 85.5684C31.8878 86.1443 31.8544 86.6201 31.7709 86.6201Z" fill="#EBEBEB"/>
</g>
<g opacity="0.3">
<path d="M45.3466 73.1152L36.4375 88.5646C36.4375 88.5646 39.435 91.2856 39.6521 97.7291C39.8024 101.994 37.0971 104.782 36.6713 106.351C36.4125 107.311 38.4414 108.321 39.3432 108.738C40.2032 109.13 41.798 109.489 43.1256 108.563C45.5887 106.835 47.5592 100.333 47.5592 100.333C47.5592 100.333 47.626 98.8058 49.2291 99.7823L54.9486 103.254C55.6917 103.705 56.5684 103.905 57.4285 103.764C58.1799 103.638 58.9898 103.246 59.4908 102.253C60.6431 99.9743 60.0836 98.305 60.3675 97.8459C60.6431 97.3869 61.7619 96.9695 62.1042 95.3753C62.4466 93.7812 62.0875 93.7227 62.4716 93.0884C62.8557 92.4624 63.7157 90.7848 63.9078 89.5662C64.0998 88.3476 63.9161 87.6131 63.9161 87.6131C63.9161 87.6131 65.4274 85.66 65.4942 84.1076C65.586 82.0627 62.4215 78.7575 60.426 78.5238C59.4908 78.4153 55.5915 77.1633 53.7463 76.5874C51.901 76.0115 46.4237 74.8096 45.3299 73.1319L45.3466 73.1152Z" fill="#E0E0E0"/>
<path d="M43.4009 71.6963L34.041 87.1039C34.041 87.1039 37.0385 89.8249 37.2556 96.2684C37.4059 100.533 36.8047 103.547 36.3789 105.116C36.1201 106.076 36.5626 107.11 37.4727 107.519C38.3327 107.912 39.485 108.187 40.8126 107.252C43.2757 105.525 45.1627 98.8641 45.1627 98.8641C45.1627 98.8641 45.2295 97.3367 46.8326 98.3133L52.5521 101.785C53.2953 102.236 54.172 102.436 55.032 102.295C55.7834 102.169 56.5934 101.777 57.0943 100.784C58.2466 98.5052 57.6872 96.8359 57.971 96.3769C58.2466 95.9178 59.3654 95.5005 59.7078 93.9063C60.0501 92.3121 59.6911 92.2537 60.0751 91.6194C60.4592 90.985 61.3192 89.3157 61.5113 88.0972C61.7033 86.8786 61.5196 86.1441 61.5196 86.1441C61.5196 86.1441 62.9474 84.1826 63.0977 82.6385C63.2564 81.0861 61.2274 78.9995 60.4258 78.507C59.6243 78.0229 53.1951 75.6859 51.3498 75.1184C49.5045 74.5424 44.4864 73.3823 43.3926 71.6963H43.4009Z" fill="#EBEBEB"/>
<path d="M46.2317 103.73C46.1482 103.747 45.8977 102.729 45.5971 101.485C45.2965 100.241 45.046 99.223 45.1295 99.198C45.2047 99.1729 45.5888 100.149 45.8977 101.41C46.2066 102.67 46.3235 103.713 46.24 103.722L46.2317 103.73Z" fill="#EBEBEB"/>
<path d="M45.2881 105.975C45.2046 105.992 44.9791 105.074 44.6117 103.972C44.2444 102.862 44.0106 101.936 44.0941 101.911C44.1692 101.894 44.5283 102.762 44.8956 103.88C45.2714 104.999 45.3632 105.967 45.2797 105.975H45.2881Z" fill="#EBEBEB"/>
<path d="M44.0025 107.737C43.9106 107.753 43.7436 107.002 43.3846 106.134C43.0089 105.258 42.8419 104.481 42.9254 104.456C43.0089 104.44 43.2928 105.141 43.6685 106.017C44.0442 106.919 44.0776 107.72 44.0025 107.728V107.737Z" fill="#EBEBEB"/>
<path d="M42.4326 108.905C42.3491 108.93 42.1153 108.413 41.8899 107.745C41.6728 107.077 41.5559 106.518 41.6394 106.493C41.7145 106.468 41.9567 106.985 42.1821 107.653C42.3992 108.321 42.5161 108.88 42.4326 108.905Z" fill="#EBEBEB"/>
<path d="M40.7126 109.114C40.6374 109.155 40.437 108.88 40.2533 108.504C40.078 108.129 39.9945 107.795 40.0697 107.762C40.1448 107.728 40.3535 108.004 40.5289 108.371C40.7042 108.738 40.7877 109.072 40.7126 109.114Z" fill="#EBEBEB"/>
<path d="M47.4338 100.742C47.3586 100.767 47.0998 100.216 46.8744 99.5151C46.6406 98.814 46.5237 98.2214 46.5988 98.1964C46.674 98.1713 46.9328 98.7222 47.1582 99.4233C47.392 100.124 47.5089 100.717 47.4338 100.742Z" fill="#EBEBEB"/>
<path d="M60.008 101.026C59.9329 101.059 59.4152 100.074 58.8474 98.8224C58.2796 97.5704 57.8872 96.5271 57.9623 96.4937C58.0375 96.4604 58.5552 97.4452 59.1229 98.6972C59.6907 99.9492 60.0831 100.993 60.008 101.026Z" fill="#EBEBEB"/>
<path d="M58.3305 103.58C58.2553 103.613 57.9214 103.037 57.5874 102.286C57.2534 101.543 57.0447 100.909 57.1198 100.876C57.1949 100.842 57.5289 101.418 57.8629 102.169C58.1969 102.912 58.4056 103.547 58.3305 103.58Z" fill="#EBEBEB"/>
<path d="M61.4023 96.7525C61.3355 96.7942 60.8596 96.1098 60.4338 95.1834C60.0079 94.2569 59.8075 93.4473 59.8827 93.4222C59.9662 93.3972 60.2918 94.1484 60.7093 95.0582C61.1268 95.9763 61.4775 96.7108 61.4023 96.7525Z" fill="#EBEBEB"/>
<path d="M62.3711 93.2803C62.2959 93.3137 61.9285 92.5792 61.5528 91.6527C61.1771 90.7179 60.9349 89.9417 61.0184 89.9083C61.0936 89.8749 61.461 90.6094 61.8367 91.5359C62.2124 92.4707 62.4546 93.2469 62.3711 93.2803Z" fill="#EBEBEB"/>
<path d="M63.8412 89.3576C63.7577 89.3826 63.407 88.5062 62.9562 87.4379C62.5053 86.3695 62.1128 85.5098 62.188 85.4681C62.2631 85.4264 62.7725 86.236 63.24 87.321C63.6993 88.4061 63.9247 89.3325 63.8496 89.3576H63.8412Z" fill="#EBEBEB"/>
<path d="M64.9017 85.9605C64.8266 85.9856 64.4174 84.9673 63.8747 83.7153C63.3487 82.4633 62.8978 81.4618 62.9646 81.42C63.0397 81.3783 63.6159 82.3298 64.1502 83.5985C64.693 84.8588 64.9769 85.9355 64.8934 85.9605H64.9017Z" fill="#EBEBEB"/>
</g>
<path opacity="0.3" d="M547.109 36.7496C545.564 33.9368 543.009 33.4944 541.297 34.1371C539.427 34.8382 538.458 36.7496 538.458 36.7496C538.458 36.7496 537.49 34.8382 535.62 34.1371C533.9 33.4944 531.345 33.9368 529.808 36.7496C526.594 42.6255 538.458 50.2792 538.458 50.2792C538.458 50.2792 550.332 42.6255 547.109 36.7496Z" fill="#E0E0E0"/>
<path opacity="0.3" d="M37.8067 300.416L43.3759 306.258C44.0021 306.917 44.9289 307.226 45.8641 307.084L54.1386 305.866C56.4848 305.524 58.1547 307.902 56.9691 309.889L52.7859 316.925C52.3183 317.718 52.2766 318.669 52.6774 319.479L56.251 326.64C57.2613 328.668 55.3827 330.989 53.0782 330.571L44.9206 329.077C44.0021 328.911 43.0503 329.186 42.3656 329.829L36.3038 335.479C34.5837 337.082 31.7532 336.13 31.5111 333.877L30.6594 325.922C30.5592 325.029 30.0165 324.245 29.1899 323.836L21.8673 320.163C19.7966 319.12 19.9218 316.216 22.0844 315.247L29.7076 311.817C30.5676 311.433 31.1854 310.665 31.3524 309.78L32.8971 301.86C33.3313 299.614 36.2453 298.763 37.8234 300.424L37.8067 300.416Z" fill="#E0E0E0"/>
<path opacity="0.3" d="M527.847 297.185L538 311.691C539.11 313.277 541.482 313.244 542.542 311.616L552.37 296.526L527.855 297.185H527.847Z" fill="#E0E0E0"/>
<path opacity="0.3" d="M526.769 272.897H551.918C557.245 272.897 561.571 277.22 561.571 282.546V295.566C561.571 300.891 557.245 305.215 551.918 305.215H526.769C521.442 305.215 517.117 300.891 517.117 295.566V282.546C517.117 277.22 521.442 272.897 526.769 272.897Z" fill="#E0E0E0"/>
<path d="M548.053 286.085C546.625 283.48 544.262 283.08 542.675 283.672C540.947 284.315 540.054 286.085 540.054 286.085C540.054 286.085 539.16 284.315 537.432 283.672C535.845 283.08 533.483 283.48 532.055 286.085C529.082 291.518 540.054 298.596 540.054 298.596C540.054 298.596 551.025 291.518 548.053 286.085Z" fill="white"/>
</g>
<path d="M544.204 371.703C544.204 371.82 424.537 371.92 276.949 371.92C129.361 371.92 9.66895 371.82 9.66895 371.703C9.66895 371.586 129.311 371.486 276.949 371.486C424.587 371.486 544.204 371.586 544.204 371.703Z" fill="#263238"/>
<path d="M429.864 370.292H108.236C97.6071 370.292 88.9902 361.328 88.9902 350.269V120.64C88.9902 112.569 95.2775 106.034 103.034 106.034H435.85C443.181 106.034 449.118 112.21 449.118 119.839V350.269C449.118 361.328 440.501 370.292 429.872 370.292H429.864Z" fill="white" fill-opacity="0.2"/>
<path d="M448.734 374.315H92.5391C82.2607 374.315 73.9277 365.652 73.9277 354.96V351.947C73.9277 351.538 74.245 351.204 74.6458 351.204H463.379C463.772 351.204 464.097 351.538 464.097 351.947V358.348C464.097 367.171 457.217 374.324 448.734 374.324V374.315Z" fill="#FBFBFB" fill-opacity="0.7"/>
<path d="M448.734 374.315C448.734 374.315 448.909 374.299 449.26 374.274C449.611 374.232 450.137 374.274 450.813 374.123C452.174 373.94 454.228 373.472 456.541 372.02C457.71 371.327 458.896 370.334 460.014 369.065C461.133 367.797 462.169 366.211 462.903 364.316C463.655 362.422 464.047 360.226 464.022 357.873C464.022 356.696 464.022 355.469 464.022 354.217C464.022 353.591 464.022 352.948 464.022 352.306C464.022 351.98 464.047 351.655 463.814 351.454C463.605 351.229 463.288 351.279 462.962 351.279C442.472 351.296 412.839 351.321 376.209 351.346C302.958 351.362 201.761 351.379 90.0008 351.404C86.5106 351.404 83.0205 351.404 79.5471 351.404H76.942H75.6394H74.6625C74.5623 351.404 74.5039 351.412 74.4204 351.446C74.2784 351.513 74.1615 351.646 74.1282 351.805C74.0948 351.938 74.1198 352.214 74.1115 352.422V353.775C74.0948 354.676 74.1365 355.569 74.1866 356.454C74.3369 358.215 74.6542 359.976 75.2804 361.629C75.5392 362.472 75.9567 363.248 76.3158 364.049C76.7666 364.8 77.1507 365.593 77.6934 366.278C79.6807 369.14 82.4694 371.352 85.5671 372.696C87.1285 373.347 88.7734 373.781 90.435 373.99C92.0965 374.157 93.7915 374.123 95.4865 374.123C98.8597 374.123 102.225 374.123 105.581 374.123C112.286 374.123 118.932 374.123 125.52 374.123C151.872 374.123 177.296 374.123 201.51 374.132C249.938 374.148 293.556 374.165 330.178 374.173C366.799 374.198 396.44 374.223 416.922 374.24C427.159 374.257 435.108 374.274 440.51 374.282C443.207 374.29 445.261 374.299 446.647 374.299C448.024 374.299 448.734 374.324 448.734 374.324C448.734 374.324 448.024 374.34 446.647 374.349C445.261 374.349 443.207 374.357 440.51 374.365C435.116 374.374 427.167 374.39 416.922 374.407C396.44 374.424 366.799 374.449 330.178 374.474C293.548 374.491 249.938 374.499 201.51 374.516C177.296 374.516 151.872 374.516 125.52 374.524C118.932 374.524 112.286 374.524 105.581 374.524C102.233 374.524 98.8681 374.524 95.4865 374.524C93.7999 374.524 92.1049 374.557 90.3932 374.39C88.6899 374.173 87.02 373.739 85.4168 373.072C82.244 371.703 79.3968 369.441 77.3762 366.52C76.8251 365.819 76.4326 365.009 75.9734 364.249C75.606 363.431 75.1802 362.639 74.9214 361.779C74.2868 360.093 73.9528 358.298 73.8025 356.496C73.7524 355.586 73.7107 354.684 73.7274 353.791V352.439C73.7357 352.197 73.7023 352.022 73.7608 351.713C73.8276 351.429 74.028 351.195 74.2868 351.079C74.412 351.02 74.5623 350.995 74.6792 351.004H76.9503H79.5554C83.0289 351.004 86.5106 351.004 90.0091 351.004C201.769 351.029 302.958 351.045 376.218 351.062C412.839 351.087 442.48 351.112 462.97 351.129H463.454C463.63 351.154 463.797 351.229 463.922 351.354C464.047 351.479 464.139 351.646 464.164 351.821C464.189 352.005 464.164 352.155 464.173 352.322C464.173 352.973 464.173 353.608 464.173 354.234C464.173 355.494 464.173 356.713 464.173 357.889C464.198 360.26 463.788 362.48 463.029 364.383C462.277 366.294 461.233 367.88 460.106 369.157C458.971 370.434 457.777 371.427 456.599 372.112C454.27 373.556 452.199 374.015 450.83 374.182C450.145 374.315 449.619 374.274 449.268 374.307C448.918 374.324 448.742 374.324 448.742 374.324L448.734 374.315Z" fill="#263238"/>
<path d="M233.548 350.753L238.391 359.3H306.515L311.016 350.753H233.548Z" fill="#9F9AAE"/>
<path d="M436.777 126.132H106.642V342.599H436.777V126.132Z" fill="white" fill-opacity="0.2"/>
<path d="M436.777 126.132H106.642V147.833H436.777V126.132Z" fill="#E0E0E0" fill-opacity="0.2"/>
<path d="M120.168 136.081C120.168 137.901 118.74 139.387 116.987 139.387C115.233 139.387 113.806 137.909 113.806 136.081C113.806 134.253 115.233 132.776 116.987 132.776C118.74 132.776 120.168 134.253 120.168 136.081Z" fill="white" fill-opacity="0.2"/>
<path d="M129.461 136.081C129.461 137.901 128.033 139.387 126.28 139.387C124.526 139.387 123.099 137.909 123.099 136.081C123.099 134.253 124.526 132.776 126.28 132.776C128.033 132.776 129.461 134.253 129.461 136.081Z" fill="white" fill-opacity="0.2"/>
<path d="M138.746 136.081C138.746 137.901 137.318 139.387 135.565 139.387C133.812 139.387 132.384 137.909 132.384 136.081C132.384 134.253 133.812 132.776 135.565 132.776C137.318 132.776 138.746 134.253 138.746 136.081Z" fill="white" fill-opacity="0.2"/>
<path d="M169.369 218.08C177.83 209.621 177.83 195.907 169.369 187.449C160.907 178.99 147.188 178.99 138.726 187.449C130.265 195.907 130.265 209.621 138.726 218.079C147.188 226.538 160.907 226.538 169.369 218.08Z" fill="#FF725E"/>
<path d="M201.961 235.897H130.463C128.309 235.897 126.563 237.642 126.563 239.795V256.713C126.563 258.866 128.309 260.611 130.463 260.611H201.961C204.114 260.611 205.86 258.866 205.86 256.713V239.795C205.86 237.642 204.114 235.897 201.961 235.897Z" fill="#E0E0E0"/>
<path d="M201.961 268.615H130.463C128.309 268.615 126.563 270.36 126.563 272.513V289.431C126.563 291.584 128.309 293.329 130.463 293.329H201.961C204.114 293.329 205.86 291.584 205.86 289.431V272.513C205.86 270.36 204.114 268.615 201.961 268.615Z" fill="#E0E0E0"/>
<path d="M201.961 300.591H130.463C128.309 300.591 126.563 302.336 126.563 304.489V321.407C126.563 323.56 128.309 325.305 130.463 325.305H201.961C204.114 325.305 205.86 323.56 205.86 321.407V304.489C205.86 302.336 204.114 300.591 201.961 300.591Z" fill="#E0E0E0"/>
<path d="M411.328 179.884H214.828V342.599H411.328V179.884Z" fill="#E0E0E0"/>
<path d="M158.901 106.042H388.04C391.739 106.042 394.737 109.039 394.737 112.736V332.516C394.737 336.214 391.739 339.21 388.04 339.21H158.901C155.203 339.21 152.205 336.214 152.205 332.516V112.736C152.205 109.039 155.203 106.042 158.901 106.042Z" fill="#3E3E3E"/>
<path d="M163.285 55.1203L163.285 325.129C163.285 328.642 166.134 331.49 169.648 331.49H377.887C381.401 331.49 384.25 328.642 384.25 325.129V55.1203C384.25 51.6077 381.401 48.7603 377.887 48.7603H169.648C166.134 48.7603 163.285 51.6077 163.285 55.1203Z" fill="white"/>
<path d="M169.522 48.7603H378.438C381.645 48.7603 384.25 51.3644 384.25 54.5694V73.8081H163.285V54.9951C163.285 51.5563 166.082 48.7603 169.522 48.7603Z" fill="#8E77DE"/>
<path d="M384.25 55.1203C384.25 55.1203 384.233 54.9033 384.208 54.4776C384.141 54.052 384.058 53.4093 383.716 52.6331C383.373 51.8652 382.789 50.9471 381.804 50.1625C380.827 49.3863 379.407 48.7937 377.754 48.8104C371.116 48.8187 361.322 48.8354 348.714 48.8521C323.49 48.8688 287.002 48.8938 241.914 48.9189C230.642 48.9189 218.827 48.9272 206.528 48.9356C200.375 48.9356 194.096 48.9356 187.7 48.9356C184.502 48.9356 181.271 48.9356 178.014 48.9356C176.386 48.9356 174.75 48.9356 173.105 48.9356C172.286 48.9356 171.46 48.9356 170.633 48.9356C169.798 48.9356 168.988 48.9105 168.212 49.1108C166.642 49.4781 165.231 50.4964 164.388 51.8819C163.962 52.5746 163.67 53.3509 163.544 54.1521C163.419 54.945 163.478 55.7964 163.461 56.6394C163.461 60.0114 163.461 63.4084 163.461 66.8305C163.461 73.6746 163.461 80.6356 163.461 87.6884C163.461 101.802 163.461 116.334 163.469 131.232C163.469 190.826 163.478 256.346 163.486 325.113C163.486 326.156 163.753 327.183 164.246 328.101C164.763 328.994 165.473 329.795 166.358 330.329C167.235 330.88 168.245 331.214 169.281 331.256C170.324 331.289 171.41 331.264 172.478 331.273C176.754 331.273 181.012 331.273 185.262 331.273C193.753 331.273 202.195 331.273 210.578 331.273C227.336 331.273 243.843 331.273 260.066 331.273C292.513 331.273 323.807 331.281 353.615 331.289C361.072 331.289 368.428 331.289 375.692 331.289C376.593 331.281 377.52 331.314 378.397 331.264C379.274 331.197 380.125 330.939 380.885 330.505C382.413 329.645 383.54 328.126 383.899 326.423C384.1 325.58 384.025 324.687 384.041 323.794C384.041 322.901 384.041 322.008 384.041 321.123C384.041 319.345 384.041 317.576 384.041 315.806C384.041 301.693 384.041 287.988 384.05 274.733C384.058 248.233 384.066 223.544 384.075 201.009C384.1 155.938 384.125 119.463 384.142 94.257C384.158 81.6538 384.175 71.8717 384.183 65.2363C384.192 61.9227 384.2 59.3937 384.208 57.691C384.208 55.9884 384.233 55.1203 384.233 55.1203C384.233 55.1203 384.25 55.9884 384.258 57.691C384.258 59.3937 384.267 61.9227 384.283 65.2363C384.292 71.8717 384.309 81.6622 384.325 94.257C384.342 119.463 384.367 155.938 384.392 201.009C384.392 223.544 384.409 248.233 384.417 274.733C384.417 287.988 384.417 301.693 384.425 315.806C384.425 317.568 384.425 319.345 384.425 321.123C384.425 322.008 384.425 322.901 384.425 323.794C384.409 324.67 384.492 325.589 384.275 326.507C383.891 328.318 382.697 329.929 381.077 330.847C380.267 331.306 379.357 331.581 378.43 331.656C377.495 331.715 376.61 331.673 375.7 331.682C368.436 331.682 361.08 331.682 353.624 331.682C323.807 331.682 292.513 331.682 260.074 331.698C243.851 331.698 227.344 331.698 210.586 331.698C202.212 331.698 193.77 331.698 185.27 331.698C181.02 331.698 176.762 331.698 172.487 331.698C171.41 331.698 170.358 331.715 169.264 331.682C168.153 331.631 167.068 331.281 166.133 330.688C165.181 330.112 164.421 329.261 163.87 328.301C163.336 327.325 163.06 326.215 163.052 325.104C163.052 256.338 163.06 190.818 163.068 131.224C163.068 116.325 163.068 101.794 163.077 87.68C163.077 80.6189 163.077 73.6662 163.077 66.8221C163.077 63.4 163.077 60.003 163.077 56.631C163.094 55.788 163.035 54.9534 163.169 54.0854C163.302 53.234 163.611 52.4077 164.062 51.6816C164.964 50.2126 166.45 49.1359 168.112 48.7519C168.947 48.5433 169.807 48.5683 170.617 48.5683C171.443 48.5683 172.261 48.5683 173.088 48.5683C174.733 48.5683 176.369 48.5683 177.998 48.5683C181.254 48.5683 184.485 48.5683 187.683 48.5683C194.079 48.5683 200.358 48.5683 206.512 48.5683C218.819 48.5683 230.625 48.5767 241.897 48.585C286.985 48.6184 323.473 48.6351 348.697 48.6518C361.305 48.6685 371.091 48.6852 377.737 48.6935C379.416 48.6768 380.852 49.2861 381.829 50.079C382.822 50.872 383.407 51.8068 383.741 52.583C384.075 53.3759 384.15 54.0186 384.208 54.4443C384.225 54.8783 384.233 55.0953 384.233 55.0953L384.25 55.1203Z" fill="#263238"/>
<path d="M224.48 153.751H203.806C202.026 153.751 200.583 155.193 200.583 156.973V177.639C200.583 179.418 202.026 180.86 203.806 180.86H224.48C226.26 180.86 227.703 179.418 227.703 177.639V156.973C227.703 155.193 226.26 153.751 224.48 153.751Z" fill="#8E77DE"/>
<path d="M213.751 173.766L206.152 167.898L208.206 165.244L213.3 169.184L220.547 160.845L223.069 163.049L213.751 173.766Z" fill="white"/>
<path d="M338.803 121.809H242.173V128.269H338.803V121.809Z" fill="#E0E0E0"/>
<path d="M224.48 111.484H203.806C202.026 111.484 200.583 112.927 200.583 114.706V135.372C200.583 137.151 202.026 138.594 203.806 138.594H224.48C226.26 138.594 227.703 137.151 227.703 135.372V114.706C227.703 112.927 226.26 111.484 224.48 111.484Z" fill="#E0E0E0"/>
<path d="M319.532 165.52H242.173V171.98H319.532V165.52Z" fill="#8E77DE"/>
<path d="M224.48 197.887H203.806C202.026 197.887 200.583 199.33 200.583 201.109V221.775C200.583 223.554 202.026 224.997 203.806 224.997H224.48C226.26 224.997 227.703 223.554 227.703 221.775V201.109C227.703 199.33 226.26 197.887 224.48 197.887Z" fill="#E0E0E0"/>
<path d="M327.731 209.23H242.173V215.69H327.731V209.23Z" fill="#E0E0E0"/>
<path d="M224.48 241.589H203.806C202.026 241.589 200.583 243.032 200.583 244.811V265.477C200.583 267.256 202.026 268.699 203.806 268.699H224.48C226.26 268.699 227.703 267.256 227.703 265.477V244.811C227.703 243.032 226.26 241.589 224.48 241.589Z" fill="#E0E0E0"/>
<path d="M224.48 282.896H203.806C202.026 282.896 200.583 284.339 200.583 286.118V306.784C200.583 308.563 202.026 310.006 203.806 310.006H224.48C226.26 310.006 227.703 308.563 227.703 306.784V286.118C227.703 284.339 226.26 282.896 224.48 282.896Z" fill="#E0E0E0"/>
<path d="M294.3 252.941H242.173V259.401H294.3V252.941Z" fill="#E0E0E0"/>
<path d="M338.803 293.772H242.173V300.232H338.803V293.772Z" fill="#E0E0E0"/>
<path d="M180.018 60.6123C180.018 62.8075 178.24 64.5853 176.044 64.5853C173.848 64.5853 172.069 62.8075 172.069 60.6123C172.069 58.4172 173.848 56.6394 176.044 56.6394C178.24 56.6394 180.018 58.4172 180.018 60.6123Z" fill="white"/>
<path d="M190.755 60.6123C190.755 62.8075 188.977 64.5853 186.781 64.5853C184.585 64.5853 182.807 62.8075 182.807 60.6123C182.807 58.4172 184.585 56.6394 186.781 56.6394C188.977 56.6394 190.755 58.4172 190.755 60.6123Z" fill="white"/>
<path d="M201.485 60.6123C201.485 62.8075 199.707 64.5853 197.511 64.5853C195.315 64.5853 193.536 62.8075 193.536 60.6123C193.536 58.4172 195.315 56.6394 197.511 56.6394C199.707 56.6394 201.485 58.4172 201.485 60.6123Z" fill="white"/>
<path d="M428.528 221.875H286.467C284.687 221.875 283.244 223.317 283.244 225.097V264.342C283.244 266.121 284.687 267.564 286.467 267.564H428.528C430.308 267.564 431.751 266.121 431.751 264.342V225.097C431.751 223.317 430.308 221.875 428.528 221.875Z" fill="black"/>
<path d="M422.934 213.963H280.873C279.093 213.963 277.65 215.405 277.65 217.184V256.43C277.65 258.209 279.093 259.651 280.873 259.651H422.934C424.714 259.651 426.157 258.209 426.157 256.43V217.184C426.157 215.405 424.714 213.963 422.934 213.963Z" fill="white"/>
<path d="M422.942 259.651C422.942 259.651 423.284 259.668 423.91 259.476C424.503 259.284 425.455 258.75 425.914 257.556C426.165 256.972 426.106 256.246 426.115 255.461C426.115 254.677 426.115 253.817 426.106 252.882C426.106 251.021 426.09 248.868 426.09 246.447C426.081 241.606 426.065 235.68 426.056 228.803C426.056 225.364 426.048 221.683 426.04 217.785C426.04 217.293 426.056 216.817 425.923 216.358C425.797 215.899 425.564 215.473 425.238 215.123C424.595 214.388 423.61 214.038 422.599 214.113C420.537 214.113 418.425 214.113 416.262 214.113C381.611 214.129 333.751 214.154 280.898 214.18C280.121 214.18 279.362 214.48 278.811 215.023C278.251 215.557 277.917 216.3 277.892 217.067C277.892 218.703 277.892 220.339 277.892 221.967C277.892 225.23 277.892 228.469 277.892 231.69C277.892 238.126 277.892 244.469 277.892 250.695C277.892 252.256 277.892 253.8 277.892 255.344C277.909 256.129 277.809 256.889 278.109 257.548C278.376 258.216 278.886 258.775 279.52 259.109C279.838 259.276 280.18 259.384 280.539 259.426C280.881 259.459 281.274 259.443 281.658 259.451C282.418 259.451 283.177 259.451 283.937 259.451C285.448 259.451 286.96 259.451 288.454 259.451C294.449 259.451 300.319 259.451 306.047 259.451C328.95 259.468 349.582 259.484 366.907 259.501C384.225 259.526 398.244 259.551 407.938 259.568C412.772 259.584 416.529 259.601 419.093 259.61C420.362 259.618 421.33 259.626 421.99 259.635C422.641 259.635 422.975 259.66 422.975 259.66C422.975 259.66 422.641 259.676 421.99 259.685C421.33 259.685 420.362 259.693 419.093 259.71C416.538 259.718 412.772 259.735 407.938 259.751C398.244 259.768 384.225 259.793 366.907 259.818C349.582 259.835 328.958 259.843 306.047 259.868C300.319 259.868 294.449 259.868 288.454 259.868C286.951 259.868 285.448 259.868 283.937 259.868C283.177 259.868 282.418 259.868 281.658 259.868C281.274 259.868 280.906 259.885 280.489 259.843C280.088 259.801 279.687 259.676 279.328 259.484C278.602 259.109 278.017 258.474 277.717 257.707C277.566 257.331 277.483 256.922 277.475 256.505V255.344C277.475 253.8 277.475 252.248 277.475 250.695C277.475 244.469 277.475 238.126 277.475 231.69C277.475 228.477 277.475 225.23 277.475 221.967C277.475 220.331 277.475 218.695 277.475 217.051C277.5 216.174 277.884 215.315 278.527 214.705C279.161 214.096 280.038 213.737 280.915 213.746C333.776 213.771 381.628 213.796 416.279 213.812C418.441 213.812 420.554 213.812 422.616 213.812C423.66 213.737 424.779 214.129 425.463 214.931C425.814 215.315 426.073 215.782 426.206 216.283C426.348 216.784 426.332 217.301 426.332 217.785C426.332 221.683 426.323 225.364 426.315 228.803C426.298 235.68 426.29 241.606 426.282 246.447C426.282 248.868 426.265 251.021 426.265 252.882C426.265 253.817 426.265 254.677 426.257 255.461C426.248 256.238 426.298 256.98 426.031 257.59C425.547 258.817 424.57 259.342 423.96 259.526C423.326 259.701 422.984 259.66 422.984 259.66L422.942 259.651Z" fill="#263238"/>
<path d="M350.458 227.325L348.362 231.574C348.128 232.049 347.669 232.383 347.143 232.458L342.459 233.143C341.131 233.335 340.605 234.962 341.566 235.905L344.956 239.211C345.34 239.586 345.515 240.12 345.423 240.646L344.622 245.312C344.396 246.631 345.782 247.641 346.968 247.015L351.159 244.811C351.627 244.561 352.195 244.561 352.662 244.811L356.854 247.015C358.039 247.641 359.425 246.631 359.2 245.312L358.398 240.646C358.307 240.12 358.482 239.586 358.866 239.211L362.256 235.905C363.216 234.971 362.69 233.343 361.363 233.143L356.678 232.458C356.152 232.383 355.693 232.049 355.459 231.574L353.364 227.325C352.771 226.123 351.051 226.123 350.458 227.325Z" fill="#FFB800"/>
<path d="M377.444 227.325L375.349 231.574C375.115 232.049 374.656 232.383 374.129 232.458L369.445 233.143C368.118 233.335 367.592 234.962 368.552 235.905L371.942 239.211C372.326 239.586 372.501 240.12 372.409 240.646L371.608 245.312C371.382 246.631 372.768 247.641 373.954 247.015L378.146 244.811C378.613 244.561 379.181 244.561 379.649 244.811L383.84 247.015C385.026 247.641 386.412 246.631 386.186 245.312L385.385 240.646C385.293 240.12 385.468 239.586 385.852 239.211L389.242 235.905C390.203 234.971 389.676 233.343 388.349 233.143L383.665 232.458C383.139 232.383 382.68 232.049 382.446 231.574L380.35 227.325C379.757 226.123 378.037 226.123 377.444 227.325Z" fill="#FFB800"/>
<path d="M404.438 227.325L402.343 231.574C402.109 232.049 401.65 232.383 401.124 232.458L396.439 233.143C395.112 233.335 394.586 234.962 395.546 235.905L398.936 239.211C399.32 239.586 399.495 240.12 399.404 240.646L398.602 245.312C398.377 246.631 399.763 247.641 400.948 247.015L405.14 244.811C405.607 244.561 406.175 244.561 406.643 244.811L410.834 247.015C412.02 247.641 413.406 246.631 413.18 245.312L412.379 240.646C412.287 240.12 412.462 239.586 412.847 239.211L416.236 235.905C417.197 234.971 416.671 233.343 415.343 233.143L410.659 232.458C410.133 232.383 409.674 232.049 409.44 231.574L407.344 227.325C406.751 226.123 405.031 226.123 404.438 227.325Z" fill="#E0E0E0"/>
<path d="M323.464 227.325L321.368 231.574C321.134 232.049 320.675 232.383 320.149 232.458L315.465 233.143C314.137 233.335 313.611 234.962 314.571 235.905L317.961 239.211C318.345 239.586 318.521 240.12 318.429 240.646L317.627 245.312C317.402 246.631 318.788 247.641 319.974 247.015L324.165 244.811C324.633 244.561 325.201 244.561 325.668 244.811L329.86 247.015C331.045 247.641 332.431 246.631 332.206 245.312L331.404 240.646C331.312 240.12 331.488 239.586 331.872 239.211L335.262 235.905C336.222 234.971 335.696 233.343 334.368 233.143L329.684 232.458C329.158 232.383 328.699 232.049 328.465 231.574L326.369 227.325C325.777 226.123 324.057 226.123 323.464 227.325Z" fill="#FFB800"/>
<path d="M296.47 227.325L294.374 231.574C294.14 232.049 293.681 232.383 293.155 232.458L288.471 233.143C287.143 233.335 286.617 234.962 287.577 235.905L290.967 239.211C291.351 239.586 291.527 240.12 291.435 240.646L290.633 245.312C290.408 246.631 291.794 247.641 292.98 247.015L297.171 244.811C297.639 244.561 298.206 244.561 298.674 244.811L302.865 247.015C304.051 247.641 305.437 246.631 305.212 245.312L304.41 240.646C304.318 240.12 304.494 239.586 304.878 239.211L308.268 235.905C309.228 234.971 308.702 233.343 307.374 233.143L302.69 232.458C302.164 232.383 301.705 232.049 301.471 231.574L299.375 227.325C298.783 226.123 297.063 226.123 296.47 227.325Z" fill="#FFB800"/>
<path d="M112.494 209.539H15.5134C7.05524 209.539 0.200195 216.391 0.200195 224.846V261.204C0.200195 269.659 7.05524 276.511 15.5134 276.511H71.506C74.0443 281.995 78.7952 286.402 84.164 289.306C88.5559 291.677 93.3403 293.179 98.2165 294.314C100.129 294.757 101.565 292.586 100.362 291.026C97.106 286.794 94.8683 281.761 93.8496 276.511H112.486C120.944 276.511 127.799 269.659 127.799 261.204V224.846C127.799 216.391 120.944 209.539 112.486 209.539H112.494Z" fill="white" fill-opacity="0.6"/>
<path d="M112.494 209.539C112.494 209.539 112.653 209.539 112.978 209.547C113.296 209.572 113.78 209.547 114.398 209.639C115.642 209.773 117.512 210.156 119.683 211.267C121.821 212.393 124.267 214.363 126.004 217.468C126.847 219.02 127.498 220.84 127.757 222.852C127.891 223.853 127.907 224.905 127.907 225.973C127.907 227.041 127.907 228.143 127.907 229.27C127.907 238.309 127.966 249.26 127.924 261.821C127.891 263.407 127.565 265.01 126.997 266.537C126.43 268.064 125.645 269.559 124.576 270.861C122.472 273.465 119.449 275.526 115.959 276.294C114.222 276.703 112.402 276.72 110.615 276.703C108.812 276.703 106.992 276.703 105.146 276.703C101.464 276.703 97.6902 276.703 93.841 276.703L94.0247 276.478C94.8179 280.526 96.3542 284.557 98.6504 288.238C99.2265 289.156 99.8527 290.049 100.512 290.926C100.871 291.401 101.055 292.036 100.947 292.645C100.838 293.246 100.504 293.805 100.003 294.156C99.5104 294.523 98.8508 294.648 98.258 294.54C97.6902 294.423 97.1558 294.281 96.6047 294.147C95.5109 293.872 94.4088 293.571 93.315 293.246C88.9481 291.935 84.5729 290.149 80.6736 287.42C76.7994 284.707 73.3594 281.077 71.2887 276.611L71.4807 276.736C58.5889 276.736 45.2295 276.736 31.5528 276.736C28.1461 276.736 24.7562 276.736 21.3913 276.736C19.7047 276.736 18.0264 276.736 16.3565 276.736C15.5215 276.753 14.6699 276.703 13.8349 276.645L12.5824 276.453C12.165 276.394 11.7642 276.252 11.3551 276.161C9.73522 275.71 8.19054 275 6.80451 274.074C5.42682 273.122 4.20777 271.962 3.19747 270.66C2.17881 269.358 1.37725 267.881 0.851222 266.328C0.325196 264.776 -0.00878906 263.148 -0.00878906 261.521C-0.00878906 248.667 -0.000439437 236.264 0.00791019 224.446C0.00791019 222.943 0.333546 221.474 0.751027 220.064C1.20191 218.653 1.88658 217.343 2.67979 216.124C3.51475 214.931 4.50001 213.854 5.59381 212.928C6.72101 212.034 7.92336 211.25 9.2259 210.691C10.5284 210.148 11.8811 209.706 13.2671 209.539C14.6532 209.322 16.0392 209.364 17.3918 209.364C20.1055 209.364 22.7773 209.364 25.4075 209.364C35.9113 209.372 45.7054 209.38 54.6395 209.389C72.5077 209.414 86.9609 209.439 96.9638 209.455C101.957 209.472 105.831 209.489 108.47 209.497C109.78 209.505 110.782 209.514 111.459 209.522C112.135 209.522 112.477 209.547 112.477 209.547C112.477 209.547 112.135 209.564 111.459 209.572C110.774 209.572 109.772 209.581 108.47 209.597C105.831 209.606 101.957 209.622 96.9638 209.639C86.9609 209.656 72.5077 209.681 54.6395 209.706C45.7054 209.706 35.9197 209.722 25.4075 209.731C22.7773 209.731 20.1055 209.731 17.3918 209.731C16.0308 209.731 14.6699 209.697 13.3256 209.906C11.9729 210.065 10.6537 210.499 9.38454 211.033C8.1154 211.584 6.94645 212.352 5.8443 213.22C4.77555 214.129 3.82369 215.181 3.00543 216.341C2.22891 217.535 1.56929 218.812 1.12676 220.181C0.717628 221.558 0.408692 222.985 0.408692 224.446C0.408692 236.256 0.408692 248.651 0.408692 261.496C0.408692 263.082 0.742677 264.659 1.252 266.17C1.76133 267.681 2.53785 269.116 3.53145 270.385C4.51671 271.662 5.70236 272.789 7.0383 273.707C8.39093 274.608 9.89387 275.293 11.4636 275.735C11.8644 275.827 12.2485 275.96 12.6576 276.019L13.8766 276.202C14.6949 276.252 15.5132 276.302 16.3565 276.294C18.0264 276.294 19.7047 276.294 21.3913 276.294C24.7562 276.294 28.1461 276.294 31.5528 276.294C45.2378 276.294 58.5889 276.294 71.4807 276.294H71.6143L71.6727 276.419C73.7101 280.801 77.0917 284.382 80.9158 287.061C84.765 289.757 89.0984 291.535 93.4319 292.837C94.5173 293.162 95.6111 293.463 96.6966 293.73C97.2393 293.864 97.7987 294.005 98.3248 294.114C98.8257 294.206 99.3601 294.114 99.7609 293.805C100.178 293.513 100.454 293.054 100.546 292.561C100.629 292.069 100.487 291.552 100.187 291.151C99.5187 290.266 98.8842 289.365 98.3081 288.43C95.9869 284.707 94.4338 280.634 93.6406 276.536L93.5989 276.311H93.8326C97.6818 276.311 101.448 276.311 105.138 276.311C106.983 276.311 108.804 276.311 110.607 276.311C112.411 276.328 114.172 276.311 115.876 275.919C119.282 275.184 122.246 273.173 124.309 270.619C125.361 269.35 126.129 267.889 126.688 266.395C127.248 264.901 127.565 263.332 127.607 261.78C127.632 249.235 127.657 238.276 127.682 229.245C127.657 226.991 127.782 224.838 127.548 222.852C127.298 220.865 126.672 219.062 125.845 217.526C124.142 214.455 121.737 212.485 119.616 211.35C117.462 210.232 115.617 209.823 114.381 209.672C113.763 209.572 113.279 209.589 112.962 209.556C112.644 209.531 112.477 209.514 112.477 209.514L112.494 209.539Z" fill="#263238"/>
<path d="M28.5695 247.955C32.0878 244.438 32.0878 238.736 28.5695 235.219C25.0512 231.702 19.3468 231.702 15.8285 235.219C12.3102 238.736 12.3102 244.438 15.8285 247.955C19.3468 251.472 25.0512 251.472 28.5695 247.955Z" fill="#713FFF"/>
<path d="M108.728 232.65H37.4639V236.84H108.728V232.65Z" fill="#E0E0E0"/>
<path d="M108.728 242.649H37.4639V246.839H108.728V242.649Z" fill="#E0E0E0"/>
<path d="M66.22 252.657H37.4639V256.847H66.22V252.657Z" fill="#E0E0E0"/>
<path d="M462.295 361.086L463.08 375.442C463.08 375.442 448.752 381.059 448.635 383.73L476.531 383.204L476.222 360.794L462.295 361.094V361.086Z" fill="#263238"/>
<path d="M476.539 383.196L476.505 381.026L449.72 382.286C449.72 382.286 448.492 382.854 448.643 383.722L476.539 383.196Z" fill="#455A64"/>
<path d="M462.628 375.3C462.628 375.434 463.321 375.484 463.997 375.909C464.69 376.318 465.041 376.903 465.166 376.844C465.291 376.819 465.074 376.001 464.239 375.509C463.413 375 462.595 375.183 462.628 375.3Z" fill="white"/>
<path d="M459.722 376.569C459.697 376.702 460.29 376.919 460.758 377.487C461.25 378.038 461.375 378.664 461.509 378.656C461.634 378.672 461.718 377.879 461.117 377.178C460.524 376.477 459.722 376.435 459.714 376.569H459.722Z" fill="white"/>
<path d="M458.127 380.1C458.253 380.125 458.428 379.44 458.06 378.706C457.701 377.963 457.05 377.679 457 377.796C456.925 377.913 457.342 378.305 457.635 378.914C457.935 379.515 457.985 380.091 458.127 380.1Z" fill="white"/>
<path d="M515.247 359.333L519.931 376.085L527.463 388.262C528.006 389.139 527.688 390.291 526.778 390.775C526.269 391.042 525.659 391.05 525.15 390.791C521.869 389.13 509.828 382.962 509.553 381.71C509.236 380.267 503.433 364.375 503.433 364.375L515.247 359.333Z" fill="#263238"/>
<path d="M526.779 390.775L509.211 380.592L509.428 381.293C509.612 381.902 510.004 382.428 510.547 382.77C511.983 383.689 515.999 386.142 525.109 390.8C525.635 391.067 526.269 391.059 526.787 390.766L526.779 390.775Z" fill="#455A64"/>
<path d="M520.758 384.665C520.866 384.682 520.975 383.697 521.827 382.929C522.653 382.136 523.638 382.086 523.63 381.978C523.63 381.936 523.38 381.869 522.979 381.927C522.578 381.986 522.027 382.211 521.568 382.645C521.108 383.079 520.85 383.605 520.758 384.006C520.666 384.406 520.716 384.657 520.758 384.665Z" fill="white"/>
<path d="M522.62 386.526C522.72 386.576 523.088 385.867 523.873 385.366C524.649 384.84 525.442 384.774 525.434 384.665C525.459 384.565 524.549 384.456 523.664 385.049C522.771 385.633 522.52 386.51 522.62 386.535V386.526Z" fill="white"/>
<path d="M517.685 382.478C517.785 382.537 518.353 381.452 519.505 380.55C520.641 379.632 521.826 379.332 521.801 379.223C521.801 379.123 520.49 379.273 519.271 380.25C518.036 381.218 517.593 382.453 517.693 382.478H517.685Z" fill="white"/>
<path d="M515.831 377.504C515.907 377.587 516.708 376.928 517.894 376.519C519.071 376.093 520.115 376.11 520.115 375.993C520.14 375.901 519.029 375.701 517.768 376.152C516.499 376.594 515.756 377.437 515.831 377.495V377.504Z" fill="white"/>
<path d="M514.313 373.598C514.396 373.681 515.148 372.838 516.433 372.513C517.711 372.154 518.78 372.513 518.805 372.396C518.821 372.354 518.579 372.195 518.128 372.095C517.677 371.987 517.026 371.962 516.333 372.145C515.649 372.329 515.089 372.679 514.755 372.997C514.413 373.314 514.279 373.564 514.313 373.598Z" fill="white"/>
<path d="M511.757 151.639C511.849 149.97 510.304 148.392 508.634 148.442C510.246 147.065 510.145 144.169 508.442 142.9C506.739 141.64 503.933 142.383 503.082 144.328C502.314 141.173 498.807 138.969 495.634 139.628C492.453 140.296 490.131 143.718 490.691 146.915L490.724 162.373C491.067 163.775 492.194 164.96 493.58 165.361C494.966 165.761 496.552 165.361 497.588 164.359C498.757 165.469 500.694 165.661 502.055 164.802C503.416 163.942 504.084 162.122 503.591 160.587C504.167 161.722 505.795 162.022 506.906 161.413C508.025 160.804 508.634 159.518 508.759 158.25C508.885 156.981 508.601 155.721 508.309 154.477C509.97 154.702 511.665 153.3 511.749 151.622L511.757 151.639Z" fill="#263238"/>
<path d="M497.679 155.17C495.65 150.028 491.918 146.247 486.674 144.47C483.719 143.468 482.291 143.693 479.961 143.585C477.632 143.476 475.336 144.002 473.474 145.404C471.269 147.074 469.215 149.068 468.097 151.597C466.944 154.193 465.775 156.806 465.116 159.56C464.456 162.323 464.314 165.269 465.208 167.965L471.695 171.354C475.444 172.697 479.252 174.05 483.226 174.367C487.2 174.684 491.425 173.849 494.44 171.245C498.631 167.631 499.717 160.303 497.688 155.161L497.679 155.17Z" fill="#263238"/>
<path d="M491.584 153.175L483.593 146.606L481.113 146.122C475.728 144.419 470.117 149.16 468.681 153.5C467.094 158.325 465.341 164.276 464.965 168.09C464.214 175.752 470.15 178.314 470.15 178.314L468.664 185.459L474.409 191.711L482.508 185.693L493.22 156.413C493.596 155.078 492.886 153.676 491.584 153.183V153.175Z" fill="#E2A490"/>
<path d="M476.27 169.851C476.346 169.459 476.237 169.058 476.045 168.741C475.653 168.107 474.884 167.815 474.183 168.023C473.482 168.232 472.897 168.941 472.764 169.734C472.947 170.277 473.34 170.736 473.874 170.961C473.958 170.995 474.041 171.028 474.125 171.053C474.542 171.178 475.01 171.17 475.419 170.97C475.836 170.769 476.179 170.344 476.27 169.859V169.851Z" fill="#6F4439"/>
<path d="M470.067 160.862C469.917 161.354 470.217 161.889 470.727 162.056C471.236 162.223 471.779 161.955 471.921 161.455C472.071 160.962 471.77 160.428 471.261 160.261C470.743 160.094 470.209 160.361 470.067 160.862Z" fill="#263238"/>
<path d="M469.541 156.438C469.624 156.589 470.476 156.246 471.495 156.513C472.513 156.764 473.123 157.482 473.265 157.39C473.332 157.348 473.265 157.098 473.006 156.772C472.747 156.455 472.263 156.079 471.628 155.921C470.994 155.762 470.401 155.854 470.034 156.013C469.658 156.171 469.491 156.363 469.541 156.438Z" fill="#263238"/>
<path d="M473.457 166.32C473.473 166.262 472.872 165.987 471.887 165.594C471.636 165.503 471.403 165.386 471.403 165.194C471.394 164.993 471.57 164.743 471.778 164.468C472.187 163.9 472.613 163.316 473.064 162.69C474.868 160.152 476.237 158.049 476.137 157.974C476.037 157.899 474.492 159.902 472.688 162.431C472.254 163.057 471.837 163.658 471.436 164.225C471.261 164.493 471.002 164.785 471.035 165.21C471.052 165.419 471.211 165.611 471.361 165.703C471.511 165.795 471.661 165.836 471.787 165.878C472.805 166.204 473.44 166.371 473.457 166.32Z" fill="#263238"/>
<path d="M470.142 178.298C470.142 178.298 475.018 179.909 480.696 178.239C480.696 178.239 476.897 183.097 469.699 180.484L470.142 178.298Z" fill="#6F4439"/>
<path d="M476.262 167.806C476.104 167.756 475.812 168.858 474.659 169.392C473.515 169.935 472.371 169.501 472.321 169.651C472.288 169.718 472.53 169.935 473.023 170.077C473.507 170.218 474.259 170.252 474.96 169.918C475.661 169.592 476.079 169.017 476.229 168.574C476.388 168.124 476.338 167.823 476.262 167.806Z" fill="#263238"/>
<path d="M471.002 153.058C471.11 153.35 471.929 153.392 472.822 153.701C473.724 153.984 474.4 154.452 474.659 154.277C474.776 154.193 474.743 153.926 474.492 153.592C474.25 153.267 473.766 152.891 473.156 152.691C472.538 152.49 471.937 152.499 471.545 152.616C471.144 152.733 470.96 152.924 471.002 153.066V153.058Z" fill="#263238"/>
<path d="M480.772 163.608C480.638 164.109 480.112 164.409 479.586 164.276C479.06 164.151 478.743 163.641 478.876 163.141C479.01 162.64 479.536 162.339 480.062 162.473C480.588 162.598 480.905 163.107 480.772 163.608Z" fill="#263238"/>
<path d="M483.193 160.386C483.043 160.47 482.492 159.735 481.481 159.435C480.479 159.117 479.586 159.418 479.511 159.259C479.477 159.193 479.661 159.001 480.053 158.867C480.438 158.734 481.047 158.667 481.673 158.859C482.299 159.051 482.759 159.443 482.993 159.769C483.226 160.102 483.268 160.353 483.193 160.386Z" fill="#263238"/>
<path d="M483.61 156.989C483.343 157.156 482.642 156.689 481.707 156.397C480.788 156.08 479.936 156.029 479.828 155.737C479.786 155.595 479.978 155.403 480.387 155.295C480.796 155.178 481.414 155.178 482.049 155.387C482.683 155.595 483.176 155.971 483.435 156.305C483.694 156.639 483.736 156.906 483.61 156.989Z" fill="#263238"/>
<path d="M489.948 166.613L488.278 167.514C484.52 160.603 478.1 144.261 478.442 145.221C478.442 145.221 482.642 144.887 486.449 146.857C490.257 148.826 497.245 153.283 495.609 157.991C493.972 162.698 489.956 166.613 489.956 166.613H489.948Z" fill="#263238"/>
<path d="M488.077 168.157C488.219 167.606 489.196 166.479 489.755 166.538C491.258 166.688 493.838 167.489 492.903 171.162C491.626 176.186 486.841 173.866 486.866 173.724C486.891 173.607 487.576 170.043 488.077 168.157Z" fill="#E2A490"/>
<path d="M488.72 172.238C488.72 172.238 488.795 172.322 488.92 172.43C489.045 172.53 489.287 172.639 489.571 172.614C490.156 172.556 490.815 171.821 491.066 170.928C491.191 170.477 491.208 170.01 491.141 169.609C491.083 169.2 490.907 168.883 490.648 168.766C490.398 168.641 490.164 168.75 490.072 168.875C489.972 169 489.972 169.108 489.947 169.108C489.93 169.117 489.864 169 489.947 168.8C489.997 168.708 490.081 168.599 490.223 168.533C490.365 168.466 490.557 168.457 490.74 168.533C491.124 168.658 491.383 169.1 491.458 169.542C491.559 169.993 491.55 170.511 491.408 171.02C491.116 172.021 490.356 172.839 489.58 172.864C489.204 172.864 488.937 172.689 488.812 172.53C488.686 172.364 488.686 172.247 488.711 172.247L488.72 172.238Z" fill="#6F4439"/>
<path d="M497.662 166.93C497.662 166.93 497.737 166.613 497.888 166.045C498.038 165.478 498.222 164.651 498.364 163.608C498.648 161.546 498.614 158.575 497.587 155.545C496.56 152.515 494.79 150.137 493.312 148.659C492.577 147.917 491.918 147.366 491.458 147.007C490.991 146.648 490.732 146.456 490.74 146.439C490.74 146.439 490.816 146.473 490.949 146.548C491.083 146.631 491.283 146.748 491.517 146.923C492.001 147.257 492.686 147.783 493.446 148.517C494.974 149.97 496.802 152.365 497.846 155.453C498.89 158.533 498.89 161.555 498.556 163.633C498.389 164.676 498.172 165.511 497.988 166.07C497.904 166.354 497.813 166.563 497.762 166.713C497.704 166.855 497.671 166.93 497.662 166.93Z" fill="#455A64"/>
<path d="M452.993 236.824C452.567 237.258 443.716 257.514 444.159 268.24C444.61 278.965 451.08 316.307 451.08 316.307L461.426 374.073H476.447C476.447 374.073 476.447 337.14 475.102 327.032C473.758 316.925 472.188 311.349 471.737 303.929C471.287 296.501 471.161 280.885 470.71 281.502C470.26 282.12 505.353 372.012 505.353 372.012L520.115 371.035C520.115 371.035 514.763 340.178 513.644 334.327C512.525 328.476 508.042 310.531 504.677 301.45C501.312 292.369 500.134 269.734 495.484 259.993C490.833 250.253 489.881 240.847 489.881 240.847L452.984 236.815L452.993 236.824Z" fill="#3F97FF"/>
<path d="M503.424 33.6447L512.358 58.6508C513.36 61.4636 515.748 63.642 518.729 64.4683L545.239 71.855C552.745 73.95 554.59 83.3398 548.362 87.7467L526.36 103.313C523.889 105.066 522.486 107.878 522.611 110.841L523.764 137.158C524.089 144.611 515.347 149.085 508.96 144.728L486.432 129.346C483.903 127.618 480.654 127.176 477.749 128.177L451.949 137.058C444.643 139.57 437.387 132.943 439.675 125.84L447.749 100.767C448.659 97.9462 448.049 94.8663 446.129 92.5209L429.029 71.6881C424.186 65.7871 428.453 57.2152 436.243 57.1902L463.763 57.0817C466.861 57.065 469.733 55.596 471.445 53.1505L486.675 31.3995C490.991 25.2398 500.877 26.5669 503.407 33.6531L503.424 33.6447Z" fill="#FFB800"/>
<path d="M436.752 140.255L438.581 137.158C438.581 137.158 433.972 127.56 433.939 126.692C433.914 125.824 438.205 119.864 438.205 119.864L443.157 119.08C443.157 119.08 443.549 120.24 442.388 120.64C441.228 121.033 439.675 121.433 439.675 121.433L438.364 123.52C438.364 123.52 440.618 122.844 441.253 122.677C441.887 122.51 447.44 122.543 447.373 123.436C447.315 124.33 446.496 125.698 445.361 125.799C444.225 125.899 441.328 126.742 441.328 126.742C441.328 126.742 440.251 127.409 441.019 127.793C441.796 128.177 445.327 127.176 445.995 127.877C446.663 128.578 445.803 129.388 445.186 129.254C444.568 129.12 441.587 129.988 441.587 129.988C441.587 129.988 445.561 133.728 445.595 135.756C445.628 137.784 444.192 143.894 444.192 143.894L436.744 140.271L436.752 140.255Z" fill="#AE7461"/>
<path d="M514.696 154.552C514.696 154.552 513.711 148.15 514.062 146.773C514.412 145.396 520.14 140.63 519.715 140.655C519.289 140.672 515.765 138.26 515.857 137.55L515.94 136.841C515.94 136.841 515.423 135.071 516.091 134.654C516.759 134.228 518.846 135.355 518.846 135.355C518.846 135.355 520.917 134.329 522.378 134.662C523.839 134.996 524.691 138.485 524.691 138.485C524.691 138.485 526.461 137.617 526.119 136.24C525.776 134.863 525.359 133.152 525.359 133.152C525.359 133.152 526.152 132.526 526.862 133.644C527.563 134.763 528.256 139.328 528.006 140.772C527.755 142.208 522.019 145.254 521.76 146.264C521.501 147.274 522.979 153.751 522.979 153.751L514.688 154.552H514.696Z" fill="#AE7461"/>
<path d="M487.034 229.546L496.352 185.81L483.744 183.832C483.744 183.832 479.87 186.703 475.378 186.703C470.886 186.703 469.074 182.288 469.074 182.288L460.917 180.318C460.917 180.318 449.544 192.679 447.95 207.728C447.532 211.634 449.235 220.924 450.137 225.431C450.48 227.15 450.496 228.911 450.196 230.631L447.215 247.541C458.537 258.383 477.866 256.822 490.942 246.739C492.294 244.911 491.159 241.498 490.124 239.47L487.051 229.554L487.034 229.546Z" fill="#9B81E6"/>
<path d="M436.527 139.42C436.527 139.42 423.351 165.244 425.464 169.534C429.588 177.914 452.934 196.727 452.934 196.727L463.396 182.413L438.99 165.787L445.929 141.999L436.535 139.412L436.527 139.42Z" fill="#9B81E6"/>
<path d="M513.101 153.417L514.938 177.113L490.933 184.892L490.14 206.025L521.801 191.394C525.517 189.983 527.721 183.94 527.563 178.231C527.279 167.873 523.221 149.77 523.221 149.77L513.101 153.409V153.417Z" fill="#9B81E6"/>
<path d="M459.305 182.772C459.405 182.838 457.66 185.843 455.406 189.482C453.151 193.13 451.239 196.034 451.139 195.967C451.039 195.901 452.784 192.896 455.038 189.257C457.293 185.609 459.205 182.705 459.305 182.772Z" fill="#263238"/>
<path d="M515.79 181.703C515.682 181.753 515.189 180.91 514.696 179.834C514.204 178.757 513.886 177.839 513.995 177.78C514.103 177.73 514.596 178.565 515.089 179.65C515.59 180.735 515.899 181.653 515.79 181.703Z" fill="#263238"/>
<path d="M492.887 197.236C492.77 197.253 492.436 195.191 492.427 192.629C492.411 190.058 492.72 187.997 492.837 188.013C492.962 188.022 492.845 190.083 492.862 192.629C492.87 195.166 493.012 197.228 492.887 197.245V197.236Z" fill="#263238"/>
</g>
<defs>
<clipPath id="clip0_826_5787">
<rect width="568" height="391" fill="white"/>
</clipPath>
</defs>
</svg>
