<svg width="55" height="55" viewBox="0 0 55 55" fill="none" xmlns="http://www.w3.org/2000/svg">
<g clip-path="url(#clip0_826_4173)">
<path d="M34.5585 32.865C34.504 34.961 34.6659 37.0635 34.3485 39.1515C33.8003 42.7619 31.6539 44.7858 28.0119 45.1527C25.9553 45.3611 23.8954 45.2473 21.8388 45.2697C20.0403 45.2889 18.2401 45.2697 16.44 45.2633C15.7362 45.2617 15.0454 45.1447 14.3657 44.9749C11.5909 44.2826 9.97511 42.2971 9.60643 39.1964C9.38842 37.3615 9.46697 35.5219 9.47338 33.6855C9.4814 31.5478 9.34354 29.4053 9.592 27.274C10.0585 23.2598 12.2834 21.0628 16.3293 20.8224C20.2406 20.5901 24.1631 20.6269 28.0792 20.7984C29.4305 20.8577 30.7193 21.2439 31.8446 22.0403C33.3691 23.1188 34.0327 24.694 34.3277 26.4615C34.6835 28.5848 34.5056 30.7305 34.5585 32.865Z" fill="#5E5E5E"/>
<path d="M45.5437 22.9731C45.4988 24.6252 45.6335 26.6043 45.385 28.5753C44.917 32.2931 42.8235 34.3346 39.0837 34.6855C38.5868 34.732 38.085 34.7336 37.5897 34.7913C37.1842 34.8378 37.0848 34.6839 37.088 34.2945C37.104 32.4164 37.1008 30.5384 37.088 28.6603C37.08 27.3366 36.9149 26.0306 36.5558 24.755C35.4914 20.9796 32.8721 19.0134 29.1099 18.3916C28.0439 18.2154 26.9683 18.1464 25.8863 18.1513C24.2272 18.1593 22.5681 18.1513 20.909 18.1545C20.651 18.1545 20.4458 18.1657 20.4618 17.7907C20.5163 16.5087 20.6253 15.2412 21.0661 14.0217C21.9125 11.6837 23.6806 10.4818 26.0258 9.99788C26.8289 9.83122 27.6432 9.73828 28.4655 9.73828C31.4631 9.73828 34.4607 9.73828 37.4583 9.74309C38.2806 9.74469 39.0917 9.86007 39.8932 10.0347C42.9998 10.7126 44.6605 12.7429 45.244 15.7732C45.4443 16.8148 45.5373 17.8676 45.5389 18.9285C45.5405 20.1672 45.5389 21.4059 45.5389 22.9683L45.5437 22.9731Z" fill="#5E5E5E"/>
<path d="M38.6773 50.3464C39.9051 50.159 40.9343 49.784 41.9089 49.2984C47.0769 46.7217 49.9847 42.5232 50.791 36.8312C50.8872 36.155 50.8744 35.4771 50.9177 34.7993C50.9978 33.5429 51.7977 32.7609 52.9743 32.7561C54.2422 32.7513 54.9972 33.4692 54.9988 34.756C55.0037 39.666 53.5417 44.0888 50.3726 47.8578C46.4469 52.5274 41.3671 54.8526 35.2725 54.9968C34.4149 55.0177 33.708 54.7741 33.3025 54.0129C32.9001 53.2581 32.9738 52.4441 33.3986 51.7198C34.2867 50.2038 35.2148 48.7119 36.1397 47.22C36.7104 46.3002 37.7764 46.0486 38.6917 46.5935C39.6358 47.1543 39.9132 48.2168 39.3633 49.1798C39.1598 49.5356 38.9466 49.8865 38.6741 50.3448L38.6773 50.3464Z" fill="#5E5E5E"/>
<path d="M16.0619 4.63614C14.8885 4.84607 13.8787 5.18899 12.9153 5.6489C7.73121 8.11831 4.76729 12.219 3.95618 17.8902C3.87122 18.4863 3.84237 19.0824 3.84077 19.6817C3.84077 20.0054 3.80069 20.3195 3.67726 20.6192C3.31499 21.5054 2.31152 22.1255 1.494 21.9685C0.649224 21.8098 1.54564e-05 20.9365 1.54564e-05 19.9061C-0.0047935 15.8342 1.11249 12.0796 3.44964 8.75609C7.35611 3.19712 12.7325 0.251782 19.5516 0.00980902C20.2425 -0.014228 20.9446 -0.0382652 21.3357 0.690859C21.7814 1.51934 21.8471 2.40711 21.3662 3.20994C20.515 4.63133 19.5997 6.01427 18.6684 7.38598C18.1747 8.1135 17.4405 8.5013 16.5492 8.32823C15.7477 8.1728 15.4143 7.51578 15.1995 6.79787C15.0585 6.32675 15.1354 5.89248 15.4336 5.49667C15.6227 5.24508 15.8054 4.98869 16.0619 4.63614Z" fill="#5E5E5E"/>
</g>
<defs>
<clipPath id="clip0_826_4173">
<rect width="55" height="55" fill="white"/>
</clipPath>
</defs>
</svg>
