<svg width="52" height="52" viewBox="0 0 52 52" fill="none" xmlns="http://www.w3.org/2000/svg">
<g clip-path="url(#clip0_826_4178)">
<path d="M0 47.9326C0.217079 47.489 0.544055 47.1362 0.891382 46.7889C7.06593 40.6215 13.2391 34.45 19.4028 28.2717C19.6701 28.0031 19.9116 27.9176 20.2901 27.9759C21.2589 28.1252 22.2344 28.231 23.2099 28.3259C23.5246 28.3558 23.6386 28.467 23.6711 28.7845C23.7729 29.8102 23.9018 30.8331 24.0388 31.8547C24.0727 32.1124 24.0266 32.2929 23.8353 32.4828C17.5034 38.8036 11.1782 45.1324 4.84765 51.4559C4.11908 52.1844 3.24941 52.1763 2.51948 51.4586C1.85603 50.8061 1.20886 50.1372 0.541342 49.4901C0.290344 49.2459 0.150599 48.9447 0.00135675 48.6435V47.9326H0Z" fill="#5E5E5E"/>
<path d="M28.4358 0C29.1454 0.272692 29.5131 0.799082 29.6718 1.53711C29.8455 2.34569 30.0965 3.13663 30.3054 3.93843C30.5523 4.88674 30.1209 5.70075 29.2539 5.93817C28.4304 6.16473 27.6381 5.66955 27.3762 4.74972C27.1456 3.93707 26.9326 3.12035 26.7155 2.30363C26.3939 1.08941 26.6246 0.565734 27.7249 0L28.4358 0Z" fill="#5E5E5E"/>
<path d="M22.0522 6.89865C22.3683 6.86745 22.66 7.01397 22.9531 7.14014C25.3138 8.14815 27.6773 9.15345 30.0299 10.1804C30.3487 10.3188 30.5074 10.3026 30.7259 10.0054C32.2807 7.89445 33.8627 5.80382 35.427 3.69826C35.811 3.18272 36.2872 2.88832 36.9398 2.95751C37.648 3.03348 38.1866 3.58837 38.2762 4.34268C38.5909 6.96106 38.9057 9.5808 39.1988 12.2019C39.2422 12.5858 39.3629 12.7486 39.7686 12.7934C42.3898 13.0851 45.0097 13.4012 47.6282 13.7146C48.3419 13.8001 48.8506 14.2274 49.0026 14.8827C49.1613 15.5692 48.9063 16.1091 48.3554 16.5215C46.243 18.1034 44.136 19.6921 42.0099 21.2563C41.6992 21.4856 41.6802 21.6633 41.8241 21.993C42.8687 24.3943 43.8985 26.8024 44.9215 29.2132C45.357 30.2389 44.8998 31.2062 43.8944 31.4409C43.4901 31.5359 43.1265 31.4138 42.7656 31.2591C40.375 30.2321 37.9817 29.2146 35.5979 28.1727C35.2683 28.0289 35.1149 28.075 34.9033 28.3613C33.3457 30.4709 31.7651 32.5629 30.1981 34.6657C29.8033 35.1962 29.3081 35.4974 28.6338 35.3915C27.9106 35.2776 27.4412 34.7607 27.3394 33.9643C27.1848 32.7569 27.0518 31.5467 26.9093 30.3366C26.737 28.8754 26.5593 27.4157 26.3965 25.9532C26.368 25.6954 26.2445 25.6208 26.0071 25.5936C23.4035 25.2911 20.8013 24.9764 18.1977 24.6765C17.3484 24.5788 16.8287 24.2153 16.6374 23.5274C16.4488 22.8504 16.6727 22.2915 17.3511 21.7814C19.435 20.2185 21.5176 18.6529 23.6152 17.1076C23.9231 16.8811 23.9476 16.7074 23.801 16.371C22.755 13.971 21.7279 11.5615 20.7036 9.15073C20.3061 8.21327 20.633 7.33822 21.4824 6.99905C21.6587 6.9285 21.8378 6.89323 22.0481 6.90001L22.0522 6.89865Z" fill="#5E5E5E"/>
<path d="M47.2504 6.27322C47.2531 6.70465 47.0835 7.06552 46.7863 7.36535C46.0944 8.06132 45.4092 8.76408 44.7024 9.44513C44.0349 10.0882 43.1313 10.0923 42.5194 9.48719C41.9088 8.88211 41.9061 7.96364 42.5438 7.30565C43.2371 6.58797 43.9453 5.8825 44.663 5.18924C45.1515 4.71712 45.8339 4.60587 46.3983 4.8867C46.9654 5.16889 47.2449 5.64101 47.2517 6.27322H47.2504Z" fill="#5E5E5E"/>
<path d="M19.6105 15.2571C19.6091 16.2095 18.7313 16.9421 17.787 16.7223C16.7532 16.4822 15.7275 16.2014 14.7099 15.8975C13.9027 15.656 13.4807 14.8434 13.6951 14.0565C13.9108 13.2642 14.6774 12.7826 15.4941 12.9793C16.5103 13.2235 17.5197 13.4948 18.5224 13.7879C19.2265 13.9941 19.6132 14.553 19.6118 15.2585L19.6105 15.2571Z" fill="#5E5E5E"/>
<path d="M36.7437 32.3839C37.4289 32.3839 37.9946 32.7557 38.1941 33.4299C38.5007 34.4637 38.7815 35.507 39.0298 36.5557C39.2089 37.3154 38.7273 38.0657 37.9838 38.2895C37.2389 38.5134 36.4045 38.1661 36.1617 37.4172C35.8089 36.3291 35.4996 35.2207 35.2649 34.1001C35.0749 33.1966 35.8293 32.3839 36.7437 32.3826V32.3839Z" fill="#5E5E5E"/>
<path d="M50.4029 25.4215C50.3296 25.412 50.175 25.4092 50.0298 25.3699C49.0692 25.1148 48.1059 24.8666 47.1522 24.5871C46.3069 24.3402 45.8442 23.537 46.0559 22.7488C46.2743 21.9361 47.0463 21.4491 47.897 21.6499C48.9132 21.89 49.9213 22.1668 50.9239 22.4625C51.6579 22.6796 52.1029 23.438 51.9795 24.1597C51.8546 24.8856 51.2305 25.4106 50.4043 25.4201L50.4029 25.4215Z" fill="#5E5E5E"/>
</g>
<defs>
<clipPath id="clip0_826_4178">
<rect width="52" height="52" fill="white"/>
</clipPath>
</defs>
</svg>
