<svg width="17" height="17" viewBox="0 0 17 17" fill="none" xmlns="http://www.w3.org/2000/svg">
<path fill-rule="evenodd" clip-rule="evenodd" d="M8.34811 0.625C9.17653 0.625 9.84811 1.29657 9.84811 2.125V7.09825H14.5131C15.3415 7.09825 16.0131 7.76982 16.0131 8.59825C16.0131 9.42668 15.3415 10.0982 14.5131 10.0982H9.84811V15.0715C9.84811 15.8999 9.17653 16.5715 8.34811 16.5715C7.51968 16.5715 6.84811 15.8999 6.84811 15.0715V10.0982H2.18311C1.35468 10.0982 0.683105 9.42668 0.683105 8.59825C0.683105 7.76982 1.35468 7.09825 2.18311 7.09825H6.84811V2.125C6.84811 1.29657 7.51968 0.625 8.34811 0.625Z" fill="#B9B9B9"/>
</svg>
