<svg width="48" height="48" viewBox="0 0 48 48" fill="none" xmlns="http://www.w3.org/2000/svg">
<path d="M47.0381 19.0986H45.125V19H23.75V28.5H37.1723C35.2141 34.0302 29.9523 38 23.75 38C15.8804 38 9.5 31.6196 9.5 23.75C9.5 15.8804 15.8804 9.5 23.75 9.5C27.3826 9.5 30.6874 10.8704 33.2037 13.1088L39.9214 6.39112C35.6796 2.43794 30.0058 0 23.75 0C10.6341 0 0 10.6341 0 23.75C0 36.8659 10.6341 47.5 23.75 47.5C36.8659 47.5 47.5 36.8659 47.5 23.75C47.5 22.1576 47.3361 20.6031 47.0381 19.0986Z" fill="#FFC107"/>
<path d="M2.73828 12.6956L10.5413 18.4181C12.6527 13.1908 17.7661 9.5 23.7499 9.5C27.3825 9.5 30.6873 10.8704 33.2036 13.1088L39.9213 6.39112C35.6795 2.43794 30.0057 0 23.7499 0C14.6275 0 6.71641 5.15019 2.73828 12.6956Z" fill="#FF3D00"/>
<path d="M23.7489 47.4998C29.8835 47.4998 35.4577 45.1522 39.6721 41.3343L32.3215 35.1142C29.8573 36.9893 26.8454 38.0032 23.7489 37.9998C17.5715 37.9998 12.3263 34.0609 10.3503 28.564L2.60547 34.5312C6.53609 42.2226 14.5185 47.4998 23.7489 47.4998Z" fill="#4CAF50"/>
<path d="M47.0381 19.0986H45.125V19H23.75V28.5H37.1723C36.2356 31.132 34.5484 33.4319 32.319 35.1156L32.3226 35.1132L39.6732 41.3333C39.1531 41.8059 47.5 35.625 47.5 23.75C47.5 22.1576 47.3361 20.6031 47.0381 19.0986Z" fill="#1976D2"/>
</svg>
