<svg width="152" height="256" viewBox="0 0 152 256" fill="none" xmlns="http://www.w3.org/2000/svg">
<path d="M0.666667 250C0.666667 252.946 3.05448 255.333 6 255.333C8.94552 255.333 11.3333 252.946 11.3333 250C11.3333 247.054 8.94552 244.667 6 244.667C3.05448 244.667 0.666667 247.054 0.666667 250ZM151.707 8.20711C152.098 7.81658 152.098 7.18342 151.707 6.79289L145.343 0.428932C144.953 0.0384078 144.319 0.0384078 143.929 0.428932C143.538 0.819457 143.538 1.45262 143.929 1.84315L149.586 7.5L143.929 13.1569C143.538 13.5474 143.538 14.1805 143.929 14.5711C144.319 14.9616 144.953 14.9616 145.343 14.5711L151.707 8.20711ZM6.56129 250.828L91.6255 193.138L90.503 191.483L5.43871 249.172L6.56129 250.828ZM114 150.929V45.5H112V150.929H114ZM114 45.5C114 25.0655 130.565 8.5 151 8.5V6.5C129.461 6.5 112 23.9609 112 45.5H114ZM91.6255 193.138C105.62 183.647 114 167.838 114 150.929H112C112 167.175 103.948 182.364 90.503 191.483L91.6255 193.138Z" fill="#ADA6C0"/>
</svg>
