<svg width="143" height="16" viewBox="0 0 143 16" fill="none" xmlns="http://www.w3.org/2000/svg">
<path d="M0.666667 8C0.666666 10.9455 3.05448 13.3333 6 13.3333C8.94552 13.3333 11.3333 10.9455 11.3333 8C11.3333 5.05448 8.94552 2.66667 6 2.66667C3.05448 2.66667 0.666667 5.05448 0.666667 8ZM142.445 8.70712C142.836 8.31659 142.836 7.68343 142.445 7.29291L136.081 0.928944C135.691 0.538419 135.058 0.538419 134.667 0.928943C134.277 1.31947 134.277 1.95263 134.667 2.34316L140.324 8.00001L134.667 13.6569C134.277 14.0474 134.277 14.6806 134.667 15.0711C135.058 15.4616 135.691 15.4616 136.081 15.0711L142.445 8.70712ZM6 9L141.738 9.00001L141.738 7.00001L6 7L6 9Z" fill="#ADA6C0"/>
</svg>
