<svg width="152" height="256" viewBox="0 0 152 256" fill="none" xmlns="http://www.w3.org/2000/svg">
<path d="M151.833 250C151.833 252.946 149.446 255.333 146.5 255.333C143.554 255.333 141.167 252.946 141.167 250C141.167 247.054 143.554 244.667 146.5 244.667C149.446 244.667 151.833 247.054 151.833 250ZM0.792892 8.20711C0.402374 7.81658 0.402374 7.18342 0.792892 6.79289L7.15686 0.428932C7.54738 0.0384078 8.18054 0.0384078 8.57108 0.428932C8.96159 0.819457 8.96159 1.45262 8.57108 1.84315L2.91422 7.5L8.57108 13.1569C8.96159 13.5474 8.96159 14.1805 8.57108 14.5711C8.18054 14.9616 7.54738 14.9616 7.15686 14.5711L0.792892 8.20711ZM145.939 250.828L60.8745 193.138L61.997 191.483L147.061 249.172L145.939 250.828ZM38.5 150.929V45.5H40.5V150.929H38.5ZM38.5 45.5C38.5 25.0655 21.9345 8.5 1.5 8.5V6.5C23.0391 6.5 40.5 23.9609 40.5 45.5H38.5ZM60.8745 193.138C46.8804 183.647 38.5 167.838 38.5 150.929H40.5C40.5 167.175 48.5518 182.364 61.997 191.483L60.8745 193.138Z" fill="#ADA6C0"/>
</svg>
