<svg width="143" height="16" viewBox="0 0 143 16" fill="none" xmlns="http://www.w3.org/2000/svg">
<path d="M142.833 8C142.833 5.05448 140.446 2.66667 137.5 2.66667C134.554 2.66667 132.167 5.05448 132.167 8C132.167 10.9455 134.554 13.3333 137.5 13.3333C140.446 13.3333 142.833 10.9455 142.833 8ZM0.292892 7.29289C-0.0976257 7.68342 -0.0976257 8.31658 0.292892 8.70711L6.65686 15.0711C7.04738 15.4616 7.68054 15.4616 8.07108 15.0711C8.46159 14.6805 8.46159 14.0474 8.07108 13.6569L2.41422 8L8.07108 2.34315C8.46159 1.95262 8.46159 1.31946 8.07108 0.928932C7.68054 0.538408 7.04738 0.538408 6.65686 0.928932L0.292892 7.29289ZM137.5 7L1 7V9L137.5 9V7Z" fill="#ADA6C0"/>
</svg>
