<svg width="16" height="14" viewBox="0 0 16 14" fill="none" xmlns="http://www.w3.org/2000/svg">
<g clip-path="url(#clip0_571_63)">
<path d="M15.9998 4.16293V4.80442C15.9916 4.84879 15.9794 4.8924 15.9759 4.93715C15.9153 5.68498 15.6724 6.3762 15.2994 7.02725C14.8293 7.84737 14.2087 8.55236 13.5298 9.208C11.8841 10.7974 10.0734 12.2051 8.33356 13.6908C8.12707 13.8671 7.8803 13.856 7.66561 13.6816C7.48571 13.5351 7.30895 13.3847 7.13257 13.2344C5.73175 12.0417 4.28947 10.8949 2.93948 9.64598C2.10219 8.87138 1.3044 8.05929 0.738126 7.0655C-0.212966 5.39618 -0.263805 3.70084 0.691979 2.0212C1.22188 1.09052 2.03923 0.465865 3.09434 0.173619C4.21946 -0.137753 5.29805 -0.0256743 6.30154 0.590184C6.94016 0.981886 7.42588 1.52009 7.82555 2.13825C7.88461 2.22929 7.92411 2.33486 8.01796 2.41672C8.26669 1.99518 8.53692 1.60348 8.87715 1.26342C10.0594 0.0825791 11.4719 -0.289231 13.0726 0.22679C14.579 0.712209 15.4472 1.80316 15.8469 3.27854C15.9255 3.56926 15.9439 3.86915 16.0002 4.16293H15.9998Z" fill="#FF3F79"/>
</g>
<defs>
<clipPath id="clip0_571_63">
<rect width="16" height="13.8182" fill="white"/>
</clipPath>
</defs>
</svg>
