<svg width="60" height="62" viewBox="0 0 60 62" fill="none" xmlns="http://www.w3.org/2000/svg">
<path d="M16.5156 61.9971H16.287C15.8142 61.9971 15.4299 61.6143 15.4299 61.1433V57.7193C15.4299 53.2309 15.4328 48.5888 15.4185 44.025C15.4156 43.2195 15.7842 42.7072 16.5456 42.4581C19.2183 41.5844 21.9325 40.6821 24.5566 39.8098C25.5066 39.4939 26.458 39.1779 27.4079 38.8634C27.5351 38.8207 27.6651 38.7837 27.8165 38.741C27.8865 38.7211 27.9608 38.6998 28.0436 38.6756C28.3022 38.6002 28.5822 38.65 28.7993 38.8108C29.015 38.9716 29.1436 39.2249 29.1436 39.4939V43.5425C29.1421 47.8146 29.1407 52.2333 29.1579 56.578C29.1621 57.6624 28.4893 58.0068 27.9822 58.1733C24.7409 59.2335 21.4511 60.3292 18.2683 61.3894L17.2798 61.7182C17.2284 61.7353 17.1498 61.7765 17.067 61.8192C17.007 61.8505 16.947 61.8818 16.8856 61.9117C16.7698 61.9672 16.6427 61.9957 16.5141 61.9957L16.5156 61.9971ZM17.1327 44.0634C17.147 48.6158 17.1455 53.2437 17.1441 57.7193V59.9649L17.7241 59.7714C20.9068 58.7112 24.1981 57.614 27.4422 56.5538C27.4251 52.2162 27.4265 47.8075 27.4279 43.544V40.6565C26.6523 40.9141 25.8751 41.1717 25.0995 41.4307C22.4896 42.2973 19.7926 43.1939 17.1327 44.0648V44.0634Z" fill="#878787"/>
<path d="M47.3712 61.997H47.1426C46.6698 61.997 46.2855 61.6142 46.2855 61.1431V57.9839C46.2855 53.3902 46.2855 48.6399 46.2798 43.9679C46.2798 43.6847 46.2798 42.8238 47.2912 42.4922C50.1325 41.5658 53.0166 40.6094 55.8079 39.683C56.6979 39.387 57.5878 39.0924 58.4792 38.7979C58.5564 38.7722 58.6349 38.7495 58.7364 38.7196L58.8978 38.6726C59.1578 38.5958 59.4378 38.6456 59.6535 38.8064C59.8706 38.9672 59.9977 39.2219 59.9977 39.4909V55.4949C59.9977 57.2012 59.4449 57.9597 57.8093 58.5033L54.328 59.6589C52.2638 60.3448 50.1996 61.0293 48.1354 61.7166C48.084 61.7337 48.0054 61.775 47.9226 61.8177C47.8626 61.849 47.8026 61.8803 47.7411 61.9102C47.6254 61.9657 47.4983 61.9941 47.3697 61.9941L47.3712 61.997ZM47.994 44.0604C47.9997 48.7025 47.9997 53.4201 47.9997 57.9839V59.9634C49.9282 59.3216 51.8581 58.6812 53.7866 58.0408L57.2679 56.8853C58.1992 56.575 58.285 56.4583 58.285 55.4963V40.6635C57.6393 40.877 56.995 41.0919 56.3493 41.3053C53.6123 42.2133 50.7853 43.1511 47.994 44.0619V44.0604Z" fill="#878787"/>
<path d="M43.7141 61.9974H43.4855C43.3541 61.9974 43.2241 61.9675 43.1055 61.9092C43.0441 61.8793 42.9841 61.8466 42.9241 61.8139C42.8484 61.7726 42.7698 61.7299 42.7227 61.7142L41.9299 61.4495C38.6829 60.3666 35.3259 59.248 32.0189 58.1651C31.5118 57.9986 30.8375 57.6528 30.8418 56.5726C30.859 52.2393 30.8575 47.8335 30.8561 43.5713V39.4928C30.8561 39.2252 30.9804 38.9733 31.1947 38.8125C31.4089 38.6517 31.6861 38.5991 31.9446 38.6702C32.0175 38.6901 32.0875 38.7086 32.1532 38.7271C32.3032 38.767 32.4446 38.8054 32.5932 38.8538C33.5803 39.1811 34.5688 39.5098 35.5559 39.8386C38.1443 40.6995 40.8228 41.589 43.4584 42.4514C44.2155 42.699 44.5826 43.2141 44.5798 44.0253C44.5669 48.5948 44.5683 53.2412 44.5683 57.7353V61.1407C44.5683 61.6118 44.1855 61.9946 43.7112 61.9946L43.7141 61.9974ZM32.5575 56.5456C35.8673 57.63 39.2257 58.7485 42.4741 59.8315L42.857 59.9596V57.7396C42.857 53.2554 42.8556 48.6204 42.867 44.0594C40.2457 43.2027 37.5858 42.3176 35.0145 41.4623C34.2002 41.1919 33.386 40.9215 32.5717 40.6511V43.5742C32.5732 47.8249 32.5746 52.2208 32.5575 56.5456Z" fill="#878787"/>
<path d="M12.8585 61.9971H12.63C12.4914 61.9971 12.3557 61.963 12.2328 61.9003C12.1757 61.8705 12.12 61.8391 12.0643 61.8064C12.0143 61.778 11.9471 61.7395 11.9214 61.7296C8.60442 60.6253 5.28457 59.5238 1.96472 58.4237C0.666209 57.994 0.00623864 57.1188 0.00481014 55.8252C0.000524618 51.3539 0.00195312 46.8839 0.00338163 42.4126V39.8283C0.00338163 39.7258 0.0133812 39.6376 0.0219522 39.5451C0.0262377 39.5067 0.0305233 39.4626 0.0348088 39.4113C0.0562364 39.1509 0.197659 38.9132 0.41622 38.7695C0.63621 38.6258 0.909055 38.5888 1.15904 38.6727L4.3089 39.7173C4.96744 39.9364 5.62741 40.1556 6.28595 40.3748C8.35015 41.0607 10.4843 41.7708 12.5871 42.4525C13.3571 42.7015 13.7299 43.2124 13.727 44.015C13.7142 48.5717 13.7142 53.2039 13.7156 57.6852V61.1461C13.7156 61.6171 13.3328 62 12.8585 62V61.9971ZM1.71759 40.6565V42.4126C1.71616 46.8825 1.71473 51.3524 1.71902 55.8223C1.71902 56.3005 1.84187 56.5823 2.50613 56.8029C5.6717 57.8517 8.83727 58.9005 12.0014 59.955V57.6823C12.0014 53.2181 11.9986 48.6016 12.0128 44.0591C9.91865 43.3789 7.79589 42.6745 5.74312 41.9914C5.08458 41.7722 4.42604 41.5531 3.7675 41.3353L1.71759 40.6551V40.6565Z" fill="#878787"/>
<path d="M29.9891 10.639C29.8063 10.639 29.6106 10.6162 29.4177 10.5522C25.7936 9.36532 22.238 8.18559 18.4739 6.93754L16.0697 6.14061C15.7255 6.02677 15.4912 5.70942 15.4841 5.34795C15.4769 4.98649 15.6983 4.6606 16.0369 4.53253C16.1426 4.49268 16.234 4.4571 16.3169 4.42437C16.4783 4.36176 16.6183 4.30768 16.7654 4.25787L21.1809 2.79067C23.7094 1.95105 26.2379 1.11001 28.7663 0.268963C28.832 0.247617 28.9177 0.204924 29.0092 0.160809C29.0692 0.130924 29.1292 0.102462 29.1906 0.0754235C29.302 0.0256155 29.422 0 29.5434 0H30.4577C30.5534 0 30.6477 0.0156539 30.7377 0.0469618C31.2119 0.210617 31.6862 0.375695 32.1604 0.539349C33.1861 0.895121 34.2461 1.2637 35.2917 1.61378C37.0359 2.19724 38.8116 2.78498 40.5301 3.35279C41.45 3.65733 42.3714 3.96187 43.2914 4.26641C43.4271 4.31195 43.5542 4.36176 43.7028 4.4201C43.7771 4.44856 43.8599 4.4813 43.9556 4.5183C44.2899 4.64637 44.5085 4.96799 44.5056 5.32376C44.5013 5.68096 44.2756 5.99688 43.9399 6.11784C43.8399 6.15342 43.7528 6.18615 43.6742 6.21461C43.5156 6.27296 43.3885 6.3185 43.2614 6.36119L41.47 6.95746C37.9645 8.12582 34.3403 9.33259 30.7705 10.5095C30.6262 10.5564 30.332 10.6376 29.992 10.6376L29.9891 10.639ZM19.0053 5.3138L19.0153 5.31665C22.778 6.56469 26.3321 7.74443 29.9534 8.92986C29.9805 8.93555 30.1005 8.93271 30.2291 8.89001C33.7961 7.71455 37.4188 6.50777 40.9229 5.34084L41.0086 5.31238C40.6686 5.19995 40.3286 5.08753 39.9901 4.97511C38.2702 4.4073 36.4931 3.81956 34.746 3.23467C33.6918 2.88175 32.6276 2.51175 31.5976 2.15455C31.1705 2.00655 30.7434 1.85713 30.3148 1.71055H29.7391C29.6148 1.77032 29.4734 1.8372 29.312 1.89128C26.7835 2.73232 24.2551 3.57337 21.7252 4.41299L19.0068 5.31665L19.0053 5.3138Z" fill="#878787"/>
<path d="M31.7148 32.4286C31.5376 32.4286 31.3619 32.3731 31.2134 32.2678C30.9905 32.107 30.8577 31.8494 30.8577 31.5748V27.5247C30.8577 23.1401 30.8591 18.6062 30.8477 14.1477C30.8448 13.3336 31.2119 12.8171 31.9676 12.5709C34.6989 11.6814 37.4717 10.7593 40.153 9.86986C41.0686 9.56532 41.9829 9.2622 42.8986 8.95908C43.0143 8.92066 43.1328 8.88651 43.2657 8.84808L43.4542 8.79258C43.7128 8.71574 43.9942 8.76412 44.2114 8.92493C44.4285 9.08574 44.5571 9.34047 44.5571 9.60943V27.5958C44.5571 27.963 44.3213 28.2903 43.9714 28.4055L31.9876 32.3845C31.8991 32.4144 31.8076 32.4286 31.7162 32.4286H31.7148ZM32.5619 14.1747C32.5733 18.6261 32.5733 23.1501 32.5719 27.5247V30.3893L42.8414 26.9796V10.7764C42.1257 11.014 41.4101 11.2517 40.6944 11.4893C38.0302 12.3745 35.2775 13.2895 32.5619 14.1747Z" fill="#878787"/>
<path d="M28.2866 32.4231C28.1951 32.4231 28.1037 32.4088 28.0151 32.3789L21.5054 30.2144C19.8484 29.6637 18.1356 29.093 16.45 28.5409C16.1957 28.4569 15.42 28.2036 15.4229 27.1961C15.4329 22.6863 15.4329 18.0997 15.4343 13.6654V9.83869C15.4343 9.73765 15.4471 9.65511 15.4571 9.58822C15.46 9.56545 15.4643 9.53984 15.4686 9.50853C15.5 9.26234 15.6371 9.04176 15.8457 8.90514C16.0528 8.76853 16.3114 8.72726 16.5514 8.79556C16.6071 8.81122 16.6628 8.82545 16.7171 8.83968C16.8471 8.87383 16.9814 8.90941 17.1214 8.95637C18.0856 9.27657 19.0498 9.59676 20.0127 9.91696C22.6282 10.7865 25.3324 11.6844 27.9966 12.5539C28.7823 12.8101 29.1622 13.3366 29.1594 14.162C29.1437 18.6035 29.1451 23.1218 29.1465 27.4892V31.5692C29.1465 31.8439 29.0151 32.1014 28.7908 32.2622C28.6423 32.369 28.468 32.4231 28.2894 32.4231H28.2866ZM17.1356 26.9684C18.777 27.5063 20.4383 28.0599 22.0483 28.595L27.4295 30.3838V27.4892C27.428 23.1246 27.4266 18.6106 27.4423 14.1706C24.781 13.3011 22.0797 12.4045 19.4684 11.5364C18.6941 11.2788 17.9213 11.0227 17.1471 10.7651V13.6654C17.1471 18.0257 17.1471 22.5312 17.1371 26.9684H17.1356Z" fill="#878787"/>
<path d="M14.6014 40.5066C14.3343 40.5066 14.0629 40.4653 13.8115 40.3828C10.3102 39.2358 6.75609 38.0546 3.32053 36.9119L1.30919 36.243C1.18063 36.2003 1.05778 36.1534 0.903497 36.0936C0.822073 36.0623 0.727791 36.0253 0.613511 35.9826C0.273526 35.8545 0.0521073 35.5286 0.0592499 35.1672C0.0663924 34.8057 0.300667 34.4884 0.644938 34.3731L3.69623 33.3584C6.23611 32.5131 8.71314 31.6892 11.1902 30.868C11.4716 30.7741 11.7587 30.6603 12.063 30.5379C12.8658 30.2163 13.6958 29.8847 14.6 29.8818C15.4928 29.8847 16.3014 30.2091 17.0856 30.5293C17.3899 30.6531 17.677 30.7698 17.9584 30.8638C21.2769 31.9638 24.5953 33.0667 27.9123 34.1696C28.0351 34.2109 28.1466 34.255 28.288 34.3119C28.3594 34.3404 28.4408 34.3731 28.5394 34.4115C28.8751 34.541 29.0922 34.8655 29.0851 35.2241C29.0779 35.5827 28.8465 35.8986 28.508 36.0153C28.3051 36.0851 28.118 36.1505 27.9394 36.2117C27.5851 36.3341 27.268 36.4437 26.9495 36.5504L25.0524 37.1808C21.864 38.241 18.567 39.3382 15.3157 40.3984C15.0943 40.471 14.8486 40.5066 14.6 40.5066H14.6014ZM3.58195 35.1985L3.86336 35.2924C7.29749 36.4351 10.8502 37.6163 14.3472 38.7619C14.4957 38.8103 14.69 38.8074 14.7843 38.7761C18.0299 37.7173 21.3254 36.6216 24.511 35.5614L25.5938 35.2013C22.8682 34.2962 20.1441 33.3912 17.4185 32.4875C17.0828 32.3765 16.7542 32.2427 16.4385 32.1132C15.7814 31.8457 15.16 31.5924 14.6114 31.5924H14.6057C14.03 31.5938 13.3844 31.8528 12.703 32.126C12.3887 32.2513 12.0644 32.3822 11.733 32.4918C9.25598 33.3129 6.77895 34.1369 4.24049 34.9808L3.58195 35.1999V35.1985Z" fill="#878787"/>
<path d="M45.4055 40.5424C45.2412 40.5424 45.0726 40.521 44.9069 40.467C41.0185 39.189 37.0716 37.8769 33.2532 36.6075L31.8104 36.128C31.6947 36.0895 31.6104 36.0397 31.5418 36.0013C31.5189 35.9885 31.4918 35.9714 31.4561 35.9529C31.169 35.7978 30.9961 35.4933 31.009 35.1688C31.0218 34.8443 31.219 34.554 31.5175 34.4231C31.5761 34.3975 31.6289 34.3719 31.6775 34.3491C31.7989 34.2922 31.9232 34.2338 32.0689 34.1855L32.5318 34.0318C36.5273 32.7026 40.6571 31.3279 44.7255 29.9902C44.9341 29.9219 45.4797 29.781 46.0211 29.9575C49.7238 31.1728 53.4837 32.4223 57.1206 33.6304L58.9563 34.241C59.022 34.2623 59.0863 34.2865 59.1977 34.3306C59.2534 34.352 59.322 34.379 59.4148 34.4146C59.7534 34.5441 59.9734 34.87 59.9648 35.23C59.9577 35.59 59.7234 35.9074 59.3805 36.0212L57.4935 36.6502C56.2021 37.0814 54.9622 37.4956 53.7208 37.9082L52.8337 38.2028C50.6424 38.9314 48.3768 39.6857 46.144 40.4157C45.9426 40.4812 45.6812 40.5424 45.4026 40.5424H45.4055ZM34.4317 35.1973C38.0401 36.3969 41.7528 37.6322 45.414 38.8347C45.444 38.8347 45.5155 38.8247 45.6126 38.7934C47.8411 38.0648 50.1038 37.3105 52.2937 36.5834L53.1808 36.2888C54.2565 35.9316 55.3307 35.573 56.4392 35.203C52.8494 34.0104 49.141 32.778 45.4883 31.5784C45.4683 31.5741 45.3669 31.5784 45.2669 31.6097C41.6599 32.7965 38.0015 34.0118 34.4331 35.1987L34.4317 35.1973Z" fill="#878787"/>
</svg>
