<svg width="63" height="63" viewBox="0 0 63 63" fill="none" xmlns="http://www.w3.org/2000/svg">
<circle cx="31.75" cy="31.1396" r="31" fill="#696969"/>
<path d="M25.3867 35.7334C25.8573 35.3805 26.5246 35.4752 26.8784 35.9446L26.8891 35.9582C26.9004 35.9725 26.9198 35.9966 26.9473 36.0293C27.0022 36.0948 27.0887 36.1938 27.2051 36.3154C27.4389 36.5593 27.7884 36.8884 28.2407 37.2174C29.1496 37.8784 30.4273 38.5067 32 38.5067C33.5728 38.5067 34.8504 37.8784 35.7593 37.2174C36.2117 36.8884 36.5611 36.5593 36.7949 36.3154C36.9114 36.1938 36.9978 36.0948 37.0528 36.0293C37.0802 35.9966 37.0997 35.9725 37.111 35.9582L37.1216 35.9446C37.4754 35.4746 38.1426 35.3803 38.6134 35.7334C39.0846 36.0869 39.1802 36.7554 38.8267 37.2267L38.8243 37.23L38.821 37.2343L38.8119 37.2461C38.8047 37.2555 38.7953 37.2676 38.7836 37.2824C38.7603 37.3118 38.728 37.3518 38.6869 37.4008C38.6047 37.4987 38.487 37.6329 38.3351 37.7914C38.0323 38.1075 37.5884 38.525 37.0141 38.9427C35.8696 39.7751 34.1606 40.6401 32 40.6401C29.8395 40.6401 28.1304 39.7751 26.986 38.9427C26.4117 38.525 25.9678 38.1075 25.6649 37.7914C25.513 37.6329 25.3953 37.4987 25.3132 37.4008C25.2721 37.3518 25.2398 37.3118 25.2164 37.2824L25.1734 37.2267C24.8199 36.7554 24.9154 36.0869 25.3867 35.7334Z" fill="white"/>
<path fill-rule="evenodd" clip-rule="evenodd" d="M32 18.1333C24.3417 18.1333 18.1333 24.3417 18.1333 32C18.1333 39.6583 24.3417 45.8667 32 45.8667C39.6583 45.8667 45.8667 39.6583 45.8667 32C45.8667 24.3417 39.6583 18.1333 32 18.1333ZM16 32C16 23.1634 23.1634 16 32 16C40.8366 16 48 23.1634 48 32C48 40.8366 40.8366 48 32 48C23.1634 48 16 40.8366 16 32Z" fill="white"/>
<path d="M28.4 28.9333C28.4 29.8906 27.624 30.6667 26.6667 30.6667C25.7094 30.6667 24.9333 29.8906 24.9333 28.9333C24.9333 27.976 25.7094 27.2 26.6667 27.2C27.624 27.2 28.4 27.976 28.4 28.9333Z" fill="white"/>
<path d="M39.04 28.9333C39.04 29.8906 38.264 30.6667 37.3067 30.6667C36.3494 30.6667 35.5734 29.8906 35.5734 28.9333C35.5734 27.976 36.3494 27.2 37.3067 27.2C38.264 27.2 39.04 27.976 39.04 28.9333Z" fill="white"/>
</svg>
