<svg width="51" height="51" viewBox="0 0 51 51" fill="none" xmlns="http://www.w3.org/2000/svg">
<path d="M0.763184 46.8805C0.993125 45.8247 1.32776 44.8149 2.01954 43.9568C3.20937 42.4783 4.7397 41.6495 6.64577 41.6163C8.61446 41.583 10.5841 41.5996 12.5538 41.6114C13.6291 41.6173 14.637 41.8893 15.6164 42.5028C13.8571 44.903 13.9882 47.673 14.0646 50.494H0.763184V46.8805Z" fill="#5D5D5D"/>
<path d="M26.2515 0.494141C27.1458 0.692771 28.001 0.977507 28.684 1.62721C29.956 2.83758 30.4423 4.30725 29.9805 6.00784C29.4922 7.80529 28.2828 8.90804 26.4394 9.19571C24.4658 9.50393 22.7955 8.61547 21.8621 6.87281C21.0225 5.3053 21.277 3.36498 22.5333 1.93641C23.1752 1.20647 23.9991 0.772027 24.9521 0.581225C25.0607 0.559698 25.1674 0.523495 25.275 0.494141C25.6008 0.494141 25.9257 0.494141 26.2515 0.494141Z" fill="#5D5D5D"/>
<path d="M12.5794 24.0296H9.68799V21.1098H16.9776C16.9776 20.053 16.96 19.0491 16.9815 18.0452C17.0393 15.3202 18.9013 12.9738 21.5608 12.3798C22.4209 12.1871 23.3318 12.2213 24.279 12.147V21.0677H27.2154V12.2898C31.0637 11.6753 33.8984 14.0002 34.4414 17.1528C34.5784 17.9464 34.5275 18.7732 34.55 19.5844C34.5637 20.0697 34.553 20.555 34.553 21.0981H41.8534V24.0119H38.9473C38.9473 25.101 38.9355 26.1362 38.9541 27.1724C38.96 27.4738 38.8622 27.6274 38.5941 27.7703C35.6723 29.3319 34.2682 32.0501 34.6449 35.3789C34.6557 35.4757 34.6577 35.5726 34.6684 35.7468H32.9717C33.3905 32.8671 32.5852 30.4425 30.3455 28.5883C28.8524 27.3525 27.095 26.8309 25.1645 26.9836C21.0393 27.3104 17.7164 31.193 18.5481 35.7076H16.9991C16.9248 34.6842 16.9561 33.6656 16.7575 32.6939C16.3132 30.5168 15.0334 28.9043 13.0784 27.8534C12.6958 27.648 12.551 27.4337 12.5676 26.9992C12.6038 26.0276 12.5794 25.054 12.5794 24.0286V24.0296Z" fill="#5D5D5D"/>
<path d="M34.5471 50.4725H16.9668C17.0578 48.6183 16.6743 46.7416 17.5657 44.9979C18.6664 42.8433 20.4208 41.6662 22.8543 41.6163C24.7887 41.5762 26.7242 41.5948 28.6596 41.6114C31.8641 41.6378 34.458 44.1819 34.5431 47.3805C34.5705 48.4001 34.5471 49.4216 34.5471 50.4725Z" fill="#5D5D5D"/>
<path d="M37.4649 50.4589C37.5334 47.683 37.6753 44.9129 35.9102 42.5078C36.8466 41.91 37.8192 41.6272 38.8583 41.6174C40.9239 41.5988 42.9904 41.5743 45.054 41.6242C48.0608 41.6966 50.6518 44.3004 50.7497 47.3053C50.7839 48.3434 50.7556 49.3835 50.7556 50.4589H37.4649Z" fill="#5D5D5D"/>
<path d="M5.26011 34.2113C5.33154 31.7857 7.34132 29.8356 9.70923 29.8933C12.1486 29.953 14.131 32.0078 14.037 34.3796C13.9411 36.819 11.9255 38.7534 9.56442 38.6722C7.13095 38.5881 5.18966 36.5763 5.25913 34.2113H5.26011Z" fill="#5D5D5D"/>
<path d="M25.6909 38.6731C23.2652 38.6006 21.3142 36.5909 21.3729 34.2239C21.4326 31.7846 23.4874 29.8032 25.8592 29.8952C28.2975 29.9901 30.233 32.0067 30.1517 34.3678C30.0686 36.8003 28.0549 38.7435 25.6909 38.6731Z" fill="#5D5D5D"/>
<path d="M46.267 34.2895C46.2611 36.6808 44.2739 38.6681 41.8825 38.675C39.4764 38.6808 37.4549 36.6486 37.4852 34.2542C37.5155 31.8511 39.5116 29.8765 41.8942 29.8932C44.2915 29.9108 46.2729 31.903 46.267 34.2904V34.2895Z" fill="#5D5D5D"/>
</svg>
