<svg width="53" height="53" viewBox="0 0 53 53" fill="none" xmlns="http://www.w3.org/2000/svg">
<g clip-path="url(#clip0_876_2082)">
<path d="M27.0058 52.5753C12.7508 52.5644 0.961676 40.7725 0.957033 26.5203C0.952389 12.1705 12.5929 0.545833 26.9392 0.575251C41.2097 0.604669 52.9849 12.4043 52.957 26.6457C52.9292 40.9846 41.3181 52.5876 27.0058 52.5753ZM46.3303 15.7735C46.239 15.84 46.1631 15.8927 46.0904 15.9469C45.3922 16.4857 44.7344 16.6328 44.691 15.3554C44.6879 15.2796 44.6616 15.2037 44.6523 15.1278C44.5718 14.4388 44.1291 14.0858 43.5115 13.8969C42.8846 13.7049 42.3629 13.8814 41.9636 14.3831C41.6756 14.7454 41.4326 15.1418 41.1493 15.5072C40.476 16.3742 39.1989 16.7365 38.1742 16.3634C37.3894 16.0785 36.8863 15.2826 36.9343 14.4017C36.973 13.6801 37.2795 13.3891 38.2717 13.1537C38.7315 13.0453 39.2098 12.9246 39.4652 12.5096C40.007 11.6255 40.702 10.8839 41.4605 10.1934C41.6137 10.054 41.6741 9.93479 41.4775 9.77531C40.9744 9.36656 40.4915 8.92993 39.8522 8.53976C39.9946 8.94542 40.1277 9.25972 40.2159 9.58487C40.4326 10.3838 40.1308 10.8916 39.3321 11.1161C38.7578 11.2772 38.185 11.2431 37.6123 11.1146C36.6123 10.8885 36.3585 10.2661 36.9436 9.4161C37.4405 8.69614 38.1216 8.21152 39.0318 7.97308C38.8955 7.87244 38.8104 7.80121 38.7191 7.74393C35.4421 5.70171 31.8772 4.57608 28.0181 4.39648C27.159 4.35622 27.1467 4.37171 27.2736 5.19231C27.4083 6.06556 27.2333 6.81804 26.4423 7.30885C25.6467 7.80121 24.848 7.69128 24.1034 7.18963C23.704 6.92177 23.3403 6.59973 22.9811 6.27768C22.5617 5.90453 22.0973 5.76828 21.54 5.85963C21.0849 5.93395 20.5849 6.05162 20.1716 5.83022C19.6686 5.56081 19.263 5.72803 18.8094 5.89679C18.4844 6.01756 18.4116 6.13059 18.5726 6.47276C18.9426 7.25156 18.845 7.57052 18.181 8.13255C18.0339 8.25797 17.8776 8.37254 17.7352 8.50105C17.4333 8.77201 17.0788 9.03522 17.2398 9.51674C17.4039 10.0091 17.7537 10.3265 18.2723 10.4287C18.8868 10.551 19.4534 10.3745 20.0168 10.15C20.8202 9.8295 21.3496 9.18695 21.9332 8.5955C22.6483 7.87244 23.2737 7.82908 24.0926 8.43293C24.865 9.0027 25.4517 9.75054 25.9455 10.5603C26.3588 11.2416 26.1993 11.7602 25.512 12.1674C24.9068 12.5251 24.2288 12.6923 23.5554 12.8549C22.5864 13.0887 21.6964 13.4618 20.9115 14.0982C20.1918 14.6819 19.8589 15.3322 20.1902 16.2689C20.523 17.2103 20.2537 18.0154 19.4812 18.6471C19.1825 18.8918 18.8822 19.1333 18.5757 19.3686C17.8575 19.9198 17.6005 20.629 17.8079 21.5161C17.8869 21.8537 17.9565 22.199 17.9736 22.5427C17.9968 23.0103 18.1578 23.5862 17.6237 23.8448C17.0912 24.1018 16.6253 23.7364 16.3049 23.3586C15.164 22.007 13.7724 22.2671 12.3762 22.7254C11.5821 22.987 11.2911 23.6126 11.4676 24.4301C11.7013 25.5061 12.3576 26.2973 13.2477 26.9027C13.9845 27.4028 14.7554 27.4508 15.534 26.991C15.8498 26.8052 16.164 26.6163 16.4721 26.4181C17.1392 25.9892 17.8358 25.9226 18.5695 26.2184C19.0757 26.4227 19.6004 26.5776 20.1469 26.511C21.4177 26.3562 22.4471 26.83 23.3573 27.6645C24.1576 28.3968 25.0213 29.0363 25.9903 29.5379C27.0166 30.0706 28.0646 30.5722 28.9872 31.2829C29.7859 31.8991 30.4237 32.633 30.6156 33.6626C31.1218 36.3877 30.3246 38.6482 28.2054 40.4442C27.4408 41.093 26.6343 41.6984 25.947 42.4354C24.4997 43.9852 23.5523 45.7782 23.2845 47.9071C23.2257 48.37 23.3991 48.5233 23.8325 48.5512C24.6018 48.6007 25.3696 48.737 26.1389 48.7525C32.9669 48.8887 38.7113 46.4579 43.4047 41.4878C44.1632 40.6858 44.6647 39.9147 44.1694 38.8046C44.1616 38.7875 44.1632 38.7659 44.1616 38.7473C44.0951 35.7854 43.1307 32.9551 42.9062 30.0133C42.8304 29.0162 42.2948 28.6275 41.2979 28.6864C40.7221 28.7204 40.1478 28.818 39.5797 28.9217C38.1293 29.1896 36.7346 29.0843 35.4235 28.3612C32.4066 26.6968 31.9112 23.3416 34.3167 20.9108C34.5737 20.6506 34.843 20.3905 35.0489 20.0917C36.7423 17.6237 36.6789 17.5927 39.8723 17.0617C39.9296 17.0524 39.9868 17.0462 40.0441 17.0322C41.736 16.6049 43.2096 16.9161 44.4047 18.2724C44.722 18.6332 45.1399 18.8964 45.609 19.0528C46.0888 19.2138 46.5068 19.0853 46.7978 18.6982C47.0222 18.3994 47.4943 18.1733 47.304 17.6918C47.0439 17.0307 46.7312 16.3897 46.3318 15.7642L46.3303 15.7735ZM5.55442 20.8597C2.36721 31.9285 8.96608 44.0301 19.6128 47.4503C19.0618 45.3694 18.811 43.2668 18.5803 41.1611C18.4364 39.845 17.8172 38.8371 16.6903 38.1388C16.3467 37.9251 16.017 37.6882 15.6826 37.4591C14.839 36.88 14.3746 36.0857 14.2291 35.067C14.082 34.0404 14.2678 33.0247 14.2569 32.0029C14.2368 30.2765 13.4783 29.0564 11.8576 28.4046C11.4815 28.2544 11.1115 28.0918 10.7307 27.9556C9.55894 27.5375 8.78962 26.751 8.22771 25.6254C7.42433 24.012 6.4708 22.4746 5.55597 20.8597H5.55442Z" fill="#5E5E5E"/>
</g>
<defs>
<clipPath id="clip0_876_2082">
<rect width="52" height="52" fill="white" transform="translate(0.957031 0.575195)"/>
</clipPath>
</defs>
</svg>
