<svg width="17" height="18" viewBox="0 0 17 18" fill="none" xmlns="http://www.w3.org/2000/svg">
<path d="M13.2368 1V2.6M3.76316 1V2.6M1.39474 5.8H15.6053M1 9.19456C1 5.70875 1 3.96582 1.98852 2.88291C2.97703 1.8 4.56802 1.8 7.75 1.8H9.25C12.432 1.8 14.023 1.8 15.0115 2.88291C16 3.96582 16 5.70875 16 9.19456V9.60544C16 13.0913 16 14.8342 15.0115 15.9171C14.023 17 12.432 17 9.25 17H7.75C4.56802 17 2.97703 17 1.98852 15.9171C1 14.8342 1 13.0913 1 9.60544V9.19456Z" stroke="#9F96B7" stroke-width="1.5" stroke-linecap="round" stroke-linejoin="round"/>
</svg>
