<svg width="51" height="57" viewBox="0 0 51 57" fill="none" xmlns="http://www.w3.org/2000/svg">
<g clip-path="url(#clip0_742_15290)">
<path d="M0.0107196 20.8391C0.0107196 18.7127 -0.00567854 16.5862 0.0143636 14.4597C0.0544479 10.3058 2.70366 7.12897 6.74488 6.33705C9.55079 5.78711 12.3549 5.22066 15.1589 4.65972C15.7456 4.5424 16.2795 4.29859 16.786 3.98329C18.2163 3.09604 19.6484 2.21063 21.0841 1.33438C23.9702 -0.427276 26.8763 -0.445608 29.7843 1.27389C30.9777 1.97965 32.182 2.67625 33.3226 3.4645C34.5361 4.30409 35.8716 4.70188 37.2964 4.96219C39.7288 5.40948 42.1576 5.88793 44.5699 6.43421C48.3706 7.29396 50.865 10.2765 50.9233 14.2086C50.987 18.4817 51.0872 22.7621 50.8558 27.0333C50.4823 33.9003 48.1374 40.0505 43.903 45.4345C39.3899 51.1759 33.5777 54.9632 26.5429 56.866C25.5043 57.1465 24.5587 56.9412 23.6094 56.6314C11.2161 52.604 3.52721 44.2228 0.648425 31.4237C-0.135042 27.9371 0.0107196 24.3808 0.0107196 20.8391ZM4.37444 20.8574C4.37991 23.873 4.20682 26.9087 4.79351 29.8857C6.86696 40.408 12.865 47.6746 22.7385 51.7479C24.5879 52.5105 26.3297 52.7103 28.1408 51.7607C28.6419 51.4986 29.2012 51.3556 29.7132 51.1099C39.5885 46.3951 45.2331 38.5675 46.4247 27.6493C46.913 23.1745 46.5869 18.6467 46.5559 14.1444C46.5431 12.359 45.3333 11.0702 43.586 10.7055C41.3413 10.2362 39.102 9.73388 36.8427 9.35442C34.5652 8.97312 32.4571 8.25269 30.5568 6.90533C29.6312 6.24906 28.6218 5.71195 27.6598 5.10517C26.2058 4.18677 24.7701 4.1776 23.3088 5.10517C21.9077 5.99425 20.4756 6.8375 19.0708 7.72108C18.1161 8.32052 17.0994 8.74031 15.9934 8.96212C13.1893 9.52124 10.3834 10.0785 7.58301 10.6596C5.45854 11.1014 4.38173 12.4451 4.37627 14.6156C4.3708 16.6962 4.37627 18.7768 4.37627 20.8574H4.37444Z" fill="#263238"/>
<path d="M16.044 30.0213C16.0549 29.0827 16.4831 28.388 17.3321 28.0232C18.1703 27.6639 18.9956 27.7702 19.6752 28.4136C20.5006 29.1982 21.3205 29.9938 22.0821 30.8389C22.483 31.2843 22.6889 31.2037 23.0697 30.8169C26.1871 27.6492 29.3301 24.509 32.4567 21.3523C33.0361 20.7676 33.6793 20.4156 34.521 20.5439C36.1955 20.8006 36.9571 22.718 35.913 24.0562C35.76 24.2524 35.5778 24.4284 35.4011 24.6062C31.7552 28.2761 28.1094 31.9443 24.4617 35.6124C23.1243 36.9561 22.0147 36.9488 20.6646 35.5923C19.3637 34.2834 18.0646 32.9708 16.76 31.6656C16.3045 31.2092 16.0239 30.6849 16.044 30.0213Z" fill="#263238"/>
</g>
<defs>
<clipPath id="clip0_742_15290">
<rect width="51" height="57" fill="white"/>
</clipPath>
</defs>
</svg>
