<svg width="198" height="122" viewBox="0 0 198 122" fill="none" xmlns="http://www.w3.org/2000/svg">
<g clip-path="url(#clip0_828_4)">
<path d="M89.1275 62.6259C90.9944 62.8852 92.7178 63.5191 94.2258 64.4555C94.2258 64.4555 96.6098 66.2419 98.8501 65.5792L102.958 35.268C103.345 32.3579 101.32 29.6927 98.4193 29.2893L69.2082 25.3131C68.4327 23.0369 70.2853 20.5446 70.2853 20.5446C71.2188 19.0319 71.8507 17.3031 72.1092 15.4303C73.0858 8.22705 68.0449 1.58566 60.8642 0.620428C53.6835 -0.359212 47.0629 4.69746 46.1007 11.9007C45.8422 13.7735 46.0145 15.6176 46.5028 17.3175C46.5028 17.3175 47.623 20.2132 46.273 22.2013L17.0619 18.2251C14.1609 17.8362 11.5041 19.8675 11.1019 22.7776L0.0436621 104.39C-0.344096 107.3 1.68086 109.966 4.58187 110.369L85.9536 121.448C88.8546 121.837 91.5115 119.805 91.9136 116.895L95.7624 88.4567C93.7806 87.2178 91.0088 88.3127 91.0088 88.3127C89.2998 88.8025 87.4759 88.9609 85.6089 88.716C78.4282 87.7364 73.3874 81.1094 74.3639 73.9062C75.3405 66.7029 81.9468 61.6463 89.1275 62.6259Z" fill="#713FFF"/>
</g>
<g clip-path="url(#clip1_828_4)">
<path d="M187.646 22.4908L159.134 24.1293C158.297 26.2806 159.898 28.7597 159.898 28.7597C160.706 30.3127 161.211 32.0509 161.326 33.9173C161.744 41.0554 156.235 47.1818 149.01 47.595C141.784 48.0082 135.583 42.5656 135.165 35.4276C135.049 33.5754 135.352 31.7802 135.972 30.1417C135.972 30.1417 137.27 27.4917 136.189 25.4543L105.802 27.2067C102.888 27.3777 100.667 29.8425 100.84 32.7205L102.557 61.7428C100.48 62.9253 97.6965 61.6003 97.6965 61.6003C96.0379 60.9877 94.2352 60.6885 92.3459 60.8025C85.1206 61.2299 79.597 67.3563 80.0296 74.4944C80.4479 81.6324 86.6493 87.075 93.8747 86.6618C95.7495 86.5478 97.5234 86.0491 99.0954 85.2513C99.0954 85.2513 101.706 83.627 103.912 84.5531L105.629 113.575C105.802 116.453 108.297 118.648 111.21 118.477L193.054 113.761C195.967 113.59 198.188 111.125 198.015 108.247L193.242 27.392C193.069 24.5139 190.574 22.3198 187.66 22.4908H187.646Z" fill="#3F97FF"/>
</g>
<defs>
<clipPath id="clip0_828_4">
<rect width="103" height="121" fill="white" transform="translate(0 0.490723)"/>
</clipPath>
<clipPath id="clip1_828_4">
<rect width="118" height="96" fill="white" transform="translate(80 22.4907)"/>
</clipPath>
</defs>
</svg>
