<svg width="40" height="40" viewBox="0 0 40 40" fill="none" xmlns="http://www.w3.org/2000/svg">
<path d="M1.33301 19.1113C1.33301 28.9293 9.65433 36.8896 19.9165 36.8896C21.1231 36.8912 22.3264 36.7795 23.5117 36.5571C24.3648 36.3967 24.7914 36.3166 25.0892 36.3622C25.387 36.4077 25.809 36.632 26.653 37.081C29.0407 38.3508 31.8249 38.7992 34.5025 38.3012C33.4848 37.0494 32.7898 35.5475 32.4831 33.9374C32.2972 32.9525 32.7577 31.9958 33.4474 31.2954C36.5797 28.1146 38.5 23.8285 38.5 19.1113C38.5 9.29338 30.1787 1.33301 19.9165 1.33301C9.65433 1.33301 1.33301 9.29338 1.33301 19.1113Z" stroke="#CAB7FF" stroke-width="1.25" stroke-linejoin="round"/>
<path d="M21.5595 21.2284C21.5595 22.4652 21.5595 23.0836 21.9673 23.4678C22.375 23.8521 23.0314 23.8521 24.3442 23.8521C25.6569 23.8521 26.3133 23.8521 26.7211 23.4678C27.1289 23.0836 27.1289 22.4652 27.1289 21.2284C27.1289 19.9916 27.1289 19.3733 26.7211 18.989C26.3133 18.6048 25.6569 18.6048 24.3442 18.6048C23.0314 18.6048 22.375 18.6048 21.9673 18.989C21.5595 19.3733 21.5595 19.9916 21.5595 21.2284ZM21.5595 21.2284V18.5147C21.5595 16.1095 23.3108 14.0697 25.7365 13.3575M12.6989 21.2284C12.6989 22.4652 12.6989 23.0836 13.1068 23.4678C13.5146 23.8521 14.1709 23.8521 15.4837 23.8521C16.7964 23.8521 17.4528 23.8521 17.8605 23.4678C18.2684 23.0836 18.2684 22.4652 18.2684 21.2284C18.2684 19.9916 18.2684 19.3733 17.8605 18.989C17.4528 18.6048 16.7964 18.6048 15.4837 18.6048C14.1709 18.6048 13.5146 18.6048 13.1068 18.989C12.6989 19.3733 12.6989 19.9916 12.6989 21.2284ZM12.6989 21.2284V18.5147C12.6989 16.1095 14.4503 14.0697 16.876 13.3575" stroke="#CAB7FF" stroke-width="1.25" stroke-linecap="round"/>
</svg>
