<svg width="63" height="63" viewBox="0 0 63 63" fill="none" xmlns="http://www.w3.org/2000/svg">
<circle cx="31.75" cy="31.5732" r="31" fill="#696969"/>
<path d="M35.788 40L39.252 46H36.944L33.48 40H28.532L25.068 46H22.76L26.224 40H20C19.7348 40 19.4804 39.8946 19.2929 39.7071C19.1054 39.5196 19 39.2652 19 39V22H17C16.7348 22 16.4804 21.8946 16.2929 21.7071C16.1054 21.5196 16 21.2652 16 21C16 20.7348 16.1054 20.4804 16.2929 20.2929C16.4804 20.1054 16.7348 20 17 20H45C45.2652 20 45.5196 20.1054 45.7071 20.2929C45.8946 20.4804 46 20.7348 46 21C46 21.2652 45.8946 21.5196 45.7071 21.7071C45.5196 21.8946 45.2652 22 45 22H43V39C43 39.2652 42.8946 39.5196 42.7071 39.7071C42.5196 39.8946 42.2652 40 42 40H35.788ZM41 22H21V38H41V22ZM26 30C26.2652 30 26.5196 30.1054 26.7071 30.2929C26.8946 30.4804 27 30.7348 27 31V33C27 33.2652 26.8946 33.5196 26.7071 33.7071C26.5196 33.8946 26.2652 34 26 34C25.7348 34 25.4804 33.8946 25.2929 33.7071C25.1054 33.5196 25 33.2652 25 33V31C25 30.7348 25.1054 30.4804 25.2929 30.2929C25.4804 30.1054 25.7348 30 26 30ZM31 28C31.2652 28 31.5196 28.1054 31.7071 28.2929C31.8946 28.4804 32 28.7348 32 29V33C32 33.2652 31.8946 33.5196 31.7071 33.7071C31.5196 33.8946 31.2652 34 31 34C30.7348 34 30.4804 33.8946 30.2929 33.7071C30.1054 33.5196 30 33.2652 30 33V29C30 28.7348 30.1054 28.4804 30.2929 28.2929C30.4804 28.1054 30.7348 28 31 28ZM36 26C36.2652 26 36.5196 26.1054 36.7071 26.2929C36.8946 26.4804 37 26.7348 37 27V33C37 33.2652 36.8946 33.5196 36.7071 33.7071C36.5196 33.8946 36.2652 34 36 34C35.7348 34 35.4804 33.8946 35.2929 33.7071C35.1054 33.5196 35 33.2652 35 33V27C35 26.7348 35.1054 26.4804 35.2929 26.2929C35.4804 26.1054 35.7348 26 36 26Z" fill="white"/>
</svg>
