<svg width="66" height="70" viewBox="0 0 66 70" fill="none" xmlns="http://www.w3.org/2000/svg">
<g clip-path="url(#clip0_876_2070)">
<path d="M33.0028 69.343C27.3865 69.343 21.7702 69.3249 16.1539 69.3631C15.3636 69.3691 15.2188 69.134 15.2269 68.4026C15.2651 65.045 15.2229 61.6873 15.243 58.3297C15.3073 47.9634 24.5753 39.7632 34.8789 40.9427C44.0524 41.9936 50.7565 49.4925 50.7646 58.7155C50.7686 61.9968 50.7545 65.2801 50.7887 68.5614C50.7947 69.1823 50.6399 69.3591 50.0045 69.3551C44.3379 69.3289 38.6713 69.341 33.0048 69.341L33.0028 69.343Z" fill="#713FFF"/>
<path d="M32.9744 0.888324C40.6317 0.854164 46.9136 7.07515 46.9739 14.7489C47.0322 22.4247 40.7584 28.7602 33.0749 28.7863C25.3674 28.8124 19.0734 22.5814 19.0392 14.8855C19.003 7.20375 25.2588 0.922483 32.9744 0.888324Z" fill="#713FFF"/>
<path d="M63.008 23.1539C63.022 27.8397 60.2491 31.989 55.8453 33.8698C51.5079 35.7224 46.2134 34.8102 42.9437 31.6635C42.6361 31.3661 42.5878 31.2335 42.994 30.9683C47.9286 27.7432 50.8464 23.2081 51.7472 17.387C52.0328 15.5424 52.0348 13.6898 51.701 11.8492C51.5823 11.1982 51.7211 11.0475 52.4068 11.1419C58.5218 11.9818 62.9919 17.0233 63.01 23.1539H63.008Z" fill="#713FFF"/>
<path d="M15.8755 34.8245C8.6787 34.8345 3.30774 29.9477 3.04432 23.998C2.74872 17.3189 7.50236 11.6847 13.8989 11.108C14.7515 11.0316 14.3412 11.6083 14.301 11.8776C13.7963 15.3276 14.1884 18.6692 15.4894 21.8962C17.0137 25.6799 19.5011 28.6859 22.9316 30.8901C23.4725 31.2378 23.4082 31.4005 22.9798 31.7702C20.6694 33.7655 17.999 34.7943 15.8755 34.8245Z" fill="#713FFF"/>
<path d="M13.8829 46.6914C12.1596 49.3759 11.0336 52.2151 10.5027 55.2834C10.2674 56.6437 10.1548 58.0141 10.1548 59.3945C10.1548 62.4749 10.1407 65.5552 10.1669 68.6356C10.1709 69.1922 10.0241 69.363 9.45706 69.357C6.54938 69.3288 3.64371 69.3308 0.736021 69.357C0.18706 69.361 -0.00397065 69.2284 0.0181487 68.6497C0.120702 65.9531 -0.23924 63.2284 0.35396 60.562C1.93851 53.4247 6.28797 48.8353 13.2797 46.7295C13.3983 46.6934 13.525 46.6793 13.6497 46.6652C13.6959 46.6592 13.7442 46.6773 13.887 46.6974L13.8829 46.6914Z" fill="#713FFF"/>
<path d="M52.131 46.6313C53.7819 46.9528 55.2337 47.4954 56.583 48.263C62.5472 51.6608 65.7102 56.7907 65.9696 63.6627C66.032 65.3385 65.9676 67.0203 65.9917 68.6982C65.9998 69.1724 65.8832 69.3552 65.3724 69.3512C62.4144 69.3311 59.4565 69.3271 56.4965 69.3512C55.9375 69.3552 55.843 69.1402 55.847 68.6479C55.8651 65.7163 55.837 62.7846 55.8611 59.855C55.8973 55.2073 54.7712 50.8892 52.2717 46.9488C52.2335 46.8885 52.2114 46.8182 52.127 46.6313H52.131Z" fill="#713FFF"/>
</g>
<defs>
<clipPath id="clip0_876_2070">
<rect width="66" height="68.475" fill="white" transform="translate(0 0.888184)"/>
</clipPath>
</defs>
</svg>
