<svg width="56" height="56" viewBox="0 0 56 56" fill="none" xmlns="http://www.w3.org/2000/svg">
<path d="M48.022 0.574678C48.2418 0.8704 48.2519 1.20488 48.2073 1.54941C47.4805 7.23273 46.4205 12.8543 44.9554 18.3941C44.7873 19.0315 44.9224 19.4607 45.4179 19.9014C48.3093 22.4753 51.4593 24.666 54.9195 26.403C55.4064 26.647 55.55 26.9815 55.4825 27.4811C55.4165 27.9749 55.2254 28.4041 54.9022 28.7845C52.3225 31.825 49.0131 33.4831 45.089 33.997C41.8456 34.4219 38.6167 34.1348 35.3863 33.8334C31.8916 33.5075 28.4055 33.0653 24.8807 33.3324C20.9608 33.6295 17.4834 34.9158 14.6681 37.7481C14.6308 37.7854 14.5848 37.8113 14.5345 37.8486C14.3148 37.7179 14.3421 37.4739 14.2889 37.2858C11.8686 28.6439 9.49287 19.989 7.00077 11.3685C6.68908 10.2876 7.01801 9.80953 7.71752 9.21378C10.0215 7.24996 12.6902 6.14459 15.6678 5.72828C18.6899 5.30623 21.7092 5.51151 24.7284 5.7857C28.4012 6.11875 32.0625 6.60396 35.7684 6.38863C40.4725 6.11444 44.4369 4.36164 47.4604 0.670859C47.4805 0.646455 47.4791 0.60626 47.4877 0.573242C47.6673 0.573242 47.8468 0.573242 48.0249 0.573242L48.022 0.574678Z" fill="#5E5E5E"/>
<path d="M0.5 11.7505C0.874892 10.6782 1.57153 9.9891 2.75223 9.91158C3.91569 9.83406 4.81054 10.4743 5.14234 11.6443C6.1794 15.3064 7.20353 18.9727 8.2291 22.6391C11.0171 32.6047 13.8008 42.5702 16.5902 52.5357C16.7626 53.1502 16.833 53.7301 16.5773 54.3632C16.2139 55.2676 13.7347 55.9423 12.9792 55.3537C12.5296 55.0034 12.2567 54.5871 12.1059 54.0488C10.3578 47.7827 8.60256 41.518 6.85162 35.2532C4.79905 27.9033 2.74792 20.5533 0.688164 13.2047C0.642201 13.0396 0.652255 12.8444 0.5 12.7166V11.7491V11.7505Z" fill="#5E5E5E"/>
</svg>
