<svg width="48" height="45" viewBox="0 0 48 45" fill="none" xmlns="http://www.w3.org/2000/svg">
<path d="M43.5556 7.94118H35.5556V6.17647C35.5556 4.53837 34.9 2.96736 33.7331 1.80905C32.5662 0.650734 30.9836 0 29.3333 0H18.6667C17.0164 0 15.4338 0.650734 14.2669 1.80905C13.1 2.96736 12.4444 4.53837 12.4444 6.17647V7.94118H4.44444C3.2657 7.94118 2.13524 8.40599 1.30175 9.23335C0.468253 10.0607 0 11.1829 0 12.3529V40.5882C0 41.7583 0.468253 42.8805 1.30175 43.7078C2.13524 44.5352 3.2657 45 4.44444 45H43.5556C44.7343 45 45.8648 44.5352 46.6983 43.7078C47.5317 42.8805 48 41.7583 48 40.5882V12.3529C48 11.1829 47.5317 10.0607 46.6983 9.23335C45.8648 8.40599 44.7343 7.94118 43.5556 7.94118ZM17.7778 6.17647C17.7778 5.94246 17.8714 5.71803 18.0381 5.55255C18.2048 5.38708 18.4309 5.29412 18.6667 5.29412H29.3333C29.5691 5.29412 29.7952 5.38708 29.9619 5.55255C30.1286 5.71803 30.2222 5.94246 30.2222 6.17647V7.94118H17.7778V6.17647ZM42.6667 39.7059H5.33333V13.2353H42.6667V39.7059ZM32 26.4706C32 27.1726 31.719 27.8459 31.219 28.3423C30.7189 28.8388 30.0406 29.1176 29.3333 29.1176H26.6667V31.7647C26.6667 32.4668 26.3857 33.14 25.8856 33.6365C25.3855 34.1329 24.7072 34.4118 24 34.4118C23.2928 34.4118 22.6145 34.1329 22.1144 33.6365C21.6143 33.14 21.3333 32.4668 21.3333 31.7647V29.1176H18.6667C17.9594 29.1176 17.2811 28.8388 16.781 28.3423C16.281 27.8459 16 27.1726 16 26.4706C16 25.7685 16.281 25.0953 16.781 24.5988C17.2811 24.1024 17.9594 23.8235 18.6667 23.8235H21.3333V21.1765C21.3333 20.4744 21.6143 19.8011 22.1144 19.3047C22.6145 18.8083 23.2928 18.5294 24 18.5294C24.7072 18.5294 25.3855 18.8083 25.8856 19.3047C26.3857 19.8011 26.6667 20.4744 26.6667 21.1765V23.8235H29.3333C30.0406 23.8235 30.7189 24.1024 31.219 24.5988C31.719 25.0953 32 25.7685 32 26.4706Z" fill="#5D5D5D"/>
</svg>
