<svg width="61" height="51" viewBox="0 0 61 51" fill="none" xmlns="http://www.w3.org/2000/svg">
<path d="M60.197 27.6V46.2366C59.9583 46.8473 59.8002 47.5081 59.4684 48.0608C58.436 49.7801 56.8671 50.4957 54.8875 50.4941C38.6286 50.48 22.3698 50.4863 6.11093 50.4863C5.91715 50.4863 5.72493 50.4832 5.53115 50.4753C2.93295 50.3689 0.813785 48.2612 0.798283 45.6432C0.765728 39.7854 0.785881 33.926 0.78278 28.0682C0.78278 27.5358 0.973459 27.1146 1.45093 26.8625C1.92685 26.6104 2.38417 26.6809 2.81049 26.9972C3.80108 27.73 4.91105 27.9946 6.13264 27.9915C12.3584 27.9727 18.5826 27.9821 24.8083 27.9821H25.5292C25.5292 29.1972 25.5245 30.3277 25.5292 31.4582C25.5354 32.5324 25.9927 32.9912 27.0499 32.9928C29.273 32.9959 31.496 32.9928 33.7206 32.9928C35.06 32.9928 35.4475 32.6029 35.4491 31.2547C35.4491 30.1868 35.4491 29.1173 35.4491 27.9821C35.7436 27.9821 35.9715 27.9821 36.1979 27.9821C42.4422 27.9821 48.6865 27.9758 54.9309 27.9883C56.0253 27.9899 57.033 27.7597 57.9507 27.1443C58.9894 26.4475 59.5413 26.565 60.1939 27.6H60.197Z" fill="#5E5E5E"/>
<path d="M60.1971 12.2453V21.1534C60.1691 21.2223 60.1335 21.2912 60.1149 21.3617C59.3599 24.1708 57.6593 25.4892 54.7867 25.4892C48.5812 25.4892 42.374 25.4892 36.1684 25.4892H35.4507C35.4507 25.0664 35.4615 24.7173 35.4491 24.3696C35.415 23.4708 34.9562 23.0058 34.0632 23.0027C31.6852 22.9933 29.3071 22.9933 26.929 23.0027C26.0051 23.0058 25.5571 23.4724 25.5323 24.4182C25.523 24.7611 25.5323 25.1056 25.5323 25.4908C25.3214 25.4908 25.1897 25.4908 25.0564 25.4908C18.6368 25.4908 12.2189 25.5002 5.79936 25.4861C2.93608 25.4798 0.799856 23.2892 0.787454 20.383C0.776603 18.0593 0.854114 15.7325 0.767301 13.4119C0.651034 10.3209 3.01049 7.89545 6.12336 7.97374C9.87182 8.06926 13.6249 7.99566 17.375 7.99566H18.1036C18.1036 7.19708 18.1005 6.4768 18.1036 5.75651C18.1206 2.62014 20.2088 0.503123 23.3123 0.498425C28.1072 0.490596 32.9021 0.495294 37.697 0.498425C38.0814 0.498425 38.4752 0.50782 38.8503 0.58298C41.2516 1.06996 42.8298 3.04918 42.8747 5.61089C42.8887 6.38598 42.8763 7.1595 42.8763 7.99566C43.1801 7.99566 43.4065 7.99566 43.6343 7.99566C47.5781 7.99879 51.5235 7.97531 55.4657 8.01915C57.5663 8.04264 59.3599 9.49887 59.9738 11.5313C60.0451 11.7693 60.1211 12.0073 60.1955 12.2453H60.1971ZM23.0798 7.94869H37.8783V5.5232H23.0798V7.94869Z" fill="#5E5E5E"/>
</svg>
