<svg width="47" height="47" viewBox="0 0 47 47" fill="none" xmlns="http://www.w3.org/2000/svg">
<path d="M13.7083 19.4144L25.4583 31.1644V46.0208C25.4583 46.2805 25.3552 46.5296 25.1715 46.7132C24.9879 46.8968 24.7389 47 24.4792 47H3.91667C2.8779 47 1.88168 46.5874 1.14716 45.8528C0.412647 45.1183 0 44.1221 0 43.0833V3.91667C0 2.8779 0.412647 1.88168 1.14716 1.14716C1.88168 0.412647 2.8779 0 3.91667 0H8.8125C9.07219 0 9.32125 0.103162 9.50488 0.286791C9.68851 0.470421 9.79167 0.719476 9.79167 0.979167V29.7128C8.48504 30.1748 7.38379 31.0838 6.68255 32.2792C5.98132 33.4746 5.72525 34.8794 5.95961 36.2453C6.19396 37.6112 6.90366 38.8503 7.96325 39.7436C9.02284 40.6369 10.3641 41.1268 11.75 41.1268C13.1359 41.1268 14.4772 40.6369 15.5367 39.7436C16.5963 38.8503 17.306 37.6112 17.5404 36.2453C17.7747 34.8794 17.5187 33.4746 16.8174 32.2792C16.1162 31.0838 15.015 30.1748 13.7083 29.7128V19.4144ZM11.75 37.2083C12.1373 37.2083 12.5159 37.0935 12.838 36.8783C13.16 36.6631 13.411 36.3573 13.5593 35.9994C13.7075 35.6416 13.7463 35.2478 13.6707 34.8679C13.5951 34.4881 13.4086 34.1391 13.1348 33.8652C12.8609 33.5914 12.5119 33.4049 12.1321 33.3293C11.7522 33.2537 11.3584 33.2925 11.0006 33.4407C10.6427 33.589 10.3369 33.84 10.1217 34.162C9.90652 34.4841 9.79167 34.8627 9.79167 35.25C9.79167 35.7694 9.99799 36.2675 10.3652 36.6348C10.7325 37.002 11.2306 37.2083 11.75 37.2083ZM37.2083 17.625C37.2083 17.2377 37.0935 16.8591 36.8783 16.537C36.6631 16.215 36.3573 15.964 35.9994 15.8157C35.6416 15.6675 35.2478 15.6287 34.8679 15.7043C34.4881 15.7799 34.1391 15.9664 33.8652 16.2402C33.5914 16.5141 33.4049 16.8631 33.3293 17.2429C33.2537 17.6228 33.2925 18.0166 33.4407 18.3744C33.589 18.7323 33.84 19.0381 34.162 19.2533C34.4841 19.4685 34.8627 19.5833 35.25 19.5833C35.7694 19.5833 36.2675 19.377 36.6348 19.0098C37.002 18.6425 37.2083 18.1444 37.2083 17.625ZM43.0833 0H30.3542C30.0945 0 29.8454 0.103162 29.6618 0.286791C29.4782 0.470421 29.375 0.719476 29.375 0.979167V8.98141L32.7189 12.3253C33.9694 11.7278 35.3909 11.5917 36.7321 11.9411C38.0733 12.2904 39.2479 13.1026 40.0481 14.2342C40.8483 15.3657 41.2228 16.7438 41.1052 18.1248C40.9876 19.5057 40.3856 20.8006 39.4056 21.7806C38.4256 22.7606 37.1307 23.3626 35.7498 23.4802C34.3688 23.5978 32.9907 23.2233 31.8592 22.4231C30.7276 21.6229 29.9154 20.4483 29.5661 19.1071C29.2167 17.7659 29.3528 16.3444 29.9503 15.0939L26.0336 11.1772C25.8514 10.9954 25.7067 10.7794 25.608 10.5417C25.5093 10.304 25.4585 10.0491 25.4583 9.79167V0.979167C25.4583 0.719476 25.3552 0.470421 25.1715 0.286791C24.9879 0.103162 24.7389 0 24.4792 0H14.6875C14.4278 0 14.1788 0.103162 13.9951 0.286791C13.8115 0.470421 13.7083 0.719476 13.7083 0.979167V13.8772L28.8022 28.9686C28.984 29.1506 29.1282 29.3667 29.2264 29.6044C29.3247 29.8421 29.3752 30.0969 29.375 30.3542V46.0208C29.375 46.2805 29.4782 46.5296 29.6618 46.7132C29.8454 46.8968 30.0945 47 30.3542 47H43.0833C44.1221 47 45.1183 46.5874 45.8528 45.8528C46.5874 45.1183 47 44.1221 47 43.0833V3.91667C47 2.8779 46.5874 1.88168 45.8528 1.14716C45.1183 0.412647 44.1221 0 43.0833 0Z" fill="#5D5D5D"/>
</svg>
