<svg width="61" height="51" viewBox="0 0 61 51" fill="none" xmlns="http://www.w3.org/2000/svg">
<path d="M60.0763 5.37705C58.2994 8.68232 56.5256 11.9907 54.7316 15.2867C54.6462 15.4435 54.3868 15.5973 54.2082 15.5989C50.76 15.6175 47.3103 15.6175 43.8621 15.5973C43.6726 15.5973 43.4024 15.4156 43.3076 15.2432C41.6146 12.1553 39.9371 9.0582 38.2705 5.95485C37.7269 4.94215 37.963 4.01176 38.9182 3.45105C42.1878 1.53281 45.6825 0.391188 49.5143 0.501468C53.0246 0.602427 56.2383 1.70211 59.2127 3.51784C59.5777 3.73995 59.792 4.20902 60.0763 4.56316V5.37705Z" fill="#5E5E5E"/>
<path d="M34.2647 23.1895C34.2539 30.5751 28.246 36.5535 20.8542 36.5348C13.4717 36.5162 7.50106 30.5036 7.52436 23.1087C7.54766 15.7511 13.5416 9.78822 20.9054 9.79444C28.2972 9.8022 34.2756 15.7961 34.2632 23.1895H34.2647ZM24.3847 16.6721C24.2806 15.9017 23.8845 15.2835 23.2368 14.9993C22.5518 14.698 21.8156 14.8502 21.2207 15.4435C18.5321 18.126 15.8466 20.8099 13.1657 23.5001C12.4046 24.2643 12.386 25.3407 13.0942 26.0412C13.787 26.7277 14.8509 26.7246 15.5918 25.9884C18.3115 23.2842 21.0281 20.5754 23.7214 17.8433C24.0259 17.5342 24.1672 17.0667 24.3847 16.6721ZM27.2519 19.7677C27.0391 19.8749 26.5732 19.9898 26.2796 20.2787C23.5055 23.0109 20.7579 25.7694 18.0102 28.5295C17.5365 29.0063 17.3951 29.5981 17.5955 30.2458C18.0009 31.5598 19.5526 31.8907 20.5808 30.8717C22.7538 28.7159 24.9128 26.546 27.0764 24.3808C27.6387 23.8185 28.218 23.2734 28.7523 22.6878C29.2556 22.1364 29.3472 21.4778 29.0428 20.796C28.7461 20.1312 28.1978 19.8159 27.2519 19.7677Z" fill="#5E5E5E"/>
<path d="M19.332 40.0232H12.824C12.1266 40.0232 11.423 39.9642 10.7333 40.0372C9.81383 40.135 9.11177 39.8027 8.41903 39.2373C3.03088 34.8416 0.356221 29.1848 0.573673 22.2341C0.86568 12.8992 8.08664 4.70434 17.3019 3.15111C27.912 1.36179 37.7952 7.67722 40.5771 18.0264C42.7516 26.1156 39.5209 34.9675 32.637 39.7638C32.4568 39.8896 32.2238 40.0108 32.0141 40.0123C28.9139 40.0248 25.8136 40.017 22.7134 40.0123C22.6171 40.0123 22.5223 39.9953 22.3655 39.9797C31.6538 39.0866 38.3963 31.0828 37.6943 22.0461C36.9767 12.8013 29.6113 6.17059 20.469 6.31193C11.7849 6.44707 4.50645 13.4972 4.05601 22.2527C3.58694 31.3562 10.314 39.0851 19.3305 40.0248L19.332 40.0232Z" fill="#5E5E5E"/>
<path d="M20.8946 43.512C26.9785 43.512 33.0625 43.512 39.1465 43.512C40.6765 43.512 41.4282 44.3818 41.203 45.8899C40.7961 48.6174 38.679 50.4813 35.922 50.4844C25.9053 50.4937 15.8869 50.4937 5.87017 50.4844C3.01689 50.4813 0.716559 48.3472 0.559683 45.6026C0.483575 44.2839 1.20272 43.5135 2.52607 43.5135C8.6489 43.512 14.7717 43.5135 20.8946 43.5135V43.512Z" fill="#5E5E5E"/>
<path d="M44.6698 27.832H53.3601C53.371 28.0277 53.3881 28.2126 53.3881 28.3974C53.3881 34.208 53.3943 40.0187 53.3865 45.8293C53.3834 48.302 51.9638 50.0432 49.6665 50.4377C47.3367 50.8384 44.9711 49.0538 44.7195 46.7006C44.6869 46.3931 44.6714 46.0825 44.6714 45.7734C44.6683 40.0016 44.6698 34.2298 44.6698 28.458V27.832Z" fill="#5E5E5E"/>
<path d="M44.704 24.3047V19.1169H53.357V24.3047H44.704Z" fill="#5E5E5E"/>
</svg>
