<svg width="62" height="62" viewBox="0 0 62 62" fill="none" xmlns="http://www.w3.org/2000/svg">
<path d="M56.7071 62C57.2929 61.6679 57.3991 61.1342 57.3991 60.511C57.39 51.1494 57.3961 41.7862 57.3839 32.4246C57.3839 31.9606 57.5084 31.7392 57.95 31.5254C58.648 31.1873 59.3582 30.7854 59.9136 30.2547C61.5237 28.7172 62.2886 26.8279 61.9031 24.5762C61.5768 22.6702 61.1823 20.7733 60.8864 18.8628C60.7604 18.0455 60.425 17.4041 59.8985 16.7854C57.7542 14.2654 55.6388 11.7195 53.5355 9.16452C53.3397 8.92797 53.2122 8.56103 53.2092 8.25322C53.1819 5.95299 53.1956 3.65277 53.194 1.35254C53.191 0.330553 52.8693 0 51.8616 0C37.9702 0 24.0803 0 10.1889 0C9.17215 0 8.8474 0.326005 8.84588 1.33889C8.84285 3.59818 8.8307 5.85898 8.8565 8.11827C8.86257 8.59742 8.71841 8.95072 8.41491 9.30857C6.20387 11.9318 4.00042 14.561 1.81974 17.2085C1.55114 17.5345 1.35386 17.9636 1.25977 18.376C1.03669 19.3571 0.906189 20.3594 0.718018 21.3495C0.488873 22.5504 0.239994 23.7468 0.000225067 24.9447V26.1562C0.0396805 26.3108 0.0852089 26.464 0.118595 26.6202C0.602684 28.9067 1.88348 30.5732 4.03532 31.5072C4.53004 31.7225 4.65903 31.9757 4.65751 32.4882C4.64082 41.8287 4.64841 51.1706 4.6393 60.511C4.6393 61.1327 4.74553 61.6679 5.33129 62M25.9909 60.0516V59.1994C25.9909 52.2168 25.9909 45.2343 25.9909 38.2517C25.9909 36.8233 25.7815 36.6186 24.3277 36.6186C20.1272 36.6186 15.9267 36.6186 11.7277 36.6186C10.3604 36.6186 10.1373 36.84 10.1373 38.1956C10.1373 45.2191 10.1373 52.2411 10.1373 59.2646V60.0091H6.65913V32.1516C9.11549 31.8322 11.2385 30.7723 13.0282 28.9719C14.4713 31.0796 16.4639 32.1046 19.027 32.1016C21.584 32.0986 23.5598 31.0417 25.009 28.9431C27.689 33.1782 34.3873 33.1645 37.0339 28.9462C38.4831 31.0493 40.465 32.1001 43.0281 32.1016C45.5867 32.1016 47.5731 31.0675 49.0451 28.9295C50.5763 31.1797 52.6978 32.1971 55.3671 32.1001V60.0516H25.9924H25.9909ZM12.1313 43.859H23.9893V60.0045H12.1313V43.859ZM51.2076 7.94086H10.8308V1.9818H51.2076V7.94086ZM3.10053 19.1751H12.7474C12.7474 19.2964 12.755 19.3768 12.7474 19.4556C12.4804 21.6952 12.2633 23.9424 11.9143 26.1683C11.8005 26.8931 11.4545 27.6406 11.0266 28.2441C9.48779 30.4185 6.54987 30.5064 4.75312 29.7013C2.80006 28.8264 1.84554 27.0644 2.00943 25.4511C2.22188 23.3571 2.71963 21.2919 3.10053 19.1736V19.1751ZM49.2591 19.2115C49.3486 19.1736 49.3835 19.1448 49.4199 19.1448C52.4641 19.1403 55.5098 19.1312 58.5539 19.1524C58.7057 19.1524 58.9561 19.3859 58.9895 19.5466C59.255 20.8476 59.4902 22.1562 59.7118 23.4647C59.8423 24.235 60.0881 25.0265 60.0168 25.7832C59.7831 28.2987 58.0926 29.8848 55.5568 30.1274C53.0013 30.37 50.8328 29.0235 50.2288 26.6611C49.9177 25.442 49.8631 24.1547 49.7037 22.8976C49.5474 21.6649 49.4048 20.4306 49.2591 19.2115ZM47.259 19.166C47.4183 20.3988 47.5822 21.6149 47.7309 22.8324C47.8448 23.771 48.0663 24.7202 48.0162 25.6528C47.8827 28.1183 46.2165 29.7953 43.7247 30.1031C40.4301 30.5095 38.0795 28.2744 38.0127 25.4663C37.9793 24.0152 37.864 22.5656 37.7836 21.1145C37.7487 20.4761 37.7077 19.8378 37.6682 19.166H47.259ZM24.3383 19.1569C24.3383 19.4299 24.3489 19.6482 24.3368 19.8666C24.2305 21.7604 24.1334 23.6543 24.006 25.5466C23.833 28.1289 22.2047 29.812 19.6203 30.1152C16.9995 30.423 14.7718 29.0417 14.1709 26.5792C13.969 25.7528 14.098 24.8249 14.183 23.9545C14.3378 22.3548 14.5715 20.7642 14.7748 19.1569H24.3383ZM35.6423 19.1691C35.6757 19.2358 35.7076 19.2707 35.7091 19.3055C35.8062 21.0978 35.9185 22.8885 35.9883 24.6823C36.0126 25.301 36.0263 25.9484 35.8745 26.5398C35.2129 29.1114 32.9973 30.4549 30.1489 30.0773C27.689 29.7513 25.9347 27.7468 26.0121 25.298C26.0592 23.7862 26.1684 22.2775 26.2489 20.7657C26.2777 20.2305 26.3096 19.6952 26.3384 19.1691H35.6408H35.6423ZM34.3965 9.95603C34.7622 12.3669 35.1233 14.7475 35.4845 17.1357H26.5493C26.9181 14.7142 27.2777 12.3457 27.6404 9.95603H34.3949H34.3965ZM37.477 17.1706C37.1083 14.7445 36.7456 12.3639 36.3753 9.92873C38.5317 9.92873 40.6274 9.91964 42.7231 9.94845C42.887 9.94996 43.107 10.1941 43.1981 10.3776C44.2422 12.467 45.268 14.5656 46.2969 16.6641C46.3728 16.8188 46.4304 16.9826 46.5078 17.1721H37.4785L37.477 17.1706ZM15.5124 17.1585C15.6171 16.9295 15.7036 16.7324 15.7977 16.5398C16.561 14.9856 17.3228 13.4299 18.0906 11.8772C18.4033 11.2464 18.5763 10.373 19.0877 10.0607C19.6203 9.73465 20.4868 9.93631 21.2061 9.93177C22.6751 9.92267 24.1456 9.92873 25.6616 9.92873C25.2898 12.373 24.9256 14.7536 24.5599 17.1585H15.5124ZM4.45416 17.1888C4.53459 17.0402 4.55887 16.9674 4.6044 16.9128C6.47551 14.6702 8.34358 12.423 10.2344 10.1956C10.3725 10.0334 10.6791 9.94086 10.9082 9.93935C12.7232 9.91812 14.5366 9.92722 16.3516 9.93025C16.4988 9.93025 16.6444 9.95451 16.8432 9.97271C15.6854 12.3275 14.5669 14.6217 13.4151 16.8992C13.3332 17.0599 13.0024 17.1751 12.7854 17.1766C10.245 17.1964 7.7047 17.1888 5.16436 17.1888C4.95191 17.1888 4.73946 17.1888 4.45113 17.1888H4.45416ZM45.1769 9.9257C47.2119 9.9257 49.1605 9.91054 51.109 9.94238C51.3806 9.94693 51.7296 10.1122 51.9057 10.3184C53.7343 12.4655 55.5341 14.6368 57.3399 16.8036C57.4188 16.8992 57.4674 17.0205 57.563 17.1857C54.6827 17.1857 51.8829 17.1933 49.0846 17.1676C48.8994 17.166 48.6384 16.9386 48.5428 16.7506C47.696 15.0826 46.8766 13.3995 46.051 11.721C45.7703 11.1494 45.4926 10.5747 45.1769 9.9257ZM23.9938 41.8014H12.1389V38.6429H23.9938V41.8014Z" fill="#878787"/>
<path d="M40.3433 36.6172C37.1534 36.6172 33.9621 36.6172 30.7723 36.6172C29.5749 36.6172 29.3033 36.8871 29.3033 38.0698C29.3033 41.8833 29.3033 45.6983 29.3033 49.5118C29.3033 50.6536 29.5977 50.9523 30.7282 50.9523C37.1899 50.9523 43.6515 50.9538 50.1131 50.9523C51.2164 50.9523 51.5199 50.6506 51.5199 49.5558C51.5214 45.7014 51.5214 41.8469 51.5199 37.9925C51.5199 36.925 51.2209 36.6202 50.1571 36.6187C46.8853 36.6142 43.6151 36.6172 40.3433 36.6172ZM49.5456 48.9417H31.2958V38.6354H49.5456V48.9417Z" fill="#878787"/>
<path d="M30.9014 3.98773C25.37 3.98773 19.8386 3.98773 14.3073 3.98773C14.0857 3.98773 13.8581 3.97257 13.6426 4.01199C13.1494 4.10297 12.8474 4.4032 12.8277 4.91722C12.8064 5.46157 13.1008 5.78909 13.6168 5.90737C13.8095 5.95134 14.0189 5.93618 14.2192 5.93618C25.3215 5.93618 36.4252 5.93618 47.5274 5.93618C47.7095 5.93618 47.8931 5.94527 48.0722 5.92101C48.614 5.84975 48.9645 5.45399 48.9554 4.943C48.9463 4.42897 48.5912 4.05596 48.0388 3.99834C47.8385 3.97712 47.6351 3.98773 47.4333 3.98773C41.9217 3.98773 36.4115 3.98773 30.8999 3.98773H30.9014Z" fill="#878787"/>
</svg>
