<svg width="58" height="51" viewBox="0 0 58 51" fill="none" xmlns="http://www.w3.org/2000/svg">
<path d="M0.383789 18.038C0.560707 17.3585 0.679765 16.6566 0.924557 16.0028C2.47565 11.8707 6.95757 10.3236 10.7218 12.6006C14.6084 14.9516 16.1128 20.239 14.012 24.1583C12.2039 27.5292 8.0647 28.6598 4.79116 26.6828C2.33545 25.1984 0.943473 23.0075 0.482819 20.1864C0.468354 20.1002 0.418283 20.0196 0.383789 19.9367C0.383789 19.3031 0.383789 18.6706 0.383789 18.0369V18.038Z" fill="#5E5E5E"/>
<path d="M7.55175 41.6046C7.55731 39.8828 8.04467 38.3043 8.96376 36.859C10.9966 33.6618 12.9873 30.4365 15.0813 27.2806C18.0244 22.844 22.207 20.6274 27.5001 20.8704C31.8897 21.0719 35.4892 23.0567 37.9983 26.6962C40.3461 30.1029 42.557 33.6136 44.6912 37.1613C47.9848 42.6368 44.571 49.6057 38.2587 50.4162C36.8678 50.5953 35.4792 50.4789 34.1696 49.9303C31.5603 48.8377 28.8765 48.1839 26.0247 48.3126C23.7971 48.4134 21.6918 48.9765 19.6367 49.8161C15.1525 51.6476 10.1877 49.5956 8.25052 45.1333C7.76205 44.007 7.55175 42.826 7.55286 41.6035L7.55175 41.6046Z" fill="#5E5E5E"/>
<path d="M14.2056 9.81868C14.2591 7.1845 15.1748 4.63652 17.3123 2.63486C20.6092 -0.452717 25.337 -0.166126 28.4225 3.27297C31.7528 6.98411 31.7061 13.3138 28.3213 16.9768C24.7128 20.8827 18.9402 20.408 15.9804 15.967C14.792 14.1836 14.2246 12.2166 14.2045 9.81868H14.2056Z" fill="#5E5E5E"/>
<path d="M47.5508 12.5559C47.3639 16.3566 46.1099 19.1072 43.3192 20.989C39.1633 23.7934 34.1562 22.0861 32.4583 17.3328C30.9038 12.9835 32.9935 7.77336 37.1015 5.75378C40.9603 3.85735 45.4256 5.65862 46.8988 9.76719C47.2693 10.8005 47.4073 11.9189 47.5508 12.5547V12.5559Z" fill="#5E5E5E"/>
<path d="M48.8449 35.3433C45.2075 35.266 42.3512 32.465 42.2455 28.8121C42.1242 24.6755 44.7691 21.0025 48.609 19.9031C53.2589 18.572 57.6707 21.9485 57.2001 27.2459C56.874 30.9089 54.3727 33.9237 50.9078 34.9615C50.2424 35.1608 49.5347 35.219 48.846 35.3421L48.8449 35.3433Z" fill="#5E5E5E"/>
</svg>
