<svg width="68" height="69" viewBox="0 0 68 69" fill="none" xmlns="http://www.w3.org/2000/svg">
<g clip-path="url(#clip0_876_2077)">
<path d="M0 64.8976C1.12822 64.8976 2.25821 64.8674 3.38466 64.9118C3.90442 64.9313 3.99489 64.7539 3.99311 64.2767C3.97715 58.014 3.99311 51.7514 3.9665 45.487C3.96296 44.8448 4.11906 44.6887 4.75945 44.6958C8.27715 44.7313 11.7966 44.7259 15.3143 44.6993C15.8997 44.694 16.0842 44.82 16.0824 45.4462C16.0558 51.6876 16.0771 57.9289 16.0505 64.1684C16.047 64.8 16.2403 64.9402 16.8222 64.91C17.7269 64.8639 18.6369 64.8763 19.5434 64.9082C19.9602 64.9224 20.0649 64.7894 20.0596 64.3849C20.0365 62.8574 20.0507 61.3316 20.0507 59.8041C20.0507 51.04 20.056 42.2759 20.0383 33.5118C20.0383 32.9245 20.1607 32.7382 20.7851 32.7436C24.2815 32.7773 27.778 32.7791 31.2744 32.7436C31.9112 32.7365 32.0159 32.9423 32.0141 33.5171C31.9981 43.72 32.0088 53.9212 31.9857 64.1241C31.9857 64.7681 32.1383 64.9544 32.7804 64.9136C33.7064 64.8533 34.6377 64.8887 35.5673 64.9029C35.8759 64.9082 36.0196 64.8213 35.9877 64.4949C35.9682 64.298 35.9841 64.0975 35.9841 63.897C35.9841 56.4386 35.9966 48.9803 35.9646 41.5219C35.9611 40.8193 36.1704 40.7076 36.8072 40.7129C40.3037 40.743 43.8001 40.7395 47.2965 40.7147C47.8269 40.7111 47.9475 40.8619 47.9457 41.3746C47.9298 48.9661 47.9404 56.5557 47.9209 64.1472C47.9209 64.7379 48.0451 64.9544 48.6713 64.9118C49.5086 64.8532 50.3565 64.8497 51.192 64.9118C51.8377 64.9615 51.9335 64.7078 51.93 64.1365C51.9087 59.2683 51.9176 54.3984 51.9176 49.5302C51.9176 41.5183 51.9247 33.5082 51.9034 25.4963C51.9034 24.9038 52.0542 24.7725 52.6307 24.776C56.1715 24.8044 59.7122 24.8044 63.253 24.776C63.8455 24.7707 64.0175 24.9073 64.0175 25.5265C63.998 38.3853 64.0087 51.2423 63.9838 64.101C63.9838 64.8018 64.1843 64.9491 64.8265 64.91C65.7312 64.855 66.6412 64.91 67.5477 64.8887C67.9042 64.8799 68 65.0023 67.9929 65.3447C67.9734 66.3843 67.977 67.4257 67.9929 68.4653C67.9982 68.7758 67.906 68.9177 67.5814 68.884C67.4057 68.8663 67.2284 68.8805 67.051 68.8805C44.7012 68.8805 22.3515 68.8805 0.00177393 68.8805V64.8958L0 64.8976Z" fill="#713FFF"/>
<path d="M67.9854 0.887695C67.9854 5.97763 67.9748 11.0676 67.9996 16.1575C68.0032 16.7252 67.84 16.8636 67.2989 16.8352C66.3942 16.7891 65.4842 16.7962 64.5777 16.8352C64.1094 16.8547 63.987 16.7128 63.9906 16.2462C64.0136 13.5691 64.0012 10.8901 64.0012 8.21301C64.0012 8.10479 64.0012 7.99657 64.0012 7.8369C63.705 7.90254 63.5772 8.11898 63.4193 8.27688C56.4336 15.2172 49.4461 22.1558 42.4763 29.1121C42.0754 29.513 41.8803 29.5485 41.4581 29.1245C36.5159 24.1463 31.5401 19.2001 26.6032 14.2184C26.1083 13.7199 25.8812 13.7944 25.4324 14.2414C18.2746 21.3858 11.0956 28.5071 3.93952 35.6532C3.50491 36.0879 3.2672 36.0914 2.86984 35.6444C2.29864 35.0004 1.67599 34.3954 1.0427 33.8117C0.679043 33.4782 0.629373 33.2795 1.02141 32.8909C8.91007 25.0689 16.7792 17.2291 24.6608 9.39989C25.1096 8.95459 25.5069 8.15446 26.0533 8.18995C26.5252 8.22011 26.9562 8.95636 27.3926 9.39279C32.1042 14.1013 36.8157 18.808 41.5149 23.5289C41.8484 23.8642 42.0293 23.921 42.3983 23.5538C48.4935 17.4739 54.6047 11.4117 60.7088 5.34249C60.8259 5.2254 60.9944 5.14024 61.0245 4.87235C60.7106 4.87235 60.4108 4.87235 60.1092 4.87235C57.5636 4.87235 55.0198 4.86348 52.4742 4.88122C52.0573 4.88477 51.8977 4.79252 51.9101 4.34012C51.942 3.19049 51.9207 2.03909 51.9207 0.889469H67.9872L67.9854 0.887695Z" fill="#713FFF"/>
</g>
<defs>
<clipPath id="clip0_876_2077">
<rect width="68" height="68" fill="white" transform="translate(0 0.887695)"/>
</clipPath>
</defs>
</svg>
