<svg width="18" height="18" viewBox="0 0 18 18" fill="none" xmlns="http://www.w3.org/2000/svg">
<path d="M5.40001 8.99999H10.2M5.40001 5.79999H7.80001M6.20001 15.4C7.04031 16.0957 8.05161 16.539 9.21081 16.615C10.1242 16.6749 11.0777 16.6749 11.9892 16.615C12.3031 16.5945 12.6452 16.5205 12.9399 16.4008C13.2676 16.2676 13.4316 16.2009 13.515 16.211C13.5983 16.2211 13.7191 16.3091 13.9609 16.485C14.3871 16.7952 14.9241 17.018 15.7204 16.9989C16.1231 16.9892 16.3244 16.9843 16.4145 16.8327C16.5047 16.681 16.3924 16.4711 16.1679 16.0513C15.8565 15.4689 15.6592 14.8023 15.9582 14.2681C16.4731 13.5052 16.9103 12.6017 16.9743 11.6258C17.0086 11.1015 17.0086 10.5585 16.9743 10.0341C16.9317 9.38391 16.7739 8.76583 16.521 8.19999M9.27601 13.3894C12.1205 13.2021 14.3863 10.9255 14.5727 8.06751C14.6091 7.50823 14.6091 6.92904 14.5727 6.36974C14.3863 3.51174 12.1205 1.23521 9.27601 1.04788C8.30561 0.983976 7.29243 0.984104 6.324 1.04788C3.47955 1.23521 1.2138 3.51174 1.02736 6.36974C0.99088 6.92904 0.99088 7.50823 1.02736 8.06751C1.09526 9.10847 1.55994 10.0722 2.10698 10.8861C2.42461 11.4557 2.21499 12.1669 1.88415 12.788C1.6456 13.2358 1.52633 13.4597 1.6221 13.6215C1.71786 13.7833 1.93178 13.7885 2.35961 13.7988C3.2057 13.8192 3.77623 13.5815 4.22911 13.2507C4.48596 13.063 4.61439 12.9692 4.7029 12.9585C4.79141 12.9477 4.9656 13.0187 5.31393 13.1609C5.627 13.2886 5.9905 13.3674 6.324 13.3894C7.29243 13.4532 8.30561 13.4533 9.27601 13.3894Z" stroke="#9F96B7" stroke-width="1.5" stroke-linecap="round" stroke-linejoin="round"/>
</svg>
