<svg width="17" height="17" viewBox="0 0 17 17" fill="none" xmlns="http://www.w3.org/2000/svg">
<path d="M9.85096 1.90138C10.2569 1.9837 10.6527 1.72134 10.735 1.31539C10.8174 0.909435 10.555 0.513616 10.149 0.431301L9.85096 1.90138ZM16.585 6.86062C16.5026 6.4547 16.1066 6.19246 15.7007 6.27491C15.2948 6.35735 15.0326 6.75325 15.115 7.15918L16.585 6.86062ZM9.23637 7.32995C9.41312 7.70455 9.86009 7.86494 10.2347 7.68818C10.6093 7.51143 10.7697 7.06446 10.5929 6.68985L9.23637 7.32995ZM9.25 5.51153C9.25 5.09732 8.91421 4.76153 8.5 4.76153C8.08579 4.76153 7.75 5.09732 7.75 5.51153H9.25ZM7.76364 9.68657C7.58689 9.31196 7.13993 9.15156 6.76532 9.32831C6.39071 9.50506 6.23031 9.95202 6.40706 10.3266L7.76364 9.68657ZM7.75 11.5049C7.75 11.9192 8.08579 12.2549 8.5 12.2549C8.91421 12.2549 9.25 11.9192 9.25 11.5049H7.75ZM16.5265 1.53047C16.8195 1.23765 16.8196 0.762778 16.5268 0.469808C16.234 0.176839 15.7591 0.176715 15.4661 0.469531L16.5265 1.53047ZM12.3343 3.59975C12.0413 3.89256 12.0412 4.36744 12.334 4.66041C12.6268 4.95338 13.1017 4.9535 13.3947 4.66068L12.3343 3.59975ZM12.9958 1.36221C12.9799 0.948296 12.6315 0.625598 12.2176 0.641441C11.8037 0.657284 11.481 1.00567 11.4969 1.41958L12.9958 1.36221ZM12.335 3.70696H13.085C13.085 3.6974 13.0848 3.68783 13.0844 3.67827L12.335 3.70696ZM13.2557 4.63586L13.2017 5.38392C13.2079 5.38437 13.2142 5.38474 13.2205 5.38504L13.2557 4.63586ZM15.5636 5.49506C15.9773 5.51448 16.3285 5.19482 16.3479 4.78106C16.3674 4.3673 16.0477 4.01614 15.6339 3.99671L15.5636 5.49506ZM10.149 0.431301C9.61561 0.323137 9.06401 0.266478 8.5 0.266478V1.76648C8.96334 1.76648 9.41509 1.813 9.85096 1.90138L10.149 0.431301ZM8.5 0.266478C3.94443 0.266478 0.25 3.95567 0.25 8.50825H1.75C1.75 4.78565 4.7713 1.76648 8.5 1.76648V0.266478ZM0.25 8.50825C0.25 13.0608 3.94442 16.75 8.5 16.75V15.25C4.7713 15.25 1.75 12.2308 1.75 8.50825H0.25ZM8.5 16.75C13.0555 16.75 16.75 13.0608 16.75 8.50825H15.25C15.25 12.2308 12.2287 15.25 8.5 15.25V16.75ZM16.75 8.50825C16.75 7.9447 16.6932 7.39355 16.585 6.86062L15.115 7.15918C15.2034 7.5945 15.25 8.04565 15.25 8.50825H16.75ZM8.5 5.51071C7.93938 5.51071 7.40292 5.68 6.98965 5.98961C6.57618 6.29938 6.25 6.78479 6.25 7.38445H7.75C7.75 7.3635 7.7596 7.28704 7.88901 7.19009C8.01863 7.09299 8.23217 7.01071 8.5 7.01071V5.51071ZM6.25 7.38445C6.25 7.9841 6.57616 8.46953 6.98963 8.77931C7.4029 9.08894 7.93937 9.25825 8.5 9.25825V7.75825C8.23218 7.75825 8.01865 7.67597 7.88903 7.57886C7.75961 7.4819 7.75 7.40542 7.75 7.38445H6.25ZM8.5 9.25825C8.76782 9.25825 8.98136 9.34053 9.11098 9.43764C9.24042 9.53461 9.25 9.61107 9.25 9.63198H10.75C10.75 9.03233 10.4238 8.54693 10.0104 8.23717C9.59709 7.92756 9.06063 7.75825 8.5 7.75825V9.25825ZM9.25 9.63198C9.25 9.65295 9.24039 9.72942 9.11097 9.82639C8.98135 9.9235 8.76782 10.0058 8.5 10.0058V11.5058C9.06063 11.5058 9.5971 11.3365 10.0104 11.0268C10.4238 10.7171 10.75 10.2316 10.75 9.63198H9.25ZM8.5 7.01071C8.95107 7.01071 9.18794 7.22731 9.23637 7.32995L10.5929 6.68985C10.2295 5.91953 9.35513 5.51071 8.5 5.51071V7.01071ZM9.25 6.26071V5.51153H7.75V6.26071H9.25ZM8.5 10.0058C8.0489 10.0058 7.81206 9.78919 7.76364 9.68657L6.40706 10.3266C6.77054 11.097 7.6449 11.5058 8.5 11.5058V10.0058ZM7.75 10.7558V11.5049H9.25V10.7558H7.75ZM15.4661 0.469531L12.3343 3.59975L13.3947 4.66068L16.5265 1.53047L15.4661 0.469531ZM11.4969 1.41958L11.5855 3.73565L13.0844 3.67827L12.9958 1.36221L11.4969 1.41958ZM11.585 3.70696C11.585 4.13296 11.716 4.55853 12.0375 4.88571C12.3541 5.20792 12.7753 5.35315 13.2017 5.38392L13.3097 3.88781C13.2262 3.88179 13.1735 3.86679 13.1437 3.85468C13.129 3.84872 13.1199 3.84347 13.1149 3.84015C13.1099 3.83691 13.1079 3.83486 13.1074 3.83436C13.1069 3.83389 13.1065 3.83338 13.1057 3.83212C13.1048 3.83079 13.1026 3.82695 13.0998 3.81934C13.0943 3.80406 13.085 3.76913 13.085 3.70696H11.585ZM13.2205 5.38504L15.5636 5.49506L15.6339 3.99671L13.2909 3.88669L13.2205 5.38504Z" fill="#9F96B7"/>
</svg>
