<svg width="21" height="19" viewBox="0 0 21 19" fill="none" xmlns="http://www.w3.org/2000/svg">
<path d="M10.5005 15.336L10.7484 15.478L15.8408 18.3938L15.8409 18.3939C16.1265 18.5575 16.4383 18.5195 16.6647 18.3636C16.8893 18.209 17.0014 17.9627 16.9352 17.6926L10.5005 15.336ZM10.5005 15.336L10.2523 15.4776L5.15995 18.3818L5.15907 18.3823C4.87346 18.5459 4.56165 18.5078 4.33528 18.352C4.11065 18.1973 3.99854 17.9509 4.06486 17.6808C4.06487 17.6808 4.06487 17.6808 4.06488 17.6808L5.4146 12.1979L5.48996 11.8918L5.2462 11.6918L0.742851 7.99775L0.742673 7.9976C0.305721 7.63951 0.485624 6.90099 1.16272 6.85L1.16272 6.85001L1.16522 6.8498L7.09198 6.37352L7.38698 6.34981L7.50812 6.07979L9.82729 0.910378L9.82818 0.908378C10.0696 0.363874 10.9304 0.363874 11.1718 0.908379L11.1725 0.909993L13.4917 6.09103L13.6127 6.36141L13.908 6.38514L19.8348 6.86143L19.8373 6.86162C20.5144 6.91261 20.6943 7.65113 20.2573 8.00922L20.2571 8.00937L15.7538 11.7035L15.51 11.9034L15.5854 12.2096L16.9351 17.6924L10.5005 15.336Z" fill="url(#paint0_linear_571_54)" stroke="#713FFF"/>
<defs>
<linearGradient id="paint0_linear_571_54" x1="0" y1="9.5" x2="21" y2="9.5" gradientUnits="userSpaceOnUse">
<stop stop-color="#AC8EFF"/>
<stop offset="1" stop-color="#E8E0FF"/>
</linearGradient>
</defs>
</svg>
