<svg width="62" height="63" viewBox="0 0 62 63" fill="none" xmlns="http://www.w3.org/2000/svg">
<circle cx="31" cy="31.1396" r="31" fill="#696969"/>
<path d="M40.9617 22.0974C38.3722 19.4789 34.8667 18.0087 31.2123 18.0087C27.558 18.0087 24.0525 19.4789 21.463 22.0974L19.4703 24.1211V19.2543C19.4703 18.9217 19.3401 18.6026 19.1085 18.3674C18.8769 18.1322 18.5627 18 18.2351 18C17.9076 18 17.5934 18.1322 17.3618 18.3674C17.1301 18.6026 17 18.9217 17 19.2543V27.1816C17 27.5158 17.1296 27.8366 17.3607 28.0745C17.5919 28.3124 17.9061 28.4483 18.2351 28.4527H26.0577C26.3853 28.4527 26.6994 28.3205 26.9311 28.0853C27.1627 27.85 27.2928 27.531 27.2928 27.1983C27.2928 26.8657 27.1627 26.5466 26.9311 26.3114C26.6994 26.0762 26.3853 25.944 26.0577 25.944H21.1171L23.2086 23.8702C25.3328 21.7174 28.2113 20.5083 31.2123 20.5083C34.2134 20.5083 37.0918 21.7174 39.216 23.8702C49.41 35.0587 34.2755 50.4785 23.2086 40.1262C22.977 39.8913 22.6631 39.7594 22.3358 39.7594C22.0085 39.7594 21.6946 39.8913 21.463 40.1262C21.3464 40.2415 21.2538 40.3793 21.1906 40.5316C21.1274 40.6838 21.0948 40.8474 21.0948 41.0126C21.0948 41.1778 21.1274 41.3414 21.1906 41.4936C21.2538 41.6458 21.3464 41.7837 21.463 41.899C24.0487 44.5248 27.5556 46 31.2123 46C34.869 46 38.376 44.5248 40.9617 41.899C43.5474 39.2731 45 35.7117 45 31.9982C45 28.2847 43.5474 24.7233 40.9617 22.0974Z" fill="white"/>
<path d="M30.9982 24.8904C30.672 24.8947 30.3603 25.0283 30.1296 25.2626C29.8989 25.4969 29.7674 25.8134 29.7631 26.1447V31.9982C29.7634 32.3308 29.8937 32.6496 30.1254 32.8846L34.2919 37.0155C34.406 37.1327 34.5419 37.2257 34.6918 37.2889C34.8417 37.3521 35.0025 37.3842 35.1648 37.3834C35.3817 37.3513 35.5862 37.2612 35.7575 37.1224C35.9288 36.9835 36.0605 36.8008 36.1393 36.5931C36.2181 36.3854 36.2411 36.1602 36.2058 35.9405C36.1706 35.7208 36.0784 35.5146 35.9388 35.3431L32.184 31.5299V26.1447C32.1802 25.8218 32.0556 25.5124 31.8353 25.2794C31.6151 25.0465 31.3158 24.9074 30.9982 24.8904Z" fill="white"/>
</svg>
