<svg width="99" height="76" viewBox="0 0 99 76" fill="none" xmlns="http://www.w3.org/2000/svg">
<g clip-path="url(#clip0_876_2103)">
<path d="M58.0182 36.2086C58.0182 36.391 58.0265 36.5691 58.0431 36.7473H58.0182C60.1498 58.5785 75.5646 70.7622 93.87 75.5154C94.4465 75.6646 95.0519 75.3787 95.3049 74.84L98.4733 68.1472C98.7636 67.5339 98.5106 66.8045 97.9052 66.502C90.1169 62.59 83.8174 56.6763 82.4945 44.0285C82.4157 43.2909 83.0004 42.6486 83.7386 42.6486H97.7517C98.4401 42.6486 99 42.0891 99 41.4012V2.12335C99 1.43543 98.4401 0.875977 97.7517 0.875977H59.2665C58.578 0.875977 58.0182 1.43543 58.0182 2.12335V36.2086Z" fill="#713FFF"/>
<path d="M0.000846863 36.5319C0.000846863 36.7142 0.00914001 36.8924 0.0257263 37.0706H0.000846863C2.13247 58.9017 17.5473 71.0854 35.8527 75.8387C36.4291 75.9879 37.0346 75.7019 37.2876 75.1632L40.456 68.4705C40.7463 67.8571 40.4933 67.1278 39.8878 66.8253C32.0995 62.9132 25.8001 56.9996 24.4771 44.3518C24.3983 43.6141 24.9831 42.9718 25.7213 42.9718H39.7302C40.4187 42.9718 40.9785 42.4123 40.9785 41.7244V2.44659C40.9785 1.75867 40.4187 1.19922 39.7302 1.19922H1.24498C0.556561 1.19922 -0.00329971 1.75867 -0.00329971 2.44659V36.5319H0.000846863Z" fill="#713FFF"/>
</g>
<defs>
<clipPath id="clip0_876_2103">
<rect width="99" height="75" fill="white" transform="matrix(-1 0 0 1 99 0.875977)"/>
</clipPath>
</defs>
</svg>
