<svg width="49" height="44" viewBox="0 0 49 44" fill="none" xmlns="http://www.w3.org/2000/svg">
<path d="M4.27391 16.2932C3.94456 15.8848 3.71026 15.4072 3.58824 14.8955C3.46623 14.3838 3.45961 13.851 3.56887 13.3364C5.19068 5.61 13.9699 0 24.4473 0C34.9247 0 43.7039 5.61 45.3257 13.3364C45.4362 13.8514 45.4305 14.3848 45.3091 14.8973C45.1877 15.4098 44.9537 15.8883 44.6244 16.2975C44.2951 16.7067 43.8788 17.0362 43.4063 17.2616C42.9338 17.487 42.4171 17.6027 41.8944 17.6H7.00022C6.47774 17.6016 5.96157 17.485 5.48973 17.2588C5.01789 17.0327 4.60242 16.7027 4.27391 16.2932ZM46.5503 28.2656L37.5724 31.5656L29.4677 28.2854C29.0515 28.1177 28.5873 28.1177 28.1711 28.2854L20.0948 31.5436L12.0054 28.2854C11.6071 28.125 11.1642 28.118 10.7612 28.2656L1.15688 31.7856C0.75096 31.9657 0.428233 32.2947 0.254205 32.7058C0.0801767 33.117 0.0678874 33.5795 0.219831 33.9994C0.371775 34.4194 0.676566 34.7653 1.07234 34.967C1.46812 35.1688 1.92522 35.2112 2.35087 35.0856L5.23871 34.0318V35.2C5.23871 37.5339 6.15859 39.7722 7.79601 41.4225C9.43342 43.0729 11.6542 44 13.9699 44H34.9247C37.2404 44 39.4612 43.0729 41.0986 41.4225C42.736 39.7722 43.6559 37.5339 43.6559 35.2V33.0726L47.7442 31.5744C47.9735 31.5068 48.1866 31.3925 48.3702 31.2385C48.5539 31.0846 48.7043 30.8944 48.8121 30.6795C48.9199 30.4647 48.9828 30.2298 48.9969 29.9895C49.0111 29.7492 48.9762 29.5085 48.8943 29.2823C48.8125 29.0561 48.6855 28.8492 48.5212 28.6745C48.3568 28.4998 48.1587 28.3609 47.939 28.2664C47.7193 28.1719 47.4827 28.1239 47.2438 28.1253C47.0049 28.1267 46.7689 28.1774 46.5503 28.2744V28.2656ZM1.74624 24.64H47.1483C47.6115 24.64 48.0556 24.4546 48.3831 24.1245C48.7106 23.7944 48.8946 23.3468 48.8946 22.88C48.8946 22.4132 48.7106 21.9656 48.3831 21.6355C48.0556 21.3054 47.6115 21.12 47.1483 21.12H1.74624C1.2831 21.12 0.838943 21.3054 0.51146 21.6355C0.183978 21.9656 0 22.4132 0 22.88C0 23.3468 0.183978 23.7944 0.51146 24.1245C0.838943 24.4546 1.2831 24.64 1.74624 24.64Z" fill="#5D5D5D"/>
</svg>
