<svg width="62" height="63" viewBox="0 0 62 63" fill="none" xmlns="http://www.w3.org/2000/svg">
<circle cx="31" cy="31.5732" r="31" fill="#696969"/>
<path d="M20.3232 22.8414H34.9725C35.5061 22.8414 35.928 22.4392 35.928 21.9148C35.928 21.4022 35.5061 21 34.9731 21H20.3227C20.2002 20.9989 20.0786 21.0217 19.9652 21.0673C19.8518 21.1128 19.7488 21.1802 19.6621 21.2654C19.5755 21.3505 19.5071 21.4518 19.4608 21.5634C19.4145 21.6749 19.3913 21.7943 19.3926 21.9148C19.3926 22.4392 19.8018 22.8414 20.3232 22.8414ZM20.3232 29.2314H34.9725C35.5061 29.2314 35.928 28.8292 35.928 28.3053C35.928 27.7928 35.5061 27.39 34.9731 27.39H20.3227C20.2002 27.3889 20.0786 27.4117 19.9652 27.4573C19.8518 27.5028 19.7488 27.5702 19.6621 27.6554C19.5755 27.7405 19.5071 27.8418 19.4608 27.9534C19.4145 28.0649 19.3913 28.1843 19.3926 28.3048C19.3926 28.8292 19.8018 29.2314 20.3232 29.2314ZM19.9428 35.6225H43.0445C43.1693 35.6238 43.2932 35.6008 43.4089 35.5548C43.5246 35.5088 43.63 35.4408 43.7188 35.3546C43.8076 35.2684 43.8782 35.1657 43.9265 35.0526C43.9747 34.9394 43.9997 34.818 44 34.6953C44 34.1833 43.5781 33.7806 43.045 33.7806H19.9428C19.4092 33.7806 19 34.1833 19 34.6953C19 35.2078 19.4098 35.6225 19.9428 35.6225ZM19.9423 42H43.044C43.5776 42 43.9995 41.5978 43.9995 41.0858C43.9995 40.5733 43.5776 40.1586 43.0445 40.1586H19.9428C19.8187 40.1576 19.6956 40.1808 19.5807 40.2271C19.4658 40.2733 19.3614 40.3416 19.2736 40.4279C19.1859 40.5142 19.1165 40.6168 19.0695 40.7298C19.0225 40.8428 18.9989 40.9638 19 41.0858C19 41.5978 19.4092 42 19.9423 42Z" fill="white"/>
</svg>
