<svg width="69" height="67" viewBox="0 0 69 67" fill="none" xmlns="http://www.w3.org/2000/svg">
<g clip-path="url(#clip0_876_2092)">
<path d="M-0.000152593 35.745C0.0412597 35.6434 0.0988767 35.5435 0.118683 35.4364C0.507598 33.5079 1.59152 32.0771 3.29662 31.0994C6.32512 29.36 9.35541 27.6277 12.3875 25.8954C13.3094 25.3692 13.8567 25.5119 14.3897 26.4253C16.7376 30.4483 19.0801 34.473 21.4244 38.496C21.5468 38.7065 21.6621 38.9277 21.8169 39.1151C22.1734 39.5468 22.8144 39.6574 23.2753 39.3595C23.7633 39.0437 23.9469 38.5888 23.7525 38.034C23.666 37.7842 23.5274 37.5505 23.3924 37.3203C21.0625 33.3152 18.7272 29.3101 16.3955 25.3049C15.7707 24.2327 15.8463 23.8278 16.8438 23.1302C24.5393 17.7567 30.8988 11.1237 35.9763 3.26866C38.0991 -0.0139439 42.442 0.114506 44.419 3.4988C49.6441 12.4457 54.8008 21.4318 60.098 30.3377C62.0606 33.6363 60.0314 37.786 55.9118 37.8752C51.6355 37.9662 47.4187 38.5959 43.254 39.545C35.9637 41.2077 29.1019 43.9159 22.71 47.7926C20.299 49.2537 17.8341 50.6274 15.3692 51.9993C12.6936 53.489 9.57148 53.0233 7.53507 50.8843C7.13176 50.4597 6.81126 49.978 6.51957 49.4767C4.66863 46.3011 2.82488 43.1202 0.957731 39.9518C0.500395 39.1739 0.259124 38.3283 -0.00195312 37.4827C-0.00195312 36.9047 -0.00195312 36.3249 -0.00195312 35.7468L-0.000152593 35.745Z" fill="#5E5E5E"/>
<path d="M25.9694 66.0681C24.7018 66.0253 23.6089 65.5489 22.9589 64.4678C21.0414 61.2833 19.1832 58.0649 17.3233 54.8466C16.9578 54.2132 17.145 53.6316 17.7968 53.2534C20.0799 51.9315 22.3702 50.6238 24.6676 49.325C25.3752 48.9254 25.9586 49.0842 26.3763 49.7978C28.1967 52.9109 30.026 56.0169 31.7995 59.155C32.7916 60.9087 32.2173 62.9889 30.5122 64.0575C29.6227 64.6141 28.699 65.1208 27.7772 65.6239C27.2226 65.9271 26.623 66.1145 25.9694 66.0663V66.0681Z" fill="#5E5E5E"/>
<path d="M58.4183 17.7334C58.3949 17.976 58.3895 18.3792 58.3138 18.7699C58.2166 19.2748 57.8799 19.5977 57.3686 19.6887C56.8788 19.7761 56.4683 19.5888 56.2216 19.1677C54.9126 16.9448 53.6145 14.7184 52.3253 12.4848C52.0606 12.0281 52.156 11.5714 52.5089 11.1949C52.8888 10.7864 53.3552 10.7632 53.8665 10.947C56.5169 11.8943 58.4345 14.6827 58.4183 17.7352V17.7334Z" fill="#5E5E5E"/>
<path d="M66.1365 7.96436C66.6641 7.99825 67.0566 8.2391 67.2168 8.73149C67.3735 9.21139 67.2996 9.70735 66.8441 9.98209C65.7548 10.6404 64.6475 11.2755 63.5167 11.8607C63.0126 12.1211 62.5408 11.8856 62.2312 11.4396C61.9017 10.9615 61.8782 10.3906 62.3428 10.0481C63.4393 9.24172 64.6529 8.60839 65.8754 8.00182C65.951 7.96436 66.0519 7.97506 66.1347 7.96436H66.1365Z" fill="#5E5E5E"/>
<path d="M67.5768 23.0783C66.7305 22.8411 65.661 22.5877 64.6275 22.2291C64.0783 22.0383 63.9163 21.5102 64.0423 20.95C64.1612 20.4237 64.7085 20.0152 65.2649 20.1347C66.293 20.3559 67.3139 20.62 68.3114 20.9464C68.8587 21.1248 69.0748 21.619 68.9722 22.1917C68.8732 22.7447 68.387 23.098 67.575 23.0783H67.5768Z" fill="#5E5E5E"/>
<path d="M56.8745 1.51869C56.6368 2.35183 56.3919 3.3937 56.0336 4.39454C55.8428 4.92618 55.3206 5.14026 54.7517 4.98327C54.1989 4.83163 53.8298 4.43379 53.9144 3.85041C54.0693 2.77286 54.3753 1.72207 54.7553 0.705176C54.9569 0.166401 55.4737 -0.00843367 56.0444 0.11288C56.5882 0.228842 56.9195 0.724801 56.8745 1.51869Z" fill="#5E5E5E"/>
</g>
<defs>
<clipPath id="clip0_876_2092">
<rect width="69" height="66" fill="white" transform="translate(0 0.0751953)"/>
</clipPath>
</defs>
</svg>
