<svg width="47" height="47" viewBox="0 0 47 47" fill="none" xmlns="http://www.w3.org/2000/svg">
<path d="M40.1175 6.88355C36.2735 3.03927 31.2155 0.64668 25.8053 0.11338C20.395 -0.419919 14.9672 0.939069 10.4466 3.95882C5.92597 6.97857 2.59215 11.4723 1.01311 16.6744C-0.565928 21.8764 -0.292496 27.4651 1.78682 32.4882C3.86614 37.5113 7.62271 41.6581 12.4165 44.2221C17.2104 46.7861 22.7449 47.6088 28.0772 46.5499C33.4096 45.491 38.2099 42.6161 41.6603 38.4149C45.1107 34.2137 46.9977 28.9462 47 23.5098C47 17.2746 44.5245 11.2945 40.1175 6.88355ZM26.1111 25.2505H20.8889V19.8956L26.1111 17.2845V25.2505ZM36.425 36.4369C35.9165 36.943 35.3789 37.4189 34.8148 37.8622V29.6024C34.815 28.5991 34.4686 27.6266 33.8342 26.8495C33.1998 26.0723 32.3163 25.5382 31.3333 25.3375V13.0653C31.3333 12.6202 31.2194 12.1825 31.0026 11.7938C30.7858 11.405 30.4732 11.0781 30.0945 10.8442C29.7158 10.6103 29.2836 10.477 28.8389 10.4572C28.3942 10.4373 27.9518 10.5314 27.5538 10.7306L17.1093 15.9528C16.6758 16.1697 16.3113 16.503 16.0565 16.9154C15.8017 17.3277 15.6667 17.8028 15.6667 18.2876V25.3397C14.6841 25.5403 13.8009 26.0741 13.1665 26.8508C12.5321 27.6275 12.1855 28.5995 12.1852 29.6024V37.8709C11.6211 37.4276 11.0835 36.9517 10.575 36.4456C8.019 33.8894 6.27839 30.6326 5.57329 27.0871C4.86819 23.5416 5.23026 19.8667 6.61372 16.527C7.99717 13.1872 10.3399 10.3328 13.3456 8.32445C16.3513 6.31615 19.8851 5.24423 23.5 5.24423C27.1149 5.24423 30.6487 6.31615 33.6544 8.32445C36.6601 10.3328 39.0028 13.1872 40.3863 16.527C41.7697 19.8667 42.1318 23.5416 41.4267 27.0871C40.7216 30.6326 38.981 33.8894 36.425 36.4456V36.4369Z" fill="#5D5D5D"/>
</svg>
