<svg width="16" height="15" viewBox="0 0 16 15" fill="none" xmlns="http://www.w3.org/2000/svg">
<g clip-path="url(#clip0_600_2264)">
<path d="M16 10.0241C15.9389 10.3583 15.8881 10.6953 15.8153 11.0267C15.5527 12.2269 15.0898 13.3504 14.5642 14.4497C14.4746 14.6369 14.3611 14.6976 14.2069 14.6518C14.052 14.6056 13.9847 14.4988 14.0046 14.2875C14.0524 13.7818 14.0876 13.2749 14.0829 12.7675C14.0759 11.9859 14.005 11.2123 13.7655 10.4619C13.386 9.27299 12.5802 8.53592 11.454 8.12943C10.752 7.87638 10.0233 7.76511 9.28763 7.68398C9.15889 7.66992 9.14324 7.71973 9.14363 7.83219C9.14754 8.51624 9.14754 9.20029 9.1448 9.88434C9.14324 10.2748 8.97692 10.4953 8.65134 10.5499C8.49364 10.5764 8.35198 10.5367 8.22793 10.4346C8.18332 10.3981 8.14302 10.3555 8.10271 10.3141C6.62625 8.79902 5.15018 7.28351 3.67372 5.7688C3.5618 5.65392 3.45967 5.53583 3.43932 5.36512C3.4131 5.1446 3.49724 4.97389 3.64672 4.82126C4.29319 4.16211 4.93613 3.49935 5.58025 2.8382C6.42668 1.96898 7.27311 1.09936 8.12032 0.230947C8.37585 -0.0309438 8.61417 -0.0674959 8.88849 0.106428C9.03014 0.196403 9.11545 0.32293 9.13032 0.494845C9.13776 0.58 9.14519 0.665154 9.14519 0.750309C9.14637 1.4452 9.14793 2.13969 9.14363 2.83459C9.14285 2.95187 9.16789 2.99767 9.29468 3.00811C10.3031 3.09206 11.2979 3.25233 12.2546 3.6058C13.3406 4.00707 14.2848 4.614 14.9599 5.60131C15.4287 6.28656 15.6897 7.05817 15.8419 7.87357C15.9143 8.26239 15.9573 8.65442 15.9785 9.04966C15.9812 9.09666 15.9926 9.14325 16 9.19025V10.0241Z" fill="#6D6D6D"/>
<path d="M5.71708 0.911889C5.78243 1.1316 5.6482 1.2999 5.47563 1.47584C4.39988 2.5708 3.33275 3.67459 2.26248 4.77558C1.91029 5.13829 1.91107 5.42588 2.266 5.7902C3.38166 6.93537 4.49654 8.08054 5.61416 9.2233C5.69008 9.30122 5.72803 9.37754 5.72021 9.4888C5.70612 9.69084 5.73703 9.89489 5.69908 10.0965C5.62159 10.5082 5.1297 10.6994 4.80686 10.442C4.75795 10.403 4.71451 10.356 4.67029 10.3106C3.19735 8.79913 1.7248 7.28764 0.252649 5.77614C-0.085062 5.4295 -0.0842794 5.13306 0.255389 4.78441C1.73107 3.2689 3.20713 1.75339 4.68398 0.238686C4.98413 -0.0693968 5.33123 -0.0774302 5.58285 0.210971C5.68342 0.325849 5.70847 0.465631 5.71629 0.611036C5.72099 0.696191 5.71708 0.782149 5.71708 0.911889Z" fill="#6D6D6D" fill-opacity="0.5"/>
</g>
<defs>
<clipPath id="clip0_600_2264">
<rect width="16" height="14.6667" fill="white"/>
</clipPath>
</defs>
</svg>
