<svg width="53" height="53" viewBox="0 0 53 53" fill="none" xmlns="http://www.w3.org/2000/svg">
<g clip-path="url(#clip0_876_2088)">
<path d="M40.4865 52.0706C38.5231 52.0706 36.5598 52.0802 34.5964 52.0673C31.7895 52.0496 29.8133 50.2529 29.5674 47.4386C29.1095 42.1712 28.6805 36.9022 28.2596 31.6315C28.1616 30.4138 27.89 29.1994 28.1182 27.9688C28.5552 25.6012 30.5009 23.9481 32.882 23.9126C34.1256 23.8933 34.1128 23.8933 34.1288 22.6498C34.1433 21.5467 34.034 20.437 34.2638 19.342C34.9209 16.1873 37.8548 13.9971 41.0569 14.2729C44.2815 14.5503 46.8249 17.2437 46.9053 20.4758C46.9245 21.2402 46.9117 22.0047 46.9133 22.7692C46.9133 23.524 47.2834 23.9046 48.0235 23.911C49.5756 23.9223 50.8722 24.4965 51.8716 25.6948C52.707 26.6947 53.0894 27.8688 52.985 29.1639C52.4917 35.2958 51.9824 41.4261 51.4715 47.5563C51.2626 50.0739 49.2655 51.998 46.7398 52.0528C44.6575 52.098 42.572 52.0625 40.4881 52.0625C40.4881 52.0657 40.4881 52.0673 40.4881 52.0706H40.4865ZM40.5235 23.911C41.224 23.911 41.9229 23.8965 42.6218 23.9175C42.9512 23.9272 43.0781 23.8417 43.0701 23.4869C43.046 22.524 43.0797 21.5596 43.0556 20.5967C43.0203 19.2145 41.9068 18.1307 40.5444 18.1178C39.1739 18.1033 38.0411 19.1549 37.9881 20.5403C37.9512 21.5225 37.9881 22.5063 37.9672 23.4901C37.9592 23.8481 38.1022 23.9272 38.4251 23.9175C39.1241 23.8981 39.8246 23.911 40.5235 23.911Z" fill="#5E5E5E"/>
<path d="M28.4846 21.2335C27.8243 21.698 27.2186 22.1222 26.7044 22.6592C24.8326 24.6139 24.0004 26.9493 24.2156 29.6427C24.6752 35.3939 25.1604 41.1452 25.6376 46.8948C25.681 47.4158 25.6938 47.9448 25.8047 48.4528C25.9043 48.914 25.8111 49.0318 25.3323 49.0286C22.2667 49.0092 19.2012 49.0221 16.134 49.0221C12.7872 49.0221 9.44049 49.0253 6.09375 49.0221C2.47869 49.0189 0.0445461 46.5674 0.00437879 42.9241C-0.043822 38.4502 0.173082 33.9843 1.00374 29.5911C1.69141 25.9526 3.73994 23.1237 6.84247 21.0964C7.66831 20.5577 8.46362 20.7206 9.24447 21.2706C11.8537 23.1044 14.7635 23.985 17.9463 23.9043C20.8673 23.8301 23.5248 22.9302 25.9252 21.2545C26.849 20.6094 27.4853 20.6013 28.4846 21.2351V21.2335Z" fill="#5E5E5E"/>
<path d="M17.5413 0.0752332C22.6473 0.0607179 26.8087 4.22175 26.8022 9.33595C26.7958 14.4243 22.6538 18.587 17.5895 18.5934C12.4898 18.5999 8.32526 14.4324 8.33008 9.32305C8.3333 4.23143 12.4577 0.0897484 17.5413 0.0752332Z" fill="#5E5E5E"/>
</g>
<defs>
<clipPath id="clip0_876_2088">
<rect width="53" height="52" fill="white" transform="translate(0 0.0751953)"/>
</clipPath>
</defs>
</svg>
