<svg width="500" height="445" viewBox="0 0 500 445" fill="none" xmlns="http://www.w3.org/2000/svg">
<g clip-path="url(#clip0_146_1059)">
<path d="M443.92 288.921H263.17C259.94 288.921 257.31 286.291 257.31 283.061V19.7907C257.31 16.5607 259.94 13.9307 263.17 13.9307H443.92C447.15 13.9307 449.78 16.5607 449.78 19.7907V283.061C449.78 286.291 447.15 288.921 443.92 288.921ZM263.17 14.1807C260.08 14.1807 257.56 16.7007 257.56 19.7907V283.061C257.56 286.151 260.08 288.671 263.17 288.671H443.92C447.01 288.671 449.53 286.151 449.53 283.061V19.7907C449.53 16.7007 447.01 14.1807 443.92 14.1807H263.17Z" fill="#E0E0E0"/>
<path d="M235.49 288.921H54.7501C51.5201 288.921 48.8901 286.291 48.8901 283.061V19.7907C48.8901 16.5607 51.5201 13.9307 54.7501 13.9307H235.5C238.73 13.9307 241.36 16.5607 241.36 19.7907V283.061C241.36 286.291 238.73 288.921 235.5 288.921H235.49ZM54.7501 14.1807C51.6601 14.1807 49.1401 16.7007 49.1401 19.7907V283.061C49.1401 286.151 51.6601 288.671 54.7501 288.671H235.5C238.59 288.671 241.11 286.151 241.11 283.061V19.7907C241.11 16.7007 238.59 14.1807 235.5 14.1807H54.7501Z" fill="#E0E0E0"/>
<path d="M500 311.251H0V311.501H500V311.251Z" fill="#E0E0E0"/>
<path d="M67.7299 325.521H51.6699V325.771H67.7299V325.521Z" fill="#E0E0E0"/>
<path d="M223.88 322.811H170.35V323.061H223.88V322.811Z" fill="#E0E0E0"/>
<path d="M104.98 334.811H68.73V335.061H104.98V334.811Z" fill="#E0E0E0"/>
<path d="M421.54 322.681H378.35V322.931H421.54V322.681Z" fill="#E0E0E0"/>
<path d="M436.78 322.681H430.45V322.931H436.78V322.681Z" fill="#E0E0E0"/>
<path d="M370.1 328.911H316.21V329.161H370.1V328.911Z" fill="#E0E0E0"/>
<path d="M259.54 314.64C257.86 317.95 256.87 321.49 256.54 325.06L251.03 326.2L252.23 336.97L257.85 336.88C258.96 340.29 260.7 343.53 263.07 346.39L259.99 351.08L268.45 357.85L272.35 353.82C275.66 355.5 279.2 356.49 282.77 356.82L283.91 362.33L294.68 361.13L294.59 355.51C298 354.4 301.24 352.66 304.1 350.29L308.79 353.37L315.56 344.9L311.53 341C313.21 337.69 314.2 334.15 314.53 330.58L320.03 329.44L318.83 318.67L313.21 318.76C312.1 315.35 310.36 312.11 307.99 309.25L311.07 304.56L302.6 297.79L298.7 301.82C295.39 300.14 291.85 299.15 288.28 298.81L287.14 293.3L276.37 294.5L276.46 300.12C273.05 301.23 269.81 302.97 266.95 305.34L262.26 302.26L255.49 310.73L259.52 314.63L259.54 314.64ZM294.59 316.26C300.58 321.05 301.55 329.79 296.76 335.78C291.97 341.77 283.23 342.74 277.24 337.95C271.25 333.16 270.28 324.42 275.07 318.43C279.86 312.44 288.6 311.47 294.59 316.26Z" fill="#F0F0F0"/>
<path d="M204.88 311.701C203.66 314.101 202.95 316.661 202.7 319.251L198.71 320.081L199.58 327.891L203.65 327.821C204.46 330.291 205.72 332.641 207.43 334.711L205.2 338.111L211.33 343.021L214.15 340.101C216.55 341.321 219.11 342.031 221.7 342.281L222.53 346.271L230.33 345.401L230.26 341.331C232.73 340.521 235.08 339.261 237.15 337.551L240.55 339.781L245.46 333.651L242.54 330.831C243.76 328.431 244.47 325.871 244.72 323.281L248.71 322.451L247.84 314.651L243.77 314.721C242.96 312.251 241.7 309.901 239.99 307.831L242.22 304.431L236.09 299.521L233.27 302.441C230.87 301.221 228.31 300.511 225.72 300.261L224.89 296.271L217.09 297.141L217.16 301.211C214.69 302.021 212.34 303.281 210.27 304.991L206.87 302.761L201.96 308.891L204.88 311.711V311.701ZM230.27 312.881C234.61 316.351 235.31 322.681 231.84 327.021C228.37 331.361 222.04 332.061 217.7 328.591C213.36 325.121 212.66 318.791 216.13 314.451C219.6 310.111 225.93 309.411 230.27 312.881Z" fill="#F0F0F0"/>
<path d="M235.57 351.81C235.07 352.79 234.78 353.84 234.68 354.91L233.04 355.25L233.4 358.45L235.07 358.42C235.4 359.43 235.92 360.4 236.62 361.24L235.71 362.63L238.23 364.64L239.39 363.44C240.37 363.94 241.42 364.23 242.49 364.33L242.83 365.97L246.03 365.61L246 363.94C247.01 363.61 247.98 363.09 248.82 362.39L250.21 363.3L252.22 360.78L251.02 359.62C251.52 358.64 251.81 357.59 251.91 356.52L253.55 356.18L253.19 352.98L251.52 353.01C251.19 352 250.67 351.04 249.97 350.19L250.88 348.8L248.36 346.79L247.2 347.99C246.22 347.49 245.17 347.2 244.1 347.1L243.76 345.46L240.56 345.82L240.59 347.49C239.58 347.82 238.61 348.34 237.77 349.04L236.38 348.13L234.37 350.65L235.57 351.81ZM245.98 352.29C247.76 353.71 248.05 356.31 246.62 358.09C245.2 359.87 242.6 360.16 240.82 358.73C239.04 357.31 238.75 354.71 240.18 352.93C241.6 351.15 244.2 350.86 245.98 352.29Z" fill="#F0F0F0"/>
<path d="M451.401 232.355C468.108 215.649 468.108 188.562 451.401 171.855C434.695 155.149 407.608 155.149 390.901 171.855C374.195 188.562 374.195 215.649 390.901 232.355C407.608 249.062 434.695 249.062 451.401 232.355Z" fill="#EBEBEB"/>
<path d="M450.081 220.944C460.466 204.976 455.941 183.612 439.973 173.227C424.005 162.841 402.641 167.366 392.255 183.334C381.87 199.302 386.395 220.666 402.363 231.052C418.331 241.437 439.695 236.912 450.081 220.944Z" fill="white"/>
<path d="M430.119 224.494C442.491 219.54 448.505 205.495 443.551 193.124C438.598 180.752 424.553 174.738 412.181 179.691C399.809 184.645 393.795 198.69 398.749 211.061C403.702 223.433 417.747 229.447 430.119 224.494Z" fill="#F0F0F0"/>
<path d="M435.086 208.329C438.525 200.629 435.071 191.598 427.371 188.159C419.671 184.719 410.641 188.173 407.201 195.873C403.761 203.573 407.215 212.604 414.915 216.043C422.615 219.483 431.646 216.029 435.086 208.329Z" fill="#E0E0E0"/>
<path d="M427.06 200.94C427.63 204.22 425.44 207.34 422.17 207.91C418.89 208.48 415.77 206.29 415.2 203.02C414.63 199.75 416.82 196.62 420.09 196.05C423.37 195.48 426.49 197.67 427.06 200.94Z" fill="#F0F0F0"/>
<path d="M460.12 171.33L460.15 169.62C460.17 168.35 460.76 167.17 461.74 166.37L466.88 162.21L465.86 166.89L460.12 171.34V171.33Z" fill="#EBEBEB"/>
<path d="M460.08 171.091L461.72 171.601C462.93 171.981 464.24 171.801 465.31 171.121L470.89 167.571L466.13 167.061L460.09 171.091H460.08Z" fill="#EBEBEB"/>
<path d="M421.59 202.16C426.8 198.12 432 194.09 437.21 190.05C445.5 183.62 453.79 177.19 462.09 170.76C463.99 169.29 465.89 167.82 467.78 166.35C468.54 165.76 467.47 164.7 466.72 165.29C461.51 169.33 456.31 173.36 451.1 177.4C442.81 183.83 434.52 190.26 426.22 196.69C424.32 198.16 422.42 199.63 420.53 201.1C419.77 201.69 420.84 202.75 421.59 202.16Z" fill="#E0E0E0"/>
<path d="M93.7 75.0103C93.7 75.0103 107.61 87.2903 111.37 76.8703C111.37 76.8703 112.07 73.7203 113.98 69.7703C115.89 65.8203 118.12 59.2803 111.06 54.7203C104 50.1603 93.82 45.5703 93.82 45.5703L80.54 64.7303C80.54 64.7303 85.91 69.9203 86.9 78.1203C87.76 85.2103 87.2 87.4803 88.06 87.4203C88.93 87.3603 91.39 86.4303 92.96 82.7303C94.53 79.0403 93.7 75.0003 93.7 75.0003V75.0103Z" fill="#F0F0F0"/>
<path d="M64.5608 57.1322L79.0435 67.168L95.7147 43.1096L81.232 33.0739L64.5608 57.1322Z" fill="#E0E0E0"/>
<path d="M157.46 20.5702C157.46 20.5702 135.89 8.16022 133.74 22.8602C133.74 22.8602 133.67 27.1802 132.21 32.8802C130.75 38.5802 129.58 47.7702 140.08 51.8802C150.58 55.9902 165.18 59.2802 165.18 59.2802L177.5 30.5502C177.5 30.5502 169.06 25.1702 165.56 14.6602C162.53 5.57022 162.66 2.44022 161.54 2.75022C160.42 3.06022 157.44 4.94022 156.36 10.2202C155.29 15.4902 157.46 20.5802 157.46 20.5802V20.5702Z" fill="#F0F0F0"/>
<path d="M200.532 36.258L178.822 26.9531L163.36 63.0292L185.07 72.3341L200.532 36.258Z" fill="#E0E0E0"/>
<path d="M263.89 139.171C262.91 141.101 262.33 143.171 262.14 145.251L258.93 145.921L259.63 152.211L262.91 152.161C263.56 154.151 264.57 156.041 265.96 157.711L264.16 160.451L269.1 164.401L271.38 162.051C273.31 163.031 275.38 163.611 277.46 163.801L278.13 167.011L284.42 166.311L284.37 163.031C286.36 162.381 288.25 161.371 289.92 159.981L292.66 161.781L296.61 156.841L294.26 154.561C295.24 152.631 295.82 150.561 296.01 148.481L299.22 147.811L298.52 141.521L295.24 141.571C294.59 139.581 293.58 137.691 292.19 136.021L293.99 133.281L289.05 129.331L286.77 131.681C284.84 130.701 282.77 130.121 280.69 129.931L280.02 126.721L273.73 127.421L273.78 130.701C271.79 131.351 269.9 132.361 268.23 133.751L265.49 131.951L261.54 136.891L263.89 139.171ZM284.36 140.121C287.86 142.921 288.42 148.021 285.63 151.521C282.83 155.021 277.73 155.581 274.23 152.791C270.73 149.991 270.17 144.891 272.96 141.391C275.76 137.891 280.86 137.331 284.36 140.121Z" fill="#F0F0F0"/>
<path d="M38.4698 215.87C37.4898 217.8 36.9098 219.87 36.7198 221.95L33.5098 222.62L34.2098 228.91L37.4898 228.86C38.1398 230.85 39.1498 232.74 40.5398 234.41L38.7398 237.15L43.6798 241.1L45.9598 238.75C47.8898 239.73 49.9598 240.31 52.0398 240.5L52.7098 243.71L58.9998 243.01L58.9498 239.73C60.9398 239.08 62.8298 238.07 64.4998 236.68L67.2398 238.48L71.1898 233.54L68.8398 231.26C69.8198 229.33 70.3998 227.26 70.5898 225.18L73.7998 224.51L73.0998 218.22L69.8198 218.27C69.1698 216.28 68.1598 214.39 66.7698 212.72L68.5698 209.98L63.6298 206.03L61.3498 208.38C59.4198 207.4 57.3498 206.82 55.2698 206.63L54.5998 203.42L48.3098 204.12L48.3598 207.4C46.3698 208.05 44.4798 209.06 42.8098 210.45L40.0698 208.65L36.1198 213.59L38.4698 215.87ZM58.9398 216.82C62.4398 219.62 62.9998 224.72 60.2098 228.22C57.4098 231.72 52.3098 232.28 48.8098 229.49C45.3098 226.69 44.7498 221.59 47.5398 218.09C50.3398 214.59 55.4398 214.03 58.9398 216.82Z" fill="#F0F0F0"/>
<path d="M233.38 145.47C232.88 146.45 232.59 147.5 232.49 148.57L230.85 148.91L231.21 152.11L232.88 152.08C233.21 153.09 233.73 154.06 234.43 154.9L233.52 156.29L236.04 158.3L237.2 157.1C238.18 157.6 239.23 157.89 240.3 157.99L240.64 159.63L243.84 159.27L243.81 157.6C244.82 157.27 245.79 156.75 246.63 156.05L248.02 156.96L250.03 154.44L248.83 153.28C249.33 152.3 249.62 151.25 249.72 150.18L251.36 149.84L251 146.64L249.33 146.67C249 145.66 248.48 144.69 247.78 143.85L248.69 142.46L246.17 140.45L245.01 141.65C244.03 141.15 242.98 140.86 241.91 140.76L241.57 139.12L238.37 139.48L238.4 141.15C237.39 141.48 236.42 142 235.58 142.7L234.19 141.79L232.18 144.31L233.38 145.47ZM243.8 145.95C245.58 147.37 245.87 149.97 244.44 151.75C243.02 153.53 240.42 153.82 238.64 152.39C236.86 150.97 236.57 148.37 238 146.59C239.42 144.81 242.02 144.52 243.8 145.95Z" fill="#F0F0F0"/>
<path d="M207.79 112.94C207.29 113.92 207 114.97 206.9 116.04L205.26 116.38L205.62 119.58L207.29 119.55C207.62 120.56 208.14 121.53 208.84 122.37L207.93 123.76L210.45 125.77L211.61 124.57C212.59 125.07 213.64 125.36 214.71 125.46L215.05 127.1L218.25 126.74L218.22 125.07C219.23 124.74 220.2 124.22 221.04 123.52L222.43 124.43L224.44 121.91L223.24 120.75C223.74 119.77 224.03 118.72 224.13 117.65L225.77 117.31L225.41 114.11L223.74 114.14C223.41 113.13 222.89 112.16 222.19 111.32L223.1 109.93L220.58 107.92L219.42 109.12C218.44 108.62 217.39 108.33 216.32 108.23L215.98 106.59L212.78 106.95L212.81 108.62C211.8 108.95 210.83 109.47 209.99 110.17L208.6 109.26L206.59 111.78L207.79 112.94ZM218.2 113.42C219.98 114.84 220.27 117.44 218.84 119.22C217.42 121 214.82 121.29 213.04 119.86C211.26 118.44 210.97 115.84 212.4 114.06C213.82 112.28 216.42 111.99 218.2 113.42Z" fill="#E0E0E0"/>
<path d="M253.54 444.85C372.209 444.85 468.41 440.466 468.41 435.06C468.41 429.653 372.209 425.27 253.54 425.27C134.87 425.27 38.6699 429.653 38.6699 435.06C38.6699 440.466 134.87 444.85 253.54 444.85Z" fill="#F5F5F5"/>
<path d="M294.25 397.299C296.56 397.169 298.73 396.049 300.43 394.489C302.13 392.929 303.39 390.939 304.44 388.879C307.21 383.409 308.55 377.219 308.29 371.089C308.23 369.779 308.1 368.429 307.53 367.249C306.97 366.059 305.9 365.039 304.6 364.849C302.66 364.569 300.96 366.119 299.73 367.649C294.13 374.579 291.24 383.659 291.82 392.549C291.96 394.729 292.69 396.829 294.25 397.289" fill="#3F97FF"/>
<path d="M283.93 385.25C285.83 381.31 285.97 376.64 284.71 372.45C283.46 368.26 280.88 364.54 277.69 361.55C274.19 358.27 269.7 355.75 264.91 355.73C262.87 355.72 260.65 356.27 259.4 357.88C258.06 359.6 258.17 362.04 258.76 364.14C259.72 367.57 261.76 370.63 264.19 373.23C266.62 375.83 269.45 378.03 272.28 380.2C275.46 382.65 278.9 385.18 282.91 385.49" fill="#3F97FF"/>
<path d="M283.65 398.539C283.09 394.109 279.65 390.449 275.63 388.519C271.61 386.589 267.05 386.109 262.6 385.889C261.61 385.839 260.59 385.799 259.64 386.099C258.69 386.399 257.81 387.089 257.55 388.049C257.22 389.309 258.01 390.569 258.85 391.569C263.73 397.429 271.37 400.889 279 400.689C279.88 400.669 280.78 400.589 281.6 400.259C282.41 399.919 283.14 399.279 283.39 398.429" fill="#3F97FF"/>
<path d="M303.88 368.119C297.06 384.789 292 402.129 288.77 419.849C288.68 420.319 289.41 420.519 289.49 420.049C292.71 402.329 297.78 384.989 304.6 368.319C304.78 367.869 304.06 367.679 303.88 368.119Z" fill="#263238"/>
<path d="M289.21 414.709C289.47 406.559 288.81 398.319 286.49 390.469C284.17 382.619 280.28 375.589 274.91 369.569C271.52 365.769 267.62 362.479 263.43 359.609C263.03 359.339 262.66 359.989 263.05 360.259C270.19 365.159 276.39 371.359 280.74 378.889C284.67 385.699 286.95 393.349 287.91 401.129C288.47 405.639 288.6 410.179 288.45 414.719C288.43 415.199 289.18 415.199 289.2 414.719L289.21 414.709Z" fill="#263238"/>
<path d="M288.77 403.18C282.38 395.77 273.46 390.61 263.83 388.89C263.36 388.81 263.16 389.53 263.63 389.61C273.15 391.32 281.93 396.39 288.24 403.71C288.56 404.08 289.08 403.54 288.77 403.18Z" fill="#263238"/>
<path d="M274.31 420.47V410.89H301V420.47C301 420.47 301.51 437.41 292.1 438.95H283.2C273.79 437.41 274.3 420.47 274.3 420.47H274.31Z" fill="#3F97FF"/>
<path opacity="0.5" d="M274.31 420.47V410.89H301V420.47C301 420.47 301.51 437.41 292.1 438.95H283.2C273.79 437.41 274.3 420.47 274.3 420.47H274.31Z" fill="black"/>
<path d="M157.2 355.98C157.2 355.98 135.11 363.92 144.37 374.44C144.37 374.44 147.43 377.13 150.65 381.65C153.86 386.18 159.76 392.62 169.12 387.58C178.48 382.53 189.76 374.04 189.76 374.04L176.61 347.65C176.61 347.65 167.58 350.44 157.89 346.54C149.51 343.17 147.33 341.17 146.87 342.16C146.41 343.16 145.94 346.45 149.08 350.44C152.22 354.43 157.2 355.97 157.2 355.97V355.98Z" fill="#713FFF"/>
<path opacity="0.6" d="M157.2 355.98C157.2 355.98 135.11 363.92 144.37 374.44C144.37 374.44 147.43 377.13 150.65 381.65C153.86 386.18 159.76 392.62 169.12 387.58C178.48 382.53 189.76 374.04 189.76 374.04L176.61 347.65C176.61 347.65 167.58 350.44 157.89 346.54C149.51 343.17 147.33 341.17 146.87 342.16C146.41 343.16 145.94 346.45 149.08 350.44C152.22 354.43 157.2 355.97 157.2 355.97V355.98Z" fill="white"/>
<path d="M194.756 334.589L174.815 344.526L191.332 377.669L211.273 367.731L194.756 334.589Z" fill="#713FFF"/>
<path d="M190.6 346.63C190.6 348.13 189.38 349.35 187.88 349.35C186.38 349.35 185.16 348.13 185.16 346.63C185.16 345.13 186.38 343.91 187.88 343.91C189.38 343.91 190.6 345.13 190.6 346.63Z" fill="white"/>
<path d="M341.02 147.98H137.39C134.01 147.98 131.27 150.72 131.27 154.1V315.13C131.27 318.51 134.01 321.25 137.39 321.25H341.02C344.4 321.25 347.14 318.51 347.14 315.13V154.1C347.14 150.72 344.4 147.98 341.02 147.98Z" fill="#B0A5D0"/>
<path opacity="0.6" d="M341.02 147.98H137.39C134.01 147.98 131.27 150.72 131.27 154.1V315.13C131.27 318.51 134.01 321.25 137.39 321.25H341.02C344.4 321.25 347.14 318.51 347.14 315.13V154.1C347.14 150.72 344.4 147.98 341.02 147.98Z" fill="white"/>
<path d="M329.7 174.271H203.62C202.273 174.271 201.18 175.363 201.18 176.711V206.911C201.18 208.258 202.273 209.351 203.62 209.351H329.7C331.048 209.351 332.14 208.258 332.14 206.911V176.711C332.14 175.363 331.048 174.271 329.7 174.271Z" fill="#B0A5D0"/>
<path d="M205 231.341H330.17C332.1 231.341 332.1 228.341 330.17 228.341H205C203.07 228.341 203.07 231.341 205 231.341Z" fill="#263238"/>
<path d="M205 239.391H330.17C332.1 239.391 332.1 236.391 330.17 236.391H205C203.07 236.391 203.07 239.391 205 239.391Z" fill="#263238"/>
<path d="M205 272.961H330.17C332.1 272.961 332.1 269.961 330.17 269.961H205C203.07 269.961 203.07 272.961 205 272.961Z" fill="#263238"/>
<path d="M205 281.721H330.17C332.1 281.721 332.1 278.721 330.17 278.721H205C203.07 278.721 203.07 281.721 205 281.721Z" fill="#263238"/>
<path d="M205 289.7H280.75C282.68 289.7 282.68 286.7 280.75 286.7H205C203.07 286.7 203.07 289.7 205 289.7Z" fill="#263238"/>
<path d="M205 264.91H330.17C332.1 264.91 332.1 261.91 330.17 261.91H205C203.07 261.91 203.07 264.91 205 264.91Z" fill="#263238"/>
<path d="M205 247.431H268.61C270.54 247.431 270.54 244.431 268.61 244.431H205C203.07 244.431 203.07 247.431 205 247.431Z" fill="#263238"/>
<path opacity="0.4" d="M189.9 219.051H151.09C148.257 219.051 145.96 221.348 145.96 224.181V297.131C145.96 299.964 148.257 302.261 151.09 302.261H189.9C192.733 302.261 195.03 299.964 195.03 297.131V224.181C195.03 221.348 192.733 219.051 189.9 219.051Z" fill="#B0A5D0"/>
<path d="M175.552 207.671C184.307 204 188.428 193.926 184.757 185.171C181.085 176.416 171.012 172.294 162.256 175.966C153.501 179.637 149.38 189.711 153.051 198.466C156.723 207.221 166.796 211.342 175.552 207.671Z" fill="#B0A5D0"/>
<path opacity="0.4" d="M142.58 162.51C144.447 162.51 145.96 160.997 145.96 159.13C145.96 157.263 144.447 155.75 142.58 155.75C140.713 155.75 139.2 157.263 139.2 159.13C139.2 160.997 140.713 162.51 142.58 162.51Z" fill="#B0A5D0"/>
<path opacity="0.4" d="M151.73 162.51C153.597 162.51 155.11 160.997 155.11 159.13C155.11 157.263 153.597 155.75 151.73 155.75C149.863 155.75 148.35 157.263 148.35 159.13C148.35 160.997 149.863 162.51 151.73 162.51Z" fill="#B0A5D0"/>
<path opacity="0.4" d="M160.87 162.51C162.737 162.51 164.25 160.997 164.25 159.13C164.25 157.263 162.737 155.75 160.87 155.75C159.004 155.75 157.49 157.263 157.49 159.13C157.49 160.997 159.004 162.51 160.87 162.51Z" fill="#B0A5D0"/>
<path d="M202.92 193.54C209.64 189.49 217.43 186.41 225.29 185.64C229.08 185.27 233.02 185.62 236.34 187.62C239.32 189.41 241.81 192.69 241.36 196.34C241.13 198.22 239.94 199.9 238.07 200.43C236.5 200.88 234.96 200.24 234.15 198.83C232.66 196.22 233.77 193.03 235.8 191.08C241.08 186.02 249.05 188.22 254.83 190.96C261.28 194.02 268.02 198.33 275.5 197.01C278.33 196.51 281.23 194.97 282.64 192.37C283.89 190.07 283.57 187.29 281.81 185.33C280.05 183.37 277.3 183.13 275.31 184.83C273.02 186.79 272.87 190.05 274.09 192.63C276.75 198.28 283.96 200.93 289.82 199.58C296.25 198.1 300.28 192.36 305.46 188.77C310.99 184.94 318.2 184.08 324.53 186.3C326.15 186.87 327.67 187.66 329.1 188.61C329.9 189.15 330.66 187.85 329.86 187.31C324.49 183.72 317.63 182.68 311.4 184.36C308.3 185.19 305.54 186.73 303.04 188.71C300.54 190.69 298.08 193.23 295.37 195.21C292.66 197.19 289.45 198.58 285.96 198.41C282.47 198.24 279.26 196.75 276.99 194.24C275.69 192.8 274.63 190.87 274.82 188.87C274.98 187.21 276.14 185.45 277.88 185.18C279.43 184.94 280.76 186.06 281.42 187.38C282.17 188.86 282.03 190.48 281.17 191.88C279.27 194.98 275.2 195.89 271.81 195.7C267.77 195.47 263.96 193.8 260.38 192.02C254.31 189 247.83 185.33 240.81 186.88C235.74 188 230.5 192.6 232.3 198.29C233.08 200.75 235.32 202.44 237.95 201.95C240.99 201.39 242.86 198.55 242.89 195.57C242.96 188.65 235.87 184.55 229.76 184.03C225.81 183.69 221.78 184.46 217.97 185.47C214.16 186.48 210.7 187.77 207.26 189.42C205.5 190.26 203.79 191.2 202.13 192.2C201.3 192.7 202.06 194 202.89 193.5L202.92 193.54Z" fill="white"/>
<path opacity="0.4" d="M222.39 213.99H204.14C203.411 213.99 202.82 214.581 202.82 215.31V217.73C202.82 218.459 203.411 219.05 204.14 219.05H222.39C223.119 219.05 223.71 218.459 223.71 217.73V215.31C223.71 214.581 223.119 213.99 222.39 213.99Z" fill="#B0A5D0"/>
<path opacity="0.4" d="M256.97 213.99H229.61C228.881 213.99 228.29 214.581 228.29 215.31V217.73C228.29 218.459 228.881 219.05 229.61 219.05H256.97C257.699 219.05 258.29 218.459 258.29 217.73V215.31C258.29 214.581 257.699 213.99 256.97 213.99Z" fill="#B0A5D0"/>
<path opacity="0.4" d="M283.08 213.99H264.32C263.591 213.99 263 214.581 263 215.31V217.73C263 218.459 263.591 219.05 264.32 219.05H283.08C283.809 219.05 284.4 218.459 284.4 217.73V215.31C284.4 214.581 283.809 213.99 283.08 213.99Z" fill="#B0A5D0"/>
<path d="M253.56 87.3496H127.81C124.623 87.3496 122.04 89.9329 122.04 93.1196V123.95C122.04 127.136 124.623 129.72 127.81 129.72H253.56C256.747 129.72 259.33 127.136 259.33 123.95V93.1196C259.33 89.9329 256.747 87.3496 253.56 87.3496Z" fill="#3F97FF"/>
<path d="M253.56 87.3496H127.81C124.623 87.3496 122.04 89.9329 122.04 93.1196V123.95C122.04 127.136 124.623 129.72 127.81 129.72H253.56C256.747 129.72 259.33 127.136 259.33 123.95V93.1196C259.33 89.9329 256.747 87.3496 253.56 87.3496Z" fill="#3F97FF"/>
<path opacity="0.6" d="M253.56 87.3496H127.81C124.623 87.3496 122.04 89.9329 122.04 93.1196V123.95C122.04 127.136 124.623 129.72 127.81 129.72H253.56C256.747 129.72 259.33 127.136 259.33 123.95V93.1196C259.33 89.9329 256.747 87.3496 253.56 87.3496Z" fill="white"/>
<path d="M145.84 96.8099L148.64 102.48C148.88 102.97 149.35 103.31 149.89 103.39L156.14 104.3C157.5 104.5 158.05 106.18 157.06 107.14L152.53 111.55C152.14 111.93 151.96 112.48 152.05 113.02L153.12 119.25C153.35 120.61 151.93 121.65 150.71 121L145.12 118.06C144.64 117.81 144.06 117.81 143.57 118.06L137.98 121C136.76 121.64 135.33 120.61 135.57 119.25L136.64 113.02C136.73 112.48 136.55 111.93 136.16 111.55L131.63 107.14C130.64 106.18 131.19 104.5 132.55 104.3L138.8 103.39C139.34 103.31 139.81 102.97 140.05 102.48L142.85 96.8099C143.46 95.5699 145.22 95.5699 145.83 96.8099H145.84Z" fill="#3F97FF"/>
<path d="M177.46 96.8099L180.26 102.48C180.5 102.97 180.97 103.31 181.51 103.39L187.76 104.3C189.12 104.5 189.67 106.18 188.68 107.14L184.15 111.55C183.76 111.93 183.58 112.48 183.67 113.02L184.74 119.25C184.97 120.61 183.55 121.65 182.33 121L176.74 118.06C176.26 117.81 175.68 117.81 175.19 118.06L169.6 121C168.38 121.64 166.95 120.61 167.19 119.25L168.26 113.02C168.35 112.48 168.17 111.93 167.78 111.55L163.25 107.14C162.26 106.18 162.81 104.5 164.17 104.3L170.42 103.39C170.96 103.31 171.43 102.97 171.67 102.48L174.47 96.8099C175.08 95.5699 176.84 95.5699 177.45 96.8099H177.46Z" fill="#3F97FF"/>
<path d="M209.08 96.8099L211.88 102.48C212.12 102.97 212.59 103.31 213.13 103.39L219.38 104.3C220.74 104.5 221.29 106.18 220.3 107.14L215.77 111.55C215.38 111.93 215.2 112.48 215.29 113.02L216.36 119.25C216.59 120.61 215.17 121.65 213.95 121L208.36 118.06C207.88 117.81 207.3 117.81 206.81 118.06L201.22 121C200 121.64 198.57 120.61 198.81 119.25L199.88 113.02C199.97 112.48 199.79 111.93 199.4 111.55L194.87 107.14C193.88 106.18 194.43 104.5 195.79 104.3L202.04 103.39C202.58 103.31 203.05 102.97 203.29 102.48L206.09 96.8099C206.7 95.5699 208.46 95.5699 209.07 96.8099H209.08Z" fill="#3F97FF"/>
<path d="M240.7 96.8099L243.5 102.48C243.74 102.97 244.21 103.31 244.75 103.39L251 104.3C252.36 104.5 252.91 106.18 251.92 107.14L247.39 111.55C247 111.93 246.82 112.48 246.91 113.02L247.98 119.25C248.21 120.61 246.79 121.65 245.57 121L239.98 118.06C239.5 117.81 238.92 117.81 238.43 118.06L232.84 121C231.62 121.64 230.19 120.61 230.43 119.25L231.5 113.02C231.59 112.48 231.41 111.93 231.02 111.55L226.49 107.14C225.5 106.18 226.05 104.5 227.41 104.3L233.66 103.39C234.2 103.31 234.67 102.97 234.91 102.48L237.71 96.8099C238.32 95.5699 240.08 95.5699 240.69 96.8099H240.7Z" fill="#3F97FF"/>
<path d="M443.66 112.16C447.58 110.28 448.98 104.84 447.04 100.96C445.1 97.08 440.53 94.93 436.19 95.14C431.85 95.36 427.81 97.63 424.72 100.68C421.62 96.87 415.36 96.18 411.5 99.22C407.71 102.21 408.34 108.33 411.19 112.25C407.85 113.88 405.63 117.87 406.45 121.55C407.46 126.09 412.83 129.1 417.23 127.58C417.23 133.46 422.47 138.84 428.35 138.96C434.22 139.09 439.71 133.94 439.96 128.07C444.44 130.15 450.48 127.21 451.6 122.4C452.72 117.59 448.62 112.28 443.68 112.16H443.66Z" fill="#713FFF"/>
<path d="M415.62 134.1C415.62 135.48 414.5 136.6 413.12 136.6C411.74 136.6 410.62 135.48 410.62 134.1C410.62 132.72 411.74 131.6 413.12 131.6C414.5 131.6 415.62 132.72 415.62 134.1Z" fill="#713FFF"/>
<g opacity="0.6">
<path d="M443.66 112.16C447.58 110.28 448.98 104.84 447.04 100.96C445.1 97.08 440.53 94.93 436.19 95.14C431.85 95.36 427.81 97.63 424.72 100.68C421.62 96.87 415.36 96.18 411.5 99.22C407.71 102.21 408.34 108.33 411.19 112.25C407.85 113.88 405.63 117.87 406.45 121.55C407.46 126.09 412.83 129.1 417.23 127.58C417.23 133.46 422.47 138.84 428.35 138.96C434.22 139.09 439.71 133.94 439.96 128.07C444.44 130.15 450.48 127.21 451.6 122.4C452.72 117.59 448.62 112.28 443.68 112.16H443.66Z" fill="white"/>
</g>
<path opacity="0.6" d="M415.62 134.1C415.62 135.48 414.5 136.6 413.12 136.6C411.74 136.6 410.62 135.48 410.62 134.1C410.62 132.72 411.74 131.6 413.12 131.6C414.5 131.6 415.62 132.72 415.62 134.1Z" fill="white"/>
<path d="M428.39 117.781C428.74 117.191 429.25 116.541 429.91 115.821C430.4 115.301 430.76 114.861 430.99 114.501C431.22 114.141 431.34 113.741 431.34 113.281C431.34 112.641 431.12 112.131 430.68 111.751C430.24 111.381 429.66 111.191 428.93 111.191C428.2 111.191 427.61 111.361 427.07 111.701C426.53 112.041 426.07 112.511 425.7 113.121L423.01 111.271C423.63 110.161 424.47 109.291 425.53 108.681C426.59 108.071 427.85 107.771 429.3 107.771C431 107.771 432.37 108.201 433.4 109.051C434.43 109.901 434.95 111.091 434.95 112.601C434.95 113.311 434.85 113.941 434.65 114.481C434.45 115.021 434.21 115.481 433.92 115.851C433.63 116.221 433.26 116.661 432.8 117.141C432.25 117.711 431.85 118.201 431.6 118.591C431.35 118.981 431.22 119.461 431.22 120.011H427.86C427.86 119.101 428.03 118.361 428.38 117.761L428.39 117.781ZM428.03 125.701C427.62 125.291 427.42 124.781 427.42 124.191C427.42 123.601 427.62 123.101 428.02 122.701C428.42 122.301 428.93 122.101 429.55 122.101C430.17 122.101 430.68 122.301 431.08 122.701C431.48 123.101 431.68 123.591 431.68 124.191C431.68 124.791 431.48 125.291 431.07 125.701C430.66 126.111 430.15 126.321 429.55 126.321C428.95 126.321 428.43 126.111 428.03 125.701Z" fill="#713FFF"/>
<path d="M87.8801 91.4805H63.7401C58.7033 91.4805 54.6201 95.5636 54.6201 100.6V116.21C54.6201 121.247 58.7033 125.33 63.7401 125.33H87.8801C92.917 125.33 97.0001 121.247 97.0001 116.21V100.6C97.0001 95.5636 92.917 91.4805 87.8801 91.4805Z" fill="#713FFF"/>
<path d="M82.2402 109.17C82.2402 110.79 83.5602 112.11 85.1802 112.11C86.8002 112.11 88.1202 110.79 88.1202 109.17C88.1202 107.55 86.8002 106.23 85.1802 106.23C83.5602 106.23 82.2402 107.55 82.2402 109.17Z" fill="white"/>
<path d="M72.0005 109.17C72.0005 110.79 73.3205 112.11 74.9405 112.11C76.5605 112.11 77.8805 110.79 77.8805 109.17C77.8805 107.55 76.5605 106.23 74.9405 106.23C73.3205 106.23 72.0005 107.55 72.0005 109.17Z" fill="white"/>
<path d="M61.8403 109.17C61.8403 110.79 63.1603 112.11 64.7803 112.11C66.4003 112.11 67.7203 110.79 67.7203 109.17C67.7203 107.55 66.4003 106.23 64.7803 106.23C63.1603 106.23 61.8403 107.55 61.8403 109.17Z" fill="white"/>
<path d="M83.9502 124.03L90.8702 130.95L92.2902 122.11L83.9502 124.03Z" fill="#713FFF"/>
<path d="M336.97 133.99C371.228 133.99 399 106.218 399 71.9597C399 37.7015 371.228 9.92969 336.97 9.92969C302.712 9.92969 274.94 37.7015 274.94 71.9597C274.94 106.218 302.712 133.99 336.97 133.99Z" fill="#713FFF"/>
<path opacity="0.7" d="M336.97 133.99C371.228 133.99 399 106.218 399 71.9597C399 37.7015 371.228 9.92969 336.97 9.92969C302.712 9.92969 274.94 37.7015 274.94 71.9597C274.94 106.218 302.712 133.99 336.97 133.99Z" fill="white"/>
<path d="M356.38 55.5494L342.41 52.4794L328.65 51.9994C328.63 51.6294 314.05 52.3795 312.4 55.0595C311.18 57.0395 309.05 101.189 306.82 126.309C316.21 132.029 325.08 134.069 336.88 134.069C346.12 134.069 354.88 132.039 362.75 128.409C361.84 110.659 360.45 81.3294 360.86 74.3594C361.46 64.1494 356.37 55.5494 356.37 55.5494H356.38Z" fill="#713FFF"/>
<path d="M312.96 78.2498C312.25 79.4298 302.87 106.37 289.7 105.13C278.06 104.03 264.03 77.1998 264.03 77.1998L269.63 71.5798C269.63 71.5798 284.82 89.6199 289.13 90.4099C292.73 91.0699 305.32 65.8398 305.32 65.8398L312.96 78.2498Z" fill="#FDBBB5"/>
<path d="M253.52 69.75C253.59 69.42 254.51 68.39 254.51 68.39C254.51 68.39 254.14 67.65 254.12 67.28C254.07 66.23 255.06 65.44 256.02 65C255.77 64.72 255.82 62.39 257.78 62.55C257.09 61.28 258.83 59.36 260.52 60.2C261.29 60.58 264.42 63.1 265.34 63.69C265.67 62.24 266.38 60.99 267.45 59.78C267.81 59.37 269.11 58.77 269.66 58.85C270.21 58.93 269.91 59.51 269.94 60.06C269.98 60.6 269.34 61.92 269.25 62.46C268.52 66.89 269.13 69.43 269.94 73.12L264.34 77.96C260.44 75.6 260.6 74.97 256.1 73.09C254.49 72.42 253.21 71.37 253.53 69.76L253.52 69.75Z" fill="#FDBBB5"/>
<path d="M257.78 62.7604C258.36 63.2004 258.97 63.6104 259.62 63.9604C260.22 64.2904 260.9 64.6904 261.6 64.7504C262.2 64.8004 262.76 64.4804 263.05 63.9604C263.38 63.3804 263.33 62.6704 263.09 62.0604C262.99 61.7904 262.55 61.9104 262.66 62.1804C262.87 62.7104 262.94 63.3304 262.61 63.8204C262.26 64.3404 261.68 64.3804 261.12 64.1804C260.56 63.9804 260.03 63.6804 259.53 63.3904C259.03 63.1004 258.5 62.7404 258.01 62.3704C257.78 62.1904 257.56 62.5804 257.78 62.7604Z" fill="#FF7D74"/>
<path d="M260.76 64.7903C261.17 65.1403 261.34 65.7403 261.07 66.2303C260.8 66.7203 260.23 66.9203 259.68 66.7803C259.07 66.6303 258.49 66.2903 257.93 66.0003C257.35 65.7003 256.78 65.3703 256.22 65.0203C255.97 64.8703 255.75 65.2503 255.99 65.4103C256.69 65.8503 257.4 66.2503 258.14 66.6203C258.8 66.9403 259.54 67.3803 260.3 67.2603C260.89 67.1703 261.39 66.7303 261.57 66.1703C261.77 65.5603 261.54 64.8803 261.06 64.4703C260.84 64.2803 260.52 64.6003 260.74 64.7903H260.76Z" fill="#FF7D74"/>
<path d="M259.34 67.3705C259.77 67.6705 259.99 68.2405 259.84 68.7505C259.67 69.3205 259.13 69.6705 258.55 69.6505C257.91 69.6305 257.27 69.3005 256.68 69.0805C256.02 68.8305 255.37 68.5805 254.71 68.3305C254.44 68.2305 254.32 68.6605 254.59 68.7605C255.43 69.0805 256.27 69.4005 257.12 69.7305C257.81 69.9905 258.57 70.2805 259.29 69.9705C260.55 69.4405 260.66 67.7405 259.57 66.9805C259.33 66.8105 259.11 67.2005 259.34 67.3705Z" fill="#FF7D74"/>
<path d="M258.16 70.0198C258.44 70.2398 258.55 70.5798 258.51 70.9298C258.46 71.2998 258.22 71.5998 257.9 71.7798C257.08 72.2598 256.11 71.9298 255.35 71.4998C255.1 71.3598 254.87 71.7498 255.12 71.8898C256.06 72.4098 257.28 72.7598 258.24 72.0898C258.64 71.8098 258.9 71.4098 258.95 70.9198C259 70.4698 258.84 69.9798 258.47 69.6898C258.37 69.6098 258.25 69.5998 258.15 69.6898C258.07 69.7698 258.05 69.9298 258.15 70.0098L258.16 70.0198Z" fill="#FF7D74"/>
<path d="M264.96 64.4801C262.67 66.5101 262.09 69.8701 263.53 72.5701C263.67 72.8301 264.06 72.6001 263.92 72.3401C262.57 69.8101 263.14 66.7001 265.28 64.8001C265.5 64.6101 265.18 64.2901 264.96 64.4801Z" fill="#FF7D74"/>
<path d="M326.25 61.5597C323.97 69.0597 313.67 90.4197 313.67 90.4197L294.25 79.4897C294.25 79.4897 302.27 63.3397 308.37 57.2597C317.72 49.8397 329.19 51.8897 326.26 61.5597H326.25Z" fill="#713FFF"/>
<path opacity="0.2" d="M308.28 87.3802L310.28 70.9502L302.27 84.0002L308.28 87.3802Z" fill="black"/>
<path d="M329.05 39.8902L343.97 31.9502C343.86 33.0202 343.82 35.0702 342.95 36.2102C335.31 46.1902 341.23 52.4402 341.23 52.4402C337.2 55.4102 328.24 56.8002 326.47 52.1202C327.73 49.6302 329.17 43.2602 329.05 39.8902Z" fill="#FDBBB5"/>
<path opacity="0.2" d="M328.5 44.5898L336.88 43.2598C335.96 45.7798 333.49 48.6798 327.73 48.5498C327.73 48.5498 328.49 45.7098 328.5 44.5798V44.5898Z" fill="black"/>
<path d="M319.63 13.7093C317.73 16.9193 318.07 25.1993 323.45 24.0193C328.84 22.8393 322.9 8.18931 319.63 13.7093Z" fill="#263238"/>
<path d="M344.53 24.9898C342.97 34.0198 342.28 39.1498 337.17 43.2698C315.16 56.8798 310.86 15.9498 328.74 10.5298C337.91 8.00982 346.09 15.9498 344.53 24.9898Z" fill="#FDBBB5"/>
<path d="M350.44 15.1095C350.44 15.1095 342.22 13.9595 340.84 13.8495C339.46 13.7395 338.05 18.6695 338.25 20.2695C338.45 21.8695 340.61 22.5695 340.55 24.0995C340.48 25.3995 338.3 29.1995 339.08 30.9595C339.97 31.6595 344.85 28.7395 344.85 28.7395L347.71 29.7895C347.71 29.7895 355.91 18.7995 350.44 15.1095Z" fill="#263238"/>
<path d="M350.29 15.8198C351.15 15.0498 352.08 13.7098 351.06 11.2098C351.06 11.8898 350.2 12.6998 349.67 12.9798C349.14 10.9198 346.46 7.36978 338.92 5.68978C329.64 3.62978 327.21 6.75978 324.51 5.36978C321.8 3.97978 325.19 2.89978 325.19 2.89978C325.19 2.89978 320.51 1.81978 319 5.34978C317.49 8.88978 318.79 15.0998 327.07 14.7098C335.34 14.3198 336.96 17.0098 341.13 16.3498C344.17 15.9698 347.24 15.7998 350.3 15.8198H350.29Z" fill="#263238"/>
<path d="M347.29 32.7999C345.69 37.5499 337.42 40.1399 338.47 33.0399C339.08 26.1299 349.35 24.4299 347.29 32.7999Z" fill="#FDBBB5"/>
<path d="M331.09 25.97C331.09 28.18 328.83 28.12 328.87 25.93C328.87 23.72 331.13 23.78 331.09 25.97Z" fill="#263238"/>
<path d="M322.31 26.4095C322.31 28.6195 320.05 28.5595 320.09 26.3695C320.09 24.1595 322.35 24.2195 322.31 26.4095Z" fill="#263238"/>
<path d="M325.11 25.1797C325.11 25.1797 321.66 29.4797 320.51 31.2597C321.68 32.5697 323.97 32.2797 323.97 32.2797L325.12 25.1797H325.11Z" fill="#FF7D74"/>
<path d="M333.98 22.0497C333.83 22.0897 333.67 22.0497 333.55 21.9397C332.14 20.5697 330.56 20.8997 330.55 20.8997C328.63 20.0497 332.18 19.1997 334.16 21.3197C334.4 21.5397 334.29 21.9697 333.98 22.0497Z" fill="#263238"/>
<path opacity="0.2" d="M345.49 30.2199C343.98 28.1099 341.3 30.6099 341.04 32.4899" stroke="black" stroke-width="0.5" stroke-linecap="round" stroke-linejoin="round"/>
<path d="M318.48 21C318.16 20.9 318.07 20.44 318.34 20.24C320.24 18.74 322.14 19.39 322.23 19.41C322.76 19.58 322.49 20.43 321.96 20.24C321.67 19.91 319.99 20.23 318.48 21Z" fill="#263238"/>
<path d="M325.2 35.3897C326.03 36.3997 326.78 37.4697 327.45 38.5997C327.66 38.5197 327.88 38.4397 328.09 38.3397C330.99 37.1497 331.94 35.6497 332.11 34.3397C332.18 33.6997 332.1 33.0497 331.87 32.4397C331.75 32.0997 331.58 31.7697 331.37 31.4697C330.21 33.0197 327.6 34.3297 326.18 34.9697C325.55 35.2197 325.2 35.3897 325.2 35.3897Z" fill="#263238"/>
<path d="M326.18 34.9502L326.87 35.8802C329.59 34.7602 331.35 33.6102 331.87 32.4202C331.75 32.0802 331.58 31.7502 331.37 31.4502C330.2 33.0102 327.6 34.3102 326.18 34.9502Z" fill="white"/>
<path d="M328.05 38.3594C330.95 37.1694 331.9 35.6694 332.07 34.3594C330.98 34.8294 329.98 35.4894 329.12 36.3094C328.56 36.8694 328.19 37.5794 328.06 38.3594H328.05Z" fill="#FF3F3E"/>
<path d="M308.61 86.74C309.52 80.45 310.44 74.15 311.35 67.86C311.42 67.39 310.7 67.18 310.63 67.66C309.72 73.95 308.8 80.25 307.89 86.54C307.82 87.01 308.54 87.22 308.61 86.74Z" fill="black"/>
<path d="M375.38 115.399C374.73 108.029 370.45 83.3892 367.24 71.5592C366.39 68.4092 363.63 65.8292 360.13 65.2592C358.8 65.0492 357.42 65.1392 356.21 65.8592C352.17 68.2592 351.44 76.1792 353.3 82.9092C355.44 90.6392 359.82 102.469 362 112.989C362.18 113.869 362.33 120.749 362.45 128.589C366.97 126.639 371.23 123.909 375.19 120.849C375.42 118.369 375.49 116.599 375.39 115.409L375.38 115.399Z" fill="#FDBBB5"/>
<path d="M367.07 65.2794C370.78 74.7094 374.84 89.5794 374.84 89.5794L353.79 94.3494C351.38 86.9194 348.38 78.8094 349.09 71.0294C350.19 60.4494 351.21 53.8994 357.7 55.8394C360.99 56.8194 364.88 59.7194 367.07 65.2794Z" fill="#713FFF"/>
<path d="M374.74 89.2198C368.09 90.8098 361.44 92.3998 354.79 93.9898L355.25 94.2498C353.86 87.7698 352.46 81.2998 351.07 74.8198C350.97 74.3498 350.25 74.5498 350.35 75.0198C351.74 81.4998 353.14 87.9698 354.53 94.4498C354.57 94.6498 354.8 94.7598 354.99 94.7098C361.64 93.1198 368.29 91.5298 374.94 89.9398C375.41 89.8298 375.21 89.0998 374.74 89.2198Z" fill="black"/>
<g opacity="0.3">
<path d="M347.31 120.36C336.11 113.83 326.02 105.53 317.44 95.8096C317.12 95.4496 316.59 95.9796 316.91 96.3396C325.53 106.1 335.68 114.44 346.93 121C347.35 121.24 347.73 120.6 347.31 120.35V120.36Z" fill="black"/>
</g>
<path d="M265.9 31.93C259.31 22.93 261.38 10.35 270.51 3.82999C279.64 -2.69001 292.39 -0.690008 298.97 8.30999C304.05 15.25 303.96 24.33 299.46 31.11L301.04 36.94L294.62 36.2C294.53 36.27 294.45 36.34 294.36 36.41C285.23 42.93 272.48 40.93 265.9 31.93Z" fill="#3F97FF"/>
<path d="M265.17 5.36035C260.27 9.78035 257.85 16.7304 258.98 23.1704" stroke="#3F97FF" stroke-linecap="round" stroke-linejoin="round"/>
<path d="M259.59 26.1104C259.69 27.1004 259.99 28.0704 260.49 28.9404" stroke="#3F97FF" stroke-linecap="round" stroke-linejoin="round"/>
<path d="M282.53 28.8104L272.47 21.6004L274.99 18.1004L281.73 22.9304L290.67 11.8604L294.03 14.5704L282.53 28.8104Z" fill="white"/>
<path d="M429.2 412.64L415.82 411.83L419.7 433.62L428.37 435.4L429.2 412.64Z" fill="#E0E0E0"/>
<path d="M417.75 429.68L421.06 429.66C421.81 429.66 422.51 430.01 422.98 430.59C424.98 433.06 426.38 432.12 428.36 429.77C429.67 429.62 430.08 431.06 430.21 431.45L433.02 440.01C433.26 440.73 432.86 441.47 432.11 441.68C431.98 441.72 431.84 441.74 431.7 441.73C427.68 441.75 425.79 441.76 420.79 441.79L405.51 441.87C401.34 441.89 400.32 437.89 402.02 437.51C409.67 435.84 415.05 433.65 417.35 431.49C417.78 431.11 417.31 430.83 417.75 429.67V429.68Z" fill="#263238"/>
<path d="M412.94 432.63C413.98 432.6 415.02 432.47 416.02 432.23C416.11 432.2 416.16 432.1 416.12 432.01C416.1 431.96 416.06 431.92 416.01 431.91C415.54 431.7 411.33 429.88 410.32 430.58C410.13 430.7 410.03 430.92 410.07 431.14C410.09 431.55 410.31 431.93 410.67 432.17C411.36 432.55 412.15 432.72 412.93 432.64L412.94 432.63ZM415.36 432C414.15 432.22 411.89 432.52 410.93 431.86C410.68 431.68 410.52 431.41 410.49 431.11C410.47 431.02 410.51 430.92 410.59 430.87C411.15 430.49 413.62 431.29 415.36 432Z" fill="#713FFF"/>
<path d="M415.98 432.24C415.98 432.24 416.07 432.25 416.11 432.24C416.16 432.19 416.18 432.12 416.16 432.05C416.16 431.89 415.03 428.01 412.77 428.27C412.21 428.34 412.06 428.6 412.05 428.82C411.95 429.85 414.63 431.78 415.89 432.27L415.99 432.24H415.98ZM413.01 428.58C414.45 428.58 415.37 430.83 415.68 431.74C414.3 431.07 412.35 429.46 412.45 428.83C412.45 428.78 412.45 428.63 412.86 428.59H413.01V428.58Z" fill="#713FFF"/>
<path d="M415.55 432.13C416.69 432.27 417.78 432.92 418.43 433.84" stroke="#713FFF" stroke-width="0.5" stroke-linecap="round" stroke-linejoin="round"/>
<path d="M413.56 433.61C414.7 433.75 415.79 434.4 416.44 435.32" stroke="#713FFF" stroke-width="0.5" stroke-linecap="round" stroke-linejoin="round"/>
<path d="M411.05 434.87C412.19 435.01 413.28 435.66 413.93 436.58" stroke="#713FFF" stroke-width="0.5" stroke-linecap="round" stroke-linejoin="round"/>
<path d="M373.73 411.229L359.82 409.529L362.56 432.289L371.23 434.069L373.73 411.229Z" fill="#E0E0E0"/>
<path d="M360.62 428.349L363.93 428.329C364.68 428.329 365.38 428.679 365.85 429.259C367.85 431.729 369.25 430.789 371.23 428.439C372.54 428.289 372.95 429.729 373.08 430.119L375.89 438.679C376.13 439.399 375.73 440.139 374.98 440.349C374.85 440.389 374.71 440.409 374.57 440.399C370.55 440.419 368.66 440.429 363.66 440.459L348.38 440.539C344.21 440.559 343.19 436.559 344.89 436.179C352.54 434.509 357.92 432.319 360.22 430.159C360.65 429.779 360.18 429.499 360.62 428.339V428.349Z" fill="#263238"/>
<path d="M355.8 431.299C356.84 431.269 357.88 431.139 358.88 430.899C358.97 430.869 359.02 430.769 358.98 430.679C358.96 430.629 358.92 430.589 358.87 430.579C358.4 430.369 354.19 428.549 353.18 429.249C352.99 429.369 352.89 429.589 352.93 429.809C352.95 430.219 353.17 430.599 353.53 430.839C354.22 431.219 355.01 431.389 355.79 431.309L355.8 431.299ZM358.23 430.669C357.02 430.889 354.76 431.189 353.8 430.529C353.55 430.349 353.39 430.079 353.36 429.779C353.34 429.689 353.38 429.589 353.46 429.539C354.02 429.159 356.49 429.959 358.23 430.669Z" fill="#713FFF"/>
<path d="M358.84 430.909C358.84 430.909 358.93 430.919 358.97 430.909C359.02 430.859 359.04 430.789 359.02 430.719C359.02 430.559 357.89 426.679 355.63 426.939C355.07 427.019 354.92 427.269 354.91 427.489C354.81 428.519 357.49 430.449 358.75 430.939L358.85 430.909H358.84ZM355.87 427.249C357.31 427.249 358.23 429.499 358.54 430.409C357.16 429.739 355.21 428.129 355.31 427.499C355.31 427.449 355.31 427.299 355.72 427.259H355.87V427.249Z" fill="#713FFF"/>
<path d="M358.42 430.799C359.56 430.939 360.65 431.589 361.3 432.509" stroke="#713FFF" stroke-width="0.5" stroke-linecap="round" stroke-linejoin="round"/>
<path d="M356.42 432.279C357.56 432.419 358.65 433.069 359.3 433.989" stroke="#713FFF" stroke-width="0.5" stroke-linecap="round" stroke-linejoin="round"/>
<path d="M353.91 433.539C355.05 433.679 356.14 434.329 356.79 435.249" stroke="#713FFF" stroke-width="0.5" stroke-linecap="round" stroke-linejoin="round"/>
<path d="M370.11 263.74C370.16 264.77 356.12 331.1 355.29 347.29C354.46 363.48 358.37 424.8 358.37 424.8L373.82 424.69C373.82 424.69 376.85 396.76 376.02 385.12C375.18 373.48 374.87 355.22 378.68 344.72C382.49 334.22 395.27 299.64 395.27 299.64L390.78 267.2L370.11 263.74Z" fill="#263238"/>
<path d="M419.9 261.31C421.57 262.26 421.93 280.8 421.85 301.43C421.78 322.06 427.4 359.93 428.57 372.93C429.74 385.93 431.76 427.42 431.23 427.45C430.69 427.48 413.43 427.63 413.92 426.57C414.41 425.52 410.33 407.72 405.19 376.24C400.14 345.37 390.72 311.94 388.78 301.52C387.26 293.32 384.35 279.19 384.35 279.19L383.57 263.07L419.91 261.3L419.9 261.31Z" fill="#263238"/>
<path opacity="0.3" d="M421.14 268.47C421.14 268.47 406.83 277.62 389.73 277.87C372.63 278.12 368.08 274.31 368.08 274.31L368.74 270.75L421.14 268.47Z" fill="black"/>
<g opacity="0.3">
<path d="M398.07 338.42C396.71 332.99 395.34 327.57 393.98 322.14C391.8 313.48 389.62 304.82 387.45 296.16C386.95 294.15 386.44 292.15 385.94 290.14C385.82 289.67 385.1 289.87 385.22 290.34C386.58 295.77 387.95 301.19 389.31 306.62C391.49 315.28 393.67 323.94 395.84 332.6C396.34 334.61 396.85 336.61 397.35 338.62C397.47 339.09 398.19 338.89 398.07 338.42Z" fill="black"/>
</g>
<path d="M408.6 185.549C408.6 185.549 412.85 195.009 414.39 207.569C417.09 229.549 421.8 259.029 422 267.789C422 267.789 385.53 279.629 365.71 269.679L368.12 222.409L367.42 187.269L374.96 184.529C374.96 184.529 404.25 181.029 408.59 185.559L408.6 185.549Z" fill="#713FFF"/>
<path opacity="0.2" d="M408.6 185.549C408.6 185.549 412.85 195.009 414.39 207.569C417.09 229.549 421.8 259.029 422 267.789C422 267.789 385.53 279.629 365.71 269.679L368.12 222.409L367.42 187.269L374.96 184.529C374.96 184.529 404.25 181.029 408.59 185.559L408.6 185.549Z" fill="black"/>
<path opacity="0.2" d="M408.08 208.27C408.08 208.27 409.3 216.81 411.93 220.88C413.46 223.25 416.76 225.55 416.76 225.55L415.78 217.56L408.08 208.26V208.27Z" fill="black"/>
<path d="M373.84 212.47C373.12 212.65 363.34 225.16 363.34 225.16C363.34 225.16 351.82 212.97 350.66 207.72C350.66 207.72 363.63 188.71 365.33 187.58C369.86 184.56 374.96 184.52 374.96 184.52L373.84 212.47Z" fill="#713FFF"/>
<path opacity="0.2" d="M373.84 212.47C373.12 212.65 363.34 225.16 363.34 225.16C363.34 225.16 351.82 212.97 350.66 207.72C350.66 207.72 363.63 188.71 365.33 187.58C369.86 184.56 374.96 184.52 374.96 184.52L373.84 212.47Z" fill="black"/>
<path opacity="0.2" d="M368.29 218.979C368.28 218.539 367.84 202.419 367.86 203.149C367.88 203.869 365.03 223.019 365.03 223.019L368.29 218.979Z" fill="black"/>
<path d="M380.291 185.359C384.101 184.959 383.711 180.279 383.251 176.699C383.061 175.419 382.771 174.159 382.381 172.909L389.021 167.369L395.031 162.279C394.661 164.519 394.401 166.769 394.271 169.039C393.941 172.959 394.381 176.089 394.891 179.849C395.361 181.529 396.381 182.829 397.201 183.889C397.201 183.889 390.381 189.049 385.701 188.919C381.021 188.789 380.311 185.359 380.311 185.359H380.291Z" fill="#B97964"/>
<path opacity="0.2" d="M394.36 172.029C394.36 172.029 390.42 181.499 383.36 177.799L383.26 176.149L394.37 172.029H394.36Z" fill="black"/>
<path d="M397.9 150.68C395.66 144.13 388.32 140.39 381.51 142.33C372.12 145.01 370.04 158.12 371.57 166.31C373.28 175.42 384.61 180.58 392.14 174.37C397.16 170.24 397.33 164.99 398.45 156.13C398.69 154.31 398.51 152.45 397.9 150.69V150.68Z" fill="#B97964"/>
<path d="M368.87 147.95C368.87 147.95 369.74 148.96 370.55 148.67C369.74 147.35 369.84 145.72 370.81 144.56C370.81 144.56 371.4 145.96 372.09 145.99C372.51 142.69 373.98 139.61 376.31 137.18C380.35 132.68 393.61 138.48 393.61 138.48C393.61 138.48 396.78 135.79 401.82 140.35C405.86 144.01 406.34 151.48 405.96 154.69C404.49 157.79 401.02 160.79 396.31 162.31C394 159.68 393.84 155.71 394.07 152.97C393.37 152.78 392.72 152.42 392.19 151.91C390.12 149.93 391.66 143.03 383.42 144.06C381.96 143.17 380.12 143.16 378.72 144.04C376.19 145.51 374.82 153.57 371.32 151.22C367.82 148.86 368.87 147.96 368.87 147.96V147.95Z" fill="#263238"/>
<path d="M384.27 158.13C384.17 159.14 383.4 159.84 382.69 159.71C381.98 159.58 381.58 158.65 381.75 157.65C381.92 156.65 382.64 155.94 383.33 156.07C384.02 156.2 384.44 157.11 384.27 158.13Z" fill="#263238"/>
<path d="M375.481 157.14C375.381 158.15 374.591 158.85 373.901 158.72C373.211 158.59 372.791 157.66 372.961 156.66C373.131 155.66 373.851 154.95 374.541 155.08C375.231 155.21 375.641 156.19 375.481 157.14Z" fill="#263238"/>
<path d="M371.46 151.79C371.62 151.87 371.82 151.87 371.97 151.79C373.01 151.14 374.32 151 375.5 151.4C375.75 151.51 376.04 151.4 376.15 151.18C376.26 150.95 376.15 150.67 375.91 150.57C374.43 150.02 372.77 150.18 371.46 151C371.23 151.13 371.15 151.41 371.29 151.63C371.34 151.69 371.4 151.74 371.46 151.79Z" fill="#263238"/>
<path d="M385.65 155.39C385.75 155.39 385.84 155.34 385.92 155.28C386.09 155.08 386.05 154.79 385.83 154.63C384.58 153.7 382.93 153.4 381.41 153.82C381.16 153.91 381.03 154.17 381.12 154.41C381.22 154.65 381.5 154.77 381.75 154.69C382.96 154.39 384.26 154.64 385.24 155.38C385.37 155.44 385.53 155.44 385.66 155.38L385.65 155.39Z" fill="#263238"/>
<path d="M403.41 163.8C402.4 166.03 400.49 167.77 398.09 168.62C394.91 169.73 392.96 167.04 393.53 164.02C394.07 161.34 396.35 157.44 399.7 157.67C403.05 157.9 404.61 161.04 403.41 163.8Z" fill="#B97964"/>
<g opacity="0.1">
<path d="M396.161 164.63C396.291 163.57 396.79 162.55 397.52 161.78C398.13 161.14 399.39 160.1 400.3 160.73C400.7 161.01 401.07 160.36 400.68 160.08C399.49 159.25 397.94 160.29 397.09 161.14C396.15 162.08 395.571 163.31 395.411 164.63C395.391 164.83 395.601 165.01 395.791 165.01C396.011 165.01 396.141 164.84 396.171 164.63H396.161Z" fill="black"/>
</g>
<path d="M378.381 156.33C376.981 158.53 375.261 160.53 373.271 162.26C374.281 163.25 375.681 163.78 377.111 163.71L378.391 156.33H378.381Z" fill="#A24E3F"/>
<g opacity="0.3">
<path d="M383.84 143.27C383.41 142.08 382.86 141.11 381.94 140.22C381.11 139.42 380.01 138.85 378.85 138.75C377.49 138.63 376.15 139.26 375.22 140.23C374.29 141.2 373.71 142.47 373.33 143.76C373.19 144.22 373.92 144.42 374.05 143.96C374.64 142 375.84 139.84 378.07 139.53C378.94 139.41 379.73 139.63 380.5 140.08C381.82 140.85 382.6 142.09 383.11 143.48C383.27 143.93 384 143.74 383.83 143.28L383.84 143.27Z" fill="black"/>
</g>
<g opacity="0.3">
<path d="M385.73 142.67C385.42 139.62 383.23 136.94 380.28 136.06C379.82 135.92 379.62 136.65 380.08 136.78C382.68 137.55 384.7 139.96 384.98 142.67C385.03 143.15 385.78 143.15 385.73 142.67Z" fill="black"/>
</g>
<path d="M399.3 278.05L415.75 287.15C416.61 287.63 417.65 287.65 418.52 287.21L435.34 278.82C437.55 277.72 440.07 279.63 439.6 282.05L436.03 300.51C435.84 301.47 436.14 302.47 436.83 303.17L450.01 316.58C451.74 318.34 450.7 321.33 448.25 321.63L429.59 323.94C428.62 324.06 427.76 324.65 427.31 325.52L418.63 342.2C417.49 344.39 414.33 344.33 413.28 342.09L405.32 325.06C404.9 324.17 404.08 323.54 403.11 323.38L384.57 320.28C382.13 319.87 381.22 316.85 383.03 315.16L396.77 302.33C397.49 301.66 397.83 300.68 397.68 299.71L394.9 281.12C394.53 278.68 397.13 276.87 399.29 278.07L399.3 278.05Z" fill="#FFB800"/>
<path opacity="0.3" d="M426.35 283.31C426.35 283.31 408.35 298.78 412.91 305.22C418.78 313.5 431.32 326.5 410.92 336.99L408.06 330.86C408.06 330.86 414.98 327.16 414.73 319.88C414.48 312.61 407.43 310.48 408.06 301.17C408.69 291.85 416.8 288.01 416.8 288.01L426.35 283.31Z" fill="white"/>
<path d="M424.37 274.18L417.55 272.14L415.12 277C414.8 277.55 414.52 278.07 414.29 278.5C412.27 282.44 409.52 288.05 409.24 291.38C408.96 294.71 411.08 297.95 411.97 296.37C412.67 295.13 411.77 292.84 411.94 291.68C412.37 288.78 412.97 287.81 412.97 287.81C412.97 293.41 415.12 296.96 415.82 297.49C416.79 298.22 417.77 297.1 417.77 297.1C417.77 297.1 418.72 297.99 419.86 297.25C421.25 296.34 419.59 289.75 419.59 289.75C419.59 289.75 421.95 295.65 423.55 294.86C425.14 294.08 422.33 288.99 422 285.94C421.88 284.8 424.08 282.76 424.07 280.14C424.07 278.51 423.6 276.22 424.37 274.19V274.18Z" fill="#B97964"/>
<path d="M418.08 297.03C417.37 295.33 416.66 293.6 416.41 291.76C416.1 289.57 416.46 287.36 416.98 285.23C417.05 284.95 416.61 284.83 416.55 285.11C416.03 287.27 415.67 289.5 415.96 291.72C416.21 293.62 416.92 295.4 417.66 297.15C417.77 297.41 418.21 297.3 418.09 297.03H418.08Z" fill="#A24E3F"/>
<path d="M419.91 289.87C419.79 289.01 419.63 288.15 419.58 287.28C419.53 286.48 419.61 285.66 420.06 284.98C420.22 284.74 419.83 284.51 419.67 284.75C419.2 285.47 419.08 286.34 419.13 287.18C419.18 288.12 419.35 289.06 419.48 289.99C419.52 290.28 419.95 290.15 419.91 289.87Z" fill="#A24E3F"/>
<path d="M426.42 205.02L411.93 211.13C414.45 218.13 419.15 229.11 421.09 236.91C421.61 239 416.75 273.74 416.75 273.74L423.99 275.82C423.99 275.82 435.02 241.95 434.89 237.77C434.7 231.7 430.01 217.91 426.43 205.02H426.42Z" fill="#B97964"/>
<path d="M400.65 186.859C400.22 194.849 407.24 210.839 414.66 220.949C419.22 221.649 432.19 211.519 432.19 211.519C432.19 211.519 425.58 199.599 418.83 191.859C410.33 182.569 400.91 182.509 400.65 186.859Z" fill="#713FFF"/>
<g opacity="0.2">
<path d="M400.65 186.859C400.22 194.849 407.24 210.839 414.66 220.949C419.22 221.649 432.19 211.519 432.19 211.519C432.19 211.519 425.58 199.599 418.83 191.859C410.33 182.569 400.91 182.509 400.65 186.859Z" fill="black"/>
</g>
<path opacity="0.2" d="M380.09 176.249C380.48 176.189 381.5 175.449 381.25 173.469C380.99 171.489 375.74 166.769 373.54 167.039C371.34 167.309 372.92 170.289 372.92 170.289C372.92 170.289 378.5 175.559 378.77 175.689C379.61 176.089 380.1 176.259 380.1 176.259L380.09 176.249Z" fill="black"/>
<path d="M378.04 166.999C377.72 166.749 377.36 166.559 376.96 166.489C376.81 166.459 376.66 166.439 376.51 166.479C376.34 166.519 376.19 166.639 376.12 166.799C376.07 166.909 376.09 167.039 376.2 167.109C376.3 167.169 376.46 167.139 376.51 167.029C376.51 167.019 376.52 166.999 376.53 166.989C376.53 166.989 376.56 166.939 376.55 166.959C376.54 166.979 376.56 166.949 376.57 166.949C376.54 166.959 376.59 166.929 376.57 166.949C376.57 166.949 376.59 166.939 376.6 166.929C376.57 166.929 376.59 166.929 376.6 166.929C376.61 166.929 376.68 166.919 376.64 166.919C376.6 166.919 376.66 166.919 376.68 166.919C376.7 166.919 376.72 166.919 376.73 166.919C376.81 166.919 376.84 166.929 376.93 166.949C377.23 167.009 377.5 167.139 377.74 167.329C377.84 167.409 377.97 167.419 378.06 167.329C378.14 167.249 378.16 167.089 378.06 167.009L378.04 166.999Z" fill="#263238"/>
<path d="M378.59 170.57C378.59 170.57 378.57 170.56 378.56 170.55L375.06 167.85C373.79 166.92 372.1 166.83 370.74 167.62L367.65 169.38C366.49 170.05 365.72 171.25 365.58 172.6L364.92 178.89C361.7 187.49 355.08 197.7 351.11 206.6C349.04 211.56 346.01 217.04 345.27 222.66C344.96 225 345.65 227.35 347.16 229.15C349.7 232.05 354.27 230.97 356.41 229.31C358.16 228.28 362.47 224.24 362.48 224.23L359.39 220.77L363.51 205.36C364.97 198.41 367.73 191.74 369.68 186.05C374.44 183.17 377.85 177.28 377.85 177.28L379.17 175.46C380.34 173.95 380.08 171.76 378.59 170.57ZM358.18 223.35C358.18 223.45 358.18 223.54 358.16 223.54C358.16 223.48 358.18 223.41 358.18 223.35Z" fill="#B97964"/>
<path d="M358.13 226.27C358.84 224.2 359.45 222.1 359.96 219.97C360.07 219.5 359.35 219.3 359.24 219.77C358.73 221.9 358.11 224 357.41 226.07C357.25 226.53 357.98 226.72 358.13 226.27Z" fill="#A24E3F"/>
<path d="M124.15 209.621C124.25 210.581 120.04 228.481 121.17 234.621C122.3 240.761 130.73 264.231 129.31 268.041C127.89 271.861 109.94 266.551 109.94 266.551L86.5898 178.181C88.0098 176.861 102.04 176.041 107.21 180.091C107.76 180.521 110.13 182.711 110.73 183.191C115.74 187.181 122.59 194.821 124.14 209.621H124.15Z" fill="#263238"/>
<path d="M163.38 193.56C163.16 193.34 170.45 193.58 170.63 192.02C170.73 191.15 170.67 191.04 167.47 190.65C164.27 190.25 154.56 189.75 153.01 190.19C151.46 190.63 150.23 196.37 149.42 197.26C148.61 198.14 142.48 203.18 142.48 203.18L147.33 208.64L153.89 202.13C153.89 202.13 159.42 202.52 160.32 201.75C161.22 200.98 161.38 198.93 161.38 198.93C161.38 198.93 163.93 199.33 163.05 196.37C163.05 196.37 165.32 195.57 163.39 193.57L163.38 193.56Z" fill="#FFB463"/>
<path d="M153.19 191.53C154.16 191.45 155.4 191.34 156.12 192.13C156.84 192.92 156.78 194.38 156.7 195.41C156.65 196.02 156.58 196.69 156.38 197.27C156.18 197.85 155.42 197.16 155.18 196.88C154.57 196.16 154.39 195.14 154.74 194.26C154.8 194.11 154.62 193.92 154.46 193.98C153.72 194.28 152.93 194.38 152.15 194.24C151.87 194.19 151.75 194.62 152.03 194.67C152.9 194.82 153.77 194.74 154.58 194.41L154.3 194.13C153.97 194.96 154.07 195.91 154.5 196.68C154.8 197.22 155.81 198.39 156.51 197.85C156.9 197.56 156.93 196.85 157.01 196.41C157.11 195.82 157.17 195.21 157.17 194.61C157.17 193.62 157.11 192.46 156.36 191.72C155.53 190.91 154.25 190.96 153.18 191.05C152.89 191.07 152.89 191.52 153.18 191.5L153.19 191.53Z" fill="#FF7800"/>
<path d="M163.5 193.38C162.36 193.07 161.15 193.06 159.99 193.2C159.39 193.27 158.79 193.39 158.21 193.56C157.71 193.71 157.15 193.88 156.87 194.36C156.72 194.61 157.11 194.84 157.26 194.59C157.53 194.14 158.22 194.02 158.69 193.9C159.22 193.76 159.77 193.67 160.32 193.62C161.34 193.53 162.4 193.55 163.39 193.82C163.67 193.9 163.79 193.46 163.51 193.39L163.5 193.38Z" fill="#FF7800"/>
<path d="M160.26 201.39C159.26 201.19 158.27 200.98 157.27 200.78C156.8 200.68 156.27 200.63 155.83 200.43C155.39 200.23 155.07 199.74 155.5 199.36C155.84 199.07 156.38 199.01 156.8 199.04C157.3 199.08 157.79 199.1 158.29 199.11C159.3 199.14 160.3 199.14 161.31 199.23C161.6 199.25 161.6 198.8 161.31 198.78C160.09 198.68 158.87 198.7 157.64 198.64C156.78 198.6 155.39 198.39 154.92 199.38C154.74 199.77 154.86 200.21 155.16 200.51C155.49 200.85 155.97 200.97 156.43 201.06C157.67 201.32 158.9 201.57 160.14 201.82C160.42 201.88 160.54 201.44 160.26 201.39Z" fill="#FF7800"/>
<path d="M156.81 196.65C158.75 196.41 160.85 196.15 162.77 196.59C163.05 196.65 163.17 196.22 162.89 196.16C160.92 195.71 158.79 195.95 156.81 196.2C156.53 196.24 156.52 196.69 156.81 196.65Z" fill="#FF7800"/>
<path d="M149.93 196.37L129.56 209.7C129.56 209.7 127.25 204.07 124.55 198.52C121.79 192.86 116.96 183.42 111.7 182.75C109.97 182.53 107.57 181.93 106.5 182.36C98.0599 185.77 109.42 207.71 109.42 207.71C109.42 207.71 119.74 223.68 124.44 225.85C129.14 228.01 154.42 204.51 154.42 204.51L149.93 196.36V196.37Z" fill="#263238"/>
<path d="M122.84 219.451C123.41 216.141 124.38 212.961 124.53 209.591C124.76 204.561 123.42 199.651 121.05 195.231C119.01 191.421 116.31 188.011 113.37 184.871C113.04 184.521 112.51 185.051 112.84 185.401C117.37 190.241 121.43 195.861 123.07 202.381C124.08 206.411 123.96 210.521 123.13 214.571C122.81 216.141 122.39 217.681 122.12 219.261C122.04 219.731 122.76 219.931 122.84 219.461V219.451Z" fill="black"/>
<path d="M41.3699 436.841C40.8999 435.631 40.1999 434.511 39.3099 433.561C39.3099 433.561 37.9099 428.581 41.8499 418.161L38.2699 414.711C36.9999 413.531 35.1099 413.251 33.5499 414.031C33.3299 414.121 33.1299 414.261 32.9599 414.441C32.1599 415.321 31.4199 416.251 30.7499 417.231C28.4899 420.591 26.4499 424.071 24.6099 427.671L25.3599 428.131L29.4299 421.711C30.8199 419.521 31.0599 423.141 30.1599 425.811C29.2599 428.481 28.8399 431.651 33.7499 434.561C39.4899 437.931 42.0599 439.031 41.3699 436.861V436.841Z" fill="#263238"/>
<path d="M43.1097 414.34C43.1097 414.34 41.4697 419.2 40.1197 424.84C39.2797 427.67 38.9997 430.63 39.2997 433.56C39.2997 433.56 35.1997 432.12 35.0197 428.74C34.8397 425.36 37.4997 415.72 33.4897 414.05C34.1597 413.6 34.8697 413.23 35.6297 412.95C36.7597 412.44 43.0997 414.34 43.0997 414.34H43.1097Z" fill="#FFB463"/>
<path d="M114.75 434.9C113.74 434.07 112.58 433.43 111.32 433.02C111.32 433.02 107.63 429.35 105.91 418.36L101.07 417.07C99.3797 416.65 97.5897 417.32 96.6097 418.74C96.4597 418.93 96.3597 419.15 96.2997 419.38C96.0397 420.53 95.8497 421.7 95.7497 422.88C95.4397 426.89 95.3797 430.92 95.5697 434.94L96.4497 434.98L96.8197 427.42C96.9497 424.84 98.9497 427.88 99.4897 430.65C100.03 433.41 101.23 436.38 106.96 436.56C113.64 436.74 116.42 436.46 114.75 434.9Z" fill="#263238"/>
<path d="M105.12 414.42C105.12 414.42 106.1 419.45 107.72 425.02C108.39 427.89 109.61 430.61 111.33 433.02C111.33 433.02 107.04 433.74 105.21 430.87C103.38 428.01 100.92 418.31 96.5996 418.78C96.9596 418.07 97.3996 417.4 97.9196 416.79C98.6496 415.8 105.13 414.41 105.13 414.41L105.12 414.42Z" fill="#FFB463"/>
<path d="M115.17 238.74C115.17 238.74 127.66 269.349 117.74 318.269C117.48 346.759 107.38 416.439 107.38 416.439C104.02 417.38 93.3798 416.729 89.9498 416.029C89.9498 416.029 89.6498 360.63 92.0398 314.219C84.7998 266.589 85.2998 241.38 85.2998 241.38L115.17 238.729V238.74Z" fill="#533E8E"/>
<path d="M108.72 240.35C108.72 240.35 96.5898 302.97 88.3698 329.85C79.7298 358.07 47.3297 417.07 46.3597 418.96C42.4197 418.1 34.1497 414.71 31.7397 412.6C31.7397 412.6 50.7497 355.01 61.8997 324.28C64.4297 308.53 66.1597 299.31 65.7097 282.63C64.8797 251.72 79.4398 238.42 79.4398 238.42L108.73 240.36L108.72 240.35Z" fill="#533E8E"/>
<path opacity="0.2" d="M101.88 273.84L112.24 265.52L103.53 278.37L91.2397 331.39L91.8497 317.24L101.88 273.84Z" fill="black"/>
<path d="M117.25 198.6C117.25 198.6 122.49 210.3 119.19 217.19C112.52 237.18 120.81 238.08 118.25 241.77C114.43 244.78 90.8899 248.81 78.5399 239.24C80.1799 231.11 80.5599 217.14 74.5399 194C73.2399 189.01 76.2899 183.92 81.3599 182.64C81.6799 182.56 82.0099 182.49 82.3399 182.45C83.8199 182.24 85.3999 182.04 87.0099 181.89C92.6499 181.25 95.8799 181.19 101.55 181.34C102.54 181.39 101.73 181.22 104.74 181.93C104.74 181.93 110.76 186.39 112.46 189.08C114.28 191.96 117.16 198.38 117.24 198.62L117.25 198.6Z" fill="white"/>
<g opacity="0.3">
<path d="M113.79 217.58C111.9 221.88 108.42 225.48 104.15 227.55C107.08 227.98 110.01 227.02 112.81 226.07C109.88 229.06 104.93 229.92 101.13 228.1C105.18 224.64 109.74 221.03 113.79 217.57V217.58Z" fill="black"/>
</g>
<path d="M64.3399 170.62C64.8299 169.06 66.0099 167.87 66.9399 166.55C68.6999 164.08 69.6199 161.07 70.3299 158.07C71.0299 155.07 71.5399 152.01 72.5999 149.13C73.6599 146.25 75.3399 143.51 77.8499 141.9C80.3599 140.29 83.8099 140.04 86.2099 141.84L87.4899 142.06C85.2299 151.56 85.9999 161.58 84.4399 171.23C84.0499 173.67 83.4399 176.21 81.8199 178.01C79.2199 180.89 74.7999 180.97 71.1599 179.82C69.1799 179.19 67.2299 178.23 65.8299 176.62C64.4399 175.01 63.6899 172.67 64.3399 170.62Z" fill="#263238"/>
<path d="M84.7601 142.1C87.6701 139.26 90.3601 137.58 94.2101 136.99C97.5901 136.47 102.37 136.85 105.45 138.51C109.64 140.77 112.18 145.66 113.77 150.52C115.56 155.97 113.37 162.66 110.82 167.67C109.76 169.74 108.82 170.6 106.74 170.39L105.97 171.48C99.6701 173.4 93.9501 180.06 82.1601 162C78.2601 156.03 79.8701 146.87 84.7701 142.1H84.7601Z" fill="#263238"/>
<path d="M100.78 180.931C99.7897 180.081 100.17 178.251 100.31 176.461C100.4 175.091 100.78 173.651 101.24 172.251L99.2897 170.371L89.2297 161.971C89.9997 168.091 92.1397 177.921 87.5597 181.671L84.9697 182.001C86.6597 183.141 91.3097 188.791 101.35 189.221C106.79 189.451 105.57 183.961 103.99 181.651C101.51 181.121 100.77 180.941 100.77 180.941L100.78 180.931Z" fill="#FFB463"/>
<path opacity="0.2" d="M100.37 177.26C97.6897 176.78 93.7897 175.22 92.9997 172.27C92.6697 171.06 92.5797 169.84 92.6197 169.03L100.76 173.52C100.72 174.69 100.12 175.6 100.38 177.26H100.37Z" fill="black"/>
<path d="M84.8901 152.41C86.6301 161.69 87.1601 165.64 92.5201 170.1C100.58 176.81 111.69 173.31 112.78 163.86C113.76 155.36 110.75 141.61 101.06 138.52C91.5101 135.47 83.1401 143.13 84.8801 152.4L84.8901 152.41Z" fill="#FFB463"/>
<path d="M98.8099 154.96C98.8599 156.01 99.4199 156.86 100.04 156.87C100.67 156.87 101.13 156.04 101.08 154.99C101.03 153.94 100.47 153.09 99.8499 153.08C99.2199 153.08 98.7599 153.91 98.8099 154.96Z" fill="#263238"/>
<path d="M97.01 152.261C97.13 152.281 97.26 152.241 97.35 152.161C98.85 150.861 100.5 151.371 100.51 151.371C100.75 151.451 101 151.321 101.07 151.071C101.13 150.831 100.98 150.561 100.74 150.481C100.65 150.451 98.59 149.811 96.73 151.431C96.54 151.591 96.53 151.881 96.71 152.081C96.79 152.181 96.9 152.231 97.02 152.251L97.01 152.261Z" fill="#263238"/>
<path d="M110.54 150.531C110.65 150.501 110.75 150.431 110.8 150.321C110.92 150.101 110.82 149.831 110.58 149.711C108.21 148.491 106.31 149.421 106.23 149.461C106 149.571 105.93 149.841 106.06 150.061C106.19 150.281 106.49 150.371 106.71 150.251C106.78 150.211 108.28 149.511 110.16 150.491C110.28 150.551 110.42 150.561 110.53 150.531H110.54Z" fill="#263238"/>
<path d="M104.25 153.24C104.25 153.24 106.06 156.61 107.94 158.64C108.27 159 108.14 159.57 107.7 159.77C106.57 160.3 105.16 160.04 105.16 160.04L104.25 153.24Z" fill="#FF7800"/>
<path d="M99.48 153.16L101.66 152.63C101.66 152.63 99.03 154.62 99.48 153.16Z" fill="#263238"/>
<path d="M107.32 154.2C107.37 155.27 107.93 156.14 108.55 156.14C109.18 156.14 109.64 155.29 109.59 154.22C109.54 153.15 108.98 152.28 108.36 152.28C107.73 152.28 107.27 153.13 107.32 154.2Z" fill="#263238"/>
<path d="M107.93 152.381L110.11 151.851C110.11 151.851 108.11 153.501 107.93 152.381Z" fill="#263238"/>
<path d="M90.11 168.451C80.55 162.911 78.34 139.101 94.91 137.031C111.48 134.961 113.85 157.351 113.85 157.351C107.18 143.921 92.71 143.781 92.71 143.781C96.24 150.891 89.97 155.941 89.97 155.941C87.89 160.841 90.11 166.231 90.12 168.441L90.11 168.451Z" fill="#263238"/>
<path d="M82.7299 160.29C84.0299 162.11 85.9699 163.15 87.6699 163.41C90.2399 163.8 91.1699 159.71 90.0799 157.3C89.0999 155.14 86.4899 153.88 84.0899 154.59C81.7199 155.29 81.2399 158.21 82.7199 160.29H82.7299Z" fill="#FFB463"/>
<path opacity="0.2" d="M86.04 156.82C85.22 156.56 84.41 157.13 84.18 157.8C83.9 158.61 84.45 160.43 86.95 160.88" stroke="black" stroke-width="0.5" stroke-linecap="round" stroke-linejoin="round"/>
<g opacity="0.3">
<path d="M92.0298 144.05C92.7198 145.11 92.7598 146.52 92.2998 147.69C91.7798 149 90.5198 149.91 89.3098 150.55C86.5298 152.02 83.2698 152.62 80.1398 152.53C79.6598 152.52 79.6598 153.27 80.1398 153.28C83.6098 153.38 87.3798 152.68 90.3598 150.82C91.5598 150.07 92.6598 149.04 93.0998 147.66C93.5198 146.36 93.4198 144.84 92.6698 143.69C92.4098 143.29 91.7598 143.66 92.0198 144.07L92.0298 144.05Z" fill="black"/>
</g>
<g opacity="0.3">
<path d="M85.12 141.36C81.66 144.62 79.31 149.33 79.4 154.14C79.49 158.95 81.91 162.69 84.67 166.2C84.97 166.58 85.5 166.05 85.2 165.67C82.57 162.32 80.24 158.52 80.15 154.14C80.06 149.52 82.32 145.02 85.65 141.89C86 141.56 85.47 141.03 85.12 141.36Z" fill="black"/>
</g>
<g opacity="0.3">
<path d="M91.1998 144.04C89.9998 147.72 86.1198 149.86 82.3498 149.04C81.8798 148.94 81.6798 149.66 82.1498 149.76C86.3298 150.66 90.5898 148.32 91.9198 144.23C92.0698 143.77 91.3498 143.57 91.1998 144.03V144.04Z" fill="black"/>
</g>
<path d="M87.9297 178.47C88.4697 181.55 95.9497 213.5 96.8297 222.9C97.7197 232.3 87.2597 270.94 84.5997 273.41C81.9397 275.88 58.8697 260.48 59.6497 260.26C60.4297 260.04 72.5897 240.53 74.2697 232.14C75.9497 223.75 73.4597 190.89 73.1197 187.31C72.7897 183.73 78.3297 184.01 83.8297 181.71L86.5997 178.19L87.9197 178.48L87.9297 178.47Z" fill="#263238"/>
<path opacity="0.3" d="M69.9696 242.971L72.3496 257.321L69.9296 257.771C69.9296 257.771 73.7496 267.031 73.3596 269.311L67.9096 266.721L64.8296 252.971L69.9596 242.981L69.9696 242.971Z" fill="black"/>
<path d="M78.9997 183.591C75.8697 183.771 70.4697 185.651 69.4397 188.291C65.5497 198.221 57.8197 221.581 56.1997 227.211C55.1697 230.781 58.8797 257.821 58.8797 257.821L70.3997 256.121C70.3997 256.121 67.7397 230.221 68.5097 228.471C71.4097 221.941 82.3097 204.231 83.6397 198.321C84.9797 192.411 86.2397 186.961 82.9097 184.521C81.9097 183.791 80.1797 183.511 78.9997 183.581V183.591Z" fill="#263238"/>
<path d="M61.5899 257.431C61.9699 259.321 61.2099 261.251 60.9599 262.681C60.5599 264.971 62.2099 267.081 61.9299 268.061C61.1799 270.681 57.9099 274.711 59.2099 275.631C60.5099 276.551 63.4899 271.741 63.4899 271.741C63.4899 271.741 60.9499 277.271 62.1799 278.101C63.8899 279.251 64.1299 278.521 64.1299 278.521C64.1299 278.521 64.6499 279.681 65.8699 279.311C66.6199 279.081 68.8199 275.921 69.6599 271.021C69.6599 271.021 69.7699 272.621 69.7099 275.221C69.6899 276.261 68.9699 277.421 69.2499 278.651C69.6499 280.381 72.1699 277.651 72.4199 274.691C72.6699 271.741 71.0699 266.421 69.8699 262.681C69.7399 262.271 69.5599 261.781 69.3599 261.251L67.9299 256.471" fill="#FFB463"/>
<path d="M64.2398 278.621C65.1598 277.181 66.0698 275.721 66.5898 274.081C67.1898 272.171 67.2098 270.151 67.0698 268.171C67.0398 267.691 66.2898 267.691 66.3198 268.171C66.4598 270.081 66.4498 272.031 65.8698 273.881C65.3698 275.451 64.4798 276.861 63.5998 278.241C63.3398 278.651 63.9898 279.021 64.2498 278.621H64.2398Z" fill="#FF7800"/>
<path d="M63.7297 272.001C64.2097 270.501 64.9897 268.811 64.3097 267.251C64.2297 267.061 63.9597 267.021 63.7997 267.121C63.6097 267.231 63.5797 267.451 63.6697 267.631C63.9497 268.271 63.8597 269.001 63.6897 269.661C63.4997 270.381 63.2497 271.09 63.0197 271.8C62.8697 272.26 63.5997 272.461 63.7397 272.001H63.7297Z" fill="#FF7800"/>
<path d="M94.7999 212.54C92.8899 209.79 91.0099 207.02 89.1599 204.22C88.2999 202.91 86.9399 201.36 86.8399 199.73C86.7599 198.39 87.7299 197.25 87.7399 195.92C87.7599 193.65 85.3799 192.59 84.2599 190.91C82.3199 187.99 83.7499 184.48 84.8499 181.55C85.0199 181.1 84.2899 180.9 84.1299 181.35C83.1199 184.04 81.9999 186.88 82.9099 189.77C83.2699 190.92 83.9499 191.82 84.7999 192.66C85.9099 193.75 87.2899 194.79 86.8999 196.54C86.6199 197.8 85.9099 198.84 86.1399 200.19C86.3899 201.61 87.3399 202.83 88.1099 204C90.0799 207 92.0899 209.97 94.1399 212.92C94.4099 213.31 95.0599 212.94 94.7899 212.54H94.7999Z" fill="black"/>
<path d="M75.2395 217.14C77.5795 212.84 79.5395 208.35 81.1095 203.72C81.2695 203.26 80.5395 203.07 80.3895 203.52C78.8395 208.09 76.8995 212.52 74.5895 216.76C74.3595 217.18 75.0095 217.56 75.2395 217.14Z" fill="black"/>
<path d="M84.1495 248.22C80.9795 246.42 77.8195 244.61 74.6495 242.81C74.2295 242.57 73.8495 243.22 74.2695 243.46C77.4395 245.26 80.5995 247.07 83.7695 248.87C84.1895 249.11 84.5695 248.46 84.1495 248.22Z" fill="black"/>
<path d="M104.78 163.61C104.08 164.36 103.44 165.16 102.86 166C102.7 165.93 102.53 165.85 102.37 165.77C100.14 164.72 99.4497 163.51 99.3797 162.48C99.3497 161.98 99.4497 161.47 99.6597 161.01C99.7697 160.75 99.9197 160.5 100.1 160.28C100.95 161.54 102.95 162.67 104.04 163.24C104.52 163.46 104.79 163.61 104.79 163.61H104.78Z" fill="#263238"/>
<path d="M104.03 163.221L103.44 163.911C101.34 162.921 99.9999 161.951 99.6499 160.991C99.7599 160.731 99.9099 160.481 100.09 160.261C100.94 161.531 102.94 162.651 104.03 163.221Z" fill="white"/>
<path d="M102.39 165.791C100.16 164.741 99.4699 163.531 99.3999 162.501C100.24 162.911 101 163.471 101.64 164.151C102.06 164.611 102.32 165.181 102.39 165.791Z" fill="#FF3F3E"/>
</g>
<defs>
<clipPath id="clip0_146_1059">
<rect width="500" height="444.85" fill="white"/>
</clipPath>
</defs>
</svg>
