<svg width="481" height="462" viewBox="0 0 481 462" fill="none" xmlns="http://www.w3.org/2000/svg">
<mask id="mask0_140_679" style="mask-type:alpha" maskUnits="userSpaceOnUse" x="0" y="0" width="481" height="462">
<rect x="0.5" y="0.5" width="480.5" height="461.498" fill="#D9D9D9"/>
</mask>
<g mask="url(#mask0_140_679)">
<path d="M340.206 454.051C401.591 454.051 451.354 404.349 451.354 343.037C451.354 281.726 401.591 232.023 340.206 232.023C278.82 232.023 229.057 281.726 229.057 343.037C229.057 404.349 278.82 454.051 340.206 454.051Z" fill="url(#paint0_linear_140_679)"/>
<path d="M292.691 267.418C353.386 206.796 353.386 108.51 292.691 47.8891C231.997 -12.732 133.592 -12.732 72.8971 47.8891C12.2026 108.51 12.2026 206.796 72.8971 267.418C133.592 328.039 231.997 328.039 292.691 267.418Z" fill="url(#paint1_linear_140_679)"/>
<path d="M139.114 197.095C137.836 197.095 136.558 197.082 135.293 197.019L135.381 195.124C136.621 195.174 137.861 195.2 139.101 195.2V197.095H139.114ZM144.832 196.855L144.681 194.959C145.921 194.858 147.16 194.732 148.388 194.568L148.628 196.451C147.376 196.615 146.11 196.741 144.832 196.855ZM129.587 196.564C128.321 196.413 127.056 196.236 125.804 196.021L126.12 194.151C127.335 194.353 128.562 194.542 129.802 194.681L129.574 196.564H129.587ZM154.284 195.503L153.891 193.645C155.106 193.392 156.321 193.114 157.522 192.799L158.003 194.631C156.776 194.947 155.536 195.237 154.284 195.503ZM120.199 194.833C118.959 194.517 117.732 194.189 116.517 193.81L117.074 191.99C118.263 192.356 119.452 192.685 120.667 192.988L120.212 194.833H120.199ZM163.482 192.975L162.862 191.181C164.038 190.777 165.202 190.334 166.354 189.879L167.062 191.649C165.885 192.116 164.684 192.571 163.469 192.988L163.482 192.975ZM111.102 191.939C109.913 191.484 108.749 190.992 107.585 190.473L108.369 188.742C109.495 189.248 110.634 189.728 111.798 190.183L111.115 191.952L111.102 191.939ZM172.313 189.311L171.465 187.605C172.578 187.061 173.679 186.48 174.767 185.874L175.691 187.529C174.577 188.148 173.451 188.742 172.3 189.311H172.313ZM102.448 187.933C101.335 187.327 100.221 186.695 99.1458 186.025L100.133 184.408C101.195 185.052 102.271 185.671 103.359 186.265L102.448 187.933ZM180.6 184.547L179.55 182.967C180.587 182.285 181.612 181.577 182.612 180.832L183.738 182.361C182.713 183.119 181.663 183.839 180.6 184.547ZM94.376 182.866C93.3385 182.12 92.3264 181.362 91.3269 180.566L92.5161 179.075C93.4904 179.846 94.4772 180.591 95.4894 181.324L94.376 182.866ZM188.216 178.81L186.976 177.369C187.925 176.56 188.836 175.726 189.747 174.88L191.05 176.257C190.127 177.129 189.178 177.988 188.216 178.81ZM86.9872 176.838C86.0509 175.979 85.14 175.082 84.2543 174.172L85.6208 172.845C86.4938 173.73 87.3794 174.602 88.2904 175.448L86.9998 176.838H86.9872ZM195.049 172.15L193.644 170.874C194.479 169.951 195.289 169.016 196.073 168.056L197.541 169.256C196.731 170.242 195.909 171.202 195.049 172.15ZM80.4081 169.926C79.5857 168.953 78.8013 167.955 78.0295 166.944L79.5478 165.794C80.2942 166.779 81.0787 167.753 81.8758 168.7L80.4208 169.926H80.4081ZM201.008 164.707L199.451 163.62C200.16 162.609 200.856 161.573 201.514 160.524L203.121 161.535C202.437 162.609 201.741 163.671 201.008 164.707ZM74.74 162.243C74.0441 161.169 73.3862 160.082 72.7536 158.983L74.3984 158.035C75.0183 159.109 75.6636 160.17 76.3342 161.219L74.74 162.256V162.243ZM205.993 156.582L204.31 155.697C204.892 154.598 205.436 153.498 205.967 152.374L207.688 153.182C207.144 154.332 206.587 155.47 205.993 156.594V156.582ZM70.0714 153.915C69.5273 152.765 68.996 151.603 68.5025 150.427L70.2612 149.695C70.7419 150.844 71.248 151.982 71.7921 153.094L70.0714 153.915ZM209.902 147.888L208.118 147.218C208.561 146.055 208.966 144.893 209.345 143.705L211.155 144.286C210.762 145.499 210.345 146.7 209.902 147.888ZM66.5035 145.057C66.0986 143.856 65.7317 142.631 65.3901 141.405L67.2247 140.899C67.5536 142.1 67.9205 143.288 68.3001 144.463L66.4908 145.057H66.5035ZM212.698 138.776L210.851 138.334C211.142 137.134 211.395 135.92 211.623 134.695L213.495 135.036C213.267 136.287 213.002 137.538 212.711 138.764L212.698 138.776ZM64.0743 135.845C63.8339 134.606 63.6188 133.343 63.429 132.079L65.3142 131.814C65.4913 133.052 65.7064 134.265 65.9342 135.478L64.0616 135.845H64.0743ZM214.318 129.387L212.42 129.185C212.546 127.959 212.66 126.721 212.723 125.483L214.621 125.596C214.545 126.873 214.444 128.136 214.305 129.4L214.318 129.387ZM62.8344 126.392C62.7458 125.179 62.6952 123.966 62.6699 122.728L64.5677 122.538V122.69C64.593 123.89 64.6436 125.078 64.7322 126.266L62.8344 126.392ZM214.748 119.859L212.85 119.897V119.606C212.812 118.355 212.761 117.117 212.673 115.891L214.571 115.765C214.659 117.029 214.722 118.292 214.748 119.568V119.859ZM64.6689 116.965L62.7711 116.864C62.847 115.588 62.9483 114.324 63.0748 113.061L64.9726 113.263C64.8461 114.489 64.7449 115.727 64.6689 116.965ZM212.066 110.331C211.888 109.093 211.673 107.879 211.433 106.666L213.293 106.3C213.533 107.538 213.761 108.802 213.938 110.066L212.053 110.344L212.066 110.331ZM65.7697 107.728L63.8972 107.387C64.1249 106.136 64.3906 104.885 64.6816 103.646L66.5288 104.088C66.2505 105.289 65.9848 106.502 65.7697 107.728ZM210.142 101.245C209.813 100.045 209.447 98.8568 209.054 97.6943L210.864 97.0877C211.268 98.2882 211.635 99.5013 211.977 100.74L210.142 101.245ZM68.0217 98.7178L66.2125 98.1492C66.5921 96.936 67.0096 95.7355 67.4651 94.5477L69.249 95.2174C68.8188 96.38 68.414 97.5426 68.0344 98.7305L68.0217 98.7178ZM207.081 92.4626C206.6 91.3127 206.081 90.188 205.55 89.0633L207.27 88.2419C207.827 89.3919 208.346 90.5545 208.839 91.7297L207.081 92.4626ZM71.3872 90.0616L69.6665 89.2655C70.1979 88.1156 70.7672 86.9783 71.3619 85.8536L73.0446 86.7382C72.4626 87.8249 71.9186 88.937 71.3998 90.0616H71.3872ZM202.943 84.1224C202.323 83.0482 201.666 81.9868 200.995 80.9505L202.589 79.9143C203.285 80.9758 203.943 82.0626 204.588 83.1746L202.943 84.1224ZM75.8154 81.8983L74.2086 80.8873C74.8792 79.8132 75.5877 78.7517 76.3088 77.7029L77.8651 78.7896C77.1565 79.8006 76.4733 80.8368 75.8154 81.8857V81.8983ZM197.781 76.376C197.035 75.3904 196.25 74.4173 195.453 73.4696L196.908 72.2438C197.731 73.2168 198.528 74.2151 199.3 75.2261L197.781 76.376ZM81.2432 74.3415L79.7629 73.141C80.5726 72.1553 81.395 71.1949 82.2553 70.2472L83.6724 71.5235C82.8373 72.446 82.0276 73.3811 81.2432 74.3415ZM191.696 69.3373C190.823 68.4528 189.937 67.5808 189.026 66.7468L190.317 65.3441C191.253 66.2034 192.164 67.088 193.062 67.9978L191.708 69.3247L191.696 69.3373ZM87.5565 67.5176L86.2407 66.1402C87.1643 65.2683 88.1006 64.409 89.0748 63.575L90.3147 65.0156C89.3784 65.8243 88.4548 66.6583 87.5565 67.5176ZM184.775 63.1201C183.801 62.3492 182.814 61.6036 181.802 60.8833L182.903 59.3417C183.94 60.0872 184.952 60.8454 185.952 61.6416L184.762 63.1327L184.775 63.1201ZM94.6923 61.5405L93.5663 60.0114C94.5911 59.2532 95.6286 58.5203 96.6913 57.8252L97.7415 59.4048C96.704 60.0872 95.6918 60.8075 94.6923 61.5405ZM177.146 57.8C176.083 57.1555 175.008 56.5363 173.92 55.955L174.83 54.287C175.944 54.8935 177.057 55.5254 178.133 56.1825L177.146 57.8126V57.8ZM102.511 56.4858L101.588 54.8303C102.701 54.2111 103.827 53.6172 104.966 53.0485L105.813 54.7545C104.7 55.3105 103.599 55.8918 102.511 56.4984V56.4858ZM168.909 53.4908C167.783 52.9854 166.632 52.5052 165.481 52.0629L166.164 50.2937C167.353 50.7487 168.53 51.2415 169.681 51.7596L168.909 53.4908ZM110.912 52.4673L110.204 50.7107C111.38 50.2305 112.582 49.7883 113.784 49.3712L114.404 51.1657C113.228 51.57 112.064 52.0123 110.912 52.4799V52.4673ZM160.205 50.2432C159.015 49.8894 157.826 49.5608 156.612 49.2575L157.067 47.4126C158.307 47.7158 159.534 48.057 160.749 48.4235L160.192 50.2432H160.205ZM119.756 49.5355L119.275 47.7032C120.503 47.3746 121.742 47.084 122.995 46.8186L123.387 48.6762C122.173 48.929 120.958 49.2196 119.769 49.5355H119.756ZM151.146 48.1202C149.931 47.918 148.691 47.7411 147.464 47.5895L147.692 45.7066C148.957 45.8582 150.222 46.0351 151.475 46.25L151.158 48.1202H151.146ZM128.878 47.7285L128.625 45.8456C129.878 45.6813 131.143 45.5423 132.421 45.4412L132.573 47.3367C131.333 47.4378 130.093 47.5768 128.866 47.7285H128.878ZM141.885 47.1472C140.657 47.0966 139.405 47.0714 138.165 47.084V45.1885C139.43 45.1885 140.708 45.1885 141.973 45.2517L141.897 47.1472H141.885Z" fill="#B4B8CC"/>
<path d="M421.583 413.259L421.381 411.364H421.571C422.747 411.338 423.937 411.275 425.113 411.174L425.278 413.07C424.051 413.171 422.823 413.247 421.571 413.272L421.583 413.259ZM415.612 413.07C414.334 412.956 413.043 412.804 411.765 412.602L412.056 410.719C413.296 410.909 414.549 411.06 415.776 411.174L415.612 413.07ZM431.047 412.261L430.693 410.391C431.908 410.163 433.135 409.873 434.337 409.557L434.83 411.389C433.578 411.718 432.312 412.021 431.047 412.261ZM406.072 411.402C404.832 411.073 403.58 410.694 402.365 410.277L402.985 408.483C404.162 408.887 405.364 409.253 406.565 409.569L406.072 411.402ZM440.359 409.595L439.676 407.825C440.84 407.383 442.004 406.89 443.13 406.36L443.94 408.078C442.776 408.622 441.574 409.14 440.372 409.595H440.359ZM396.975 408.103C395.811 407.56 394.647 406.966 393.521 406.347L394.445 404.692C395.533 405.298 396.659 405.867 397.772 406.385L396.963 408.103H396.975ZM449.064 405.349L448.077 403.718C449.127 403.087 450.19 402.392 451.215 401.671L452.303 403.226C451.24 403.971 450.139 404.679 449.051 405.336L449.064 405.349ZM388.6 403.264C387.549 402.531 386.499 401.747 385.5 400.938L386.689 399.46C387.651 400.243 388.663 401.002 389.675 401.709L388.587 403.264H388.6ZM456.895 399.649L455.643 398.221C456.592 397.4 457.503 396.541 458.376 395.669L459.717 397.008C458.818 397.906 457.857 398.803 456.883 399.649H456.895ZM381.173 397.059C380.262 396.149 379.364 395.189 378.529 394.228L379.958 392.977C380.768 393.912 381.628 394.822 382.514 395.707L381.173 397.046V397.059ZM463.626 392.699L462.146 391.511C462.93 390.551 463.69 389.54 464.398 388.529L465.954 389.616C465.22 390.665 464.423 391.714 463.614 392.699H463.626ZM374.935 389.654C374.189 388.605 373.48 387.506 372.822 386.406L374.455 385.42C375.1 386.482 375.783 387.531 376.504 388.554L374.948 389.654H374.935ZM469.041 384.687L467.384 383.765C467.991 382.678 468.561 381.554 469.079 380.442L470.8 381.25C470.256 382.4 469.674 383.563 469.041 384.7V384.687ZM370.077 381.288C369.533 380.113 369.014 378.913 368.559 377.725L370.33 377.042C370.773 378.192 371.266 379.342 371.798 380.492L370.077 381.301V381.288ZM472.989 375.854L471.192 375.235C471.597 374.06 471.964 372.859 472.28 371.659L474.115 372.152C473.786 373.39 473.406 374.629 472.976 375.854H472.989ZM366.749 372.202C366.42 370.964 366.117 369.7 365.876 368.424L367.749 368.058C367.989 369.283 368.268 370.509 368.597 371.697L366.762 372.19L366.749 372.202ZM475.329 366.465L473.444 366.175C473.634 364.962 473.786 363.71 473.9 362.459L475.798 362.624C475.684 363.913 475.532 365.202 475.329 366.465ZM365.067 362.674C364.953 361.436 364.89 360.185 364.864 358.921L366.762 358.77V358.883C366.787 360.109 366.851 361.309 366.965 362.51L365.067 362.674ZM476 356.823L474.102 356.861V356.621C474.077 355.408 474.001 354.157 473.887 352.906L475.785 352.742C475.899 354.031 475.975 355.332 476 356.609V356.823ZM366.952 353.171L365.054 353.007C365.155 351.731 365.32 350.429 365.522 349.166L367.407 349.456C367.218 350.682 367.066 351.933 366.965 353.171H366.952ZM473.09 347.359C472.85 346.145 472.571 344.92 472.242 343.719L474.077 343.226C474.419 344.477 474.71 345.741 474.963 346.992L473.103 347.359H473.09ZM368.546 343.972L366.711 343.479C367.04 342.253 367.42 341.002 367.838 339.776L369.634 340.396C369.229 341.583 368.862 342.784 368.546 343.972ZM470.484 338.386C470.041 337.236 469.535 336.074 469.003 334.949L470.724 334.14C471.268 335.316 471.787 336.504 472.255 337.704L470.484 338.386ZM371.734 335.189L370.014 334.381C370.558 333.205 371.152 332.043 371.772 330.931L373.442 331.853C372.848 332.927 372.278 334.052 371.747 335.189H371.734ZM466.359 330.008C465.714 328.947 465.031 327.898 464.31 326.874L465.866 325.775C466.612 326.836 467.321 327.923 467.991 329.01L466.372 329.996L466.359 330.008ZM376.403 327.102L374.847 326.015C375.581 324.966 376.365 323.93 377.175 322.919L378.655 324.107C377.871 325.08 377.111 326.078 376.403 327.102ZM460.83 322.477C460.008 321.529 459.147 320.619 458.262 319.747L459.603 318.395C460.514 319.292 461.4 320.24 462.26 321.213L460.83 322.464V322.477ZM382.4 319.937L381.046 318.597C381.945 317.687 382.906 316.803 383.88 315.943L385.133 317.371C384.197 318.193 383.273 319.052 382.4 319.924V319.937ZM454.087 316.007C453.1 315.211 452.1 314.465 451.088 313.77L452.176 312.216C453.214 312.936 454.264 313.719 455.276 314.541L454.087 316.019V316.007ZM389.548 313.922L388.448 312.367C389.498 311.622 390.599 310.914 391.699 310.244L392.686 311.862C391.623 312.506 390.573 313.189 389.548 313.909V313.922ZM446.318 310.8C445.23 310.194 444.104 309.625 442.991 309.107L443.788 307.388C444.952 307.919 446.116 308.513 447.242 309.132L446.318 310.8ZM397.633 309.221L396.823 307.502C397.987 306.959 399.189 306.441 400.391 305.973L401.074 307.742C399.91 308.197 398.746 308.69 397.633 309.221ZM437.765 307.022C436.589 306.618 435.387 306.251 434.185 305.935L434.666 304.103C435.906 304.431 437.158 304.81 438.373 305.228L437.753 307.022H437.765ZM406.414 305.998L405.92 304.166C407.16 303.837 408.438 303.534 409.691 303.294L410.057 305.152C408.843 305.392 407.616 305.67 406.414 305.998ZM428.694 304.785C427.467 304.596 426.214 304.444 424.974 304.343L425.126 302.447C426.404 302.549 427.707 302.713 428.972 302.902L428.681 304.785H428.694ZM415.624 304.368L415.46 302.473C416.725 302.359 418.003 302.296 419.268 302.271L419.357 304.166H419.306C418.066 304.191 416.839 304.267 415.624 304.368Z" fill="#B4B8CC"/>
<path d="M55.9265 336.365C56.306 330.59 53.9401 325.738 50.6506 325.523C47.361 325.308 44.3878 329.807 44.0082 335.582C43.6287 341.357 45.9946 346.209 49.2841 346.424C52.5737 346.639 55.5469 342.14 55.9265 336.365ZM63.1002 370.75C70.1854 371.218 76.9922 367.806 80.8637 361.854C81.2812 361.222 81.0914 360.363 80.4588 359.946C80.2564 359.819 80.0287 359.743 79.8009 359.731C79.3202 359.705 78.8394 359.92 78.561 360.35C75.2335 365.468 69.3883 368.4 63.29 367.995C57.2043 367.591 51.7893 363.926 49.1576 358.417C48.8287 357.721 48.0063 357.443 47.3231 357.772C46.6399 358.101 46.3489 358.922 46.6778 359.604C49.7396 366.011 56.0404 370.282 63.1129 370.75H63.1002ZM81.4584 327.545C78.1688 327.33 75.1956 331.829 74.816 337.604C74.4365 343.379 76.8024 348.231 80.0919 348.446C83.3815 348.661 86.3547 344.162 86.7343 338.387C87.1138 332.612 84.7479 327.76 81.4584 327.545Z" fill="url(#paint2_linear_140_679)"/>
<path d="M67.2625 393.673C65.4027 393.774 63.5302 393.774 61.6323 393.648C36.5053 391.992 17.4007 370.232 19.0455 345.135C19.8426 332.979 25.3336 321.858 34.5063 313.821C43.6791 305.784 55.4455 301.804 67.6168 302.6C92.7438 304.255 111.848 326.016 110.204 351.113C108.673 374.314 89.935 392.372 67.2625 393.673ZM62.0499 304.47C52.3584 305.026 43.1856 308.754 35.7715 315.249C26.9783 322.945 21.7151 333.611 20.9433 345.262C19.3618 369.322 37.6693 390.173 61.7589 391.752C85.8358 393.319 106.724 375.047 108.306 350.986C109.887 326.926 91.5798 306.075 67.4903 304.495C65.6557 304.369 63.8338 304.369 62.0372 304.47H62.0499Z" fill="url(#paint3_linear_140_679)"/>
<path d="M431.06 181.451C430.2 177.117 427.505 174.008 425.038 174.501C422.571 174.994 421.268 178.898 422.128 183.22C422.988 187.555 425.683 190.663 428.15 190.17C430.617 189.678 431.921 185.773 431.06 181.451ZM444.788 206.623C450.102 205.575 454.441 201.72 456.124 196.565C456.301 196.009 455.997 195.427 455.453 195.238C455.276 195.175 455.099 195.175 454.922 195.212C454.568 195.288 454.251 195.541 454.125 195.92C452.683 200.343 448.95 203.666 444.383 204.564C439.815 205.474 435.096 203.831 432.072 200.292C431.693 199.85 431.035 199.8 430.592 200.179C430.149 200.558 430.099 201.215 430.478 201.657C433.995 205.777 439.486 207.685 444.8 206.623H444.788ZM448.128 169.914C445.661 170.407 444.358 174.311 445.218 178.633C446.078 182.967 448.773 186.076 451.24 185.583C453.707 185.09 455.011 181.186 454.15 176.864C453.29 172.529 450.595 169.421 448.128 169.914Z" fill="url(#paint4_linear_140_679)"/>
<path d="M439.727 223.443C432.857 223.443 426.138 221.421 420.306 217.529C412.512 212.323 407.223 204.412 405.402 195.238C401.631 176.295 414.005 157.808 432.97 154.055C442.168 152.235 451.506 154.093 459.299 159.286C467.093 164.493 472.382 172.403 474.203 181.578C476.025 190.752 474.166 200.09 468.966 207.875C463.753 215.659 455.833 220.941 446.635 222.761C444.332 223.216 442.017 223.443 439.727 223.443ZM439.866 155.255C437.69 155.255 435.513 155.47 433.337 155.9C415.397 159.463 403.694 176.94 407.261 194.859C408.995 203.54 413.992 211.034 421.368 215.95C428.732 220.865 437.576 222.622 446.268 220.903C454.96 219.185 462.462 214.18 467.384 206.813C472.306 199.459 474.064 190.625 472.344 181.944C470.61 173.263 465.613 165.769 458.249 160.853C452.733 157.163 446.382 155.255 439.878 155.255H439.866Z" fill="url(#paint5_linear_140_679)"/>
<path d="M405.515 331.286H86.6328V340.107H405.515V331.286Z" fill="url(#paint6_linear_140_679)"/>
<path d="M405.515 331.285H86.6328L108.116 318.737C111.924 316.513 116.264 315.338 120.667 315.338H371.469C375.884 315.338 380.211 316.513 384.02 318.737L405.503 331.285H405.515Z" fill="url(#paint7_linear_140_679)"/>
<path d="M371.57 153.246H120.578C116.91 153.246 113.936 156.216 113.936 159.88V308.704C113.936 312.368 116.91 315.338 120.578 315.338H371.57C375.238 315.338 378.212 312.368 378.212 308.704V159.88C378.212 156.216 375.238 153.246 371.57 153.246Z" fill="url(#paint8_linear_140_679)"/>
<path d="M368.711 167.134V301.488C368.711 303.902 366.749 305.848 364.346 305.848H131.345C128.726 305.848 126.398 304.571 124.956 302.6C124.007 301.311 123.45 299.706 123.45 297.962V167.109C123.45 164.695 125.411 162.749 127.815 162.749H364.32C366.737 162.749 368.711 164.708 368.711 167.134Z" fill="#E0D6FF"/>
<path d="M191.253 162.749L124.956 302.6C126.398 304.571 128.726 305.848 131.345 305.848H166.05L233.865 162.749H191.253ZM247.491 162.749L179.676 305.848H252.577L320.393 162.749H247.491ZM329.274 162.749L261.459 305.848H282.791L350.606 162.749H329.274Z" fill="url(#paint9_linear_140_679)"/>
<path d="M179.043 200.064H10.2646C6.30964 200.064 3.10352 203.267 3.10352 207.217V250.687C3.10352 254.638 6.30964 257.84 10.2646 257.84H179.043C182.998 257.84 186.204 254.638 186.204 250.687V207.217C186.204 203.267 182.998 200.064 179.043 200.064Z" fill="#3F97FF"/>
<path d="M123.703 218.603H25.0422C24.5108 218.603 24.0933 218.173 24.0933 217.655C24.0933 217.137 24.5234 216.707 25.0422 216.707H123.703C124.234 216.707 124.652 217.137 124.652 217.655C124.652 218.173 124.222 218.603 123.703 218.603Z" fill="white"/>
<path d="M143.073 229.899H25.0422C24.5108 229.899 24.0933 229.47 24.0933 228.952C24.0933 228.434 24.5234 228.004 25.0422 228.004H143.073C143.605 228.004 144.022 228.434 144.022 228.952C144.022 229.47 143.592 229.899 143.073 229.899Z" fill="white"/>
<path d="M137.051 241.197H25.0422C24.5108 241.197 24.0933 240.768 24.0933 240.25C24.0933 239.731 24.5234 239.302 25.0422 239.302H137.051C137.582 239.302 138 239.731 138 240.25C138 240.768 137.57 241.197 137.051 241.197Z" fill="white"/>
<path d="M453.1 230.848H284.321C280.366 230.848 277.16 234.05 277.16 238V281.471C277.16 285.421 280.366 288.623 284.321 288.623H453.1C457.055 288.623 460.261 285.421 460.261 281.471V238C460.261 234.05 457.055 230.848 453.1 230.848Z" fill="#3F97FF"/>
<path d="M437.12 249.398H300.314C299.782 249.398 299.365 248.969 299.365 248.451C299.365 247.933 299.795 247.503 300.314 247.503H437.12C437.652 247.503 438.069 247.933 438.069 248.451C438.069 248.969 437.639 249.398 437.12 249.398Z" fill="white"/>
<path d="M400.493 260.684H300.301C299.77 260.684 299.352 260.254 299.352 259.736C299.352 259.218 299.782 258.788 300.301 258.788H400.493C401.024 258.788 401.442 259.218 401.442 259.736C401.442 260.254 401.011 260.684 400.493 260.684Z" fill="white"/>
<path d="M418.092 271.98H300.314C299.782 271.98 299.365 271.551 299.365 271.033C299.365 270.515 299.795 270.085 300.314 270.085H418.092C418.623 270.085 419.041 270.515 419.041 271.033C419.041 271.551 418.61 271.98 418.092 271.98Z" fill="white"/>
<path d="M209.104 126.392V172.213C209.104 176.333 212.445 179.669 216.569 179.669H326.895C330.564 179.669 333.259 183.131 332.336 186.682L325.352 213.662L361.157 181.691C362.625 180.376 364.522 179.656 366.484 179.656H393.47C397.595 179.656 400.935 176.32 400.935 172.2V126.38C400.935 122.26 397.595 118.924 393.47 118.924H216.569C212.445 118.924 209.104 122.26 209.104 126.38V126.392Z" fill="url(#paint10_linear_140_679)"/>
<path d="M236.091 134.505L239.609 145.284H250.97L241.772 151.956L245.289 162.748L236.091 156.076L226.906 162.748L230.423 151.956L221.225 145.284H232.587L236.091 134.505Z" fill="white" style="mix-blend-mode:multiply"/>
<path d="M270.556 134.505L274.073 145.284H285.422L276.236 151.956L279.754 162.748L270.556 156.076L261.37 162.748L264.875 151.956L255.689 145.284H267.051L270.556 134.505Z" fill="white" style="mix-blend-mode:multiply"/>
<path d="M305.02 134.505L308.537 145.284H319.886L310.701 151.956L314.205 162.748L305.02 156.076L295.835 162.748L299.339 151.956L290.154 145.284H301.515L305.02 134.505Z" fill="white" style="mix-blend-mode:multiply"/>
<path d="M339.484 134.505L342.988 145.284H354.35L345.165 151.956L348.669 162.748L339.484 156.076L330.298 162.748L333.803 151.956L324.618 145.284H335.979L339.484 134.505Z" fill="white" style="mix-blend-mode:multiply"/>
<path style="mix-blend-mode:multiply" d="M373.948 134.505L377.453 145.284H388.814L379.629 151.956L383.134 162.748L373.948 156.076L364.763 162.748L368.267 151.956L359.082 145.284H370.431L373.948 134.505Z" fill="url(#paint11_linear_140_679)"/>
<path d="M372.177 311.432H372.19C406.667 320.341 403.377 366.011 400.872 383.121C400.239 387.405 400.872 391.777 402.732 395.694L424.24 440.833C393.61 465.045 365.244 461.86 365.244 461.86L344.988 418.959C343.786 416.406 341.787 414.296 339.282 412.956L327.604 406.739C325.39 405.551 323.378 404.022 321.645 402.202L300.465 379.886C298.213 377.523 296.315 374.831 294.822 371.95L282.259 347.725C280.197 343.745 279.172 339.322 279.273 334.836L279.906 305.885C279.931 304.76 280.715 303.724 281.816 303.496C296.67 300.438 304.552 329.263 305.159 331.588L288.838 253.834C288.357 251.547 288.838 249.259 289.977 247.414C291.128 245.57 292.95 244.129 295.215 243.535C299.782 242.347 304.451 244.976 305.83 249.5L320.038 296.521C320.215 290.506 323.77 286.854 326.225 285.034C327.275 284.251 328.439 283.581 329.691 283.177C336.878 280.813 342.723 287.018 347.139 295.232C355.628 288.825 365.421 300.438 372.164 311.407L372.177 311.432Z" fill="url(#paint12_linear_140_679)"/>
<path d="M295.215 243.573C298.821 242.638 302.502 244.078 304.552 246.959C306.855 255.805 300.187 257.359 300.187 257.359C289.901 260.038 289.37 249.588 289.344 248.716C289.344 248.678 289.344 248.653 289.344 248.653C289.534 248.236 289.736 247.819 289.977 247.452C291.128 245.607 292.95 244.167 295.215 243.573Z" fill="url(#paint13_linear_140_679)"/>
<path d="M279.5 324.423L279.905 305.897C279.931 304.772 280.715 303.736 281.816 303.509C282.524 303.37 283.233 303.294 283.916 303.294C284.473 305.644 284.827 307.755 285.029 309.6C286.674 323.917 279.488 324.41 279.488 324.41L279.5 324.423Z" fill="url(#paint14_linear_140_679)"/>
<path d="M305.159 331.613C305.184 331.702 305.197 331.765 305.197 331.765L308.157 345.931C304.147 333.939 295.138 335.253 295.138 335.253C298.757 322.49 285.042 309.6 285.042 309.6C284.84 307.755 284.485 305.645 283.929 303.294C297.416 303.168 304.577 329.377 305.159 331.601V331.613Z" fill="#D17E74"/>
<path d="M320.051 296.547C320.228 290.531 323.783 286.879 326.238 285.06C327.123 284.403 328.11 283.809 329.148 283.417C327.731 284.175 324.454 287.676 328.553 303.421C328.553 303.421 333.184 319.634 328.351 323.994L320.051 296.559V296.547Z" fill="#D17E74"/>
<path d="M354.148 301.664C354.148 301.664 362.258 315.678 356.071 319.772H356.058C354.641 314.035 351.63 303.61 347.151 295.257C349.644 293.374 352.263 293.045 354.856 293.804C354.856 293.804 351.656 295.762 354.148 301.664Z" fill="#D17E74"/>
<path d="M379.882 314.301C381.692 319.798 378.44 322.818 378.44 322.818H378.427C376.985 319.836 374.796 315.691 372.177 311.433H372.19C374.999 312.153 377.542 313.113 379.882 314.301Z" fill="#D17E74"/>
<path d="M402.744 395.694L410.538 412.046C408.919 408.761 405.351 405.639 402.302 403.441C399.632 401.507 396.38 400.42 393.078 400.572C389.232 400.724 386.613 400.029 384.842 399.119C382.59 397.943 382.337 394.86 384.361 393.356C395.482 385.041 401.656 372.607 402.048 371.836C401.783 376.246 401.315 380.113 400.872 383.121C400.239 387.404 400.872 391.777 402.732 395.694H402.744Z" fill="#D17E74"/>
<path d="M380.464 327.153C378.326 323.45 376.314 319.709 374.088 316.108C371.861 312.507 369.609 308.918 367.078 305.556C364.586 302.195 361.853 298.96 358.576 296.47C356.944 295.245 355.097 294.234 353.085 293.943C351.086 293.551 348.973 294.133 347.151 295.27C348.695 293.791 350.909 292.92 353.174 293.021C355.438 293.147 357.539 294.107 359.399 295.27C363.131 297.658 366.003 301.007 368.609 304.432C371.165 307.907 373.404 311.584 375.353 315.4C376.327 317.309 377.263 319.229 378.136 321.188C378.959 323.159 379.743 325.156 380.464 327.165V327.153Z" fill="#B5635D"/>
<path d="M357.07 324.044C355.679 319.735 354.401 315.413 352.87 311.192C351.339 306.972 349.757 302.776 347.834 298.745C345.949 294.727 343.76 290.796 340.85 287.524C339.383 285.919 337.687 284.478 335.676 283.682C334.676 283.265 333.613 283.025 332.513 282.974C331.412 282.974 330.298 283.088 329.198 283.404C331.222 282.368 333.702 282.166 335.979 282.81C338.257 283.492 340.205 284.933 341.9 286.513C345.266 289.773 347.569 293.842 349.555 297.949C351.478 302.094 353.034 306.378 354.249 310.763C354.856 312.949 355.413 315.148 355.906 317.359C356.336 319.583 356.741 321.82 357.07 324.056V324.044Z" fill="#B5635D"/>
<path d="M302.705 319.849C304.78 326.129 306.298 332.523 307.664 338.943C308.98 345.375 310.169 351.845 310.777 358.429C308.689 352.148 307.171 345.767 305.804 339.335C304.489 332.902 303.312 326.432 302.705 319.849Z" fill="#B5635D"/>
<path d="M329.755 328.618C326.908 321.82 324.618 314.832 322.467 307.818C320.367 300.779 318.406 293.716 317.001 286.487C319.848 293.299 322.138 300.287 324.289 307.3C326.389 314.326 328.338 321.39 329.755 328.631V328.618Z" fill="#B5635D"/>
<path d="M121.223 106.427H159.205C170.895 106.427 180.385 115.904 180.385 127.581V168.802H100.031V127.593C100.031 115.917 109.52 106.439 121.211 106.439L121.223 106.427Z" fill="url(#paint15_linear_140_679)"/>
<path d="M159.891 103.942C170.761 93.0855 170.761 75.4829 159.891 64.626C149.021 53.7691 131.397 53.7691 120.527 64.626C109.657 75.4829 109.657 93.0855 120.527 103.942C131.397 114.799 149.021 114.799 159.891 103.942Z" fill="url(#paint16_linear_140_679)"/>
<path d="M172.781 367.388L182.751 385.294L202.867 381.351L188.912 396.351L198.869 414.245L180.283 405.614L166.316 420.614L168.783 400.294L150.197 391.663L170.314 387.72L172.781 367.388Z" fill="url(#paint17_linear_140_679)"/>
<path d="M320.026 44.1396L323.454 64.3206L343.748 67.3028L325.58 76.8057L329.008 96.9992L314.357 82.6692L296.189 92.172L305.299 73.8234L290.635 59.506L310.916 62.4882L320.026 44.1396Z" fill="url(#paint18_linear_140_679)"/>
</g>
<defs>
<linearGradient id="paint0_linear_140_679" x1="425.164" y1="249.803" x2="278.064" y2="411.605" gradientUnits="userSpaceOnUse">
<stop stop-color="#F4F8FB"/>
<stop offset="1" stop-color="#D0D3E6"/>
</linearGradient>
<linearGradient id="paint1_linear_140_679" x1="131.462" y1="32.8081" x2="234.06" y2="282.939" gradientUnits="userSpaceOnUse">
<stop stop-color="#F4F8FB"/>
<stop offset="1" stop-color="#D0D3E6"/>
</linearGradient>
<linearGradient id="paint2_linear_140_679" x1="78.7508" y1="365.291" x2="52.3157" y2="323.624" gradientUnits="userSpaceOnUse">
<stop stop-color="#F4F8FB"/>
<stop offset="1" stop-color="#D0D3E6"/>
</linearGradient>
<linearGradient id="paint3_linear_140_679" x1="93.3834" y1="312.682" x2="35.9561" y2="383.597" gradientUnits="userSpaceOnUse">
<stop stop-color="#F4F8FB"/>
<stop offset="1" stop-color="#D0D3E6"/>
</linearGradient>
<linearGradient id="paint4_linear_140_679" x1="454.454" y1="200.644" x2="427.113" y2="171.941" gradientUnits="userSpaceOnUse">
<stop stop-color="#F4F8FB"/>
<stop offset="1" stop-color="#D0D3E6"/>
</linearGradient>
<linearGradient id="paint5_linear_140_679" x1="457.924" y1="158.39" x2="421.79" y2="218.451" gradientUnits="userSpaceOnUse">
<stop stop-color="#F4F8FB"/>
<stop offset="1" stop-color="#D0D3E6"/>
</linearGradient>
<linearGradient id="paint6_linear_140_679" x1="86.6328" y1="335.696" x2="405.515" y2="335.696" gradientUnits="userSpaceOnUse">
<stop stop-color="#3B478F"/>
<stop offset="1" stop-color="#2C234E"/>
</linearGradient>
<linearGradient id="paint7_linear_140_679" x1="133.167" y1="316.235" x2="417.62" y2="337.187" gradientUnits="userSpaceOnUse">
<stop stop-color="#4453B2"/>
<stop offset="1" stop-color="#3D2F71"/>
</linearGradient>
<linearGradient id="paint8_linear_140_679" x1="138.582" y1="136.793" x2="335.612" y2="315.929" gradientUnits="userSpaceOnUse">
<stop stop-color="#3B478F"/>
<stop offset="1" stop-color="#2C234E"/>
</linearGradient>
<linearGradient id="paint9_linear_140_679" x1="263.306" y1="110.408" x2="224.39" y2="297.236" gradientUnits="userSpaceOnUse">
<stop stop-color="white"/>
<stop offset="0.05" stop-color="white" stop-opacity="0.7744"/>
<stop offset="0.15" stop-color="white" stop-opacity="0.4624"/>
<stop offset="0.26" stop-color="white" stop-opacity="0.25"/>
<stop offset="0.37" stop-color="white" stop-opacity="0.1156"/>
<stop offset="0.48" stop-color="white" stop-opacity="0.0484"/>
<stop offset="0.6" stop-color="white" stop-opacity="0.0144"/>
<stop offset="0.72" stop-color="white" stop-opacity="0.01"/>
<stop offset="0.85" stop-color="white" stop-opacity="0.01"/>
<stop offset="1" stop-color="white" stop-opacity="0"/>
</linearGradient>
<linearGradient id="paint10_linear_140_679" x1="287.876" y1="115.6" x2="333.993" y2="206.479" gradientUnits="userSpaceOnUse">
<stop stop-color="#9B79F3"/>
<stop offset="1" stop-color="#6265D8"/>
</linearGradient>
<linearGradient id="paint11_linear_140_679" x1="359.082" y1="148.62" x2="388.814" y2="148.62" gradientUnits="userSpaceOnUse">
<stop stop-color="#9B79F3"/>
<stop offset="1" stop-color="#6265D8"/>
</linearGradient>
<linearGradient id="paint12_linear_140_679" x1="333.12" y1="323.058" x2="378.432" y2="446.327" gradientUnits="userSpaceOnUse">
<stop stop-color="#F3B199"/>
<stop offset="1" stop-color="#DF9386"/>
</linearGradient>
<linearGradient id="paint13_linear_140_679" x1="295.568" y1="244.337" x2="300.096" y2="258.555" gradientUnits="userSpaceOnUse">
<stop stop-color="#FFEDE9"/>
<stop offset="1" stop-color="#F2CBC2"/>
</linearGradient>
<linearGradient id="paint14_linear_140_679" x1="281.94" y1="305.107" x2="282.41" y2="319.818" gradientUnits="userSpaceOnUse">
<stop stop-color="#FFEDE9"/>
<stop offset="1" stop-color="#F2CBC2"/>
</linearGradient>
<linearGradient id="paint15_linear_140_679" x1="138.569" y1="169.067" x2="143.517" y2="104.682" gradientUnits="userSpaceOnUse">
<stop stop-color="#9B79F3"/>
<stop offset="1" stop-color="#F67CA3"/>
</linearGradient>
<linearGradient id="paint16_linear_140_679" x1="138.255" y1="109.788" x2="142.37" y2="56.1823" gradientUnits="userSpaceOnUse">
<stop stop-color="#9B79F3"/>
<stop offset="1" stop-color="#F67CA3"/>
</linearGradient>
<linearGradient id="paint17_linear_140_679" x1="163.914" y1="379.19" x2="190.595" y2="407.344" gradientUnits="userSpaceOnUse">
<stop stop-color="#F8C224"/>
<stop offset="1" stop-color="#F79554"/>
</linearGradient>
<linearGradient id="paint18_linear_140_679" x1="307.728" y1="52.3009" x2="323.505" y2="87.7198" gradientUnits="userSpaceOnUse">
<stop stop-color="#F8C224"/>
<stop offset="1" stop-color="#F79554"/>
</linearGradient>
</defs>
</svg>
