<svg width="552" height="437" viewBox="0 0 552 437" fill="none" xmlns="http://www.w3.org/2000/svg">
<path opacity="0.4" d="M532.479 309.148C543.008 298.619 543.008 281.549 532.479 271.02C521.951 260.491 504.88 260.491 494.351 271.02C483.823 281.549 483.823 298.619 494.351 309.148C504.88 319.677 521.951 319.677 532.479 309.148Z" fill="#E5E5FF"/>
<path opacity="0.4" d="M98.8653 130.989C114.926 114.928 114.926 88.8882 98.8653 72.8271C82.8042 56.7661 56.7642 56.7661 40.7031 72.8271C24.6421 88.8882 24.6421 114.928 40.7031 130.989C56.7642 147.05 82.8042 147.05 98.8653 130.989Z" fill="#E5E5FF"/>
<path opacity="0.4" d="M212.041 62.368C223.882 62.368 233.482 52.7686 233.482 40.9272C233.482 29.0857 223.882 19.4863 212.041 19.4863C200.2 19.4863 190.6 29.0857 190.6 40.9272C190.6 52.7686 200.2 62.368 212.041 62.368Z" fill="#E5E5FF"/>
<path d="M181.349 51.5254C180.022 51.5254 178.685 51.4208 177.368 51.2149L177.496 50.4077C178.767 50.6071 180.064 50.7084 181.349 50.7084H181.499L181.505 51.5254H181.349ZM185.633 51.1659L185.496 50.362C186.809 50.1398 188.116 49.8064 189.388 49.3751L189.652 50.1496C188.342 50.5973 186.989 50.9404 185.633 51.1692V51.1659ZM173.339 50.2476C172.028 49.8195 170.741 49.2803 169.515 48.6463L169.891 47.9208C171.077 48.5319 172.326 49.0548 173.594 49.4698L173.339 50.2476ZM193.456 48.5025L193.074 47.7803C194.257 47.1529 195.394 46.4274 196.456 45.6202L196.95 46.2705C195.852 47.1039 194.678 47.8555 193.456 48.5025ZM165.993 46.4601C164.881 45.6398 163.829 44.7215 162.868 43.7346L163.453 43.1627C164.385 44.117 165.404 45.0059 166.48 45.8L165.993 46.4568V46.4601ZM200.041 43.5026L199.45 42.9405C200.368 41.9732 201.218 40.9209 201.969 39.8164L202.646 40.2772C201.868 41.4177 200.992 42.5026 200.044 43.5026H200.041ZM160.225 40.5419C159.434 39.4144 158.728 38.2118 158.13 36.9668L158.865 36.6106C159.447 37.8164 160.13 38.9798 160.895 40.0746L160.225 40.5419ZM204.695 36.6759L203.956 36.3295C204.525 35.1171 204.999 33.8524 205.365 32.5681L206.149 32.7936C205.77 34.1204 205.28 35.4243 204.695 36.6759ZM156.627 33.1008C156.231 31.774 155.937 30.4113 155.761 29.0453L156.571 28.9407C156.744 30.261 157.025 31.5845 157.411 32.8655L156.63 33.1008H156.627ZM206.963 28.7283L206.152 28.6336C206.266 27.6695 206.322 26.6924 206.322 25.7251C206.322 25.3591 206.312 24.9865 206.296 24.6205L207.113 24.5846C207.129 24.9637 207.139 25.346 207.139 25.7251C207.139 26.7251 207.08 27.7349 206.963 28.7283ZM156.375 24.931L155.558 24.9049C155.604 23.5258 155.761 22.1402 156.025 20.784L156.826 20.9409C156.568 22.2546 156.414 23.5944 156.372 24.931H156.375ZM205.796 20.6369C205.525 19.333 205.142 18.0389 204.662 16.7841L205.423 16.4899C205.92 17.784 206.316 19.1206 206.597 20.467L205.796 20.6337V20.6369ZM157.918 17.0782L157.153 16.7939C157.63 15.4998 158.218 14.2351 158.898 13.0325L159.61 13.4344C158.953 14.5978 158.385 15.8233 157.921 17.0749L157.918 17.0782ZM204.587 16.5978C204.097 15.3494 203.505 14.137 202.825 12.99L203.528 12.575C204.227 13.758 204.838 15.0128 205.345 16.3004L204.584 16.5978H204.587ZM161.852 10.1077L161.215 9.59789C162.078 8.51948 163.035 7.50315 164.058 6.5816L164.607 7.18943C163.617 8.08485 162.692 9.06522 161.855 10.111L161.852 10.1077ZM200.512 9.709C199.655 8.68614 198.708 7.72211 197.698 6.8463L198.231 6.22866C199.276 7.13061 200.254 8.12733 201.136 9.18287L200.508 9.70574L200.512 9.709ZM167.79 4.74829L167.349 4.06203C168.506 3.31694 169.734 2.65682 171.002 2.10454L171.329 2.8529C170.1 3.38884 168.911 4.02608 167.79 4.74829ZM194.459 4.47706C193.322 3.77772 192.12 3.16335 190.884 2.65029L191.198 1.8954C192.473 2.42153 193.714 3.05878 194.891 3.78099L194.463 4.47706H194.459ZM175.126 1.53919L174.924 0.748355C176.264 0.401955 177.636 0.163396 179.009 0.0392151L179.084 0.852928C177.757 0.973841 176.424 1.20586 175.13 1.53919H175.126ZM187.064 1.41828C185.764 1.11109 184.427 0.908483 183.097 0.813713L183.156 0C184.532 0.0980377 185.911 0.307185 187.254 0.627441L187.064 1.42155V1.41828Z" fill="#9192FF"/>
<path d="M438.73 337.044L438.717 336.227C440.07 336.204 441.436 336.148 442.779 336.063L442.831 336.877C441.478 336.962 440.099 337.021 438.733 337.044H438.73ZM434.625 337.021C433.266 336.982 431.887 336.91 430.531 336.809L430.593 335.995C431.936 336.096 433.302 336.168 434.652 336.207L434.629 337.024L434.625 337.021ZM446.913 336.521L446.821 335.711C448.164 335.56 449.517 335.377 450.847 335.168L450.975 335.975C449.632 336.188 448.266 336.374 446.91 336.524L446.913 336.521ZM426.446 336.403C425.096 336.237 423.733 336.037 422.387 335.809L422.524 335.005C423.858 335.233 425.211 335.433 426.544 335.596L426.446 336.407V336.403ZM455.014 335.233L454.847 334.433C456.171 334.158 457.504 333.848 458.805 333.511L459.007 334.302C457.694 334.642 456.347 334.952 455.011 335.23L455.014 335.233ZM418.361 335.018C417.031 334.724 415.691 334.397 414.377 334.041L414.59 333.253C415.89 333.606 417.22 333.93 418.537 334.22L418.361 335.018ZM462.958 333.184L462.716 332.403C464.007 332.005 465.301 331.57 466.569 331.113L466.847 331.881C465.569 332.341 464.259 332.782 462.958 333.184ZM410.443 332.877C409.149 332.459 407.842 332.005 406.56 331.524L406.848 330.76C408.116 331.237 409.41 331.688 410.694 332.099L410.443 332.877ZM470.661 330.397L470.347 329.642C471.586 329.126 472.834 328.573 474.053 327.995L474.403 328.734C473.171 329.315 471.912 329.874 470.661 330.397ZM402.747 329.988C401.492 329.449 400.237 328.871 399.012 328.273L399.371 327.537C400.583 328.129 401.829 328.701 403.07 329.237L402.747 329.988ZM478.063 326.9L477.68 326.178C478.87 325.547 480.059 324.877 481.216 324.188L481.635 324.89C480.465 325.583 479.262 326.26 478.063 326.9ZM395.361 326.384C394.169 325.73 392.972 325.037 391.806 324.325L392.231 323.629C393.387 324.335 394.57 325.021 395.753 325.668L395.361 326.384ZM485.108 322.717L484.657 322.034C485.785 321.289 486.909 320.511 487.994 319.721L488.474 320.381C487.38 321.181 486.246 321.966 485.105 322.717H485.108ZM388.355 322.103C387.231 321.341 386.107 320.538 385.012 319.721L385.502 319.067C386.587 319.877 387.701 320.672 388.816 321.426L388.358 322.103H388.355ZM491.732 317.887L491.223 317.25C492.272 316.407 493.317 315.525 494.33 314.632L494.87 315.244C493.85 316.145 492.794 317.034 491.732 317.887ZM381.783 317.185C380.731 316.319 379.685 315.413 378.679 314.502L379.228 313.897C380.228 314.802 381.26 315.698 382.303 316.554L381.783 317.185ZM497.879 312.459L497.311 311.871C498.278 310.933 499.239 309.956 500.16 308.972L500.755 309.531C499.824 310.525 498.856 311.508 497.879 312.456V312.459ZM375.701 311.675C374.734 310.711 373.78 309.717 372.862 308.714L373.463 308.162C374.371 309.155 375.316 310.142 376.277 311.097L375.701 311.675ZM503.494 306.476L502.873 305.946C503.752 304.917 504.615 303.858 505.441 302.793L506.085 303.293C505.252 304.365 504.379 305.436 503.494 306.476ZM370.166 305.623C369.293 304.574 368.437 303.495 367.617 302.41L368.267 301.917C369.077 302.992 369.927 304.061 370.793 305.1L370.166 305.623ZM508.526 299.992L507.856 299.522C508.634 298.417 509.396 297.276 510.118 296.139L510.807 296.577C510.079 297.724 509.311 298.874 508.523 299.989L508.526 299.992ZM365.221 299.084C364.453 297.963 363.702 296.806 362.986 295.649L363.682 295.221C364.391 296.368 365.136 297.512 365.898 298.623L365.225 299.084H365.221ZM512.928 293.064L512.219 292.659C512.889 291.489 513.539 290.283 514.154 289.077L514.882 289.45C514.261 290.665 513.605 291.881 512.928 293.064ZM360.914 292.116C360.254 290.927 359.613 289.705 359.012 288.489L359.744 288.126C360.342 289.332 360.973 290.541 361.627 291.721L360.911 292.116H360.914ZM516.663 285.744L515.918 285.407C516.477 284.172 517.01 282.911 517.507 281.659L518.265 281.96C517.765 283.224 517.225 284.499 516.66 285.744H516.663ZM357.287 284.777C356.741 283.532 356.221 282.257 355.738 280.989L356.502 280.698C356.983 281.953 357.499 283.215 358.038 284.45L357.29 284.777H357.287ZM519.686 278.1L518.912 277.836C519.346 276.561 519.758 275.257 520.134 273.96L520.918 274.189C520.539 275.499 520.124 276.816 519.683 278.1H519.686ZM354.362 277.123C353.937 275.826 353.535 274.506 353.176 273.195L353.963 272.976C354.323 274.274 354.718 275.581 355.14 276.865L354.365 277.12L354.362 277.123ZM521.971 270.221L521.176 270.032C521.49 268.725 521.774 267.385 522.026 266.058L522.83 266.208C522.575 267.548 522.288 268.898 521.971 270.221ZM352.176 269.215C351.875 267.891 351.604 266.538 351.365 265.192L352.169 265.048C352.404 266.382 352.676 267.721 352.973 269.032L352.176 269.212V269.215ZM523.497 262.163L522.689 262.048C522.876 260.718 523.036 259.359 523.163 258.012L523.977 258.088C523.85 259.447 523.689 260.82 523.5 262.163H523.497ZM350.744 261.14C350.571 259.793 350.427 258.421 350.316 257.058L351.13 256.993C351.241 258.342 351.382 259.702 351.555 261.035L350.744 261.14ZM524.258 253.996L523.441 253.957C523.503 252.614 523.536 251.248 523.536 249.895H524.353C524.353 251.261 524.32 252.64 524.258 253.996ZM350.078 252.963C350.042 251.95 350.025 250.918 350.025 249.895C350.025 249.548 350.025 249.205 350.032 248.862L350.849 248.872C350.846 249.212 350.842 249.555 350.842 249.895C350.842 250.908 350.859 251.931 350.895 252.937L350.078 252.967V252.963ZM523.513 247.885C523.484 246.535 523.418 245.169 523.327 243.826L524.14 243.771C524.235 245.127 524.297 246.506 524.33 247.869L523.513 247.888V247.885ZM350.989 244.81L350.172 244.764C350.251 243.401 350.362 242.026 350.506 240.676L351.319 240.761C351.179 242.098 351.068 243.46 350.989 244.81ZM522.951 239.781C522.794 238.444 522.604 237.091 522.386 235.758L523.193 235.624C523.415 236.97 523.608 238.336 523.765 239.686L522.954 239.781H522.951ZM351.839 236.728L351.032 236.604C351.238 235.258 351.48 233.898 351.748 232.565L352.548 232.728C352.28 234.049 352.042 235.395 351.839 236.728ZM521.627 231.761C521.346 230.444 521.029 229.114 520.683 227.807L521.474 227.598C521.82 228.918 522.14 230.261 522.425 231.588L521.624 231.758L521.627 231.761ZM353.447 228.764L352.656 228.565C352.989 227.245 353.355 225.915 353.751 224.611L354.532 224.846C354.143 226.137 353.777 227.454 353.447 228.761V228.764ZM519.556 223.905C519.15 222.617 518.709 221.323 518.242 220.059L519.01 219.778C519.48 221.055 519.925 222.359 520.337 223.66L519.559 223.905H519.556ZM355.803 220.977L355.032 220.702C355.489 219.415 355.983 218.124 356.499 216.863L357.254 217.173C356.741 218.425 356.254 219.702 355.8 220.977H355.803ZM516.752 216.291C516.229 215.055 515.667 213.81 515.085 212.595L515.82 212.242C516.408 213.471 516.977 214.725 517.503 215.974L516.752 216.291ZM358.891 213.441L358.149 213.095C358.725 211.863 359.339 210.624 359.973 209.412L360.695 209.791C360.064 210.99 359.457 212.219 358.888 213.438L358.891 213.441ZM513.245 208.977C512.608 207.794 511.931 206.608 511.235 205.451L511.935 205.029C512.637 206.199 513.32 207.395 513.964 208.588L513.245 208.977ZM362.676 206.235L361.97 205.82C362.659 204.647 363.388 203.471 364.133 202.327L364.816 202.775C364.077 203.905 363.359 205.072 362.676 206.235ZM509.062 202.023C508.314 200.902 507.53 199.784 506.729 198.7L507.386 198.216C508.193 199.311 508.987 200.441 509.742 201.572L509.062 202.026V202.023ZM367.12 199.425L366.457 198.948C367.254 197.843 368.087 196.745 368.937 195.677L369.577 196.186C368.734 197.245 367.911 198.337 367.12 199.428V199.425ZM504.242 195.487C503.392 194.441 502.507 193.399 501.608 192.396L502.219 191.85C503.128 192.866 504.02 193.915 504.879 194.971L504.245 195.487H504.242ZM372.182 193.059L371.568 192.52C372.466 191.494 373.398 190.477 374.342 189.497L374.93 190.062C373.996 191.033 373.071 192.043 372.182 193.059ZM498.83 189.428C497.883 188.464 496.902 187.51 495.915 186.595L496.471 185.997C497.468 186.922 498.458 187.883 499.412 188.857L498.827 189.428H498.83ZM377.813 187.2L377.25 186.608C378.241 185.67 379.264 184.745 380.293 183.857L380.826 184.474C379.806 185.353 378.79 186.272 377.813 187.2ZM492.873 183.899C491.844 183.03 490.778 182.174 489.706 181.35L490.203 180.703C491.288 181.533 492.363 182.402 493.399 183.278L492.873 183.902V183.899ZM383.966 181.896L383.463 181.252C384.535 180.412 385.639 179.589 386.747 178.798L387.221 179.465C386.123 180.246 385.028 181.063 383.966 181.896ZM486.422 178.948C485.311 178.177 484.17 177.422 483.03 176.706L483.465 176.014C484.618 176.736 485.768 177.497 486.889 178.278L486.422 178.948ZM390.584 177.193L390.142 176.507C391.286 175.772 392.466 175.053 393.642 174.373L394.051 175.079C392.884 175.752 391.721 176.465 390.584 177.193ZM479.53 174.625C478.354 173.961 477.144 173.318 475.938 172.71L476.305 171.981C477.523 172.595 478.742 173.246 479.929 173.912L479.527 174.625H479.53ZM397.61 173.131L397.234 172.406C398.44 171.782 399.678 171.18 400.917 170.612L401.257 171.354C400.031 171.916 398.806 172.514 397.61 173.131ZM472.262 170.968C471.027 170.419 469.762 169.893 468.504 169.403L468.801 168.641C470.073 169.138 471.35 169.667 472.595 170.223L472.262 170.968ZM404.982 169.752L404.678 168.994C405.943 168.484 407.237 168.001 408.521 167.553L408.789 168.324C407.518 168.765 406.237 169.246 404.985 169.752H404.982ZM464.671 168.014C463.39 167.586 462.086 167.18 460.788 166.814L461.011 166.027C462.321 166.399 463.638 166.805 464.932 167.239L464.674 168.014H464.671ZM412.655 167.082L412.423 166.298C413.727 165.912 415.06 165.553 416.384 165.229L416.58 166.024C415.266 166.344 413.949 166.7 412.655 167.082ZM456.854 165.795C455.54 165.488 454.204 165.21 452.873 164.968L453.021 164.164C454.36 164.409 455.713 164.69 457.037 165.001L456.851 165.795H456.854ZM420.547 165.148L420.39 164.347C421.727 164.086 423.086 163.854 424.433 163.658L424.55 164.465C423.217 164.661 421.867 164.89 420.544 165.148H420.547ZM448.86 164.331C447.524 164.151 446.164 163.997 444.821 163.88L444.893 163.066C446.249 163.184 447.622 163.337 448.972 163.52L448.864 164.331H448.86ZM428.586 163.971L428.505 163.158C429.858 163.024 431.233 162.919 432.596 162.85L432.638 163.667C431.289 163.736 429.926 163.841 428.586 163.971ZM440.769 163.618C439.583 163.569 438.377 163.546 437.191 163.546C437.027 163.546 436.867 163.546 436.707 163.546L436.701 162.729C436.864 162.729 437.031 162.729 437.191 162.729C438.39 162.729 439.606 162.756 440.802 162.801L440.769 163.618Z" fill="#9192FF"/>
<path d="M83.5654 241.474C82.1929 241.467 80.8138 241.409 79.4576 241.304L79.5197 240.49C80.8563 240.592 82.219 240.647 83.5687 240.657V241.474H83.5654ZM87.6764 241.353L87.6242 240.539C88.9673 240.451 90.3235 240.314 91.6568 240.134L91.7679 240.944C90.415 241.131 89.0392 241.268 87.6764 241.356V241.353ZM75.3727 240.846C74.0198 240.644 72.6603 240.392 71.3303 240.095L71.51 239.297C72.8205 239.592 74.1603 239.84 75.4936 240.039L75.3727 240.846ZM95.8168 240.235L95.6469 239.435C96.9639 239.157 98.2874 238.827 99.5782 238.454L99.8037 239.239C98.49 239.618 97.1502 239.951 95.8136 240.232L95.8168 240.235ZM67.35 239.052C66.0395 238.66 64.7291 238.212 63.4513 237.726L63.7422 236.961C65.0003 237.441 66.2944 237.882 67.5852 238.268L67.35 239.049V239.052ZM103.715 237.964L103.434 237.196C104.696 236.732 105.954 236.216 107.179 235.664L107.516 236.409C106.271 236.971 104.993 237.494 103.715 237.964ZM59.6605 236.121C58.422 235.543 57.19 234.912 55.9972 234.248L56.3959 233.536C57.5723 234.193 58.788 234.814 60.0069 235.382L59.6605 236.124V236.121ZM111.196 234.582L110.807 233.863C111.987 233.222 113.163 232.53 114.297 231.807L114.738 232.497C113.588 233.232 112.395 233.935 111.196 234.582ZM52.4776 232.115C51.3371 231.366 50.2064 230.566 49.1215 229.739L49.6182 229.088C50.6901 229.905 51.8044 230.693 52.9286 231.432L52.4809 232.115H52.4776ZM118.12 230.16L117.633 229.503C118.712 228.7 119.777 227.847 120.797 226.971L121.33 227.588C120.297 228.481 119.215 229.343 118.12 230.16ZM45.9418 227.128C44.9189 226.226 43.9157 225.271 42.9582 224.298L43.5399 223.726C44.4843 224.687 45.4745 225.624 46.481 226.517L45.9418 227.128ZM124.346 224.798L123.771 224.219C124.725 223.272 125.66 222.275 126.542 221.262L127.156 221.798C126.258 222.827 125.313 223.837 124.343 224.798H124.346ZM40.1804 221.265C39.2948 220.226 38.4354 219.141 37.6282 218.04L38.285 217.556C39.0824 218.638 39.9255 219.709 40.8013 220.736L40.1804 221.265ZM129.751 218.602L129.097 218.111C129.908 217.036 130.689 215.919 131.421 214.788L132.107 215.232C131.365 216.379 130.571 217.513 129.751 218.605V218.602ZM35.3178 214.644C34.589 213.491 33.8962 212.295 33.2524 211.092L33.9746 210.706C34.6086 211.893 35.2916 213.072 36.0106 214.21L35.3178 214.644ZM134.218 211.697L133.503 211.304C134.153 210.125 134.767 208.906 135.329 207.68L136.071 208.02C135.503 209.262 134.878 210.497 134.218 211.697ZM31.4485 207.399C30.893 206.151 30.3767 204.87 29.9159 203.589L30.6838 203.311C31.1414 204.576 31.6479 205.837 32.1969 207.066L31.4518 207.399H31.4485ZM137.653 204.223L136.888 203.935C137.359 202.674 137.793 201.38 138.172 200.092L138.957 200.324C138.571 201.635 138.133 202.945 137.653 204.226V204.223ZM28.6577 199.674C28.2885 198.36 27.9617 197.014 27.6872 195.677L28.4878 195.514C28.759 196.831 29.0793 198.158 29.4453 199.452L28.6577 199.674ZM139.973 196.337L139.176 196.164C139.46 194.85 139.702 193.507 139.895 192.174L140.702 192.288C140.509 193.641 140.264 195.001 139.973 196.334V196.337ZM27.0074 191.622C26.831 190.269 26.7002 188.893 26.6185 187.53L27.4355 187.481C27.514 188.828 27.6447 190.184 27.8179 191.517L27.0074 191.625V191.622ZM141.14 188.2L140.326 188.141C140.421 186.801 140.47 185.439 140.47 184.089H141.287C141.287 185.455 141.238 186.837 141.143 188.197L141.14 188.2ZM27.3375 183.429L26.5205 183.419C26.5368 182.053 26.6022 180.671 26.7133 179.311L27.527 179.38C27.4159 180.72 27.3538 182.083 27.3375 183.429ZM140.401 181.373C140.336 180.027 140.225 178.668 140.065 177.334L140.875 177.236C141.035 178.589 141.149 179.965 141.215 181.334L140.398 181.373H140.401ZM28.0041 175.354L27.197 175.23C27.4061 173.88 27.6675 172.521 27.9715 171.191L28.7688 171.374C28.4682 172.684 28.21 174.024 28.0041 175.354ZM139.444 173.328C139.189 172.008 138.882 170.678 138.535 169.377L139.323 169.164C139.676 170.485 139.986 171.831 140.244 173.171L139.44 173.325L139.444 173.328ZM29.8178 167.459L29.0368 167.22C29.4388 165.913 29.893 164.602 30.3865 163.331L31.1479 163.629C30.661 164.884 30.2133 166.174 29.8178 167.462V167.459ZM137.342 165.504C136.901 164.236 136.408 162.965 135.875 161.73L136.627 161.406C137.166 162.658 137.666 163.946 138.114 165.233L137.342 165.501V165.504ZM32.7557 159.897L32.0172 159.547C32.6021 158.312 33.2394 157.083 33.9126 155.893L34.625 156.295C33.9616 157.469 33.3341 158.681 32.7557 159.897ZM134.14 158.073C133.519 156.88 132.849 155.694 132.146 154.547L132.842 154.119C133.555 155.282 134.238 156.485 134.865 157.697L134.14 158.073ZM36.7458 152.838L36.0661 152.387C36.821 151.25 37.6282 150.126 38.4648 149.044L39.1118 149.544C38.2883 150.609 37.4942 151.72 36.7491 152.841L36.7458 152.838ZM129.905 151.171C129.12 150.077 128.287 148.998 127.427 147.962L128.055 147.439C128.927 148.488 129.774 149.583 130.568 150.694L129.905 151.171ZM41.7 146.423L41.0922 145.877C42.0007 144.858 42.9582 143.861 43.9385 142.91L44.5072 143.495C43.5399 144.433 42.5954 145.416 41.7 146.42V146.423ZM124.725 144.939C123.794 143.969 122.813 143.018 121.816 142.116L122.365 141.511C123.379 142.426 124.372 143.39 125.316 144.377L124.728 144.943L124.725 144.939ZM47.5137 140.783L46.9875 140.158C48.03 139.279 49.1215 138.43 50.226 137.626L50.7064 138.286C49.6182 139.077 48.5431 139.917 47.5137 140.783ZM118.715 139.505C117.653 138.675 116.549 137.874 115.434 137.123L115.892 136.446C117.026 137.207 118.143 138.021 119.222 138.864L118.718 139.508L118.715 139.505ZM54.0691 136.024L53.6377 135.332C54.7979 134.609 55.9972 133.923 57.203 133.289L57.5821 134.011C56.3926 134.639 55.2096 135.315 54.0691 136.024ZM111.987 134.982C110.817 134.312 109.611 133.675 108.395 133.093L108.748 132.358C109.98 132.949 111.205 133.596 112.388 134.276L111.983 134.985L111.987 134.982ZM61.2324 132.253L60.9056 131.505C62.154 130.959 63.4382 130.449 64.7258 129.995L65.0003 130.766C63.7324 131.214 62.4677 131.717 61.2357 132.257L61.2324 132.253ZM104.679 131.466C103.428 130.969 102.14 130.515 100.853 130.113L101.098 129.332C102.402 129.74 103.709 130.204 104.98 130.704L104.679 131.466ZM68.863 129.547L68.6473 128.76C69.961 128.397 71.3074 128.08 72.6505 127.812L72.8107 128.613C71.4904 128.874 70.1636 129.191 68.8663 129.547H68.863ZM96.9443 129.038C95.6338 128.727 94.2973 128.463 92.9672 128.25L93.0979 127.443C94.4443 127.659 95.8038 127.93 97.1305 128.244L96.9443 129.038ZM76.8106 127.969L76.7093 127.159C78.0622 126.989 79.438 126.868 80.804 126.796L80.8465 127.613C79.5001 127.685 78.1406 127.806 76.8106 127.972V127.969ZM88.9477 127.75C87.6111 127.632 86.2484 127.561 84.8987 127.538L84.9118 126.721C86.2778 126.744 87.6601 126.819 89.0163 126.936L88.9444 127.75H88.9477Z" fill="#9192FF"/>
<path d="M313.673 46.5318C306.072 46.5318 299.886 40.3489 299.886 32.7444C299.886 25.1399 306.069 18.957 313.673 18.957C321.278 18.957 327.46 25.1399 327.46 32.7444C327.46 40.3489 321.278 46.5318 313.673 46.5318ZM313.673 19.5747C306.409 19.5747 300.5 25.4831 300.5 32.7477C300.5 40.0123 306.409 45.9207 313.673 45.9207C320.938 45.9207 326.846 40.0123 326.846 32.7477C326.846 25.4831 320.938 19.5747 313.673 19.5747Z" fill="#9192FF"/>
<path d="M457.102 96.0208V344.439C457.102 349.612 452.91 353.801 447.746 353.801H86.742C81.5721 353.801 77.3794 349.612 77.3794 344.439V96.0208C77.3794 90.8477 81.5721 86.6582 86.742 86.6582H447.75C452.913 86.6582 457.106 90.8477 457.106 96.0208H457.102Z" fill="white"/>
<path d="M447.749 354.21H86.7418C81.353 354.21 76.9707 349.828 76.9707 344.439V96.0211C76.9707 90.6323 81.353 86.25 86.7418 86.25H447.749C453.132 86.25 457.514 90.6323 457.514 96.0211V344.439C457.514 349.828 453.135 354.21 447.749 354.21ZM86.7418 87.067C81.804 87.067 77.7877 91.0833 77.7877 96.0211V344.439C77.7877 349.377 81.804 353.393 86.7418 353.393H447.749C452.681 353.393 456.697 349.377 456.697 344.439V96.0211C456.697 91.0833 452.684 87.067 447.749 87.067H86.7418Z" fill="#9192FF"/>
<path d="M457.102 96.0208V110.759H77.3794V96.0208C77.3794 90.8477 81.5721 86.6582 86.742 86.6582H447.75C452.913 86.6582 457.106 90.8477 457.106 96.0208H457.102Z" fill="white"/>
<path d="M457.511 111.168H76.9707V96.0211C76.9707 90.6323 81.353 86.25 86.7418 86.25H447.749C453.132 86.25 457.514 90.6323 457.514 96.0211V111.168H457.511ZM77.7877 110.351H456.697V96.0211C456.697 91.0833 452.684 87.067 447.749 87.067H86.7418C81.804 87.067 77.7877 91.0833 77.7877 96.0211V110.351Z" fill="#9192FF"/>
<path d="M98.4606 103.064C100.866 103.064 102.817 101.114 102.817 98.7077C102.817 96.3019 100.866 94.3516 98.4606 94.3516C96.0548 94.3516 94.1045 96.3019 94.1045 98.7077C94.1045 101.114 96.0548 103.064 98.4606 103.064Z" fill="#3335CF"/>
<path d="M115.075 94.3516C112.673 94.3516 110.719 96.3058 110.719 98.7077C110.719 101.11 112.673 103.064 115.075 103.064C117.477 103.064 119.431 101.11 119.431 98.7077C119.431 96.3058 117.477 94.3516 115.075 94.3516Z" fill="#3335CF"/>
<path d="M131.686 103.064C129.284 103.064 127.33 101.11 127.33 98.7077C127.33 96.3058 129.284 94.3516 131.686 94.3516C134.088 94.3516 136.042 96.3058 136.042 98.7077C136.042 101.11 134.088 103.064 131.686 103.064ZM131.686 95.1685C129.735 95.1685 128.147 96.7568 128.147 98.7077C128.147 100.659 129.735 102.247 131.686 102.247C133.637 102.247 135.225 100.659 135.225 98.7077C135.225 96.7568 133.637 95.1685 131.686 95.1685Z" fill="#9192FF"/>
<path d="M238.896 103.557H157.914C155.238 103.557 153.064 101.38 153.064 98.707C153.064 96.0339 155.241 93.8574 157.914 93.8574H238.896C241.57 93.8574 243.746 96.0339 243.746 98.707C243.746 101.38 241.57 103.557 238.896 103.557ZM157.914 94.6744C155.689 94.6744 153.881 96.4848 153.881 98.707C153.881 100.929 155.692 102.74 157.914 102.74H238.896C241.122 102.74 242.929 100.929 242.929 98.707C242.929 96.4848 241.119 94.6744 238.896 94.6744H157.914Z" fill="#9192FF"/>
<path d="M341.882 226.362C341.882 265.479 310.176 297.195 271.059 297.195C231.942 297.195 200.227 265.479 200.227 226.362C200.227 189.664 228.142 159.484 263.893 155.89L266.255 179.131C242.302 181.543 223.599 201.771 223.599 226.362C223.599 252.581 244.847 273.829 271.059 273.829C297.271 273.829 318.51 252.581 318.51 226.362C318.51 221.787 317.863 217.366 316.657 213.186L339.114 206.699C340.918 212.941 341.882 219.542 341.882 226.366V226.362Z" fill="#3F97FF"/>
<path d="M271.056 283.547C302.64 283.547 328.245 257.943 328.245 226.359C328.245 194.774 302.64 169.17 271.056 169.17C239.471 169.17 213.867 194.774 213.867 226.359C213.867 257.943 239.471 283.547 271.056 283.547Z" fill="white"/>
<path opacity="0.5" d="M271.056 283.547C302.64 283.547 328.245 257.943 328.245 226.359C328.245 194.774 302.64 169.17 271.056 169.17C239.471 169.17 213.867 194.774 213.867 226.359C213.867 257.943 239.471 283.547 271.056 283.547Z" fill="#D1D1FF"/>
<path d="M271.056 266.878C293.427 266.878 311.562 248.737 311.562 226.359C311.562 203.981 293.427 185.84 271.056 185.84C248.685 185.84 230.55 203.981 230.55 226.359C230.55 248.737 248.685 266.878 271.056 266.878Z" fill="white"/>
<path d="M275.677 246.284V252.444H267.854V246.561C262.305 246.228 256.926 244.728 253.596 242.676L257.811 233.13C261.475 235.294 266.354 236.682 270.628 236.682C274.347 236.682 275.68 235.905 275.68 234.571C275.68 229.689 254.207 233.63 254.207 219.143C254.207 212.872 258.756 207.598 267.857 206.323V200.274H275.68V206.212C279.782 206.601 283.782 207.657 286.945 209.431L283.004 218.921C279.174 216.977 275.566 216.036 272.184 216.036C268.354 216.036 267.131 217.143 267.131 218.477C267.131 223.14 288.605 219.255 288.605 233.571C288.605 239.565 284.278 244.784 275.68 246.28L275.677 246.284Z" fill="#3F97FF"/>
<path d="M523.193 38.1953H369.107V132.413H523.193V38.1953Z" fill="white"/>
<path d="M523.601 132.822H368.698V37.7871H523.601V132.822ZM369.515 132.005H522.784V38.6041H369.515V132.005Z" fill="#9192FF"/>
<path d="M397.375 102.424H388.505V118.711H397.375V102.424Z" fill="#D1D1FF"/>
<path d="M415.109 94.9824H406.24V118.711H415.109V94.9824Z" fill="#D1D1FF"/>
<path d="M432.848 101.067H423.979V118.711H432.848V101.067Z" fill="#D1D1FF"/>
<path d="M450.586 88.6494H441.717V118.708H450.586V88.6494Z" fill="#D1D1FF"/>
<path d="M468.321 80.708H459.452V118.711H468.321V80.708Z" fill="#D1D1FF"/>
<path d="M486.06 69.3682H477.19V118.711H486.06V69.3682Z" fill="#D1D1FF"/>
<path d="M503.794 51.9014H494.925V118.711H503.794V51.9014Z" fill="#D1D1FF"/>
<path d="M395.554 59.8291H388.505V67.8094H395.554V59.8291Z" fill="#D1D1FF"/>
<path d="M454.174 63.5225H406.443V65.5682H454.174V63.5225Z" fill="#D1D1FF"/>
<path d="M384.545 180.184L374.787 153.227C363.761 157.22 355.882 167.779 355.882 180.184C355.882 196.013 368.715 208.847 384.545 208.847C400.375 208.847 413.208 196.013 413.208 180.184C413.208 175.419 412.038 170.932 409.982 166.978L384.545 180.184Z" fill="#EBEBFF"/>
<path d="M413.796 156.765C409.018 147.582 399.424 141.305 388.359 141.305C384.931 141.305 381.646 141.909 378.601 143.011L388.359 169.968L413.796 156.762V156.765Z" fill="#9192FF"/>
<path d="M425.119 272.038H357.31V336.58H425.119V272.038Z" fill="#EBEBFF"/>
<path d="M405.92 289.194H367.93V291.92H405.92V289.194Z" fill="white"/>
<path d="M405.92 297.364H367.93V300.09H405.92V297.364Z" fill="white"/>
<path d="M166.28 148.674H107.313V248.346H166.28V148.674Z" fill="#EBEBFF"/>
<path d="M154.97 163.108H116.3V198.51H154.97V163.108Z" fill="white"/>
<path d="M116.575 162.792L116.023 163.395L154.695 198.794L155.247 198.191L116.575 162.792Z" fill="#EBEBFF"/>
<path d="M154.691 162.808L116.025 198.214L116.577 198.816L155.242 163.411L154.691 162.808Z" fill="#EBEBFF"/>
<path d="M135.653 189.383H0.782227V278.247H135.653V189.383Z" fill="white"/>
<path d="M136.045 278.637H0.393555V188.991H136.045V278.637ZM1.17459 277.859H135.264V189.776H1.17459V277.859Z" fill="#9192FF"/>
<path d="M14.9946 256.787L23.7069 240.447L41.6805 257.332L53.664 222.473L75.9937 246.983L90.6994 240.993L117.389 206.134" fill="white"/>
<path d="M41.8635 258.065L23.818 241.111L15.354 256.98L14.6318 256.597L23.599 239.784L41.5007 256.604L53.5005 221.689L76.1048 246.499L90.4444 240.656L117.065 205.886L117.712 206.382L90.9575 241.33L75.8858 247.47L75.693 247.261L53.8273 223.261L41.8635 258.065Z" fill="#9192FF"/>
<path d="M23.7753 242.627C25.0153 242.627 26.0204 241.622 26.0204 240.382C26.0204 239.142 25.0153 238.137 23.7753 238.137C22.5354 238.137 21.5303 239.142 21.5303 240.382C21.5303 241.622 22.5354 242.627 23.7753 242.627Z" fill="#9192FF"/>
<path d="M41.5463 259.17C42.7862 259.17 43.7914 258.165 43.7914 256.925C43.7914 255.685 42.7862 254.68 41.5463 254.68C40.3064 254.68 39.3013 255.685 39.3013 256.925C39.3013 258.165 40.3064 259.17 41.5463 259.17Z" fill="#9192FF"/>
<path d="M53.8012 224.856C55.0411 224.856 56.0463 223.851 56.0463 222.611C56.0463 221.371 55.0411 220.366 53.8012 220.366C52.5613 220.366 51.5562 221.371 51.5562 222.611C51.5562 223.851 52.5613 224.856 53.8012 224.856Z" fill="#9192FF"/>
<path d="M96.8137 203.55H39.625V204.367H96.8137V203.55Z" fill="#9192FF"/>
<path d="M321.451 404.184C319.033 388.341 322.356 371.684 330.667 357.979C338.977 344.276 352.215 333.633 367.382 328.453C358.794 334.466 353.549 344.182 349.892 354.005C346.235 363.828 343.833 374.142 339.32 383.606C334.807 393.067 327.69 401.91 317.824 405.449L321.451 404.181V404.184Z" fill="#9192FF"/>
<path d="M319.079 404.315C318.735 386.004 315.18 367.756 308.621 350.659C306.291 344.587 303.5 338.525 298.958 333.871C294.416 329.218 287.811 326.149 281.409 327.286C289.383 333.254 293.514 343.07 295.84 352.757C298.167 362.439 299.063 372.488 302.337 381.893C305.611 391.298 311.876 400.364 321.252 403.726L319.082 404.311L319.079 404.315Z" fill="#9192FF"/>
<path d="M317.83 405.517C313.271 393.239 308.317 380.655 299.151 371.305C289.984 361.952 275.461 356.603 263.455 361.831C273.177 364.037 282.086 369.665 288.252 377.498C292.775 383.243 295.814 390.053 300.464 395.694C305.115 401.334 312.209 405.88 319.395 404.533L317.83 405.517Z" fill="#D1D1FF"/>
<path d="M316.373 404.677C314.503 391.204 312.637 377.514 314.605 364.057C316.572 350.6 322.938 337.162 334.34 329.747C328.029 335.937 325.921 345.309 325.918 354.149C325.918 362.988 327.706 371.746 327.856 380.586C328.006 389.426 326.252 398.815 320.274 405.324L316.376 404.677H316.373Z" fill="#D1D1FF"/>
<path d="M322.68 402.714C327.049 391.58 331.709 380.021 340.607 372.028C346.323 366.897 353.601 363.531 361.212 362.502C355.875 366.76 352.535 372.999 349.764 379.237C346.993 385.475 344.601 391.972 340.588 397.495C336.575 403.018 330.546 407.56 323.725 407.851L322.68 402.714Z" fill="#D1D1FF"/>
<path d="M344.872 436.591H295.791L288.226 398.837H352.438L344.872 436.591Z" fill="white"/>
<path d="M345.206 437H295.458L287.726 398.429H352.934L345.202 437H345.206ZM296.128 436.183H344.536L351.938 399.246H288.723L296.125 436.183H296.128Z" fill="#9192FF"/>
<path d="M432.737 413.889V436.591H403.293L416.773 425.595L417.482 411.762L432.737 413.889Z" fill="#D1D1FF"/>
<path d="M417.054 425.335L416.491 425.927L422.112 431.274L422.675 430.682L417.054 425.335Z" fill="#1B1B43"/>
<path d="M429.881 419.912H419.806V420.729H429.881V419.912Z" fill="#1B1B43"/>
<path d="M467.145 414.955L468.21 436.592H438.766L451.181 425.951V412.824L467.145 414.955Z" fill="#D1D1FF"/>
<path d="M451.456 425.687L450.915 426.299L455.487 430.338L456.028 429.726L451.456 425.687Z" fill="#1B1B43"/>
<path d="M464.468 420.321H454.527V421.138H464.468V420.321Z" fill="#1B1B43"/>
<path d="M435.701 283.391C436.207 328.629 439.956 373.148 447.125 416.906H471.935C466.775 383.442 464.442 342.802 467.328 288.924L449.413 274.251L435.704 283.391H435.701Z" fill="#2E1969"/>
<path d="M416.087 289.375L404.861 339.302C402.165 351.299 401.976 363.723 404.312 375.798L412.198 416.579H437.008L429.498 363.043L447.452 281.434L416.087 289.378V289.375Z" fill="#2E1969"/>
<path d="M437.374 337.218C437.312 336.188 435.897 313.228 435.753 310.319L429.27 307.963L429.547 307.195L436.557 309.744V310.032C436.557 310.535 437.626 328.005 438.191 337.172L437.374 337.221V337.218Z" fill="#713FFF"/>
<path d="M491.089 176.657L492.416 173.491C492.416 173.491 487.615 163.38 489.148 162.053C490.68 160.726 493.131 164.504 493.131 164.504C493.131 164.504 492.416 152.249 494.765 152.148C496.746 152.063 496.602 155.619 496.808 160.932C496.808 160.932 498.033 159.298 500.288 160.988C501.301 159.298 503.445 160.422 504.059 161.445C504.775 160.628 507.736 160.831 507.327 164.305C506.808 168.707 504.775 176.867 504.775 176.867L498.239 182.278L491.089 176.661V176.657Z" fill="#FFBC96"/>
<path d="M438.596 218.934L448.534 218.856C465.965 217.3 479.582 203.14 479.582 203.14L491.089 176.657L504.775 176.86L496.742 207.987C495.589 212.457 493.102 216.47 489.615 219.496L461.066 244.261L438.599 218.934H438.596Z" fill="#3335CF"/>
<path d="M411.358 241.47L416.087 289.375L467.328 288.924L465.556 231.189L438.596 218.935L419.943 226.833L411.358 241.47Z" fill="#3335CF"/>
<path d="M379.626 246.124C378.79 245.382 377.737 244.928 376.623 244.836C370.96 244.366 353.251 242.997 353.424 244.372C353.627 246.006 367.107 252.134 367.11 252.134C369.992 255.379 372.875 258.624 375.757 261.866L383.679 249.719L379.63 246.124H379.626Z" fill="#FFBC96"/>
<path d="M418.247 223.546C414.596 224.183 411.459 226.503 409.78 229.804L394.678 259.483L383.675 249.719L375.754 261.866C376.718 262.95 377.682 264.035 378.646 265.12C382.924 269.934 387.911 276.405 394.59 277.806C397.995 278.522 401.162 277.107 403.603 274.767C405.391 273.052 406.989 270.931 408.266 268.803L414.289 258.875L433.488 220.886L418.25 223.549L418.247 223.546Z" fill="#3335CF"/>
<path d="M411.773 241.413L410.959 241.492L413.829 270.97L414.642 270.891L411.773 241.413Z" fill="#D1D1FF"/>
<path d="M465.864 239.974L461.063 244.261L466.171 252.738L465.864 239.974Z" fill="#1B1B43"/>
<path d="M498.579 167.023C496.651 167.023 496.504 164.497 496.5 160.929H497.115C497.115 165.128 497.458 166.409 498.579 166.409C498.801 166.409 498.994 166.321 499.167 166.135C499.713 165.55 499.925 164.18 499.991 162.952C499.948 162.063 499.971 161.291 499.984 160.968L500.595 160.958C500.602 161.033 500.654 161.86 500.608 162.876C500.693 164.54 500.974 166.184 501.527 166.35C501.837 166.442 502.105 166.402 502.347 166.229C503.007 165.752 503.379 164.406 503.572 163.2C503.589 162.684 503.644 162.082 503.755 161.386L504.363 161.442C504.363 161.51 504.337 162.21 504.21 163.089C504.164 164.363 504.311 165.599 504.824 165.814C505.206 165.974 505.52 165.974 505.788 165.811C506.491 165.383 506.742 163.938 506.781 163.419L507.392 163.465C507.386 163.553 507.216 165.654 506.105 166.334C505.664 166.602 505.154 166.618 504.585 166.38C504.442 166.321 503.991 166.059 503.739 165.102C503.497 165.788 503.164 166.393 502.703 166.723C502.301 167.014 501.847 167.082 501.347 166.935C500.808 166.775 500.474 166.085 500.272 165.226C500.121 165.759 499.909 166.229 499.612 166.546C499.321 166.857 498.974 167.014 498.576 167.014L498.579 167.023Z" fill="#D28572"/>
<path d="M434.276 230.562C429.92 230.912 426.113 227.67 425.763 223.323L425.675 222.219L424.433 206.811L434.031 206.043L440.191 205.546L441.515 222.049C441.864 226.405 438.622 230.212 434.276 230.562Z" fill="#FFBC96"/>
<path d="M437.103 211.239C434.113 216.507 429.832 220.301 425.672 222.219L424.43 206.811L434.028 206.043L437.099 211.239H437.103Z" fill="#1B1B43"/>
<path d="M440.233 195.105L438.328 211.176C438.328 211.176 432.201 217.036 423.214 216.755C419.936 216.657 418.011 213.552 416.881 209.604C416.413 207.954 416.09 206.167 415.861 204.376C415.11 198.461 415.453 192.65 415.453 192.65L429.341 188.026L440.233 195.101V195.105Z" fill="#FFBC96"/>
<path d="M438.122 201.709C436.675 196.552 434.08 193.961 430.567 193.402C419.4 199.461 412.152 195.853 406.875 189.115C419.809 191.634 425.459 173.252 437.851 185.507C447.041 188.298 446.874 197.082 441.665 204.229L438.122 201.709Z" fill="#1B1B43"/>
<path d="M443.859 203.659C444.333 201.234 443.012 198.935 440.91 198.524C438.807 198.114 436.719 199.747 436.245 202.172C435.772 204.597 437.092 206.895 439.195 207.306C441.297 207.717 443.386 206.084 443.859 203.659Z" fill="#FFBC96"/>
<path d="M441.511 201.272C440.871 201.38 440.456 201.864 440.145 202.416C439.841 202.975 439.642 203.599 439.521 204.269L439.283 204.282C439.181 203.923 439.181 203.54 439.24 203.174C439.302 202.805 439.426 202.445 439.616 202.115C439.805 201.789 440.057 201.478 440.39 201.259C440.717 201.04 441.152 200.926 441.531 201.03L441.515 201.269L441.511 201.272Z" fill="#1B1B43"/>
<path d="M418.786 202.357C418.786 203.053 418.449 203.615 418.037 203.615C417.626 203.615 417.289 203.05 417.289 202.357C417.289 201.664 417.626 201.099 418.037 201.099C418.449 201.099 418.786 201.664 418.786 202.357Z" fill="#1B1B43"/>
<path d="M424.975 201.844C424.975 202.598 424.613 203.21 424.165 203.21C423.717 203.21 423.354 202.598 423.354 201.844C423.354 201.089 423.717 200.478 424.165 200.478C424.613 200.478 424.975 201.089 424.975 201.844Z" fill="#1B1B43"/>
<path d="M420.485 203.379C420.485 203.621 420.39 203.859 420.276 204.062C420.152 204.265 420.005 204.438 419.861 204.598C419.57 204.915 419.302 205.203 419.24 205.506C419.158 205.814 419.279 206.118 419.518 206.421C419.757 206.722 420.077 206.993 420.387 207.294L420.257 207.493C419.858 207.323 419.462 207.114 419.123 206.784C418.953 206.618 418.802 206.415 418.701 206.167C418.603 205.915 418.583 205.627 418.652 205.366C418.717 205.101 418.858 204.869 419.015 204.689C419.172 204.51 419.338 204.359 419.502 204.222C419.819 203.944 420.126 203.706 420.257 203.34L420.492 203.376L420.485 203.379Z" fill="#1B1B43"/>
<path d="M421.077 210.187C421.939 209.994 422.74 209.723 423.452 209.279C423.809 209.06 424.148 208.805 424.472 208.527C424.796 208.246 425.106 207.945 425.43 207.635L425.622 207.775C425.22 208.596 424.577 209.314 423.769 209.801C422.966 210.288 422.001 210.52 421.09 210.429L421.077 210.19V210.187Z" fill="#1B1B43"/>
<path d="M423.182 198.461C423.005 199.383 425.904 199.68 426.423 199.772C426.851 199.847 427.466 199.896 427.554 199.246C427.665 198.438 426.789 198.353 426.293 198.246C425.816 198.141 423.345 197.592 423.182 198.461Z" fill="#1B1B43"/>
<path d="M419.149 199.03C419.132 199.922 416.832 200.01 416.41 200.063C416.064 200.105 415.58 200.112 415.616 199.484C415.662 198.706 416.358 198.684 416.763 198.615C417.149 198.55 419.165 198.187 419.152 199.03H419.149Z" fill="#1B1B43"/>
<path opacity="0.2" d="M429.969 207.546C431.604 207.546 432.93 206.22 432.93 204.585C432.93 202.95 431.604 201.624 429.969 201.624C428.334 201.624 427.008 202.95 427.008 204.585C427.008 206.22 428.334 207.546 429.969 207.546Z" fill="#2E1969"/>
<path opacity="0.2" d="M418.077 207.245C418.077 208.216 417.61 209.075 416.884 209.605C416.417 207.954 416.094 206.167 415.865 204.376C417.139 204.709 418.08 205.869 418.08 207.245H418.077Z" fill="#2E1969"/>
<path d="M206.988 302.672H150.152V306.499H206.988V302.672Z" fill="#9192FF"/>
<path d="M206.985 302.675H158.986L177.165 258.355H225.161L206.985 302.675Z" fill="white"/>
<path d="M207.26 303.084H158.378L176.891 257.947H225.772L207.26 303.084ZM159.597 302.267H206.711L224.553 258.764H177.44L159.597 302.267Z" fill="#9192FF"/>
<path d="M202.841 298.95H165.12L179.404 264.12H217.125L202.841 298.95Z" fill="#EBEBFF"/>
<path d="M187.874 307.724H187.057V436.8H187.874V307.724Z" fill="#1B1B43"/>
<path d="M233.308 306.502H141.626V313.793H233.308V306.502Z" fill="#D1D1FF"/>
<path d="M67.6407 361.942H66.8237V436.801H67.6407V361.942Z" fill="#1B1B43"/>
<path d="M89.6535 365.413H44.811C45.762 360.861 49.7783 357.6 54.4285 357.6H80.0393C84.6895 357.6 88.7025 360.861 89.6568 365.413H89.6535Z" fill="#D1D1FF"/>
<path d="M60.7162 431.454H73.7455C76.5755 431.454 78.8696 433.751 78.8696 436.578H55.5889C55.5889 433.748 57.8862 431.454 60.713 431.454H60.7162Z" fill="#D1D1FF"/>
<path d="M101.827 250.875C102.974 252.525 104.617 254.859 104.8 256.898C105.065 259.865 100.317 257.783 100.261 258.042L101.827 250.875Z" fill="#D28572"/>
<path d="M94.5747 254.365H79.5684V276.358H94.5747V254.365Z" fill="#FFBC96"/>
<path d="M94.578 258.137V273.839C89.8493 270.869 85.7611 266.457 82.2285 261.362L94.578 258.137Z" fill="#1B1B43"/>
<path d="M103.013 252.209C102.545 259.807 99.6207 268.401 91.6437 266.281C85.3791 264.614 78.4805 259.339 78.4805 251.728C78.4805 244.117 83.7484 237.944 90.2483 237.944C94.3103 237.944 99.4246 239.915 101.83 243.722C103.274 246.006 103.215 248.895 103.013 252.209Z" fill="#FFBC96"/>
<path d="M89.7318 250.006C91.856 244.372 96.7187 243.816 96.7187 243.816C96.7187 243.816 107.98 254.953 107.281 243.447C106.725 234.303 97.7905 235.166 97.7905 235.166C93.4246 229.483 86.4214 231.705 83.8692 235.003C81.3169 238.3 82.2221 236.405 76.2092 238.545C70.1962 240.686 73.4085 249.833 72.3367 250.489C64.3466 250.489 65.827 258.398 65.827 258.398L84.745 264.568L89.3005 252.13L89.7318 250.006Z" fill="#1B1B43"/>
<path d="M91.7022 250.649C92.8721 252.675 92.5551 255.048 90.9963 255.95C89.4375 256.852 87.2251 255.937 86.0552 253.911C84.8853 251.885 85.2023 249.512 86.7611 248.61C88.3199 247.708 90.5323 248.623 91.7022 250.649Z" fill="#FFBC96"/>
<path d="M89.2871 253.09C89.0224 252.577 88.7969 252.077 88.4407 251.728C88.2642 251.551 88.0616 251.408 87.8296 251.283C87.5976 251.159 87.3394 251.055 87.0747 250.927L87.1139 250.715C87.4146 250.698 87.7185 250.734 88.0159 250.832C88.3133 250.93 88.6041 251.104 88.8296 251.339C89.0583 251.574 89.2217 251.855 89.3263 252.146C89.4309 252.437 89.4864 252.734 89.4962 253.035L89.2871 253.087V253.09Z" fill="#1B1B43"/>
<path d="M82.2089 239.472C85.7154 239.306 88.4121 236.091 88.2322 232.291C88.0523 228.49 85.064 225.544 81.5575 225.71C78.051 225.876 75.3543 229.092 75.5342 232.892C75.7141 236.692 78.7025 239.638 82.2089 239.472Z" fill="#1B1B43"/>
<path opacity="0.2" d="M96.4864 259.375C98.0656 259.375 99.3458 258.095 99.3458 256.516C99.3458 254.936 98.0656 253.656 96.4864 253.656C94.9072 253.656 93.627 254.936 93.627 256.516C93.627 258.095 94.9072 259.375 96.4864 259.375Z" fill="#2E1969"/>
<path d="M107.722 330.452L59.6602 324.325L68.7188 276.554C69.3561 273.215 71.5783 270.378 74.6763 268.973C77.2579 267.796 80.2089 267.721 82.8526 268.76L99.2315 276.038C102.385 277.437 104.558 280.401 104.95 283.826L105.875 299.43L106.931 317.119L107.722 330.452Z" fill="#8D90FF"/>
<path d="M151.701 296.139L164.423 292.4C165.341 292.132 166.325 292.28 167.122 292.809C170.606 295.119 179.874 301.662 177.534 304.335C176.364 305.671 165.727 302.541 165.727 302.541L150.325 306.838L151.701 296.142V296.139Z" fill="#FFBC96"/>
<path d="M106.927 317.119C102.924 312.021 100.545 305.289 99.7544 296.956L105.875 299.43L106.931 317.119H106.927Z" fill="#1B1B43"/>
<path d="M97.7805 275.443L99.6955 276.27C103.637 277.969 107.173 280.492 110.058 283.672L125.832 301.044L151.705 296.142L155.11 310.031L122.604 320.191C120.038 320.649 117.414 319.763 115.65 317.841L92.2021 292.329L97.7838 275.443H97.7805Z" fill="#8D90FF"/>
<path d="M125.529 301.318C125.45 301.233 117.758 292.854 111.091 285.384C104.503 277.995 94.4573 274.404 94.356 274.371L94.6272 273.6C94.7285 273.636 104.967 277.292 111.702 284.841C118.362 292.308 126.055 300.684 126.13 300.769L125.529 301.321V301.318Z" fill="#1B1B43"/>
<path d="M94.1249 295.041L93.5381 295.609L115.35 318.126L115.937 317.557L94.1249 295.041Z" fill="#1B1B43"/>
<path d="M105.98 402.706L95.6108 422.902L121.803 436.349L114.833 420.408L120.519 407.778L105.98 402.706Z" fill="#D1D1FF"/>
<path d="M114.703 420.026L107.26 422.217L107.491 423.001L114.933 420.81L114.703 420.026Z" fill="#1B1B43"/>
<path d="M122.29 415.978L98.562 407.125L114.81 356.563C117.604 349.077 126.209 345.374 134.029 348.292C141.849 351.211 145.924 359.645 143.13 367.132L122.287 415.981L122.29 415.978Z" fill="#26289C"/>
<path d="M145.303 412.558L147.616 436.591H177.06L163.58 425.594L160.417 411.741L145.303 412.558Z" fill="#D1D1FF"/>
<path d="M163.393 425.226L156.416 429.072L156.81 429.788L163.787 425.941L163.393 425.226Z" fill="#1B1B43"/>
<path d="M166.544 415.418L140.809 419.503L123.185 367.68L119.976 358.23L76.2091 358.583C65.3857 358.828 56.7747 349.557 57.8368 338.772L59.657 324.328L102.957 329.776L131.411 332.906C143.257 334.949 146.894 342.122 149.358 351.338L166.541 415.422L166.544 415.418Z" fill="#3335CF"/>
<path d="M123.186 367.684L119.977 358.233L125.898 358.03C126.447 361.592 125.032 365.573 123.186 367.687V367.684Z" fill="#1B1B43"/>
<path d="M513.762 436.184H17.854V437.001H513.762V436.184Z" fill="#1B1B43"/>
</svg>
