<svg width="518" height="530" viewBox="0 0 518 530" fill="none" xmlns="http://www.w3.org/2000/svg">
<mask id="mask0_138_372" style="mask-type:alpha" maskUnits="userSpaceOnUse" x="0" y="0" width="518" height="530">
<rect width="518" height="530" fill="#D9D9D9"/>
</mask>
<g mask="url(#mask0_138_372)">
<path opacity="0.9" d="M374.311 365.132H161.58L125.62 322.767V322.664L125.113 120.764L125.651 120.756L126.158 322.569L161.825 364.594H373.772V110.416H374.311V365.132Z" fill="url(#paint0_linear_138_372)"/>
<path opacity="0.7" d="M386.44 473.972H277.229V204.664H433.635V426.785L433.532 426.888L386.448 473.972H386.44ZM277.949 473.252H386.139L432.907 426.484V205.385H277.941" fill="url(#paint1_linear_138_372)"/>
<path opacity="0.1" d="M467.981 369.511H337.424V82.9111H467.981V369.511ZM338.857 368.07H466.54V84.3521H338.857V368.07Z" fill="url(#paint2_linear_138_372)"/>
<path opacity="0.8" d="M225.481 395.1V229.517H226.281V394.799L251.307 424.283H354.621V425.09H250.935L250.808 424.948" fill="url(#paint3_linear_138_372)"/>
<path d="M381.658 408.178C381.728 408.131 381.736 408.123 381.658 408.178V408.178Z" fill="#9E96B3"/>
<path d="M380.906 408.725C381.222 408.495 381.531 408.274 381.658 408.179C381.563 408.25 381.341 408.408 380.906 408.725C380.518 409.01 380.296 409.168 380.185 409.247C380.328 409.144 380.613 408.939 380.906 408.725C378.063 410.783 377.422 414.766 379.481 417.608L378.855 416.745L352.205 436.024V517.279C349.205 517.786 346.909 520.399 346.909 523.542C346.909 527.049 349.759 529.9 353.266 529.9C356.774 529.9 359.624 527.049 359.624 523.542C359.624 520.399 357.328 517.786 354.327 517.279V437.116L380.098 418.479L379.473 417.616C381.531 420.458 385.514 421.1 388.356 419.041C391.198 416.983 391.84 413 389.781 410.158C387.723 407.316 383.74 406.674 380.898 408.733L380.906 408.725ZM358.135 523.542C358.135 526.226 355.95 528.411 353.266 528.411C350.582 528.411 348.397 526.226 348.397 523.542C348.397 520.858 350.582 518.681 353.258 518.673C355.942 518.673 358.12 520.858 358.12 523.542H358.135ZM388.015 417.442C388.126 417.355 388.158 417.339 388.015 417.442V417.442ZM386.947 418.21C386.812 418.305 386.844 418.289 386.947 418.21V418.21ZM387.485 417.822C385.308 419.397 382.26 418.906 380.692 416.729C379.116 414.552 379.607 411.504 381.785 409.936C383.962 408.361 387.01 408.851 388.578 411.029C390.153 413.206 389.662 416.254 387.485 417.822Z" fill="#9E96B3"/>
<path d="M380.185 409.247C380.059 409.341 380.083 409.326 380.185 409.247V409.247Z" fill="#9E96B3"/>
<path d="M300.687 364.981C297.18 364.981 294.33 367.832 294.33 371.339C294.33 374.482 296.626 377.095 299.626 377.602V422.406C296.626 422.913 294.33 425.525 294.33 428.668C294.33 432.176 297.18 435.026 300.687 435.026C304.195 435.026 307.045 432.176 307.045 428.668C307.045 425.525 304.749 422.913 301.748 422.406V377.602C304.749 377.095 307.045 374.482 307.045 371.339C307.045 367.832 304.195 364.981 300.687 364.981ZM305.556 428.668C305.556 431.352 303.371 433.538 300.687 433.538C298.003 433.538 295.818 431.352 295.818 428.668C295.818 425.985 298.003 423.799 300.687 423.799C303.371 423.799 305.556 425.985 305.556 428.668ZM300.687 376.208C298.003 376.208 295.818 374.023 295.818 371.339C295.818 368.655 298.003 366.47 300.687 366.47C303.371 366.47 305.556 368.655 305.556 371.339C305.556 374.023 303.371 376.208 300.687 376.208Z" fill="#9E96B3"/>
<path d="M394.856 334.254C395.149 334.032 395.339 333.89 395.466 333.795C395.308 333.914 395.086 334.08 394.856 334.254Z" fill="#9E96B3"/>
<path d="M394.856 334.255C392.354 336.163 391.673 339.567 393.083 342.259L334.431 386.968V468.374H336.561V388.029L394.373 343.961C396.598 346.036 400.066 346.281 402.568 344.373C405.355 342.243 405.893 338.245 403.771 335.458C401.641 332.671 397.643 332.133 394.856 334.255ZM401.665 343.185C401.863 343.035 402.061 342.885 402.172 342.798C402.077 342.869 401.918 342.988 401.665 343.185C401.135 343.589 400.596 344.001 401.665 343.185C399.527 344.816 396.471 344.397 394.84 342.267C393.209 340.129 393.629 337.073 395.759 335.442C397.896 333.811 400.953 334.231 402.584 336.361C404.214 338.498 403.795 341.555 401.665 343.185ZM402.204 342.774C402.291 342.71 402.306 342.695 402.204 342.774V342.774Z" fill="#9E96B3"/>
<path d="M394.856 334.254C393.463 335.315 394.16 334.784 394.856 334.254V334.254Z" fill="#9E96B3"/>
<path d="M395.466 333.795C395.68 333.629 395.743 333.582 395.466 333.795V333.795Z" fill="#9E96B3"/>
<path d="M335.5 468.382C331.993 468.382 329.143 471.232 329.143 474.739C329.143 478.247 331.993 481.097 335.5 481.097C339.008 481.097 341.858 478.247 341.858 474.739C341.858 471.232 339.008 468.382 335.5 468.382ZM335.5 479.609C332.816 479.609 330.631 477.423 330.631 474.739C330.631 472.056 332.816 469.87 335.5 469.87C338.184 469.87 340.369 472.056 340.369 474.739C340.369 477.423 338.184 479.609 335.5 479.609Z" fill="#9E96B3"/>
<path d="M324.17 410.997C324.17 407.49 321.32 404.64 317.813 404.64C314.305 404.64 311.455 407.49 311.455 410.997C311.455 414.14 313.751 416.753 316.752 417.26V491.968C313.751 492.475 311.455 495.087 311.455 498.23C311.455 501.738 314.305 504.588 317.813 504.588C321.32 504.588 324.17 501.738 324.17 498.23C324.17 495.087 321.874 492.475 318.874 491.968V417.26C321.874 416.753 324.17 414.14 324.17 410.997ZM312.944 410.997C312.944 408.313 315.129 406.128 317.813 406.128C320.497 406.128 322.682 408.313 322.682 410.997C322.682 413.681 320.497 415.866 317.813 415.866C315.129 415.866 312.944 413.681 312.944 410.997ZM322.682 498.23C322.682 500.914 320.497 503.1 317.813 503.1C315.129 503.1 312.944 500.914 312.944 498.23C312.944 495.546 315.129 493.361 317.813 493.361C320.497 493.361 322.682 495.546 322.682 498.23Z" fill="#9E96B3"/>
<path d="M32.3057 221.472C32.4086 221.59 32.4878 221.678 32.5353 221.717C32.5036 221.678 32.4244 221.598 32.3057 221.472Z" fill="#9E96B3"/>
<path d="M32.5273 221.718C32.5526 221.743 32.5526 221.743 32.5273 221.718V221.718Z" fill="#9E96B3"/>
<path d="M32.298 221.464C32.1951 221.353 32.0684 221.211 31.8863 221.013C30.4058 219.398 31.6963 220.807 32.298 221.464Z" fill="#9E96B3"/>
<path d="M180.344 262.001C180.526 262.009 180.645 262.017 180.693 262.017C180.629 262.017 180.511 262.009 180.344 262.001Z" fill="#9E96B3"/>
<path d="M179.331 261.953C179.267 261.953 179.204 261.953 179.148 261.945C179.204 261.945 179.267 261.945 179.331 261.953Z" fill="#9E96B3"/>
<path d="M180.099 261.993C180.178 261.993 180.257 261.993 180.32 262.001C180.249 262.001 180.178 262.001 180.099 261.993Z" fill="#9E96B3"/>
<path d="M179.703 261.969C179.616 261.969 179.537 261.961 179.465 261.953C179.545 261.953 179.624 261.953 179.703 261.969Z" fill="#9E96B3"/>
<path d="M179.085 261.938C178.911 261.93 178.8 261.922 178.745 261.922C178.8 261.922 178.927 261.93 179.085 261.938Z" fill="#9E96B3"/>
<path d="M180.352 249.261C177.216 249.103 174.493 251.264 173.836 254.241L159.173 253.513L138.675 264.787H82.0896L41.6638 220.68L40.8799 221.392C43.461 219.025 43.6352 214.995 41.2679 212.406C38.9006 209.817 34.8628 209.643 32.2817 212.018C29.6927 214.386 29.5186 218.423 31.8938 221.004C34.261 223.586 38.291 223.768 40.872 221.4L40.0882 222.121L81.1554 266.917H139.229L159.679 255.667L173.741 256.363C174.105 259.388 176.599 261.802 179.734 261.961C179.734 261.961 179.726 261.961 179.718 261.961C179.718 261.961 179.726 261.961 179.734 261.961C179.829 261.961 179.916 261.969 179.995 261.977C179.908 261.977 179.821 261.969 179.734 261.961C183.234 262.135 186.226 259.427 186.4 255.92C186.575 252.42 183.867 249.428 180.36 249.253L180.352 249.261ZM39.7161 212.937C39.6052 212.818 39.629 212.842 39.7161 212.937V212.937ZM32.9864 219.999C31.1733 218.02 31.3079 214.932 33.2872 213.119C35.2666 211.306 38.3464 211.44 40.1674 213.42C40.1436 213.396 40.1278 213.372 40.104 213.348C40.1278 213.372 40.1436 213.388 40.1674 213.42C40.397 213.665 40.5395 213.823 40.6108 213.911C40.5157 213.808 40.3416 213.618 40.1674 213.42C41.9804 215.399 41.8459 218.479 39.8665 220.3C37.8872 222.113 34.7994 221.978 32.9864 219.999ZM181.009 250.789C180.906 250.789 180.613 250.774 180.304 250.758C180.732 250.782 180.938 250.789 181.009 250.789ZM179.544 250.718C179.497 250.718 179.497 250.718 179.544 250.718V250.718ZM179.79 260.48C177.106 260.346 175.039 258.058 175.166 255.374C175.3 252.69 177.589 250.623 180.265 250.75C182.949 250.884 185.015 253.173 184.888 255.857C184.754 258.541 182.466 260.607 179.79 260.48Z" fill="#9E96B3"/>
<path d="M382.861 371.085C380.233 372.811 379.314 376.16 380.534 378.947L350.479 398.717V405.819C347.479 406.325 345.183 408.938 345.183 412.081C345.183 415.589 348.033 418.439 351.54 418.439C355.048 418.439 357.898 415.589 357.898 412.081C357.898 408.938 355.602 406.325 352.601 405.819V399.865L381.697 380.729C383.772 382.953 387.216 383.436 389.836 381.71C392.766 379.786 393.581 375.828 391.657 372.898C389.733 369.969 385.775 369.153 382.845 371.077L382.861 371.085ZM356.417 412.081C356.417 414.765 354.232 416.95 351.548 416.95C348.864 416.95 346.679 414.765 346.679 412.081C346.679 409.397 348.864 407.212 351.548 407.212C354.232 407.212 356.417 409.397 356.417 412.081ZM383.178 372.661C383.13 372.693 383.091 372.716 383.067 372.732C383.091 372.716 383.122 372.693 383.178 372.661ZM389.029 380.459C386.788 381.932 383.764 381.307 382.291 379.066C380.819 376.825 381.444 373.801 383.685 372.328C385.925 370.856 388.95 371.481 390.422 373.722C391.895 375.962 391.277 378.987 389.029 380.459Z" fill="#9E96B3"/>
<path d="M389.852 381.711C386.923 383.635 392.782 379.787 389.852 381.711V381.711Z" fill="#9E96B3"/>
<path d="M482.137 273.259C482.137 273.409 482.137 273.536 482.145 273.639C482.145 273.544 482.145 273.417 482.137 273.259Z" fill="#9E96B3"/>
<path d="M475.605 266.649C472.097 266.736 469.318 269.665 469.406 273.165C469.485 276.268 471.781 278.794 474.742 279.277L475.692 312.506L432.313 354.872H418.537C418.03 351.871 415.417 349.575 412.274 349.575C408.767 349.575 405.917 352.425 405.917 355.932C405.917 359.44 408.767 362.29 412.274 362.29C415.417 362.29 418.03 359.994 418.537 356.993H433.184L477.513 313.693L477.845 313.369L476.864 279.245C479.912 278.707 482.192 276.015 482.113 272.832C482.026 269.325 479.096 266.546 475.597 266.633L475.605 266.649ZM412.274 360.817C409.59 360.817 407.405 358.632 407.405 355.948C407.405 353.264 409.59 351.079 412.274 351.079C414.958 351.079 417.143 353.264 417.143 355.948C417.143 358.632 414.958 360.817 412.274 360.817ZM475.922 277.875H475.858C473.19 277.931 470.965 275.809 470.902 273.133C470.902 273.141 470.902 273.149 470.902 273.165C470.902 273.157 470.902 273.149 470.902 273.133C470.902 273.109 470.902 273.093 470.902 273.078C470.902 273.093 470.902 273.117 470.902 273.133C470.831 270.449 472.96 268.208 475.644 268.145C478.328 268.074 480.569 270.204 480.632 272.888C480.696 275.556 478.59 277.788 475.922 277.868V277.875ZM470.918 273.774C470.918 273.719 470.918 273.64 470.918 273.537C470.918 273.632 470.918 273.711 470.918 273.774ZM470.886 272.405C470.886 272.405 470.886 272.476 470.886 272.523C470.886 272.468 470.886 272.428 470.886 272.405Z" fill="#9E96B3"/>
<path d="M482.121 272.84C482.121 272.658 482.113 272.515 482.113 272.389C482.113 272.531 482.113 272.682 482.121 272.84Z" fill="#9E96B3"/>
<path d="M359.83 278.286L326.038 248.24V208.487L344.803 193.048H420.057C420.563 196.049 423.176 198.345 426.319 198.345C429.827 198.345 432.677 195.495 432.677 191.987C432.677 188.48 429.827 185.63 426.319 185.63C423.176 185.63 420.563 187.926 420.057 190.927H344.042L323.909 207.49V249.206L358.412 279.886L359.83 278.294V278.286ZM426.319 187.11C429.003 187.11 431.189 189.296 431.189 191.98C431.189 194.664 429.003 196.849 426.319 196.849C423.635 196.849 421.458 194.671 421.45 191.987C421.45 189.296 423.635 187.118 426.319 187.118V187.11Z" fill="#9E96B3"/>
<path d="M359.648 288.064C362.268 290.392 366.298 290.162 368.626 287.534C370.953 284.913 370.716 280.883 368.103 278.556C368.412 278.833 368.713 279.102 368.816 279.189C368.745 279.126 368.539 278.944 368.103 278.556C366.797 277.392 367.446 277.97 368.103 278.556C365.483 276.228 361.453 276.465 359.125 279.086C356.797 281.707 357.035 285.737 359.655 288.064H359.648ZM361.088 287.352C361.231 287.478 361.263 287.51 361.088 287.352V287.352ZM360.091 286.465C360.17 286.536 360.376 286.718 360.598 286.916C360.297 286.647 360.146 286.513 360.091 286.465ZM360.233 280.076C362.015 278.073 365.103 277.891 367.106 279.672C369.109 281.453 369.291 284.541 367.509 286.544C365.728 288.547 362.64 288.729 360.637 286.948C358.634 285.167 358.452 282.079 360.233 280.076Z" fill="#9E96B3"/>
<path d="M368.816 279.189C368.841 279.215 368.841 279.215 368.816 279.189V279.189Z" fill="#9E96B3"/>
<path d="M471.765 204.323C471.472 204.03 471.544 204.101 471.765 204.323V204.323Z" fill="#9E96B3"/>
<path d="M472.501 205.067C472.43 204.996 472.367 204.933 472.272 204.838C472.034 204.6 471.876 204.442 471.765 204.331C471.955 204.521 472.248 204.814 472.501 205.067Z" fill="#9E96B3"/>
<path d="M472.501 205.067C472.977 205.542 473.277 205.843 472.501 205.067V205.067Z" fill="#9E96B3"/>
<path d="M503.941 272.903V226.001L481.955 204.015C483.712 201.536 483.491 198.061 481.266 195.844C478.788 193.366 474.75 193.366 472.272 195.844C469.794 198.322 469.794 202.36 472.272 204.838C474.496 207.063 477.964 207.284 480.442 205.527L501.803 226.888V272.903C498.803 273.41 496.507 276.023 496.507 279.166C496.507 282.673 499.357 285.524 502.864 285.524C506.372 285.524 509.222 282.673 509.222 279.166C509.222 276.023 506.926 273.41 503.925 272.903H503.941ZM479.88 196.564C479.785 196.469 479.706 196.39 479.682 196.366C479.706 196.39 479.769 196.454 479.88 196.564ZM473.333 203.785C471.432 201.885 471.432 198.797 473.333 196.905C475.233 195.005 478.32 195.005 480.213 196.905C482.113 198.805 482.113 201.893 480.213 203.785C478.313 205.685 475.225 205.685 473.333 203.785ZM502.88 284.035C500.196 284.035 498.011 281.85 498.011 279.166C498.011 276.482 500.196 274.297 502.88 274.297C505.564 274.297 507.749 276.482 507.749 279.166C507.749 281.85 505.564 284.035 502.88 284.035Z" fill="#9E96B3"/>
<path d="M195.418 38.502C195.316 38.5805 195.332 38.5727 195.418 38.502V38.502Z" fill="#9E96B3"/>
<path d="M196.749 37.457C196.622 37.552 196.432 37.7025 196.131 37.9479C195.735 38.2646 195.521 38.4309 195.418 38.51C195.656 38.32 196.4 37.7341 196.749 37.457Z" fill="#9E96B3"/>
<path d="M196.836 37.3852C196.93 37.3145 196.946 37.2988 196.836 37.3852V37.3852Z" fill="#9E96B3"/>
<path d="M196.749 37.4565C196.749 37.4565 196.811 37.4015 196.835 37.3857C196.811 37.4093 196.78 37.425 196.749 37.4565Z" fill="#9E96B3"/>
<path d="M196.131 37.9403C198.878 35.763 199.338 31.7569 197.168 29.0096L197.825 29.8409L222.242 10.483H318.715C319.222 13.4837 321.835 15.7797 324.978 15.7797C328.485 15.7797 331.335 12.9294 331.335 9.42207C331.335 5.91469 328.485 3.06445 324.978 3.06445C321.835 3.06445 319.222 5.36048 318.715 8.36115H221.498L196.503 28.1861L197.16 29.0175C194.983 26.2701 190.977 25.8109 188.23 27.9882C185.482 30.1655 185.023 34.1796 187.2 36.9269C189.378 39.6742 193.392 40.1334 196.139 37.9561L196.131 37.9403ZM324.978 4.545C327.662 4.545 329.847 6.73018 329.847 9.41415C329.847 12.0981 327.662 14.2833 324.978 14.2833C322.294 14.2833 320.116 12.106 320.109 9.42207C320.109 6.73018 322.294 4.55291 324.978 4.55291V4.545ZM189.156 29.1441C189.045 29.2312 188.942 29.3183 188.847 29.3896C188.934 29.3262 189.029 29.2392 189.156 29.1441C190.209 28.3128 189.678 28.7245 189.156 29.1441C191.262 27.4736 194.326 27.8299 195.996 29.9359C197.667 32.0419 197.311 35.1059 195.205 36.7765C193.099 38.447 190.035 38.0907 188.364 35.9847C186.694 33.8787 187.05 30.8147 189.156 29.1441ZM188.697 29.5083C188.491 29.6667 188.538 29.635 188.697 29.5083V29.5083Z" fill="#9E96B3"/>
<path d="M55.7252 216.761C55.4322 216.468 55.5035 216.54 55.7252 216.761V216.761Z" fill="#9E96B3"/>
<path d="M65.2262 217.268C67.7043 214.79 67.7043 210.752 65.2262 208.274C62.7481 205.796 58.7103 205.796 56.2321 208.274C53.754 210.752 53.754 214.79 56.2321 217.268C58.7103 219.746 62.7481 219.746 65.2262 217.268ZM63.7061 208.867C63.5794 208.741 63.6032 208.765 63.7061 208.867V208.867ZM57.2851 209.327C59.1853 207.426 62.2731 207.426 64.1653 209.327C66.0655 211.227 66.0655 214.315 64.1653 216.207C62.2651 218.107 59.1774 218.107 57.2851 216.207C55.385 214.307 55.385 211.219 57.2851 209.327Z" fill="#9E96B3"/>
<path d="M56.4614 217.497C56.9365 217.972 57.2373 218.273 56.4614 217.497V217.497Z" fill="#9E96B3"/>
<path d="M56.4614 217.497C56.3902 217.426 56.3268 217.362 56.2318 217.267C55.9943 217.03 55.8359 216.872 55.7251 216.761C55.9151 216.951 56.2081 217.244 56.4614 217.497Z" fill="#9E96B3"/>
<path d="M89.73 250.766C89.92 250.956 90.0546 251.09 90.1654 251.201C90.0388 251.074 89.8883 250.924 89.73 250.766Z" fill="#9E96B3"/>
<path d="M89.2949 250.323C88.8753 249.903 88.9941 250.022 89.2949 250.323V250.323Z" fill="#9E96B3"/>
<path d="M98.7244 250.766C101.203 248.288 101.203 244.25 98.7244 241.772C96.4996 239.547 93.0318 239.325 90.5537 241.083L65.9862 216.516L64.4819 218.02L89.0494 242.587C87.2918 245.066 87.5134 248.541 89.7382 250.758C92.2163 253.236 96.2542 253.236 98.7323 250.758L98.7244 250.766ZM90.7833 242.825C92.6835 240.925 95.7712 240.925 97.6635 242.825C99.5636 244.725 99.5636 247.813 97.6635 249.705C95.7633 251.605 92.6756 251.605 90.7833 249.705C88.8832 247.805 88.8832 244.717 90.7833 242.825Z" fill="#9E96B3"/>
<path d="M78.8045 208.804C78.6857 208.686 78.5986 208.599 78.5273 208.527C78.6065 208.607 78.7015 208.702 78.8045 208.804Z" fill="#9E96B3"/>
<path d="M79.6358 209.636C79.5645 209.565 79.4299 209.43 79.2637 209.264C79.4141 209.414 79.5408 209.541 79.6358 209.636Z" fill="#9E96B3"/>
<path d="M78.5274 208.527C78.2345 208.234 78.3057 208.305 78.5274 208.527V208.527Z" fill="#9E96B3"/>
<path d="M79.2634 209.264C79.1921 209.193 79.1288 209.129 79.0338 209.034C78.9388 208.939 78.8755 208.876 78.8042 208.805C78.9546 208.955 79.113 209.113 79.2634 209.264Z" fill="#9E96B3"/>
<path d="M129.879 250.885C132.357 248.407 132.357 244.369 129.879 241.891C127.654 239.666 124.186 239.445 121.708 241.202L88.7168 208.211C90.4744 205.733 90.2527 202.257 88.028 200.04C85.5498 197.562 81.512 197.562 79.0339 200.04C76.5558 202.518 76.5558 206.556 79.0339 209.034C81.2587 211.259 84.7265 211.481 87.2046 209.723L120.196 242.715C118.438 245.193 118.66 248.668 120.885 250.885C123.363 253.363 127.401 253.363 129.879 250.885ZM129.214 243.332C129.151 243.269 129.079 243.198 129 243.118C129.087 243.206 129.159 243.277 129.214 243.332ZM86.587 200.705C86.3653 200.484 86.4128 200.531 86.587 200.705V200.705ZM80.0948 207.981C78.1947 206.081 78.1947 202.993 80.0948 201.101C81.995 199.201 85.0827 199.201 86.975 201.101C88.8751 203.001 88.8751 206.089 86.975 207.981C85.0748 209.881 81.9871 209.881 80.0948 207.981ZM121.946 242.952C123.846 241.052 126.934 241.052 128.826 242.952C130.726 244.852 130.726 247.94 128.826 249.832C126.926 251.732 123.838 251.732 121.946 249.832C120.046 247.932 120.046 244.844 121.946 242.952Z" fill="#9E96B3"/>
<path d="M120.885 250.885C121.075 251.075 121.209 251.209 121.32 251.32C121.194 251.194 121.043 251.043 120.885 250.885Z" fill="#9E96B3"/>
<path d="M120.449 250.45C120.03 250.03 120.148 250.149 120.449 250.45V250.45Z" fill="#9E96B3"/>
<path d="M259.644 266.3V238.684H212.774C212.267 235.684 209.654 233.388 206.511 233.388C203.004 233.388 200.153 236.238 200.153 239.745C200.153 243.253 203.004 246.103 206.511 246.103C209.654 246.103 212.267 243.807 212.774 240.806H257.506V265.405L219.836 303.076C217.358 301.318 213.882 301.54 211.665 303.765C209.187 306.243 209.187 310.281 211.665 312.759C214.143 315.237 218.181 315.237 220.659 312.759C222.884 310.534 223.106 307.066 221.348 304.588L259.644 266.292V266.3ZM206.511 244.622C203.827 244.622 201.642 242.437 201.642 239.753C201.642 237.069 203.827 234.884 206.511 234.884C209.195 234.884 211.38 237.069 211.38 239.753C211.38 242.437 209.195 244.622 206.511 244.622ZM219.218 312.102C218.997 312.323 219.044 312.276 219.218 312.102V312.102ZM219.939 311.381C220.034 311.286 220.113 311.207 220.137 311.183C220.113 311.207 220.05 311.27 219.939 311.381ZM219.606 311.714C217.706 313.614 214.618 313.614 212.726 311.714C210.826 309.814 210.826 306.726 212.726 304.834C214.626 302.934 217.714 302.934 219.606 304.834C221.506 306.734 221.506 309.822 219.606 311.714Z" fill="#9E96B3"/>
<path d="M211.895 303.543C212.061 303.377 212.187 303.25 212.267 303.171C212.18 303.258 212.045 303.393 211.895 303.543Z" fill="#9E96B3"/>
<path d="M211.158 304.279C210.865 304.572 210.937 304.501 211.158 304.279V304.279Z" fill="#9E96B3"/>
<path d="M211.436 304.002C211.507 303.931 211.57 303.868 211.665 303.773C211.76 303.678 211.823 303.614 211.895 303.543C211.744 303.693 211.586 303.852 211.436 304.002Z" fill="#9E96B3"/>
<path d="M211.158 304.279C211.229 304.208 211.324 304.113 211.435 304.002C211.332 304.105 211.237 304.2 211.158 304.279Z" fill="#9E96B3"/>
<path d="M489.825 235.707C486.318 235.707 483.467 238.557 483.467 242.065C483.467 245.208 485.763 247.821 488.764 248.327V292.348C485.763 292.854 483.467 295.467 483.467 298.61C483.467 302.118 486.318 304.968 489.825 304.968C493.332 304.968 496.183 302.118 496.183 298.61C496.183 295.467 493.887 292.854 490.886 292.348V248.327C493.887 247.821 496.183 245.208 496.183 242.065C496.183 238.557 493.332 235.707 489.825 235.707ZM494.694 298.618C494.694 301.302 492.509 303.487 489.825 303.487C487.141 303.487 484.956 301.302 484.956 298.618C484.956 295.934 487.141 293.749 489.825 293.749C492.509 293.749 494.694 295.934 494.694 298.618ZM489.825 246.942C487.141 246.942 484.956 244.757 484.956 242.073C484.956 239.389 487.141 237.203 489.825 237.203C492.509 237.203 494.694 239.389 494.694 242.073C494.694 244.757 492.509 246.942 489.825 246.942Z" fill="#9E96B3"/>
<path d="M434.799 92.0397C438.306 92.0397 441.157 89.1894 441.157 85.682V86.743H474.188L487.861 108.183V172.131H450.689L432.305 147.295C434.411 145.102 434.704 141.634 432.836 139.108C430.745 136.29 426.755 135.696 423.937 137.778C421.118 139.868 420.524 143.859 422.606 146.677C424.475 149.203 427.871 149.939 430.587 148.561L449.612 174.261H489.991V107.558L475.36 84.6053H441.157V85.6662C441.157 82.1588 438.299 79.3086 434.799 79.3086C431.3 79.3086 428.441 82.1588 428.441 85.6662C428.441 89.1736 431.292 92.0238 434.799 92.0238V92.0397ZM423.81 145.79C422.211 143.629 422.67 140.581 424.823 138.982C426.985 137.382 430.033 137.841 431.632 139.995C433.231 142.156 432.772 145.205 430.619 146.804C428.457 148.403 425.409 147.944 423.81 145.79ZM424.095 146.178C424.095 146.178 424.063 146.131 424.039 146.107C424.055 146.131 424.079 146.155 424.095 146.178ZM434.799 80.8129C437.483 80.8129 439.668 82.9981 439.668 85.682C439.668 88.366 437.483 90.5512 434.799 90.5512C432.115 90.5512 429.93 88.366 429.93 85.682C429.93 82.9981 432.115 80.8129 434.799 80.8129Z" fill="#9E96B3"/>
<path d="M432.836 139.116C432.551 138.728 432.392 138.514 432.305 138.403C432.408 138.546 432.622 138.831 432.836 139.116Z" fill="#9E96B3"/>
<path d="M433.39 139.868C433.429 139.923 433.436 139.931 433.39 139.868V139.868Z" fill="#9E96B3"/>
<path d="M432.305 138.403C432.21 138.277 432.226 138.293 432.305 138.403V138.403Z" fill="#9E96B3"/>
<path d="M432.835 139.116C433.073 139.441 433.303 139.75 433.398 139.868C433.334 139.781 433.168 139.56 432.835 139.116Z" fill="#9E96B3"/>
<path d="M502.872 134.604C499.365 134.604 496.515 137.454 496.515 140.961C496.515 144.104 498.811 146.717 501.811 147.224V179.74C498.811 180.247 496.515 182.86 496.515 186.003C496.515 189.51 499.365 192.36 502.872 192.36C506.38 192.36 509.23 189.51 509.23 186.003C509.23 182.86 506.934 180.247 503.933 179.74V147.224C506.934 146.717 509.23 144.104 509.23 140.961C509.23 137.454 506.38 134.604 502.872 134.604ZM507.741 186.011C507.741 188.695 505.556 190.88 502.872 190.88C500.188 190.88 498.003 188.695 498.003 186.011C498.003 183.327 500.188 181.142 502.872 181.142C505.556 181.142 507.741 183.327 507.741 186.011ZM502.872 145.838C500.188 145.838 498.003 143.653 498.003 140.969C498.003 138.285 500.188 136.1 502.872 136.1C505.556 136.1 507.741 138.285 507.741 140.969C507.741 143.653 505.556 145.838 502.872 145.838Z" fill="#9E96B3"/>
<path d="M295.573 210.894C299.08 210.894 301.93 208.044 301.93 204.537C301.93 201.029 299.08 198.179 295.573 198.179C292.43 198.179 289.817 200.475 289.31 203.476H192.64L147.178 154.879V129.948L175.918 105.887C178.238 107.858 181.706 107.945 184.12 105.926C182.775 107.051 183.447 106.488 184.12 105.926C184.793 105.364 185.466 104.802 184.12 105.926C186.812 103.678 187.161 99.6558 184.912 96.9639C182.664 94.272 178.642 93.9157 175.95 96.1722C173.543 98.1911 173.012 101.627 174.548 104.256L145.041 128.958V155.726L191.713 205.613H289.31C289.817 208.614 292.43 210.91 295.573 210.91V210.894ZM176.908 97.3044C175.879 98.1673 176.393 97.7319 176.908 97.3044C178.966 95.5784 182.038 95.8555 183.764 97.914C185.49 99.9725 185.213 103.044 183.155 104.77C181.096 106.496 178.024 106.219 176.298 104.169C174.58 102.11 174.849 99.0303 176.908 97.3123V97.3044ZM177.193 97.0668C177.51 96.8056 177.676 96.6631 177.193 97.0668V97.0668ZM295.565 199.668C298.249 199.668 300.434 201.853 300.434 204.537C300.434 207.221 298.249 209.406 295.565 209.406C292.881 209.406 290.696 207.221 290.696 204.537C290.696 201.853 292.881 199.668 295.565 199.668Z" fill="#9E96B3"/>
<path d="M212.774 139.891C212.267 136.891 209.654 134.595 206.511 134.595C203.004 134.595 200.153 137.445 200.153 140.952C200.153 144.46 203.004 147.31 206.511 147.31C209.654 147.31 212.267 145.014 212.774 142.013H289.39V173.588C286.389 174.094 284.093 176.707 284.093 179.85C284.093 183.358 286.943 186.208 290.45 186.208C293.958 186.208 296.808 183.358 296.808 179.85C296.808 176.707 294.512 174.094 291.511 173.588V139.884H212.766L212.774 139.891ZM206.511 145.822C203.827 145.822 201.642 143.636 201.642 140.952C201.642 138.268 203.827 136.083 206.511 136.083C209.195 136.083 211.38 138.268 211.38 140.952C211.38 143.636 209.195 145.822 206.511 145.822ZM295.32 179.858C295.32 182.542 293.134 184.727 290.45 184.727C287.766 184.727 285.581 182.542 285.581 179.858C285.581 177.174 287.767 174.989 290.443 174.989C293.127 174.989 295.304 177.174 295.304 179.858H295.32Z" fill="#9E96B3"/>
<path d="M259.644 184.862V167.539H207.659C207.152 164.538 204.539 162.242 201.396 162.242C197.889 162.242 195.039 165.092 195.039 168.6C195.039 172.107 197.889 174.957 201.396 174.957C204.539 174.957 207.152 172.661 207.659 169.661H257.514V184.854C254.514 185.361 252.218 187.974 252.218 191.117C252.218 194.624 255.068 197.474 258.575 197.474C262.083 197.474 264.933 194.624 264.933 191.117C264.933 187.974 262.637 185.361 259.636 184.854L259.644 184.862ZM201.388 173.469C198.704 173.469 196.519 171.284 196.519 168.6C196.519 165.916 198.704 163.731 201.388 163.731C204.072 163.731 206.25 165.908 206.257 168.592C206.257 171.284 204.072 173.461 201.388 173.461V173.469ZM258.575 195.994C255.891 195.994 253.706 193.809 253.706 191.125C253.706 188.441 255.891 186.255 258.575 186.255C261.259 186.255 263.436 188.441 263.436 191.125C263.436 193.809 261.251 195.994 258.567 195.994H258.575Z" fill="#9E96B3"/>
<path d="M54.4665 193.041C54.9732 196.041 57.5859 198.337 60.7291 198.337C64.2365 198.337 67.0867 195.487 67.0867 191.98C67.0867 188.472 64.2365 185.622 60.7291 185.622C57.5859 185.622 54.9732 187.918 54.4665 190.919H16.2179C15.7112 187.918 13.0985 185.622 9.95527 185.622C6.4479 185.622 3.59766 188.472 3.59766 191.98C3.59766 195.487 6.4479 198.337 9.95527 198.337C13.0985 198.337 15.7112 196.041 16.2179 193.041H54.4665ZM60.7291 187.103C63.4131 187.103 65.5983 189.288 65.5983 191.972C65.5983 194.656 63.4131 196.841 60.7291 196.841C58.0451 196.841 55.8679 194.656 55.8599 191.98C55.8599 189.288 58.0451 187.111 60.7291 187.111V187.103ZM9.95527 196.841C7.2713 196.841 5.08612 194.656 5.08612 191.972C5.08612 189.288 7.2713 187.103 9.95527 187.103C12.6392 187.103 14.8244 189.288 14.8244 191.972C14.8244 194.656 12.6392 196.841 9.95527 196.841Z" fill="#9E96B3"/>
<path d="M64.0542 151.72V153.85H102.208C102.715 156.851 105.327 159.147 108.47 159.147C111.978 159.147 114.828 156.297 114.828 152.789C114.828 149.282 111.978 146.432 108.47 146.432C105.327 146.432 102.715 148.728 102.208 151.728H64.0542V151.72ZM108.47 147.92C111.154 147.92 113.34 150.105 113.34 152.789C113.34 155.473 111.154 157.658 108.47 157.658C105.786 157.658 103.601 155.473 103.601 152.789C103.601 150.105 105.786 147.92 108.47 147.92Z" fill="#9E96B3"/>
<path d="M64.0541 152.789C64.0541 149.282 61.2039 146.432 57.6965 146.432C54.1891 146.432 51.3389 149.282 51.3389 152.789C51.3389 156.297 54.1891 159.147 57.6965 159.147C61.2039 159.147 64.0541 156.297 64.0541 152.789ZM57.6965 157.658C55.0125 157.658 52.8273 155.473 52.8273 152.789C52.8273 150.105 55.0125 147.92 57.6965 147.92C60.3805 147.92 62.5656 150.105 62.5656 152.789C62.5656 155.473 60.3805 157.658 57.6965 157.658Z" fill="#9E96B3"/>
<path d="M287.117 225.462C287.117 221.955 284.267 219.104 280.759 219.104C277.616 219.104 275.003 221.401 274.497 224.401H236.248C235.741 221.401 233.129 219.104 229.986 219.104C226.478 219.104 223.628 221.955 223.628 225.462C223.628 228.969 226.478 231.82 229.986 231.82C233.129 231.82 235.741 229.524 236.248 226.523H274.497C275.003 229.524 277.616 231.82 280.759 231.82C284.267 231.82 287.117 228.969 287.117 225.462ZM229.978 230.331C227.294 230.331 225.108 228.146 225.108 225.462C225.108 222.778 227.294 220.593 229.978 220.593C232.662 220.593 234.847 222.778 234.847 225.462C234.847 228.146 232.662 230.331 229.978 230.331ZM280.751 230.331C278.067 230.331 275.882 228.146 275.882 225.462C275.882 222.778 278.067 220.593 280.751 220.593C283.435 220.593 285.621 222.778 285.621 225.462C285.621 228.146 283.435 230.331 280.751 230.331Z" fill="#9E96B3"/>
<path d="M262.249 66.6481C259.771 64.8905 256.295 65.1121 254.078 67.3369C251.6 69.815 251.6 73.8529 254.078 76.331C256.556 78.8091 260.594 78.8091 263.072 76.331C265.297 74.1062 265.519 70.6384 263.761 68.1603L281.076 50.8451L280.324 50.093L279.572 49.3408L262.257 66.656L262.249 66.6481ZM262.012 75.2701C260.111 77.1702 257.024 77.1702 255.131 75.2701C253.231 73.3699 253.231 70.2822 255.131 68.3899C257.031 66.4898 260.119 66.4898 262.012 68.3899C263.912 70.2901 263.912 73.3778 262.012 75.2701Z" fill="#9E96B3"/>
<path d="M262.692 76.7109C262.161 77.2414 262.344 77.0593 262.692 76.7109V76.7109Z" fill="#9E96B3"/>
<path d="M263.682 75.7139C263.579 75.8168 263.381 76.0147 263.072 76.3235C262.914 76.4819 262.787 76.6085 262.692 76.7035C263.017 76.3789 263.476 75.9197 263.682 75.7139Z" fill="#9E96B3"/>
<path d="M289.928 49.4756C289.825 49.5785 289.627 49.7764 289.318 50.0852C287.592 51.8112 289.46 49.9427 289.928 49.4756Z" fill="#9E96B3"/>
<path d="M289.31 50.0851C291.788 47.607 291.788 43.5691 289.31 41.091C286.832 38.6129 282.794 38.6129 280.316 41.091C277.838 43.5691 277.838 47.607 280.316 50.0851C282.794 52.5632 286.832 52.5632 289.31 50.0851ZM281.369 42.144C281.187 42.3261 281.005 42.5082 280.902 42.6111C280.981 42.532 281.132 42.3815 281.369 42.144C282.319 41.1939 281.844 41.669 281.369 42.144C283.269 40.2439 286.357 40.2439 288.249 42.144C290.149 44.0442 290.149 47.1319 288.249 49.0242C286.349 50.9243 283.261 50.9243 281.369 49.0242C279.469 47.124 279.469 44.0363 281.369 42.144Z" fill="#9E96B3"/>
<path d="M94.2274 174.966C97.7347 174.966 100.585 172.115 100.585 168.608C100.585 165.101 97.7347 162.25 94.2274 162.25C91.0842 162.25 88.4715 164.546 87.9648 167.547H36.415V136.242L57.5701 110.653C60.2066 112.173 63.6348 111.619 65.6379 109.196C65.5746 109.275 65.5112 109.355 65.4479 109.434C65.5112 109.355 65.5666 109.291 65.6379 109.196C65.6933 109.133 65.725 109.093 65.7725 109.038C65.7329 109.093 65.6854 109.141 65.6379 109.196C67.8706 106.496 67.4905 102.474 64.7907 100.242C62.0909 98.0091 58.0689 98.3891 55.8362 101.089C53.8331 103.512 53.9361 106.987 55.9233 109.291L34.2773 135.474V169.685H87.9648C88.4715 172.685 91.0842 174.981 94.2274 174.981V174.966ZM56.9842 102.031C56.913 102.11 56.8497 102.189 56.7863 102.269C56.8417 102.197 56.9051 102.126 56.9842 102.031C57.8393 100.994 57.4118 101.516 56.9842 102.031C58.6944 99.9647 61.7663 99.6717 63.8407 101.382C65.9071 103.092 66.2 106.164 64.4899 108.238C62.7797 110.305 59.7078 110.598 57.6414 108.887C55.575 107.177 55.282 104.105 56.9922 102.031H56.9842ZM56.5409 102.562C56.5409 102.562 56.5884 102.506 56.62 102.467C56.5884 102.506 56.5646 102.538 56.5409 102.562ZM94.2274 163.731C96.9113 163.731 99.0965 165.916 99.0965 168.6C99.0965 171.284 96.9113 173.469 94.2274 173.469C91.5434 173.469 89.3661 171.292 89.3582 168.608C89.3582 165.916 91.5434 163.739 94.2274 163.739V163.731Z" fill="#9E96B3"/>
<path d="M65.4391 109.418C65.4391 109.418 65.4237 109.441 65.416 109.449C65.4237 109.441 65.4314 109.433 65.4391 109.418Z" fill="#9E96B3"/>
<path d="M65.4164 109.449C64.7355 110.273 64.9968 109.956 65.4164 109.449V109.449Z" fill="#9E96B3"/>
<path d="M65.9941 108.745C66.295 108.381 66.4375 108.207 65.9941 108.745V108.745Z" fill="#9E96B3"/>
<path d="M65.7642 109.022C65.8433 108.927 65.9225 108.832 65.9938 108.745C65.9304 108.816 65.8513 108.919 65.7642 109.022Z" fill="#9E96B3"/>
<path d="M438.314 103.789L397.651 102.008V143.479L380.407 154.191C378.388 151.91 374.96 151.34 372.292 153.003C369.315 154.856 368.396 158.783 370.249 161.76C372.102 164.737 376.029 165.655 379.006 163.802C381.674 162.148 382.679 158.814 381.531 156.004L399.781 144.666V104.24L438.219 105.927C438.599 108.943 441.101 111.35 444.244 111.493C447.752 111.643 450.721 108.919 450.879 105.42C451.03 101.913 448.306 98.9436 444.806 98.7852C441.663 98.6506 438.956 100.828 438.314 103.797V103.789ZM377.683 162.868C377.509 162.979 377.541 162.955 377.683 162.868V162.868ZM378.214 162.536C375.934 163.953 372.925 163.248 371.508 160.968C370.091 158.688 370.795 155.679 373.075 154.262C375.356 152.845 378.364 153.549 379.781 155.83C381.199 158.11 380.494 161.118 378.214 162.536ZM443.611 109.964C443.516 109.964 443.524 109.964 443.611 109.964V109.964ZM444.727 100.266C447.411 100.385 449.494 102.657 449.375 105.341C449.256 108.025 446.984 110.107 444.3 109.988C444.585 110.004 444.87 110.012 444.997 110.02C444.901 110.02 444.696 110.004 444.3 109.988C444.276 109.988 444.268 109.988 444.252 109.988C444.268 109.988 444.284 109.988 444.3 109.988C441.616 109.869 439.534 107.597 439.652 104.913C439.771 102.229 442.043 100.147 444.727 100.266Z" fill="#9E96B3"/>
<path d="M444.814 98.7773C445.06 98.7853 445.305 98.8011 445.487 98.809C445.329 98.809 445.115 98.7932 444.814 98.7773Z" fill="#9E96B3"/>
<path d="M443.841 98.7373C443.896 98.7373 443.983 98.7373 444.102 98.7452C443.975 98.7452 443.888 98.7373 443.841 98.7373Z" fill="#9E96B3"/>
<path d="M445.495 98.8086C445.63 98.8086 445.717 98.8165 445.764 98.8165C445.709 98.8165 445.614 98.8165 445.495 98.8086Z" fill="#9E96B3"/>
<path d="M444.815 98.7768C444.553 98.7689 444.292 98.753 444.102 98.7451C444.26 98.7451 444.49 98.761 444.799 98.7768C444.799 98.7768 444.807 98.7768 444.815 98.7768Z" fill="#9E96B3"/>
<path d="M372.775 152.694C372.878 152.631 372.965 152.576 373.02 152.536C372.957 152.576 372.87 152.631 372.775 152.694Z" fill="#9E96B3"/>
<path d="M372.054 153.146C372.054 153.146 372.014 153.169 371.999 153.185C372.014 153.169 372.038 153.161 372.054 153.146Z" fill="#9E96B3"/>
<path d="M371.999 153.185C371.096 153.747 371.445 153.525 371.999 153.185V153.185Z" fill="#9E96B3"/>
<path d="M372.482 152.884C372.585 152.821 372.688 152.758 372.775 152.702C372.696 152.75 372.585 152.821 372.482 152.884Z" fill="#9E96B3"/>
<path d="M373.028 152.543C373.17 152.456 373.21 152.433 373.028 152.543V152.543Z" fill="#9E96B3"/>
<path d="M372.054 153.145C372.133 153.098 372.197 153.058 372.292 152.995C372.371 152.947 372.418 152.916 372.482 152.876C372.339 152.963 372.197 153.058 372.054 153.137V153.145Z" fill="#9E96B3"/>
<path d="M346.909 173.2C346.909 176.708 349.759 179.558 353.266 179.558C356.409 179.558 359.022 177.262 359.529 174.261H406.004C406.51 177.262 409.123 179.558 412.266 179.558C415.774 179.558 418.624 176.708 418.624 173.2C418.624 169.693 415.774 166.843 412.266 166.843C409.123 166.843 406.51 169.139 406.004 172.139H359.529C359.022 169.139 356.409 166.843 353.266 166.843C349.759 166.843 346.909 169.693 346.909 173.2ZM412.274 168.331C414.958 168.331 417.143 170.516 417.143 173.2C417.143 175.884 414.958 178.07 412.274 178.07C409.59 178.07 407.405 175.884 407.405 173.208C407.405 170.516 409.59 168.339 412.274 168.339V168.331ZM353.266 168.331C355.95 168.331 358.135 170.516 358.135 173.2C358.135 175.884 355.95 178.07 353.266 178.07C350.582 178.07 348.397 175.884 348.397 173.2C348.397 170.516 350.582 168.331 353.266 168.331Z" fill="#9E96B3"/>
<path d="M300.687 26.5947C297.18 26.5947 294.33 29.445 294.33 32.9523C294.33 36.4597 297.18 39.31 300.687 39.31C303.83 39.31 306.443 37.0139 306.95 34.0133H340.068L387.2 74.1937L387.501 74.4471H411.134C411.641 77.4477 414.253 79.7438 417.397 79.7438C420.904 79.7438 423.754 76.8935 423.754 73.3861C423.754 69.8788 420.904 67.0285 417.397 67.0285C414.253 67.0285 411.641 69.3246 411.134 72.3252H388.285L341.153 32.1448L340.852 31.8914H306.95C306.443 28.8908 303.83 26.5947 300.687 26.5947ZM417.389 68.5249C420.073 68.5249 422.258 70.7101 422.258 73.3941C422.258 76.078 420.073 78.2632 417.389 78.2632C414.705 78.2632 412.52 76.078 412.52 73.3941C412.52 70.7101 414.705 68.5249 417.389 68.5249ZM300.687 37.8215C298.003 37.8215 295.818 35.6363 295.818 32.9523C295.818 30.2684 298.003 28.0832 300.687 28.0832C303.371 28.0832 305.556 30.2684 305.556 32.9523C305.556 35.6363 303.371 37.8215 300.687 37.8215Z" fill="#9E96B3"/>
<path d="M439.28 128.261C439.24 128.214 439.209 128.174 439.177 128.143C439.201 128.174 439.24 128.214 439.28 128.261Z" fill="#9E96B3"/>
<path d="M439.177 128.142C439.075 128.024 439.09 128.048 439.177 128.142V128.142Z" fill="#9E96B3"/>
<path d="M439.573 128.586C439.447 128.444 439.352 128.341 439.28 128.262C439.359 128.357 439.462 128.468 439.573 128.586Z" fill="#9E96B3"/>
<path d="M440.405 129.521C440.444 129.567 440.444 129.567 440.405 129.521V129.521Z" fill="#9E96B3"/>
<path d="M473.832 157.539C476.452 155.211 476.69 151.182 474.354 148.561C472.264 146.209 468.82 145.782 466.239 147.397L449.549 128.625L448.758 129.33C451.378 127.002 451.608 122.972 449.28 120.351C446.952 117.731 442.923 117.493 440.302 119.829C437.681 122.157 437.444 126.187 439.771 128.807C439.708 128.728 439.637 128.657 439.574 128.586C439.637 128.657 439.692 128.72 439.771 128.807C440.159 129.243 440.334 129.441 440.405 129.52C440.31 129.417 440.049 129.116 439.771 128.807C442.099 131.428 446.129 131.665 448.75 129.338L447.958 130.042L464.648 148.814C462.748 151.189 462.763 154.665 464.854 157.017C467.181 159.637 471.211 159.875 473.832 157.539ZM440.888 127.818C439.106 125.814 439.281 122.727 441.292 120.945C443.295 119.164 446.382 119.338 448.164 121.349C447.269 120.344 447.72 120.85 448.164 121.349C448.409 121.626 448.552 121.785 448.615 121.864C448.528 121.761 448.346 121.563 448.164 121.349C449.945 123.352 449.763 126.44 447.76 128.221C445.757 130.003 442.669 129.829 440.888 127.818ZM466.374 149.147C468.377 147.365 471.465 147.54 473.246 149.551C473.317 149.63 473.365 149.685 473.42 149.741C473.365 149.677 473.309 149.614 473.246 149.551C475.027 151.554 474.853 154.641 472.842 156.423C470.839 158.204 467.751 158.03 465.97 156.019C464.189 154.016 464.371 150.936 466.374 149.147ZM473.626 149.978C473.768 150.136 473.808 150.184 473.626 149.978V149.978Z" fill="#9E96B3"/>
<path d="M465.487 157.729C465.512 157.755 465.512 157.755 465.487 157.729V157.729Z" fill="#9E96B3"/>
<path d="M465.329 157.548C465.408 157.635 465.463 157.698 465.495 157.73C465.463 157.69 465.408 157.627 465.329 157.548Z" fill="#9E96B3"/>
<path d="M465.328 157.548C465.218 157.429 465.075 157.271 464.853 157.017C464.442 156.55 464.252 156.344 464.204 156.289C464.331 156.432 464.988 157.176 465.328 157.556V157.548Z" fill="#9E96B3"/>
<path d="M351.168 131.832H369.386C369.893 134.833 372.505 137.129 375.649 137.129C379.156 137.129 382.006 134.279 382.006 130.771C382.006 127.264 379.156 124.414 375.649 124.414C372.505 124.414 369.893 126.71 369.386 129.71H351.928L318.2 102.079L248.053 99.9648L233.667 114.295C231.189 112.53 227.721 112.751 225.496 114.968C223.01 117.446 223.002 121.476 225.481 123.962C227.959 126.448 231.989 126.456 234.475 123.978C236.699 121.761 236.929 118.293 235.179 115.807L248.916 102.126L317.425 104.185L351.184 131.84L351.168 131.832ZM375.649 125.894C378.333 125.894 380.518 128.079 380.518 130.763C380.518 133.447 378.333 135.632 375.649 135.632C372.965 135.632 370.787 133.455 370.779 130.771C370.779 128.079 372.965 125.902 375.649 125.902V125.894ZM233.414 122.909C231.514 124.802 228.426 124.802 226.534 122.893C224.641 120.993 224.649 117.906 226.549 116.013C226.344 116.219 226.146 116.417 226.059 116.504C226.13 116.433 226.272 116.29 226.549 116.013C226.755 115.807 226.89 115.673 226.977 115.586C226.874 115.689 226.716 115.847 226.549 116.013C228.45 114.121 231.537 114.129 233.43 116.029C235.322 117.929 235.314 121.017 233.414 122.917V122.909Z" fill="#9E96B3"/>
<path d="M233.841 124.604C233.731 124.706 233.747 124.69 233.841 124.604V124.604Z" fill="#9E96B3"/>
<path d="M234.158 124.287C234.071 124.366 234 124.445 233.937 124.509C233.992 124.453 234.063 124.382 234.158 124.287Z" fill="#9E96B3"/>
<path d="M233.936 124.501C233.936 124.501 233.865 124.572 233.841 124.596C233.865 124.572 233.904 124.54 233.936 124.501Z" fill="#9E96B3"/>
<path d="M234.475 123.97C234.348 124.097 234.253 124.192 234.158 124.287C234.823 123.63 235.932 122.513 234.475 123.97Z" fill="#9E96B3"/>
<path d="M359.703 71.4622C359.64 71.415 359.64 71.4229 359.703 71.4622V71.4622Z" fill="#9E96B3"/>
<path d="M359.703 71.4619C359.79 71.5253 360.012 71.6836 360.471 72.0003C362.561 73.465 360.091 71.739 359.703 71.4619Z" fill="#9E96B3"/>
<path d="M319.76 51.3285C317.749 54.2025 318.462 58.177 321.336 60.188C323.901 61.9773 327.337 61.6052 329.475 59.4675L350.773 75.3022C349.957 77.8832 350.86 80.8047 353.195 82.4357C356.069 84.4467 360.044 83.7341 362.055 80.8601C364.066 77.9862 363.353 74.0117 360.479 72.0007C357.669 70.0372 353.821 70.6705 351.77 73.3862L330.71 57.7257C332.032 54.9705 331.209 51.566 328.628 49.7609C328.976 50.0063 329.317 50.2438 329.42 50.3151C329.348 50.2676 329.119 50.1092 328.628 49.7609C328.153 49.4283 327.931 49.2779 327.852 49.2146C327.971 49.2938 328.295 49.5234 328.628 49.7609C325.754 47.7499 321.779 48.4624 319.768 51.3364L319.76 51.3285ZM354.612 81.6044C354.684 81.6519 354.692 81.6598 354.612 81.6044V81.6044ZM353.488 80.8206C353.544 80.8601 353.615 80.9077 353.702 80.971C353.599 80.8997 353.536 80.8522 353.488 80.8206ZM359.616 73.2278C361.817 74.7638 362.356 77.8041 360.82 80.0051C359.284 82.2061 356.243 82.7445 354.042 81.2085C352.071 79.8309 351.446 77.2578 352.435 75.1597L353.045 74.3363L352.966 74.2809C354.533 72.2144 357.471 71.7315 359.616 73.2278ZM328.968 57.7574C327.432 59.9584 324.392 60.4968 322.191 58.9608C322.254 59.0083 322.326 59.0558 322.389 59.0954C322.326 59.0479 322.27 59.0162 322.191 58.9608C321.09 58.1928 321.637 58.5729 322.191 58.9608C319.99 57.4248 319.452 54.3846 320.988 52.1836C322.524 49.9826 325.564 49.4442 327.765 50.9801C329.966 52.5161 330.504 55.5564 328.968 57.7574ZM322.785 59.3725C322.737 59.3408 322.611 59.2538 322.405 59.1033C322.579 59.2221 322.721 59.325 322.785 59.3725Z" fill="#9E96B3"/>
<path d="M327.835 49.206C327.781 49.167 327.789 49.167 327.835 49.206V49.206Z" fill="#9E96B3"/>
<path d="M307.472 75.1359C307.116 74.8825 307.203 74.9458 307.472 75.1359V75.1359Z" fill="#9E96B3"/>
<path d="M315.335 65.1124C312.461 63.1014 308.486 63.814 306.475 66.688C304.464 69.562 305.177 73.5365 308.051 75.5475C307.837 75.397 307.631 75.2545 307.473 75.1437C307.607 75.2387 307.782 75.3575 308.051 75.5475C308.771 76.0463 309.484 76.553 308.051 75.5475C310.608 77.3289 314.028 76.9647 316.166 74.8428L350.876 101.881L351.161 102.102H374.612C375.118 105.103 377.731 107.399 380.874 107.399C384.382 107.399 387.232 104.549 387.232 101.041C387.232 97.5339 384.382 94.6837 380.874 94.6837C377.731 94.6837 375.118 96.9797 374.612 99.9804H351.889L317.393 73.1169C318.739 70.3537 317.916 66.9413 315.319 65.1204L315.335 65.1124ZM380.89 96.1721C383.574 96.1721 385.759 98.3573 385.759 101.041C385.759 103.725 383.574 105.91 380.89 105.91C378.206 105.91 376.021 103.725 376.021 101.041C376.021 98.3573 378.206 96.1721 380.89 96.1721ZM315.073 66.7513C315.113 66.783 315.121 66.783 315.073 66.7513V66.7513ZM308.906 74.3203C306.705 72.7843 306.166 69.7441 307.702 67.5431C309.238 65.342 312.279 64.8037 314.48 66.3396C316.681 67.8756 317.219 70.9158 315.683 73.1169C314.147 75.3179 311.107 75.8563 308.906 74.3203Z" fill="#9E96B3"/>
<path d="M448.108 210.356C444.965 210.356 442.352 212.652 441.846 215.653H352.206V240.229L370.265 256.34C368.65 258.921 369.069 262.365 371.413 264.463C374.034 266.799 378.056 266.569 380.391 263.949C382.727 261.328 382.497 257.306 379.877 254.971C377.533 252.88 374.057 252.849 371.674 254.749L354.327 239.271V217.783H441.83C442.336 220.784 444.949 223.08 448.092 223.08C451.6 223.08 454.45 220.229 454.45 216.722C454.45 213.215 451.6 210.364 448.092 210.364L448.108 210.356ZM378.895 256.079C380.898 257.868 381.072 260.948 379.283 262.951C377.494 264.954 374.414 265.129 372.411 263.347C370.408 261.558 370.233 258.478 372.015 256.475C373.804 254.472 376.884 254.298 378.887 256.087L378.895 256.079ZM448.108 221.583C445.424 221.583 443.239 219.398 443.239 216.714C443.239 214.03 445.424 211.845 448.108 211.845C450.792 211.845 452.977 214.03 452.977 216.714C452.977 219.398 450.792 221.583 448.108 221.583Z" fill="#9E96B3"/>
<path d="M371.413 264.455C371.508 264.542 371.603 264.621 371.69 264.701C371.603 264.621 371.524 264.55 371.413 264.455Z" fill="#9E96B3"/>
<path d="M371.69 264.709C371.809 264.812 371.904 264.899 371.967 264.962C371.888 264.891 371.793 264.812 371.69 264.709Z" fill="#9E96B3"/>
<path d="M371.413 264.455C371.31 264.36 371.239 264.297 371.16 264.226C371.239 264.297 371.326 264.376 371.413 264.455Z" fill="#9E96B3"/>
<path d="M371.975 264.954C372.022 264.994 372.054 265.025 372.086 265.049C372.062 265.025 372.015 264.986 371.975 264.954Z" fill="#9E96B3"/>
<path d="M372.086 265.057C372.18 265.143 372.196 265.151 372.086 265.057V265.057Z" fill="#9E96B3"/>
<path d="M371.16 264.233C370.368 263.529 370.677 263.798 371.16 264.233V264.233Z" fill="#9E96B3"/>
<path d="M88.2891 107.541C88.3128 107.62 88.3286 107.676 88.3366 107.707C88.3286 107.668 88.3128 107.612 88.2891 107.541Z" fill="#9E96B3"/>
<path d="M88.0434 106.623C87.9563 106.299 87.893 106.077 87.8613 105.95C87.9009 106.101 87.9722 106.354 88.0434 106.623Z" fill="#9E96B3"/>
<path d="M88.2656 107.454C88.2656 107.454 88.2813 107.509 88.2892 107.533C88.2892 107.509 88.2735 107.486 88.2656 107.454Z" fill="#9E96B3"/>
<path d="M88.3286 107.708C88.3286 107.708 88.3364 107.739 88.3364 107.747C88.3364 107.739 88.3364 107.724 88.3286 107.708Z" fill="#9E96B3"/>
<path d="M88.2023 107.217C88.1706 107.098 88.131 106.955 88.0835 106.781C88.0677 106.726 88.0598 106.678 88.0439 106.631C88.0994 106.829 88.1548 107.035 88.2023 107.217Z" fill="#9E96B3"/>
<path d="M88.0833 106.782C88.9938 110.17 92.4933 112.181 95.8819 111.271C99.2705 110.36 101.282 106.861 100.371 103.472C99.5555 100.44 96.6578 98.516 93.6334 98.801L84.283 64.0518L119.943 28.3922H157.257C157.764 31.3928 160.376 33.6889 163.52 33.6889C167.027 33.6889 169.877 30.8386 169.877 27.3312C169.877 23.8239 167.027 20.9736 163.52 20.9736C160.376 20.9736 157.764 23.2697 157.257 26.2703H119.056L81.8999 63.4264L91.5749 99.371C88.8117 100.646 87.2758 103.757 88.0912 106.797L88.0833 106.782ZM163.512 22.4621C166.196 22.4621 168.381 24.6473 168.381 27.3312C168.381 30.0152 166.196 32.2004 163.512 32.2004C160.828 32.2004 158.643 30.0152 158.643 27.3312C158.643 24.6473 160.828 22.4621 163.512 22.4621ZM98.9222 103.868C98.5738 102.57 98.748 103.219 98.9222 103.868C99.6189 106.457 98.0829 109.133 95.486 109.83C92.8971 110.527 90.221 108.991 89.5243 106.394C88.8276 103.805 90.3635 101.129 92.9604 100.432C95.5494 99.7352 98.2254 101.271 98.9222 103.868Z" fill="#9E96B3"/>
<path d="M174.422 78.4695L129.792 111.326C127.607 109.212 124.139 108.912 121.606 110.78C118.779 112.862 118.177 116.853 120.252 119.671C122.334 122.498 126.316 123.099 129.143 121.025C128.802 121.278 128.47 121.524 128.367 121.595C128.438 121.54 128.66 121.381 129.143 121.025C129.214 120.978 129.254 120.946 129.309 120.898C129.254 120.938 129.198 120.978 129.143 121.025C131.676 119.165 132.413 115.768 131.051 113.044L175.119 80.6071H230.421L261.109 49.9829L259.605 48.4707L229.542 78.4695H174.422ZM128.264 119.814C126.103 121.405 123.046 120.938 121.455 118.777C119.864 116.615 120.331 113.559 122.492 111.968C122.223 112.166 121.954 112.364 121.891 112.411C121.938 112.379 122.112 112.253 122.5 111.968C122.761 111.778 122.928 111.651 123.023 111.588C122.904 111.675 122.706 111.825 122.5 111.968C124.662 110.376 127.71 110.843 129.301 112.997C130.893 115.166 130.425 118.214 128.264 119.806V119.814ZM123.023 111.588C123.134 111.501 123.165 111.485 123.023 111.588V111.588Z" fill="#9E96B3"/>
<path d="M129.633 120.669C129.99 120.408 130.14 120.297 129.633 120.669V120.669Z" fill="#9E96B3"/>
<path d="M129.325 120.899C129.436 120.819 129.546 120.74 129.633 120.669C129.554 120.732 129.443 120.811 129.325 120.899Z" fill="#9E96B3"/>
<path d="M268.709 49.8799C268.622 49.9663 268.63 49.9584 268.709 49.8799V49.8799Z" fill="#9E96B3"/>
<path d="M269.366 40.2366C266.888 37.7506 262.85 37.7506 260.372 40.2287C257.886 42.7068 257.886 46.7447 260.364 49.2228C262.843 51.7088 266.88 51.7088 269.359 49.2307C269.089 49.4999 268.836 49.7532 268.717 49.872C268.812 49.777 269.002 49.587 269.359 49.2307C271.845 46.7526 271.845 42.7147 269.366 40.2366ZM261.813 40.8938C261.988 40.7196 262.035 40.6721 261.813 40.8938V40.8938ZM261.417 48.1698C259.517 46.2696 259.525 43.1819 261.417 41.2896C263.318 39.3895 266.405 39.3974 268.298 41.2896C270.198 43.1898 270.19 46.2775 268.298 48.1698C266.397 50.0699 263.31 50.062 261.417 48.1698Z" fill="#9E96B3"/>
<path d="M270.016 48.5732C270.062 48.5264 270.07 48.5186 270.016 48.5732V48.5732Z" fill="#9E96B3"/>
<path d="M269.81 48.7793C269.699 48.8901 269.556 49.0327 269.351 49.2306C269.517 49.0643 269.675 48.906 269.81 48.7793Z" fill="#9E96B3"/>
<path d="M270.016 48.5732C269.968 48.6207 269.905 48.6841 269.81 48.7791C269.913 48.6762 269.984 48.6128 270.016 48.5732Z" fill="#9E96B3"/>
<path d="M220.39 52.1124H163.131L134.898 75.5002C132.594 73.5129 129.119 73.4179 126.696 75.421C126.728 75.3973 126.759 75.3656 126.791 75.3418C126.751 75.3735 126.736 75.3893 126.696 75.421C126.49 75.5873 126.348 75.706 126.229 75.809C126.363 75.6981 126.53 75.5635 126.696 75.421C123.996 77.6616 123.616 81.6757 125.857 84.3755C128.097 87.0753 132.111 87.4554 134.811 85.2148C137.234 83.2117 137.78 79.7755 136.26 77.1391L163.899 54.2422H221.3L236.652 38.2808L235.884 37.5445C238.409 39.9751 242.447 39.8959 244.878 37.3703C247.309 34.8447 247.229 30.8069 244.704 28.3762C242.178 25.9456 238.14 26.0248 235.71 28.5504C235.939 28.3129 236.169 28.0754 236.296 27.9408C236.193 28.0516 236.003 28.2416 235.71 28.5504C234.498 29.8172 235.1 29.1838 235.71 28.5504C233.279 31.076 233.358 35.1139 235.884 37.5445L235.116 36.8082L220.39 52.1124ZM133.434 84.423C133.196 84.621 133.251 84.5735 133.434 84.423V84.423ZM133.861 84.0667C131.795 85.7769 128.723 85.4919 127.005 83.4254C125.295 81.359 125.58 78.2871 127.646 76.569C129.712 74.8589 132.784 75.1439 134.502 77.2103C136.213 79.2768 135.928 82.3487 133.861 84.0667ZM244.118 36.0085C244.189 35.9294 244.245 35.8739 244.284 35.8344C244.252 35.8739 244.197 35.9214 244.118 36.0085ZM236.786 29.5876C238.647 27.6558 241.735 27.5924 243.667 29.453C245.598 31.3136 245.662 34.4013 243.801 36.3332C241.941 38.265 238.853 38.3283 236.921 36.4677C234.989 34.6072 234.926 31.5194 236.786 29.5876Z" fill="#9E96B3"/>
<path d="M236.296 27.94C236.43 27.806 236.462 27.7665 236.296 27.94V27.94Z" fill="#9E96B3"/>
<path d="M126.791 75.3343C127.06 75.1126 127.258 74.9464 127.353 74.8672C127.226 74.9701 127.013 75.1443 126.791 75.3343Z" fill="#9E96B3"/>
<path d="M126.228 75.8008C126.228 75.8008 126.213 75.8161 126.205 75.8237C126.213 75.8161 126.22 75.8084 126.228 75.8008Z" fill="#9E96B3"/>
<path d="M126.197 75.8242C126.055 75.943 125.96 76.0222 125.928 76.0459C125.968 76.0142 126.071 75.9271 126.197 75.8242Z" fill="#9E96B3"/>
<path d="M108.272 75.4844C108.122 75.6342 108.146 75.6027 108.272 75.4844V75.4844Z" fill="#9E96B3"/>
<path d="M109.516 74.2806C109.642 74.1623 109.673 74.1307 109.516 74.2806V74.2806Z" fill="#9E96B3"/>
<path d="M100.023 65.7696C97.5128 68.216 97.4573 72.2538 99.9038 74.7636C102.35 77.2734 106.388 77.3289 108.898 74.8824C108.676 75.0962 108.462 75.302 108.328 75.4445C108.439 75.3337 108.621 75.1595 108.906 74.8824C109.222 74.5736 109.42 74.3836 109.523 74.2807C109.389 74.4074 109.151 74.6449 108.906 74.8824C111.154 72.6893 111.431 69.2215 109.698 66.7196L127.013 49.8636C129.467 51.6609 132.943 51.4788 135.191 49.2857C137.701 46.8392 137.757 42.8014 135.31 40.2916C132.864 37.7818 128.826 37.7264 126.316 40.1728C124.067 42.3659 123.79 45.8337 125.516 48.3356L108.201 65.1916C105.747 63.3944 102.271 63.5765 100.023 65.7696ZM107.853 73.8136C105.929 75.6821 102.841 75.6425 100.973 73.7186C99.1041 71.7946 99.1437 68.7069 101.068 66.8384C100.11 67.7726 100.585 67.3055 101.068 66.8384C101.155 66.7592 101.21 66.6959 101.273 66.6405C101.21 66.7038 101.139 66.7751 101.068 66.8384C102.992 64.9699 106.079 65.0095 107.948 66.9334C109.816 68.8573 109.777 71.9451 107.853 73.8215V73.8136ZM127.361 41.2496C129.285 39.3811 132.373 39.4207 134.241 41.3446C136.11 43.2685 136.07 46.3563 134.146 48.2248C132.222 50.0932 129.135 50.0537 127.266 48.1297C125.398 46.2058 125.437 43.1181 127.361 41.2417V41.2496Z" fill="#9E96B3"/>
<path d="M108.32 75.4443C108.32 75.4443 108.288 75.4758 108.272 75.4836C108.288 75.4679 108.304 75.4522 108.32 75.4443Z" fill="#9E96B3"/>
<path d="M135.777 48.7158C135.666 48.8267 135.484 49.0008 135.183 49.2938C133.473 50.9564 135.255 49.2225 135.777 48.7158Z" fill="#9E96B3"/>
<path d="M135.777 48.7153C135.927 48.5655 135.967 48.5339 135.777 48.7153V48.7153Z" fill="#9E96B3"/>
<path d="M211.76 100.154C209.298 102.11 208.688 105.53 210.153 108.198L174.913 136.234C172.648 134.207 169.173 134.033 166.718 135.988C167.407 135.442 168.088 134.896 166.718 135.988C166.457 136.194 166.291 136.329 166.164 136.424C166.315 136.305 166.513 136.147 166.718 135.988C163.971 138.173 163.52 142.18 165.697 144.927C167.882 147.674 171.888 148.126 174.636 145.948C177.098 143.993 177.708 140.572 176.243 137.904L211.483 109.877C213.747 111.904 217.223 112.078 219.677 110.122C222.425 107.937 222.876 103.931 220.699 101.184C218.514 98.4364 214.507 97.9851 211.76 100.162V100.154ZM173.416 144.998C172.91 145.402 173.092 145.259 173.416 144.998V144.998ZM173.986 144.547C174.097 144.46 174.192 144.389 174.248 144.341C174.2 144.381 174.121 144.444 173.986 144.547ZM173.701 144.777C171.603 146.447 168.531 146.099 166.861 144.001C165.19 141.903 165.539 138.831 167.637 137.16C169.735 135.489 172.799 135.838 174.469 137.936C176.14 140.042 175.784 143.106 173.686 144.777H173.701ZM218.743 108.943C218.846 108.863 218.941 108.784 219.028 108.713C218.949 108.776 218.862 108.848 218.743 108.943C218.624 109.038 218.537 109.109 218.458 109.172C218.545 109.101 218.64 109.022 218.743 108.943C216.645 110.613 213.573 110.265 211.903 108.167C210.232 106.069 210.58 102.997 212.678 101.326C214.777 99.6556 217.848 100.004 219.519 102.102C221.19 104.2 220.841 107.272 218.743 108.943ZM219.297 108.499C219.353 108.452 219.353 108.46 219.297 108.499V108.499ZM218.213 109.362C218.118 109.441 218.134 109.426 218.213 109.362V109.362Z" fill="#9E96B3"/>
<path d="M211.76 100.154C209.013 102.339 214.507 97.9691 211.76 100.154V100.154Z" fill="#9E96B3"/>
<path d="M166.164 136.424C165.824 136.693 165.903 136.63 166.164 136.424V136.424Z" fill="#9E96B3"/>
<path d="M418.64 258.676C418.64 255.169 415.79 252.318 412.282 252.318C408.775 252.318 405.925 255.169 405.925 258.676C405.925 261.819 408.221 264.432 411.221 264.939V309.743C408.221 310.249 405.925 312.862 405.925 316.005C405.925 319.513 408.775 322.363 412.282 322.363C415.79 322.363 418.64 319.513 418.64 316.005C418.64 312.862 416.344 310.249 413.343 309.743V264.939C416.344 264.432 418.64 261.819 418.64 258.676ZM407.413 258.676C407.413 255.992 409.598 253.807 412.282 253.807C414.966 253.807 417.152 255.992 417.152 258.676C417.152 260.996 415.521 262.928 413.351 263.418V263.363H411.221V263.418C409.052 262.928 407.421 260.996 407.421 258.676H407.413ZM417.152 316.005C417.152 318.689 414.966 320.875 412.282 320.875C409.598 320.875 407.413 318.689 407.413 316.005C407.413 313.321 409.598 311.136 412.282 311.136C414.966 311.136 417.152 313.321 417.152 316.005Z" fill="#9E96B3"/>
<path d="M436.549 258.676C436.549 255.169 433.699 252.318 430.192 252.318C426.684 252.318 423.834 255.169 423.834 258.676C423.834 261.819 426.13 264.432 429.131 264.939V309.743C426.13 310.249 423.834 312.862 423.834 316.005C423.834 319.513 426.684 322.363 430.192 322.363C433.699 322.363 436.549 319.513 436.549 316.005C436.549 312.862 434.253 310.249 431.253 309.743V264.939C434.253 264.432 436.549 261.819 436.549 258.676ZM425.322 258.676C425.322 255.992 427.508 253.807 430.192 253.807C432.876 253.807 435.061 255.992 435.061 258.676C435.061 260.996 433.43 262.928 431.26 263.418V263.363H429.131V263.418C426.961 262.928 425.33 260.996 425.33 258.676H425.322ZM435.061 316.005C435.061 318.689 432.876 320.875 430.192 320.875C427.508 320.875 425.322 318.689 425.322 316.005C425.322 313.321 427.508 311.136 430.192 311.136C432.876 311.136 435.061 313.321 435.061 316.005Z" fill="#9E96B3"/>
<path d="M454.466 258.676C454.466 255.169 451.615 252.318 448.108 252.318C444.601 252.318 441.75 255.169 441.75 258.676C441.75 261.819 444.046 264.432 447.047 264.939V309.743C444.046 310.249 441.75 312.862 441.75 316.005C441.75 319.513 444.601 322.363 448.108 322.363C451.615 322.363 454.466 319.513 454.466 316.005C454.466 312.862 452.17 310.249 449.169 309.743V264.939C452.17 264.432 454.466 261.819 454.466 258.676ZM443.239 258.676C443.239 255.992 445.424 253.807 448.108 253.807C450.792 253.807 452.977 255.992 452.977 258.676C452.977 260.996 451.346 262.928 449.177 263.418V263.363H447.047V263.418C444.878 262.928 443.247 260.996 443.247 258.676H443.239ZM452.977 316.005C452.977 318.689 450.792 320.875 448.108 320.875C445.424 320.875 443.239 318.689 443.239 316.005C443.239 313.321 445.424 311.136 448.108 311.136C450.792 311.136 452.977 313.321 452.977 316.005Z" fill="#9E96B3"/>
<path d="M179.164 221.876V219.746H142.515L122.468 196.065C124.432 193.738 124.495 190.262 122.468 187.863C123.031 188.536 123.601 189.201 122.468 187.863C121.336 186.525 121.898 187.19 122.468 187.863C120.204 185.187 116.182 184.854 113.506 187.119C110.83 189.383 110.497 193.405 112.762 196.081C114.789 198.48 118.233 198.995 120.853 197.443L141.533 221.876H179.172H179.164ZM113.894 195.115C114.021 195.266 114.147 195.408 114.234 195.519C114.155 195.424 114.052 195.305 113.886 195.115C113.015 194.094 113.451 194.601 113.886 195.115C112.152 193.065 112.405 189.993 114.456 188.259C116.507 186.525 119.579 186.778 121.312 188.829C123.046 190.879 122.793 193.951 120.742 195.685C118.692 197.419 115.62 197.166 113.886 195.115H113.894Z" fill="#9E96B3"/>
<path d="M185.522 214.449C182.014 214.449 179.164 217.299 179.164 220.807C179.164 224.314 182.014 227.164 185.522 227.164C189.029 227.164 191.879 224.314 191.879 220.807C191.879 217.299 189.029 214.449 185.522 214.449ZM185.522 225.676C182.838 225.676 180.653 223.491 180.653 220.807C180.653 218.123 182.838 215.938 185.522 215.938C188.206 215.938 190.391 218.123 190.391 220.807C190.391 223.491 188.206 225.676 185.522 225.676Z" fill="#9E96B3"/>
<path d="M314.179 264.289C310.845 263.204 317.512 265.373 314.179 264.289V264.289Z" fill="#9E96B3"/>
<path d="M259.644 333.05V291.959L285.708 271.398C288.059 271.39 300.972 271.327 305.944 271.39C306.332 273.647 307.924 275.626 310.243 276.386C313.577 277.471 317.171 275.634 318.256 272.301C319.34 268.968 317.504 265.373 314.171 264.288C310.837 263.204 307.243 265.041 306.158 268.374C306.063 268.667 306 268.968 305.944 269.26C300.458 269.189 285.486 269.268 285.328 269.268H284.963L257.506 290.922V333.042C254.506 333.549 252.209 336.162 252.209 339.305C252.209 342.812 255.06 345.663 258.567 345.663C262.074 345.663 264.925 342.812 264.925 339.305C264.925 336.162 262.629 333.549 259.628 333.042L259.644 333.05ZM310.069 274.763C309.935 274.723 309.958 274.731 310.069 274.763V274.763ZM307.583 268.841C308.415 266.291 311.162 264.882 313.719 265.714C316.269 266.545 317.678 269.292 316.847 271.849C316.015 274.399 313.268 275.8 310.711 274.977C311.352 275.183 311.985 275.388 310.711 274.977C310.552 274.929 310.434 274.89 310.331 274.85C310.449 274.89 310.576 274.929 310.711 274.977C308.161 274.145 306.76 271.398 307.583 268.841ZM258.575 344.19C255.891 344.19 253.706 342.005 253.706 339.321C253.706 336.637 255.891 334.452 258.575 334.452C261.259 334.452 263.444 336.637 263.444 339.321C263.444 342.005 261.259 344.19 258.575 344.19Z" fill="#9E96B3"/>
<path d="M285.763 312.806C285.763 312.806 285.818 312.759 285.842 312.751C285.818 312.767 285.795 312.79 285.763 312.806Z" fill="#9E96B3"/>
<path d="M285.842 312.742C285.961 312.648 285.992 312.624 285.842 312.742V312.742Z" fill="#9E96B3"/>
<path d="M285.763 312.807C285.637 312.902 285.447 313.052 285.146 313.29C283.293 314.731 285.154 313.29 285.763 312.807Z" fill="#9E96B3"/>
<path d="M286.254 304.358C284.101 301.595 280.095 301.096 277.323 303.25C274.56 305.403 274.062 309.409 276.215 312.18C278.369 314.944 282.375 315.442 285.146 313.289C287.909 311.135 288.408 307.129 286.254 304.358ZM284.227 312.109C282.113 313.756 279.049 313.384 277.395 311.262C275.74 309.148 276.12 306.084 278.242 304.429C278.163 304.485 278.091 304.548 278.02 304.604C278.091 304.548 278.147 304.501 278.242 304.429C280.356 302.783 283.42 303.155 285.075 305.277C286.729 307.39 286.349 310.454 284.227 312.109ZM278.622 304.144C278.622 304.144 278.551 304.2 278.511 304.231C278.551 304.2 278.59 304.176 278.622 304.144Z" fill="#9E96B3"/>
<path d="M334.122 353.082L377.446 321.136L335.848 290.377H302.445L285.597 303.512L286.911 305.198L303.182 292.515H335.144L373.852 321.136L332.848 351.364C330.655 349.25 327.195 348.957 324.661 350.818C324.74 350.762 324.812 350.707 324.883 350.652C324.812 350.707 324.748 350.747 324.661 350.818C324.487 350.945 324.345 351.047 324.234 351.135C324.36 351.04 324.511 350.929 324.661 350.818C321.835 352.9 321.233 356.89 323.315 359.709C325.398 362.528 329.388 363.137 332.207 361.055C334.732 359.186 335.476 355.79 334.107 353.074L334.122 353.082ZM331.336 359.859C329.174 361.451 326.126 360.992 324.527 358.83C322.935 356.669 323.395 353.621 325.556 352.021C327.717 350.43 330.766 350.889 332.365 353.051C333.956 355.212 333.497 358.26 331.336 359.859Z" fill="#9E96B3"/>
<path d="M324.242 351.134C323.624 351.585 323.838 351.435 324.242 351.134V351.134Z" fill="#9E96B3"/>
<path d="M324.891 350.659C325.057 350.54 325.184 350.445 325.271 350.374C325.168 350.453 325.033 350.548 324.891 350.659Z" fill="#9E96B3"/>
<path d="M325.279 350.374C325.508 350.207 325.572 350.16 325.279 350.374V350.374Z" fill="#9E96B3"/>
<path d="M338.279 311.357C338.168 311.445 338.073 311.516 338.033 311.547C338.065 311.524 338.152 311.46 338.279 311.357Z" fill="#9E96B3"/>
<path d="M308.866 333.867C308.977 333.78 309.072 333.708 309.111 333.677C309.079 333.701 308.992 333.764 308.866 333.867Z" fill="#9E96B3"/>
<path d="M316.079 344.365C318.573 342.457 319.254 339.044 317.837 336.352L338.263 320.716L337.614 319.868C339.744 322.647 343.742 323.178 346.529 321.048C349.316 318.918 349.846 314.912 347.717 312.133C345.587 309.346 341.589 308.816 338.802 310.946C339.134 310.692 339.467 310.439 339.57 310.36C339.498 310.415 339.277 310.581 338.802 310.946C338.564 311.128 338.406 311.246 338.279 311.341C338.43 311.231 338.612 311.088 338.802 310.946C336.015 313.075 335.484 317.074 337.614 319.861L336.965 319.013L316.538 334.65C314.313 332.576 310.846 332.346 308.344 334.254C305.557 336.384 305.026 340.39 307.156 343.169C309.286 345.956 313.284 346.487 316.071 344.357L316.079 344.365ZM339.704 312.141C341.834 310.51 344.898 310.914 346.529 313.052C348.16 315.181 347.756 318.245 345.618 319.876C345.5 319.971 345.405 320.043 345.318 320.106C345.413 320.035 345.508 319.956 345.618 319.876C343.489 321.507 340.425 321.104 338.794 318.966C337.163 316.836 337.567 313.772 339.696 312.141H339.704ZM345.84 319.702C346.228 319.401 346.474 319.219 345.84 319.702V319.702ZM345.088 320.272C344.969 320.359 344.993 320.343 345.088 320.272V320.272ZM308.344 342.267C306.713 340.137 307.116 337.073 309.254 335.442C311.384 333.811 314.448 334.215 316.079 336.352C317.71 338.482 317.306 341.546 315.168 343.177C315.699 342.765 316.237 342.362 315.168 343.177C314.1 343.993 314.638 343.589 315.168 343.177C313.039 344.808 309.975 344.404 308.344 342.267Z" fill="#9E96B3"/>
<path d="M307.576 334.856C307.647 334.8 307.869 334.634 308.344 334.27C308.581 334.088 308.74 333.969 308.866 333.874C308.455 334.191 307.734 334.737 307.576 334.864V334.856Z" fill="#9E96B3"/>
<path d="M313.719 320.66C315.944 322.734 319.412 322.964 321.914 321.056C324.701 318.926 325.231 314.92 323.101 312.141C320.972 309.354 316.973 308.824 314.186 310.953C314.519 310.7 314.851 310.447 314.954 310.368C314.883 310.423 314.661 310.589 314.186 310.953C313.949 311.136 313.791 311.254 313.664 311.349C313.814 311.238 313.996 311.096 314.186 310.953C311.692 312.862 311.012 316.274 312.429 318.966L291.923 334.658C289.698 332.584 286.23 332.354 283.728 334.262C280.942 336.392 280.411 340.398 282.541 343.177C284.671 345.956 288.669 346.494 291.456 344.365C293.95 342.456 294.631 339.044 293.213 336.352L313.719 320.66ZM321.217 319.702C321.605 319.401 321.85 319.219 321.217 319.702V319.702ZM320.702 320.098C320.75 320.058 320.805 320.019 320.861 319.979C320.805 320.019 320.75 320.066 320.702 320.098ZM315.081 312.141C317.211 310.51 320.275 310.914 321.906 313.052C323.537 315.181 323.133 318.245 320.995 319.876C318.866 321.507 315.802 321.103 314.171 318.966C312.54 316.836 312.943 313.772 315.081 312.141ZM290.545 343.177C291.076 342.765 291.614 342.361 290.545 343.177C289.476 343.992 290.015 343.589 290.545 343.177C288.415 344.808 285.351 344.404 283.721 342.266C282.09 340.137 282.493 337.073 284.631 335.442C286.769 333.811 289.825 334.215 291.456 336.352C293.087 338.482 292.683 341.546 290.553 343.177H290.545Z" fill="#9E96B3"/>
<path d="M313.656 311.357C313.545 311.445 313.45 311.516 313.411 311.547C313.442 311.524 313.529 311.46 313.656 311.357Z" fill="#9E96B3"/>
<path d="M282.953 334.856C283.024 334.8 283.246 334.634 283.721 334.27C283.958 334.088 284.116 333.969 284.243 333.874C283.831 334.191 283.111 334.737 282.953 334.864V334.856Z" fill="#9E96B3"/>
<path d="M284.243 333.867C284.354 333.78 284.449 333.708 284.489 333.677C284.457 333.701 284.37 333.764 284.243 333.867Z" fill="#9E96B3"/>
<ellipse opacity="0.3" cx="269.5" cy="215.07" rx="227.5" ry="200.07" fill="url(#paint4_radial_138_372)"/>
<g filter="url(#filter0_di_138_372)">
<rect x="209.535" y="137.129" width="135.141" height="135.141" rx="19" fill="#EDE7FF"/>
<rect x="211.785" y="139.379" width="130.641" height="130.641" rx="16.75" stroke="url(#paint5_linear_138_372)" stroke-width="4.5"/>
</g>
<path d="M299.662 229.061C299.058 229.061 298.757 228.732 298.757 228.074V176.132C298.757 175.474 299.058 175.145 299.662 175.145H307.647C308.305 175.145 308.634 175.474 308.634 176.132V228.074C308.634 228.732 308.305 229.061 307.647 229.061H299.662Z" fill="#9E96B3"/>
<path d="M245.094 229.061C244.38 229.061 244.106 228.705 244.27 227.991L262.051 175.885C262.215 175.391 262.572 175.145 263.121 175.145H273.657C274.261 175.145 274.645 175.391 274.81 175.885L292.672 227.991C292.782 228.321 292.754 228.595 292.59 228.814C292.48 228.979 292.261 229.061 291.931 229.061H283.206C282.657 229.061 282.3 228.814 282.136 228.321L271.517 194.489C270.968 192.678 270.419 190.894 269.871 189.138C269.377 187.327 268.883 185.516 268.389 183.705H268.224C267.73 185.461 267.209 187.245 266.66 189.056C266.166 190.812 265.645 192.568 265.096 194.324L254.725 228.238C254.56 228.787 254.176 229.061 253.572 229.061H245.094ZM256.371 217.784L258.264 209.717H278.267L280.242 217.784H256.371Z" fill="#9E96B3"/>
</g>
<defs>
<filter id="filter0_di_138_372" x="185.535" y="113.129" width="203.141" height="203.141" filterUnits="userSpaceOnUse" color-interpolation-filters="sRGB">
<feFlood flood-opacity="0" result="BackgroundImageFix"/>
<feColorMatrix in="SourceAlpha" type="matrix" values="0 0 0 0 0 0 0 0 0 0 0 0 0 0 0 0 0 0 127 0" result="hardAlpha"/>
<feOffset dx="10" dy="10"/>
<feGaussianBlur stdDeviation="17"/>
<feComposite in2="hardAlpha" operator="out"/>
<feColorMatrix type="matrix" values="0 0 0 0 0 0 0 0 0 0 0 0 0 0 0 0 0 0 0.14 0"/>
<feBlend mode="normal" in2="BackgroundImageFix" result="effect1_dropShadow_138_372"/>
<feBlend mode="normal" in="SourceGraphic" in2="effect1_dropShadow_138_372" result="shape"/>
<feColorMatrix in="SourceAlpha" type="matrix" values="0 0 0 0 0 0 0 0 0 0 0 0 0 0 0 0 0 0 127 0" result="hardAlpha"/>
<feOffset dx="10" dy="10"/>
<feGaussianBlur stdDeviation="5"/>
<feComposite in2="hardAlpha" operator="arithmetic" k2="-1" k3="1"/>
<feColorMatrix type="matrix" values="0 0 0 0 1 0 0 0 0 0.910669 0 0 0 0 0.679167 0 0 0 0.38 0"/>
<feBlend mode="normal" in2="shape" result="effect2_innerShadow_138_372"/>
</filter>
<linearGradient id="paint0_linear_138_372" x1="125.113" y1="237.774" x2="374.311" y2="237.774" gradientUnits="userSpaceOnUse">
<stop stop-color="#713FFF"/>
<stop offset="1" stop-color="#EDEDED" stop-opacity="0"/>
</linearGradient>
<linearGradient id="paint1_linear_138_372" x1="277.229" y1="339.314" x2="433.627" y2="339.314" gradientUnits="userSpaceOnUse">
<stop stop-color="#713FFF"/>
<stop offset="1" stop-color="#EDEDED" stop-opacity="0"/>
</linearGradient>
<linearGradient id="paint2_linear_138_372" x1="337.424" y1="226.207" x2="467.981" y2="226.207" gradientUnits="userSpaceOnUse">
<stop stop-color="#713FFF"/>
<stop offset="1" stop-color="#EDEDED" stop-opacity="0"/>
</linearGradient>
<linearGradient id="paint3_linear_138_372" x1="225.481" y1="327.304" x2="354.621" y2="327.304" gradientUnits="userSpaceOnUse">
<stop stop-color="#713FFF"/>
<stop offset="1" stop-color="#EDEDED" stop-opacity="0"/>
</linearGradient>
<radialGradient id="paint4_radial_138_372" cx="0" cy="0" r="1" gradientUnits="userSpaceOnUse" gradientTransform="translate(269.5 215.07) rotate(90) scale(194.22 220.848)">
<stop stop-color="#713FFF"/>
<stop offset="1" stop-color="white"/>
</radialGradient>
<linearGradient id="paint5_linear_138_372" x1="323.485" y1="263.709" x2="251.859" y2="127.942" gradientUnits="userSpaceOnUse">
<stop stop-color="#DED2FF"/>
<stop offset="1" stop-color="#713FFF"/>
</linearGradient>
</defs>
</svg>
