<svg width="62" height="62" viewBox="0 0 62 62" fill="none" xmlns="http://www.w3.org/2000/svg">
<g clip-path="url(#clip0_972_2250)">
<path d="M30.504 54.5372C32.7142 54.5069 34.7957 53.994 36.6985 52.8789C40.7525 50.5056 44.794 48.111 48.823 45.6967C50.6168 44.6227 51.2976 42.8231 50.7544 40.7448C50.6704 40.4213 50.7223 40.2748 51.0153 40.1282C52.8842 39.1882 54.7298 38.2018 56.6112 37.2904C58.2389 36.5005 60.1167 36.9294 61.2941 38.2751C62.3715 39.5063 62.2053 40.9002 60.8492 41.8152C57.4706 44.0937 54.0848 46.3615 50.7008 48.6328C47.2436 50.9542 43.7506 53.2255 40.338 55.6077C37.6687 57.4716 34.7993 58.0506 31.5993 57.6288C27.3827 57.0731 23.1482 56.671 18.9191 56.2046C17.6131 56.0616 16.3409 56.2885 15.0885 56.6156C14.6525 56.7282 14.4721 56.6763 14.372 56.1885C13.3518 51.2187 12.3191 46.2507 11.2507 41.2898C11.1435 40.793 11.3114 40.6143 11.6795 40.4213C15.6995 38.3108 19.7374 38.2751 23.7789 40.332C25.6425 41.2809 27.4845 42.2763 29.3213 43.277C30.8131 44.0901 32.28 44.0883 33.7844 43.3074C36.5484 41.8706 39.3178 40.441 42.1015 39.0417C44.3849 37.8944 46.9916 38.5717 48.3656 40.6215C49.1911 41.851 48.9409 43.1341 47.6777 43.89C43.6827 46.2757 39.6894 48.6632 35.6676 51.0024C33.2931 52.3838 30.722 52.6966 28.0509 52.0711C24.7366 51.2955 21.4259 50.5039 18.1205 49.6925C17.6077 49.5674 17.3826 49.6157 17.2575 50.1965C16.9556 51.6083 16.9198 51.6083 18.3152 51.9406C21.7564 52.7591 25.1761 53.6669 28.6459 54.3621C29.2534 54.4836 29.8841 54.4818 30.5058 54.5372H30.504Z" fill="#5E5E5E"/>
<path d="M7.95745 37.3226C8.33802 37.2779 8.30228 37.5924 8.34874 37.8087C9.01339 40.9432 9.67268 44.0776 10.3284 47.2121C11.2039 51.392 12.0651 55.5755 12.9602 59.7519C13.0567 60.2004 12.9459 60.3273 12.535 60.4113C10.1176 60.9135 7.70195 61.4192 5.29349 61.966C4.83789 62.0697 4.71997 61.9357 4.63956 61.5443C3.65688 56.8175 2.66527 52.0944 1.67723 47.3694C1.1305 44.7567 0.596281 42.1405 0.0316863 39.5314C-0.0487148 39.1632 0.00845938 39.0185 0.383665 38.9399C2.84394 38.4234 5.29885 37.8909 7.75556 37.3619C7.82166 37.3476 7.88598 37.3369 7.95745 37.3226ZM6.18863 42.9018C6.04926 42.3228 6.07249 41.5936 5.71873 41.213C5.43822 40.9092 4.74677 41.3434 4.23041 41.406C4.16431 41.4131 4.10177 41.4471 4.03745 41.4525C3.78017 41.4703 3.73193 41.5793 3.7623 41.8438C3.9499 43.5701 4.17324 43.7292 5.82593 43.2502C5.86881 43.2377 5.91169 43.227 5.95636 43.2216C6.14932 43.2002 6.23151 43.1019 6.19041 42.9035L6.18863 42.9018Z" fill="#5E5E5E"/>
<path d="M58.3405 2.1427C57.4561 2.1427 56.7503 2.12304 56.0481 2.14985C55.664 2.16593 55.5693 2.0319 55.5604 1.65841C55.5246 2.09176e-05 55.5121 0.00180795 57.147 0.00180795C58.328 0.00180795 59.509 -0.00355321 60.6918 0.003595C61.6048 0.00895616 61.9835 0.391385 61.9889 1.31172C61.996 2.85037 61.9817 4.38902 61.9978 5.92589C62.0014 6.28509 61.9246 6.42269 61.5261 6.43162C59.8502 6.47273 59.852 6.48702 59.852 4.79468C59.852 4.48374 59.852 4.171 59.852 3.81538C59.559 3.85648 59.4339 4.08165 59.2785 4.23891C55.9177 7.59321 52.5623 10.9511 49.2051 14.309C48.2921 15.2203 47.8812 15.2239 46.9807 14.3232C44.3006 11.6445 41.6135 8.97281 38.9513 6.27436C38.5654 5.883 38.3652 5.86513 37.9686 6.26543C34.2344 10.0325 30.4752 13.7782 26.725 17.5292C25.8209 18.4335 25.4099 18.4317 24.5005 17.5221C22.5459 15.567 20.5805 13.6245 18.6473 11.648C18.2489 11.2406 18.0434 11.2031 17.6164 11.6355C13.2372 16.0513 8.82587 20.4368 4.44669 24.8508C4.0161 25.2832 3.7874 25.2975 3.36931 24.8508C2.41701 23.8322 2.39199 23.8536 3.36038 22.8868C7.91466 18.3316 12.4707 13.7746 17.025 9.21943C17.9237 8.32054 18.3346 8.32233 19.2494 9.23551C21.2202 11.2048 23.1998 13.167 25.1509 15.156C25.5171 15.5295 25.7137 15.5313 26.0835 15.156C29.8356 11.3746 33.6073 7.61286 37.3754 3.84576C38.2438 2.97725 38.6708 2.97904 39.5516 3.86005C42.2317 6.53885 44.9188 9.21228 47.5828 11.9072C47.9509 12.2806 48.1474 12.3629 48.5655 11.9393C51.7601 8.70475 54.9851 5.49878 58.3458 2.13912L58.3405 2.1427Z" fill="#5E5E5E"/>
<path d="M52.3593 27.8601C52.3593 30.4889 52.3432 33.1176 52.3736 35.7464C52.3807 36.2879 52.2145 36.4094 51.7036 36.3969C50.301 36.3629 48.8967 36.3737 47.4941 36.3933C47.1207 36.3987 47.001 36.295 47.001 35.9108C47.0135 30.5193 47.0135 25.1277 47.001 19.7362C47.001 19.3448 47.1296 19.2519 47.4977 19.2573C48.9235 19.2751 50.3492 19.2841 51.7732 19.2537C52.236 19.2448 52.3736 19.3645 52.37 19.8398C52.3468 22.5133 52.3593 25.1867 52.3593 27.8601Z" fill="#5E5E5E"/>
<path d="M33.1003 28.9645C33.1003 31.2377 33.0825 33.509 33.1128 35.7821C33.12 36.2986 32.9645 36.4112 32.4768 36.3987C31.0742 36.3665 29.6699 36.3719 28.2673 36.3969C27.8635 36.404 27.7385 36.2986 27.7403 35.8786C27.7545 31.2234 27.7563 26.5663 27.7403 21.911C27.7403 21.4857 27.8743 21.391 28.2727 21.3981C29.6752 21.4196 31.0796 21.4285 32.4821 21.3946C32.9753 21.3821 33.12 21.5072 33.1128 22.0165C33.0842 24.3325 33.1003 26.6503 33.1003 28.9663V28.9645Z" fill="#5E5E5E"/>
<path d="M37.3811 30.9678C37.3811 29.3863 37.3972 27.8048 37.3704 26.2232C37.3632 25.7729 37.5115 25.6675 37.935 25.6746C39.359 25.6978 40.7847 25.6978 42.2105 25.6746C42.6125 25.6675 42.743 25.7693 42.7394 26.1911C42.7215 29.4203 42.7215 32.6495 42.7394 35.8805C42.7412 36.3058 42.6072 36.4005 42.2087 36.3951C40.7847 36.3737 39.359 36.3719 37.9332 36.3951C37.5062 36.4023 37.3632 36.2933 37.3704 35.8447C37.3972 34.2185 37.3811 32.5923 37.3811 30.9678Z" fill="#5E5E5E"/>
<path d="M23.4716 32.074C23.4716 33.3214 23.4591 34.5688 23.4787 35.8143C23.4859 36.2129 23.4287 36.4094 22.9499 36.3969C21.5027 36.3648 20.0554 36.3737 18.6082 36.3933C18.2366 36.3987 18.1115 36.3004 18.1133 35.9126C18.1294 33.3732 18.1294 30.8356 18.1133 28.2962C18.1115 27.9048 18.2437 27.8137 18.61 27.8173C20.0572 27.8352 21.5044 27.8387 22.9517 27.8173C23.3537 27.8119 23.4912 27.9102 23.4805 28.3337C23.4519 29.5793 23.4698 30.8285 23.4698 32.074H23.4716Z" fill="#5E5E5E"/>
</g>
<defs>
<clipPath id="clip0_972_2250">
<rect width="62" height="62" fill="white"/>
</clipPath>
</defs>
</svg>
