<svg width="44" height="46" viewBox="0 0 44 46" fill="none" xmlns="http://www.w3.org/2000/svg">
<g clip-path="url(#clip0_826_4111)">
<path d="M22.0372 4.75533C22.0372 4.75603 22.0377 4.75659 22.0384 4.75659C27.1355 4.75659 32.2314 4.76288 37.3285 4.74526C37.7671 4.744 37.8593 4.87365 37.8581 5.2928C37.8444 10.8651 37.8469 16.4386 37.8556 22.0109C37.8556 22.3394 37.7671 22.5521 37.5104 22.7623C32.4528 26.9273 27.4013 31.0999 22.3586 35.2838C22.0745 35.5192 21.9163 35.518 21.6309 35.2813C16.5995 31.1087 11.558 26.9475 6.5128 22.7938C6.23493 22.5647 6.12528 22.3318 6.12653 21.9668C6.13774 16.4247 6.14024 10.8839 6.12404 5.34189C6.12279 4.88498 6.20752 4.73897 6.69846 4.74149C11.8105 4.76288 16.9226 4.75408 22.0359 4.75407C22.0366 4.75407 22.0372 4.75464 22.0372 4.75533ZM21.9923 10.6032C21.9923 10.6032 21.9923 10.6033 21.9923 10.6033C21.4104 11.7877 20.7899 12.8438 20.3662 13.9753C19.9862 14.9898 19.3594 15.3435 18.3402 15.409C17.3718 15.4707 16.4103 15.6507 15.4393 15.8087C15.1257 15.8598 14.9892 16.1384 15.2139 16.3631C16.1646 17.3109 17.1166 18.2574 18.0822 19.1888C18.2966 19.3953 18.3601 19.5803 18.3053 19.8849C18.0633 21.214 17.8475 22.5489 17.6253 23.888C17.5775 24.1763 17.7755 24.3771 18.0336 24.24C19.2435 23.6019 20.4547 22.9662 21.6559 22.3104C21.9038 22.1745 22.092 22.1783 22.3387 22.3117C23.5536 22.9725 24.7797 23.6157 26.0033 24.2614C26.2436 24.3887 26.4098 24.2009 26.3651 23.9326C26.1389 22.5749 25.9175 21.2205 25.6731 19.8711C25.6208 19.5853 25.6781 19.4079 25.8787 19.214C26.8643 18.2574 27.8399 17.2907 28.8131 16.3203C28.8622 16.2712 28.9221 16.2285 28.976 16.1807C29.1135 16.0585 29.0384 15.8847 28.8567 15.8558C27.4449 15.6443 26.0344 15.4228 24.6189 15.2353C24.3149 15.195 24.1666 15.0704 24.0395 14.8023C23.3868 13.4344 22.7141 12.0766 21.9928 10.6031C21.9927 10.6028 21.9923 10.6029 21.9923 10.6032Z" fill="#5E5E5E"/>
<path d="M42.2858 45.0475H1.78711C1.80705 44.8625 1.96778 44.836 2.0737 44.7656C7.31826 41.3142 12.5678 37.8691 17.8086 34.4115C18.0691 34.2391 18.2186 34.2705 18.4429 34.4606C19.4185 35.2888 20.4104 36.0969 21.3997 36.9088C21.8595 37.2864 22.1299 37.2914 22.5947 36.91C23.5965 36.0893 24.5945 35.2636 25.5889 34.4342C25.7583 34.2919 25.8804 34.2277 26.106 34.3762C31.4141 37.8729 36.7297 41.3583 42.0428 44.8474C42.1038 44.8877 42.1549 44.9405 42.2858 45.0488V45.0475Z" fill="#5E5E5E"/>
<path d="M0 19.2444C1.03546 20.0978 2.01858 20.9059 3.00045 21.7152C7.54474 25.4687 12.0878 29.2259 16.6371 32.9743C16.8925 33.1845 16.9997 33.2726 16.6371 33.5092C11.2031 37.0625 5.78036 40.6322 0.353874 44.1969C0.252945 44.2636 0.147032 44.3215 0 44.4083L0 19.2444Z" fill="#5E5E5E"/>
<path d="M44.0002 19.2317V44.4372C38.3096 40.7013 32.6712 37.0008 26.998 33.2775C32.6725 28.5889 38.2971 23.943 44.0002 19.2317Z" fill="#5E5E5E"/>
<path d="M39.2949 14.1453C40.0014 14.7281 40.6593 15.2718 41.3172 15.8143C42.0026 16.3808 42.6854 16.9509 43.3744 17.5111C43.5402 17.6457 43.595 17.7389 43.3969 17.9013C42.0462 19.0051 40.7017 20.1191 39.2949 21.2784V14.144V14.1453Z" fill="#5E5E5E"/>
<path d="M4.69427 21.2808C3.29373 20.1266 1.9505 19.0126 0.599799 17.9087C0.416632 17.759 0.417878 17.6721 0.599799 17.5223C1.9505 16.4172 3.29373 15.3032 4.69303 14.1465V21.2795L4.69427 21.2808Z" fill="#5E5E5E"/>
<path d="M17.8125 3.31424C19.0324 2.30602 20.1588 1.37333 21.2864 0.443147C21.7624 0.0504329 22.233 0.0466568 22.6982 0.431819C23.7075 1.26634 24.7193 2.0996 25.7261 2.93663C25.8519 3.0411 26.0089 3.1204 26.0949 3.31424H17.8137H17.8125Z" fill="#5E5E5E"/>
</g>
<defs>
<clipPath id="clip0_826_4111">
<rect width="44" height="45.0476" fill="white"/>
</clipPath>
</defs>
</svg>
