<svg width="29" height="12" viewBox="0 0 29 12" fill="none" xmlns="http://www.w3.org/2000/svg">
<path d="M0 6.00046C-1.93212e-07 8.2096 1.79086 10.0005 4 10.0005C6.20914 10.0005 8 8.2096 8 6.00046C8 3.79132 6.20914 2.00046 4 2.00046C1.79086 2.00046 1.93046e-07 3.79132 0 6.00046ZM28.5304 6.52983C28.8232 6.23692 28.8232 5.76205 28.5303 5.46917L23.7572 0.696383C23.4642 0.403501 22.9894 0.40352 22.6965 0.696425C22.4036 0.98933 22.4036 1.4642 22.6965 1.75709L26.9393 5.99956L22.6969 10.2424C22.404 10.5353 22.404 11.0101 22.6969 11.303C22.9898 11.5959 23.4647 11.5959 23.7576 11.303L28.5304 6.52983ZM4.00003 6.75046L28 6.74952L28 5.24952L3.99997 5.25046L4.00003 6.75046Z" fill="#3E3E3E"/>
</svg>
