<svg width="46" height="58" viewBox="0 0 46 58" fill="none" xmlns="http://www.w3.org/2000/svg">
<g clip-path="url(#clip0_826_4154)">
<path d="M35.4065 27.3707C35.2832 34.3782 32.8961 40.6261 28.9129 46.3296C25.9453 50.5785 22.3321 54.2255 18.1384 57.3065C17.8264 57.5358 17.6087 57.5788 17.275 57.328C9.92515 51.8037 4.28036 45.0255 1.42168 36.2267C0.282565 32.6943 -0.218066 29.0545 0.086666 25.3286C0.645341 18.6436 5.5791 12.5174 12.0438 10.4682C13.6908 9.94513 15.3668 9.6227 17.1009 9.56538C17.4999 9.55105 17.7103 9.6227 17.7611 10.0598C17.8337 10.676 18.2037 11.1489 18.639 11.5716C20.1482 13.0619 21.6573 14.5595 23.1665 16.0498C23.2681 16.1501 23.3696 16.2576 23.4785 16.3507C23.7179 16.5585 23.6599 16.8165 23.5365 17.0243C23.3624 17.318 23.181 17.0243 23.0359 16.9526C16.0851 13.456 7.90086 17.3825 6.3772 24.9417C5.13651 31.1252 9.59865 37.3517 15.9037 38.2401C22.3031 39.1358 28.0059 35.0445 29.058 28.775C29.2393 27.7003 29.2611 26.6112 29.087 25.5292C29.0289 25.1638 29.1523 24.9775 29.4715 24.8127C30.422 24.3183 31.3652 23.7953 32.2939 23.2579C32.6277 23.0644 32.8889 23.0788 33.2009 23.2722C33.6217 23.5373 34.0498 23.8024 34.5069 23.9816C35.1018 24.2109 35.2832 24.6336 35.305 25.2068C35.3267 25.9233 35.3775 26.6398 35.4138 27.3563L35.4065 27.3707Z" fill="#5E5E5E"/>
<path d="M32.7003 -2.81353e-05C33.2227 -0.0143584 33.4621 0.308072 33.6725 0.680657C34.9132 2.90184 36.1757 5.10869 37.4019 7.33704C37.6123 7.71679 37.8445 7.88159 38.2943 7.92458C40.5 8.13953 42.6984 8.39748 44.9041 8.64826C45.3467 8.69841 45.7675 8.78439 45.9416 9.27879C46.1158 9.77318 45.84 10.0956 45.5208 10.4037C43.7867 12.109 42.0672 13.8286 40.3258 15.5196C40.0139 15.8205 39.905 16.0785 39.9993 16.5299C40.529 18.9875 41.0151 21.4595 41.5085 23.9243C41.5956 24.3542 41.6391 24.7912 41.211 25.0993C40.7902 25.3931 40.3911 25.2426 39.9921 25.0277C37.7139 23.7738 35.4284 22.5271 33.1574 21.266C32.8454 21.0941 32.6205 21.0941 32.3158 21.266C30.0448 22.5271 27.7593 23.7738 25.481 25.0277C25.082 25.2498 24.6757 25.4074 24.2621 25.1137C23.8486 24.8199 23.8631 24.4115 23.9574 23.9529C24.4725 21.4881 24.9586 19.0233 25.4665 16.5585C25.5536 16.143 25.4883 15.8492 25.1618 15.5339C23.4132 13.843 21.7009 12.1233 19.9596 10.418C19.6113 10.0813 19.3501 9.73019 19.5388 9.22863C19.7274 8.74857 20.17 8.69125 20.6126 8.64109C22.8328 8.39748 25.0602 8.13953 27.2804 7.91742C27.6359 7.88159 27.8246 7.74545 27.9915 7.44452C29.2467 5.18751 30.5236 2.93767 31.7861 0.687822C31.9965 0.315237 32.2287 -0.0143584 32.693 -2.81353e-05H32.7003Z" fill="#5E5E5E"/>
</g>
<defs>
<clipPath id="clip0_826_4154">
<rect width="46" height="57.5" fill="white"/>
</clipPath>
</defs>
</svg>
