<svg width="238" height="56" viewBox="0 0 238 56" fill="none" xmlns="http://www.w3.org/2000/svg">
<path d="M220.658 38.4066L223.613 23.346H228.202L231.616 38.4066H228.461L224.99 23.432H226.653L223.584 38.4066H220.658ZM219.482 38.4066L219.453 35.1363H222.637V38.4066H219.482ZM217.875 38.4066L213.63 22.8296H217.502L221.547 38.4066H217.875ZM229.465 38.4066V35.1363H232.649L232.62 38.4066H229.465ZM230.727 38.4066L234.313 22.8296H237.927L234.169 38.4066H230.727Z" fill="white"/>
<path d="M204.644 38.9513C203.305 38.9513 202.129 38.7218 201.115 38.2628C200.121 37.8038 199.289 37.1918 198.62 36.4268C197.969 35.6427 197.472 34.7726 197.128 33.8163C196.803 32.8601 196.64 31.8847 196.64 30.8903V30.3452C196.64 29.3125 196.803 28.318 197.128 27.3618C197.472 26.3864 197.969 25.5258 198.62 24.7799C199.289 24.015 200.111 23.4125 201.087 22.9727C202.062 22.5137 203.19 22.2842 204.472 22.2842C206.155 22.2842 207.56 22.6571 208.689 23.403C209.836 24.1297 210.697 25.0955 211.27 26.3003C211.844 27.4861 212.131 28.7674 212.131 30.1444V31.5787H198.333V29.1404H209.635L208.402 30.3452C208.402 29.3507 208.258 28.4997 207.971 27.7921C207.685 27.0845 207.245 26.5394 206.652 26.1569C206.078 25.7744 205.351 25.5832 204.472 25.5832C203.592 25.5832 202.846 25.784 202.234 26.1856C201.622 26.5872 201.154 27.1705 200.828 27.9355C200.522 28.6814 200.369 29.5802 200.369 30.6321C200.369 31.6074 200.522 32.4776 200.828 33.2426C201.134 33.9884 201.603 34.5813 202.234 35.0212C202.865 35.4419 203.668 35.6523 204.644 35.6523C205.619 35.6523 206.413 35.461 207.025 35.0785C207.637 34.6769 208.029 34.1893 208.201 33.6155H211.873C211.643 34.6865 211.204 35.6236 210.553 36.4268C209.903 37.2301 209.071 37.8516 208.058 38.2915C207.063 38.7313 205.925 38.9513 204.644 38.9513Z" fill="white"/>
<path d="M189.09 38.4062V22.8292H193.077V38.4062H189.09ZM186.91 25.8126V22.8292H193.077V25.8126H186.91ZM190.553 20.9645C189.769 20.9645 189.185 20.7637 188.803 20.3621C188.44 19.9414 188.258 19.425 188.258 18.813C188.258 18.1628 188.44 17.6369 188.803 17.2352C189.185 16.8336 189.769 16.6328 190.553 16.6328C191.337 16.6328 191.911 16.8336 192.274 17.2352C192.637 17.6369 192.819 18.1628 192.819 18.813C192.819 19.425 192.637 19.9414 192.274 20.3621C191.911 20.7637 191.337 20.9645 190.553 20.9645Z" fill="white"/>
<path d="M174.718 38.4066L169.841 22.8296H173.944L178.62 38.4066H174.718ZM175.894 38.4066V35.1363H180.111V38.4066H175.894ZM177.472 38.4066L181.488 22.8296H185.332L181.115 38.4066H177.472Z" fill="white"/>
<path d="M160.913 38.9513C159.574 38.9513 158.398 38.7218 157.385 38.2628C156.39 37.8038 155.558 37.1918 154.889 36.4268C154.239 35.6427 153.741 34.7726 153.397 33.8163C153.072 32.8601 152.909 31.8847 152.909 30.8903V30.3452C152.909 29.3125 153.072 28.318 153.397 27.3618C153.741 26.3864 154.239 25.5258 154.889 24.7799C155.558 24.015 156.381 23.4125 157.356 22.9727C158.331 22.5137 159.46 22.2842 160.741 22.2842C162.424 22.2842 163.83 22.6571 164.958 23.403C166.105 24.1297 166.966 25.0955 167.54 26.3003C168.113 27.4861 168.4 28.7674 168.4 30.1444V31.5787H154.602V29.1404H165.905L164.671 30.3452C164.671 29.3507 164.528 28.4997 164.241 27.7921C163.954 27.0845 163.514 26.5394 162.921 26.1569C162.347 25.7744 161.621 25.5832 160.741 25.5832C159.861 25.5832 159.115 25.784 158.503 26.1856C157.891 26.5872 157.423 27.1705 157.098 27.9355C156.792 28.6814 156.639 29.5802 156.639 30.6321C156.639 31.6074 156.792 32.4776 157.098 33.2426C157.404 33.9884 157.872 34.5813 158.503 35.0212C159.134 35.4419 159.938 35.6523 160.913 35.6523C161.888 35.6523 162.682 35.461 163.294 35.0785C163.906 34.6769 164.298 34.1893 164.47 33.6155H168.142C167.913 34.6865 167.473 35.6236 166.823 36.4268C166.172 37.2301 165.34 37.8516 164.327 38.2915C163.332 38.7313 162.194 38.9513 160.913 38.9513Z" fill="white"/>
<path d="M133.891 38.4062V17.3213H137.965V38.4062H133.891ZM146.686 38.4062L140.26 29.2837H144.821L151.448 38.4062H146.686ZM136.76 31.4066V28.1076H142.096C142.841 28.1076 143.482 27.9546 144.018 27.6486C144.572 27.3426 145.003 26.9123 145.309 26.3577C145.615 25.8031 145.768 25.1719 145.768 24.4643C145.768 23.7376 145.615 23.0969 145.309 22.5423C145.003 21.9877 144.572 21.5574 144.018 21.2514C143.482 20.9454 142.841 20.7924 142.096 20.7924H136.76V17.3213H141.665C143.348 17.3213 144.802 17.5699 146.026 18.0671C147.269 18.5644 148.225 19.3198 148.894 20.3334C149.564 21.347 149.898 22.6188 149.898 24.1488V24.6078C149.898 26.1569 149.554 27.4286 148.866 28.4231C148.196 29.4176 147.25 30.1635 146.026 30.6607C144.802 31.1579 143.348 31.4066 141.665 31.4066H136.76Z" fill="white"/>
<path d="M121.613 38.4062V22.8292H124.769V29.4272H124.683C124.683 27.1896 125.161 25.4971 126.117 24.3496C127.073 23.2022 128.479 22.6284 130.334 22.6284H130.908V26.0995H129.818C128.479 26.0995 127.437 26.4629 126.691 27.1896C125.964 27.8972 125.601 28.93 125.601 30.2878V38.4062H121.613Z" fill="white"/>
<path d="M108.599 38.8937C106.801 38.8937 105.405 38.3008 104.411 37.1151C103.435 35.9293 102.948 34.1699 102.948 31.8367V22.8003H106.935V32.1809C106.935 33.1371 107.203 33.9021 107.738 34.4759C108.274 35.0305 109.001 35.3078 109.919 35.3078C110.837 35.3078 111.582 35.0114 112.156 34.4185C112.749 33.8256 113.045 33.0224 113.045 32.0088V22.8003H117.033V38.406H113.877V31.7793H114.193C114.193 33.3475 113.992 34.6576 113.59 35.7094C113.189 36.7613 112.586 37.5549 111.783 38.0904C110.98 38.6259 109.976 38.8937 108.771 38.8937H108.599Z" fill="white"/>
<path d="M91.309 38.9513C89.932 38.9513 88.7176 38.7313 87.6657 38.2915C86.6139 37.8516 85.7246 37.2588 84.9978 36.5129C84.2711 35.7479 83.7165 34.8873 83.334 33.9311C82.9706 32.9748 82.7889 31.9804 82.7889 30.9476V30.3452C82.7889 29.2742 82.9802 28.2606 83.3627 27.3044C83.7643 26.329 84.3285 25.4684 85.0552 24.7226C85.8011 23.9576 86.6999 23.3647 87.7518 22.944C88.8036 22.5041 89.9894 22.2842 91.309 22.2842C92.6286 22.2842 93.8143 22.5041 94.8661 22.944C95.918 23.3647 96.8073 23.9576 97.534 24.7226C98.2799 25.4684 98.8441 26.329 99.2265 27.3044C99.609 28.2606 99.8003 29.2742 99.8003 30.3452V30.9476C99.8003 31.9804 99.609 32.9748 99.2265 33.9311C98.8632 34.8873 98.3181 35.7479 97.5914 36.5129C96.8647 37.2588 95.9754 37.8516 94.9235 38.2915C93.8717 38.7313 92.6668 38.9513 91.309 38.9513ZM91.309 35.5375C92.2843 35.5375 93.1067 35.3272 93.776 34.9064C94.4454 34.4666 94.9522 33.8833 95.2964 33.1565C95.6407 32.4107 95.8128 31.5692 95.8128 30.6321C95.8128 29.6758 95.6311 28.8344 95.2677 28.1076C94.9235 27.3618 94.4071 26.7785 93.7187 26.3577C93.0493 25.9179 92.2461 25.6979 91.309 25.6979C90.3718 25.6979 89.5591 25.9179 88.8706 26.3577C88.2012 26.7785 87.6848 27.3618 87.3215 28.1076C86.9581 28.8344 86.7764 29.6758 86.7764 30.6321C86.7764 31.5692 86.9485 32.4107 87.2928 33.1565C87.6562 33.8833 88.1725 34.4666 88.8419 34.9064C89.5112 35.3272 90.3336 35.5375 91.309 35.5375Z" fill="white"/>
<path d="M70.9525 30.4026L64.6414 17.4648H68.8296L73.649 27.5913L72.7311 27.3045H75.4563L74.481 27.5913L78.8701 17.4648H82.8289L77.0054 30.4026H70.9525ZM71.9852 38.4063V29.7715H75.9727V38.4063H71.9852Z" fill="white"/>
<path d="M5.82763 25.4813C2.87529 21.1685 4.78384 15.2292 9.69586 13.4436L37.7316 3.25207C41.884 1.74258 46.4739 3.88511 47.9834 8.03753L54.2751 25.3453C55.5456 28.8402 54.2403 32.7497 51.125 34.7804L46.3693 37.8804L30.7575 48.0568C27.1152 50.431 22.2435 49.4616 19.7875 45.8739L5.82763 25.4813Z" fill="#713FFF"/>
<path d="M48.6102 33.8705L39.1806 40.5007C38.6258 40.8907 38.6119 41.7081 39.1531 42.1168L46.3727 47.5683C46.9667 48.0168 47.825 47.6824 47.959 46.9502L50.169 34.8685C50.3301 33.9881 49.3423 33.3557 48.6102 33.8705Z" fill="#713FFF"/>
</svg>
