<svg width="456" height="353" viewBox="0 0 456 353" fill="none" xmlns="http://www.w3.org/2000/svg">
<path d="M456 311.749H0V311.977H456V311.749Z" fill="#EBEBEB"/>
<path d="M62.4905 320.431H47.8438V320.659H62.4905V320.431Z" fill="#EBEBEB"/>
<path d="M204.899 317.959H156.08V318.187H204.899V317.959Z" fill="#EBEBEB"/>
<path d="M96.4623 328.904H63.4023V329.132H96.4623V328.904Z" fill="#EBEBEB"/>
<path d="M385.165 317.841H345.776V318.069H385.165V317.841Z" fill="#EBEBEB"/>
<path d="M399.064 317.841H393.291V318.069H399.064V317.841Z" fill="#EBEBEB"/>
<path d="M338.252 323.523H289.104V323.751H338.252V323.523Z" fill="#EBEBEB"/>
<path d="M216.144 271.074H40.0461C38.6665 271.071 37.3443 270.521 36.3697 269.545C35.3951 268.569 34.8477 267.246 34.8477 265.866V18.322C34.8597 16.9503 35.4124 15.6388 36.3857 14.6723C37.359 13.7058 38.6744 13.1624 40.0461 13.16H216.144C217.525 13.16 218.85 13.7087 219.826 14.6853C220.803 15.6619 221.352 16.9864 221.352 18.3676V265.866C221.352 267.247 220.803 268.572 219.826 269.548C218.85 270.525 217.525 271.074 216.144 271.074ZM40.0461 13.3424C38.727 13.3449 37.4628 13.8705 36.5309 14.8041C35.599 15.7377 35.0757 17.0029 35.0757 18.322V265.866C35.0757 267.185 35.599 268.45 36.5309 269.384C37.4628 270.318 38.727 270.843 40.0461 270.846H216.144C217.464 270.843 218.729 270.318 219.663 269.384C220.596 268.451 221.121 267.186 221.124 265.866V18.322C221.121 17.002 220.596 15.7369 219.663 14.8036C218.729 13.8702 217.464 13.3448 216.144 13.3424H40.0461Z" fill="#EBEBEB"/>
<path d="M413.419 271.074H237.312C235.931 271.071 234.608 270.522 233.632 269.546C232.656 268.57 232.106 267.246 232.104 265.866V18.322C232.118 16.9495 232.673 15.638 233.648 14.6718C234.623 13.7055 235.939 13.1624 237.312 13.16H413.419C414.789 13.1648 416.102 13.7093 417.073 14.6755C418.045 15.6418 418.596 16.9519 418.608 18.322V265.866C418.608 267.244 418.062 268.566 417.089 269.542C416.117 270.518 414.797 271.069 413.419 271.074ZM237.312 13.3424C235.992 13.3448 234.726 13.8702 233.793 14.8036C232.86 15.7369 232.334 17.002 232.332 18.322V265.866C232.334 267.186 232.86 268.451 233.793 269.384C234.726 270.318 235.992 270.843 237.312 270.846H413.419C414.739 270.843 416.004 270.318 416.937 269.384C417.87 268.451 418.396 267.186 418.398 265.866V18.322C418.396 17.002 417.87 15.7369 416.937 14.8036C416.004 13.8702 414.739 13.3448 413.419 13.3424H237.312Z" fill="#EBEBEB"/>
<path d="M361.471 235.515H355.416V311.749H361.471V235.515Z" fill="#F5F5F5"/>
<path d="M364.107 235.515H358.835V311.749H364.107V235.515Z" fill="#E8E3F6"/>
<path d="M220.221 235.515H214.165V311.749H220.221V235.515Z" fill="#F5F5F5"/>
<path d="M222.856 235.515H217.585V311.749H222.856V235.515Z" fill="#E8E3F6"/>
<path d="M384.426 235.515H378.371V311.749H384.426V235.515Z" fill="#F5F5F5"/>
<path d="M387.062 235.515H381.791V311.749H387.062V235.515Z" fill="#E8E3F6"/>
<path d="M243.176 235.515H237.12V311.749H243.176V235.515Z" fill="#F5F5F5"/>
<path d="M214.174 236.956L387.062 236.956V234.065L214.174 234.065V236.956Z" fill="#E8E3F6"/>
<path d="M214.165 236.956H240.54V234.065H214.165V236.956Z" fill="#E6E6E6"/>
<path d="M245.811 235.515H240.54V311.749H245.811V235.515Z" fill="#E8E3F6"/>
<path d="M300.631 178.542H284.279V234.065H300.631V178.542Z" fill="#EBEBEB"/>
<path d="M344.973 234.065H290.691L282.492 169.085H336.774L344.973 234.065Z" fill="#E0E0E0"/>
<path d="M348.165 234.065H292.095L283.896 169.085H339.966L348.165 234.065Z" fill="#E8E3F6"/>
<path d="M316.71 234.065H305.83L308.894 169.085H319.775L316.71 234.065Z" fill="#FAFAFA"/>
<path d="M329.177 234.065H318.47L321.535 169.085H332.241L329.177 234.065Z" fill="#FAFAFA"/>
<path d="M393.026 29.1292H252.004V139.472H393.026V29.1292Z" fill="#E6E6E6"/>
<path d="M397.258 29.1292H253.983V139.472H397.258V29.1292Z" fill="#E8E3F6"/>
<path d="M393.026 139.472H252.004V143.166H393.026V139.472Z" fill="#E6E6E6"/>
<path d="M399.511 139.472H256.235V143.166H399.511V139.472Z" fill="#E8E3F6"/>
<path d="M391.339 133.544V35.0481L259.911 35.0481V133.544H391.339Z" fill="#FAFAFA"/>
<path d="M331.831 133.544L341.316 35.0571H357.732L348.247 133.544H331.831Z" fill="white"/>
<path d="M290.408 133.544L299.893 35.0571H316.309L306.824 133.544H290.408Z" fill="white"/>
<path d="M262.656 100.165C262.537 100.162 262.423 100.113 262.339 100.028C262.256 99.9429 262.209 99.8282 262.209 99.7089V38.9058C262.209 38.7849 262.257 38.6689 262.343 38.5834C262.428 38.4979 262.544 38.4498 262.665 38.4498C262.786 38.4498 262.902 38.4979 262.987 38.5834C263.073 38.6689 263.121 38.7849 263.121 38.9058V99.7089C263.121 99.7695 263.109 99.8296 263.085 99.8855C263.062 99.9414 263.028 99.9921 262.984 100.035C262.941 100.077 262.89 100.11 262.833 100.133C262.777 100.155 262.717 100.166 262.656 100.165Z" fill="#E8E3F6"/>
<path d="M351.768 133.544L361.252 35.0571H367.655L358.17 133.544H351.768Z" fill="white"/>
<path d="M391.339 133.553V35.0571H390.591V133.553H391.339Z" fill="#E6E6E6"/>
<path opacity="0.5" d="M398.663 45.7913H257.64L257.093 37.3553H398.115L398.663 45.7913Z" fill="#E8E3F6"/>
<path opacity="0.5" d="M398.663 59.6629H257.64L257.093 51.2269H398.115L398.663 59.6629Z" fill="#E0E0E0"/>
<path opacity="0.5" d="M398.663 73.5344H257.64L257.093 65.0984H398.115L398.663 73.5344Z" fill="#E8E3F6"/>
<path opacity="0.5" d="M398.663 87.406H257.64L257.093 78.97H398.115L398.663 87.406Z" fill="#E8E3F6"/>
<path opacity="0.5" d="M398.663 101.268H257.64L257.093 92.8324H398.115L398.663 101.268Z" fill="#E8E3F6"/>
<path opacity="0.5" d="M398.663 115.14H257.64L257.093 106.704H398.115L398.663 115.14Z" fill="#E8E3F6"/>
<path opacity="0.5" d="M398.663 52.7317H257.64L257.093 44.2957H398.115L398.663 52.7317Z" fill="#E8E3F6"/>
<path opacity="0.5" d="M398.663 66.5941H257.64L257.093 58.1581H398.115L398.663 66.5941Z" fill="#E8E3F6"/>
<path opacity="0.5" d="M398.663 80.4657H257.64L257.093 72.0297H398.115L398.663 80.4657Z" fill="#E8E3F6"/>
<path opacity="0.5" d="M398.663 94.3371H257.64L257.093 85.9011H398.115L398.663 94.3371Z" fill="#E8E3F6"/>
<path opacity="0.5" d="M398.663 108.209H257.64L257.093 99.7727H398.115L398.663 108.209Z" fill="#E8E3F6"/>
<path opacity="0.5" d="M398.663 122.08H257.64L257.093 113.635H398.115L398.663 122.08Z" fill="#E8E3F6"/>
<path d="M90.4706 83.8948H109.613C112.041 83.8948 114.009 81.9267 114.009 79.4989V72.1482C114.009 69.7205 112.041 67.7524 109.613 67.7524H90.4706C88.0428 67.7524 86.0747 69.7205 86.0747 72.1482V79.4989C86.0747 81.9267 88.0428 83.8948 90.4706 83.8948Z" fill="#F5F5F5"/>
<path d="M90.4706 67.7433H109.613C112.041 67.7433 114.009 65.7752 114.009 63.3474V55.9967C114.009 53.569 112.041 51.6009 109.613 51.6009H90.4706C88.0428 51.6009 86.0747 53.569 86.0747 55.9967V63.3474C86.0747 65.7752 88.0428 67.7433 90.4706 67.7433Z" fill="#F5F5F5"/>
<path d="M96.7266 51.6008H103.357C104.198 51.6008 104.88 50.9189 104.88 50.0778V47.5333C104.88 46.6922 104.198 46.0103 103.357 46.0103H96.7266C95.8855 46.0103 95.2036 46.6922 95.2036 47.5333V50.0778C95.2036 50.9189 95.8855 51.6008 96.7266 51.6008Z" fill="#E0E0E0"/>
<path d="M90.4706 100.028H109.613C112.041 100.028 114.009 98.06 114.009 95.6322V88.2815C114.009 85.8538 112.041 83.8857 109.613 83.8857H90.4706C88.0428 83.8857 86.0747 85.8538 86.0747 88.2815V95.6322C86.0747 98.06 88.0428 100.028 90.4706 100.028Z" fill="#F5F5F5"/>
<path d="M191.994 88.8561C191.994 88.8561 191.082 100.074 155.614 100.074C120.147 100.074 119.226 88.8561 119.226 88.8561H191.994Z" fill="#E8E3F6"/>
<path d="M83.2109 102.308H55.103V301.334H83.2109V102.308Z" fill="#E8E3F6"/>
<path d="M199.099 301.334H60.4932V311.749H199.099V301.334Z" fill="#E8E3F6"/>
<path d="M83.2107 301.325H204.498L204.498 102.299L83.2107 102.299L83.2107 301.325Z" fill="#F5F5F5"/>
<path d="M94.2552 219.993H193.444V173.025H94.2552V219.993Z" fill="#E8E3F6"/>
<path d="M94.2552 277.439H193.444V230.471H94.2552V277.439Z" fill="#E8E3F6"/>
<path d="M94.2552 294.375H193.444V287.216H94.2552V294.375Z" fill="#E8E3F6"/>
<path d="M169.057 176.745H118.642C117.598 176.743 116.597 176.327 115.859 175.589C115.12 174.85 114.705 173.85 114.702 172.806C114.707 171.763 115.124 170.765 115.862 170.028C116.6 169.292 117.599 168.877 118.642 168.875H169.057C170.1 168.877 171.099 169.292 171.837 170.028C172.575 170.765 172.992 171.763 172.997 172.806C172.995 173.85 172.579 174.85 171.841 175.589C171.102 176.327 170.102 176.743 169.057 176.745Z" fill="#F5F5F5"/>
<path d="M94.2552 162.555H193.444V115.587L94.2552 115.587V162.555Z" fill="#E8E3F6"/>
<path d="M169.057 119.308H118.642C117.598 119.305 116.597 118.889 115.859 118.151C115.12 117.413 114.705 116.412 114.702 115.368C114.705 114.324 115.12 113.323 115.859 112.585C116.597 111.846 117.598 111.43 118.642 111.428H169.057C170.102 111.43 171.102 111.846 171.841 112.585C172.579 113.323 172.995 114.324 172.997 115.368C172.995 116.412 172.579 117.413 171.841 118.151C171.102 118.889 170.102 119.305 169.057 119.308Z" fill="#F5F5F5"/>
<path d="M169.057 234.192H118.642C117.598 234.19 116.597 233.774 115.859 233.036C115.12 232.297 114.705 231.297 114.702 230.252C114.705 229.208 115.12 228.208 115.859 227.469C116.597 226.731 117.598 226.315 118.642 226.313H169.057C170.102 226.315 171.102 226.731 171.841 227.469C172.579 228.208 172.995 229.208 172.997 230.252C172.995 231.297 172.579 232.297 171.841 233.036C171.102 233.774 170.102 234.19 169.057 234.192Z" fill="#F5F5F5"/>
<path d="M208.237 100.037H83.2017V102.308H208.237V100.037Z" fill="#E8E3F6"/>
<path d="M51.1815 102.308H83.2109V100.037H51.1815V102.308Z" fill="#E6E6E6"/>
<path d="M228 352.935C325.659 352.935 404.828 348.313 404.828 342.611C404.828 336.909 325.659 332.287 228 332.287C130.341 332.287 51.1724 336.909 51.1724 342.611C51.1724 348.313 130.341 352.935 228 352.935Z" fill="#E0E0F1"/>
<path d="M403.159 252.204H52.8412L46.3843 246.094H409.616L403.159 252.204Z" fill="#407BFF"/>
<path opacity="0.5" d="M403.159 252.204H52.8412L46.3843 246.094H409.616L403.159 252.204Z" fill="white"/>
<path d="M373.118 255.497H82.8827L77.5293 252.204H378.471L373.118 255.497Z" fill="#407BFF"/>
<path opacity="0.5" d="M373.118 255.497H82.8827L77.5293 252.204H378.471L373.118 255.497Z" fill="black"/>
<path d="M80.5843 342.611H76.4165L89.3395 255.497H98.6328L80.5843 342.611Z" fill="#407BFF"/>
<path opacity="0.5" d="M80.5843 342.611H76.4165L89.3395 255.497H98.6328L80.5843 342.611Z" fill="black"/>
<path d="M103.147 342.611H98.9883L111.911 255.497H121.205L103.147 342.611Z" fill="#407BFF"/>
<path opacity="0.5" d="M103.147 342.611H98.9883L111.911 255.497H121.205L103.147 342.611Z" fill="black"/>
<path d="M375.416 342.611H379.583L366.66 255.497H357.367L375.416 342.611Z" fill="#407BFF"/>
<path opacity="0.5" d="M375.416 342.611H379.583L366.66 255.497H357.367L375.416 342.611Z" fill="black"/>
<path d="M352.853 342.611H357.011L344.088 255.497H334.795L352.853 342.611Z" fill="#407BFF"/>
<path opacity="0.5" d="M352.853 342.611H357.011L344.088 255.497H334.795L352.853 342.611Z" fill="black"/>
<path d="M204.543 49.7677L216.317 50.5611C216.774 50.5893 217.214 50.7419 217.59 51.0023C217.966 51.2627 218.264 51.621 218.451 52.0385L219.691 54.7745C219.96 55.3653 220.447 55.8293 221.05 56.0696C222.527 56.6766 223.96 57.3866 225.337 58.1945C225.886 58.5177 226.538 58.6219 227.161 58.4864L230.116 57.7933C230.561 57.6905 231.026 57.71 231.461 57.8497C231.896 57.9894 232.285 58.244 232.587 58.5867L240.357 67.4696C240.659 67.8151 240.861 68.2362 240.941 68.6877C241.021 69.1392 240.977 69.604 240.813 70.0323L239.737 72.8595C239.51 73.4683 239.527 74.1411 239.783 74.7382C240.399 76.2206 240.911 77.7443 241.315 79.2982C241.471 79.9277 241.867 80.4711 242.418 80.8121L244.99 82.4081C245.38 82.6481 245.696 82.99 245.905 83.3966C246.114 83.8033 246.207 84.2594 246.176 84.7155L245.392 96.4985C245.362 96.9548 245.208 97.3943 244.946 97.7689C244.683 98.1436 244.324 98.4392 243.905 98.6235L241.169 99.8638C240.582 100.138 240.12 100.623 239.874 101.223C239.274 102.701 238.567 104.134 237.758 105.509C237.432 106.058 237.328 106.71 237.466 107.333L238.15 110.279C238.256 110.724 238.238 111.19 238.098 111.625C237.958 112.061 237.702 112.45 237.357 112.75L228.474 120.521C228.13 120.822 227.711 121.024 227.261 121.104C226.811 121.185 226.347 121.141 225.92 120.977L223.084 119.9C222.483 119.663 221.815 119.663 221.214 119.9C219.731 120.514 218.208 121.026 216.654 121.433C216.027 121.592 215.484 121.987 215.141 122.536L213.545 125.108C213.302 125.497 212.959 125.813 212.551 126.022C212.143 126.231 211.685 126.325 211.228 126.294L199.454 125.509C198.998 125.479 198.559 125.326 198.183 125.066C197.807 124.805 197.509 124.448 197.32 124.032L196.08 121.296C195.811 120.705 195.324 120.241 194.721 120.001C193.244 119.394 191.812 118.684 190.434 117.876C189.885 117.552 189.234 117.448 188.61 117.584L185.665 118.277C185.22 118.382 184.754 118.363 184.319 118.224C183.883 118.084 183.494 117.828 183.193 117.484L175.414 108.601C175.114 108.254 174.914 107.833 174.833 107.382C174.753 106.931 174.796 106.467 174.958 106.038L176.034 103.211C176.261 102.605 176.245 101.935 175.988 101.341C175.374 99.8582 174.862 98.3346 174.456 96.7813C174.3 96.1518 173.904 95.6083 173.353 95.2673L170.781 93.6713C170.392 93.4313 170.076 93.0895 169.867 92.6829C169.658 92.2762 169.564 91.8201 169.595 91.364L170.38 79.5809C170.412 79.1241 170.567 78.6845 170.828 78.3088C171.09 77.933 171.449 77.6352 171.866 77.4469L174.602 76.2157C175.193 75.9466 175.657 75.4598 175.897 74.8568C176.504 73.377 177.214 71.9416 178.022 70.5613C178.348 70.0125 178.455 69.3615 178.323 68.7373L177.63 65.7915C177.525 65.3463 177.544 64.881 177.684 64.4456C177.823 64.0101 178.079 63.621 178.423 63.32L187.306 55.5497C187.65 55.2476 188.069 55.0446 188.519 54.9626C188.968 54.8807 189.432 54.9229 189.86 55.0846L192.696 56.1608C193.296 56.4027 193.966 56.4027 194.566 56.1608C196.048 55.5429 197.572 55.0309 199.126 54.6286C199.75 54.4673 200.291 54.0765 200.64 53.5342L202.236 50.9624C202.477 50.5736 202.819 50.2573 203.225 50.047C203.631 49.8366 204.087 49.7401 204.543 49.7677ZM185.619 86.5851C185.324 90.9931 186.343 95.3896 188.547 99.2186C190.75 103.048 194.04 106.137 198 108.096C201.96 110.055 206.411 110.796 210.792 110.225C215.173 109.653 219.286 107.796 222.611 104.887C225.936 101.978 228.323 98.148 229.472 93.8819C230.62 89.6159 230.477 85.1051 229.061 80.9202C227.646 76.7353 225.021 73.0642 221.518 70.3713C218.016 67.6784 213.794 66.0846 209.386 65.7915C203.478 65.4011 197.656 67.3717 193.2 71.2705C188.744 75.1693 186.017 80.6774 185.619 86.5851Z" fill="#3F97FF"/>
<path d="M251.21 99.5446L255.25 98.1766C255.464 98.1064 255.693 98.0948 255.912 98.1429C256.132 98.191 256.335 98.2972 256.5 98.4503L257.165 99.0886C257.399 99.2978 257.7 99.4145 258.014 99.417C258.569 99.4165 259.123 99.453 259.673 99.5264C259.832 99.5523 259.995 99.5463 260.151 99.5087C260.308 99.4711 260.456 99.4027 260.585 99.3075L261.333 98.7694C261.518 98.64 261.733 98.5624 261.958 98.5447C262.183 98.5271 262.408 98.57 262.61 98.6691L266.431 100.566C266.632 100.665 266.803 100.816 266.925 101.004C267.047 101.192 267.116 101.409 267.124 101.633V102.545C267.136 102.861 267.267 103.16 267.489 103.384C267.883 103.775 268.248 104.192 268.584 104.634C268.775 104.882 269.051 105.051 269.359 105.108L270.271 105.254C270.492 105.291 270.7 105.388 270.87 105.534C271.04 105.68 271.167 105.87 271.238 106.084L272.606 110.124C272.68 110.336 272.695 110.565 272.648 110.786C272.601 111.006 272.495 111.209 272.341 111.373L271.703 112.039C271.492 112.271 271.375 112.574 271.374 112.887C271.375 113.442 271.338 113.997 271.265 114.547C271.238 114.705 271.243 114.867 271.279 115.024C271.315 115.18 271.382 115.328 271.475 115.459L272.013 116.207C272.146 116.388 272.226 116.602 272.245 116.825C272.265 117.049 272.222 117.274 272.122 117.475L270.225 121.305C270.127 121.506 269.975 121.677 269.787 121.799C269.6 121.921 269.382 121.99 269.158 121.998H268.246C267.933 122.008 267.635 122.139 267.416 122.363C267.019 122.749 266.602 123.114 266.167 123.457C265.918 123.648 265.749 123.924 265.693 124.232L265.547 125.144C265.51 125.366 265.413 125.573 265.267 125.744C265.12 125.914 264.93 126.041 264.717 126.111L260.677 127.479C260.463 127.552 260.234 127.566 260.014 127.517C259.793 127.469 259.59 127.361 259.427 127.206L258.752 126.576C258.523 126.36 258.219 126.242 257.904 126.248C257.352 126.248 256.801 126.212 256.253 126.139C256.095 126.111 255.933 126.116 255.776 126.152C255.62 126.188 255.472 126.255 255.341 126.348L254.594 126.886C254.411 127.019 254.195 127.1 253.97 127.119C253.745 127.138 253.519 127.096 253.317 126.996L249.496 125.099C249.293 124.999 249.122 124.847 248.999 124.657C248.877 124.468 248.809 124.248 248.802 124.023V123.111C248.788 122.798 248.658 122.503 248.438 122.281C248.046 121.888 247.681 121.471 247.343 121.031C247.252 120.905 247.136 120.798 247.003 120.717C246.87 120.636 246.722 120.581 246.568 120.557L245.656 120.411C245.435 120.371 245.228 120.273 245.056 120.127C244.885 119.982 244.755 119.793 244.68 119.581L243.312 115.532C243.242 115.32 243.23 115.093 243.278 114.874C243.326 114.656 243.433 114.455 243.586 114.292L244.224 113.626C244.435 113.39 244.552 113.085 244.552 112.769C244.552 112.214 244.589 111.659 244.662 111.109C244.712 110.788 244.633 110.46 244.443 110.197L243.914 109.449C243.781 109.268 243.701 109.054 243.681 108.831C243.662 108.607 243.705 108.382 243.805 108.181L245.702 104.351C245.799 104.15 245.95 103.979 246.139 103.858C246.327 103.738 246.545 103.671 246.769 103.667H247.681C247.996 103.655 248.296 103.525 248.52 103.302C248.912 102.911 249.33 102.545 249.769 102.208C250.018 102.017 250.187 101.741 250.243 101.432L250.389 100.52C250.424 100.298 250.519 100.09 250.663 99.918C250.808 99.746 250.997 99.6169 251.21 99.5446ZM253.627 114.301C253.917 115.154 254.454 115.902 255.169 116.45C255.884 116.999 256.746 117.323 257.645 117.382C258.544 117.441 259.441 117.232 260.221 116.782C261.002 116.332 261.632 115.661 262.031 114.853C262.431 114.045 262.582 113.137 262.466 112.244C262.349 111.35 261.971 110.511 261.378 109.832C260.785 109.153 260.005 108.665 259.135 108.43C258.265 108.195 257.345 108.222 256.491 108.51C255.922 108.701 255.396 109.003 254.944 109.397C254.492 109.792 254.122 110.273 253.856 110.811C253.59 111.349 253.433 111.934 253.394 112.533C253.354 113.132 253.434 113.733 253.627 114.301Z" fill="#3F97FF"/>
<path opacity="0.5" d="M251.21 99.5446L255.25 98.1766C255.464 98.1064 255.693 98.0948 255.912 98.1429C256.132 98.191 256.335 98.2972 256.5 98.4503L257.165 99.0886C257.399 99.2978 257.7 99.4145 258.014 99.417C258.569 99.4165 259.123 99.453 259.673 99.5264C259.832 99.5523 259.995 99.5463 260.151 99.5087C260.308 99.4711 260.456 99.4027 260.585 99.3075L261.333 98.7694C261.518 98.64 261.733 98.5624 261.958 98.5447C262.183 98.5271 262.408 98.57 262.61 98.6691L266.431 100.566C266.632 100.665 266.803 100.816 266.925 101.004C267.047 101.192 267.116 101.409 267.124 101.633V102.545C267.136 102.861 267.267 103.16 267.489 103.384C267.883 103.775 268.248 104.192 268.584 104.634C268.775 104.882 269.051 105.051 269.359 105.108L270.271 105.254C270.492 105.291 270.7 105.388 270.87 105.534C271.04 105.68 271.167 105.87 271.238 106.084L272.606 110.124C272.68 110.336 272.695 110.565 272.648 110.786C272.601 111.006 272.495 111.209 272.341 111.373L271.703 112.039C271.492 112.271 271.375 112.574 271.374 112.887C271.375 113.442 271.338 113.997 271.265 114.547C271.238 114.705 271.243 114.867 271.279 115.024C271.315 115.18 271.382 115.328 271.475 115.459L272.013 116.207C272.146 116.388 272.226 116.602 272.245 116.825C272.265 117.049 272.222 117.274 272.122 117.475L270.225 121.305C270.127 121.506 269.975 121.677 269.787 121.799C269.6 121.921 269.382 121.99 269.158 121.998H268.246C267.933 122.008 267.635 122.139 267.416 122.363C267.019 122.749 266.602 123.114 266.167 123.457C265.918 123.648 265.749 123.924 265.693 124.232L265.547 125.144C265.51 125.366 265.413 125.573 265.267 125.744C265.12 125.914 264.93 126.041 264.717 126.111L260.677 127.479C260.463 127.552 260.234 127.566 260.014 127.517C259.793 127.469 259.59 127.361 259.427 127.206L258.752 126.576C258.523 126.36 258.219 126.242 257.904 126.248C257.352 126.248 256.801 126.212 256.253 126.139C256.095 126.111 255.933 126.116 255.776 126.152C255.62 126.188 255.472 126.255 255.341 126.348L254.594 126.886C254.411 127.019 254.195 127.1 253.97 127.119C253.745 127.138 253.519 127.096 253.317 126.996L249.496 125.099C249.293 124.999 249.122 124.847 248.999 124.657C248.877 124.468 248.809 124.248 248.802 124.023V123.111C248.788 122.798 248.658 122.503 248.438 122.281C248.046 121.888 247.681 121.471 247.343 121.031C247.252 120.905 247.136 120.798 247.003 120.717C246.87 120.636 246.722 120.581 246.568 120.557L245.656 120.411C245.435 120.371 245.228 120.273 245.056 120.127C244.885 119.982 244.755 119.793 244.68 119.581L243.312 115.532C243.242 115.32 243.23 115.093 243.278 114.874C243.326 114.656 243.433 114.455 243.586 114.292L244.224 113.626C244.435 113.39 244.552 113.085 244.552 112.769C244.552 112.214 244.589 111.659 244.662 111.109C244.712 110.788 244.633 110.46 244.443 110.197L243.914 109.449C243.781 109.268 243.701 109.054 243.681 108.831C243.662 108.607 243.705 108.382 243.805 108.181L245.702 104.351C245.799 104.15 245.95 103.979 246.139 103.858C246.327 103.738 246.545 103.671 246.769 103.667H247.681C247.996 103.655 248.296 103.525 248.52 103.302C248.912 102.911 249.33 102.545 249.769 102.208C250.018 102.017 250.187 101.741 250.243 101.432L250.389 100.52C250.424 100.298 250.519 100.09 250.663 99.918C250.808 99.746 250.997 99.6169 251.21 99.5446ZM253.627 114.301C253.917 115.154 254.454 115.902 255.169 116.45C255.884 116.999 256.746 117.323 257.645 117.382C258.544 117.441 259.441 117.232 260.221 116.782C261.002 116.332 261.632 115.661 262.031 114.853C262.431 114.045 262.582 113.137 262.466 112.244C262.349 111.35 261.971 110.511 261.378 109.832C260.785 109.153 260.005 108.665 259.135 108.43C258.265 108.195 257.345 108.222 256.491 108.51C255.922 108.701 255.396 109.003 254.944 109.397C254.492 109.792 254.122 110.273 253.856 110.811C253.59 111.349 253.433 111.934 253.394 112.533C253.354 113.132 253.434 113.733 253.627 114.301Z" fill="white"/>
<path d="M227.908 143.339L232.924 134.647C233.11 134.324 233.208 133.958 233.209 133.585C233.21 133.212 233.113 132.846 232.929 132.521C232.745 132.197 232.479 131.927 232.159 131.737C231.838 131.546 231.473 131.443 231.1 131.437H221.068C220.694 131.441 220.328 131.542 220.006 131.732C219.683 131.921 219.416 132.192 219.232 132.517C219.047 132.842 218.951 133.21 218.953 133.584C218.955 133.958 219.056 134.325 219.244 134.647L224.26 143.339C224.452 143.65 224.721 143.907 225.04 144.085C225.359 144.263 225.719 144.357 226.084 144.357C226.45 144.357 226.81 144.263 227.129 144.085C227.448 143.907 227.716 143.65 227.908 143.339Z" fill="#3F97FF"/>
<path d="M63.5571 242.455H186.504C186.926 242.457 187.344 242.373 187.733 242.209C188.122 242.045 188.474 241.804 188.768 241.501C189.062 241.198 189.291 240.839 189.443 240.445C189.594 240.051 189.665 239.63 189.65 239.208L186.741 151.31C186.701 150.44 186.331 149.618 185.705 149.013C185.08 148.408 184.246 148.065 183.376 148.054H60.4381C60.0148 148.051 59.5953 148.134 59.2051 148.298C58.8148 148.462 58.462 148.704 58.1678 149.008C57.8736 149.313 57.6443 149.673 57.4937 150.069C57.3431 150.465 57.2744 150.887 57.2917 151.31L60.1918 239.208C60.227 240.079 60.5965 240.902 61.2234 241.507C61.8502 242.111 62.6861 242.451 63.5571 242.455Z" fill="#407BFF"/>
<path d="M64.5602 242.455H187.507C187.929 242.457 188.347 242.373 188.736 242.209C189.125 242.045 189.477 241.804 189.771 241.501C190.065 241.198 190.294 240.839 190.446 240.445C190.597 240.051 190.668 239.63 190.653 239.208L187.744 151.31C187.705 150.44 187.334 149.619 186.708 149.013C186.083 148.408 185.249 148.065 184.379 148.054H61.4411C61.0182 148.052 60.5993 148.136 60.2097 148.301C59.82 148.465 59.4677 148.707 59.1738 149.011C58.8799 149.315 58.6505 149.676 58.4994 150.071C58.3484 150.466 58.2787 150.887 58.2947 151.31L61.204 239.208C61.2391 240.077 61.6073 240.899 62.2322 241.503C62.8571 242.108 63.6907 242.449 64.5602 242.455Z" fill="#407BFF"/>
<g opacity="0.6">
<path d="M64.5602 242.455H187.507C187.929 242.457 188.347 242.373 188.736 242.209C189.125 242.045 189.477 241.804 189.771 241.501C190.065 241.198 190.294 240.839 190.446 240.445C190.597 240.051 190.668 239.63 190.653 239.208L187.744 151.31C187.705 150.44 187.334 149.619 186.708 149.013C186.083 148.408 185.249 148.065 184.379 148.054H61.4411C61.0182 148.052 60.5993 148.136 60.2097 148.301C59.82 148.465 59.4677 148.707 59.1738 149.011C58.8799 149.315 58.6505 149.676 58.4994 150.071C58.3484 150.466 58.2787 150.887 58.2947 151.31L61.204 239.208C61.2391 240.077 61.6073 240.899 62.2322 241.503C62.8571 242.108 63.6907 242.449 64.5602 242.455Z" fill="#263238"/>
</g>
<path d="M66.1471 242.3H214.63C215.36 242.3 216.076 242.505 216.695 242.892C217.314 243.279 217.812 243.832 218.132 244.489C218.214 244.661 218.251 244.85 218.239 245.04C218.228 245.23 218.168 245.414 218.066 245.574C217.964 245.735 217.823 245.867 217.655 245.958C217.488 246.049 217.301 246.096 217.11 246.094H63.6665C63.4754 246.097 63.2868 246.051 63.1184 245.961C62.95 245.871 62.8074 245.739 62.7042 245.578C62.601 245.418 62.5405 245.233 62.5286 245.043C62.5166 244.852 62.5536 244.661 62.6359 244.489C62.9573 243.832 63.4568 243.278 64.0776 242.891C64.6985 242.504 65.4155 242.299 66.1471 242.3Z" fill="#407BFF"/>
<path opacity="0.6" d="M214.63 242.3H96.1427C95.4112 242.299 94.6941 242.504 94.0732 242.891C93.4524 243.278 92.9529 243.832 92.6315 244.489C92.5492 244.661 92.5122 244.852 92.5242 245.043C92.5361 245.233 92.5966 245.418 92.6998 245.578C92.803 245.739 92.9456 245.871 93.114 245.961C93.2824 246.051 93.4711 246.097 93.6621 246.094H217.11C217.301 246.096 217.488 246.049 217.655 245.958C217.823 245.867 217.964 245.735 218.066 245.574C218.168 245.414 218.228 245.23 218.239 245.04C218.251 244.85 218.214 244.661 218.132 244.489C217.812 243.832 217.314 243.279 216.695 242.892C216.076 242.505 215.36 242.3 214.63 242.3Z" fill="#263238"/>
<path opacity="0.3" d="M143.804 244.708H174.63C174.996 244.71 175.346 244.857 175.604 245.117C175.862 245.377 176.007 245.728 176.007 246.094H142.418C142.418 245.726 142.564 245.374 142.824 245.114C143.084 244.854 143.437 244.708 143.804 244.708Z" fill="white"/>
<path opacity="0.9" d="M187.717 236.026L184.981 154.493C184.964 154.154 184.819 153.834 184.575 153.598C184.331 153.363 184.006 153.229 183.667 153.225H62.4534C62.2862 153.223 62.1204 153.256 61.9666 153.322C61.8127 153.387 61.6741 153.484 61.5593 153.605C61.4445 153.727 61.3562 153.871 61.2997 154.028C61.2433 154.186 61.22 154.353 61.2313 154.52L63.9673 236.053C63.9791 236.392 64.1214 236.713 64.3644 236.949C64.6075 237.185 64.9325 237.318 65.2715 237.321H186.567C186.728 237.311 186.885 237.27 187.03 237.2C187.175 237.13 187.304 237.032 187.411 236.912C187.518 236.791 187.6 236.651 187.652 236.499C187.705 236.347 187.726 236.186 187.717 236.026Z" fill="white"/>
<path d="M87.7887 237.293H71.0718L90.3423 153.225H107.059L87.7887 237.293Z" fill="white"/>
<path d="M98.4411 237.293H92.4219L111.692 153.225H117.712L98.4411 237.293Z" fill="white"/>
<path d="M159.937 237.293H153.918L173.189 153.225H179.199L159.937 237.293Z" fill="white"/>
<path opacity="0.4" d="M122.043 150.781C122.066 151.028 122.179 151.257 122.361 151.426C122.543 151.594 122.781 151.689 123.028 151.693C123.27 151.693 123.502 151.597 123.673 151.426C123.844 151.255 123.94 151.023 123.94 150.781C123.922 150.532 123.81 150.3 123.627 150.131C123.445 149.962 123.205 149.868 122.955 149.869C122.714 149.869 122.482 149.965 122.311 150.136C122.14 150.307 122.043 150.539 122.043 150.781Z" fill="white"/>
<path d="M161.187 141.807C162.801 144.397 164.543 147.142 166.285 149.787C168.027 152.432 169.814 155.076 171.638 157.666C175.177 162.813 179.005 167.754 183.102 172.468C185.027 174.669 187.115 176.72 189.349 178.606L190.134 179.226C190.305 179.373 190.485 179.51 190.672 179.637C191.144 179.947 191.635 180.23 192.14 180.485C193.371 181.084 194.645 181.59 195.952 181.999C197.329 182.464 198.779 182.911 200.257 183.248C201.734 183.585 203.257 183.978 204.817 184.297C207.872 184.944 211.064 185.537 214.137 186.066V192.45C212.386 192.705 210.745 192.833 209.039 192.952C207.334 193.07 205.647 193.116 203.932 193.125C200.431 193.137 196.936 192.859 193.481 192.295C191.61 191.97 189.766 191.506 187.963 190.909C186.954 190.563 185.973 190.142 185.026 189.65C184.525 189.413 183.996 189.076 183.485 188.738L182.309 187.917C179.406 185.785 176.69 183.408 174.192 180.813C169.486 175.902 165.131 170.666 161.159 165.145C159.183 162.439 157.28 159.703 155.45 156.937C153.626 154.128 151.802 151.374 150.106 148.382L161.187 141.807Z" fill="#FFC3BD"/>
<path d="M145.838 143.576C144.926 151.583 164.014 170.717 164.014 170.717L176.928 159.937C173.143 153.533 168.955 147.377 164.388 141.506C157.046 132.413 146.832 134.52 145.838 143.576Z" fill="#407BFF"/>
<path opacity="0.3" d="M156.271 149.258C151.173 143.786 148.738 142.372 145.801 144.552C146.193 153.006 164.041 170.699 164.041 170.699C165.209 161.625 160.585 155.788 156.271 149.258Z" fill="black"/>
<path d="M175.879 156.244L177.238 160.183L162.792 172.039L159.938 169.075L175.879 156.244Z" fill="#407BFF"/>
<path opacity="0.3" d="M175.879 156.244L177.238 160.183L162.792 172.039L159.938 169.075L175.879 156.244Z" fill="#263238"/>
<path d="M213.453 185.938L223.485 187.662L217.968 196.472C216.654 196.682 211.42 193.846 209.103 190.325L213.453 185.938Z" fill="#FFC3BD"/>
<path d="M229.641 193.608L225.638 198.15L217.958 196.426L223.467 187.662L229.641 193.608Z" fill="#FFC3BD"/>
<path d="M156.226 135.906C156.226 135.906 167.17 161.643 159.29 209.577H113.69C113.134 202.582 116.344 168.446 108.455 135.468C113.475 134.494 118.554 133.852 123.658 133.544C130.113 133.17 136.584 133.17 143.038 133.544C147.488 133.99 151.897 134.78 156.226 135.906Z" fill="#407BFF"/>
<path opacity="0.3" d="M118.642 143.576C119.554 149.048 118.332 161.98 113.681 176.992C113.324 164.116 111.826 151.298 109.203 138.688V138.624C112.176 138.378 117.739 138.524 118.642 143.576Z" fill="black"/>
<path d="M124.816 111.72C126.257 117.958 127.871 129.385 123.658 133.544C123.658 133.544 125.482 138.706 137.064 138.706C149.832 138.706 143.038 133.544 143.038 133.544C136.024 131.884 136.024 126.722 137.064 121.88L124.816 111.72Z" fill="#FFC3BD"/>
<path d="M137.849 139.189L140.585 142.08C140.667 142.166 140.722 142.274 140.742 142.392C140.762 142.509 140.745 142.629 140.694 142.737L139.326 145.592C139.282 145.689 139.212 145.772 139.123 145.832C139.035 145.891 138.931 145.925 138.824 145.929L136.754 146.029C136.656 146.033 136.558 146.012 136.47 145.967C136.382 145.923 136.307 145.856 136.253 145.774L134.337 143.038C134.26 142.935 134.219 142.811 134.219 142.682C134.219 142.554 134.26 142.429 134.337 142.327L136.964 139.217C137.016 139.15 137.082 139.096 137.157 139.057C137.232 139.019 137.315 138.998 137.4 138.995C137.484 138.992 137.568 139.008 137.646 139.042C137.723 139.076 137.793 139.126 137.849 139.189Z" fill="white"/>
<path d="M137.402 138.706C136.085 140.824 135.323 143.239 135.185 145.728C135.185 145.728 120.384 140.667 121.059 133.261C122.373 132.624 123.638 131.889 124.843 131.063C124.843 131.063 125.327 135.742 137.402 138.706Z" fill="#263238"/>
<path d="M137.402 138.706C138.719 140.714 139.667 142.941 140.202 145.281C140.202 145.281 147.06 140.585 145.108 133.261L141.077 132.395C141.077 132.395 141.925 137.119 137.402 138.706Z" fill="#263238"/>
<path d="M139.08 145.619C139.992 148.647 146.868 171.1 147.041 176.472C147.046 176.517 147.046 176.563 147.041 176.609C146.403 179.5 143.539 184.57 142.372 186.559C142.327 186.637 142.261 186.702 142.182 186.744C142.102 186.787 142.012 186.807 141.922 186.801C141.831 186.796 141.745 186.765 141.671 186.712C141.598 186.66 141.54 186.587 141.506 186.504C140.703 184.543 138.77 179.846 137.493 177.101C137.469 177.049 137.454 176.994 137.447 176.937C136.845 167.133 136.681 151.884 136.38 145.792C136.376 145.726 136.386 145.661 136.409 145.599C136.431 145.537 136.466 145.48 136.512 145.433C136.557 145.385 136.612 145.347 136.672 145.321C136.733 145.295 136.798 145.281 136.864 145.281H138.624C138.726 145.283 138.825 145.316 138.906 145.376C138.988 145.437 139.049 145.522 139.08 145.619Z" fill="white"/>
<path opacity="0.2" d="M129.814 115.86L137.064 121.87C136.802 123 136.64 124.151 136.581 125.309C133.909 124.926 130.197 122.016 129.787 119.235C129.586 118.118 129.595 116.974 129.814 115.86Z" fill="black"/>
<path d="M142.673 93.1789C144.397 94.4648 147.343 99.9003 143.585 101.323C139.828 102.746 138.451 90.0234 142.673 93.1789Z" fill="#263238"/>
<path d="M122.572 104.241C124.296 112.55 124.889 117.484 129.75 121.305C131.316 122.566 133.198 123.375 135.191 123.644C137.184 123.913 139.213 123.632 141.058 122.83C142.902 122.029 144.493 120.739 145.657 119.099C146.821 117.459 147.514 115.531 147.662 113.526C148.373 105.819 145.418 93.5345 136.718 91.1086C134.848 90.5358 132.862 90.4644 130.956 90.9015C129.051 91.3385 127.293 92.2688 125.861 93.5989C124.428 94.9291 123.37 96.6125 122.793 98.4803C122.216 100.348 122.14 102.335 122.572 104.241Z" fill="#FFC3BD"/>
<path d="M123.658 110.498L127.142 108.172L127.37 106.148C127.69 103.212 127.141 100.247 125.792 97.6204C125.792 97.6204 142.728 98.2496 144.825 92.9509C146.923 87.6522 140.958 83.6667 140.958 83.6667C140.958 83.6667 134.967 87.105 130.926 87.3786C126.886 87.6522 114.51 82.5997 114.51 93.0604C109.038 94.7476 109.221 103.749 123.63 110.498" fill="#263238"/>
<path d="M115.121 93.4708C115.121 93.4708 112.878 91.6924 114.547 86.2568C112.495 87.2783 111.51 92.8324 115.121 93.4708Z" fill="#263238"/>
<path d="M120.119 113.881C121.499 115.531 123.456 116.591 125.591 116.845C128.419 117.146 129.239 114.538 128.017 112.139C126.886 109.987 124.059 107.233 121.451 108.044C118.842 108.856 118.432 111.829 120.119 113.881Z" fill="#FFC3BD"/>
<path d="M163.138 237.293H134C131.383 221.479 129.276 209.578 129.276 209.578H159.29C159.29 209.578 160.977 221.278 163.138 237.293Z" fill="#263238"/>
<path d="M114.802 237.293C114.146 221.479 113.653 209.578 113.653 209.578H143.074C143.074 209.578 143.22 221.625 143.284 237.293H114.802Z" fill="#263238"/>
<path d="M135.642 105.181C135.742 105.865 136.18 106.376 136.627 106.33C137.074 106.284 137.356 105.682 137.256 105.008C137.156 104.333 136.718 103.813 136.271 103.858C135.824 103.904 135.541 104.497 135.642 105.181Z" fill="#263238"/>
<path d="M143.366 104.36C143.467 105.044 143.904 105.555 144.351 105.5C144.798 105.445 145.081 104.862 144.981 104.187C144.88 103.512 144.443 102.992 143.996 103.038C143.549 103.083 143.266 103.649 143.366 104.36Z" fill="#263238"/>
<path d="M140.958 104.944C142.078 106.942 143.458 108.782 145.062 110.416C144.023 111.674 141.889 111.382 141.889 111.382L140.958 104.944Z" fill="#ED847E"/>
<path d="M138.752 113.48C139.221 113.53 139.695 113.53 140.165 113.48C140.192 113.478 140.217 113.47 140.241 113.458C140.264 113.446 140.285 113.429 140.302 113.409C140.319 113.388 140.332 113.365 140.34 113.339C140.347 113.314 140.35 113.287 140.348 113.261C140.341 113.207 140.313 113.158 140.271 113.124C140.228 113.09 140.174 113.074 140.12 113.079C139.26 113.188 138.388 113.098 137.569 112.817C136.749 112.536 136.006 112.07 135.395 111.455C135.378 111.435 135.357 111.418 135.333 111.406C135.309 111.394 135.283 111.387 135.257 111.384C135.23 111.382 135.203 111.385 135.178 111.394C135.152 111.402 135.129 111.415 135.108 111.433C135.088 111.45 135.071 111.471 135.059 111.495C135.047 111.519 135.039 111.545 135.037 111.571C135.035 111.598 135.038 111.625 135.047 111.65C135.055 111.676 135.068 111.699 135.085 111.72C136.059 112.724 137.359 113.349 138.752 113.48Z" fill="#263238"/>
<path d="M132.851 102.956C132.929 102.965 133.008 102.951 133.078 102.915C133.148 102.88 133.205 102.824 133.243 102.755C133.477 102.314 133.815 101.937 134.229 101.657C134.642 101.378 135.118 101.203 135.614 101.15C135.721 101.143 135.822 101.094 135.893 101.014C135.965 100.934 136.002 100.828 135.997 100.721C135.995 100.668 135.982 100.617 135.96 100.569C135.937 100.521 135.906 100.478 135.867 100.443C135.828 100.407 135.782 100.379 135.733 100.362C135.683 100.344 135.63 100.336 135.578 100.338C134.945 100.401 134.338 100.617 133.809 100.969C133.279 101.32 132.844 101.795 132.541 102.354C132.513 102.4 132.496 102.452 132.489 102.505C132.482 102.558 132.486 102.613 132.5 102.665C132.515 102.717 132.539 102.765 132.573 102.807C132.607 102.849 132.648 102.884 132.696 102.91C132.742 102.939 132.796 102.954 132.851 102.956Z" fill="#263238"/>
<path d="M146.257 101.323C146.354 101.33 146.451 101.305 146.531 101.25C146.617 101.189 146.677 101.097 146.697 100.994C146.718 100.89 146.697 100.783 146.64 100.694C146.294 100.146 145.824 99.6861 145.268 99.352C144.712 99.0179 144.086 98.8184 143.439 98.7694C143.333 98.7693 143.232 98.81 143.155 98.8831C143.079 98.9562 143.034 99.0559 143.029 99.1616C143.029 99.2689 143.071 99.3719 143.146 99.4486C143.221 99.5253 143.323 99.5696 143.43 99.572C143.945 99.6204 144.442 99.7872 144.882 100.059C145.321 100.331 145.692 100.701 145.965 101.141C145.999 101.19 146.042 101.231 146.092 101.262C146.142 101.294 146.199 101.314 146.257 101.323Z" fill="#263238"/>
<path d="M117.164 148.282L115.14 151.784C114.459 153 113.793 154.216 113.143 155.432C111.829 157.864 110.571 160.314 109.367 162.783C108.181 165.254 107.05 167.735 106.038 170.234C105.555 171.474 105.062 172.724 104.643 173.973L103.995 175.843L103.457 177.667L103.32 178.132L103.247 178.369C103.247 178.451 103.247 178.369 103.247 178.424C103.247 178.478 103.247 178.524 103.184 178.624C103.146 178.982 103.146 179.343 103.184 179.7C103.298 180.785 103.524 181.854 103.858 182.892C104.659 185.39 105.634 187.828 106.777 190.188C109.084 195.141 111.893 200.138 114.656 205.017L109.613 208.957C107.461 206.796 105.527 204.598 103.63 202.281C101.733 199.965 99.9824 197.557 98.2587 194.985C96.503 192.358 94.9773 189.585 93.6987 186.695C92.9699 185.047 92.4077 183.33 92.0206 181.57C91.7939 180.506 91.6778 179.421 91.6741 178.332C91.6667 177.679 91.7155 177.026 91.82 176.381L91.893 175.906L91.9568 175.615L92.0754 175.022C92.6663 171.931 93.4677 168.884 94.4739 165.902C95.4406 162.965 96.5715 160.138 97.7754 157.347C98.9792 154.557 100.302 151.875 101.715 149.194C102.427 147.872 103.147 146.558 103.904 145.245C104.661 143.932 105.409 142.691 106.312 141.296L117.164 148.282Z" fill="#FFC3BD"/>
<path d="M108.464 135.468C100.438 136.645 92.1665 164.589 92.1665 164.589L109.44 174.155C109.44 174.155 116.435 160.858 119.773 150.991C123.266 140.649 117.064 134.21 108.464 135.468Z" fill="#407BFF"/>
<path d="M92.5221 160.649L91.7925 164.753L109.54 174.52L111.902 171.137L92.5221 160.649Z" fill="#407BFF"/>
<path opacity="0.3" d="M92.5221 160.649L91.7925 164.753L109.54 174.52L111.902 171.137L92.5221 160.649Z" fill="#263238"/>
<path d="M112.358 203.121L120.84 201.643L116.49 211.465C116.49 211.465 108.738 211.42 109.093 207.425L112.358 203.121Z" fill="#FFC3BD"/>
<path d="M127.178 206.577L123.184 214.511L116.49 211.465L120.84 201.643L127.178 206.577Z" fill="#FFC3BD"/>
<path d="M392.443 242.455H269.496C269.074 242.457 268.656 242.373 268.267 242.209C267.878 242.045 267.526 241.804 267.232 241.501C266.938 241.198 266.709 240.839 266.557 240.445C266.405 240.051 266.335 239.63 266.35 239.208L269.259 151.31C269.298 150.44 269.669 149.618 270.295 149.013C270.92 148.408 271.754 148.065 272.624 148.054H395.562C395.985 148.051 396.404 148.134 396.795 148.298C397.185 148.462 397.538 148.704 397.832 149.008C398.126 149.313 398.355 149.673 398.506 150.069C398.657 150.465 398.725 150.887 398.708 151.31L395.808 239.208C395.773 240.079 395.403 240.902 394.776 241.507C394.15 242.111 393.314 242.451 392.443 242.455Z" fill="#407BFF"/>
<path opacity="0.6" d="M392.443 242.455H269.496C269.074 242.457 268.656 242.373 268.267 242.209C267.878 242.045 267.526 241.804 267.232 241.501C266.938 241.198 266.709 240.839 266.557 240.445C266.405 240.051 266.335 239.63 266.35 239.208L269.259 151.31C269.298 150.44 269.669 149.618 270.295 149.013C270.92 148.408 271.754 148.065 272.624 148.054H395.562C395.985 148.051 396.404 148.134 396.795 148.298C397.185 148.462 397.538 148.704 397.832 149.008C398.126 149.313 398.355 149.673 398.506 150.069C398.657 150.465 398.725 150.887 398.708 151.31L395.808 239.208C395.773 240.079 395.403 240.902 394.776 241.507C394.15 242.111 393.314 242.451 392.443 242.455Z" fill="#263238"/>
<path d="M391.439 242.455H268.493C268.07 242.457 267.652 242.373 267.263 242.209C266.874 242.045 266.522 241.804 266.229 241.501C265.935 241.198 265.705 240.839 265.554 240.445C265.402 240.051 265.331 239.63 265.346 239.208L268.255 151.31C268.295 150.44 268.665 149.619 269.291 149.013C269.917 148.408 270.75 148.065 271.621 148.054H394.558C394.981 148.052 395.4 148.136 395.79 148.301C396.179 148.465 396.532 148.707 396.826 149.011C397.12 149.315 397.349 149.676 397.5 150.071C397.651 150.466 397.721 150.887 397.705 151.31L394.795 239.208C394.76 240.077 394.392 240.899 393.767 241.503C393.142 242.108 392.309 242.449 391.439 242.455Z" fill="#407BFF"/>
<path d="M389.853 242.3H241.37C240.64 242.3 239.924 242.505 239.305 242.892C238.686 243.279 238.188 243.832 237.868 244.489C237.786 244.661 237.749 244.85 237.76 245.04C237.772 245.23 237.832 245.414 237.934 245.574C238.036 245.735 238.177 245.867 238.344 245.958C238.511 246.049 238.699 246.096 238.889 246.094H392.333C392.524 246.097 392.713 246.051 392.881 245.961C393.05 245.871 393.192 245.739 393.296 245.578C393.399 245.418 393.459 245.233 393.471 245.043C393.483 244.852 393.446 244.661 393.364 244.489C393.042 243.832 392.543 243.278 391.922 242.891C391.301 242.504 390.584 242.299 389.853 242.3Z" fill="#407BFF"/>
<path opacity="0.6" d="M389.852 242.3H367.052C366.321 242.299 365.604 242.504 364.983 242.891C364.362 243.278 363.863 243.832 363.541 244.489C363.459 244.661 363.422 244.852 363.434 245.043C363.446 245.233 363.506 245.418 363.609 245.578C363.713 245.739 363.855 245.871 364.024 245.961C364.192 246.051 364.381 246.097 364.572 246.094H392.287C392.478 246.097 392.667 246.051 392.836 245.961C393.004 245.871 393.147 245.739 393.25 245.578C393.353 245.418 393.413 245.233 393.425 245.043C393.437 244.852 393.4 244.661 393.318 244.489C393 243.839 392.508 243.289 391.896 242.903C391.284 242.516 390.576 242.308 389.852 242.3Z" fill="#263238"/>
<path opacity="0.2" d="M312.196 244.708H281.37C281.004 244.71 280.654 244.857 280.396 245.117C280.138 245.377 279.993 245.728 279.993 246.094H313.582C313.582 245.726 313.436 245.374 313.176 245.114C312.916 244.854 312.564 244.708 312.196 244.708Z" fill="black"/>
<path opacity="0.9" d="M268.283 236.025L271.019 154.493C271.035 154.154 271.18 153.834 271.424 153.598C271.668 153.363 271.993 153.229 272.332 153.225H393.628C393.793 153.223 393.956 153.256 394.108 153.319C394.26 153.383 394.398 153.477 394.512 153.596C394.626 153.715 394.715 153.855 394.774 154.009C394.832 154.164 394.858 154.328 394.85 154.493L392.114 236.025C392.103 236.364 391.96 236.685 391.717 236.922C391.474 237.158 391.149 237.291 390.81 237.293H269.514C269.349 237.294 269.185 237.262 269.033 237.199C268.881 237.135 268.743 237.041 268.628 236.922C268.513 236.804 268.423 236.663 268.363 236.509C268.304 236.355 268.277 236.19 268.283 236.025Z" fill="white"/>
<path d="M354.512 237.293H337.795L357.066 153.225H373.783L354.512 237.293Z" fill="white"/>
<path d="M281.926 237.293H275.907L295.178 153.225H301.188L281.926 237.293Z" fill="white"/>
<path d="M368.22 237.293H362.201L381.471 153.225H387.49L368.22 237.293Z" fill="white"/>
<path opacity="0.4" d="M333.956 150.781C333.934 151.028 333.82 151.257 333.639 151.426C333.457 151.594 333.219 151.689 332.971 151.693C332.729 151.693 332.497 151.597 332.326 151.426C332.155 151.255 332.059 151.023 332.059 150.781C332.078 150.532 332.189 150.3 332.372 150.131C332.555 149.962 332.795 149.868 333.044 149.869C333.286 149.869 333.518 149.965 333.689 150.136C333.86 150.307 333.956 150.539 333.956 150.781Z" fill="black"/>
<path d="M325.091 111.72C323.66 117.958 322.036 129.385 326.259 133.544C326.259 133.544 324.435 138.706 312.852 138.706C300.084 138.706 306.879 133.544 306.879 133.544C313.892 131.884 313.892 126.722 312.843 121.88L325.091 111.72Z" fill="#B55B52"/>
<path d="M343.65 141.351C344.562 142.746 345.31 143.968 346.058 145.3C346.806 146.631 347.545 147.926 348.256 149.249C349.661 151.912 350.992 154.62 352.196 157.402C353.4 160.184 354.531 163.02 355.488 165.956C356.498 168.938 357.302 171.985 357.896 175.076L358.014 175.669L358.069 175.961L358.151 176.435C358.247 177.082 358.296 177.734 358.297 178.387C358.284 179.475 358.168 180.559 357.951 181.625C357.561 183.385 356.995 185.102 356.263 186.75C354.989 189.641 353.463 192.415 351.703 195.04C350.007 197.585 348.22 199.992 346.323 202.336C344.442 204.66 342.445 206.888 340.34 209.012L335.306 205.072C338.042 200.193 340.878 195.195 343.185 190.243C344.325 187.882 345.297 185.444 346.095 182.947C346.429 181.909 346.655 180.839 346.77 179.755C346.811 179.397 346.811 179.036 346.77 178.679C346.77 178.579 346.77 178.487 346.697 178.478V178.424L346.633 178.186L346.496 177.721L345.949 175.897L345.31 174.028C344.882 172.778 344.398 171.529 343.906 170.288C342.894 167.79 341.763 165.309 340.586 162.837C339.41 160.366 338.115 157.922 336.81 155.487C336.166 154.271 335.5 153.055 334.813 151.839L332.789 148.346L343.65 141.351Z" fill="#B65B52"/>
<path d="M341.453 135.468C349.478 136.645 357.741 164.589 357.741 164.589L340.477 174.155C340.477 174.155 333.473 160.904 330.144 150.991C326.642 140.649 332.88 134.21 341.453 135.468Z" fill="#6B3BF5"/>
<path opacity="0.3" d="M336.227 150.781L334.923 162.728C336.227 165.601 337.504 168.2 338.498 170.252C338.872 165.464 338.863 157.675 336.227 150.781Z" fill="black"/>
<path d="M357.386 160.649L358.124 164.753L340.377 174.52L338.015 171.137L357.386 160.649Z" fill="#407BFF"/>
<path opacity="0.3" d="M357.386 160.649L358.124 164.753L340.377 174.52L338.015 171.137L357.386 160.649Z" fill="#713FFF"/>
<path d="M337.559 203.121L329.068 201.643L333.427 211.465C333.427 211.465 341.17 211.42 340.814 207.425L337.559 203.121Z" fill="#B55B52"/>
<path d="M322.738 206.577L326.724 214.511L333.427 211.465L329.068 201.643L322.738 206.577Z" fill="#B55B52"/>
<path d="M293.664 135.906C293.664 135.906 282.72 161.643 290.609 209.577H336.209C336.765 202.582 333.546 168.446 341.444 135.468C336.429 134.496 331.357 133.853 326.259 133.544C319.804 133.17 313.333 133.17 306.879 133.544C302.419 133.989 298.001 134.778 293.664 135.906Z" fill="#713FFF"/>
<path opacity="0.3" d="M288.785 157.922C288.122 163.689 287.784 169.49 287.772 175.295C293.974 171.255 296.181 161.989 297.057 155.277L288.785 157.922Z" fill="black"/>
<path d="M299.847 148.391C298.105 151.383 296.345 154.137 294.503 156.946C292.661 159.755 290.773 162.482 288.794 165.154C284.819 170.675 280.461 175.911 275.752 180.822C273.255 183.415 270.543 185.791 267.645 187.927L266.459 188.747C265.948 189.057 265.419 189.395 264.927 189.659C263.977 190.149 262.992 190.57 261.981 190.918C260.179 191.516 258.334 191.979 256.463 192.304C253.008 192.869 249.513 193.146 246.012 193.134C244.306 193.134 242.601 193.134 240.914 192.961C239.227 192.787 237.558 192.715 235.807 192.459V186.075C238.88 185.546 242.072 184.953 245.118 184.306C246.65 183.987 248.173 183.64 249.678 183.257C251.183 182.874 252.615 182.473 253.983 182.008C255.29 181.6 256.565 181.094 257.795 180.494C258.3 180.239 258.791 179.956 259.263 179.646C259.491 179.509 259.628 179.363 259.81 179.235L260.595 178.615C262.825 176.725 264.913 174.673 266.842 172.477C270.934 167.759 274.761 162.817 278.306 157.675C280.13 155.085 281.89 152.441 283.659 149.796C285.429 147.151 287.134 144.406 288.757 141.816L299.847 148.391Z" fill="#B65B52"/>
<path d="M304.07 143.576C304.982 151.583 287.125 171.009 287.125 171.009L272.998 159.956C276.778 153.551 280.963 147.394 285.529 141.524C292.861 132.413 303.058 134.52 304.07 143.576Z" fill="#6B3BF5"/>
<path d="M274.038 156.244L272.679 160.183L287.116 172.039L289.979 169.075L274.038 156.244Z" fill="#407BFF"/>
<path opacity="0.3" d="M274.038 156.244L272.679 160.183L287.116 172.039L289.979 169.075L274.038 156.244Z" fill="#713FFF"/>
<path d="M235.806 186.103L225.638 186.248L229.733 195.77C230.991 196.18 236.609 194.183 239.436 191.064L235.806 186.103Z" fill="#B55B52"/>
<path d="M218.625 191.182L224.179 198.15L229.733 195.761L225.638 186.248L218.625 191.182Z" fill="#B55B52"/>
<path d="M304.015 104.36C303.915 105.044 303.477 105.555 303.03 105.5C302.583 105.445 302.3 104.862 302.392 104.187C302.483 103.512 302.939 102.992 303.386 103.038C303.833 103.083 304.115 103.649 304.015 104.36Z" fill="#263238"/>
<path d="M304.206 104.944C303.086 106.943 301.703 108.784 300.093 110.416C301.142 111.674 303.276 111.382 303.276 111.382L304.206 104.944Z" fill="#A02724"/>
<path d="M303.048 109.978C301.525 109.978 300.148 107.78 299.902 104.971C299.669 103.41 300.048 101.819 300.96 100.53C301.116 100.341 301.311 100.188 301.531 100.081C301.751 99.9742 301.992 99.9156 302.237 99.9094C303.76 99.9094 305.137 102.098 305.383 104.907C305.625 106.469 305.252 108.065 304.343 109.358C304.186 109.545 303.99 109.696 303.771 109.803C303.551 109.91 303.311 109.969 303.066 109.978H303.048ZM302.227 100.365C302.051 100.375 301.879 100.422 301.722 100.502C301.565 100.582 301.427 100.694 301.315 100.831C300.501 102.033 300.174 103.5 300.403 104.935C300.622 107.424 301.854 109.495 303.139 109.495C303.316 109.483 303.488 109.435 303.645 109.353C303.802 109.272 303.941 109.158 304.051 109.02C304.871 107.824 305.198 106.357 304.963 104.925C304.699 102.463 303.468 100.365 302.227 100.365Z" fill="#263238"/>
<path d="M306.432 101.323C306.526 101.331 306.62 101.305 306.697 101.25C306.741 101.221 306.779 101.184 306.809 101.141C306.839 101.097 306.86 101.048 306.871 100.997C306.882 100.945 306.883 100.891 306.874 100.84C306.864 100.788 306.844 100.738 306.815 100.694C306.469 100.146 305.999 99.6861 305.443 99.352C304.887 99.0179 304.261 98.8184 303.614 98.7694C303.508 98.7693 303.407 98.81 303.33 98.8831C303.254 98.9562 303.208 99.0559 303.204 99.1616C303.204 99.2689 303.246 99.3719 303.321 99.4486C303.396 99.5253 303.498 99.5696 303.605 99.572C304.12 99.6204 304.617 99.7872 305.056 100.059C305.496 100.331 305.867 100.701 306.14 101.141C306.174 101.19 306.217 101.231 306.267 101.262C306.317 101.294 306.373 101.314 306.432 101.323Z" fill="#263238"/>
<path d="M327.344 104.241C325.611 112.55 325.027 117.484 320.157 121.305C318.591 122.564 316.71 123.37 314.718 123.638C312.726 123.905 310.699 123.624 308.856 122.823C307.013 122.022 305.424 120.732 304.26 119.094C303.097 117.455 302.403 115.53 302.255 113.526C301.543 105.819 304.489 93.5345 313.199 91.1086C315.068 90.5387 317.054 90.4694 318.958 90.9076C320.862 91.3458 322.618 92.2761 324.05 93.6055C325.481 94.935 326.539 96.617 327.117 98.4834C327.696 100.35 327.774 102.335 327.344 104.241Z" fill="#B55B52"/>
<path d="M338.671 237.293C339.098 227.988 338.286 218.668 336.254 209.577H306.833C309.118 218.637 310.248 227.95 310.198 237.293H338.671Z" fill="#407BFF"/>
<path opacity="0.3" d="M338.671 237.293C339.098 227.988 338.286 218.668 336.254 209.577H306.833C309.118 218.637 310.248 227.95 310.198 237.293H338.671Z" fill="#FF86AB"/>
<path d="M309.323 106.74C307.7 105.929 305.675 97.821 306.231 94.9391C306.788 92.0572 313.327 88.9564 319.756 90.1237C326.186 91.2911 328.949 93.5437 330.199 99.3988C331.485 105.473 326.797 115.587 324.48 116.371C323.107 116.857 321.646 117.046 320.195 116.923C318.743 116.8 317.335 116.37 316.063 115.66C313.992 114.392 312.916 105.071 309.323 106.74Z" fill="#263238"/>
<path d="M307.617 97.8483C304.48 98.0307 301.489 93.033 304.371 88.5733C305.198 87.3021 306.375 86.2966 307.759 85.6771C309.144 85.0576 310.678 84.8504 312.177 85.0803C312.177 85.0803 310.864 87.643 315.242 87.105C319.619 86.5669 327.772 87.789 330.618 90.8533C334.138 94.629 332.013 102.053 326.715 100.229C321.416 98.4046 307.617 97.8483 307.617 97.8483Z" fill="#263238"/>
<path d="M306.778 97.976C306.122 97.9447 305.48 97.774 304.895 97.4752C304.31 97.1764 303.796 96.7564 303.386 96.2432C302.566 95.2633 302.035 94.075 301.851 92.8109C301.668 91.5468 301.839 90.2565 302.346 89.084C302.357 89.0558 302.374 89.0302 302.395 89.0086C302.417 88.9869 302.442 88.9697 302.47 88.9578C302.498 88.9459 302.528 88.9397 302.558 88.9395C302.589 88.9392 302.619 88.9449 302.647 88.9563C302.675 88.9677 302.701 88.9845 302.722 89.0058C302.744 89.0271 302.761 89.0524 302.773 89.0803C302.785 89.1083 302.791 89.1383 302.791 89.1686C302.792 89.199 302.786 89.2291 302.775 89.2573C302.293 90.3496 302.128 91.5551 302.297 92.7367C302.466 93.9184 302.963 95.0289 303.732 95.9422C304.154 96.5079 304.724 96.9467 305.378 97.2104C306.033 97.4742 306.748 97.5529 307.444 97.4379C307.502 97.4263 307.562 97.4367 307.613 97.4671C307.663 97.4974 307.701 97.5456 307.718 97.6021C307.732 97.6612 307.723 97.7236 307.692 97.7762C307.661 97.8289 307.612 97.8677 307.553 97.8848C307.3 97.9465 307.039 97.9771 306.778 97.976Z" fill="#263238"/>
<path d="M314.476 105.691C314.609 107.846 313.914 109.97 312.533 111.629C310.709 113.79 308.274 112.486 307.535 109.887C306.87 107.543 307.025 103.603 309.478 102.39C311.931 101.177 314.284 103.056 314.476 105.691Z" fill="#B55B52"/>
<path d="M286.778 237.293H319.473C321.055 228.143 321.445 218.827 320.632 209.577H290.627C290.627 209.577 288.94 221.278 286.778 237.293Z" fill="#407BFF"/>
<path opacity="0.3" d="M286.778 237.293H319.473C321.055 228.143 321.445 218.827 320.632 209.577H290.627C290.627 209.577 288.94 221.278 286.778 237.293Z" fill="#FF86AB"/>
<path d="M401.601 0H268V53.4101H401.601V0Z" fill="#FEFEFF"/>
<path d="M401.601 0H268V53.4101H401.601V0Z" fill="#FEFEFF"/>
<path d="M296.5 42C305.613 42 313 34.3888 313 25C313 15.6112 305.613 8 296.5 8C287.387 8 280 15.6112 280 25C280 34.3888 287.387 42 296.5 42Z" fill="#D1D1FF"/>
<path d="M329.378 10.6129L330.896 13.692L334.294 14.189L331.836 16.5848L332.413 19.9745L329.378 18.3684L326.335 19.9745L326.92 16.5848L324.462 14.189L327.861 13.692L329.378 10.6129Z" fill="#FFB800"/>
<path d="M342.768 10.6129L344.285 13.692L347.684 14.189L345.226 16.5848L345.803 19.9745L342.768 18.3684L339.724 19.9745L340.301 16.5848L337.843 14.189L341.242 13.692L342.768 10.6129Z" fill="#FFB800"/>
<path d="M356.15 10.6129L357.677 13.692L361.075 14.189L358.617 16.5848L359.194 19.9745L356.15 18.3684L353.116 19.9745L353.692 16.5848L351.234 14.189L354.633 13.692L356.15 10.6129Z" fill="#FFB800"/>
<path d="M369.54 10.6129L371.058 13.692L374.456 14.189L371.998 16.5848L372.584 19.9745L369.54 18.3684L366.497 19.9745L367.082 16.5848L364.625 14.189L368.023 13.692L369.54 10.6129Z" fill="#FFB800"/>
<path d="M382.93 10.6129L384.447 13.692L387.846 14.189L385.388 16.5848L385.964 19.9745L382.93 18.3684L379.886 19.9745L380.472 16.5848L378.005 14.189L381.403 13.692L382.93 10.6129Z" fill="#FFB800"/>
<path d="M387.855 26.7003H324.462V28.0314H387.855V26.7003Z" fill="#713FFF"/>
<path d="M361.527 30.7556H324.462V32.0867H361.527V30.7556Z" fill="#D9D4E7"/>
<path d="M379.186 34.8201H324.462V36.1511H379.186V34.8201Z" fill="#D9D4E7"/>
<path d="M374.465 38.8749H324.462V40.2059H374.465V38.8749Z" fill="#D9D4E7"/>
<path d="M129.601 144H-4V197.41H129.601V144Z" fill="#FEFEFF"/>
<path d="M129.601 144H-4V197.41H129.601V144Z" fill="#FEFEFF"/>
<path d="M24.5 186C33.6127 186 41 178.389 41 169C41 159.611 33.6127 152 24.5 152C15.3873 152 8 159.611 8 169C8 178.389 15.3873 186 24.5 186Z" fill="#D1D1FF"/>
<path d="M57.3784 154.613L58.8958 157.692L62.2943 158.189L59.8363 160.585L60.4132 163.975L57.3784 162.368L54.3347 163.975L54.9204 160.585L52.4624 158.189L55.861 157.692L57.3784 154.613Z" fill="#FFB800"/>
<path d="M70.7681 154.613L72.2855 157.692L75.6841 158.189L73.2261 160.585L73.8029 163.975L70.7681 162.368L67.7245 163.975L68.3012 160.585L65.8433 158.189L69.2418 157.692L70.7681 154.613Z" fill="#FFB800"/>
<path d="M84.1503 154.613L85.6766 157.692L89.0752 158.189L86.6172 160.585L87.194 163.975L84.1503 162.368L81.1156 163.975L81.6923 160.585L79.2344 158.189L82.6329 157.692L84.1503 154.613Z" fill="#FFB800"/>
<path d="M97.5405 154.613L99.0579 157.692L102.456 158.189L99.9985 160.585L100.584 163.975L97.5405 162.368L94.4968 163.975L95.0825 160.585L92.6245 158.189L96.0231 157.692L97.5405 154.613Z" fill="#FFB800"/>
<path d="M110.93 154.613L112.447 157.692L115.846 158.189L113.388 160.585L113.964 163.975L110.93 162.368L107.886 163.975L108.472 160.585L106.005 158.189L109.403 157.692L110.93 154.613Z" fill="#FFB800"/>
<path d="M115.855 170.7H52.4624V172.031H115.855V170.7Z" fill="#713FFF"/>
<path d="M89.5274 174.756H52.4624V176.087H89.5274V174.756Z" fill="#D9D4E7"/>
<path d="M107.186 178.82H52.4624V180.151H107.186V178.82Z" fill="#D9D4E7"/>
<path d="M102.465 182.875H52.4624V184.206H102.465V182.875Z" fill="#D9D4E7"/>
</svg>
