<svg width="51" height="60" viewBox="0 0 51 60" fill="none" xmlns="http://www.w3.org/2000/svg">
<g clip-path="url(#clip0_826_4193)">
<path d="M26.4514 0C27.0477 0.986301 27.6535 1.96634 28.2354 2.96204C28.4262 3.28924 28.652 3.48023 29.0495 3.55068C29.9654 3.71037 30.8701 3.92642 31.778 4.12055C32.697 4.31781 32.8068 4.63875 32.1882 5.31977C31.5538 6.018 30.9274 6.72251 30.2802 7.40978C30.0608 7.64305 29.967 7.88258 30.002 8.20039C30.1101 9.16947 30.1944 10.1417 30.2977 11.1123C30.3852 11.9374 30.0926 12.1503 29.3071 11.8106C28.4914 11.4583 27.6678 11.1202 26.8696 10.7335C26.4212 10.5174 26.0348 10.5002 25.5785 10.7194C24.7247 11.1295 23.8486 11.4912 22.9741 11.8575C22.338 12.1237 22.02 11.8826 22.0932 11.2078C22.1949 10.2575 22.2872 9.30568 22.4064 8.35695C22.4589 7.93738 22.3508 7.61644 22.0471 7.30489C21.3761 6.61448 20.7369 5.89276 20.0961 5.17417C19.6477 4.67006 19.7511 4.33033 20.4125 4.18004C21.3188 3.97495 22.2283 3.77926 23.1442 3.62113C23.6753 3.52877 24.0171 3.28767 24.2811 2.81331C24.8121 1.85832 25.3352 0.895499 25.9744 0.00313112C26.1334 0.00313112 26.2924 0.00313112 26.4498 0.00313112L26.4514 0Z" fill="#5E5E5E"/>
<path d="M45.2573 41.171C47.1796 42.2043 47.8697 43.3988 47.5103 45.0019C47.1685 46.5299 45.9664 47.3471 43.7722 47.4833C45.3511 48.2082 46.2097 49.3229 45.7009 50.9824C45.1507 52.7765 43.6593 53.1569 41.9405 53.0035C41.9739 53.2587 42.1869 53.2164 42.3094 53.2759C43.4796 53.8395 44.1522 55.0685 43.9232 56.2598C43.6784 57.5358 42.5351 58.5268 41.2234 58.5941C41.0055 58.6051 40.7877 58.6019 40.5683 58.6019C31.2857 58.6019 22.0032 58.5988 12.7222 58.6129C12.2038 58.6129 12.0258 58.5158 12.0274 57.9569C12.0496 51.3957 12.048 44.8344 12.0305 38.2716C12.0305 37.7784 12.1387 37.625 12.6681 37.5874C14.4124 37.4653 16.1105 37.0974 17.7657 36.5197C20.7661 35.4708 22.5326 33.1961 23.9144 30.5518C25.3518 27.798 25.8987 24.8532 25.7318 21.7675C25.6618 20.4775 25.9528 20.2066 27.2598 20.2505C29.4413 20.3256 30.8501 21.351 31.5751 23.3894C32.1062 24.8829 32.1968 26.4422 32.2858 28.0015C32.3733 29.5405 32.3606 31.0872 32.6404 32.6105C32.7136 33.0113 32.8185 33.4121 32.9632 33.7941C33.4466 35.0716 34.1907 35.5788 35.5772 35.5804C38.6905 35.5867 41.8053 35.5757 44.9186 35.5867C46.4402 35.5914 47.5358 36.3757 47.8697 37.6516C48.3165 39.3628 47.2019 40.9002 45.2541 41.1679L45.2573 41.171Z" fill="#5E5E5E"/>
<path d="M-0.000363102 48.1206C-0.000363102 44.7624 -0.000363102 41.4059 -0.000363102 38.0478C-0.000363102 36.7405 0.457564 36.2912 1.78682 36.2896C4.14642 36.2881 6.50601 36.2865 8.86402 36.2896C10.1313 36.2912 10.6194 36.775 10.6194 38.029C10.6194 44.764 10.6194 51.4975 10.6194 58.2325C10.6194 59.5131 10.1249 59.9985 8.82268 60C6.5235 60 4.22274 60 1.92357 60C0.433713 60 -0.000363102 59.5789 -0.00195312 58.1339C-0.00195312 54.7961 -0.00195312 51.4583 -0.00195312 48.1206H-0.000363102Z" fill="#5E5E5E"/>
<path d="M3.66945 27.3815C3.77121 26.3718 3.86025 25.3604 3.98109 24.3522C4.0272 23.9702 3.93498 23.6837 3.66626 23.4019C3.00164 22.7052 2.35927 21.9851 1.71531 21.2696C1.22717 20.7279 1.34006 20.36 2.05398 20.2019C3.02072 19.989 3.98745 19.7776 4.96054 19.5992C5.32943 19.5318 5.55998 19.3612 5.73807 19.0465C6.22143 18.1948 6.7207 17.3526 7.22156 16.5103C7.59998 15.8763 7.96728 15.8747 8.34888 16.5103C8.85451 17.3494 9.35219 18.1933 9.83556 19.0449C10.0136 19.3596 10.2442 19.524 10.6147 19.5929C11.6068 19.7776 12.5942 19.9952 13.5769 20.2238C14.2383 20.3772 14.3433 20.7154 13.8949 21.2211C13.2414 21.9553 12.5847 22.688 11.9042 23.3972C11.6339 23.679 11.5289 23.9671 11.5766 24.3444C11.6927 25.2931 11.7865 26.2465 11.893 27.1968C11.9773 27.9467 11.6625 28.1831 10.9549 27.881C10.047 27.4927 9.14072 27.0982 8.24235 26.6911C7.92912 26.5487 7.65086 26.5502 7.33604 26.6927C6.4011 27.1154 5.45663 27.524 4.50898 27.9185C3.9477 28.1518 3.64718 27.9467 3.66945 27.3784V27.3815Z" fill="#5E5E5E"/>
<path d="M40.5044 27.4207C40.6046 26.4704 40.665 25.5734 40.8033 24.6888C40.8955 24.1017 40.8033 23.6493 40.3533 23.2141C39.7332 22.6145 39.1783 21.9475 38.5996 21.3056C38.0367 20.6794 38.1543 20.3522 39.0034 20.1753C39.932 19.9828 40.8574 19.7714 41.7923 19.6055C42.1866 19.535 42.4204 19.3409 42.6064 19.0105C43.0882 18.1604 43.5827 17.315 44.0883 16.4775C44.4492 15.8794 44.8181 15.8857 45.1838 16.4931C45.6974 17.3479 46.2046 18.2074 46.6991 19.0747C46.8677 19.3706 47.0887 19.524 47.4337 19.5882C48.4052 19.7698 49.3704 19.9828 50.3355 20.1972C51.0844 20.3647 51.1973 20.7217 50.6837 21.2931C50.0541 21.9945 49.426 22.6974 48.7741 23.38C48.4943 23.6728 48.3782 23.9608 48.4338 24.3741C48.5626 25.3401 48.6469 26.3123 48.728 27.2829C48.7852 27.9765 48.4911 28.1722 47.8296 27.8904C46.9217 27.5037 46.017 27.1123 45.1186 26.7021C44.7847 26.5503 44.4922 26.5503 44.1583 26.7021C43.2249 27.1264 42.2836 27.535 41.336 27.9295C40.7938 28.155 40.4901 27.9327 40.5044 27.4192V27.4207Z" fill="#5E5E5E"/>
</g>
<defs>
<clipPath id="clip0_826_4193">
<rect width="51" height="60" fill="white"/>
</clipPath>
</defs>
</svg>
