<svg width="351" height="360" viewBox="0 0 351 360" fill="none" xmlns="http://www.w3.org/2000/svg">
<mask id="mask0_941_64" style="mask-type:alpha" maskUnits="userSpaceOnUse" x="0" y="0" width="351" height="360">
<rect width="351" height="360" fill="#D9D9D9"/>
</mask>
<g mask="url(#mask0_941_64)">
<path d="M262.825 287.205L262.592 287.211L262.447 287.393L210.12 352.751C209.312 353.761 208.302 354.592 207.156 355.193C202.624 357.566 197.026 355.861 194.587 351.364L167.057 300.616C165.97 298.611 163.757 297.486 161.497 297.787L53.8076 312.134C45.7854 313.202 38.4411 307.497 37.4927 299.46L4.51106 19.9583C3.40296 10.5678 11.4347 2.64615 20.8091 3.88382L335.951 45.491C343.907 46.5414 349.496 53.8534 348.423 61.8058L319.833 273.632C318.879 280.696 312.932 286.02 305.806 286.188L262.825 287.205Z" stroke="#3F97FF"/>
<path d="M24.0481 33.2436C22.8997 23.5114 31.2395 15.3098 40.9511 16.6206L322.362 54.6026C330.572 55.7107 336.329 63.2643 335.221 71.4741L309.846 259.48C308.913 266.39 303.342 271.746 296.401 272.406L229.101 278.808L69.5782 293.983C61.4628 294.755 54.2164 288.904 53.2611 280.808L24.0481 33.2436Z" fill="#713FFF"/>
<path d="M254.984 280.223C259.764 274.315 263.64 274.945 265.422 274.757L267.876 268.47L248.261 265.761C248.573 272.656 250.708 285.508 254.984 280.223Z" fill="#713FFF"/>
<path d="M258.43 261.697L176.771 272.372C173.409 272.812 171.45 276.399 172.898 279.465L200.498 337.908C202.087 341.273 206.665 341.784 208.958 338.853L263.017 269.735C265.774 266.211 262.867 261.117 258.43 261.697Z" fill="#713FFF"/>
<path d="M178.119 290.415C175.607 282.366 170.241 284.042 166.898 284.533C166.543 279.859 163.992 269.21 164.546 268.154C165.099 267.098 186.778 279.247 197.548 285.454C192.569 290.136 180.393 297.703 178.119 290.415Z" fill="#713FFF"/>
</g>
</svg>
