<svg width="20" height="18" viewBox="0 0 20 18" fill="none" xmlns="http://www.w3.org/2000/svg">
<path d="M19.0836 6.58154L12.0783 6.54329L9.86949 0.124512L7.60333 6.54825L0.59375 6.58154L6.34522 10.72L4.35887 17.0963L9.86949 13.2837L15.3659 17.0679L13.3853 10.725L19.0836 6.58154Z" fill="#DADADA"/>
<path d="M6.80477 13.582L7.19297 11.3308L5.64087 10.2143L3.98535 17.5604L19.0182 6.62842L6.80477 13.582Z" fill="#989898"/>
<path d="M7.54625 6.56126L0.538086 6.59455L6.28814 10.7316L4.3025 17.1064L9.81099 13.2946V0.139648L7.54625 6.56126Z" fill="#DABA00"/>
<path d="M6.74693 13.5926L7.13442 11.3413L5.58374 10.2256L3.92822 17.5695L9.81074 13.2915L9.81145 11.8478L6.74693 13.5926Z" fill="#AE9500"/>
</svg>
