<svg width="58" height="63" viewBox="0 0 58 63" fill="none" xmlns="http://www.w3.org/2000/svg">
<g clip-path="url(#clip0_946_2675)">
<path d="M10.7699 45.3357C10.7042 45.0626 10.6532 44.8438 10.5973 44.6267C10.2736 43.3336 9.56518 42.4189 8.27169 41.9039C6.48512 41.1916 4.7528 40.346 2.9876 39.5826C2.61122 39.4197 2.5652 39.2634 2.73778 38.8982C4.73472 34.6751 6.72015 30.447 8.69244 26.2123C8.86666 25.8389 9.01458 25.801 9.37288 25.9705C11.2959 26.8852 13.2402 27.7538 15.1599 28.6768C16.7936 29.4615 18.4602 29.325 20.1498 28.9565C21.4893 28.6653 22.8107 28.2754 24.193 28.2227C25.2876 28.1816 26.3428 28.3395 27.3946 28.8479C25.6557 30.5046 23.9974 32.1695 22.0777 33.5465C20.8434 34.4316 19.5729 35.2558 18.2662 36.0274C17.3853 36.5473 17.2785 37.1296 17.8964 37.9457C19.6501 40.2555 21.864 41.6621 24.8783 41.44C26.4677 41.3232 27.9617 40.8247 29.436 40.2505C30.8281 39.7093 32.1939 39.0973 33.6369 38.6909C35.0849 38.2829 36.4211 38.3948 37.7623 39.191C40.9508 41.0813 44.1936 42.8828 47.415 44.7172C47.7733 44.9212 48.1184 45.1367 48.3568 45.4887C48.8646 46.2406 48.8268 47.226 48.2581 47.889C47.6632 48.5849 46.631 48.7988 45.7994 48.3431C44.3629 47.5567 42.9428 46.7358 41.5162 45.9296C40.4988 45.3555 39.4864 44.7764 38.4657 44.2088C37.7869 43.8304 37.1755 43.9423 36.8518 44.4835C36.5082 45.0594 36.717 45.65 37.4286 46.0563C39.5111 47.2425 41.6017 48.4138 43.6824 49.6033C44.4763 50.0574 44.8231 50.7648 44.7047 51.6696C44.6012 52.456 44.1295 52.9726 43.3915 53.2243C42.7489 53.4431 42.1539 53.2885 41.5704 52.9578C39.0739 51.5462 36.5674 50.1528 34.0643 48.7527C33.8851 48.6524 33.7092 48.5471 33.5202 48.4681C33.0042 48.2526 32.4585 48.4319 32.1873 48.8926C31.8997 49.3812 32.0147 49.9685 32.516 50.2976C32.9943 50.6118 33.5054 50.875 34.0051 51.158C35.6815 52.1056 37.3629 53.0433 39.0344 53.9992C39.8036 54.4384 40.157 55.1261 40.0534 56.0079C39.9548 56.847 39.4601 57.3849 38.663 57.6334C38.1288 57.7995 37.6094 57.7255 37.1197 57.454C35.6684 56.6496 34.2155 55.85 32.7675 55.0389C32.5933 54.9419 32.4437 54.7922 32.2974 54.6523C31.2209 53.6257 29.9438 53.2737 28.5024 53.5764C28.1556 53.6488 28.011 53.6142 27.8696 53.2671C27.0577 51.255 25.2284 50.2663 23.1312 50.7089C22.7828 50.7829 22.6546 50.7533 22.5165 50.3979C21.8065 48.5734 20.2583 47.6192 18.2564 47.7492C17.9474 47.7689 17.8126 47.7607 17.7239 47.3922C16.9596 44.2269 13.4884 43.1 10.9819 45.186C10.9359 45.2239 10.8833 45.2551 10.7666 45.3357H10.7699Z" fill="#5E5E5E"/>
<path d="M35.3644 27.8626C36.3045 27.8527 37.529 28.2459 38.737 28.7148C39.8037 29.1294 40.8506 29.5999 41.9601 29.9042C43.4294 30.3057 44.8281 30.2004 46.1742 29.4403C47.3329 28.7872 48.5228 28.1883 49.6848 27.5418C50.0333 27.3493 50.1894 27.3608 50.3456 27.7705C52.0549 32.2239 53.7806 36.6708 55.5113 41.1161C55.6395 41.4451 55.6247 41.6047 55.2598 41.7544C53.5965 42.4404 51.9448 43.1594 50.2913 43.8717C50.0431 43.9786 49.8558 44 49.6553 43.7582C49.3101 43.342 48.8368 43.0837 48.3733 42.8188C45.2965 41.0651 42.1704 39.3903 39.1594 37.5279C36.962 36.1674 34.7563 36.0144 32.4093 36.8534C30.7723 37.4391 29.1648 38.1054 27.5279 38.6878C26.2114 39.1567 24.8686 39.5071 23.4386 39.2685C22.2799 39.076 21.3431 38.4986 20.4967 37.7171C20.1992 37.4424 20.2255 37.3124 20.569 37.1018C22.6169 35.8466 24.5497 34.4317 26.3182 32.7997C27.283 31.9113 28.1738 30.9423 29.2191 30.1428C30.9251 28.8365 32.7561 27.8412 35.3628 27.861L35.3644 27.8626Z" fill="#5E5E5E"/>
<path d="M22.7968 19.9C23.2439 17.735 23.663 15.6489 24.11 13.5694C24.2169 13.0709 24.1791 12.7254 23.7435 12.3503C22.3005 11.1033 20.9149 9.79374 19.5047 8.50887C19.342 8.3608 19.1711 8.22261 18.8818 7.97748C20.5073 7.79322 21.9602 7.62706 23.4148 7.46418C24.1889 7.37699 24.9614 7.27334 25.7372 7.21576C26.0807 7.18944 26.1678 6.97886 26.273 6.72386C27.1079 4.69701 27.9478 2.67346 28.7876 0.649905C28.8632 0.468936 28.9504 0.294549 29.0868 0.00170898C29.3991 0.748615 29.667 1.382 29.9299 2.01539C30.5808 3.58653 31.2399 5.15273 31.871 6.73044C32.0041 7.06276 32.18 7.1878 32.5366 7.22399C34.716 7.44609 36.8937 7.6978 39.106 7.94457C39.0567 8.21932 38.8397 8.32132 38.6902 8.45951C37.2553 9.77729 35.8287 11.1049 34.3659 12.3915C33.9846 12.7271 33.9205 13.0429 34.0191 13.5036C34.4711 15.6045 34.8968 17.7103 35.3537 19.9132C34.1851 19.2518 33.1037 18.6398 32.0222 18.0245C31.1856 17.5491 30.3408 17.0851 29.519 16.5833C29.1936 16.3843 28.9471 16.404 28.6266 16.5899C26.891 17.5968 25.1422 18.5822 23.3967 19.5743C23.2242 19.673 23.0466 19.7634 22.7952 19.9H22.7968Z" fill="#5E5E5E"/>
<path d="M15.8871 13.0496C14.8122 14.0334 13.8655 15.0353 12.7807 15.8513C11.8653 16.539 11.714 17.2497 12.0099 18.2977C12.3748 19.5908 12.5753 20.9316 12.8728 22.3826C11.9967 21.8858 11.2226 21.4498 10.4518 21.0122C9.75819 20.619 9.05475 20.239 8.37431 19.8211C8.07189 19.6352 7.84015 19.6467 7.53609 19.8244C6.08974 20.6683 4.63025 21.4876 3.0442 22.3908C3.26444 21.2902 3.45674 20.3179 3.65561 19.3473C3.79532 18.6645 3.93173 17.9818 4.08952 17.3056C4.16841 16.9684 4.08458 16.743 3.81997 16.5061C2.56921 15.3923 1.34146 14.2555 0.00195312 13.0315C1.62251 12.8489 3.10995 12.6333 4.60724 12.5313C5.35342 12.4803 5.75938 12.2221 6.04372 11.5113C6.60418 10.1097 7.27147 8.74911 7.95027 7.24707C8.29213 7.98904 8.58468 8.62078 8.87231 9.25417C9.26184 10.1113 9.68095 10.9569 10.0179 11.8354C10.2069 12.3257 10.5274 12.4442 10.9843 12.4902C12.4915 12.6416 13.9953 12.8176 15.5008 12.9854C15.5945 12.9953 15.6882 13.0167 15.8871 13.0512V13.0496Z" fill="#5E5E5E"/>
<path d="M50.1916 7.23041C50.9165 8.8328 51.6166 10.2888 52.2264 11.7809C52.4499 12.3271 52.7984 12.4423 53.2898 12.4916C54.8577 12.6512 56.4224 12.8273 57.997 12.9984C58.0249 13.2797 57.7932 13.3537 57.6617 13.4755C56.5786 14.4774 55.4971 15.4809 54.386 16.4516C54.059 16.7362 53.9899 17.0093 54.0787 17.4107C54.3992 18.87 54.6983 20.3342 54.9991 21.7984C55.0303 21.9514 55.0994 22.1109 54.9827 22.3133C53.5412 21.4956 52.0965 20.6912 50.6716 19.8521C50.3231 19.6465 50.0733 19.6498 49.7265 19.8521C48.2983 20.6912 46.8519 21.4973 45.2856 22.3873C45.4877 21.369 45.6669 20.4658 45.8477 19.5642C45.9973 18.8222 46.1304 18.0753 46.3161 17.3416C46.4081 16.9747 46.3309 16.746 46.0482 16.496C44.9437 15.5171 43.8639 14.5119 42.7726 13.5182C42.6246 13.3833 42.4669 13.2616 42.1924 13.0346C43.8787 12.8454 45.3891 12.6397 46.9078 12.5196C47.5964 12.4653 47.9876 12.2317 48.2555 11.5638C48.8275 10.1423 49.4997 8.76041 50.19 7.22876L50.1916 7.23041Z" fill="#5E5E5E"/>
<path d="M20.6628 51.8869C20.6513 52.2175 20.5445 52.5647 20.3653 52.8953C19.5403 54.4286 18.73 55.9685 17.9 57.4985C17.2984 58.609 16.1792 58.994 15.1618 58.461C14.1526 57.9329 13.8288 56.7631 14.409 55.6609C15.2489 54.0667 16.0904 52.4742 16.9566 50.8948C17.4135 50.064 18.3799 49.6939 19.2756 49.9439C20.081 50.1693 20.6562 50.9573 20.6612 51.8869H20.6628Z" fill="#5E5E5E"/>
<path d="M26.0141 54.7677C26.0371 55.1017 25.8974 55.4406 25.7216 55.7696C25.0674 56.9985 24.4182 58.2291 23.7526 59.4515C23.1559 60.5455 22.0071 60.9272 21.0012 60.3859C20.0085 59.8513 19.6929 58.67 20.2698 57.5727C20.947 56.2862 21.6225 54.9997 22.3292 53.7312C22.7911 52.9021 23.6983 52.55 24.5908 52.7886C25.4356 53.0139 26.0174 53.8036 26.0108 54.7677H26.0141Z" fill="#5E5E5E"/>
<path d="M15.6813 48.3104C15.7109 48.6526 15.5663 48.9899 15.3904 49.3189C14.802 50.4195 14.2185 51.5218 13.6203 52.6174C13.0204 53.7181 11.8814 54.1096 10.8771 53.5766C9.87128 53.0435 9.55242 51.8755 10.131 50.7683C10.7473 49.5903 11.3653 48.4124 12.0161 47.2526C12.4698 46.4415 13.4313 46.0763 14.2826 46.3296C15.1504 46.5896 15.6879 47.3332 15.6813 48.3104Z" fill="#5E5E5E"/>
<path d="M25.5973 60.9665C25.5826 60.654 25.696 60.3101 25.8751 59.9794C26.4553 58.9002 27.0223 57.8128 27.6107 56.7368C28.1843 55.6872 29.3348 55.3006 30.316 55.8073C31.3055 56.3173 31.6506 57.5314 31.0885 58.6074C30.4935 59.7491 29.8969 60.8892 29.2625 62.0112C28.8089 62.8141 27.8967 63.1645 27.0552 62.9276C26.1742 62.6808 25.6023 61.9388 25.5957 60.9665H25.5973Z" fill="#5E5E5E"/>
<path d="M33.5145 57.8918C34.1835 58.262 34.7669 58.5581 35.3225 58.8987C36.2708 59.4827 36.5666 60.6442 36.0325 61.577C35.5131 62.4802 34.3856 62.8142 33.4143 62.3535C31.8858 61.6264 31.8775 61.6214 32.6845 60.1358C33.0576 59.4498 33.3962 58.7556 33.5145 57.8935V57.8918Z" fill="#5E5E5E"/>
</g>
<defs>
<clipPath id="clip0_946_2675">
<rect width="58" height="63" fill="white"/>
</clipPath>
</defs>
</svg>
