<svg width="666" height="492" viewBox="0 0 666 492" fill="none" xmlns="http://www.w3.org/2000/svg">
<path d="M599.267 457.789H555.151V458.122H599.267V457.789Z" fill="#EBEBEB"/>
<path d="M441.185 461.412H429.61V461.745H441.185V461.412Z" fill="#EBEBEB"/>
<path d="M553.819 445.428H528.258V445.761H553.819V445.428Z" fill="#EBEBEB"/>
<path d="M127.406 447.666H69.877V447.999H127.406V447.666Z" fill="#EBEBEB"/>
<path d="M147.705 447.666H139.273V447.999H147.705V447.666Z" fill="#EBEBEB"/>
<path d="M299.9 453.286H175.118V453.619H299.9V453.286Z" fill="#EBEBEB"/>
<path d="M317.548 376.95H60.3391C58.322 376.95 56.3874 376.148 54.9611 374.722C53.5347 373.296 52.7334 371.361 52.7334 369.344V7.79913C52.751 5.79353 53.56 3.87605 54.9845 2.46408C56.4089 1.0521 58.3334 0.259933 60.3391 0.26001H317.548C318.547 0.26001 319.536 0.456736 320.459 0.838959C321.382 1.22118 322.22 1.78142 322.926 2.48767C323.633 3.19393 324.193 4.03238 324.575 4.95515C324.957 5.87792 325.154 6.86693 325.154 7.86573V369.344C325.154 370.343 324.957 371.332 324.575 372.255C324.193 373.177 323.633 374.016 322.926 374.722C322.22 375.428 321.382 375.988 320.459 376.371C319.536 376.753 318.547 376.95 317.548 376.95ZM60.3391 0.526411C58.4114 0.529932 56.5636 1.29729 55.2004 2.66043C53.8373 4.02357 53.0699 5.87137 53.0664 7.79913V369.344C53.0699 371.272 53.8373 373.119 55.2004 374.483C56.5636 375.846 58.4114 376.613 60.3391 376.617H317.548C319.476 376.613 321.324 375.846 322.687 374.483C324.05 373.119 324.818 371.272 324.821 369.344V7.79913C324.818 5.87137 324.05 4.02357 322.687 2.66043C321.324 1.29729 319.476 0.529932 317.548 0.526411H60.3391Z" fill="#EBEBEB"/>
<path d="M605.661 376.95H348.451C346.434 376.95 344.5 376.148 343.073 374.722C341.647 373.296 340.846 371.361 340.846 369.344V7.79913C340.863 5.79353 341.672 3.87605 343.097 2.46408C344.521 1.0521 346.446 0.259933 348.451 0.26001H605.661C607.678 0.26001 609.612 1.06132 611.039 2.48767C612.465 3.91402 613.266 5.84857 613.266 7.86573V369.344C613.266 371.361 612.465 373.296 611.039 374.722C609.612 376.148 607.678 376.95 605.661 376.95ZM348.451 0.526411C346.524 0.529932 344.676 1.29729 343.313 2.66043C341.95 4.02357 341.182 5.87137 341.179 7.79913V369.344C341.182 371.272 341.95 373.119 343.313 374.483C344.676 375.846 346.524 376.613 348.451 376.617H605.661C607.588 376.613 609.436 375.846 610.799 374.483C612.162 373.119 612.93 371.272 612.933 369.344V7.79913C612.93 5.87137 612.162 4.02357 610.799 2.66043C609.436 1.29729 607.588 0.529932 605.661 0.526411H348.451Z" fill="#EBEBEB"/>
<path d="M666 436.357H0V436.69H666V436.357Z" fill="#EBEBEB"/>
<path d="M527.872 367.279H561.505C562.942 367.281 564.366 366.999 565.694 366.451C567.022 365.902 568.23 365.097 569.246 364.081C570.263 363.065 571.07 361.859 571.62 360.532C572.171 359.204 572.454 357.781 572.454 356.343V307.179C572.454 306.649 572.244 306.141 571.869 305.767C571.494 305.392 570.986 305.181 570.456 305.181C569.926 305.181 569.418 305.392 569.043 305.767C568.669 306.141 568.458 306.649 568.458 307.179V356.343C568.455 358.185 567.721 359.95 566.417 361.251C565.113 362.553 563.347 363.283 561.505 363.283H527.872V367.279Z" fill="#9E96B2"/>
<path d="M518.254 414.419V368.625L515.59 367.772C514.115 367.31 512.826 366.389 511.911 365.143C510.996 363.897 510.502 362.392 510.502 360.846H535.864C535.863 362.392 535.37 363.897 534.455 365.143C533.539 366.389 532.25 367.31 530.775 367.772L528.111 368.625V414.419L549.184 423.836V427.832L523.17 418.748L497.169 427.832V423.836L518.254 414.419Z" fill="#9E96B2"/>
<path d="M490.003 363.283H556.35C558.259 363.283 560.09 362.526 561.441 361.177C562.792 359.829 563.553 357.999 563.556 356.091C563.556 354.179 562.797 352.346 561.445 350.995C560.094 349.644 558.261 348.884 556.35 348.884H490.003C488.092 348.884 486.259 349.644 484.908 350.995C483.556 352.346 482.797 354.179 482.797 356.091C482.8 357.999 483.561 359.829 484.912 361.177C486.263 362.526 488.094 363.283 490.003 363.283Z" fill="#D5CEE9"/>
<path d="M568.058 324.482L571.641 273.32C571.773 271.419 571.146 269.542 569.898 268.102C568.65 266.661 566.882 265.774 564.981 265.634C563.081 265.502 561.206 266.13 559.768 267.378C558.329 268.627 557.445 270.395 557.308 272.294L553.725 323.496C553.59 325.399 554.215 327.277 555.464 328.718C556.713 330.159 558.483 331.046 560.385 331.182C562.291 331.31 564.169 330.676 565.608 329.42C567.047 328.164 567.928 326.388 568.058 324.482Z" fill="#D5CEE9"/>
<path d="M544.642 430.696C544.642 431.597 544.909 432.479 545.41 433.228C545.911 433.977 546.624 434.561 547.457 434.906C548.29 435.25 549.207 435.34 550.091 435.163C550.975 434.986 551.786 434.551 552.423 433.912C553.059 433.274 553.492 432.461 553.667 431.576C553.841 430.692 553.749 429.775 553.402 428.943C553.055 428.111 552.469 427.401 551.718 426.902C550.967 426.403 550.085 426.138 549.184 426.14C547.978 426.144 546.823 426.625 545.971 427.479C545.12 428.333 544.642 429.49 544.642 430.696Z" fill="#E0E0E0"/>
<path d="M492.613 430.696C492.613 431.597 492.88 432.478 493.381 433.227C493.882 433.976 494.593 434.56 495.425 434.904C496.258 435.249 497.174 435.339 498.057 435.164C498.941 434.988 499.753 434.554 500.39 433.917C501.027 433.28 501.461 432.468 501.637 431.585C501.812 430.701 501.722 429.785 501.377 428.953C501.033 428.12 500.449 427.409 499.7 426.908C498.95 426.408 498.07 426.14 497.169 426.14C495.961 426.14 494.802 426.62 493.948 427.475C493.093 428.329 492.613 429.488 492.613 430.696Z" fill="#E0E0E0"/>
<path d="M133.547 367.279H99.9002C98.463 367.281 97.0395 366.999 95.7112 366.451C94.3829 365.902 93.1758 365.097 92.1589 364.081C91.142 363.065 90.3353 361.859 89.7849 360.532C89.2345 359.204 88.9512 357.781 88.9512 356.343V307.179C88.9512 306.649 89.1617 306.141 89.5364 305.767C89.9111 305.392 90.4193 305.181 90.9492 305.181C91.4791 305.181 91.9873 305.392 92.362 305.767C92.7367 306.141 92.9472 306.649 92.9472 307.179V356.343C92.9507 358.185 93.6848 359.95 94.9884 361.251C96.2919 362.553 98.0585 363.283 99.9002 363.283H133.533L133.547 367.279Z" fill="#9E96B3"/>
<path d="M143.163 414.419V368.625L145.827 367.772C147.303 367.31 148.591 366.389 149.507 365.143C150.422 363.897 150.916 362.392 150.916 360.846H125.608C125.608 362.392 126.101 363.897 127.017 365.143C127.932 366.389 129.221 367.31 130.696 367.772L133.36 368.625V414.419L112.234 423.836V427.832L138.248 418.748L164.262 427.832V423.836L143.163 414.419Z" fill="#9E96B3"/>
<path d="M171.415 363.283H105.068C103.16 363.283 101.329 362.526 99.9776 361.177C98.6266 359.829 97.8658 357.999 97.8623 356.091C97.8623 354.179 98.6215 352.346 99.9729 350.995C101.324 349.644 103.157 348.884 105.068 348.884H171.415C173.327 348.884 175.159 349.644 176.511 350.995C177.862 352.346 178.621 354.179 178.621 356.091C178.618 357.999 177.857 359.829 176.506 361.177C175.155 362.526 173.324 363.283 171.415 363.283Z" fill="#D5CEE9"/>
<path d="M93.3601 324.482L89.7771 273.32C89.6451 271.419 90.2718 269.542 91.52 268.102C92.7682 266.661 94.5362 265.774 96.4371 265.634C98.3371 265.502 100.212 266.13 101.65 267.378C103.088 268.627 103.973 270.395 104.109 272.294L107.692 323.496C107.828 325.399 107.203 327.277 105.954 328.718C104.705 330.159 102.935 331.046 101.032 331.182C99.1268 331.31 97.2483 330.676 95.8097 329.42C94.371 328.164 93.49 326.388 93.3601 324.482Z" fill="#D5CEE9"/>
<path d="M116.777 430.696C116.777 431.597 116.509 432.479 116.008 433.228C115.507 433.977 114.795 434.561 113.962 434.906C113.128 435.25 112.212 435.34 111.328 435.163C110.444 434.986 109.632 434.551 108.996 433.912C108.359 433.274 107.926 432.461 107.752 431.576C107.578 430.692 107.67 429.775 108.017 428.943C108.363 428.111 108.949 427.401 109.7 426.902C110.451 426.403 111.333 426.138 112.235 426.14C113.441 426.144 114.596 426.625 115.447 427.479C116.299 428.333 116.777 429.49 116.777 430.696Z" fill="#E0E0E0"/>
<path d="M168.804 430.696C168.804 431.597 168.537 432.479 168.036 433.228C167.534 433.977 166.822 434.561 165.989 434.906C165.156 435.25 164.239 435.34 163.355 435.163C162.471 434.986 161.659 434.551 161.023 433.912C160.386 433.274 159.954 432.461 159.779 431.576C159.605 430.692 159.697 429.775 160.044 428.943C160.391 428.111 160.977 427.401 161.728 426.902C162.479 426.403 163.361 426.138 164.262 426.14C165.468 426.144 166.623 426.625 167.475 427.479C168.326 428.333 168.804 429.49 168.804 430.696Z" fill="#E0E0E0"/>
<path d="M276.483 436.743H250.496L247.832 387.486H279.147L276.483 436.743Z" fill="#EBEBEB"/>
<path d="M256.49 436.743H245.834V434.559L256.49 433.227V436.743Z" fill="#E0E0E0"/>
<path d="M251.748 383.49H275.138C276.198 383.49 277.214 383.911 277.964 384.66C278.713 385.41 279.134 386.426 279.134 387.486H247.832C247.832 386.426 248.253 385.41 249.002 384.66C249.752 383.911 250.768 383.49 251.828 383.49H251.748Z" fill="#E0E0E0"/>
<path d="M223.19 309.004H181.618V304.023L223.19 301.359V309.004Z" fill="#D5CEE9"/>
<path d="M284.689 314.079H161.705V331.102H284.689V314.079Z" fill="#D5CEE9"/>
<path d="M310.182 309.004H136.649V319.154H310.182V309.004Z" fill="#FAFAFA"/>
<path d="M294.066 436.743H301.898L288.338 319.154H279.147L294.066 436.743Z" fill="#D5CEE9"/>
<path d="M167.686 319.154H158.495L144.922 436.743H152.767L167.686 319.154Z" fill="#D5CEE9"/>
<path d="M265.308 306.474C261.756 288.829 258.204 271.184 254.652 253.54C254.132 251.009 250.283 252.088 250.789 254.592L260.939 305.008H238.961C238.431 305.008 237.923 305.219 237.548 305.594C237.173 305.968 236.963 306.476 236.963 307.006C236.963 307.536 237.173 308.044 237.548 308.419C237.923 308.794 238.431 309.004 238.961 309.004H263.376C263.682 308.997 263.982 308.922 264.255 308.783C264.527 308.645 264.765 308.446 264.951 308.203C265.136 307.96 265.265 307.678 265.326 307.379C265.388 307.08 265.382 306.77 265.308 306.474Z" fill="#E0E0E0"/>
<path d="M240.426 292.274L247.272 194.386C249.799 196.195 251.82 198.621 253.142 201.433C254.464 204.246 255.044 207.35 254.825 210.45L250.149 277.423C249.931 280.522 248.922 283.514 247.22 286.114C245.518 288.713 243.179 290.834 240.426 292.274Z" fill="#FAFAFA"/>
<path d="M293.773 280.553H282.637C280.504 280.553 278.774 282.282 278.774 284.416V305.141C278.774 307.275 280.504 309.004 282.637 309.004H293.773C295.906 309.004 297.636 307.275 297.636 305.141V284.416C297.636 282.282 295.906 280.553 293.773 280.553Z" fill="#F5F5F5"/>
<path d="M286.233 269.95C283.29 269.95 280.905 270.683 280.905 271.588C280.905 272.494 283.303 271.269 286.233 271.269C286.62 271.269 286.993 271.269 287.365 271.269V277.729H289.044V271.522C290.562 271.815 291.561 272.108 291.561 271.522C291.561 270.656 289.177 269.95 286.233 269.95Z" fill="#E0E0E0"/>
<path d="M291.202 275.678H285.194V281.685H291.202V275.678Z" fill="#F0F0F0"/>
<path d="M376.729 331.102H499.713V314.079H376.729V331.102Z" fill="#D5CEE9"/>
<path d="M351.248 319.154H524.781V309.004H351.248V319.154Z" fill="#FAFAFA"/>
<path d="M367.353 436.743H359.521L373.08 319.154H382.271L367.353 436.743Z" fill="#E6E6E6"/>
<path d="M493.746 319.154H502.924L516.497 436.743H508.651L493.746 319.154Z" fill="#D5CEE9"/>
<path d="M464.229 309.004H505.8V304.023L464.229 301.359V309.004Z" fill="#D5CEE9"/>
<path d="M380.593 219.654V309.004H386.36L387.692 301.012C387.937 299.61 388.668 298.34 389.757 297.423C390.846 296.507 392.223 296.005 393.646 296.004H447.419C448.842 296.005 450.22 296.507 451.309 297.423C452.398 298.34 453.129 299.61 453.373 301.012L454.705 309.004H460.473V219.654H380.593Z" fill="#F5F5F5"/>
<path d="M406.433 306.474C409.985 288.829 413.537 271.184 417.089 253.54C417.608 251.009 421.458 252.088 420.951 254.592L410.802 305.008H432.78C433.31 305.008 433.818 305.219 434.192 305.594C434.567 305.968 434.778 306.476 434.778 307.006C434.778 307.536 434.567 308.044 434.192 308.419C433.818 308.794 433.31 309.004 432.78 309.004H408.364C408.058 308.997 407.758 308.922 407.486 308.783C407.213 308.645 406.975 308.446 406.79 308.203C406.604 307.96 406.476 307.678 406.414 307.379C406.352 307.08 406.359 306.77 406.433 306.474Z" fill="#E0E0E0"/>
<path d="M431.315 292.274L424.469 194.386C421.942 196.195 419.921 198.621 418.599 201.433C417.277 204.246 416.697 207.35 416.916 210.45L421.592 277.423C421.808 280.523 422.815 283.516 424.518 286.116C426.22 288.716 428.56 290.836 431.315 292.274Z" fill="#E0E0E0"/>
<path d="M289.923 124.056H71.7012V257.03H289.923V124.056Z" fill="#E5E5F3"/>
<path d="M291.549 124.003H289.95V256.976H291.549V124.003Z" fill="#E0E0E0"/>
<path d="M79.6273 129.824H78.3086V249.477H79.6273V129.824Z" fill="#E0E0E0"/>
<path d="M282.81 129.824H78.1748V249.477H282.81V129.824Z" fill="white"/>
<path d="M150.662 182.531V188.232H163.955V182.531H150.662Z" fill="white"/>
<path d="M153.26 225.435V229.87H166.553V225.435H153.26Z" fill="white"/>
<path d="M155.418 180.666H112.234V241.352H155.418V180.666Z" fill="#D5CEE9"/>
<path d="M150.276 235.238V239.674H163.57V235.238H150.276Z" fill="white"/>
<path d="M152.487 194.665V199.101H165.781V194.665H152.487Z" fill="white"/>
<path d="M149.57 205.681V210.117H162.864V205.681H149.57Z" fill="white"/>
<path d="M146.759 188.125H117.322V193.347H146.759V188.125Z" fill="#C3B8E1"/>
<path d="M147.226 210.436H117.788L117.322 208.065H146.746L147.226 210.436Z" fill="#C3B8E1"/>
<path d="M127.765 198.568H117.322V203.79H127.765V198.568Z" fill="#C3B8E1"/>
<path d="M216.703 169.704H199.84V193.919H216.703V169.704Z" fill="#F5F5F5"/>
<path d="M104.895 208.079H88.0322V232.294H104.895V208.079Z" fill="#F5F5F5"/>
<path d="M107.186 138.495H90.3232V155.358H107.186V138.495Z" fill="#F5F5F5"/>
<path d="M187.133 215.804H170.27V232.667H187.133V215.804Z" fill="white"/>
<path d="M269.957 171.795H226.773V232.481H269.957V171.795Z" fill="#F5F5F5"/>
<path d="M263.71 180.573H232.688V181.239H263.71V180.573Z" fill="#E0E0E0"/>
<path d="M248.524 181.226H247.858V226.167H248.524V181.226Z" fill="#E0E0E0"/>
<path d="M262.777 181.226H262.111V226.167H262.777V181.226Z" fill="#E0E0E0"/>
<path d="M235.87 181.226H235.204V226.167H235.87V181.226Z" fill="#E0E0E0"/>
<path d="M233.646 181.226H232.98V226.167H233.646V181.226Z" fill="#E0E0E0"/>
<path d="M262.111 183.597H233.313V184.263H262.111V183.597Z" fill="#E0E0E0"/>
<path d="M326.58 491.382C469.214 491.382 584.841 484.631 584.841 476.304C584.841 467.976 469.214 461.225 326.58 461.225C183.946 461.225 68.3184 467.976 68.3184 476.304C68.3184 484.631 183.946 491.382 326.58 491.382Z" fill="#F5F5F5"/>
<path d="M366.566 200.153C366.566 208 363.452 215.525 357.908 221.077C352.363 226.629 344.842 229.753 336.996 229.764H326.233V257.975H297.036V269.551C296.872 277.293 293.68 284.663 288.147 290.081C282.613 295.499 275.177 298.533 267.432 298.533C259.688 298.533 252.252 295.499 246.718 290.081C241.184 284.663 237.993 277.293 237.828 269.551V257.975H210.562V229.764H198.175C190.322 229.764 182.79 226.644 177.237 221.091C171.684 215.538 168.564 208.006 168.564 200.153C168.564 192.3 171.684 184.769 177.237 179.216C182.79 173.663 190.322 170.543 198.175 170.543H210.562V142.331H238.774V154.772C238.691 158.713 239.395 162.63 240.845 166.295C242.295 169.96 244.462 173.298 247.219 176.114C249.977 178.931 253.268 181.168 256.902 182.696C260.535 184.224 264.437 185.01 268.378 185.01C272.319 185.01 276.221 184.224 279.854 182.696C283.487 181.168 286.779 178.931 289.536 176.114C292.294 173.298 294.461 169.96 295.911 166.295C297.361 162.63 298.065 158.713 297.982 154.772V142.384H326.193V170.596H336.996C344.833 170.607 352.346 173.724 357.889 179.264C363.432 184.804 366.552 192.316 366.566 200.153Z" fill="#713FFF"/>
<g opacity="0.5">
<path d="M366.566 200.153C366.566 208 363.452 215.525 357.908 221.077C352.363 226.629 344.842 229.753 336.996 229.764H326.233V257.975H297.036V269.551C296.872 277.293 293.68 284.663 288.147 290.081C282.613 295.499 275.177 298.533 267.432 298.533C259.688 298.533 252.252 295.499 246.718 290.081C241.184 284.663 237.993 277.293 237.828 269.551V257.975H210.562V229.764H198.175C190.322 229.764 182.79 226.644 177.237 221.091C171.684 215.538 168.564 208.006 168.564 200.153C168.564 192.3 171.684 184.769 177.237 179.216C182.79 173.663 190.322 170.543 198.175 170.543H210.562V142.331H238.774V154.772C238.691 158.713 239.395 162.63 240.845 166.295C242.295 169.96 244.462 173.298 247.219 176.114C249.977 178.931 253.268 181.168 256.902 182.696C260.535 184.224 264.437 185.01 268.378 185.01C272.319 185.01 276.221 184.224 279.854 182.696C283.487 181.168 286.779 178.931 289.536 176.114C292.294 173.298 294.461 169.96 295.911 166.295C297.361 162.63 298.065 158.713 297.982 154.772V142.384H326.193V170.596H336.996C344.833 170.607 352.346 173.724 357.889 179.264C363.432 184.804 366.552 192.316 366.566 200.153Z" fill="white"/>
</g>
<path d="M337.102 229.617H324.715V257.829H440.359V229.617H451.108C458.962 229.617 466.493 226.498 472.046 220.945C477.599 215.392 480.719 207.86 480.719 200.007C480.719 192.154 477.599 184.622 472.046 179.069C466.493 173.516 458.962 170.396 451.108 170.396H440.359V142.185H412.147V129.797C412.147 121.944 409.028 114.412 403.475 108.859C397.922 103.306 390.39 100.187 382.537 100.187C374.684 100.187 367.152 103.306 361.599 108.859C356.046 114.412 352.927 121.944 352.927 129.797V142.185H324.715V170.396H337.102C344.956 170.396 352.487 173.516 358.04 179.069C363.593 184.622 366.713 192.154 366.713 200.007C366.713 207.86 363.593 215.392 358.04 220.945C352.487 226.498 344.956 229.617 337.102 229.617Z" fill="#713FFF"/>
<path d="M344.162 129.104L341.671 128.478C338.989 127.927 336.376 127.082 333.879 125.961L333.546 125.801C331.095 124.616 328.031 123.137 327.379 117.982C327.367 117.657 327.242 117.346 327.026 117.103C326.809 116.86 326.515 116.7 326.193 116.65C303.363 115.545 295.411 103.463 295.397 90.0102C295.397 76.8234 304.069 64.3692 328.697 64.0761C351.528 63.7964 362.956 77.849 362.264 92.3278C361.811 101.572 354.565 114.239 340.779 117.116C339.087 117.689 336.077 117.796 335.024 119.314C334.79 119.682 334.665 120.11 334.665 120.546C334.665 120.983 334.79 121.41 335.024 121.778C335.52 122.535 336.126 123.213 336.823 123.79C339.274 125.894 344.162 129.104 344.162 129.104Z" fill="white"/>
<path d="M344.162 129.771H344.002L341.511 129.158C338.784 128.59 336.127 127.729 333.586 126.587L333.266 126.427C330.802 125.242 327.419 123.617 326.726 118.089C326.726 117.969 326.606 117.316 326.153 117.29C298.834 115.958 294.745 99.6407 294.731 90.037C294.731 82.1649 298.021 63.8099 328.697 63.397C343.176 63.2505 351.341 68.5652 355.71 73.094C358.177 75.6334 360.093 78.6549 361.338 81.9692C362.582 85.2836 363.129 88.8192 362.943 92.3547C362.486 98.3826 360.107 104.105 356.156 108.68C352.204 113.255 346.889 116.441 340.992 117.769C340.434 117.949 339.864 118.091 339.287 118.195C337.862 118.489 336.25 118.822 335.65 119.701C335.487 119.957 335.4 120.255 335.4 120.56C335.4 120.864 335.487 121.162 335.65 121.419C336.11 122.119 336.671 122.748 337.315 123.284C339.7 125.335 344.535 128.505 344.588 128.545C344.718 128.63 344.814 128.758 344.858 128.907C344.902 129.056 344.891 129.216 344.828 129.358C344.775 129.488 344.682 129.598 344.562 129.672C344.442 129.747 344.302 129.781 344.162 129.771ZM329.39 64.729H328.711C299.22 65.0886 296.05 82.5112 296.063 90.037C296.063 99.1745 299.993 114.692 326.22 115.958C326.711 116.009 327.167 116.238 327.503 116.6C327.839 116.963 328.031 117.435 328.045 117.929C328.657 122.724 331.401 124.056 333.839 125.228L334.172 125.388C336.272 126.352 338.469 127.089 340.725 127.586C339.247 126.56 337.555 125.322 336.396 124.323C335.65 123.701 335.003 122.969 334.478 122.152C334.165 121.68 333.998 121.126 333.998 120.56C333.998 119.993 334.165 119.44 334.478 118.968C335.371 117.636 337.262 117.263 338.941 116.917C339.54 116.784 340.126 116.664 340.566 116.517C346.203 115.276 351.292 112.255 355.079 107.899C358.867 103.542 361.152 98.0833 361.598 92.328C361.776 88.9735 361.259 85.6184 360.078 82.4735C358.898 79.3285 357.08 76.4616 354.738 74.053C350.635 69.764 342.91 64.729 329.39 64.729Z" fill="#407BFF"/>
<path d="M317.016 123.51C318.601 121.712 319.347 119.914 318.947 118.262C318.121 114.785 315.044 114.839 313.06 114.173C299.274 111.282 292.028 101.292 291.575 92.0482C290.882 77.5694 302.311 63.5034 325.141 63.7832C349.783 64.0895 358.441 76.5437 358.441 89.7172C358.441 103.13 350.449 115.212 327.645 116.357C326.886 116.357 326.54 117.09 326.446 117.689C325.807 122.844 322.743 124.349 320.293 125.508L319.96 125.668C317.46 126.784 314.847 127.628 312.167 128.185L309.677 128.798C309.677 128.798 314.845 125.934 317.016 123.51Z" fill="white"/>
<path d="M309.637 129.464C309.503 129.466 309.372 129.428 309.26 129.354C309.149 129.28 309.062 129.175 309.011 129.051C308.952 128.901 308.949 128.735 309.002 128.583C309.056 128.431 309.163 128.304 309.304 128.225C309.304 128.225 314.445 125.362 316.47 123.057C317.975 121.326 318.575 119.767 318.255 118.408C317.682 115.998 315.937 115.585 314.099 115.145C313.646 115.039 313.193 114.932 312.767 114.799C298.248 111.762 291.269 101.186 290.829 92.0748C290.644 88.5375 291.191 84.9999 292.435 81.6835C293.68 78.3671 295.595 75.3431 298.062 72.8008C302.431 68.2853 310.596 62.9174 325.075 63.1038C355.711 63.4901 359.054 81.8318 359.041 89.7438C359.041 99.3476 354.938 115.678 327.619 116.997C327.166 116.997 327.06 117.663 327.046 117.796C326.354 123.31 322.97 124.949 320.506 126.134L320.186 126.294C317.622 127.434 314.943 128.296 312.194 128.865L309.69 129.477L309.637 129.464ZM324.409 64.4358C310.876 64.4358 303.097 69.4708 299.101 73.7598C296.759 76.1685 294.941 79.0353 293.761 82.1803C292.58 85.3253 292.063 88.6804 292.241 92.0349C292.654 100.64 299.301 110.683 313.193 113.533C313.633 113.68 314.046 113.773 314.525 113.88C316.364 114.319 318.894 114.919 319.654 118.115C320.08 119.927 319.387 121.885 317.576 123.963C316.407 125.179 315.102 126.256 313.686 127.173C315.767 126.685 317.793 125.989 319.734 125.095L320.067 124.935C322.491 123.763 325.248 122.431 325.861 117.636C325.868 117.14 326.059 116.665 326.396 116.301C326.733 115.937 327.192 115.71 327.686 115.665C353.899 114.399 357.829 98.8814 357.842 89.7305C357.842 82.258 354.685 64.8354 325.181 64.4225L324.409 64.4358Z" fill="#407BFF"/>
<path d="M317.536 91.036L323.344 96.8435L336.464 86.2141" fill="white"/>
<path d="M323.343 98.1754C323.168 98.1764 322.994 98.1428 322.831 98.0766C322.669 98.0103 322.522 97.9126 322.397 97.7891L316.59 91.9816C316.45 91.8622 316.337 91.7153 316.257 91.55C316.177 91.3848 316.132 91.2048 316.125 91.0213C316.118 90.8379 316.149 90.655 316.216 90.484C316.283 90.3131 316.384 90.1579 316.514 90.028C316.644 89.8982 316.799 89.7967 316.97 89.7297C317.141 89.6627 317.324 89.6318 317.507 89.6389C317.691 89.646 317.871 89.6909 318.036 89.7709C318.201 89.8508 318.348 89.9641 318.468 90.1035L323.436 95.0585L335.624 85.1884C335.758 85.0677 335.915 84.9756 336.086 84.9176C336.257 84.8596 336.438 84.8369 336.618 84.851C336.798 84.865 336.973 84.9155 337.133 84.9994C337.293 85.0832 337.434 85.1987 337.548 85.3387C337.662 85.4788 337.746 85.6405 337.796 85.8141C337.845 85.9877 337.859 86.1696 337.836 86.3486C337.813 86.5276 337.753 86.7001 337.662 86.8556C337.57 87.0111 337.448 87.1463 337.302 87.253L324.182 97.909C323.941 98.0904 323.645 98.1843 323.343 98.1754Z" fill="#407BFF"/>
<path d="M493 59.4407C493.345 59.5654 493.721 59.5743 494.072 59.4662C494.423 59.358 494.729 59.1387 494.944 58.8414L505.041 44.7488C505.171 44.5713 505.264 44.3695 505.316 44.1554C505.367 43.9413 505.374 43.7191 505.338 43.502C505.302 43.2848 505.223 43.077 505.106 42.8908C504.989 42.7046 504.835 42.5438 504.655 42.4178C504.294 42.1619 503.846 42.0589 503.41 42.1312C502.973 42.2036 502.583 42.4454 502.324 42.8041L492.227 56.8966C492.097 57.0741 492.003 57.2759 491.952 57.49C491.901 57.7041 491.893 57.9263 491.929 58.1434C491.965 58.3606 492.044 58.5684 492.162 58.7546C492.279 58.9408 492.433 59.1016 492.613 59.2276C492.731 59.3165 492.861 59.3882 493 59.4407Z" fill="#9192FF"/>
<path d="M504.934 77.9954C505.207 78.0953 505.501 78.1228 505.787 78.0753L522.53 75.3047C522.943 75.206 523.303 74.9544 523.538 74.6008C523.773 74.2471 523.865 73.8176 523.796 73.3987C523.726 72.9799 523.501 72.6028 523.165 72.3435C522.829 72.0843 522.407 71.962 521.984 72.0014L505.241 74.7719C504.878 74.8349 504.546 75.0153 504.296 75.2854C504.046 75.5555 503.892 75.9003 503.857 76.2667C503.822 76.6331 503.909 77.0008 504.104 77.3132C504.298 77.6255 504.59 77.8652 504.934 77.9954Z" fill="#9192FF"/>
<path d="M453.493 66.3403C453.872 66.4739 454.286 66.4671 454.66 66.3213C455.034 66.1754 455.344 65.9002 455.533 65.5455C455.721 65.1908 455.776 64.7803 455.688 64.3884C455.6 63.9965 455.374 63.6493 455.051 63.4099L440.532 53.007C440.178 52.8169 439.767 52.7614 439.375 52.8506C438.984 52.9398 438.637 53.1678 438.4 53.4924C438.163 53.817 438.052 54.2163 438.086 54.6167C438.121 55.0172 438.299 55.3916 438.588 55.671L453.106 66.0739C453.221 66.1815 453.351 66.2713 453.493 66.3403Z" fill="#9192FF"/>
<path d="M513.673 109.484C514.053 109.625 514.471 109.624 514.851 109.48C515.23 109.337 515.545 109.061 515.736 108.704C515.928 108.346 515.984 107.932 515.893 107.537C515.803 107.141 515.573 106.792 515.245 106.553L501.592 96.7632C501.412 96.6347 501.21 96.5427 500.995 96.4925C500.78 96.4423 500.557 96.435 500.34 96.4708C500.122 96.5067 499.913 96.5851 499.726 96.7016C499.539 96.818 499.376 96.9702 499.247 97.1495C499.119 97.3288 499.027 97.5317 498.977 97.7465C498.926 97.9614 498.919 98.184 498.955 98.4017C498.991 98.6193 499.069 98.8278 499.186 99.0152C499.302 99.2026 499.454 99.3653 499.634 99.4938L513.287 109.271C513.407 109.357 513.536 109.428 513.673 109.484Z" fill="#9192FF"/>
<path d="M471.728 54.8719C472.002 54.9731 472.299 55.0007 472.587 54.9519C472.876 54.9032 473.147 54.7798 473.373 54.5939C473.599 54.4081 473.773 54.1664 473.877 53.8927C473.981 53.619 474.011 53.3229 473.965 53.0337L471.075 35.5712C471.054 35.3418 470.985 35.1192 470.874 34.9174C470.763 34.7155 470.611 34.5387 470.429 34.398C470.247 34.2573 470.037 34.1556 469.814 34.0994C469.59 34.0431 469.358 34.0335 469.13 34.0711C468.903 34.1086 468.686 34.1926 468.492 34.3178C468.299 34.443 468.133 34.6066 468.006 34.7986C467.878 34.9906 467.792 35.2067 467.751 35.4336C467.711 35.6605 467.718 35.8932 467.772 36.1173L470.662 53.5399C470.703 53.8374 470.824 54.1182 471.011 54.3527C471.199 54.5872 471.446 54.7666 471.728 54.8719Z" fill="#9192FF"/>
<g opacity="0.5">
<path d="M493 59.4407C493.345 59.5654 493.721 59.5743 494.072 59.4662C494.423 59.358 494.729 59.1387 494.944 58.8414L505.041 44.7488C505.171 44.5713 505.264 44.3695 505.316 44.1554C505.367 43.9413 505.374 43.7191 505.338 43.502C505.302 43.2848 505.223 43.077 505.106 42.8908C504.989 42.7046 504.835 42.5438 504.655 42.4178C504.294 42.1619 503.846 42.0589 503.41 42.1312C502.973 42.2036 502.583 42.4454 502.324 42.8041L492.227 56.8966C492.097 57.0741 492.003 57.2759 491.952 57.49C491.901 57.7041 491.893 57.9263 491.929 58.1434C491.965 58.3606 492.044 58.5684 492.162 58.7546C492.279 58.9408 492.433 59.1016 492.613 59.2276C492.731 59.3165 492.861 59.3882 493 59.4407Z" fill="white"/>
<path d="M504.934 77.9954C505.207 78.0953 505.501 78.1228 505.787 78.0753L522.53 75.3047C522.943 75.206 523.303 74.9544 523.538 74.6008C523.773 74.2471 523.865 73.8176 523.796 73.3987C523.726 72.9799 523.501 72.6028 523.165 72.3435C522.829 72.0843 522.407 71.962 521.984 72.0014L505.241 74.7719C504.878 74.8349 504.546 75.0153 504.296 75.2854C504.046 75.5555 503.892 75.9003 503.857 76.2667C503.822 76.6331 503.909 77.0008 504.104 77.3132C504.298 77.6255 504.59 77.8652 504.934 77.9954Z" fill="white"/>
<path d="M453.493 66.3403C453.872 66.4739 454.286 66.4671 454.66 66.3213C455.034 66.1754 455.344 65.9002 455.533 65.5455C455.721 65.1908 455.776 64.7803 455.688 64.3884C455.6 63.9965 455.374 63.6493 455.051 63.4099L440.532 53.007C440.178 52.8169 439.767 52.7614 439.375 52.8506C438.984 52.9398 438.637 53.1678 438.4 53.4924C438.163 53.817 438.052 54.2163 438.086 54.6167C438.121 55.0172 438.299 55.3916 438.588 55.671L453.106 66.0739C453.221 66.1815 453.351 66.2713 453.493 66.3403Z" fill="white"/>
<path d="M513.673 109.484C514.053 109.625 514.471 109.624 514.851 109.48C515.23 109.337 515.545 109.061 515.736 108.704C515.928 108.346 515.984 107.932 515.893 107.537C515.803 107.141 515.573 106.792 515.245 106.553L501.592 96.7632C501.412 96.6347 501.21 96.5427 500.995 96.4925C500.78 96.4423 500.557 96.435 500.34 96.4708C500.122 96.5067 499.913 96.5851 499.726 96.7016C499.539 96.818 499.376 96.9702 499.247 97.1495C499.119 97.3288 499.027 97.5317 498.977 97.7465C498.926 97.9614 498.919 98.184 498.955 98.4017C498.991 98.6193 499.069 98.8278 499.186 99.0152C499.302 99.2026 499.454 99.3653 499.634 99.4938L513.287 109.271C513.407 109.357 513.536 109.428 513.673 109.484Z" fill="white"/>
<path d="M471.728 54.8719C472.002 54.9731 472.299 55.0007 472.587 54.9519C472.876 54.9032 473.147 54.7798 473.373 54.5939C473.599 54.4081 473.773 54.1664 473.877 53.8927C473.981 53.619 474.011 53.3229 473.965 53.0337L471.075 35.5712C471.054 35.3418 470.985 35.1192 470.874 34.9174C470.763 34.7155 470.611 34.5387 470.429 34.398C470.247 34.2573 470.037 34.1556 469.814 34.0994C469.59 34.0431 469.358 34.0335 469.13 34.0711C468.903 34.1086 468.686 34.1926 468.492 34.3178C468.299 34.443 468.133 34.6066 468.006 34.7986C467.878 34.9906 467.792 35.2067 467.751 35.4336C467.711 35.6605 467.718 35.8932 467.772 36.1173L470.662 53.5399C470.703 53.8374 470.824 54.1182 471.011 54.3527C471.199 54.5872 471.446 54.7666 471.728 54.8719Z" fill="white"/>
</g>
<path d="M457.182 71.109C460.828 66.6048 466.062 63.6696 471.806 62.9078C477.551 62.146 483.369 63.6155 488.063 67.0137C492.756 70.412 495.969 75.4804 497.038 81.1757C498.108 86.8709 496.953 92.7595 493.812 97.6292C488.484 104.968 479.067 105.701 471.168 108.845C468.717 109.817 463.975 116.637 463.975 116.637L448.444 105.381C448.444 105.381 453.439 98.7214 453.599 96.124C454.119 87.6391 451.868 78.4483 457.182 71.109Z" fill="#9192FF"/>
<path opacity="0.4" d="M457.182 71.109C460.828 66.6048 466.062 63.6696 471.806 62.9078C477.551 62.146 483.369 63.6155 488.063 67.0137C492.756 70.412 495.969 75.4804 497.038 81.1757C498.108 86.8709 496.953 92.7595 493.812 97.6292C488.484 104.968 479.067 105.701 471.168 108.845C468.717 109.817 463.975 116.637 463.975 116.637L448.444 105.381C448.444 105.381 453.439 98.7214 453.599 96.124C454.119 87.6391 451.868 78.4483 457.182 71.109Z" fill="white"/>
<path d="M448.884 114.106L455.544 118.901C456.129 119.326 456.792 119.631 457.495 119.799C458.197 119.967 458.927 119.995 459.64 119.881C460.354 119.767 461.038 119.514 461.654 119.135C462.27 118.757 462.805 118.261 463.229 117.676L447.685 106.434C446.833 107.612 446.48 109.08 446.705 110.517C446.929 111.953 447.712 113.244 448.884 114.106Z" fill="#263238"/>
<path d="M448.884 121.179C449.847 121.875 451.047 122.161 452.221 121.973C453.394 121.786 454.446 121.141 455.144 120.18L447.885 114.918C447.189 115.882 446.903 117.082 447.09 118.255C447.278 119.429 447.923 120.48 448.884 121.179Z" fill="#263238"/>
<path opacity="0.5" d="M448.884 121.179C449.847 121.875 451.047 122.161 452.221 121.973C453.394 121.786 454.446 121.141 455.144 120.18L447.885 114.918C447.189 115.882 446.903 117.082 447.09 118.255C447.278 119.429 447.923 120.48 448.884 121.179Z" fill="white"/>
<g opacity="0.7">
<path d="M448.884 114.106L455.544 118.901C456.129 119.326 456.792 119.631 457.495 119.799C458.197 119.967 458.927 119.995 459.64 119.881C460.354 119.767 461.038 119.514 461.654 119.135C462.27 118.757 462.805 118.261 463.229 117.676L447.685 106.434C446.833 107.612 446.48 109.08 446.705 110.517C446.929 111.953 447.712 113.244 448.884 114.106Z" fill="white"/>
</g>
<path opacity="0.3" d="M461.804 69.2708C453.506 80.8459 451.362 99.1476 460.299 105.541C469.237 111.935 486.939 102.478 494.159 92.461C498.581 86.2938 494.931 76.0907 485.994 69.6971C477.056 63.3035 466.2 63.1037 461.804 69.2708Z" fill="white"/>
<path opacity="0.4" d="M459.42 84.6153C457.939 86.6764 457.104 89.1302 457.018 91.6664C456.933 94.2026 457.601 96.7072 458.939 98.8632C460.278 101.019 462.225 102.73 464.536 103.779C466.847 104.828 469.417 105.168 471.921 104.756C474.425 104.344 476.75 103.198 478.603 101.464C480.456 99.7301 481.753 97.4855 482.329 95.0143C482.906 92.5431 482.737 89.9563 481.843 87.5812C480.95 85.2062 479.371 83.1496 477.309 81.6716C474.545 79.6918 471.109 78.8898 467.755 79.4418C464.401 79.9937 461.403 81.8545 459.42 84.6153Z" fill="white"/>
<path opacity="0.4" d="M460.725 89.5039C457.822 93.4999 460.219 97.1229 464.268 100.027C468.318 102.93 472.46 104.023 475.364 100.027C478.268 96.0306 475.817 92.4609 471.781 89.5571C467.745 86.6534 463.616 85.5079 460.725 89.5039Z" fill="white"/>
<path d="M142.071 117.809L146.613 121.592L172.88 99.1478L206.42 105.928L231.981 81.8185L234.272 84.962L240.333 71.2957L225.468 72.8807L227.759 76.0242L205.328 100.866L171.748 94.3392L142.071 117.809Z" fill="#9192FF"/>
<g opacity="0.3">
<path d="M142.071 117.809L146.613 121.592L172.88 99.1478L206.42 105.928L231.981 81.8185L234.272 84.962L240.333 71.2957L225.468 72.8807L227.759 76.0242L205.328 100.866L171.748 94.3392L142.071 117.809Z" fill="white"/>
</g>
<path d="M390.409 314.239C391.181 326.307 388.198 341.838 385.347 353.413C382.99 362.977 381.351 365.614 380.725 369.85C380.046 374.672 381.511 381.838 381.138 387.899C379.713 411.875 369.963 460.36 369.963 460.36L361.784 459.84L361.997 365.974L367.325 275.025L399.6 283.63C402.823 301.292 390.409 314.239 390.409 314.239Z" fill="#DD8C6A"/>
<path d="M431.941 462.024L424.508 461.811L403.876 370.17L383.017 281.499L416.463 280.5C424.455 296.484 416.343 312.468 416.343 312.468C420.512 323.829 422.098 339.56 422.67 351.482C423.15 361.312 422.284 364.322 422.923 368.545C423.669 373.367 426.014 379.773 427.412 385.728C432.9 409.357 431.941 462.024 431.941 462.024Z" fill="#DD8C6A"/>
<path d="M323.01 199.514L326.899 204.629C330.775 205.828 330.695 211.595 330.695 211.595C331.534 212.248 339.42 217.23 341.258 218.841L336.609 223.85C334.598 220.773 327.605 215.565 327.605 215.565C327.605 215.565 318.094 209.744 316.536 207.666C314.978 205.588 317.575 199.407 317.575 199.407L323.01 199.514Z" fill="#DD8C6A"/>
<path d="M333.772 212.115C340.153 216.763 349.57 223.89 349.57 223.89C354.585 218.348 359.875 213.062 365.421 208.052C368.859 204.789 372.793 202.092 377.076 200.06L375.437 219.228C370.389 223.57 354.565 236.703 348.384 236.171C343.283 235.731 333.812 224.795 328.404 218.029L333.772 212.115Z" fill="#263238"/>
<path opacity="0.2" d="M359.839 231.109C363.209 225.421 372.453 210.49 372.453 210.49L374.664 215.511L373.172 221.026C370.828 222.997 363.222 228.645 359.839 231.109Z" fill="black"/>
<path d="M420.525 209.757C419.17 227.309 416.652 244.753 412.986 261.971C412.986 261.971 432.499 277.955 426.172 343.61C426.172 343.61 406.432 352.348 359.839 341.958L368.697 261.678C368.697 261.678 366.645 209.504 372.187 203.683C377.088 198.515 398.467 191.695 414.811 199.794C416.645 200.699 418.168 202.13 419.186 203.905C420.204 205.679 420.67 207.717 420.525 209.757Z" fill="#3F97FF"/>
<path opacity="0.4" d="M420.525 209.757C419.17 227.309 416.652 244.753 412.986 261.971C412.986 261.971 432.499 277.955 426.172 343.61C426.172 343.61 406.432 352.348 359.839 341.958L368.697 261.678C368.697 261.678 366.645 209.504 372.187 203.683C377.088 198.515 398.467 191.695 414.811 199.794C416.645 200.699 418.168 202.13 419.186 203.905C420.204 205.679 420.67 207.717 420.525 209.757Z" fill="black"/>
<path opacity="0.3" d="M397.841 260.213C397.841 260.213 383.549 262.691 373.506 260.213V266.34C373.506 266.34 380.978 267.419 397.841 266.34V260.213Z" fill="black"/>
<path d="M406.153 177.416C404.261 182.744 401.797 192.268 403.822 197.742C404.063 198.378 404.079 199.078 403.869 199.725C403.658 200.372 403.232 200.927 402.663 201.299C398.547 204.269 391.847 206.627 386.812 206.134C380.352 205.428 382.03 200.806 383.682 198.342C384.121 197.676 384.814 196.73 385.6 196.583C391.953 195.505 393.166 190.736 392.673 185.927L406.153 177.416Z" fill="#DD8C6A"/>
<path opacity="0.3" d="M400.665 180.893L392.673 185.888C392.779 187.066 392.779 188.252 392.673 189.431C394.274 189.382 395.84 188.943 397.232 188.151C398.625 187.36 399.804 186.24 400.665 184.889C401.597 183.197 401.318 181.199 400.665 180.893Z" fill="black"/>
<path d="M385.174 180.147L381.564 186.633C382.683 186.727 383.696 187.1 384.815 187.193C385.374 186.314 386.04 185.448 386.599 184.529C386.386 185.435 385.654 186.407 385.427 187.299C387.414 187.665 389.428 187.856 391.448 187.872C391.549 187.574 391.589 187.258 391.564 186.945C391.538 186.631 391.449 186.325 391.301 186.047C390.231 183.638 388.344 181.685 385.973 180.533L385.174 180.147Z" fill="#263238"/>
<path d="M408.67 168.665C406.339 176.963 405.394 181.985 400.212 185.341C392.42 190.456 382.896 184.342 382.67 175.525C382.496 167.533 386.346 155.331 395.297 153.773C398.359 153.229 401.511 153.921 404.065 155.696C406.619 157.47 408.365 160.184 408.923 163.244C409.255 165.046 409.168 166.901 408.67 168.665Z" fill="#DD8C6A"/>
<path d="M389.21 168.665C388.207 170.228 386.997 171.649 385.613 172.887C385.942 173.231 386.34 173.5 386.781 173.677C387.222 173.854 387.696 173.934 388.171 173.913L389.21 168.665Z" fill="#FF5652"/>
<path d="M398.334 165.615C398.4 165.628 398.468 165.628 398.534 165.615C398.631 165.566 398.705 165.482 398.742 165.381C398.779 165.279 398.776 165.168 398.734 165.068C398.471 164.47 398.069 163.943 397.562 163.53C397.055 163.118 396.457 162.833 395.817 162.697C395.709 162.682 395.6 162.71 395.513 162.775C395.425 162.84 395.367 162.936 395.351 163.044C395.335 163.151 395.363 163.261 395.428 163.348C395.493 163.435 395.59 163.494 395.697 163.51C396.202 163.626 396.672 163.859 397.07 164.189C397.468 164.52 397.782 164.94 397.988 165.415C398.023 165.476 398.074 165.526 398.135 165.561C398.195 165.596 398.264 165.615 398.334 165.615Z" fill="#263238"/>
<path d="M385.24 161.698C385.301 161.735 385.37 161.754 385.44 161.754C385.511 161.754 385.58 161.735 385.64 161.698C386.078 161.43 386.573 161.269 387.085 161.23C387.596 161.191 388.11 161.274 388.584 161.472C388.681 161.518 388.793 161.525 388.895 161.49C388.997 161.455 389.081 161.382 389.13 161.285C389.155 161.238 389.171 161.187 389.176 161.134C389.181 161.08 389.175 161.027 389.159 160.976C389.142 160.925 389.116 160.878 389.082 160.837C389.047 160.797 389.004 160.763 388.957 160.739C388.357 160.478 387.703 160.363 387.05 160.405C386.396 160.446 385.762 160.643 385.2 160.979C385.154 161.004 385.113 161.038 385.079 161.079C385.046 161.121 385.021 161.168 385.006 161.219C384.991 161.27 384.987 161.323 384.993 161.375C384.999 161.428 385.015 161.479 385.041 161.525C385.09 161.6 385.159 161.66 385.24 161.698Z" fill="#263238"/>
<path d="M403.516 195.025L394.192 202.245C393.795 202.554 393.332 202.766 392.839 202.867C392.347 202.967 391.837 202.953 391.351 202.824C390.865 202.695 390.415 202.455 390.037 202.124C389.659 201.792 389.362 201.378 389.17 200.913L387.053 196.064L384.575 196.703C384.292 196.771 384.033 196.917 383.828 197.124C383.623 197.331 383.48 197.591 383.416 197.876C382.923 200.153 381.112 205.721 381.218 210.716C381.218 210.716 386.933 203.07 390.156 208.572C390.156 208.572 394.365 203.603 397.762 212.195C399.936 209.07 401.86 205.779 403.516 202.351C405.261 198.275 406.433 196.064 406.433 196.064L403.516 195.025Z" fill="white"/>
<path d="M404.635 195.438C400.551 213.077 397.768 230.991 396.31 249.038C394.432 276.051 394.045 284.216 404.728 283.044C415.411 281.871 424.162 280.526 422.603 276.637C421.045 272.747 415.224 263.996 415.584 259.534C415.943 255.072 419.66 220.293 420.086 215.032C420.512 209.77 423.682 198.728 404.635 195.438Z" fill="#263238"/>
<path d="M406.459 269.004C406.326 268.285 408.883 265.688 411.787 263.876C413.722 262.721 415.777 261.779 417.914 261.066C417.914 261.066 423.882 254.046 425.533 252.141L430.142 256.137C427.14 258.902 424.281 261.818 421.577 264.875L419.1 270.11C418.209 271.373 417.013 272.39 415.623 273.067C414.061 273.792 412.433 274.368 410.761 274.785C410.44 274.87 410.1 274.85 409.791 274.728C409.482 274.605 409.22 274.388 409.043 274.106C407.931 272.545 407.06 270.825 406.459 269.004Z" fill="#DD8C6A"/>
<path d="M385.893 196.344C385.893 196.344 377.142 212.807 376.569 240.3C375.997 267.792 377.195 282.364 372.107 283.203C367.019 284.043 365.887 280.539 365.887 280.539C365.887 280.539 367.392 265.621 367.392 261.985C367.392 258.348 365.793 236.33 367.392 220.599C368.99 204.869 367.392 205.828 370.056 204.069C372.72 202.311 378.754 197.796 385.893 196.344Z" fill="#263238"/>
<path opacity="0.2" d="M417.115 244.669L411.867 214.552C411.867 214.552 416.196 218.961 419.406 222.344C418.794 228.498 417.888 237.183 417.115 244.669Z" fill="black"/>
<path d="M414.731 198.888C414.731 198.888 411.174 207.959 411.867 214.552C412.16 217.349 432.033 238.661 432.033 238.661L417.048 258.535L424.774 265.195C424.774 265.195 446.086 244.096 446.259 238.382C446.432 232.667 422.736 201.299 414.731 198.888Z" fill="#263238"/>
<path d="M395.311 167.679C395.177 168.372 394.698 168.851 394.245 168.771C393.792 168.691 393.526 168.052 393.672 167.346C393.819 166.64 394.285 166.174 394.738 166.254C395.191 166.334 395.444 166.973 395.311 167.679Z" fill="#263238"/>
<path d="M387.465 166.134C387.332 166.827 386.852 167.32 386.399 167.226C385.946 167.133 385.693 166.507 385.826 165.814C385.96 165.122 386.439 164.629 386.892 164.722C387.345 164.815 387.611 165.428 387.465 166.134Z" fill="#263238"/>
<path d="M387.079 164.789L385.507 163.99C385.507 163.99 386.12 165.428 387.079 164.789Z" fill="#263238"/>
<path d="M394.924 166.334L393.353 165.535C393.353 165.535 393.965 167 394.924 166.334Z" fill="#263238"/>
<path d="M390.449 177.776C390.006 177.811 389.56 177.811 389.117 177.776C389.087 177.776 389.057 177.77 389.029 177.757C389.001 177.745 388.976 177.727 388.956 177.704C388.936 177.681 388.921 177.655 388.912 177.626C388.903 177.597 388.9 177.566 388.904 177.536C388.907 177.478 388.933 177.424 388.975 177.384C389.017 177.345 389.073 177.323 389.13 177.323C390.087 177.406 391.049 177.265 391.942 176.911C392.834 176.557 393.632 176 394.272 175.285C394.292 175.262 394.317 175.244 394.344 175.232C394.372 175.219 394.402 175.213 394.432 175.213C394.462 175.213 394.492 175.219 394.519 175.232C394.547 175.244 394.572 175.262 394.592 175.285C394.634 175.327 394.658 175.385 394.658 175.445C394.658 175.505 394.634 175.562 394.592 175.604C393.535 176.826 392.055 177.602 390.449 177.776Z" fill="#263238"/>
<path d="M403.716 152.441C407.804 164.135 407.221 176.956 402.091 188.232C403.25 187.886 404.488 187.619 405.634 187.286C406.193 185.808 406.633 184.289 407.192 182.824C407.006 184.156 406.646 185.808 406.46 187.206L409.59 186.633C410.136 185.208 410.589 183.61 411.135 182.185C410.895 183.45 410.629 185.222 410.376 186.487C414.006 184.012 416.57 180.259 417.555 175.977C418.563 171.237 417.943 166.296 415.797 161.952C413.213 157.436 408.698 155.585 403.716 152.441Z" fill="#263238"/>
<path d="M411.588 175.458C410.945 177.537 409.509 179.279 407.592 180.306C405.047 181.638 403.169 179.534 403.369 176.817C403.529 174.379 405.061 170.729 407.858 170.49C408.476 170.44 409.096 170.548 409.661 170.803C410.227 171.058 410.718 171.451 411.09 171.947C411.462 172.443 411.703 173.025 411.79 173.639C411.877 174.253 411.807 174.878 411.588 175.458Z" fill="#DD8C6A"/>
<path d="M385.946 217.163C385.539 217.16 385.138 217.065 384.774 216.883C384.358 216.676 383.997 216.373 383.72 216.001C383.442 215.629 383.256 215.196 383.176 214.739C383.097 213.964 383.247 213.182 383.607 212.491C383.966 211.8 384.52 211.23 385.2 210.849C386.398 210.157 387.719 209.705 389.09 209.517H389.249H390.328C390.502 209.527 390.664 209.603 390.783 209.73C390.902 209.856 390.968 210.023 390.968 210.197C390.964 210.369 390.894 210.533 390.773 210.654C390.651 210.776 390.487 210.846 390.315 210.849C389.662 210.849 388.876 212.181 388.717 213.26V213.42C388.717 214.078 388.565 214.728 388.271 215.318C387.977 215.907 387.551 216.42 387.025 216.817C386.701 217.022 386.329 217.141 385.946 217.163ZM388.171 211.116C387.375 211.262 386.613 211.551 385.919 211.968C385.468 212.225 385.096 212.6 384.842 213.053C384.589 213.506 384.464 214.02 384.481 214.539C384.532 214.786 384.639 215.017 384.793 215.216C384.948 215.415 385.147 215.575 385.373 215.684C385.525 215.766 385.694 215.809 385.866 215.809C386.038 215.809 386.208 215.766 386.359 215.684C387.052 215.325 387.212 214.272 387.371 213.26V213.1C387.506 212.393 387.778 211.719 388.171 211.116Z" fill="white"/>
<path d="M394.085 217.602C393.634 217.603 393.193 217.469 392.82 217.216C392.332 216.771 391.957 216.217 391.725 215.598C391.494 214.98 391.412 214.316 391.488 213.66V213.5C391.488 212.448 390.795 211.022 390.156 210.929C389.985 210.909 389.828 210.822 389.721 210.688C389.614 210.553 389.564 210.381 389.583 210.21C389.597 210.039 389.677 209.88 389.806 209.768C389.936 209.656 390.105 209.599 390.276 209.61H391.355H391.514C392.859 209.935 394.13 210.514 395.257 211.315C395.889 211.767 396.375 212.393 396.657 213.117C396.938 213.841 397.003 214.631 396.842 215.391C396.718 215.84 396.487 216.252 396.169 216.593C395.851 216.934 395.456 217.193 395.018 217.349C394.726 217.492 394.409 217.578 394.085 217.602ZM392.274 211.329C392.59 211.989 392.775 212.703 392.82 213.433V213.606C392.82 214.619 392.926 215.671 393.566 216.124C393.713 216.212 393.879 216.264 394.051 216.275C394.222 216.287 394.393 216.258 394.551 216.191C394.789 216.104 395.005 215.965 395.18 215.782C395.356 215.6 395.487 215.38 395.564 215.138C395.633 214.632 395.563 214.117 395.361 213.647C395.159 213.178 394.833 212.772 394.418 212.474C393.773 211.975 393.048 211.588 392.274 211.329Z" fill="white"/>
<path d="M386.28 224.356C386.209 224.37 386.137 224.37 386.066 224.356C385.899 224.301 385.76 224.182 385.68 224.024C385.6 223.867 385.586 223.684 385.64 223.517C386.966 219.398 387.859 215.153 388.304 210.849C388.322 210.673 388.409 210.51 388.546 210.398C388.684 210.285 388.86 210.232 389.037 210.25C389.213 210.267 389.376 210.355 389.488 210.492C389.601 210.629 389.654 210.806 389.636 210.982C389.195 215.378 388.303 219.717 386.972 223.929C386.92 224.067 386.824 224.183 386.698 224.261C386.573 224.338 386.426 224.371 386.28 224.356Z" fill="white"/>
<path d="M391.608 227.672C391.476 227.672 391.348 227.632 391.239 227.559C391.13 227.485 391.045 227.381 390.995 227.259C390.477 225.923 390.184 224.509 390.129 223.077C390.127 221.622 390.247 220.169 390.489 218.735C390.595 218.015 390.702 217.296 390.769 216.577C391.106 214.585 390.743 212.538 389.743 210.783C389.694 210.71 389.66 210.628 389.642 210.543C389.625 210.457 389.624 210.368 389.641 210.282C389.658 210.197 389.691 210.115 389.74 210.042C389.788 209.969 389.85 209.906 389.923 209.857C389.995 209.808 390.077 209.774 390.163 209.756C390.249 209.739 390.337 209.738 390.423 209.755C390.509 209.772 390.591 209.805 390.664 209.854C390.737 209.902 390.8 209.964 390.849 210.037C392.027 212.044 392.465 214.4 392.087 216.697C392.021 217.443 391.914 218.189 391.808 218.921C391.576 220.276 391.46 221.649 391.461 223.024C391.51 224.305 391.771 225.57 392.234 226.767C392.296 226.931 392.291 227.113 392.222 227.275C392.152 227.436 392.023 227.564 391.861 227.632C391.779 227.66 391.694 227.673 391.608 227.672Z" fill="white"/>
<path d="M403.076 167.719C402.357 167.066 401.345 166.254 400.625 165.588C400.966 164.14 401.083 162.649 400.972 161.166C400.639 162.338 400.532 163.537 400.199 164.709L397.748 163.084C397.165 162.605 396.449 162.317 395.697 162.258C395.83 161.046 395.883 159.807 396.03 158.595C395.75 159.674 395.431 160.873 395.164 161.952C394.205 161.818 393.1 161.592 392.154 161.459C392.26 160.127 392.42 158.901 392.54 157.609C392.127 158.622 391.834 160.353 391.421 161.365L391.142 160.979C388.415 160.312 385.588 160.153 382.803 160.513C381.871 156.85 382.99 151.668 386.586 150.483C398.774 146.42 408.751 155.931 409.03 156.717C410.855 161.738 407.485 165.068 403.076 167.719Z" fill="#263238"/>
<path d="M407.591 177.949C407.591 178.178 407.523 178.402 407.396 178.593C407.269 178.783 407.087 178.932 406.876 179.02C406.664 179.107 406.431 179.13 406.206 179.085C405.981 179.041 405.775 178.93 405.613 178.768C405.451 178.606 405.34 178.4 405.296 178.175C405.251 177.95 405.274 177.717 405.362 177.505C405.449 177.294 405.598 177.113 405.788 176.985C405.979 176.858 406.203 176.79 406.432 176.79C406.74 176.79 407.034 176.912 407.252 177.129C407.469 177.347 407.591 177.642 407.591 177.949Z" fill="#3F97FF"/>
<path d="M359.001 458.175C352.567 461.705 351.848 461.771 344.748 463.117C343.19 463.41 343.736 467.113 347.412 467.193C353.419 467.379 352.913 467.193 358.068 467.299C362.437 467.406 367.699 467.779 371.175 467.925H371.295C371.674 467.898 372.028 467.721 372.277 467.434C372.527 467.147 372.653 466.773 372.627 466.393L371.868 458.481C371.846 458.314 371.766 458.159 371.642 458.045C371.518 457.93 371.357 457.863 371.188 457.855L361.278 457.576C360.479 457.565 359.691 457.772 359.001 458.175Z" fill="#263238"/>
<path d="M359.04 458.774C359.058 458.742 359.068 458.705 359.068 458.668C359.068 458.63 359.058 458.594 359.04 458.561C359.006 458.538 358.967 458.526 358.926 458.526C358.886 458.526 358.847 458.538 358.813 458.561C358.387 458.708 354.684 460.173 354.404 461.359C354.379 461.471 354.381 461.588 354.411 461.7C354.441 461.811 354.499 461.914 354.578 461.998C354.707 462.137 354.867 462.245 355.045 462.312C355.223 462.379 355.414 462.404 355.603 462.384C356.935 462.238 358.334 460.12 359.066 458.868L359.04 458.774ZM354.791 461.319C355.057 460.666 356.908 459.733 358.334 459.121C357.281 460.799 356.229 461.785 355.51 461.905C355.385 461.922 355.258 461.907 355.141 461.86C355.024 461.814 354.922 461.737 354.844 461.638C354.808 461.611 354.782 461.573 354.767 461.531C354.753 461.488 354.752 461.442 354.764 461.398L354.791 461.319Z" fill="#3F97FF"/>
<path d="M359.04 458.774C359.049 458.737 359.046 458.698 359.032 458.662C359.018 458.626 358.993 458.596 358.96 458.575C357.973 457.8 356.765 457.357 355.51 457.309C355.301 457.336 355.1 457.405 354.919 457.512C354.738 457.62 354.581 457.764 354.458 457.935C354.125 458.401 354.218 458.721 354.378 458.908C355.031 459.72 357.855 459.4 358.92 458.908C358.95 458.897 358.976 458.88 358.997 458.856C359.018 458.833 359.033 458.805 359.04 458.774ZM354.698 458.335L354.844 458.175C354.932 458.049 355.044 457.942 355.175 457.862C355.306 457.782 355.452 457.73 355.604 457.709C356.621 457.733 357.606 458.068 358.428 458.668C357.202 459.041 355.124 459.107 354.738 458.668C354.738 458.668 354.645 458.561 354.738 458.401L354.698 458.335Z" fill="#3F97FF"/>
<path d="M421.059 458.801C417.425 461.776 413.161 463.885 408.591 464.968C406.7 465.501 407.885 468.964 412.414 468.964C419.913 468.844 416.929 468.724 423.336 468.578C428.811 468.471 430.263 468.431 434.605 468.405H434.752C434.971 468.4 435.188 468.351 435.388 468.26C435.589 468.17 435.769 468.04 435.918 467.878C436.067 467.716 436.182 467.527 436.257 467.32C436.331 467.113 436.362 466.893 436.35 466.673L434.898 458.175C434.851 457.981 434.737 457.811 434.576 457.694C434.415 457.577 434.217 457.521 434.019 457.536L422.577 457.842C421.578 457.722 421.831 458.255 421.059 458.801Z" fill="#263238"/>
<path d="M421.005 459.467C421.031 459.432 421.045 459.39 421.045 459.347C421.045 459.304 421.031 459.262 421.005 459.227C420.988 459.183 420.959 459.145 420.921 459.117C420.884 459.089 420.839 459.072 420.792 459.067C420.219 459.067 415.251 459.227 414.465 460.399C414.397 460.505 414.361 460.627 414.361 460.752C414.361 460.878 414.397 461 414.465 461.105C414.573 461.302 414.723 461.473 414.905 461.604C415.087 461.736 415.296 461.824 415.517 461.865C417.089 462.184 419.646 460.533 421.058 459.507L421.005 459.467ZM414.931 460.533C415.504 459.946 418.075 459.653 420.006 459.56C418.061 460.892 416.396 461.545 415.531 461.398C415.385 461.374 415.248 461.315 415.13 461.227C415.012 461.139 414.917 461.024 414.851 460.892C414.822 460.851 414.806 460.803 414.806 460.752C414.806 460.702 414.822 460.653 414.851 460.612L414.931 460.533Z" fill="#3F97FF"/>
<path d="M421.004 459.467C421.027 459.434 421.04 459.394 421.04 459.354C421.04 459.313 421.027 459.274 421.004 459.241C420.911 459.174 419.246 457.003 417.461 456.723C416.948 456.626 416.417 456.721 415.969 456.99C415.37 457.349 415.357 457.709 415.463 457.949C415.889 458.987 419.353 459.693 420.791 459.6C420.835 459.596 420.877 459.582 420.914 459.559C420.951 459.536 420.982 459.504 421.004 459.467ZM416.063 457.456L416.236 457.283C416.565 457.089 416.953 457.022 417.328 457.096C418.479 457.447 419.5 458.133 420.258 459.067C418.647 459.001 416.183 458.348 415.929 457.735C415.929 457.735 415.929 457.589 416.103 457.442L416.063 457.456Z" fill="#3F97FF"/>
<path d="M303.802 248.398C301.924 252.101 308.171 256.643 308.171 256.643L311.128 259.667C311.613 260.195 312.275 260.525 312.988 260.594C313.701 260.662 314.415 260.465 314.991 260.04L317.908 257.962L318.001 257.895C318.601 257.438 318.998 256.765 319.11 256.019C319.222 255.273 319.039 254.513 318.601 253.899L316.643 251.235C315.85 250.145 314.832 249.236 313.659 248.571L308.051 245.348L303.802 248.398Z" fill="#FFC3BD"/>
<path d="M279.44 167.266C280.147 165.705 281.298 164.386 282.749 163.474C284.201 162.562 285.888 162.097 287.602 162.136C289.316 162.176 290.98 162.719 292.387 163.697C293.795 164.676 294.883 166.047 295.517 167.639L295.704 168.105C296.856 171.362 297.309 174.825 297.036 178.268C296.956 181.665 296.849 185.115 296.902 188.405C296.956 191.695 296.902 203.576 297.009 206.8C297.116 209.784 303.15 223.277 308.997 242.764C309.116 243.139 309.263 243.504 309.437 243.856L310.516 246.001C310.516 246.001 308.904 247.026 307.252 248.012C305.915 249.018 304.45 249.842 302.896 250.463C302.028 249.676 301.31 248.737 300.779 247.692C296.117 240.34 280.892 213.06 280.093 209.064C279.307 205.361 278.761 193.08 278.414 189.351C278.068 185.621 277.802 181.985 277.695 178.308C277.613 176.463 277.684 174.614 277.908 172.781C278.143 170.873 278.66 169.01 279.44 167.253V167.266Z" fill="#263238"/>
<path opacity="0.3" d="M279.44 167.266C280.147 165.705 281.298 164.386 282.749 163.474C284.201 162.562 285.888 162.097 287.602 162.136C289.316 162.176 290.98 162.719 292.387 163.697C293.795 164.676 294.883 166.047 295.517 167.639L295.704 168.105C296.856 171.362 297.309 174.825 297.036 178.268C296.956 181.665 296.849 185.115 296.902 188.405C296.956 191.695 296.902 203.576 297.009 206.8C297.116 209.784 303.15 223.277 308.997 242.764C309.116 243.139 309.263 243.504 309.437 243.856L310.516 246.001C310.516 246.001 308.904 247.026 307.252 248.012C305.915 249.018 304.45 249.842 302.896 250.463C302.028 249.676 301.31 248.737 300.779 247.692C296.117 240.34 280.892 213.06 280.093 209.064C279.307 205.361 278.761 193.08 278.414 189.351C278.068 185.621 277.802 181.985 277.695 178.308C277.613 176.463 277.684 174.614 277.908 172.781C278.143 170.873 278.66 169.01 279.44 167.253V167.266Z" fill="black"/>
<path d="M231.608 171.862C233.886 198.102 242.597 212.887 241.425 233.853C241.425 233.853 288.711 234.785 290.336 234.785C291.029 196.157 296.543 199.101 294.851 174.645C295.144 166.653 290.576 161.658 285.954 160.859L265.814 156.69L239.853 161.152C237.384 161.574 235.165 162.911 233.637 164.895C232.109 166.88 231.385 169.367 231.608 171.862Z" fill="#407BFF"/>
<path d="M268.744 412.115L274.871 460.533L286.806 459.68L283.583 412.115H268.744Z" fill="#FFC3BD"/>
<path d="M289.709 360.846C290.788 406.507 288.151 445.641 288.151 445.641L272.047 446.733C272.047 446.733 262.976 387.486 266.639 363.283C266.466 358.195 260.578 294.565 258.554 282.537C254.891 260.946 250.975 246.134 250.975 246.134L288.87 244.016C288.87 244.016 289.043 332.101 289.709 360.846Z" fill="#407BFF"/>
<g opacity="0.2">
<path d="M268.091 262.731C268.091 262.731 266.865 312.747 264.681 340.173C263.549 325.348 260.578 294.565 258.554 282.537L268.091 262.731Z" fill="black"/>
</g>
<path d="M218.328 413.007L213.413 458.894L225.308 457.602L233.939 412.434L218.328 413.007Z" fill="#FFC3BD"/>
<path d="M211.921 445.481L230.183 444.815C230.183 444.815 245.74 388.751 252.307 359.128C258.674 326.107 270.556 243.696 270.556 243.696L240.199 241.352C224.029 270.563 229.85 340.493 226.986 360.073C213.266 384.542 211.921 445.481 211.921 445.481Z" fill="#407BFF"/>
<path d="M288.564 229.364H244.115C244.115 229.364 236.816 255.085 236.882 254.832C236.949 254.579 289.043 257.336 289.043 257.336L288.564 229.364Z" fill="#407BFF"/>
<path d="M289.044 455.804C296.929 459.8 297.795 459.88 306.36 461.239C308.251 461.545 307.692 466.021 303.336 466.26C296.103 466.7 296.676 466.407 290.536 466.753C285.274 467.046 277.655 467.672 273.459 467.979H273.326C273.097 467.972 272.872 467.92 272.662 467.826C272.453 467.731 272.265 467.597 272.108 467.43C271.951 467.263 271.828 467.067 271.747 466.852C271.666 466.638 271.628 466.41 271.635 466.18L272.274 456.603C272.293 456.4 272.384 456.211 272.53 456.069C272.677 455.927 272.87 455.843 273.073 455.831L286.3 455.151C287.258 455.1 288.211 455.327 289.044 455.804Z" fill="#263238"/>
<path d="M289.044 456.497C289.976 457.988 291.788 460.493 293.346 460.613C293.576 460.633 293.807 460.597 294.021 460.509C294.234 460.421 294.423 460.283 294.572 460.106C294.666 460.004 294.733 459.88 294.766 459.744C294.798 459.609 294.796 459.468 294.758 459.334C294.372 457.909 289.856 456.284 289.35 456.124C289.3 456.104 289.246 456.1 289.193 456.112C289.141 456.124 289.094 456.151 289.057 456.19C289.035 456.231 289.023 456.277 289.023 456.324C289.023 456.37 289.035 456.416 289.057 456.457L289.044 456.497ZM294.279 459.467C294.292 459.519 294.292 459.573 294.278 459.624C294.264 459.676 294.236 459.722 294.199 459.76C294.107 459.882 293.985 459.977 293.845 460.036C293.704 460.094 293.55 460.114 293.4 460.093C292.52 460.026 291.228 458.761 289.883 456.843C291.641 457.522 293.879 458.588 294.252 459.36L294.279 459.467Z" fill="#407BFF"/>
<path d="M289.044 456.603C290.376 457.136 293.773 457.416 294.532 456.417C294.705 456.19 294.825 455.791 294.399 455.245C294.236 455.041 294.035 454.873 293.806 454.749C293.577 454.625 293.326 454.549 293.067 454.525C291.322 454.312 289.071 456.097 288.951 456.164C288.918 456.194 288.893 456.231 288.876 456.273C288.86 456.314 288.854 456.359 288.857 456.403C288.857 456.454 288.877 456.503 288.911 456.54C288.946 456.577 288.993 456.6 289.044 456.603ZM294.132 455.791C294.166 455.84 294.184 455.898 294.184 455.957C294.184 456.017 294.166 456.075 294.132 456.124C293.679 456.71 291.175 456.71 289.683 456.297C290.655 455.549 291.829 455.113 293.053 455.045C293.237 455.064 293.415 455.121 293.576 455.213C293.736 455.305 293.876 455.429 293.986 455.578L294.172 455.764L294.132 455.791Z" fill="#407BFF"/>
<path d="M228.238 455.311C231.461 458.135 236.083 460.719 243.303 462.744C245.58 463.383 244.142 467.619 238.681 467.499C229.636 467.366 233.233 467.206 225.507 467.046C218.847 466.913 217.156 466.86 211.907 466.82H211.788C211.522 466.817 211.26 466.76 211.018 466.652C210.775 466.545 210.557 466.389 210.376 466.195C210.196 466.001 210.057 465.771 209.967 465.522C209.878 465.272 209.84 465.007 209.856 464.742L211.601 454.485C211.66 454.25 211.801 454.043 211.999 453.901C212.196 453.76 212.438 453.693 212.68 453.713L226.48 454.086C227.625 454.006 227.332 454.645 228.238 455.311Z" fill="#263238"/>
<path d="M228.277 456.15C229.969 457.389 233.046 459.36 234.937 458.988C235.216 458.951 235.483 458.849 235.714 458.689C235.946 458.529 236.136 458.316 236.269 458.068C236.355 457.943 236.4 457.794 236.4 457.642C236.4 457.49 236.355 457.342 236.269 457.216C235.324 455.817 229.316 455.631 228.637 455.631C228.576 455.629 228.517 455.648 228.469 455.684C228.42 455.72 228.386 455.772 228.371 455.831C228.339 455.871 228.322 455.92 228.322 455.971C228.322 456.021 228.339 456.071 228.371 456.11L228.277 456.15ZM235.737 457.482C235.772 457.531 235.791 457.589 235.791 457.649C235.791 457.709 235.772 457.767 235.737 457.815C235.655 457.974 235.537 458.111 235.394 458.217C235.251 458.323 235.086 458.395 234.911 458.428C233.872 458.601 231.847 457.802 229.503 456.204C231.834 456.324 234.937 456.683 235.63 457.389L235.737 457.482Z" fill="#407BFF"/>
<path d="M228.518 456.217C230.276 456.337 234.459 455.484 234.965 454.232C235.111 453.939 235.085 453.5 234.365 453.073C233.824 452.754 233.187 452.636 232.567 452.74C230.409 453.087 228.398 455.697 228.291 455.791C228.263 455.829 228.248 455.876 228.248 455.924C228.248 455.972 228.263 456.018 228.291 456.057C228.344 456.137 228.425 456.195 228.518 456.217ZM234.232 453.646C234.419 453.833 234.365 453.953 234.445 454.006C234.139 454.752 231.168 455.538 229.224 455.631C230.136 454.502 231.365 453.671 232.754 453.247C233.21 453.15 233.686 453.231 234.086 453.473L234.299 453.686L234.232 453.646Z" fill="#407BFF"/>
<path opacity="0.8" d="M231.608 171.862C233.886 198.102 242.597 212.887 241.425 233.853C241.425 233.853 288.711 234.785 290.336 234.785C291.028 196.157 296.543 199.101 294.851 174.645C295.144 166.653 290.362 161.605 285.74 160.806L265.76 156.69L239.8 161.152C237.341 161.586 235.134 162.927 233.617 164.911C232.1 166.894 231.383 169.375 231.608 171.862Z" fill="white"/>
<path d="M280.719 210.902L275.391 220.386L265.747 210.117C265.747 209.863 269.876 166.76 269.876 166.76L272.367 166.573C272.127 171.808 280.719 210.902 280.719 210.902Z" fill="#407BFF"/>
<path d="M279.12 164.935C281.402 183.358 279.518 202.057 273.605 219.654L277.601 262.731C278.387 268.978 282.397 270.203 285.98 270.536L293.332 269.95L290.668 228.845C290.668 228.845 296.676 183.557 295.29 173.3C294.371 166.534 292.134 163.896 290.535 162.524C289.849 161.948 289.029 161.554 288.151 161.379C285.354 160.793 277.122 158.568 277.495 158.715C277.868 158.861 279.12 164.935 279.12 164.935Z" fill="#263238"/>
<path d="M275.218 146.061C274.205 150.869 272.647 157.423 277.882 159.66C280.159 160.646 281.238 163.843 279.054 164.869C276.869 165.894 262.723 164.869 261.485 164.283C258.421 162.711 256.263 161.619 257.915 158.555C260.792 153.32 258.967 142.371 258.581 137.11L275.218 146.061Z" fill="#FFC3BD"/>
<path d="M273.779 164.362L273.126 166.427C273.08 166.664 272.964 166.882 272.794 167.053C272.623 167.224 272.405 167.34 272.167 167.386L269.676 167.573C269.476 167.574 269.28 167.511 269.117 167.394C268.954 167.277 268.833 167.111 268.771 166.92L267.559 165.082L270.662 163.257L273.779 164.362Z" fill="#407BFF"/>
<path opacity="0.2" d="M261.884 144.715C262.64 146.563 263.723 148.26 265.081 149.724C267.012 151.935 270.648 152.907 274.165 152.907C274.284 150.579 274.632 148.268 275.204 146.007L274.471 145.621L261.884 144.715Z" fill="black"/>
<path d="M255.743 270.376C267.731 271.189 271.061 269.95 272.726 260.599C272.726 260.599 275.896 227.073 275.27 219.654C275.27 219.654 267.278 204.069 265.707 193.24C264.002 181.132 256.569 156.89 254.424 157.05C250.309 157.329 234.951 162.711 232.46 166.001C229.156 170.383 231.301 175.445 232.087 180.879C234.591 198.288 236.469 204.282 237.415 221.838C237.415 221.838 229.423 267.126 230.648 267.286C231.581 267.379 246.179 269.724 255.743 270.376Z" fill="#263238"/>
<path opacity="0.2" d="M241.425 233.853H261.884V234.772C261.884 236.072 261.368 237.319 260.449 238.238C259.529 239.157 258.283 239.674 256.983 239.674H246.327C245.027 239.674 243.78 239.157 242.861 238.238C241.941 237.319 241.425 236.072 241.425 234.772V233.853Z" fill="white"/>
<path opacity="0.2" d="M291.135 239.9H288.257C286.957 239.951 285.689 239.485 284.731 238.604C283.772 237.723 283.201 236.499 283.143 235.198V234.292L291.055 233.959L291.135 239.9Z" fill="white"/>
<path d="M283.276 139.321C281.944 148.845 270.902 154.332 263.149 147.912C258.661 144.209 257.821 139.601 256.649 132.394C256.476 131.302 256.303 130.157 256.103 128.931C255.782 127.031 255.891 125.083 256.423 123.23C256.633 122.456 256.924 121.707 257.289 120.992C258.622 118.297 260.858 116.154 263.609 114.937C266.359 113.721 269.449 113.506 272.34 114.332C281.837 117.103 284.461 130.796 283.276 139.321Z" fill="#FFC3BD"/>
<path d="M260.473 121.765C261.765 123.879 262.858 126.108 263.736 128.425C262.886 128.619 262.069 128.937 261.312 129.371C260.619 129.81 261.312 131.888 261.671 132.661C262.32 134.219 263.072 135.732 263.922 137.19C262.688 137.714 261.396 138.089 260.073 138.308C259.711 137.298 259.118 136.386 258.341 135.644C257.891 135.094 257.286 134.692 256.604 134.49C255.923 134.288 255.196 134.296 254.519 134.512C254.279 133.327 247.312 127.972 253.12 124.389C253.971 123.714 254.907 123.154 255.904 122.724L257.236 122.231C258.281 121.894 259.375 121.737 260.473 121.765Z" fill="#263238"/>
<path d="M254.838 132.128C257.808 131.449 260.565 134.712 261.498 137.19C262.59 139.934 261.285 142.744 258.221 142.198C257.08 141.98 255.993 141.539 255.024 140.898C254.055 140.258 253.222 139.432 252.573 138.468C252.163 137.938 251.892 137.313 251.787 136.651C251.682 135.988 251.745 135.31 251.97 134.678C252.196 134.047 252.577 133.482 253.078 133.036C253.579 132.591 254.184 132.278 254.838 132.128Z" fill="#FFC3BD"/>
<path d="M272.66 128.132C273.153 128.132 273.619 128.652 273.699 129.464C273.779 130.277 273.499 130.876 272.939 130.929C272.38 130.983 271.927 130.41 271.847 129.597C271.767 128.785 272.167 128.239 272.66 128.132Z" fill="#263238"/>
<path d="M281.198 127.573C281.691 127.573 282.158 128.092 282.237 128.905C282.317 129.717 281.984 130.316 281.478 130.37C280.972 130.423 280.519 129.85 280.439 129.104C280.359 128.358 280.706 127.639 281.198 127.573Z" fill="#263238"/>
<path d="M279.04 137.07C279.683 137.095 280.323 136.978 280.914 136.727C281.506 136.476 282.035 136.097 282.463 135.618C280.59 133.984 278.953 132.096 277.602 130.01L279.04 137.07Z" fill="#F98C8C"/>
<path d="M270.622 126.88C270.896 126.393 271.279 125.977 271.741 125.665C272.204 125.353 272.733 125.153 273.286 125.082H273.433C273.551 125.062 273.657 124.996 273.727 124.899C273.797 124.802 273.825 124.68 273.806 124.562C273.783 124.445 273.717 124.342 273.62 124.273C273.523 124.203 273.404 124.173 273.286 124.189C272.58 124.256 271.9 124.49 271.302 124.872C270.704 125.255 270.207 125.774 269.85 126.387C269.793 126.489 269.777 126.608 269.804 126.722C269.831 126.835 269.9 126.934 269.996 127C270.07 127.019 270.148 127.019 270.223 127C270.366 127.013 270.509 126.97 270.622 126.88Z" fill="#263238"/>
<path d="M282.89 126.107C282.982 126.034 283.042 125.928 283.057 125.811C283.071 125.694 283.04 125.576 282.969 125.481C282.541 124.917 281.984 124.462 281.344 124.157C280.705 123.851 280.002 123.702 279.293 123.723C279.236 123.728 279.18 123.745 279.129 123.772C279.079 123.799 279.034 123.836 278.998 123.88C278.962 123.925 278.935 123.977 278.919 124.032C278.904 124.088 278.899 124.146 278.907 124.203C278.923 124.315 278.983 124.416 279.072 124.485C279.161 124.555 279.274 124.587 279.386 124.576C279.947 124.567 280.501 124.691 281.004 124.939C281.506 125.187 281.943 125.551 282.277 126.001C282.321 126.06 282.38 126.107 282.448 126.137C282.515 126.167 282.589 126.18 282.663 126.174C282.742 126.166 282.819 126.143 282.89 126.107Z" fill="#263238"/>
<path d="M268.025 212.261C266.36 206.4 264.442 200.486 260.965 195.491C259.713 193.68 258.301 192.015 256.969 190.163C255.184 187.805 253.542 185.341 252.054 182.784C253.52 181.452 255.451 180.12 257.023 178.894L251.082 173.979C252.575 168.333 253.262 162.503 253.12 156.663C253.772 156.198 254.58 156.007 255.371 156.131C258.211 160.539 260.279 165.399 261.485 170.503C264.896 184.201 267.085 198.176 268.025 212.261Z" fill="#263238"/>
<path opacity="0.2" d="M274.565 218.189C274.472 218.069 274.392 217.922 274.299 217.776C270.516 211.888 253.306 185.008 252.107 182.771C253.586 181.439 255.517 180.107 257.089 178.881L251.148 173.966C252.635 168.318 253.321 162.489 253.186 156.65C253.834 156.187 254.637 155.996 255.424 156.117C257.217 158.899 258.708 161.864 259.873 164.962C260.547 166.767 261.103 168.613 261.538 170.49C264.908 183.73 268.424 205.308 274.352 217.603L274.565 218.189Z" fill="white"/>
<path d="M283.143 215.098C283.049 208.998 283.143 202.791 285.047 196.996C285.727 194.905 286.632 192.894 287.338 190.803C288.244 188.139 291.001 184.835 291.561 182.038C289.776 181.226 287.565 180.4 285.673 179.747L289.949 173.327C286.885 168.358 282.21 164.309 280.625 158.675C279.869 158.418 279.042 158.466 278.321 158.808C277.375 161.938 278.867 171.049 278.947 172.967C279.613 187.126 280.026 201.285 283.143 215.098Z" fill="#263238"/>
<path opacity="0.2" d="M291.561 182.038C288.244 191.122 281.331 210.01 274.565 218.188C274.351 218.442 274.152 218.681 273.938 218.908L274.298 217.776C274.294 217.713 274.294 217.651 274.298 217.589C280.465 197.609 279.626 186.753 278.973 172.914C278.894 170.996 277.402 161.632 278.347 158.515C278.704 158.342 279.091 158.241 279.486 158.219C279.882 158.196 280.278 158.251 280.652 158.382C282.21 164.003 286.886 168.292 289.976 173.26C288.564 175.405 287.139 177.536 285.713 179.68C287.512 180.4 289.776 181.225 291.561 182.038Z" fill="white"/>
<path opacity="0.3" d="M231.048 175.711C231.048 175.711 235.138 184.902 245.008 198.475C255.038 212.261 260.672 212.261 260.672 212.261L268.025 214.472C268.025 214.472 266.133 179.707 244.768 174.512C238.428 172.927 229.69 175.751 231.048 175.711Z" fill="black"/>
<path d="M314.618 198.342L303.629 198.848V204.895L314.618 203.35V198.342Z" fill="#FFC3BD"/>
<path d="M311.461 202.324C311.234 207.652 317.735 208.865 317.735 208.865L321.118 211.635C321.659 212.1 322.349 212.356 323.063 212.356C323.776 212.356 324.466 212.1 325.007 211.635L327.805 209.251L327.884 209.184C328.466 208.65 328.813 207.907 328.848 207.118C328.883 206.329 328.603 205.559 328.071 204.975L325.793 202.458C324.872 201.43 323.741 200.612 322.477 200.06L314.618 198.342L311.461 202.324Z" fill="#FFC3BD"/>
<path d="M232.127 168.385C229.863 172.807 230.875 177.922 233.592 182.078C239.773 191.482 260.152 203.976 264.228 206.733C273.446 213.02 310.848 205.694 310.848 205.694L311.394 196.464L271.434 194.466C271.434 194.466 258.021 172.128 248.79 165.308C244.142 161.898 235.297 162.191 232.127 168.385Z" fill="#263238"/>
<path d="M261.711 113.12C261.09 113.049 260.462 113.111 259.867 113.301C259.272 113.492 258.725 113.807 258.261 114.226C255.614 116.219 253.763 119.09 253.04 122.324C252.868 122.984 252.868 123.676 253.04 124.336C253.113 124.672 253.285 124.979 253.534 125.217C253.784 125.454 254.099 125.611 254.438 125.668C255.374 124.69 256.543 123.966 257.835 123.563C260.438 122.709 263.113 122.089 265.827 121.712C270.755 120.962 275.622 119.849 280.386 118.382C281.331 118.102 282.41 117.676 282.663 116.73C282.917 115.784 280.879 114.239 281.212 113.933C281.731 113.427 282.45 112.974 282.45 112.255C282.443 111.969 282.365 111.69 282.224 111.442C282.026 110.976 281.738 110.555 281.377 110.2C281.016 109.846 280.589 109.566 280.119 109.377C279.642 109.214 279.12 109.244 278.665 109.46C278.209 109.677 277.856 110.063 277.682 110.536C277.535 109.673 277.34 108.819 277.096 107.979C276.861 107.592 276.491 107.307 276.057 107.18C275.392 106.99 274.692 106.966 274.016 107.11C273.34 107.254 272.71 107.561 272.181 108.005C271.124 108.904 270.224 109.97 269.517 111.162C268.131 113.187 264.135 113.68 261.711 113.12Z" fill="#263238"/>
<path d="M274.152 138.522C274.131 138.502 274.115 138.478 274.104 138.452C274.093 138.425 274.087 138.397 274.087 138.368C274.087 138.34 274.093 138.312 274.104 138.285C274.115 138.259 274.131 138.235 274.152 138.215C274.189 138.179 274.239 138.158 274.292 138.158C274.344 138.158 274.394 138.179 274.432 138.215C275.04 138.857 275.792 139.345 276.625 139.641C277.458 139.938 278.35 140.033 279.227 139.92C279.285 139.916 279.342 139.935 279.387 139.972C279.431 140.009 279.46 140.062 279.467 140.12C279.47 140.174 279.453 140.228 279.418 140.27C279.384 140.312 279.334 140.34 279.28 140.346C278.342 140.471 277.387 140.37 276.496 140.053C275.604 139.735 274.801 139.211 274.152 138.522Z" fill="#263238"/>
<path d="M255.357 156.557L258.74 155.491C262.188 159.284 266.476 162.218 271.261 164.056C269.099 165.362 267.374 167.282 266.306 169.57C254.984 165.095 255.357 156.557 255.357 156.557Z" fill="white"/>
<path d="M277.908 157.143L274.831 156.33C274.831 156.33 273.259 162.737 270.022 163.497C275.497 165.934 276.283 168.731 276.283 168.731C284.435 166.534 277.908 157.143 277.908 157.143Z" fill="white"/>
<path opacity="0.3" d="M271.515 221.239C271.496 221.482 271.406 221.714 271.256 221.906C271.107 222.098 270.903 222.242 270.672 222.319C270.441 222.396 270.193 222.403 269.957 222.34C269.722 222.277 269.511 222.145 269.35 221.962C269.189 221.779 269.085 221.553 269.052 221.312C269.019 221.07 269.058 220.824 269.164 220.605C269.27 220.386 269.439 220.202 269.648 220.078C269.858 219.954 270.099 219.894 270.343 219.907C270.507 219.917 270.668 219.959 270.816 220.032C270.964 220.105 271.097 220.206 271.205 220.329C271.314 220.453 271.398 220.597 271.451 220.753C271.504 220.909 271.526 221.074 271.515 221.239Z" fill="white"/>
<path d="M95.5932 160.205L96.7724 163.834L100.588 163.834L97.5012 166.077L98.6804 169.707L95.5932 167.464L92.5059 169.707L93.6852 166.077L90.5979 163.834L94.414 163.834L95.5932 160.205Z" fill="#BAB1D6"/>
<path d="M106.098 160.205L107.277 163.834L111.093 163.834L108.006 166.077L109.185 169.707L106.098 167.464L103.011 169.707L104.19 166.077L101.103 163.834L104.919 163.834L106.098 160.205Z" fill="#BAB1D6"/>
<path d="M116.603 160.205L117.782 163.834L121.598 163.834L118.511 166.077L119.69 169.707L116.603 167.464L113.516 169.707L114.695 166.077L111.608 163.834L115.424 163.834L116.603 160.205Z" fill="#BAB1D6"/>
<path d="M127.107 160.205L128.286 163.834L132.102 163.834L129.015 166.077L130.194 169.707L127.107 167.464L124.02 169.707L125.199 166.077L122.112 163.834L125.928 163.834L127.107 160.205Z" fill="#BAB1D6"/>
<path d="M137.612 160.205L138.791 163.834L142.607 163.834L139.52 166.077L140.699 169.707L137.612 167.464L134.524 169.707L135.704 166.077L132.616 163.834L136.433 163.834L137.612 160.205Z" fill="#BAB1D6"/>
</svg>
