<svg width="58" height="56" viewBox="0 0 58 56" fill="none" xmlns="http://www.w3.org/2000/svg">
<path d="M33.9454 14.9405C32.3895 14.119 30.9685 13.3819 29.5619 12.6172C29.2299 12.4366 28.9703 12.4249 28.6325 12.6085C27.2114 13.3834 25.773 14.1292 24.2403 14.9391C24.41 13.9034 24.5608 12.9654 24.7174 12.0287C24.8363 11.3194 24.9407 10.6071 25.0929 9.905C25.1596 9.59765 25.0683 9.41412 24.8595 9.21311C23.798 8.1891 22.7468 7.1549 21.6969 6.11925C21.5664 5.99107 21.3924 5.89347 21.3301 5.64585C22.5858 5.4594 23.8241 5.18993 25.0755 5.11564C26.2384 5.04718 26.9345 4.61311 27.3593 3.48423C27.8088 2.28835 28.4686 1.17112 29.0457 0C29.3154 0.217036 29.3836 0.524382 29.5155 0.78803C30.0999 1.95478 30.693 3.11716 31.2324 4.3043C31.431 4.74275 31.7036 4.91171 32.156 4.96852C33.5771 5.14914 34.9938 5.36472 36.4105 5.57011C36.5555 5.5905 36.6961 5.63857 36.7237 5.64439C35.987 6.44408 35.3128 7.39088 34.4355 8.07694C33.216 9.03103 32.9072 10.0783 33.3538 11.5422C33.6742 12.5968 33.7453 13.7272 33.9468 14.9391L33.9454 14.9405Z" fill="#6D6D6D"/>
<path d="M41.8745 14.2002C43.4318 13.973 45.0341 13.7283 46.6408 13.5142C46.983 13.469 47.1744 13.3365 47.3223 13.0291C48.0343 11.5477 48.7651 10.0751 49.5379 8.50195C49.6815 8.78308 49.7888 8.98555 49.8903 9.19239C50.5095 10.448 51.1373 11.6992 51.7362 12.9636C51.8986 13.3073 52.0958 13.4705 52.4888 13.52C54.0403 13.7196 55.5875 13.9628 57.1361 14.1915C57.1854 14.1988 57.2304 14.2265 57.2826 14.2469C57.2536 14.4755 57.068 14.5644 56.9404 14.6911C55.8905 15.7282 54.8393 16.7639 53.7764 17.7864C53.5632 17.9904 53.4951 18.1797 53.5487 18.4798C53.8185 19.9699 54.0606 21.4658 54.3129 22.9589C54.3376 23.106 54.397 23.2517 54.3231 23.4265C53.9519 23.342 53.6488 23.1147 53.3211 22.9443C52.2321 22.3806 51.1402 21.8198 50.0701 21.2211C49.6989 21.0128 49.4161 20.9983 49.0348 21.2109C47.7979 21.8985 46.5364 22.5408 45.2835 23.1992C45.1211 23.2852 44.9761 23.4221 44.7108 23.4046C44.8848 22.3544 45.0617 21.3144 45.2299 20.2729C45.3473 19.546 45.6924 18.7434 45.4981 18.1098C45.3111 17.5009 44.5498 17.0756 44.0568 16.5541C43.3202 15.7748 42.5981 14.9824 41.873 14.1988L41.8745 14.2002Z" fill="#6D6D6D"/>
<path d="M3.41671 29.2931C3.71251 27.5553 3.96917 25.9705 4.25918 24.393C4.32733 24.0187 4.25628 23.774 3.98657 23.4928C2.86279 22.3217 1.77381 21.1185 0.710938 19.9707C1.81007 19.8076 3.09625 19.5367 4.39403 19.4493C5.44966 19.3779 6.08332 19.0006 6.48353 17.9766C6.96784 16.7385 7.63486 15.5717 8.27433 14.2695C8.67454 15.078 9.024 15.78 9.372 16.4836C9.62286 16.9919 9.94042 17.4814 10.1028 18.016C10.4146 19.0429 11.1004 19.359 12.101 19.4376C13.4118 19.541 14.7125 19.7974 16.0175 19.9868C16.0262 20.2169 15.8464 20.2897 15.7362 20.4004C14.6733 21.4492 13.6119 22.4994 12.5331 23.5307C12.2837 23.7681 12.2271 23.9881 12.2895 24.3275C12.5853 25.9414 12.8463 27.5612 13.1377 29.2843C12.1967 28.7906 11.3513 28.3434 10.503 27.9035C9.76786 27.5218 9.03125 26.8532 8.29318 26.8503C7.55656 26.8474 6.81414 27.5102 6.07897 27.8904C5.22925 28.3303 4.38678 28.7818 3.41961 29.2916L3.41671 29.2931Z" fill="#6D6D6D"/>
<path d="M43.5894 38.854C43.5894 34.9733 43.5923 34.094 43.5879 30.2133C43.5864 29.1292 43.8189 28.1166 44.4517 27.2195C45.1389 26.2464 46.0704 25.7204 47.2918 25.7306C48.6678 25.7423 50.0437 25.7335 51.4196 25.7335C53.5666 25.7335 54.9676 26.8849 55.3767 28.9874C55.4561 29.3995 55.4944 29.8144 55.4944 30.2367C55.4914 37.9966 55.4914 42.7581 55.4929 50.518C55.4929 51.6592 55.231 52.7199 54.5276 53.6433C53.8551 54.5259 52.9706 55.0007 51.8405 54.9978C50.4454 54.9934 49.0518 54.9978 47.6568 54.9978C45.5083 54.9978 44.1191 53.8494 43.7012 51.7439C43.6085 51.2749 43.5894 50.8059 43.5894 50.331C43.5894 46.5058 43.5894 42.6792 43.5894 38.854Z" fill="#6D6D6D"/>
<path d="M34.9641 43.1853C34.9641 45.6823 34.9671 48.1779 34.9641 50.6749C34.9641 51.7021 34.7037 52.6591 34.1077 53.5065C33.4219 54.4826 32.4919 55.0086 31.269 54.9998C29.874 54.9896 28.4789 54.9969 27.0839 54.9969C24.9986 54.9969 23.6095 53.8616 23.1798 51.8102C23.09 51.3806 23.0547 50.9467 23.0547 50.5069C23.0576 45.6238 23.0591 26.7394 23.0547 21.8563C23.0547 20.7722 23.2843 19.7582 23.917 18.861C24.6043 17.8865 25.5343 17.3605 26.7572 17.3692C28.1522 17.3809 29.5473 17.3722 30.9423 17.3722C33.0378 17.3722 34.4167 18.4987 34.8449 20.5559C34.942 21.022 34.97 21.4925 34.97 21.9688C34.9671 24.3738 34.9685 40.7803 34.9685 43.1853H34.9671H34.9641Z" fill="#6D6D6D"/>
<path d="M14.7671 46.817C14.7671 48.2196 14.7966 49.6223 14.7583 51.0235C14.7274 52.15 14.3198 53.1567 13.5295 53.9852C12.8938 54.6514 12.1095 54.9977 11.178 54.9977C9.76527 54.9963 8.35256 54.9977 6.93985 54.9977C4.77517 54.9977 3.3551 53.8128 2.97985 51.6854C2.92982 51.399 2.87978 51.1082 2.87831 50.8189C2.87095 48.1232 2.85771 39.4274 2.88273 36.7317C2.89155 35.7104 3.19617 34.7563 3.83042 33.9322C4.5044 33.057 5.37704 32.5675 6.51456 32.5763C7.92727 32.588 9.33998 32.5792 10.7527 32.5792C12.8467 32.5792 14.1873 33.656 14.6494 35.6914C14.8451 36.5564 14.7686 37.4316 14.7804 38.3038C14.7922 39.1411 14.7833 45.9797 14.7833 46.817H14.7686H14.7671Z" fill="#6D6D6D"/>
</svg>
