<svg width="59" height="59" viewBox="0 0 59 59" fill="none" xmlns="http://www.w3.org/2000/svg">
<g clip-path="url(#clip0_946_1716)">
<path d="M0.115234 12.9933C0.49012 11.9932 1.25833 11.603 2.28005 11.497C3.51533 11.368 4.74139 11.1452 5.97513 10.987C6.33466 10.9409 6.539 10.798 6.69725 10.4585C7.28263 9.21264 7.91409 7.98828 8.51483 6.74855C8.87282 6.00963 9.43208 5.55798 10.2602 5.56105C11.0868 5.56412 11.6414 6.01577 11.9964 6.7593C12.5986 8.019 13.2332 9.2618 13.8401 10.52C13.9676 10.7827 14.1166 10.9209 14.4285 10.9624C15.8697 11.156 17.3062 11.3849 18.7443 11.5969C19.5187 11.7105 20.0595 12.1238 20.2915 12.8688C20.5219 13.6108 20.3222 14.2622 19.763 14.806C18.7873 15.7539 17.8332 16.7232 16.8345 17.6449C16.4781 17.9737 16.3859 18.2886 16.4735 18.7495C16.7301 20.1029 16.9467 21.4624 17.1818 22.8205C17.3108 23.5717 17.0696 24.1892 16.4704 24.6409C15.8635 25.0987 15.1829 25.1294 14.5192 24.7914C13.224 24.1339 11.9395 23.4519 10.6612 22.7606C10.38 22.6085 10.1603 22.5977 9.87303 22.7529C8.66233 23.4104 7.43473 24.0341 6.22096 24.6839C5.48809 25.0756 4.75983 25.1555 4.05615 24.6593C3.34325 24.1554 3.21112 23.4257 3.35093 22.6146C3.58139 21.2766 3.78727 19.9324 4.05461 18.602C4.13604 18.1964 4.01159 17.9691 3.73965 17.7141C2.86235 16.8861 2.01271 16.0273 1.13695 15.1993C0.732875 14.8183 0.379498 14.4066 0.118307 13.9165V12.9963L0.115234 12.9933Z" fill="#5E5E5E"/>
<path d="M29.6159 27.7134C35.6141 27.7134 41.6123 27.7134 47.612 27.7134C51.1427 27.7134 53.4765 30.05 53.4781 33.5848C53.4796 38.2611 53.4796 42.9358 53.4781 47.612C53.4765 51.1438 51.1412 53.4696 47.5982 53.4712C43.8416 53.4712 40.0851 53.4758 36.3301 53.4635C35.9736 53.4635 35.7294 53.5679 35.4805 53.8199C34.0147 55.3069 32.5336 56.7802 31.054 58.2549C30.0523 59.2519 29.0582 59.2489 28.058 58.2503C26.58 56.7756 25.0973 55.3039 23.6316 53.8153C23.3812 53.5603 23.1323 53.465 22.7804 53.465C19.0054 53.4773 15.2305 53.4742 11.454 53.4712C8.00162 53.4681 5.63861 51.1115 5.63707 47.6642C5.634 42.9511 5.634 38.2365 5.63707 33.5234C5.63861 30.073 7.99854 27.7165 11.4493 27.7149C17.5059 27.7118 23.5609 27.7149 29.6175 27.7149L29.6159 27.7134ZM29.5545 35.0719C26.0284 35.0719 22.5023 35.0719 18.9747 35.0719C17.575 35.0719 16.1769 35.055 14.7772 35.0795C13.8415 35.0964 13.0933 35.8185 13.0027 36.7233C12.912 37.6297 13.5066 38.4792 14.4116 38.6927C14.6681 38.7526 14.9432 38.748 15.2105 38.748C24.7747 38.7511 34.3374 38.7496 43.9016 38.7496C44.0736 38.7496 44.2488 38.7619 44.4193 38.7419C45.1922 38.6513 45.7391 38.2488 46.0065 37.5129C46.452 36.2824 45.5425 35.0749 44.1597 35.0734C39.2923 35.0673 34.4234 35.0703 29.556 35.0703L29.5545 35.0719ZM29.5837 42.4319C27.3036 42.4319 25.0221 42.4319 22.742 42.4319C20.1163 42.4319 17.4905 42.4242 14.8648 42.4365C13.8815 42.4411 13.1164 43.1293 13.0057 44.0557C12.8966 44.9789 13.5112 45.8577 14.4392 46.062C14.6973 46.1188 14.9723 46.1096 15.2397 46.1096C24.7839 46.1111 34.3281 46.1111 43.8724 46.1111C44.0445 46.1111 44.2181 46.1219 44.3901 46.105C45.166 46.0282 45.7192 45.6303 45.9972 44.9006C46.4705 43.6547 45.5486 42.435 44.1305 42.4334C39.2816 42.4288 34.4326 42.4319 29.5837 42.4319Z" fill="#5E5E5E"/>
<path d="M39.6828 8.00223C39.6859 8.57678 39.4231 9.02689 39.0237 9.41555C38.048 10.3634 37.0893 11.3281 36.0922 12.2514C35.768 12.5525 35.6912 12.8367 35.7695 13.253C36.0261 14.6249 36.2489 16.0044 36.4809 17.3808C36.6069 18.1274 36.3826 18.7527 35.7741 19.2028C35.1442 19.6667 34.4605 19.6867 33.7722 19.3272C32.5169 18.6728 31.2601 18.023 30.0156 17.347C29.6976 17.1735 29.4595 17.1519 29.1261 17.3348C27.9215 17.9999 26.6893 18.6175 25.474 19.2642C24.755 19.6468 24.0482 19.7051 23.3645 19.2182C22.6808 18.7296 22.5041 18.043 22.647 17.238C22.8851 15.9015 23.091 14.5588 23.3476 13.2254C23.4306 12.7937 23.3138 12.5218 23.0019 12.2314C22.0355 11.3297 21.1075 10.3895 20.1518 9.477C19.5496 8.90092 19.2546 8.24035 19.5219 7.41232C19.7892 6.57969 20.4315 6.22944 21.2488 6.11422C22.6132 5.92219 23.9744 5.70866 25.3403 5.53814C25.6753 5.49666 25.8397 5.34918 25.9764 5.06652C26.5403 3.89438 27.1395 2.74068 27.691 1.5624C28.0721 0.749744 28.6206 0.208995 29.567 0.21514C30.515 0.221285 31.0512 0.774323 31.4307 1.58545C31.9654 2.72839 32.5538 3.84522 33.0962 4.9851C33.259 5.32614 33.4434 5.49973 33.8521 5.54735C35.2011 5.70405 36.5439 5.91451 37.8867 6.1219C39.0375 6.29856 39.6905 6.99601 39.6813 8.0007L39.6828 8.00223Z" fill="#5E5E5E"/>
<path d="M53.8067 24.9942C53.527 24.9942 53.1998 24.839 52.8756 24.6685C51.691 24.0417 50.4972 23.4334 49.3249 22.7866C48.9777 22.5946 48.7119 22.6177 48.3785 22.7989C47.1847 23.4488 45.9755 24.0694 44.7756 24.7069C44.0581 25.0894 43.3391 25.1478 42.6646 24.6532C41.9962 24.1646 41.7996 23.4872 41.9532 22.6699C42.1944 21.3918 42.3696 20.0998 42.6262 18.8247C42.7337 18.2932 42.62 17.943 42.2159 17.5743C41.2664 16.7109 40.3768 15.783 39.4442 14.9012C38.8466 14.3374 38.5762 13.6784 38.8174 12.8842C39.0601 12.0884 39.6486 11.6905 40.4675 11.5784C41.8718 11.3879 43.2699 11.1605 44.6742 10.9716C44.9784 10.9301 45.1397 10.7995 45.2688 10.5307C45.8557 9.3048 46.4687 8.09272 47.0603 6.86989C47.4259 6.11561 47.9929 5.6486 48.8471 5.64552C49.6983 5.64245 50.2775 6.08642 50.6447 6.84838C51.227 8.05431 51.8401 9.24642 52.4177 10.4554C52.5622 10.7581 52.722 10.9224 53.083 10.9685C54.5073 11.1544 55.9239 11.3864 57.345 11.5953C58.1194 11.709 58.6495 12.1191 58.8968 12.8627C59.1473 13.617 58.9229 14.2606 58.3744 14.7998C57.3496 15.8076 56.3202 16.8108 55.2832 17.8062C55.0711 18.0105 54.9912 18.1918 55.0496 18.5037C55.3062 19.8571 55.5321 21.2182 55.7564 22.5777C55.9915 24.0033 55.1787 25.0572 53.8051 24.9942H53.8067Z" fill="#5E5E5E"/>
</g>
<defs>
<clipPath id="clip0_946_1716">
<rect width="59" height="59" fill="white"/>
</clipPath>
</defs>
</svg>
