<svg width="44" height="56" viewBox="0 0 44 56" fill="none" xmlns="http://www.w3.org/2000/svg">
<g clip-path="url(#clip0_972_2258)">
<path d="M41.1779 0C41.6268 0.245467 41.849 0.622433 41.9329 1.12798C42.6009 5.13288 43.2793 9.13633 43.9695 13.1383C44.0519 13.619 43.9739 14.0135 43.5737 14.2999C43.1675 14.5907 42.7481 14.5278 42.3361 14.2809C41.4252 13.7344 40.4981 13.2143 39.6078 12.6386C39.2237 12.3902 39.0677 12.491 38.8558 12.8373C37.0796 15.742 35.0842 18.4845 32.7032 20.9377C28.1972 25.5826 22.7568 28.4449 16.3187 29.3888C12.7354 29.9133 9.1477 29.8359 5.56148 29.3713C4.12376 29.1857 2.69928 28.9329 1.27921 28.6451C1.24389 28.6378 1.2071 28.6319 1.17178 28.6246C0.35359 28.4537 -0.0672794 28.0226 0.00629922 27.4294C0.0842925 26.8099 0.547838 26.5411 1.41459 26.5572C9.4479 26.7062 16.8617 24.7877 23.3646 19.9515C27.3525 16.9854 30.2765 13.1515 32.3956 8.69069C32.5619 8.34148 32.4574 8.22898 32.1557 8.09017C31.2581 7.67668 30.3766 7.22812 29.4804 6.8117C29.0051 6.59107 28.6078 6.32369 28.6181 5.73632C28.6284 5.15042 29.0301 4.89911 29.5172 4.69455C33.0269 3.21883 36.5337 1.73434 40.0389 0.248389C40.2038 0.178256 40.3951 0.156339 40.5143 0H41.175L41.1779 0Z" fill="#6D6D6D"/>
<path d="M31.5884 39.8532C31.5884 35.9725 31.5913 32.0933 31.5869 28.2126C31.5854 27.1284 31.818 26.1159 32.4507 25.2188C33.138 24.2457 34.0695 23.7197 35.2909 23.7299C36.6668 23.7416 38.0427 23.7328 39.4186 23.7328C41.5656 23.7328 42.9666 24.8842 43.3757 26.9867C43.4551 27.3987 43.4934 27.8137 43.4934 28.2359C43.4905 35.9959 43.4905 43.7573 43.4919 51.5173C43.4919 52.6584 43.23 53.7192 42.5266 54.6426C41.8541 55.5251 40.9697 56 39.8395 55.9971C38.4444 55.9927 37.0509 55.9971 35.6558 55.9971C33.5073 55.9971 32.1182 54.8486 31.7002 52.7432C31.6075 52.2742 31.5884 51.8051 31.5884 51.3303C31.5884 47.5051 31.5884 43.6784 31.5884 39.8532Z" fill="#6D6D6D"/>
<path d="M27.9641 44.1854C27.9641 46.6825 27.9671 49.1781 27.9641 51.6751C27.9641 52.7023 27.7037 53.6593 27.1077 54.5067C26.4219 55.4827 25.4919 56.0087 24.269 56C22.874 55.9898 21.4789 55.9971 20.0839 55.9971C17.9986 55.9971 16.6095 54.8618 16.1798 52.8104C16.09 52.3808 16.0547 51.9469 16.0547 51.5071C16.0576 46.624 16.0591 41.7395 16.0547 36.8565C16.0547 35.7724 16.2843 34.7583 16.917 33.8612C17.6043 32.8867 18.5343 32.3607 19.7572 32.3694C21.1522 32.3811 22.5473 32.3724 23.9423 32.3724C26.0378 32.3724 27.4167 33.4989 27.8449 35.5561C27.942 36.0222 27.97 36.4927 27.97 36.969C27.9671 39.374 27.9685 41.7804 27.9685 44.1854H27.9671H27.9641Z" fill="#6D6D6D"/>
<path d="M12.7671 47.8163C12.7671 49.219 12.7966 50.6217 12.7583 52.0229C12.7274 53.1494 12.3198 54.1561 11.5295 54.9846C10.8938 55.6508 10.1095 55.9971 9.17798 55.9971C7.76527 55.9956 6.35256 55.9971 4.93985 55.9971C2.77517 55.9971 1.3551 54.8121 0.979849 52.6848C0.929816 52.3984 0.879782 52.1076 0.878311 51.8183C0.870953 49.1226 0.857709 46.4268 0.882725 43.7311C0.891555 42.7098 1.19617 41.7557 1.83042 40.9316C2.5044 40.0564 3.37704 39.5669 4.51456 39.5757C5.92727 39.5874 7.33998 39.5786 8.75269 39.5786C10.8467 39.5786 12.1873 40.6554 12.6494 42.6908C12.8451 43.5557 12.7686 44.431 12.7804 45.3032C12.7922 46.1405 12.7833 46.9791 12.7833 47.8163H12.7686H12.7671Z" fill="#6D6D6D"/>
</g>
<defs>
<clipPath id="clip0_972_2258">
<rect width="44" height="56" fill="white"/>
</clipPath>
</defs>
</svg>
