<svg width="18" height="12" viewBox="0 0 18 12" fill="none" xmlns="http://www.w3.org/2000/svg">
<path fill-rule="evenodd" clip-rule="evenodd" d="M6.92266 7.91632V3.28945C8.62387 4.06235 9.94145 4.80899 11.4998 5.61396C10.2145 6.30216 8.62387 7.07435 6.92266 7.91632ZM16.4035 0.988297C16.1101 0.615003 15.6099 0.324425 15.0774 0.228223C13.5123 -0.0587391 3.74821 -0.0595554 2.18395 0.228223C1.75694 0.305511 1.37671 0.492326 1.05008 0.782578C-0.326202 2.01593 0.105059 8.62999 0.436795 9.70137C0.576294 10.1651 0.75663 10.4996 0.983742 10.7191C1.27635 11.0093 1.67698 11.2092 2.13716 11.2988C3.42582 11.5562 10.0648 11.7001 15.0502 11.3375C15.5095 11.2602 15.9161 11.0539 16.2368 10.7513C17.5093 9.52288 17.4225 2.53738 16.4035 0.988297Z" fill="#939393"/>
</svg>
