<svg width="16" height="15" viewBox="0 0 16 15" fill="none" xmlns="http://www.w3.org/2000/svg">
<path fill-rule="evenodd" clip-rule="evenodd" d="M3.72523 14.7635V4.9688H0.430607V14.7634H3.72523V14.7635ZM2.07826 3.632C3.2268 3.632 3.94225 2.87925 3.94225 1.93936C3.92053 0.978568 3.2268 0.24707 2.0998 0.24707C0.972616 0.2471 0.23584 0.978598 0.23584 1.93939C0.23584 2.87928 0.950899 3.63203 2.05657 3.63203L2.07826 3.632ZM5.54867 14.7635C5.54867 14.7635 5.59189 5.88781 5.54867 4.96883H8.8438V6.38927H8.82193C9.2552 5.72087 10.0358 4.73883 11.8131 4.73883C13.9814 4.73883 15.6066 6.13873 15.6066 9.14729V14.7635H12.312V9.52363C12.312 8.207 11.8353 7.30857 10.6427 7.30857C9.73266 7.30857 9.19032 7.91426 8.95215 8.49975C8.865 8.70814 8.8438 9.00086 8.8438 9.2936V14.7635H5.54867Z" fill="#7D7D7D"/>
</svg>
