<svg width="42" height="42" viewBox="0 0 42 42" fill="none" xmlns="http://www.w3.org/2000/svg">
<circle cx="21" cy="21" r="21" fill="#713FFF"/>
<g clip-path="url(#clip0_946_2646)">
<path d="M18.2444 23.0648C18.5758 22.4027 18.9346 21.7916 19.3334 21.2037C20.6149 19.3145 22.1934 17.685 23.9581 16.2215C25.8935 14.6163 28.004 13.2622 30.2432 12.093C30.4357 11.9927 30.6227 11.9513 30.8127 12.0833C30.9671 12.1909 31.019 12.3423 30.9934 12.5229C30.9752 12.6524 30.8965 12.7424 30.7989 12.8226C28.4766 14.7294 26.508 16.9438 24.8071 19.3857C22.6429 22.4915 21.0238 25.8417 20.0742 29.4874C20.0611 29.5391 20.0479 29.5902 20.0317 29.6412C19.911 30.0213 19.5135 30.1228 19.2278 29.834C18.8283 29.429 18.442 29.0119 18.05 28.5997C15.4407 25.8532 12.8314 23.1074 10.2215 20.3615C10.1896 20.3281 10.1578 20.2953 10.1265 20.2612C9.9946 20.1165 9.96585 19.9487 10.0402 19.7742C10.1159 19.596 10.2697 19.5079 10.4647 19.5036C10.761 19.4975 11.0573 19.5012 11.3536 19.5012C12.4689 19.5012 13.5841 19.5054 14.6993 19.4981C14.9456 19.4963 15.1269 19.5735 15.2888 19.7566C16.189 20.7738 17.0973 21.7849 18.0031 22.7979C18.0744 22.8776 18.1463 22.9572 18.2444 23.066V23.0648Z" fill="white"/>
</g>
<defs>
<clipPath id="clip0_946_2646">
<rect width="21" height="18" fill="white" transform="translate(10 12)"/>
</clipPath>
</defs>
</svg>
