<svg width="68" height="66" viewBox="0 0 68 66" fill="none" xmlns="http://www.w3.org/2000/svg">
<g clip-path="url(#clip0_946_2686)">
<path d="M32.4522 55.4735C30.6669 55.4735 28.8817 55.4845 27.0964 55.4698C26.1056 55.4606 25.1276 55.5084 24.1956 55.8762C23.8855 55.9994 23.6947 55.8909 23.4782 55.6739C19.2599 51.435 15.0343 47.2016 10.8069 42.9701C10.6198 42.7825 10.4436 42.6464 10.7299 42.3706C13.8435 39.362 17.2214 36.78 21.5057 35.6692C25.6964 34.5842 29.6229 35.3787 33.3403 37.4494C34.0228 37.8301 34.6925 38.0066 35.4778 37.9974C38.3163 37.9606 41.1547 37.968 43.9932 37.9882C46.6445 38.0066 48.7454 39.853 49.083 42.3706C49.1637 42.9664 48.9931 43.1338 48.4078 43.1319C44.6996 43.1135 40.9914 43.1154 37.2833 43.1264C35.7512 43.1301 34.7512 44.4063 35.1659 45.7819C35.4191 46.6223 36.1494 47.2366 37.0411 47.2402C41.0685 47.255 45.0978 47.2605 49.127 47.2311C50.2481 47.2219 51.204 46.7198 51.9765 45.9033C52.2168 45.6495 52.47 45.4472 52.793 45.3001C55.725 43.9595 58.6552 42.6152 61.5762 41.2543C62.9321 40.6217 64.3266 40.4359 65.7853 40.7688C67.0403 41.0557 67.8109 41.8869 67.9724 43.108C68.1265 44.2795 67.6421 45.2284 66.5339 45.8297C63.1597 47.6614 59.8882 49.7321 56.202 50.8943C51.3435 52.4244 46.472 53.9379 41.485 55.0027C38.6245 55.6132 35.7017 55.4827 32.7972 55.4808C32.6834 55.4808 32.5678 55.4808 32.4541 55.4808L32.4522 55.4735Z" fill="#5E5E5E"/>
<path d="M38.192 1.58977e-05C39.17 0.0036939 39.7773 0.487352 40.192 1.2818C41.2544 3.31022 42.3314 5.33129 43.3827 7.36339C43.5882 7.75877 43.8121 7.96842 44.2928 8.04382C46.5955 8.40794 48.8872 8.83459 51.1844 9.23549C52.021 9.38077 52.6118 9.82581 52.8907 10.6405C53.1733 11.4662 52.9421 12.1797 52.3586 12.7866C50.7862 14.4215 49.2248 16.0674 47.612 17.66C47.1404 18.1252 47.0579 18.5758 47.1514 19.1827C47.4909 21.3784 47.7844 23.5816 48.1129 25.7792C48.2432 26.6527 48.0138 27.3809 47.2964 27.8977C46.5771 28.4163 45.8065 28.3869 45.0267 28.0007C42.9993 26.9947 40.9608 26.0127 38.9462 24.981C38.4691 24.7365 38.0966 24.7254 37.6214 24.9682C35.6655 25.9631 33.6839 26.9065 31.7262 27.8977C30.8932 28.3207 30.0785 28.477 29.2638 27.9234C28.4143 27.3442 28.2951 26.4945 28.4363 25.5438C28.7703 23.3002 29.0749 21.0529 29.4143 18.8093C29.4767 18.4011 29.3684 18.1308 29.084 17.842C27.4767 16.2108 25.8915 14.5557 24.2897 12.9172C23.6695 12.2827 23.3374 11.571 23.6255 10.6791C23.919 9.77248 24.5851 9.35871 25.5043 9.20791C27.7813 8.83459 30.051 8.4061 32.328 8.03094C32.7188 7.96658 32.9225 7.79371 33.0949 7.46085C34.172 5.3883 35.2674 3.32677 36.3481 1.25606C36.7517 0.481835 37.3444 0.0202449 38.1884 -0.00366211L38.192 1.58977e-05Z" fill="#5E5E5E"/>
<path d="M5.03654 43.051C5.19984 43.2018 5.3558 43.3361 5.49891 43.4795C8.2181 46.2031 10.9373 48.9266 13.6565 51.6502C16.6014 54.6018 19.5371 57.5626 22.5021 60.4921C22.9058 60.8912 22.8452 61.0825 22.4819 61.4392C21.0214 62.8626 19.5848 64.3081 18.1591 65.7664C17.8766 66.0551 17.7279 66.0974 17.416 65.7829C11.6987 60.0324 5.97046 54.2929 0.236668 48.557C-0.00736254 48.3124 -0.117451 48.1579 0.192632 47.8527C1.71186 46.3594 3.20356 44.8385 4.70811 43.3287C4.80352 43.2331 4.91361 43.1558 5.04021 43.051H5.03654Z" fill="#5E5E5E"/>
</g>
<defs>
<clipPath id="clip0_946_2686">
<rect width="68" height="66" fill="white"/>
</clipPath>
</defs>
</svg>
