<svg width="486" height="303" viewBox="0 0 486 303" fill="none" xmlns="http://www.w3.org/2000/svg">
<path d="M485.227 259.82H0.772461V260.057H485.227V259.82Z" fill="#FDFDFD"/>
<path d="M436.686 275.064H404.595V275.301H436.686V275.064Z" fill="#FDFDFD"/>
<path d="M321.695 277.641H313.275V277.877H321.695V277.641Z" fill="#FDFDFD"/>
<path d="M403.626 266.272H385.032V266.508H403.626V266.272Z" fill="#FDFDFD"/>
<path d="M93.4488 267.863H51.6016V268.1H93.4488V267.863Z" fill="#FDFDFD"/>
<path d="M108.214 267.863H102.081V268.1H108.214V267.863Z" fill="#FDFDFD"/>
<path d="M218.922 271.862H128.155V272.099H218.922V271.862Z" fill="#FDFDFD"/>
<path d="M83.5177 122.79H88.9727L88.9727 10.5175H83.5177L83.5177 122.79Z" fill="#ADADB8"/>
<path d="M190.476 10.5276H86.6665V122.8H190.476V10.5276Z" fill="#ADADB8"/>
<path d="M193.789 10.5276H86.1143V122.8H193.789V10.5276Z" fill="#F0F0F0"/>
<path d="M189.235 14.1084H90.5034V117.636H189.235V14.1084Z" fill="#E6E6F0"/>
<path d="M189.235 14.1084H186.376V117.636H189.235V14.1084Z" fill="#ADADB8"/>
<path d="M90.2417 88.5498V91.3447H186.677V88.5498H90.2417Z" fill="#ADADB8"/>
<path d="M189.235 83.8696H88.9727V88.5595H189.235V83.8696Z" fill="#F0F0F0"/>
<path d="M265.973 258.067H408.8V81.2069L265.973 81.2069V258.067Z" fill="#F0F0F0"/>
<path d="M271.021 125.462L403.752 125.462V87.64L271.021 87.64V125.462Z" fill="#ADADB8"/>
<path d="M396.205 125.462H403.743V93.77H396.205V125.462Z" fill="#FDFDFD"/>
<path d="M359.744 125.462H367.282V93.77H359.744V125.462Z" fill="#FDFDFD"/>
<path d="M312.857 124.208L320.286 125.46L325.791 94.2287L318.362 92.9766L312.857 124.208Z" fill="#FDFDFD"/>
<path d="M386.873 125.462H394.411V97.9388H386.873V125.462Z" fill="#FDFDFD"/>
<path d="M369.53 125.462H377.068V97.9388H369.53V125.462Z" fill="#FDFDFD"/>
<path d="M325.783 125.462H333.321V97.9388H325.783V125.462Z" fill="#FDFDFD"/>
<path d="M343.753 123.862L351.112 125.461L357.218 98.5934L349.86 96.9942L343.753 123.862Z" fill="#FDFDFD"/>
<path d="M380.353 125.462H384.122V92.1878H380.353V125.462Z" fill="#FDFDFD"/>
<path d="M335.502 125.462H339.271V92.1878H335.502V125.462Z" fill="#FDFDFD"/>
<path d="M403.742 131.459H271.011V169.282H403.742V131.459Z" fill="#ADADB8"/>
<path d="M278.549 137.58H271.011V169.272H278.549V137.58Z" fill="#FDFDFD"/>
<path d="M315.009 137.58H307.471V169.272H315.009V137.58Z" fill="#FDFDFD"/>
<path d="M356.404 136.778L348.976 138.031L354.481 169.262L361.91 168.01L356.404 136.778Z" fill="#FDFDFD"/>
<path d="M287.899 141.758H280.361V169.282H287.899V141.758Z" fill="#FDFDFD"/>
<path d="M305.224 141.758H297.686V169.282H305.224V141.758Z" fill="#FDFDFD"/>
<path d="M348.97 141.758H341.432V169.282H348.97V141.758Z" fill="#FDFDFD"/>
<path d="M324.925 140.8L317.566 142.399L323.673 169.266L331.031 167.667L324.925 140.8Z" fill="#FDFDFD"/>
<path d="M294.42 136.007H290.651V169.281H294.42V136.007Z" fill="#FDFDFD"/>
<path d="M339.261 136.007H335.492V169.281H339.261V136.007Z" fill="#FDFDFD"/>
<path d="M396.205 169.272H403.743V137.58H396.205V169.272Z" fill="#FDFDFD"/>
<path d="M386.873 169.272H394.411V141.749H386.873V169.272Z" fill="#FDFDFD"/>
<path d="M369.53 169.272H377.068V141.749H369.53V169.272Z" fill="#FDFDFD"/>
<path d="M380.353 169.272H384.122V135.998H380.353V169.272Z" fill="#FDFDFD"/>
<path d="M271.021 213.083L403.752 213.083V175.26H271.021V213.083Z" fill="#ADADB8"/>
<path d="M320.018 213.083H327.556V181.39H320.018V213.083Z" fill="#FDFDFD"/>
<path d="M273.135 211.817L280.564 213.069L286.069 181.838L278.641 180.586L273.135 211.817Z" fill="#FDFDFD"/>
<path d="M347.147 213.083H354.686V185.559H347.147V213.083Z" fill="#FDFDFD"/>
<path d="M329.814 213.083H337.353V185.559H329.814V213.083Z" fill="#FDFDFD"/>
<path d="M286.058 213.083H293.596V185.559H286.058V213.083Z" fill="#FDFDFD"/>
<path d="M304.034 211.47L311.393 213.069L317.5 186.202L310.141 184.602L304.034 211.47Z" fill="#FDFDFD"/>
<path d="M340.628 213.083H344.397V179.808H340.628V213.083Z" fill="#FDFDFD"/>
<path d="M295.777 213.083H299.546V179.808H295.777V213.083Z" fill="#FDFDFD"/>
<path d="M359.883 211.819L367.312 213.071L372.817 181.84L365.389 180.588L359.883 211.819Z" fill="#FDFDFD"/>
<path d="M372.814 213.083H380.353V185.559H372.814V213.083Z" fill="#FDFDFD"/>
<path d="M390.784 211.467L398.142 213.066L404.249 186.198L396.89 184.599L390.784 211.467Z" fill="#FDFDFD"/>
<path d="M382.513 213.083H386.282V179.808H382.513V213.083Z" fill="#FDFDFD"/>
<path d="M171.688 149.329H88.7881C86.6476 149.325 84.5273 149.734 82.5485 150.532C80.5697 151.33 78.7712 152.502 77.2558 153.98C75.7405 155.458 74.5379 157.214 73.717 159.147C72.8961 161.08 72.4729 163.153 72.4717 165.246V228.554H187.975V165.246C187.975 163.155 187.554 161.084 186.735 159.152C185.917 157.221 184.717 155.465 183.204 153.987C181.692 152.509 179.896 151.337 177.92 150.538C175.944 149.738 173.826 149.327 171.688 149.329Z" fill="#E1DDED"/>
<path d="M212.489 196.246H197.655C195.085 196.246 192.621 197.244 190.804 199.021C188.987 200.798 187.966 203.208 187.966 205.72V258.067H222.149V205.711C222.146 203.205 221.128 200.801 219.318 199.028C217.507 197.254 215.052 196.253 212.489 196.246Z" fill="#ADADB8"/>
<path d="M212.489 196.246H212.169C209.599 196.246 207.135 197.244 205.318 199.021C203.501 200.798 202.48 203.208 202.48 205.72V258.067H222.139V205.711C222.137 203.206 221.12 200.805 219.312 199.031C217.503 197.257 215.05 196.256 212.489 196.246Z" fill="#FDFDFD"/>
<path d="M198.362 234.011H84.583V258.057H198.362V234.011Z" fill="#E6E6E6"/>
<path d="M198.518 212.021H88.7885C83.3571 212.021 78.9541 216.326 78.9541 221.638V227.635C78.9541 232.946 83.3571 237.251 88.7885 237.251H198.518C203.949 237.251 208.352 232.946 208.352 227.635V221.638C208.352 216.326 203.949 212.021 198.518 212.021Z" fill="#F5F5F5"/>
<path d="M102.585 212.021H88.9721C83.5407 212.021 79.1377 216.326 79.1377 221.638V227.635C79.1377 232.946 83.5407 237.251 88.9721 237.251H102.585C108.017 237.251 112.42 232.946 112.42 227.635V221.638C112.42 216.326 108.017 212.021 102.585 212.021Z" fill="#ADADB8"/>
<path d="M87.4997 196.246H72.6657C70.096 196.246 67.6315 197.244 65.8144 199.021C63.9974 200.798 62.9766 203.208 62.9766 205.72V258.067H97.1791V205.711C97.1765 203.201 96.1559 200.795 94.3412 199.021C92.5265 197.246 90.066 196.248 87.4997 196.246Z" fill="#ADADB8"/>
<path d="M87.5001 196.246H87.1901C84.6204 196.246 82.1559 197.244 80.3388 199.021C78.5218 200.798 77.501 203.208 77.501 205.72V258.067H97.1795V205.711C97.177 203.201 96.1564 200.795 94.3417 199.021C92.527 197.246 90.0665 196.248 87.5001 196.246Z" fill="#F0F0F0"/>
<path d="M333.768 39.1872C344.662 39.1872 353.495 30.5508 353.495 19.8972C353.495 9.24362 344.662 0.607178 333.768 0.607178C322.873 0.607178 314.041 9.24362 314.041 19.8972C314.041 30.5508 322.873 39.1872 333.768 39.1872Z" fill="#FFB800"/>
<path d="M350.34 22.5314C351.824 13.5908 345.615 5.16653 336.472 3.71526C327.329 2.26399 318.713 8.33531 317.229 17.2759C315.745 26.2166 321.954 34.6408 331.097 36.0921C340.24 37.5434 348.855 31.4721 350.34 22.5314Z" fill="#F0F0F0"/>
<path d="M332.982 8.64209V20.1062L325.211 15.8048" fill="#F0F0F0"/>
<path d="M332.983 20.9299C332.836 20.9305 332.692 20.8911 332.566 20.8163L324.815 16.5243C324.633 16.4105 324.503 16.2326 324.451 16.0275C324.399 15.8223 324.43 15.6055 324.537 15.4219C324.644 15.2383 324.819 15.1018 325.026 15.0407C325.232 14.9797 325.455 14.9986 325.648 15.0937L332.16 18.7034V8.64155C332.182 8.43939 332.28 8.2524 332.434 8.11654C332.589 7.98067 332.79 7.90552 332.998 7.90552C333.206 7.90552 333.406 7.98067 333.561 8.11654C333.716 8.2524 333.813 8.43939 333.836 8.64155V20.1057C333.837 20.2495 333.799 20.3911 333.725 20.5159C333.652 20.6407 333.547 20.7443 333.419 20.8163C333.288 20.8946 333.137 20.934 332.983 20.9299Z" fill="#ADADB8"/>
<path d="M243 302.617C346.753 302.617 430.862 296.776 430.862 289.57C430.862 282.365 346.753 276.524 243 276.524C139.247 276.524 55.1382 282.365 55.1382 289.57C55.1382 296.776 139.247 302.617 243 302.617Z" fill="#F5F5F5"/>
<path d="M400.932 290.896H277.958C254.985 290.896 253.513 264.444 272.397 251.994C275.849 249.75 279.671 248.102 283.694 247.124C321.084 237.508 373.619 172.863 410.621 199.913L410.728 199.989C447.585 227.228 421.822 290.896 400.932 290.896Z" fill="#263238"/>
<path opacity="0.5" d="M400.932 290.896H277.958C254.985 290.896 253.513 264.444 272.397 251.994C275.849 249.75 279.671 248.102 283.694 247.124C321.084 237.508 373.619 172.863 410.621 199.913L410.728 199.989C447.585 227.228 421.822 290.896 400.932 290.896Z" fill="white"/>
<path opacity="0.2" d="M410.524 199.866C407.424 199.667 403.664 200.519 399.614 203.836C389.102 212.457 405.089 253.965 379.945 271.228C365.916 280.863 305.388 285.108 285.186 273.293C270.274 264.567 270.081 259.081 272.396 251.994C275.849 249.75 279.67 248.102 283.694 247.124C321.036 237.46 373.57 172.816 410.524 199.866Z" fill="black"/>
<path d="M314.913 192.04L307.578 186.991L313.062 181.505C313.062 181.505 318.692 184.347 318.159 189.416L314.913 192.04Z" fill="#E4897B"/>
<path d="M304.701 181.419L309.787 178.292L313.062 181.504L307.578 186.99L304.701 181.419Z" fill="#E4897B"/>
<path d="M350.995 178.994C344.048 180.993 340.628 192.94 334.892 204.224L318.198 188.004L312.888 192.608C312.888 192.608 328.178 216.361 335.396 216.361C344.407 216.361 353.757 191.888 353.757 191.888L350.995 178.994Z" fill="#263238"/>
<path opacity="0.1" d="M353.756 191.888C353.756 191.888 352.274 195.763 349.88 200.415C347.603 204.944 344.503 210.221 341.16 213.414C339.271 215.205 337.284 216.342 335.347 216.342C328.128 216.342 312.839 192.589 312.839 192.589L318.149 187.985L334.843 204.205C340.579 192.921 343.989 180.973 350.956 178.974L353.756 191.888Z" fill="white"/>
<path opacity="0.2" d="M349.919 200.434C347.642 204.963 344.542 210.24 341.199 213.433C341.558 202.604 347.013 192.04 347.013 192.04C348.517 194.632 349.503 197.481 349.919 200.434Z" fill="black"/>
<path d="M344.348 244.993C344.348 244.993 285.39 236.712 282.27 249.361C278.986 262.739 326.327 271.758 354.619 272.706C382.911 273.653 391.03 267.021 386.486 232.913H347.73L344.348 244.993Z" fill="#407BFF"/>
<path opacity="0.6" d="M344.348 244.993C344.348 244.993 285.39 236.712 282.27 249.361C278.986 262.739 326.327 271.758 354.619 272.706C382.911 273.653 391.03 267.021 386.486 232.913H347.73L344.348 244.993Z" fill="white"/>
<path d="M311.512 271.369L299.158 271.379L293.228 271.388L292.521 265.277L298.005 264.557L311.405 262.814L311.512 271.369Z" fill="#E4897B"/>
<path d="M293.858 264.51L295.36 271.483C295.381 271.575 295.383 271.67 295.365 271.762C295.348 271.854 295.311 271.942 295.257 272.02C295.204 272.098 295.135 272.165 295.054 272.216C294.973 272.267 294.883 272.301 294.788 272.317L291.232 272.942C291.232 272.942 286.514 274.117 285.186 273.293C281.311 270.867 277.59 255.538 279.17 254.401C279.741 253.984 280.739 254.619 281.243 255.121C282.832 256.703 286.213 261.128 287.56 262.435C289.12 263.97 291.901 264.017 293.122 263.951C293.293 263.943 293.461 263.995 293.596 264.098C293.731 264.2 293.824 264.346 293.858 264.51Z" fill="#263238"/>
<path opacity="0.2" d="M311.512 271.369L299.158 271.379L298.005 264.557L311.405 262.814L311.512 271.369Z" fill="black"/>
<path d="M329.572 260.588L341.296 264.406L346.925 266.235L345.617 272.242L340.182 271.228L326.908 268.745L329.572 260.588Z" fill="#E4897B"/>
<path d="M344.106 272.554L344.93 265.477C344.941 265.384 344.972 265.294 345.019 265.213C345.067 265.132 345.13 265.061 345.206 265.004C345.281 264.946 345.368 264.904 345.46 264.88C345.552 264.855 345.649 264.849 345.743 264.861L349.319 265.372C349.319 265.372 354.163 265.714 355.132 266.907C358.039 270.403 356.605 286.103 354.745 286.69C354.057 286.908 353.32 285.998 353.001 285.373C352.032 283.374 350.229 278.125 349.377 276.477C348.408 274.534 345.763 273.634 344.59 273.312C344.431 273.262 344.295 273.159 344.206 273.02C344.117 272.881 344.082 272.716 344.106 272.554Z" fill="#263238"/>
<path opacity="0.2" d="M329.572 260.588L341.296 264.406L340.182 271.228L326.908 268.745L329.572 260.588Z" fill="black"/>
<path d="M338.147 272.289L334.804 272.602L336.8 261.29L340.637 263.27L338.147 272.289Z" fill="#407BFF"/>
<path opacity="0.6" d="M338.147 272.289L334.804 272.602L336.8 261.29L340.637 263.27L338.147 272.289Z" fill="white"/>
<path d="M349.338 276.391C349.425 276.903 349.347 277.43 349.115 277.897C349.021 278.037 348.891 278.151 348.738 278.226C348.585 278.3 348.414 278.334 348.243 278.324C348.14 278.328 348.037 278.306 347.945 278.259C347.854 278.213 347.776 278.143 347.72 278.058C347.216 277.225 348.398 274.657 348.543 274.373C348.553 274.341 348.574 274.314 348.602 274.296C348.631 274.279 348.665 274.272 348.699 274.278C348.735 274.281 348.77 274.296 348.798 274.32C348.826 274.343 348.845 274.375 348.854 274.411C349.083 275.053 349.245 275.716 349.338 276.391ZM347.943 277.623C347.949 277.706 347.976 277.787 348.02 277.859C348.038 277.896 348.068 277.925 348.105 277.944C348.141 277.963 348.183 277.97 348.224 277.964C348.341 277.977 348.46 277.958 348.567 277.907C348.673 277.857 348.762 277.778 348.824 277.679C349.107 276.778 349.055 275.809 348.679 274.941C348.271 275.785 348.022 276.693 347.943 277.623Z" fill="#407BFF"/>
<path d="M348.882 274.43V274.506C348.563 275.33 347.109 276.96 346.286 276.846C346.151 276.823 346.028 276.757 345.937 276.657C345.845 276.557 345.791 276.43 345.782 276.297C345.745 276.164 345.738 276.025 345.761 275.889C345.784 275.753 345.838 275.624 345.918 275.51C346.518 274.563 348.601 274.26 348.718 274.269C348.75 274.263 348.783 274.267 348.813 274.281C348.842 274.295 348.867 274.317 348.882 274.345C348.89 274.373 348.89 274.402 348.882 274.43ZM346.092 276.164V276.24C346.15 276.477 346.247 276.486 346.295 276.505C346.78 276.572 347.894 275.51 348.379 274.696C347.552 274.794 346.782 275.157 346.189 275.728C346.106 275.859 346.069 276.011 346.082 276.164H346.092Z" fill="#407BFF"/>
<path d="M300.282 263.676C300.282 263.676 355.132 242.832 371.933 246.319C388.734 249.806 388.811 258.399 380.294 266.414C371.778 274.43 359.056 271.341 359.056 271.341C359.056 271.341 369.055 265.486 368.357 261.867C367.66 258.247 361.304 266.519 361.304 266.519C361.304 266.519 328.157 274.449 300.786 272.355L300.282 263.676Z" fill="#407BFF"/>
<path d="M287.938 262.549C287.619 262.136 287.443 261.636 287.434 261.119C287.449 260.952 287.509 260.793 287.608 260.656C287.707 260.52 287.841 260.411 287.996 260.342C288.087 260.293 288.188 260.267 288.292 260.267C288.395 260.267 288.497 260.293 288.587 260.342C289.42 260.863 289.556 263.677 289.556 263.999C289.56 264.031 289.553 264.064 289.535 264.091C289.517 264.119 289.491 264.14 289.459 264.15C289.429 264.17 289.394 264.18 289.357 264.18C289.321 264.18 289.286 264.17 289.256 264.15C288.76 263.663 288.319 263.127 287.938 262.549ZM288.597 260.825C288.548 260.757 288.485 260.699 288.413 260.654C288.38 260.632 288.341 260.62 288.301 260.62C288.261 260.62 288.222 260.632 288.19 260.654C288.078 260.694 287.98 260.764 287.908 260.856C287.836 260.949 287.793 261.06 287.783 261.175C287.956 262.102 288.461 262.938 289.207 263.535C289.17 262.603 288.963 261.686 288.597 260.825Z" fill="#407BFF"/>
<path d="M289.256 264.083V263.998C289.159 263.126 289.672 261.023 290.467 260.748C290.598 260.708 290.739 260.713 290.868 260.761C290.996 260.809 291.104 260.898 291.174 261.014C291.357 261.224 291.447 261.496 291.426 261.772C291.329 262.88 289.624 264.083 289.488 264.14C289.461 264.158 289.429 264.168 289.396 264.168C289.364 264.168 289.332 264.158 289.304 264.14C289.284 264.126 289.267 264.106 289.256 264.083ZM290.922 261.288V261.222C290.767 261.042 290.67 261.08 290.622 261.089C290.157 261.241 289.653 262.681 289.653 263.629C290.128 263.24 291.048 262.425 291.106 261.734C291.116 261.58 291.076 261.427 290.99 261.298L290.922 261.288Z" fill="#407BFF"/>
<path opacity="0.7" d="M300.282 263.676C300.282 263.676 355.132 242.832 371.933 246.319C388.734 249.806 388.811 258.399 380.294 266.414C371.778 274.43 359.056 271.341 359.056 271.341C359.056 271.341 369.055 265.486 368.357 261.867C367.66 258.247 361.304 266.519 361.304 266.519C361.304 266.519 328.157 274.449 300.786 272.355L300.282 263.676Z" fill="white"/>
<path d="M299.614 263.516L302.695 262.132L304.468 273.416L300.185 272.734L299.614 263.516Z" fill="#407BFF"/>
<path opacity="0.6" d="M299.614 263.516L302.695 262.132L304.468 273.416L300.185 272.734L299.614 263.516Z" fill="white"/>
<path d="M390.381 180.804C384.461 213.017 386.612 233.861 386.612 233.861C386.612 233.861 359.066 233.491 347.749 232.866C341.713 193.822 350.995 178.984 350.995 178.984C353.954 178.405 356.947 178.003 359.957 177.781C360.587 177.734 361.236 177.705 361.895 177.677C367.234 177.674 372.568 177.968 377.872 178.558C378.841 178.662 379.897 178.795 380.886 178.937C385.934 179.686 390.381 180.804 390.381 180.804Z" fill="#263238"/>
<path opacity="0.1" d="M390.381 180.803C389.644 184.801 389.034 188.629 388.53 192.248C387.736 197.933 387.203 203.201 386.854 207.881C386.747 209.293 386.65 210.667 386.583 211.974C386.302 216.768 386.224 220.871 386.234 224.187C386.234 230.421 386.612 233.86 386.612 233.86C386.612 233.86 359.066 233.491 347.749 232.865C341.703 193.821 351.004 178.984 351.004 178.984C353.96 178.404 356.95 178.002 359.957 177.781C360.587 177.733 361.236 177.705 361.895 177.676C367.233 177.668 372.568 177.962 377.872 178.558C378.841 178.662 379.897 178.794 380.885 178.937C385.933 179.676 390.381 180.803 390.381 180.803Z" fill="white"/>
<path opacity="0.2" d="M365.781 216.362C372.84 215.542 379.804 214.076 386.583 211.984C386.302 216.778 386.225 220.881 386.234 224.197C373.086 225.381 367.719 222.908 367.719 222.908L365.781 216.362Z" fill="black"/>
<path opacity="0.2" d="M388.53 192.258C387.735 197.943 387.202 203.211 386.854 207.891C383.085 200.387 385.885 191.386 385.885 191.386L388.53 192.258Z" fill="black"/>
<path d="M367.273 229.587H347.236C346.847 229.581 346.474 229.433 346.19 229.172C345.907 228.911 345.734 228.555 345.705 228.176L342.915 202.168C342.895 201.994 342.914 201.817 342.97 201.65C343.026 201.483 343.117 201.33 343.238 201.2C343.359 201.07 343.506 200.967 343.671 200.897C343.836 200.827 344.014 200.792 344.193 200.794H364.231C364.612 200.802 364.978 200.946 365.258 201.199C365.538 201.452 365.714 201.797 365.752 202.168L368.552 228.176C368.577 228.353 368.563 228.534 368.51 228.705C368.457 228.877 368.366 229.035 368.245 229.169C368.123 229.303 367.973 229.41 367.806 229.482C367.638 229.555 367.456 229.59 367.273 229.587Z" fill="#263238"/>
<path opacity="0.6" d="M367.273 229.587H347.236C346.847 229.581 346.474 229.433 346.19 229.172C345.907 228.911 345.734 228.555 345.705 228.176L342.915 202.168C342.895 201.994 342.914 201.817 342.97 201.65C343.026 201.483 343.117 201.33 343.238 201.2C343.359 201.07 343.506 200.967 343.671 200.897C343.836 200.827 344.014 200.792 344.193 200.794H364.231C364.612 200.802 364.978 200.946 365.258 201.199C365.538 201.452 365.714 201.797 365.752 202.168L368.552 228.176C368.577 228.353 368.563 228.534 368.51 228.705C368.457 228.877 368.366 229.035 368.245 229.169C368.123 229.303 367.973 229.41 367.806 229.482C367.638 229.555 367.456 229.59 367.273 229.587Z" fill="white"/>
<path opacity="0.2" d="M366.44 229.587H347.236C346.847 229.581 346.474 229.433 346.19 229.172C345.907 228.911 345.734 228.555 345.705 228.176L342.915 202.168C342.895 201.994 342.914 201.817 342.97 201.65C343.026 201.483 343.117 201.33 343.238 201.2C343.359 201.07 343.506 200.967 343.671 200.897C343.836 200.827 344.014 200.792 344.193 200.794H363.397C363.779 200.802 364.144 200.946 364.425 201.199C364.705 201.452 364.881 201.797 364.918 202.168L367.719 228.176C367.744 228.353 367.729 228.534 367.676 228.705C367.623 228.877 367.533 229.035 367.411 229.169C367.29 229.303 367.14 229.41 366.972 229.482C366.805 229.555 366.623 229.59 366.44 229.587Z" fill="white"/>
<path d="M354.754 213.083C354.478 213.08 354.204 213.136 353.952 213.246C353.699 213.355 353.474 213.517 353.29 213.719C353.107 213.92 352.969 214.158 352.888 214.416C352.806 214.674 352.781 214.946 352.816 215.214C352.873 215.789 353.145 216.323 353.579 216.715C354.013 217.106 354.58 217.328 355.17 217.337C355.446 217.339 355.718 217.283 355.97 217.174C356.222 217.065 356.447 216.905 356.63 216.704C356.813 216.503 356.951 216.266 357.033 216.009C357.116 215.753 357.141 215.482 357.108 215.214C356.517 215.203 355.95 214.98 355.516 214.587C355.082 214.194 354.811 213.658 354.754 213.083Z" fill="#263238"/>
<path opacity="0.3" d="M359.094 202.898H348.504C348.244 202.894 347.99 202.82 347.771 202.682C347.552 202.545 347.376 202.351 347.264 202.121L346.634 200.832H360.606L360.238 202.121C360.166 202.358 360.013 202.564 359.805 202.705C359.598 202.847 359.347 202.914 359.094 202.898Z" fill="black"/>
<path d="M365.315 215.527L360.684 215.158L360.877 221.183L364.753 223.173L373.686 222.377L374.413 218.313C371.477 214.106 365.315 215.527 365.315 215.527Z" fill="#E4897B"/>
<path d="M390.381 180.803C395.139 182.206 401.882 209.227 400.807 215.196C399.731 221.165 387.998 223.723 373.086 223.391V216.342L390.381 211.406L387.475 200.984C387.475 200.984 385.072 193.319 386.147 187.957C386.738 185.19 388.222 182.682 390.381 180.803Z" fill="#263238"/>
<path opacity="0.1" d="M390.381 180.803C395.139 182.206 401.882 209.227 400.807 215.196C399.731 221.165 387.998 223.723 373.086 223.391V216.342L390.381 211.406L387.475 200.984C387.475 200.984 385.072 193.319 386.147 187.957C386.738 185.19 388.222 182.682 390.381 180.803Z" fill="white"/>
<path d="M375.566 178.254C373.154 180.718 369.365 182.783 363.29 182.565C358.63 182.385 357.981 179.524 358.794 177.951C361.624 177.383 362.903 176.179 363.3 174.645C363.697 173.11 363.145 171.044 362.331 169.13L370.189 162.659L371.516 161.56C371.516 161.93 371.468 162.318 371.448 162.726C371.357 164.228 371.357 165.734 371.448 167.236C371.71 171.471 372.737 176.066 375.566 178.254Z" fill="#E4897B"/>
<path opacity="0.2" d="M371.458 167.236C369.995 170.163 367.428 173.697 363.3 174.645C363.726 173.015 363.145 171.044 362.331 169.13L370.189 162.659C370.606 162.659 371.032 162.659 371.449 162.726C371.36 164.228 371.363 165.734 371.458 167.236Z" fill="black"/>
<path d="M353.456 149.793C352.303 152.37 352.158 157.903 356.169 156.53C360.18 155.156 355.394 145.369 353.456 149.793Z" fill="#263238"/>
<path d="M372.67 155.506C372.321 162.404 372.486 166.468 368.959 170.021C363.649 175.365 354.89 172.219 353.107 165.341C351.518 159.135 352.352 148.893 359.231 146.127C360.757 145.516 362.416 145.293 364.054 145.478C365.692 145.664 367.255 146.253 368.597 147.19C369.94 148.127 371.017 149.381 371.729 150.835C372.441 152.29 372.765 153.897 372.67 155.506Z" fill="#E4897B"/>
<path d="M361.972 157.458C361.972 158.017 361.682 158.482 361.304 158.482C360.926 158.482 360.616 158.027 360.606 157.458C360.596 156.89 360.907 156.445 361.275 156.445C361.643 156.445 361.963 156.899 361.972 157.458Z" fill="#263238"/>
<path d="M355.461 157.477C355.461 158.036 355.17 158.491 354.792 158.491C354.415 158.491 354.104 158.036 354.104 157.477C354.104 156.918 354.395 156.463 354.773 156.463C355.151 156.463 355.461 156.908 355.461 157.477Z" fill="#263238"/>
<path d="M357.535 157.752C356.85 159.416 355.93 160.979 354.803 162.394C355.203 162.652 355.653 162.824 356.126 162.901C356.598 162.978 357.081 162.957 357.545 162.84L357.535 157.752Z" fill="#DE5753"/>
<path d="M363.949 155.403C363.891 155.411 363.831 155.404 363.777 155.382C363.722 155.361 363.675 155.325 363.639 155.279C363.388 154.943 363.061 154.668 362.682 154.477C362.304 154.286 361.885 154.185 361.459 154.18C361.369 154.186 361.281 154.157 361.213 154.101C361.144 154.044 361.1 153.964 361.091 153.877C361.087 153.834 361.092 153.79 361.105 153.748C361.118 153.706 361.14 153.668 361.169 153.634C361.198 153.601 361.233 153.573 361.273 153.553C361.313 153.533 361.356 153.521 361.401 153.517C361.939 153.514 362.471 153.635 362.952 153.87C363.434 154.106 363.852 154.449 364.172 154.872C364.227 154.941 364.252 155.029 364.241 155.116C364.23 155.203 364.184 155.282 364.114 155.336C364.066 155.372 364.009 155.395 363.949 155.403Z" fill="#263238"/>
<path d="M352.632 155.298C352.569 155.316 352.502 155.316 352.438 155.298C352.398 155.279 352.362 155.252 352.333 155.219C352.303 155.187 352.281 155.148 352.266 155.107C352.252 155.066 352.246 155.022 352.249 154.978C352.252 154.935 352.263 154.892 352.283 154.853C352.498 154.371 352.829 153.947 353.247 153.617C353.665 153.287 354.159 153.061 354.686 152.958C354.731 152.953 354.776 152.956 354.819 152.968C354.862 152.98 354.903 153 354.938 153.028C354.973 153.055 355.002 153.089 355.024 153.127C355.046 153.166 355.059 153.208 355.064 153.252C355.071 153.294 355.069 153.337 355.059 153.379C355.048 153.421 355.029 153.46 355.003 153.494C354.977 153.529 354.944 153.558 354.906 153.579C354.868 153.601 354.827 153.615 354.783 153.621C354.367 153.698 353.977 153.874 353.647 154.133C353.318 154.393 353.059 154.728 352.894 155.109C352.869 155.158 352.832 155.201 352.786 155.234C352.741 155.267 352.688 155.289 352.632 155.298Z" fill="#263238"/>
<path d="M361.585 149.973C361.585 149.973 363.523 148.609 364.414 150.078C365.306 151.546 365.247 155.459 365.247 155.459L365.635 154.767C365.635 154.767 368.144 163.484 371.778 161.286C375.411 159.088 380.75 150.239 372.262 145.729C372.262 145.729 371.361 143.625 365.751 142.583C360.141 141.541 353.359 144.933 352.187 148.562C351.014 152.19 352.652 154.246 352.652 154.246C352.831 153.456 353.2 152.719 353.727 152.096C353.802 152.465 353.97 152.811 354.215 153.102C354.46 153.393 354.775 153.62 355.132 153.763C355.075 153.022 355.233 152.28 355.587 151.622C355.773 152.267 356.104 152.862 356.556 153.365C356.963 149.632 359.56 148.874 360.374 148.903C360.665 148.934 360.939 149.055 361.156 149.247C361.374 149.439 361.524 149.693 361.585 149.973Z" fill="#263238"/>
<path d="M375.47 161.22C375.21 162.04 374.788 162.803 374.225 163.463C373.663 164.123 372.973 164.668 372.195 165.066C370.102 166.118 368.571 164.384 368.745 162.224C368.9 160.263 370.17 157.354 372.466 157.212C372.968 157.19 373.468 157.289 373.922 157.502C374.375 157.714 374.768 158.033 375.066 158.429C375.363 158.826 375.555 159.288 375.626 159.775C375.696 160.262 375.643 160.758 375.47 161.22Z" fill="#E4897B"/>
<path d="M357.767 165.152C358.372 165.771 358.929 166.432 359.434 167.132L359.85 166.933C361.72 165.985 362.282 164.972 362.331 164.09C362.343 163.666 362.254 163.244 362.069 162.859C361.97 162.639 361.84 162.435 361.681 162.252C360.789 163.328 359.668 164.2 358.397 164.811C358.019 165.038 357.767 165.152 357.767 165.152Z" fill="#263238"/>
<path d="M358.397 164.829L358.911 165.398C360.665 164.526 361.818 163.673 362.07 162.877C361.971 162.658 361.84 162.454 361.682 162.271C360.789 163.346 359.669 164.219 358.397 164.829Z" fill="white"/>
<path d="M359.851 166.932C361.721 165.985 362.283 164.971 362.331 164.09C361.627 164.455 360.994 164.94 360.461 165.52C360.11 165.916 359.897 166.41 359.851 166.932Z" fill="#A24E3F"/>
<path d="M189.138 187.606L189.642 192.864C189.642 192.864 221.112 197.544 226.151 202.339C231.189 207.133 249.066 282.957 249.066 282.957L241.857 283.904C241.857 283.904 216.84 228.005 215.503 219.914C215.503 219.914 193.469 220.719 178.432 220.719C163.395 220.719 161.602 187.558 161.602 187.558L189.138 187.606Z" fill="#5452C4"/>
<path opacity="0.3" d="M249.066 282.967L241.857 283.914C241.857 283.914 231.625 261.052 223.903 242.454C219.533 231.966 215.977 222.832 215.503 219.914C215.503 219.914 200.252 220.464 186.435 220.653C183.645 220.653 180.922 220.71 178.393 220.71C163.356 220.71 161.563 187.549 161.563 187.549H189.1L189.604 192.808C189.604 192.808 221.084 197.479 226.112 202.282C231.141 207.086 249.066 282.967 249.066 282.967Z" fill="white"/>
<path d="M254.627 289.759C249.783 289.759 249.133 289.683 246.401 289.589C244.066 289.513 243.494 289.797 241.634 289.759C240.064 289.759 240.123 288.253 240.607 286.566C240.849 285.714 241.217 283.923 241.576 282.559L248.688 282.047C249.657 283.942 251.943 286.585 254.676 286.945C257.408 287.305 256.565 289.759 254.627 289.759Z" fill="#263238"/>
<path opacity="0.2" d="M223.903 242.492C219.533 232.004 215.978 222.87 215.503 219.952C215.503 219.952 200.252 220.502 186.435 220.691L184.943 194.93C184.943 194.93 204.399 197.659 217.479 208.677C219.136 210.042 222.363 231.141 223.903 242.492Z" fill="black"/>
<path d="M217.121 225.646H160.817V222.264C160.817 221.135 161.276 220.053 162.091 219.256C162.907 218.458 164.014 218.01 165.168 218.01H212.77C213.924 218.01 215.031 218.458 215.846 219.256C216.662 220.053 217.121 221.135 217.121 222.264V225.646Z" fill="#263238"/>
<path opacity="0.2" d="M217.121 225.646H160.817V222.264C160.817 221.135 161.276 220.053 162.091 219.256C162.907 218.458 164.014 218.01 165.168 218.01H212.77C213.924 218.01 215.031 218.458 215.846 219.256C216.662 220.053 217.121 221.135 217.121 222.264V225.646Z" fill="white"/>
<path d="M215.164 275.15L193.46 273.303V245.429H185.835V273.293L164.054 275.188C163.128 275.277 162.269 275.7 161.644 276.374C161.019 277.049 160.673 277.926 160.672 278.836V281.678H218.555V278.836C218.564 277.918 218.221 277.03 217.593 276.348C216.965 275.665 216.098 275.238 215.164 275.15Z" fill="#263238"/>
<path d="M167.686 285.136C167.686 286.101 167.394 287.044 166.845 287.847C166.297 288.649 165.518 289.274 164.606 289.644C163.694 290.013 162.691 290.11 161.723 289.921C160.755 289.733 159.866 289.268 159.168 288.586C158.47 287.904 157.995 287.034 157.802 286.088C157.61 285.141 157.709 284.16 158.086 283.268C158.464 282.377 159.104 281.615 159.924 281.079C160.745 280.543 161.71 280.256 162.696 280.256C164.02 280.256 165.289 280.77 166.225 281.685C167.161 282.601 167.686 283.842 167.686 285.136Z" fill="#263238"/>
<path d="M216.51 290.015C219.266 290.015 221.5 287.83 221.5 285.136C221.5 282.441 219.266 280.256 216.51 280.256C213.754 280.256 211.52 282.441 211.52 285.136C211.52 287.83 213.754 290.015 216.51 290.015Z" fill="#263238"/>
<path d="M184.517 223.827H194.777V247.599C194.777 248.531 194.399 249.425 193.725 250.084C193.05 250.743 192.136 251.114 191.183 251.114H188.121C187.168 251.114 186.253 250.743 185.579 250.084C184.905 249.425 184.526 248.531 184.526 247.599V223.827H184.517Z" fill="#263238"/>
<path opacity="0.2" d="M184.517 223.827H194.777V247.599C194.777 248.531 194.399 249.425 193.725 250.084C193.05 250.743 192.136 251.114 191.183 251.114H188.121C187.168 251.114 186.253 250.743 185.579 250.084C184.905 249.425 184.526 248.531 184.526 247.599V223.827H184.517Z" fill="white"/>
<path d="M160.42 226.527H217.508C218.477 226.527 219.262 225.759 219.262 224.812V224.424C219.262 223.476 218.477 222.709 217.508 222.709H160.42C159.451 222.709 158.666 223.476 158.666 224.424V224.812C158.666 225.759 159.451 226.527 160.42 226.527Z" fill="#263238"/>
<path opacity="0.2" d="M167.686 285.136C167.686 286.101 167.394 287.044 166.845 287.847C166.297 288.649 165.518 289.274 164.606 289.644C163.694 290.013 162.691 290.11 161.723 289.921C160.755 289.733 159.866 289.268 159.168 288.586C158.47 287.904 157.995 287.034 157.802 286.088C157.61 285.141 157.709 284.16 158.086 283.268C158.464 282.377 159.104 281.615 159.924 281.079C160.745 280.543 161.71 280.256 162.696 280.256C164.02 280.256 165.289 280.77 166.225 281.685C167.161 282.601 167.686 283.842 167.686 285.136Z" fill="white"/>
<path opacity="0.2" d="M216.51 290.015C219.266 290.015 221.5 287.83 221.5 285.136C221.5 282.441 219.266 280.256 216.51 280.256C213.754 280.256 211.52 282.441 211.52 285.136C211.52 287.83 213.754 290.015 216.51 290.015Z" fill="white"/>
<path d="M221.907 178.776H204.515C199.418 178.776 195.736 174.294 196.298 168.78L197.035 161.409C197.597 155.885 202.17 151.404 207.266 151.404H224.658C229.755 151.404 233.437 155.885 232.884 161.409L232.138 168.78C231.586 174.294 227.003 178.776 221.907 178.776Z" fill="#263238"/>
<path opacity="0.2" d="M221.907 178.776H204.515C199.418 178.776 195.736 174.294 196.298 168.78L197.035 161.409C197.597 155.885 202.17 151.404 207.266 151.404H224.658C229.755 151.404 233.437 155.885 232.884 161.409L232.138 168.78C231.586 174.294 227.003 178.776 221.907 178.776Z" fill="white"/>
<path d="M220.308 175.185H210.057C207.044 175.185 204.864 172.541 205.212 169.273L205.658 164.924C205.978 161.655 208.691 159.012 211.704 159.012H221.975C224.988 159.012 227.168 161.655 226.819 164.924L226.373 169.273C226.025 172.541 223.321 175.185 220.308 175.185Z" fill="#263238"/>
<path d="M212.15 168.685C212.15 168.685 209.805 214.779 199.651 222.69H210.512C210.512 222.69 220.201 206.991 220.909 168.685H212.15Z" fill="#263238"/>
<path d="M220.89 149.481L222.76 148.533C223.11 148.358 223.499 148.266 223.893 148.266C224.287 148.266 224.676 148.358 225.027 148.533L228.379 150.144C229.039 150.461 229.612 150.929 230.048 151.507C230.485 152.086 230.773 152.759 230.889 153.469L231.044 154.369C228.05 156.207 223.438 156.037 223.438 156.037L222.11 156.141C221.84 156.168 221.566 156.143 221.305 156.066C221.045 155.989 220.803 155.863 220.592 155.693C220.382 155.524 220.209 155.316 220.082 155.08C219.955 154.845 219.877 154.587 219.853 154.322L219.62 151.764C219.576 151.303 219.673 150.84 219.899 150.433C220.125 150.026 220.47 149.695 220.89 149.481Z" fill="#B97964"/>
<path opacity="0.2" d="M220.89 149.481L222.76 148.533C223.11 148.358 223.499 148.266 223.893 148.266C224.287 148.266 224.676 148.358 225.027 148.533L228.379 150.144C229.039 150.461 229.612 150.929 230.048 151.507C230.485 152.086 230.773 152.759 230.889 153.469L231.044 154.369C228.05 156.207 223.438 156.037 223.438 156.037L222.11 156.141C221.84 156.168 221.566 156.143 221.305 156.066C221.045 155.989 220.803 155.863 220.592 155.693C220.382 155.524 220.209 155.316 220.082 155.08C219.955 154.845 219.877 154.587 219.853 154.322L219.62 151.764C219.576 151.303 219.673 150.84 219.899 150.433C220.125 150.026 220.47 149.695 220.89 149.481Z" fill="black"/>
<path d="M207.15 151.735L200.368 160.12H193.915L194.758 148.419C199.641 149.338 207.15 151.735 207.15 151.735Z" fill="#5452C4"/>
<path opacity="0.2" d="M199.796 160.12H194.215L197.684 151.735C197.684 151.735 199.67 154.681 199.796 160.12Z" fill="black"/>
<path d="M189.555 190.77L161.157 188.193C162.048 185.237 162.833 182.338 163.492 179.543C164.325 176.123 164.984 172.844 165.507 169.784C166.03 166.724 166.476 163.882 166.786 161.304L166.873 160.575C166.873 160.168 166.97 159.77 167.009 159.391C167.29 156.899 167.464 154.729 167.581 152.939C167.823 149.442 167.823 147.424 167.823 147.424C177.553 145.602 187.594 146.185 197.035 149.12C201.26 160.755 189.555 190.77 189.555 190.77Z" fill="#5452C4"/>
<path d="M189.458 150.977C189.027 151.851 188.367 152.598 187.546 153.143C186.725 153.688 185.771 154.012 184.781 154.081C183.792 154.15 182.801 153.963 181.909 153.538C181.017 153.112 180.255 152.465 179.701 151.659L178.47 149.869L176.959 147.642C179.498 146.174 180.496 141.474 180.835 137.438C180.941 136.169 180.98 134.975 180.98 133.961L187.355 142.488C186.909 143.391 186.584 144.346 186.386 145.331C186.306 145.736 186.273 146.149 186.29 146.562C186.299 148.22 187.142 149.755 189.458 150.977Z" fill="#B97964"/>
<path opacity="0.2" d="M187.336 142.536C186.89 143.439 186.564 144.394 186.367 145.378C184.691 147.481 182.085 149.708 178.49 149.85L176.959 147.642C179.498 146.174 180.496 141.474 180.835 137.438C180.941 136.169 180.98 134.975 180.98 133.961L187.336 142.536Z" fill="black"/>
<path d="M172.018 128.296C172.018 128.296 168.869 127.14 169.799 125.008C170.729 122.876 171.853 122.895 171.853 122.895C171.377 122.023 171.118 121.054 171.098 120.066C171.078 119.078 171.297 118.1 171.737 117.21C173.297 114.368 176.746 115.524 176.746 115.524C176.76 114.631 177.084 113.769 177.665 113.081C178.246 112.392 179.049 111.917 179.943 111.734C180.856 111.587 181.792 111.734 182.611 112.155C183.429 112.576 184.085 113.246 184.478 114.065C184.478 114.065 186.648 111.308 189.826 112.066C193.004 112.824 193.644 117.154 193.644 117.154C194.512 116.877 195.455 116.938 196.278 117.324C197.101 117.711 197.74 118.393 198.062 119.228C198.494 120.101 198.675 121.071 198.584 122.036C198.494 123.001 198.135 123.924 197.548 124.705C197.548 124.705 199.573 123.757 200.242 126.95C200.91 130.143 197.5 132.948 197.5 132.948C197.5 132.948 199.341 133.165 198.391 135.525C197.442 137.884 194.448 137.922 194.448 137.922C194.448 137.922 195.611 138.5 193.411 140.442C191.212 142.384 184.129 139.608 184.129 139.608L172.018 128.296Z" fill="#263238"/>
<path d="M180.679 123.237C173.897 123.578 171.959 127.235 171.794 134.085C171.63 142.612 173.887 148.59 182.249 146.335C193.585 143.275 191.919 122.659 180.679 123.237Z" fill="#B97964"/>
<path d="M176.145 133.487C175.657 134.503 175.045 135.457 174.324 136.33C174.538 136.594 174.821 136.795 175.144 136.912C175.467 137.029 175.817 137.057 176.155 136.993L176.145 133.487Z" fill="#A24E3F"/>
<path d="M180.263 132.73C180.263 133.279 180.593 133.677 180.961 133.677C181.329 133.677 181.62 133.223 181.61 132.673C181.6 132.124 181.281 131.726 180.903 131.726C180.525 131.726 180.244 132.19 180.263 132.73Z" fill="#263238"/>
<path d="M181.057 131.753L179.836 131.318C179.836 131.318 180.466 132.303 181.057 131.753Z" fill="#263238"/>
<path d="M173.335 132.815C173.335 133.365 173.665 133.763 174.042 133.763C174.42 133.763 174.701 133.308 174.682 132.758C174.663 132.209 174.353 131.811 173.984 131.811C173.616 131.811 173.326 132.275 173.335 132.815Z" fill="#263238"/>
<path d="M174.14 131.829L172.909 131.403C172.909 131.403 173.549 132.379 174.14 131.829Z" fill="#263238"/>
<path d="M183.073 129.291C183.033 129.291 182.992 129.283 182.956 129.267C182.919 129.25 182.886 129.226 182.86 129.196C182.494 128.877 182.059 128.643 181.588 128.511C181.116 128.38 180.62 128.355 180.137 128.438C180.1 128.445 180.061 128.444 180.024 128.437C179.987 128.429 179.951 128.414 179.92 128.393C179.888 128.372 179.861 128.345 179.84 128.314C179.82 128.282 179.805 128.247 179.798 128.211C179.787 128.138 179.805 128.064 179.848 128.004C179.891 127.944 179.957 127.902 180.031 127.888C180.611 127.785 181.209 127.816 181.775 127.981C182.34 128.146 182.858 128.438 183.286 128.836C183.34 128.889 183.369 128.96 183.369 129.035C183.369 129.109 183.34 129.181 183.286 129.234C183.225 129.278 183.149 129.299 183.073 129.291Z" fill="#263238"/>
<path d="M172.483 129.091C172.439 129.091 172.395 129.082 172.355 129.064C172.315 129.046 172.279 129.019 172.251 128.987C172.204 128.927 172.184 128.851 172.195 128.776C172.206 128.702 172.247 128.634 172.309 128.589C172.706 128.262 173.174 128.027 173.677 127.901C174.18 127.775 174.706 127.76 175.215 127.859C175.253 127.87 175.287 127.888 175.317 127.912C175.347 127.936 175.372 127.966 175.39 128C175.408 128.033 175.419 128.07 175.422 128.108C175.426 128.145 175.421 128.183 175.409 128.219C175.385 128.289 175.334 128.347 175.267 128.38C175.2 128.414 175.123 128.421 175.051 128.399C174.625 128.325 174.187 128.343 173.77 128.455C173.353 128.566 172.966 128.768 172.638 129.044C172.592 129.073 172.538 129.09 172.483 129.091Z" fill="#263238"/>
<path d="M188.674 134.009C188.674 134.009 185.215 128.732 185.476 124.534C185.476 124.534 171.776 119.864 171.824 133.204C171.824 133.204 169.886 121.455 181.513 120.593C193.14 119.731 193.974 136.378 188.228 141.645C188.218 141.626 190.815 137.306 188.674 134.009Z" fill="#263238"/>
<path d="M187.646 135.467C187.655 135.085 187.741 134.707 187.9 134.357C188.058 134.007 188.285 133.69 188.569 133.426C188.852 133.162 189.187 132.956 189.552 132.818C189.917 132.681 190.307 132.615 190.699 132.625C192.811 132.748 194.032 136.908 188.867 138.187C188.131 138.386 187.666 137.694 187.646 135.467Z" fill="#B97964"/>
<path d="M177.783 140.849C177.589 140.863 177.395 140.863 177.201 140.849C177.164 140.842 177.128 140.828 177.096 140.808C177.064 140.787 177.036 140.761 177.015 140.73C176.993 140.7 176.978 140.665 176.97 140.628C176.962 140.592 176.962 140.554 176.969 140.517C176.975 140.481 176.988 140.446 177.008 140.415C177.028 140.384 177.054 140.357 177.084 140.336C177.115 140.314 177.15 140.299 177.187 140.292C177.223 140.284 177.261 140.283 177.298 140.29C178.028 140.416 178.78 140.297 179.432 139.953C180.084 139.609 180.599 139.06 180.893 138.395C180.907 138.36 180.928 138.329 180.954 138.302C180.981 138.275 181.013 138.253 181.048 138.238C181.083 138.223 181.121 138.215 181.159 138.214C181.197 138.214 181.235 138.22 181.271 138.234C181.306 138.248 181.339 138.268 181.366 138.294C181.394 138.32 181.416 138.351 181.431 138.385C181.447 138.42 181.455 138.457 181.456 138.494C181.456 138.532 181.449 138.569 181.435 138.604C181.138 139.301 180.628 139.891 179.974 140.293C179.32 140.695 178.554 140.89 177.783 140.849Z" fill="#263238"/>
<path d="M191.164 131.592C189.546 123.378 177.124 116.48 172.464 126.031C173.245 123.637 174.756 121.535 176.795 120.005C176.795 120.005 189.391 116.49 191.61 130.522L191.164 131.592Z" fill="#5452C4"/>
<path d="M184.546 289.759C179.702 289.759 179.052 289.683 176.32 289.589C173.985 289.513 173.413 289.797 171.553 289.759C169.983 289.759 170.041 288.253 170.526 286.566C170.768 285.714 171.136 283.923 171.495 282.559L178.607 282.047C179.576 283.942 181.862 286.585 184.595 286.945C187.327 287.305 186.474 289.759 184.546 289.759Z" fill="#263238"/>
<path d="M161.612 187.606C161.612 187.606 151.922 201.694 157.174 213.272C162.425 224.85 188.983 219.62 188.983 219.62L171.485 282.587L179.856 283.942C179.856 283.942 209.534 221.534 210.29 210.894C211.045 200.254 179.004 193.423 179.004 193.423L161.612 187.606Z" fill="#5452C4"/>
<path opacity="0.3" d="M161.612 187.606C161.612 187.606 151.922 201.694 157.174 213.272C162.425 224.85 188.983 219.62 188.983 219.62L171.485 282.587L179.856 283.942C179.856 283.942 209.534 221.534 210.29 210.894C211.045 200.254 179.004 193.423 179.004 193.423L161.612 187.606Z" fill="white"/>
<path opacity="0.2" d="M191.163 155.222C191.163 155.222 177.598 164.564 166.873 160.546C166.873 160.139 166.969 159.741 167.008 159.362C167.289 156.87 167.464 154.701 167.58 152.91C171.056 151.357 174.664 150.105 178.364 149.167C182.172 152.004 186.525 154.063 191.163 155.222Z" fill="black"/>
<path d="M172.27 147.444C178.238 150.286 184.401 153.82 190.902 155.118C194.642 154.881 198.828 153.394 202.587 152.39L213.856 149.055C214.338 148.906 214.86 148.939 215.32 149.146C215.779 149.354 216.143 149.721 216.34 150.177C216.537 150.632 216.554 151.144 216.387 151.611C216.219 152.077 215.88 152.467 215.435 152.702C211.918 154.597 208.371 156.34 204.699 157.932C200.165 159.751 195.979 161.873 190.863 162.328C189.027 162.307 187.202 162.046 185.437 161.551C179.481 159.843 173.746 157.468 168.346 154.474C167.487 153.924 166.87 153.079 166.617 152.106C166.365 151.133 166.495 150.102 166.982 149.218C167.469 148.335 168.278 147.662 169.248 147.333C170.219 147.005 171.28 147.044 172.221 147.444H172.27Z" fill="#B97864"/>
<path d="M169.062 146.391C163.84 147.604 163.665 156.368 168.461 160.48L180.088 150.882C180.088 150.882 175.253 144.951 169.062 146.391Z" fill="#5452C4"/>
<path d="M214.155 149.102L220.598 148.95L217.692 155.326C217.692 155.326 211.878 155.127 212.159 152.228L214.155 149.102Z" fill="#B97964"/>
<path d="M226.131 152.067L221.713 156.719L217.672 155.326L220.598 148.95L226.131 152.067Z" fill="#B97964"/>
<path d="M312.644 225.816C317.15 234.931 321.491 244.045 324.426 253.804C325.773 260.436 326.025 267.182 326.529 273.767C326.878 279.215 327.081 284.653 327.159 290.12L322.169 290.631C320.589 282.947 319.107 274.373 317.731 266.623C317.072 263.117 316.568 259.669 315.667 256.296C312.237 247.608 307.48 238.664 303.537 230.118L312.644 225.816Z" fill="#DC897C"/>
<path d="M320.085 237.744L312.189 241.439L307.286 243.76L304.311 236.768L301.201 229.444L303.827 216.095C311.888 219.543 320.085 237.744 320.085 237.744Z" fill="#3F97FF"/>
<path opacity="0.2" d="M312.189 241.439L307.286 243.76L304.312 236.768C304.922 232.808 305.435 229.444 305.435 229.444C305.435 229.444 311.171 234.475 312.189 241.439Z" fill="black"/>
<path d="M288.538 191.888C288.626 192.457 289.004 192.836 289.381 192.836C289.759 192.836 289.992 192.277 289.905 191.708C289.817 191.14 289.43 190.761 289.052 190.761C288.674 190.761 288.393 191.329 288.538 191.888Z" fill="#263238"/>
<path d="M288.897 192.873C289.858 194.495 291.041 195.981 292.414 197.288C292.066 197.627 291.646 197.888 291.184 198.051C290.722 198.215 290.229 198.278 289.74 198.236L288.897 192.873Z" fill="#DE5753"/>
<path d="M285.874 189.074C285.787 189.071 285.705 189.037 285.641 188.979C285.579 188.916 285.543 188.831 285.543 188.742C285.543 188.654 285.579 188.569 285.641 188.505C286.02 188.125 286.488 187.84 287.005 187.675C287.521 187.51 288.07 187.47 288.606 187.558C288.65 187.567 288.692 187.584 288.729 187.609C288.766 187.634 288.798 187.666 288.822 187.703C288.847 187.74 288.863 187.782 288.871 187.825C288.879 187.868 288.878 187.913 288.868 187.956C288.859 187.999 288.841 188.04 288.815 188.076C288.79 188.112 288.757 188.143 288.719 188.167C288.681 188.191 288.639 188.207 288.595 188.215C288.55 188.222 288.505 188.221 288.461 188.212C288.035 188.152 287.601 188.194 287.194 188.332C286.788 188.471 286.422 188.702 286.126 189.008C286.09 189.034 286.05 189.054 286.007 189.065C285.963 189.077 285.918 189.08 285.874 189.074Z" fill="#263238"/>
<path d="M290.34 200.453C290.155 202.74 289.158 204.892 287.521 206.536C286.44 207.621 285.112 208.443 283.645 208.933C282.242 209.409 280.739 209.537 279.272 209.303C277.806 209.07 276.422 208.484 275.245 207.597C271.098 204.584 270.555 200.482 269.024 193.613C268.648 192.02 268.693 190.36 269.157 188.79C269.621 187.219 270.488 185.791 271.675 184.641C272.863 183.49 274.331 182.655 275.941 182.216C277.551 181.776 279.249 181.747 280.874 182.13C288.277 183.844 290.873 193.992 290.34 200.453Z" fill="#E4897B"/>
<path d="M271.688 204.821C274.595 206.611 285.583 201.58 283.771 193.12C283.771 193.12 288.102 188.487 287.889 183.152C287.675 177.818 284.013 175.573 280.021 176.577C276.475 177.42 276.485 179.306 276.485 179.306C276.485 179.306 259.858 180.452 263.075 187.189C256.002 194.067 268.113 202.594 271.688 204.821Z" fill="#263238"/>
<path d="M280.787 194.437C281.179 196.143 282.136 197.675 283.509 198.795C285.321 200.254 286.794 198.965 286.765 196.9C286.765 195.005 285.796 192.002 283.693 191.348C281.591 190.694 280.38 192.381 280.787 194.437Z" fill="#E4897B"/>
<path opacity="0.2" d="M289.836 202.841C289.352 204.224 288.562 205.486 287.52 206.536C286.439 207.622 285.111 208.443 283.645 208.933C282.659 208.445 281.713 207.885 280.815 207.256L282.288 203.722C282.288 203.722 286.803 205.882 289.836 202.841Z" fill="black"/>
<path d="M274.053 213.49L272.812 205.181C272.812 205.181 278.345 201.391 284.139 203.939L292.859 214.219L274.053 213.49Z" fill="#E4897B"/>
<path d="M293.867 213.196L291.842 210.231C291.842 210.231 277.153 204.915 270.749 211.728C270.749 211.728 285.079 219.137 293.867 213.196Z" fill="#407BFF"/>
<path opacity="0.2" d="M293.867 213.196L291.842 210.231C291.842 210.231 277.153 204.915 270.749 211.728C270.749 211.728 285.079 219.137 293.867 213.196Z" fill="black"/>
<path d="M237.467 293.758L231.935 290.271L234.056 287.173L239.821 278.76L245.364 282.246L238.988 291.541L237.467 293.758Z" fill="#E4897B"/>
<path d="M232.341 289.825L240.092 289.75C240.218 289.752 240.34 289.796 240.438 289.873C240.536 289.95 240.605 290.056 240.635 290.176L241.933 295.681C241.981 295.917 241.934 296.163 241.803 296.367C241.671 296.571 241.465 296.719 241.226 296.78H241.023C238.523 296.78 236.711 296.628 233.581 296.656C231.644 296.656 225.83 296.931 223.175 296.95C220.52 296.969 220.133 294.411 221.237 294.165C226.082 293.075 229.783 291.597 231.333 290.204C231.611 289.962 231.969 289.827 232.341 289.825Z" fill="#263238"/>
<path d="M233.833 285.079L243.968 287.751L298.983 246.935L270.759 240.89C268.743 240.468 266.643 240.657 264.739 241.43C262.836 242.204 261.218 243.525 260.101 245.22L233.833 285.079Z" fill="#263238"/>
<path opacity="0.2" d="M233.833 285.079L243.968 287.751L298.983 246.935L270.759 240.89C268.743 240.468 266.643 240.657 264.739 241.43C262.836 242.204 261.218 243.525 260.101 245.22L233.833 285.079Z" fill="black"/>
<path d="M203.758 293.956L198.042 290.763L199.999 287.561L205.299 278.863L211.015 282.056L205.153 291.663L203.758 293.956Z" fill="#E4897B"/>
<path d="M198.265 289.693H206.016C206.142 289.694 206.264 289.736 206.363 289.814C206.461 289.891 206.53 289.999 206.559 290.119L207.808 295.643C207.852 295.881 207.802 296.126 207.667 296.329C207.531 296.531 207.322 296.676 207.082 296.732H206.878C204.388 296.732 202.567 296.543 199.437 296.543C197.499 296.543 191.686 296.742 189.031 296.742C186.376 296.742 186.018 294.165 187.093 293.899C191.938 292.857 195.668 291.417 197.238 290.043C197.526 289.81 197.89 289.685 198.265 289.693Z" fill="#263238"/>
<path d="M312.257 268.366L273.791 268.461C272.822 265.126 271.601 253.519 267.842 239.166C266.825 235.272 265.613 231.179 264.189 226.981C263.006 223.186 261.569 219.47 259.887 215.858C263.368 213.801 267.192 212.361 271.185 211.604C288.208 208.762 303.827 216.095 303.827 216.095C303.827 216.095 310.581 234.476 312.257 268.366Z" fill="#3F97FF"/>
<path opacity="0.2" d="M267.842 239.165C266.825 235.271 265.614 231.178 264.189 226.981L266.873 225.92C266.873 225.92 271.098 235.233 267.842 239.165Z" fill="black"/>
<path d="M251.013 245.608L255.479 247.674L257.185 240.322C257.185 240.322 253.619 239.099 250.945 240.881L251.013 245.608Z" fill="#E4897B"/>
<path d="M261.883 250.165L262.087 243.467L257.184 240.321L255.479 247.673L261.883 250.165Z" fill="#E4897B"/>
<path d="M264.935 227.37C257.503 231.302 249.016 234.95 242.553 240.094C242.408 240.218 242.456 240.274 242.621 239.725C242.652 239.375 242.605 239.023 242.485 238.692C242.378 238.332 242.14 238.022 241.817 237.82C241.691 237.773 241.768 237.887 241.943 238.001C242.185 238.148 242.441 238.272 242.708 238.37C245.692 239.479 249.83 239.848 253.172 240.265L253.676 245.144C252.62 245.438 251.632 245.637 250.595 245.826C246.719 246.48 242.698 246.944 238.619 245.627C236.866 245.112 235.387 243.95 234.496 242.386C233.604 240.823 233.37 238.981 233.843 237.252C235.839 230.326 253.899 221.685 260.526 218.474L264.935 227.38V227.37Z" fill="#DC897C"/>
<path d="M271.979 260.455L270.255 264.775C270.255 264.775 249.646 239.876 238.281 238.455C226.915 237.034 200.493 284.35 200.493 284.35L210.512 287.315L238.707 262.302C250.334 282.142 264.238 296.695 280.767 296.695H296.909C314.96 296.695 315.164 277.007 311.598 260.313L271.979 260.455Z" fill="#263238"/>
<path d="M259.887 215.858C253.425 218.17 245.829 225.181 245.829 225.181C245.829 225.181 252.223 236.02 252.863 235.603C253.502 235.186 266.621 231.51 266.621 231.51C266.621 231.51 269.296 228.118 267.242 222.376C266.707 220.755 265.747 219.299 264.456 218.155C263.165 217.011 261.59 216.219 259.887 215.858Z" fill="#3F97FF"/>
<path d="M324.785 286.851L331.81 287.192L328.099 293.9C328.099 293.9 321.85 293.227 322.344 290.11L324.785 286.851Z" fill="#E4897B"/>
<path d="M337.565 291.019L332.382 295.728L328.099 293.899L331.81 287.191L337.565 291.019Z" fill="#E4897B"/>
<path d="M107.082 218.91C111.791 223.552 116.432 228.754 122.071 232.269C122.071 232.269 122.42 232.449 122.449 232.477C122.297 232.422 122.136 232.396 121.974 232.401C121.829 232.401 122.062 232.401 122.313 232.401C128.747 230.62 134.725 226.518 140.645 223.363C141.103 223.093 141.647 222.997 142.173 223.094C142.699 223.19 143.17 223.473 143.496 223.887C143.823 224.301 143.983 224.818 143.945 225.34C143.907 225.862 143.674 226.352 143.29 226.717C138.678 230.895 126.247 242.065 119.717 239.725C115.725 238.294 112.392 235.604 109.253 233.017C106.186 230.418 103.296 227.627 100.6 224.661C96.9086 220.369 103.071 214.902 107.082 218.919V218.91Z" fill="#E9B376"/>
<path d="M115.182 225.467C114.359 231.493 109.369 237.405 109.369 237.405L108.322 236.704L103.226 233.397C103.226 233.397 103.129 233.113 102.984 232.611C102.838 232.109 102.654 231.521 102.431 230.716C101.259 226.699 99.1469 219.185 98.8853 216.068C105.212 215.926 108.061 218.873 115.182 225.467Z" fill="#407BFF"/>
<path opacity="0.7" d="M115.182 225.467C114.359 231.493 109.369 237.405 109.369 237.405L108.322 236.704L103.226 233.397C103.226 233.397 103.129 233.113 102.984 232.611C102.838 232.109 102.654 231.521 102.431 230.716C101.259 226.699 99.1469 219.185 98.8853 216.068C105.212 215.926 108.061 218.873 115.182 225.467Z" fill="white"/>
<path opacity="0.2" d="M108.322 236.703L103.226 233.396C103.226 233.396 103.129 233.112 102.983 232.61C103.172 231.085 103.457 229.572 103.836 228.081C105.179 229.114 106.276 230.42 107.05 231.909C107.825 233.398 108.259 235.034 108.322 236.703Z" fill="black"/>
<path d="M102.121 255.179L106.471 262.626C118.098 259.973 155.479 254.402 160.062 266.937C165.769 282.503 124.561 294.924 101.762 295.682C78.964 296.44 59.0723 291.134 73.4897 258.627L102.121 255.179Z" fill="#263238"/>
<path opacity="0.2" d="M102.121 255.179L106.471 262.626C118.098 259.973 155.479 254.402 160.062 266.937C165.769 282.503 124.561 294.924 101.762 295.682C78.964 296.44 59.0723 291.134 73.4897 258.627L102.121 255.179Z" fill="black"/>
<path d="M153.464 288.946C153.437 288.962 153.407 288.97 153.376 288.97C153.346 288.97 153.315 288.962 153.289 288.946C153.275 288.925 153.268 288.9 153.268 288.875C153.268 288.85 153.275 288.825 153.289 288.804C153.367 288.557 154.122 286.416 154.888 286.189C154.968 286.17 155.052 286.171 155.132 286.192C155.212 286.214 155.284 286.255 155.343 286.312C155.448 286.399 155.529 286.511 155.576 286.637C155.624 286.763 155.637 286.899 155.615 287.032C155.49 287.435 155.239 287.789 154.898 288.046C154.453 288.393 153.972 288.695 153.464 288.946ZM153.657 288.538C154.369 288.236 154.945 287.69 155.275 287.004C155.297 286.914 155.291 286.821 155.258 286.735C155.226 286.649 155.167 286.574 155.091 286.52C155.07 286.494 155.041 286.475 155.008 286.465C154.975 286.455 154.94 286.454 154.907 286.464C154.843 286.487 154.783 286.522 154.733 286.568C154.255 287.155 153.89 287.823 153.657 288.538Z" fill="#263238"/>
<path d="M153.415 288.973C153.396 288.989 153.372 288.997 153.347 288.997C153.322 288.997 153.298 288.989 153.279 288.973C153.201 288.917 152.155 287.619 152.31 286.737C152.329 286.628 152.37 286.524 152.432 286.431C152.493 286.338 152.574 286.258 152.669 286.197C152.751 286.125 152.854 286.08 152.964 286.07C153.074 286.06 153.185 286.085 153.279 286.141C153.831 286.529 153.763 288.263 153.492 288.926V288.992L153.415 288.973ZM152.824 286.434C152.727 286.51 152.661 286.618 152.64 286.737C152.669 287.394 152.917 288.023 153.347 288.528C153.512 287.789 153.463 286.567 153.134 286.349C153.134 286.349 153.037 286.273 152.872 286.349V286.396L152.824 286.434Z" fill="#263238"/>
<path d="M113.38 292.603C113.395 292.579 113.416 292.56 113.442 292.548C113.468 292.536 113.497 292.532 113.525 292.536C113.551 292.538 113.576 292.548 113.595 292.566C113.614 292.583 113.627 292.606 113.632 292.631C113.69 292.887 114.087 295.123 113.535 295.682C113.473 295.736 113.397 295.773 113.315 295.79C113.234 295.807 113.149 295.802 113.07 295.776C112.933 295.755 112.806 295.696 112.701 295.607C112.597 295.519 112.52 295.403 112.479 295.274C112.383 294.868 112.427 294.441 112.605 294.062C112.81 293.55 113.07 293.061 113.38 292.603ZM113.38 293.057C112.908 293.658 112.671 294.404 112.711 295.161C112.738 295.252 112.792 295.333 112.866 295.394C112.94 295.454 113.031 295.492 113.128 295.502C113.155 295.52 113.187 295.529 113.22 295.529C113.253 295.529 113.285 295.52 113.312 295.502C113.355 295.452 113.388 295.394 113.409 295.331C113.554 294.58 113.554 293.809 113.409 293.057H113.38Z" fill="#263238"/>
<path d="M128.3 281.319L118.921 284.588L114.416 286.16L115.569 290.983L119.929 290.073L130.587 287.847L128.3 281.319Z" fill="#EBB376"/>
<path d="M116.8 291.21L116.005 285.525C115.994 285.45 115.969 285.378 115.929 285.313C115.889 285.248 115.837 285.191 115.775 285.146C115.712 285.101 115.642 285.069 115.566 285.051C115.491 285.033 115.413 285.03 115.336 285.042L112.43 285.516C112.43 285.516 108.554 285.866 107.75 286.852C105.483 289.694 106.897 302.333 108.409 302.778C108.961 302.939 109.542 302.2 109.785 301.689C110.55 300.059 111.897 295.805 112.556 294.46C113.311 292.877 115.462 292.11 116.354 291.835C116.494 291.803 116.617 291.722 116.7 291.606C116.782 291.491 116.818 291.35 116.8 291.21Z" fill="#407BFF"/>
<path d="M113.399 292.603C113.42 292.588 113.446 292.58 113.472 292.58C113.498 292.58 113.523 292.588 113.544 292.603C113.632 292.603 115.201 293.266 115.482 294.109C115.516 294.215 115.529 294.326 115.519 294.437C115.509 294.547 115.477 294.655 115.424 294.753C115.393 294.858 115.326 294.95 115.234 295.012C115.143 295.074 115.032 295.103 114.92 295.094C114.252 295.019 113.448 293.465 113.36 292.764V292.603C113.373 292.6 113.386 292.6 113.399 292.603ZM115.182 294.545C115.22 294.428 115.22 294.302 115.182 294.185C114.998 293.645 114.126 293.171 113.68 292.953C113.893 293.683 114.542 294.725 114.94 294.763C114.94 294.763 115.056 294.763 115.143 294.602V294.545H115.182Z" fill="#263238"/>
<path opacity="0.2" d="M128.301 281.319L118.922 284.588L119.93 290.073L130.588 287.847L128.301 281.319Z" fill="black"/>
<path d="M121.596 290.897L124.289 291.086L122.487 282.01L119.425 283.658L121.596 290.897Z" fill="#407BFF"/>
<path opacity="0.6" d="M121.596 290.897L124.289 291.086L122.487 282.01L119.425 283.658L121.596 290.897Z" fill="white"/>
<path opacity="0.2" d="M82.4619 255.652L96.5111 270.887C96.5111 270.887 112.014 270.546 130.907 279.566C130.907 279.566 151.148 271.389 153.008 264.596C155.45 255.7 106.501 262.654 106.501 262.654L82.4619 255.652Z" fill="black"/>
<path d="M101.976 261.744L73.3251 258.494C73.8738 255.601 74.1977 252.671 74.294 249.73C74.4087 245.54 74.2404 241.346 73.7901 237.177C73.3929 233.188 72.8212 228.602 71.8523 223.221C71.6585 222.258 71.6873 221.266 71.9366 220.316C72.186 219.366 72.6495 218.482 73.2933 217.73C73.9371 216.978 74.7449 216.376 75.6573 215.969C76.5698 215.561 77.5639 215.359 78.5669 215.376C79.7199 215.376 80.931 215.433 82.1712 215.509C86.5586 215.701 90.9265 216.198 95.2418 216.996C96.637 217.271 98.0807 217.612 99.4663 217.944C104.437 219.204 107.518 225.324 107.092 230.26C106.924 234.097 106.49 237.917 105.793 241.696C104.912 247.267 103.875 252.705 101.976 261.744Z" fill="#407BFF"/>
<path opacity="0.7" d="M101.976 261.744L73.3251 258.494C73.8738 255.601 74.1977 252.671 74.294 249.73C74.4087 245.54 74.2404 241.346 73.7901 237.177C73.3929 233.188 72.8212 228.602 71.8523 223.221C71.6585 222.258 71.6873 221.266 71.9366 220.316C72.186 219.366 72.6495 218.482 73.2933 217.73C73.9371 216.978 74.7449 216.376 75.6573 215.969C76.5698 215.561 77.5639 215.359 78.5669 215.376C79.7199 215.376 80.931 215.433 82.1712 215.509C86.5586 215.701 90.9265 216.198 95.2418 216.996C96.637 217.271 98.0807 217.612 99.4663 217.944C104.437 219.204 107.518 225.324 107.092 230.26C106.924 234.097 106.49 237.917 105.793 241.696C104.912 247.267 103.875 252.705 101.976 261.744Z" fill="white"/>
<path opacity="0.2" d="M74.3129 249.74C74.4277 245.549 74.2594 241.356 73.8091 237.187C77.394 233.046 80.7852 229.607 80.7852 229.607C80.7852 229.607 86.4049 243.752 74.3129 249.74Z" fill="black"/>
<path d="M78.8387 228.072C79.1681 234.069 79.11 243.402 80.2242 249.134L79.9336 248.432C79.7398 248.158 79.856 248.432 80.0595 248.584C80.3216 248.838 80.5999 249.075 80.8928 249.295C84.7684 252.137 89.4192 254.326 93.789 256.59L99.3021 259.366C99.78 259.6 100.153 259.998 100.351 260.484C100.548 260.97 100.556 261.51 100.373 262.001C100.19 262.492 99.8288 262.901 99.3581 263.149C98.8873 263.396 98.3398 263.466 97.8196 263.345C95.7171 262.853 93.7018 262.265 91.6574 261.659C85.8439 259.764 79.8754 257.945 74.8758 254.24C73.8994 253.499 73.1406 252.518 72.6764 251.398C70.4382 243.629 70.2638 236.125 70.0991 228.204C70.3026 222.681 78.4802 222.577 78.8193 228.1L78.8387 228.072Z" fill="#E9B376"/>
<path d="M107.034 259.025L105.29 257.784C104.967 257.555 104.592 257.405 104.198 257.348C103.803 257.29 103.4 257.326 103.023 257.452L99.4377 258.627C98.731 258.861 98.0916 259.256 97.5726 259.78C97.0536 260.304 96.6699 260.942 96.4534 261.64L96.1821 262.521C98.9338 264.757 103.594 265.202 103.594 265.202L104.902 265.467C105.17 265.531 105.448 265.541 105.72 265.499C105.993 265.456 106.253 265.361 106.488 265.219C106.722 265.077 106.925 264.891 107.085 264.672C107.246 264.453 107.36 264.205 107.421 263.942L108.003 261.403C108.096 260.957 108.054 260.495 107.882 260.072C107.71 259.65 107.415 259.286 107.034 259.025Z" fill="#EBB376"/>
<path d="M76.2224 215.765C70.6221 217.726 69.0137 222.501 68.8975 232.459C71.8042 235.045 80.631 235.187 80.631 235.187C80.631 235.187 82.1618 220.085 76.2224 215.765Z" fill="#407BFF"/>
<path d="M144.065 264.511V266.766C144.065 267.344 143.368 267.58 142.777 267.58H96.6952C96.0945 267.58 95.3872 267.344 95.3872 266.766V264.511H144.065Z" fill="#263238"/>
<path opacity="0.4" d="M144.065 264.511V266.766C144.065 267.344 143.368 267.58 142.777 267.58H96.6952C96.0945 267.58 95.3872 267.344 95.3872 266.766V264.511H144.065Z" fill="white"/>
<path opacity="0.2" d="M144.065 264.511V266.766C144.065 267.344 143.367 267.58 142.776 267.58H112.353C111.762 267.58 111.054 267.344 111.054 266.766V264.511H144.065Z" fill="black"/>
<path d="M151.787 241.071L146.293 265.43C146.192 265.819 145.962 266.166 145.64 266.415C145.318 266.665 144.921 266.805 144.51 266.813H114.474C114.287 266.808 114.104 266.761 113.939 266.675C113.774 266.589 113.631 266.467 113.522 266.319C113.413 266.17 113.341 265.999 113.311 265.818C113.282 265.638 113.295 265.453 113.35 265.278L118.834 241.109C118.946 240.74 119.185 240.42 119.509 240.203C119.834 239.986 120.225 239.884 120.617 239.915H150.653C151.458 239.915 151.923 240.275 151.787 241.071Z" fill="#263238"/>
<path opacity="0.4" d="M151.788 241.071L146.294 265.43C146.193 265.819 145.963 266.166 145.641 266.415C145.319 266.665 144.922 266.805 144.511 266.813H115.522C115.335 266.808 115.151 266.76 114.986 266.675C114.821 266.589 114.678 266.467 114.568 266.319C114.458 266.171 114.385 266 114.354 265.819C114.323 265.639 114.334 265.454 114.388 265.278L119.882 241.109C119.994 240.74 120.232 240.42 120.557 240.203C120.881 239.986 121.272 239.884 121.664 239.915H150.654C151.458 239.915 151.924 240.275 151.788 241.071Z" fill="white"/>
<path opacity="0.2" d="M136.992 253.445C136.897 254.433 136.446 255.356 135.72 256.049C134.995 256.743 134.042 257.163 133.03 257.235C131.353 257.235 130.355 255.539 130.84 253.445C131.324 251.351 132.981 249.731 134.619 249.655C134.144 251.74 135.171 253.445 136.837 253.445H136.992Z" fill="black"/>
<path d="M141.749 227.494L148.202 227.655L145.295 221.27C145.295 221.27 139.54 221.469 139.763 224.368L141.749 227.494Z" fill="#EBB376"/>
<path d="M153.735 224.548L149.317 219.886L145.276 221.269L148.202 227.655L153.735 224.548Z" fill="#EBB376"/>
<path d="M80.7571 215.443C80.0983 215.395 82.1136 223.306 91.8996 225.258C101.686 227.21 100.93 218.408 100.164 216.201C100.164 216.201 87.2973 215.859 80.7571 215.443Z" fill="#EBB376"/>
<path d="M83.4407 184.508C83.4407 184.508 89.0506 178.426 99.3114 181.562C109.572 184.698 109.136 202.605 103.923 209.104C95.7597 208.824 87.593 209.569 79.6232 211.321C79.6232 211.321 74.6817 198.332 77.1331 190.695C79.5844 183.059 83.4407 184.508 83.4407 184.508Z" fill="#263238"/>
<path d="M85.5042 202.368C86.1534 206.594 86.6572 214.249 83.5664 216.674C83.5664 216.674 87.5971 216.542 95.4162 222.586C98.2551 219.441 96.5789 218.143 96.5789 218.143C91.9572 216.523 92.2188 213.112 93.1586 209.995L85.5042 202.368Z" fill="#EBB376"/>
<path opacity="0.2" d="M88.6437 205.485L93.2073 209.995C92.977 210.725 92.8117 211.473 92.7132 212.231C90.94 211.776 88.5662 209.568 88.4596 207.702C88.3844 206.958 88.4467 206.207 88.6437 205.485Z" fill="black"/>
<path d="M82.8977 193.746C83.3822 200.502 83.45 203.363 86.9284 207.011C92.1702 212.43 100.493 210.8 101.995 204.168C103.4 198.18 102.363 188.137 95.6582 185.172C94.244 184.487 92.6684 184.184 91.0943 184.294C89.5202 184.404 88.0046 184.922 86.704 185.796C85.4033 186.67 84.3649 187.868 83.6957 189.265C83.0266 190.663 82.7511 192.21 82.8977 193.746Z" fill="#EBB376"/>
<path d="M91.4047 195.821C91.4047 196.399 91.7245 196.863 92.1023 196.882C92.4802 196.901 92.7515 196.446 92.7418 195.878C92.7321 195.31 92.4124 194.836 92.0442 194.826C91.676 194.817 91.3853 195.253 91.4047 195.821Z" fill="#263238"/>
<path d="M98.6328 195.897C98.6328 196.466 98.9622 196.939 99.3304 196.958C99.6986 196.977 99.9796 196.522 99.9699 195.954C99.9602 195.385 99.6405 194.912 99.2723 194.902C98.9041 194.893 98.6328 195.329 98.6328 195.897Z" fill="#263238"/>
<path d="M99.0781 194.921L100.425 194.58C100.425 194.58 99.7564 195.622 99.0781 194.921Z" fill="#263238"/>
<path d="M96.4429 197.062C96.9847 198.381 97.6944 199.629 98.5551 200.776C98.2649 200.969 97.9338 201.096 97.5866 201.146C97.2393 201.197 96.8848 201.171 96.5495 201.069L96.4429 197.062Z" fill="#D58745"/>
<path d="M90.2426 192.22C90.2863 192.227 90.3309 192.224 90.373 192.211C90.4151 192.198 90.4534 192.175 90.4849 192.145C90.7873 191.871 91.1549 191.675 91.5543 191.576C91.9537 191.477 92.3721 191.477 92.7715 191.576C92.8122 191.589 92.8552 191.594 92.8978 191.589C92.9403 191.585 92.9816 191.573 93.0189 191.552C93.0562 191.532 93.0888 191.504 93.1146 191.471C93.1404 191.437 93.1588 191.399 93.1688 191.358C93.1929 191.27 93.1811 191.177 93.1359 191.097C93.0907 191.018 93.0156 190.958 92.9265 190.932C92.4209 190.799 91.8891 190.794 91.3809 190.917C90.8726 191.039 90.4044 191.286 90.0198 191.633C89.9577 191.695 89.9229 191.778 89.9229 191.865C89.9229 191.952 89.9577 192.035 90.0198 192.097C90.0754 192.164 90.1551 192.208 90.2426 192.22Z" fill="#263238"/>
<path d="M101.443 192.278C101.521 192.307 101.607 192.307 101.685 192.278C101.723 192.255 101.755 192.224 101.781 192.189C101.806 192.153 101.824 192.113 101.833 192.071C101.842 192.028 101.842 191.984 101.833 191.942C101.825 191.899 101.807 191.859 101.782 191.823C101.516 191.356 101.143 190.954 100.693 190.65C100.243 190.346 99.7269 190.148 99.1856 190.07C99.1424 190.068 99.0992 190.074 99.0586 190.088C99.0181 190.103 98.9811 190.126 98.9501 190.155C98.919 190.185 98.8947 190.22 98.8785 190.259C98.8623 190.299 98.8547 190.341 98.8561 190.383C98.8577 190.472 98.8919 190.557 98.9523 190.623C99.0128 190.689 99.0956 190.732 99.1856 190.743C99.6138 190.807 100.021 190.966 100.376 191.21C100.73 191.453 101.023 191.773 101.23 192.145C101.255 192.18 101.286 192.209 101.323 192.232C101.36 192.255 101.4 192.27 101.443 192.278Z" fill="#263238"/>
<path d="M91.8501 194.845L93.1969 194.513C93.1969 194.513 92.5574 195.546 91.8501 194.845Z" fill="#263238"/>
<path d="M84.3316 197.801C84.3316 197.801 89.6606 193.708 88.4494 187.303C88.4494 187.303 97.9835 183.618 101.743 192.988C101.743 192.988 102.537 184.954 93.575 183.381C84.6125 181.808 74.003 193.689 84.1572 202.699L84.3316 197.801Z" fill="#263238"/>
<path d="M80.6979 199.204C81.0435 199.83 81.5126 200.384 82.0779 200.833C82.6433 201.282 83.2939 201.617 83.9922 201.818C85.804 202.302 86.6179 200.558 86.0366 198.758C85.5037 197.138 83.9243 194.968 82.1609 195.243C80.3975 195.518 79.7968 197.602 80.6979 199.204Z" fill="#EBB376"/>
<path d="M102.789 196.967C102.746 196.967 102.703 196.953 102.668 196.928C102.634 196.902 102.608 196.866 102.596 196.825C99.1753 185.049 87.8875 187.474 87.7712 187.493C87.7464 187.499 87.7207 187.499 87.6956 187.495C87.6705 187.491 87.6464 187.482 87.6248 187.469C87.6032 187.456 87.5845 187.439 87.5697 187.418C87.5549 187.398 87.5444 187.375 87.5387 187.351C87.5329 187.327 87.5321 187.301 87.5364 187.277C87.5406 187.252 87.5497 187.229 87.5632 187.208C87.5767 187.187 87.5943 187.168 87.615 187.154C87.6357 187.139 87.6592 187.129 87.684 187.124C87.8003 187.124 99.4563 184.594 102.973 196.721C102.981 196.745 102.983 196.771 102.98 196.796C102.977 196.821 102.969 196.845 102.957 196.868C102.944 196.89 102.927 196.909 102.907 196.925C102.886 196.94 102.863 196.951 102.838 196.958L102.789 196.967Z" fill="#263238"/>
<path d="M96.8886 203.031C96.5504 203.805 96.2719 204.603 96.0553 205.418H95.5999C93.5555 205.2 92.6932 204.471 92.325 203.665C92.16 203.283 92.0903 202.867 92.1215 202.453C92.1364 202.217 92.182 201.985 92.2572 201.761C93.4627 202.443 94.8044 202.863 96.191 202.993C96.6173 203.012 96.8886 203.031 96.8886 203.031Z" fill="#263238"/>
<path d="M96.191 202.956L95.9294 203.647C93.9916 203.448 92.6642 203.05 92.1216 202.416C92.1365 202.18 92.1821 201.948 92.2572 201.724C93.4627 202.406 94.8045 202.826 96.191 202.956Z" fill="white"/>
<path d="M95.6001 205.381C93.5557 205.163 92.6934 204.433 92.3252 203.628C93.1018 203.726 93.8555 203.954 94.5537 204.301C95.0084 204.546 95.374 204.923 95.6001 205.381Z" fill="#DE5753"/>
<path d="M95.2708 234.6C95.24 234.602 95.2092 234.597 95.1806 234.585C95.1521 234.574 95.1266 234.556 95.1061 234.533C89.9578 229.136 86.0758 222.704 83.7311 215.689C83.7163 215.631 83.7252 215.57 83.7561 215.518C83.7869 215.467 83.837 215.429 83.8958 215.414C83.9245 215.407 83.9542 215.405 83.9834 215.41C84.0126 215.414 84.0407 215.424 84.0659 215.439C84.0912 215.454 84.1131 215.474 84.1305 215.497C84.1479 215.52 84.1603 215.547 84.1671 215.575C86.4493 222.398 90.2028 228.663 95.1739 233.946C95.7553 232.051 98.1679 223.05 94.5344 216.153C94.5167 216.102 94.5183 216.046 94.5389 215.995C94.5595 215.945 94.5978 215.904 94.6468 215.879C94.6959 215.853 94.7525 215.846 94.8065 215.858C94.8605 215.87 94.9084 215.901 94.9414 215.944C99.098 223.837 95.5227 234.344 95.484 234.448C95.4712 234.485 95.4495 234.517 95.4208 234.544C95.3921 234.57 95.3573 234.589 95.3193 234.6H95.2708Z" fill="#263238"/>
<path d="M95.5709 234.202L96.3073 235.149C96.3734 235.23 96.4093 235.33 96.4093 235.433C96.4093 235.537 96.3734 235.637 96.3073 235.718L95.5613 236.665C95.5167 236.717 95.4611 236.758 95.3983 236.787C95.3355 236.816 95.2672 236.83 95.1979 236.83C95.1287 236.83 95.0603 236.816 94.9975 236.787C94.9348 236.758 94.8791 236.717 94.8346 236.665L94.137 235.888C94.0757 235.809 94.0425 235.713 94.0425 235.613C94.0425 235.514 94.0757 235.418 94.137 235.339L94.7571 234.24C94.7976 234.171 94.8552 234.113 94.9245 234.072C94.9937 234.031 95.0724 234.007 95.1534 234.003C95.2344 234 95.3151 234.016 95.388 234.05C95.461 234.085 95.5239 234.137 95.5709 234.202Z" fill="white"/>
<path opacity="0.7" d="M76.2224 215.765C70.6221 217.726 69.0137 222.501 68.8975 232.459C71.8042 235.045 80.631 235.187 80.631 235.187C80.631 235.187 82.1618 220.085 76.2224 215.765Z" fill="white"/>
<path d="M134.812 291.759L144.636 293.341L149.355 294.099L150.731 289.334L146.468 288.064L136.042 284.966L134.812 291.759Z" fill="#EBB376"/>
<path d="M149.772 288.557L147.651 293.901C147.623 293.972 147.61 294.049 147.612 294.125C147.615 294.202 147.633 294.277 147.665 294.346C147.697 294.416 147.744 294.479 147.801 294.531C147.859 294.583 147.926 294.623 147.999 294.649L150.741 295.597C150.741 295.597 154.336 297.132 155.499 296.639C158.9 295.208 163.909 283.488 162.804 282.427C162.397 282.02 161.525 282.427 161.06 282.731C159.588 283.792 156.303 286.871 155.063 287.743C153.609 288.766 151.391 288.444 150.431 288.245C150.301 288.211 150.164 288.224 150.043 288.282C149.922 288.339 149.826 288.437 149.772 288.557Z" fill="#407BFF"/>
<path opacity="0.2" d="M134.812 291.759L144.636 293.341L146.468 288.064L136.042 284.966L134.812 291.759Z" fill="black"/>
<path d="M144.773 287.069C144.773 287.069 104.718 265.05 90.882 265.676C77.046 266.301 75.0694 278.22 80.7666 285.676C86.4638 293.133 97.0055 294.952 97.0055 294.952C97.0055 294.952 89.8453 285.023 90.882 282.256C91.9188 279.489 95.9688 283.355 95.9688 283.355C95.9688 283.355 121.16 291.314 143.223 293.142L144.773 287.069Z" fill="#263238"/>
<path d="M145.421 286.463L143.154 284.975L140.238 293.72H143.736L145.421 286.463Z" fill="#407BFF"/>
<path opacity="0.6" d="M145.421 286.463L143.154 284.975L140.238 293.72H143.736L145.421 286.463Z" fill="white"/>
<path d="M40.5186 155.199V163.289L48.0177 155.199H40.5186Z" fill="#EFEFFF"/>
<path d="M144.655 114.482H40.4976V155.199H144.655V114.482Z" fill="#FEFEFF"/>
<path d="M60.476 151.708C69.4279 151.708 76.6849 144.612 76.6849 135.858C76.6849 127.105 69.4279 120.008 60.476 120.008C51.5241 120.008 44.2671 127.105 44.2671 135.858C44.2671 144.612 51.5241 151.708 60.476 151.708Z" fill="#D1D1FF"/>
<path d="M88.3492 122.573L89.5322 124.92L92.1818 125.299L90.2655 127.126L90.7152 129.71L88.3492 128.485L85.9763 129.71L86.4329 127.126L84.5166 125.299L87.1662 124.92L88.3492 122.573Z" fill="#FFB800"/>
<path d="M98.7887 122.573L99.9717 124.92L102.621 125.299L100.705 127.126L101.155 129.71L98.7887 128.485L96.4158 129.71L96.8655 127.126L94.9492 125.299L97.5988 124.92L98.7887 122.573Z" fill="#FFB800"/>
<path d="M109.22 122.573L110.41 124.92L113.06 125.299L111.143 127.126L111.593 129.71L109.22 128.485L106.854 129.71L107.304 127.126L105.388 125.299L108.037 124.92L109.22 122.573Z" fill="#FFB800"/>
<path d="M119.661 122.573L120.844 124.92L123.493 125.299L121.577 127.126L122.034 129.71L119.661 128.485L117.288 129.71L117.744 127.126L115.828 125.299L118.478 124.92L119.661 122.573Z" fill="#C9C5D6"/>
<path d="M130.099 122.573L131.282 124.92L133.931 125.299L132.015 127.126L132.465 129.71L130.099 128.485L127.726 129.71L128.182 127.126L126.259 125.299L128.909 124.92L130.099 122.573Z" fill="#C9C5D6"/>
<path d="M133.939 134.836H84.5166V135.851H133.939V134.836Z" fill="#713FFF"/>
<path d="M113.413 137.928H84.5166V138.943H113.413V137.928Z" fill="#D9D4E7"/>
<path d="M127.18 141.026H84.5166V142.041H127.18V141.026Z" fill="#D9D4E7"/>
<path d="M123.5 144.118H84.5166V145.133H123.5V144.118Z" fill="#D9D4E7"/>
<path d="M280.303 57.635H176.145V98.3522H280.303V57.635Z" fill="#FEFEFF"/>
<path d="M196.123 94.8611C205.075 94.8611 212.332 87.7649 212.332 79.0112C212.332 70.2576 205.075 63.1614 196.123 63.1614C187.172 63.1614 179.915 70.2576 179.915 79.0112C179.915 87.7649 187.172 94.8611 196.123 94.8611Z" fill="#D1D1FF"/>
<path d="M223.997 65.7263L225.18 68.0737L227.829 68.4525L225.913 70.279L226.363 72.8632L223.997 71.6387L221.624 72.8632L222.08 70.279L220.164 68.4525L222.814 68.0737L223.997 65.7263Z" fill="#FFB800"/>
<path d="M234.437 65.7263L235.62 68.0737L238.269 68.4525L236.353 70.279L236.803 72.8632L234.437 71.6387L232.064 72.8632L232.513 70.279L230.597 68.4525L233.247 68.0737L234.437 65.7263Z" fill="#FFB800"/>
<path d="M244.868 65.7263L246.058 68.0737L248.708 68.4525L246.791 70.279L247.241 72.8632L244.868 71.6387L242.502 72.8632L242.952 70.279L241.036 68.4525L243.685 68.0737L244.868 65.7263Z" fill="#FFB800"/>
<path d="M255.309 65.7263L256.492 68.0737L259.141 68.4525L257.225 70.279L257.682 72.8632L255.309 71.6387L252.936 72.8632L253.392 70.279L251.476 68.4525L254.126 68.0737L255.309 65.7263Z" fill="#FFB800"/>
<path d="M265.746 65.7263L266.929 68.0737L269.579 68.4525L267.663 70.279L268.112 72.8632L265.746 71.6387L263.373 72.8632L263.83 70.279L261.907 68.4525L264.556 68.0737L265.746 65.7263Z" fill="#C9C5D6"/>
<path d="M269.586 77.9895H220.164V79.0042H269.586V77.9895Z" fill="#713FFF"/>
<path d="M249.061 81.0815H220.164V82.0963H249.061V81.0815Z" fill="#D9D4E7"/>
<path d="M262.827 84.1792H220.164V85.1939H262.827V84.1792Z" fill="#D9D4E7"/>
<path d="M259.147 87.2715H220.164V88.2862H259.147V87.2715Z" fill="#D9D4E7"/>
</svg>
