<svg width="629" height="409" viewBox="0 0 629 409" fill="none" xmlns="http://www.w3.org/2000/svg">
<path d="M1.37695 391.17H578.699" stroke="#D3C6FC" stroke-width="1.0481" stroke-miterlimit="10"/>
<path d="M441.566 385.113H272.428C266.184 385.113 261.121 390.168 261.121 396.404H441.565V385.113H441.566Z" fill="#8F9AF8"/>
<path d="M496.41 309.414H379.338C376.089 309.414 373.154 311.35 371.879 314.333L339.591 389.865C338.267 392.962 340.544 396.404 343.916 396.404H464.846C468.094 396.404 471.029 394.468 472.305 391.485L503.078 319.495C505.119 314.719 501.61 309.414 496.41 309.414Z" fill="#B8C3FF"/>
<path d="M435.793 354.564C434.009 361.817 426.675 367.696 419.411 367.696C412.147 367.696 407.705 361.817 409.487 354.564C411.271 347.31 418.605 341.431 425.869 341.431C433.133 341.431 437.576 347.31 435.793 354.564Z" fill="white"/>
<path d="M260.805 402.16H466.268" stroke="#D3C6FC" stroke-width="1.0481" stroke-miterlimit="10"/>
<path d="M348.547 408H457.493" stroke="#D3C6FC" stroke-width="1.0481" stroke-miterlimit="10"/>
<path d="M541.755 125.934H273.661C261.546 125.934 251.727 135.74 251.727 147.836V261.729C251.727 273.825 261.547 283.632 273.661 283.632H376.793L395.265 302.077L413.736 283.632H541.755C553.869 283.632 563.69 273.826 563.69 261.729V147.836C563.69 135.74 553.869 125.934 541.755 125.934Z" fill="white" stroke="#713FFF" stroke-width="1.0481" stroke-miterlimit="10"/>
<path d="M310.753 192.869C322.414 187.966 327.886 174.552 322.975 162.909C318.065 151.265 304.631 145.801 292.971 150.704C281.31 155.608 275.838 169.021 280.749 180.665C285.659 192.308 299.093 197.772 310.753 192.869Z" fill="#DAE0FF"/>
<path d="M349.619 150.995L353.824 163.585L367.115 163.483L356.422 171.367L360.627 183.957L349.814 176.239L339.121 184.123L343.131 171.47L332.318 163.751L345.609 163.649L349.619 150.995Z" fill="#FAAF3B"/>
<path d="M391.954 150.995L396.159 163.585L409.45 163.483L398.757 171.367L402.962 183.957L392.149 176.239L381.456 184.123L385.466 171.47L374.652 163.751L387.944 163.649L391.954 150.995Z" fill="#FAAF3B"/>
<path d="M434.288 150.995L438.493 163.585L451.784 163.483L441.091 171.367L445.296 183.957L434.483 176.239L423.79 184.123L427.8 171.47L416.986 163.751L430.278 163.649L434.288 150.995Z" fill="#FAAF3B"/>
<path d="M476.624 150.995L480.829 163.585L494.12 163.483L483.427 171.367L487.632 183.957L476.818 176.239L466.126 184.123L470.136 171.47L459.322 163.751L472.614 163.649L476.624 150.995Z" fill="#E8ECFF"/>
<path d="M518.957 150.995L523.162 163.585L536.454 163.483L525.761 171.367L529.966 183.957L519.152 176.239L508.459 184.123L512.47 171.47L501.656 163.751L514.947 163.649L518.957 150.995Z" fill="#E8ECFF"/>
<path d="M297.981 204.858H277.746V210.257H297.981V204.858Z" fill="#713FFF"/>
<path d="M333.315 204.858H302.977V210.257H333.315V204.858Z" fill="#713FFF"/>
<path d="M321.389 220.897H277.746V226.296H321.389V220.897Z" fill="#E6DFFC"/>
<path d="M441.286 220.897H339.172V226.296H441.286V220.897Z" fill="#E6DFFC"/>
<path d="M537.666 220.897H459.072V226.296H537.666V220.897Z" fill="#E6DFFC"/>
<path d="M375.314 238.083H277.746V243.481H375.314V238.083Z" fill="#E6DFFC"/>
<path d="M537.665 238.083H488.902V243.481H537.665V238.083Z" fill="#E6DFFC"/>
<path d="M477.428 238.083H391.951V243.481H477.428V238.083Z" fill="#E6DFFC"/>
<path d="M402.277 255.268H277.746V260.666H402.277V255.268Z" fill="#E6DFFC"/>
<path d="M595.64 39.3193H420.652C412.745 39.3193 406.334 45.7195 406.334 53.6159V88.5795C406.334 96.4748 412.744 102.876 420.652 102.876H595.642C603.549 102.876 609.959 96.4748 609.959 88.5795V53.6159C609.958 45.7205 603.549 39.3193 595.64 39.3193Z" fill="white" stroke="#713FFF" stroke-width="1.0481" stroke-miterlimit="10"/>
<path d="M473.636 60.2861L476.381 68.5041L485.056 68.4368L478.078 73.5833L480.822 81.8012L473.764 76.7636L466.784 81.9091L469.402 73.6496L462.344 68.6119L471.019 68.5456L473.636 60.2861Z" fill="#FAAF3B"/>
<path d="M501.269 60.2861L504.014 68.5041L512.689 68.4368L505.71 73.5833L508.454 81.8012L501.397 76.7636L494.417 81.9091L497.034 73.6496L489.977 68.6119L498.652 68.5456L501.269 60.2861Z" fill="#FAAF3B"/>
<path d="M528.902 60.2861L531.647 68.5041L540.322 68.4368L533.343 73.5833L536.087 81.8012L529.029 76.7636L522.05 81.9091L524.667 73.6496L517.609 68.6119L526.284 68.5456L528.902 60.2861Z" fill="#FAAF3B"/>
<path d="M556.532 60.2861L559.277 68.5041L567.953 68.4368L560.974 73.5833L563.718 81.8012L556.66 76.7636L549.681 81.9091L552.298 73.6496L545.24 68.6119L553.915 68.5456L556.532 60.2861Z" fill="#FAAF3B"/>
<path d="M584.165 60.2861L586.91 68.5041L595.585 68.4368L588.607 73.5833L591.351 81.8012L584.293 76.7636L577.314 81.9091L579.931 73.6496L572.873 68.6119L581.548 68.5456L584.165 60.2861Z" fill="#E8ECFF"/>
<path d="M450.534 70.3049C451.659 63.354 446.928 56.8088 439.966 55.6857C433.005 54.5627 426.45 59.2871 425.326 66.238C424.201 73.1889 428.932 79.7341 435.893 80.8572C442.855 81.9802 449.41 77.2558 450.534 70.3049Z" fill="#DAE0FF"/>
<path d="M433.846 83.6548H422.568V86.6639H433.846V83.6548Z" fill="#713FFF"/>
<path d="M453.536 83.6548H436.629V86.6639H453.536V83.6548Z" fill="#713FFF"/>
<path d="M145.835 97.4614H25.6802C20.2506 97.4614 15.8496 101.856 15.8496 107.277V131.285C15.8496 136.707 20.2506 141.101 25.6802 141.101H145.835C151.264 141.101 155.665 136.706 155.665 131.285V107.277C155.666 101.856 151.264 97.4614 145.835 97.4614Z" fill="white" stroke="#713FFF" stroke-width="1.0481" stroke-miterlimit="10"/>
<path d="M62.0611 111.858L63.9459 117.5L69.9027 117.455L65.1103 120.987L66.9942 126.63L62.1483 123.171L57.3559 126.705L59.1535 121.034L54.3066 117.574L60.2634 117.529L62.0611 111.858Z" fill="#FAAF3B"/>
<path d="M81.0347 111.858L82.9195 117.5L88.8764 117.455L84.084 120.987L85.9688 126.63L81.1219 123.171L76.3295 126.705L78.1272 121.034L73.2812 117.574L79.2381 117.529L81.0347 111.858Z" fill="#FAAF3B"/>
<path d="M100.009 111.858L101.894 117.5L107.851 117.455L103.059 120.987L104.943 126.63L100.097 123.171L95.3051 126.705L97.1018 121.034L92.2559 117.574L98.2127 117.529L100.009 111.858Z" fill="#FAAF3B"/>
<path d="M118.982 111.858L120.867 117.5L126.824 117.455L122.032 120.987L123.916 126.63L119.07 123.171L114.278 126.705L116.074 121.034L111.229 117.574L117.185 117.529L118.982 111.858Z" fill="#FAAF3B"/>
<path d="M137.958 111.858L139.841 117.5L145.798 117.455L141.007 120.987L142.891 126.63L138.045 123.171L133.252 126.705L135.05 121.034L130.203 117.574L136.16 117.529L137.958 111.858Z" fill="#E8ECFF"/>
<path d="M46.2144 118.766C46.9993 113.995 43.7622 109.492 38.9841 108.708C34.206 107.924 29.6963 111.157 28.9114 115.928C28.1265 120.699 31.3636 125.202 36.1417 125.985C40.9198 126.769 45.4295 123.537 46.2144 118.766Z" fill="#DAE0FF"/>
<path d="M34.7396 127.904H26.9961V129.97H34.7396V127.904Z" fill="#713FFF"/>
<path d="M48.2598 127.904H36.6504V129.97H48.2598V127.904Z" fill="#713FFF"/>
<path d="M551.962 356.632C566.697 356.632 578.642 344.705 578.642 329.992C578.642 315.28 566.697 303.353 551.962 303.353C537.228 303.353 525.283 315.28 525.283 329.992C525.283 344.705 537.228 356.632 551.962 356.632Z" fill="#407BFF"/>
<path d="M558.415 322.5C554.84 322.5 551.963 325.394 551.963 328.963C551.963 325.394 549.086 322.5 545.512 322.5C541.937 322.5 539.039 325.394 539.039 328.963C539.039 337.015 551.963 343.765 551.963 343.765C551.963 343.765 564.888 337.016 564.888 328.963C564.888 325.394 561.99 322.5 558.415 322.5Z" fill="white"/>
<path d="M78.5053 227.005C80.8849 212.485 71.0258 198.788 56.4843 196.412C41.9427 194.036 28.2254 203.881 25.8458 218.401C23.4662 232.921 33.3253 246.618 47.8669 248.994C62.4084 251.37 76.1257 241.525 78.5053 227.005Z" fill="#407BFF"/>
<path d="M58.7595 214C55.1094 214 52.1716 216.955 52.1716 220.599C52.1716 216.955 49.2338 214 45.5837 214C41.9336 214 38.9746 216.955 38.9746 220.599C38.9746 228.821 52.1716 235.714 52.1716 235.714C52.1716 235.714 65.3686 228.822 65.3686 220.599C65.3686 216.955 62.4095 214 58.7595 214Z" fill="white"/>
<path d="M195.831 41.3234C196.431 39.4819 199.036 39.4819 199.635 41.3234L203.759 53.9961C204.027 54.8197 204.794 55.3772 205.661 55.3772H218.999C220.937 55.3772 221.742 57.858 220.173 58.9961L209.387 66.8206C208.685 67.3299 208.392 68.2336 208.66 69.0584L212.781 81.7225C213.38 83.5646 211.273 85.0978 209.705 83.9603L198.908 76.1274C198.207 75.6192 197.259 75.6192 196.559 76.1274L185.761 83.9603C184.193 85.0978 182.086 83.5646 182.685 81.7225L186.806 69.0584C187.075 68.2336 186.781 67.3299 186.079 66.8206L175.293 58.9961C173.724 57.858 174.529 55.3772 176.468 55.3772H189.806C190.672 55.3772 191.439 54.8197 191.707 53.9961L195.831 41.3234Z" fill="#713FFF"/>
<path d="M227.808 89.013C228.408 87.1714 231.013 87.1714 231.612 89.0129L234.206 96.9829C234.474 97.8065 235.241 98.364 236.107 98.364H244.494C246.432 98.364 247.238 100.845 245.669 101.983L238.889 106.902C238.187 107.411 237.893 108.315 238.161 109.14L240.752 117.101C241.352 118.943 239.244 120.476 237.676 119.339L230.885 114.412C230.184 113.904 229.236 113.904 228.536 114.412L221.745 119.338C220.177 120.476 218.069 118.943 218.669 117.101L221.26 109.14C221.528 108.315 221.234 107.411 220.532 106.902L213.752 101.983C212.183 100.845 212.988 98.364 214.926 98.364H223.314C224.18 98.364 224.947 97.8064 225.215 96.9828L227.808 89.013Z" fill="#713FFF"/>
<path d="M206.903 135.106C207.502 133.265 210.108 133.265 210.707 135.106L211.231 136.717C211.499 137.541 212.266 138.098 213.133 138.098H214.821C216.759 138.098 217.564 140.579 215.995 141.717L214.635 142.704C213.933 143.213 213.639 144.117 213.907 144.942L214.428 146.544C215.028 148.386 212.92 149.919 211.352 148.781L209.98 147.786C209.279 147.277 208.331 147.277 207.631 147.786L206.257 148.782C204.689 149.919 202.582 148.386 203.181 146.544L203.702 144.942C203.971 144.117 203.677 143.213 202.975 142.704L201.614 141.717C200.045 140.579 200.85 138.098 202.788 138.098H204.477C205.343 138.098 206.111 137.541 206.379 136.717L206.903 135.106Z" fill="#713FFF"/>
<path d="M604.623 233.826C618.086 220.383 618.085 198.588 604.623 185.145C591.16 171.702 569.332 171.702 555.869 185.145C542.406 198.588 542.406 220.383 555.869 233.826C569.332 247.269 591.16 247.269 604.623 233.826Z" fill="#713FFF"/>
<path d="M571.077 197.118C570.413 196.786 569.631 197.269 569.631 198.012V204.926C569.631 205.369 569.923 205.76 570.349 205.885L581.082 209.037C582.04 209.318 582.04 210.674 581.082 210.956L570.349 214.107C569.923 214.232 569.631 214.623 569.631 215.067V221.98C569.631 222.723 570.413 223.207 571.077 222.875L595.084 210.891C595.821 210.523 595.821 209.47 595.084 209.101L571.077 197.118Z" fill="white"/>
<path d="M376.199 51.165C376.208 78.9784 353.561 101.611 325.911 101.553C297.825 101.495 278.325 80.0461 275.694 57.4188C273.951 42.4355 277.97 29.1077 287.845 17.8084C297.803 6.4151 310.662 0.572001 325.822 0.599707C353.323 0.649183 376.363 22.9054 376.199 51.165Z" fill="#713FFF"/>
<path d="M330.676 69.2695C326.967 69.2695 323.257 69.2744 319.549 69.267C318.215 69.2637 317.726 68.8365 317.737 67.5045C317.783 61.728 317.471 55.9424 317.898 50.1766C318.173 46.4694 319.64 43.1473 321.936 40.2071C323.489 38.217 325.112 36.2879 326.926 34.5279C327.512 33.9588 327.808 33.3147 327.794 32.4891C327.779 31.5002 327.875 30.5097 327.851 29.5217C327.822 28.2862 328.228 27.2611 329.389 26.7943C330.599 26.3077 331.784 26.5567 332.765 27.4722C333.721 28.3637 334.092 29.5588 334.388 30.7712C335.148 33.8862 334.559 36.8438 333.275 39.7106C332.846 40.6706 332.454 41.6496 331.974 42.5832C331.659 43.1943 331.903 43.4088 332.447 43.4954C332.729 43.5399 333.021 43.5201 333.308 43.5193C336.634 43.5127 339.959 43.5019 343.285 43.4978C345.093 43.4954 346.331 44.3597 346.76 45.9102C347.241 47.6463 346.546 49.6364 345.084 50.4158C344.427 50.7663 344.447 50.9148 345.021 51.3172C346.236 52.1684 347.046 53.248 346.797 54.8612C346.61 56.0777 346.006 56.9189 344.806 57.3024C344.579 57.375 344.23 57.3536 344.186 57.6521C344.14 57.9614 344.504 58.0117 344.693 58.1527C346.289 59.342 346.503 62.5123 344.159 63.4814C343.708 63.6678 343.508 63.7783 343.985 64.2344C345.016 65.2216 345.026 66.4835 344.544 67.6934C344.077 68.8678 343.022 69.2274 341.804 69.2233C338.094 69.2101 334.386 69.2183 330.676 69.2183C330.676 69.2357 330.676 69.253 330.676 69.2695Z" fill="#FDFDFE"/>
<path d="M313.253 69.2393C310.186 69.2483 307.119 69.2533 304.053 69.2706C303.139 69.2756 302.715 68.7659 302.619 67.9337C302.567 67.4925 302.596 67.0413 302.596 66.5951C302.597 60.1819 302.597 53.7695 302.606 47.3571C302.609 45.7744 303.006 45.3901 304.603 45.3868C307.351 45.3819 310.099 45.3777 312.846 45.3893C313.948 45.3942 314.513 45.8734 314.513 46.9217C314.521 53.6524 314.499 60.3832 314.485 67.1139C314.485 67.1444 314.466 67.1749 314.457 67.2055C314.285 67.2599 314.305 67.3209 314.45 67.3877C314.504 68.1127 314.482 68.803 313.645 69.1147C313.621 68.9135 313.551 68.6908 313.315 68.7609C313.044 68.8401 313.29 69.0776 313.253 69.2393Z" fill="#FDFDFE"/>
<mask id="mask0_876_1914" style="mask-type:luminance" maskUnits="userSpaceOnUse" x="0" y="161" width="358" height="231">
<path d="M357.256 161.653H0.980469V391.871H357.256V161.653Z" fill="white"/>
</mask>
<g mask="url(#mask0_876_1914)">
<path d="M194.644 197.494C196.053 204.574 195.664 211.872 196.206 219.069C196.748 226.267 198.395 233.741 203.133 239.192C207.151 243.814 213.168 246.724 216.034 252.134C218.213 256.246 218.174 261.31 216.551 265.671C214.929 270.031 211.848 273.737 208.272 276.72C195.965 286.99 177.536 288.641 162.966 281.947C148.395 275.252 137.92 260.987 134.476 245.345C131.032 229.703 134.264 212.965 141.989 198.93C146.352 191.002 152.354 183.642 160.448 179.575C167.138 176.212 177.195 174.944 183.957 179.01C189.753 182.496 193.406 191.269 194.644 197.494Z" fill="#452828"/>
<path d="M310.632 358.343C310.632 358.343 308.016 363.964 301.358 360.609L297.002 368.826L307.863 374.567L315.75 359.69L312.632 345.034C312.632 345.034 309.684 346.194 309.765 349.343C309.845 352.491 310.632 358.343 310.632 358.343Z" fill="#915046"/>
<path d="M320.558 377.557C320.609 374.136 318.766 370.935 315.694 369.312L304.318 363.3L301.969 367.732L320.558 377.557Z" fill="#994F39"/>
<path d="M323.747 382.647C323.799 379.226 321.955 376.026 318.883 374.402L305.826 367.5L303.477 371.933L323.747 382.647Z" fill="#AB6955"/>
<path d="M308.455 331.069L312.247 342.426L324.235 342.333L314.591 349.444L318.383 360.8L308.631 353.839L298.986 360.95L302.603 349.537L292.85 342.575L304.838 342.482L308.455 331.069Z" fill="#FAAF3B"/>
<path d="M301.127 360.502L301.681 356.524L306.284 352.898C307.68 351.799 308.497 350.124 308.504 348.35L308.506 347.901L294.463 352.903L288.343 360.137L284.395 367.585L305.619 378.805L307.061 376.085C309.907 370.716 307.856 364.06 302.479 361.218L301.127 360.502Z" fill="#B57A68"/>
<path d="M320.526 386.682C320.578 383.261 318.735 380.061 315.663 378.438L302.605 371.536L300.256 375.968L320.526 386.682Z" fill="#B57A68"/>
<path d="M300.942 360.104C299.61 362.151 297.907 363.956 295.939 365.405" stroke="#A15545" stroke-width="1.8647" stroke-miterlimit="10" stroke-linecap="round" stroke-linejoin="round"/>
<path d="M225.03 360.027L289.662 361.074L289.41 369.929L212.5 381.657L225.03 360.027Z" fill="#B57A68"/>
<path d="M165.191 277.139H184.151C193.097 277.139 201.051 282.818 203.946 291.269L231.495 371.718C231.495 371.718 229.579 386.603 217.924 387.969C213.545 388.483 209.334 386.087 207.278 382.193L165.191 302.462V277.139Z" fill="#383757"/>
<path d="M213.231 358.711L275.593 360.81L255.06 386.699L215.658 389.052C210.447 389.362 206.453 384.5 207.778 379.458L210.356 369.646L213.231 358.711Z" fill="#383757"/>
<path d="M225.026 360.028C219.928 363.106 214.188 367.837 211.541 373.166" stroke="#474463" stroke-width="1.8647" stroke-miterlimit="10" stroke-linecap="round"/>
<path d="M225.027 360.028C218.419 360.29 210.27 361.171 205.443 365.684" stroke="#474463" stroke-width="1.8647" stroke-miterlimit="10" stroke-linecap="round"/>
<path d="M116.892 397.382L101.25 289.692L109.103 276.995H180.76L200.455 329.973C200.455 329.973 183.99 380.941 183.99 399.849L202.12 452.408L180.715 460.629L164.232 410.125L146.119 460.271L89.7246 436.842L116.892 397.382Z" fill="#474463"/>
<path d="M101.252 289.692L109.206 276.833H119.463L122.485 302.462L112.593 367.772L101.252 289.692Z" fill="#383757"/>
<path d="M177.425 277.351V337.955L126.586 277.351H177.425Z" fill="white"/>
<path d="M146.263 291.928C142.692 291.079 139.219 289.881 135.863 288.41L126.152 276.834H177.426V285.728C170.242 294.192 156.657 294.397 146.263 291.928Z" fill="#B57A68"/>
<path d="M126.152 276.833V314.69H147.895L135.818 340.146L178.993 339.833L126.152 276.833Z" fill="#615F7F"/>
<path d="M177.426 276.833H180.701L206.115 314.69H186.043L207.705 340.146H178.993H177.721L177.426 276.833Z" fill="#615F7F"/>
<path d="M177.66 340.084C172.763 363.175 169.175 386.552 164.279 409.643" stroke="#383757" stroke-width="1.8647" stroke-miterlimit="10"/>
<path d="M122.485 276.821H103.526C94.5802 276.821 86.6256 282.5 83.731 290.952L56.1816 371.4C56.1816 371.4 56.4958 377.357 59.2646 382.446C63.6636 390.529 74.5584 392.593 78.893 384.476L122.484 302.145L122.485 276.821Z" fill="#474463"/>
<path d="M148.85 363.273L154.054 367.77L166.506 370.618L166.443 370.173C166.197 368.415 165.162 366.866 163.632 365.964L160.51 363.465L161.409 360.019L166.652 355.673L160.298 350.186L146.73 359.103L148.85 363.273Z" fill="#915046"/>
<path d="M160.976 354.43L169.648 362.696L180.201 357.013L175.008 367.803L183.681 376.068L171.799 374.472L166.608 385.262L164.456 373.485L152.574 371.889L163.126 366.206L160.976 354.43Z" fill="#FAAF3B"/>
<path d="M168.797 358.814C168.797 358.814 166.124 354.647 161.216 358.014L156.887 351.979L165.742 345.801L173.581 356.727L171.826 366.762C171.826 366.762 169.369 366.16 169.095 363.66C168.821 361.159 168.797 358.814 168.797 358.814Z" fill="#915046"/>
<path d="M149.407 364.213L144.238 357.293L163.458 342.458L165.253 344.96C168.796 349.899 168.622 354.345 165.572 356.744L161.408 360.019L149.407 364.213Z" fill="#B57A68"/>
<path d="M177.651 348.853C178.21 348.716 178.673 349.28 178.446 349.808C177.535 351.931 175.681 353.559 173.36 354.128L161.632 357.006L160.652 353.025L177.651 348.853Z" fill="#B57A68"/>
<path d="M176.054 332.295C176.607 331.851 177.42 332.239 177.443 332.948C177.533 335.794 176.312 338.577 174.017 340.422L162.42 349.745L159.246 345.809L176.054 332.295Z" fill="#B57A68"/>
<path d="M178.519 340.455C179.154 340.14 179.865 340.693 179.735 341.389C179.213 344.189 177.423 346.646 174.785 347.957L163.173 353.729L160.918 349.205L178.519 340.455Z" fill="#B57A68"/>
<path d="M76.5052 355.12L140.112 354.75L120.315 382.312L71.0211 389.719C64.6471 390.677 59.2413 385.097 60.371 378.759C62.1825 368.601 66.4526 355.947 76.5052 355.12Z" fill="#474463"/>
<path d="M93.7767 355.073L72.9512 355.498" stroke="#383757" stroke-width="1.8647" stroke-miterlimit="10" stroke-linecap="round"/>
<path d="M93.7811 355.028L72.0488 360.808" stroke="#383757" stroke-width="1.8647" stroke-miterlimit="10" stroke-linecap="round"/>
<path d="M138.662 226.175L140.906 282.04C140.996 284.287 142.847 286.063 145.1 286.063H172.641C176.071 286.063 177.728 281.919 175.276 279.526C169.995 274.37 164.642 265.522 164.642 250.835V227.295L138.662 226.175Z" fill="#B57A68"/>
<path d="M151.373 226.723L164.643 227.296V250.836C164.643 257.293 165.682 262.617 167.291 266.999C152.04 261.819 146.896 241.416 151.373 226.723Z" fill="#915046"/>
<path d="M145.456 247.102C143.595 245.847 141.773 244.324 140.031 242.633C131.188 234.051 125.912 222.444 124.672 210.194C123.52 198.803 125.809 187.472 135.277 179.954C145.414 171.904 161.219 171.201 172.635 176.786C183.555 182.127 189.559 192.286 191.793 203.92C192.901 209.691 193.215 215.587 193.293 221.452C193.441 232.437 191.733 253.537 179.088 256.168C165.434 258.975 155.472 253.855 145.456 247.102Z" fill="#B57A68"/>
<path d="M187.814 199.048C191.443 204.228 192.481 210.73 193.423 216.982C195.685 208.965 195.689 200.325 193.432 192.307C192.377 188.555 190.792 184.871 188.188 181.968C185.584 179.066 181.846 177.019 177.943 177.084C171.843 177.186 164.507 185.579 170.805 190.649C172.73 192.198 176.002 191.88 178.284 192.491C182.132 193.521 185.513 195.767 187.814 199.048Z" fill="#452828"/>
<path d="M173.202 203.664C169.079 207.4 163.988 209.872 158.548 211.019C152.973 212.195 146.218 211.869 142.027 216.325C129.294 229.864 140.025 246.127 146.514 259.783C149.781 266.658 153.164 274.641 151.39 282.39C149.119 292.305 139.438 297.016 129.921 297.056C114.434 297.12 102.43 285.632 99.3383 270.859C97.7378 263.211 98.8368 255.578 101.81 248.422C104.546 241.834 108.953 236.018 111.146 229.192C114.655 218.271 109.685 206.76 113.234 195.659C120.286 173.6 154.251 151.942 174.958 169.922C186.905 180.296 183.019 194.773 173.202 203.664Z" fill="#452828"/>
<path d="M142.841 208.526C140.055 211.168 138.236 214.883 137.84 218.695C137.387 223.058 138.569 227.413 140.74 231.256L143.573 230.759C143.871 225.797 145.125 220.847 146.69 216.194C147.409 214.058 148.268 211.935 149.293 209.893C148.447 205.978 145.36 206.136 142.841 208.526Z" fill="#452828"/>
<path d="M180.314 219.622C181.135 223.29 182.63 226.808 184.704 229.945C185.429 231.042 186.265 232.282 185.957 233.56C185.668 234.764 184.477 235.493 183.391 236.091" stroke="#915046" stroke-width="1.2164" stroke-miterlimit="10" stroke-linecap="round"/>
<path d="M176.054 243.459C176.353 245.162 177.978 246.3 179.684 246.001C181.389 245.702 182.529 244.079 182.229 242.376C181.93 240.673 180.305 239.535 178.599 239.834C176.895 240.133 175.754 241.756 176.054 243.459Z" fill="#FF7A7A"/>
<path d="M183.911 241.149C180.651 243.087 176.456 243.363 172.969 241.871" stroke="#915046" stroke-width="1.2164" stroke-miterlimit="10" stroke-linecap="round"/>
<path d="M191.328 209.567C188.517 207.996 185.583 208.38 183.385 210.606" stroke="#452828" stroke-width="1.8231" stroke-miterlimit="10" stroke-linecap="round"/>
<path d="M169.391 212.416C165.459 211.163 161.265 211.85 157.955 214.293" stroke="#452828" stroke-width="1.8231" stroke-miterlimit="10" stroke-linecap="round"/>
<path d="M168.687 221.11C168.955 222.63 167.937 224.078 166.415 224.345C164.893 224.612 163.442 223.596 163.176 222.076C162.908 220.556 163.926 219.108 165.448 218.841C166.97 218.574 168.421 219.591 168.687 221.11Z" fill="#452828"/>
<path d="M189.993 219.606C190.245 218.083 189.212 216.645 187.687 216.394C186.162 216.144 184.722 217.175 184.471 218.697C184.219 220.22 185.252 221.658 186.777 221.909C188.302 222.16 189.742 221.129 189.993 219.606Z" fill="#452828"/>
<path d="M140.095 224.561C138.184 222.939 135.44 222.059 133.113 222.994C131.241 223.746 129.932 225.572 129.479 227.536C129.026 229.499 129.343 231.576 130.02 233.474C132.176 239.523 138.213 243.983 144.636 244.275C145.965 244.336 145.236 233.713 145.039 232.7C144.448 229.667 142.44 226.553 140.095 224.561Z" fill="#B57A68"/>
<path d="M142.767 241.434C143.03 242.936 142.026 244.367 140.521 244.631C139.017 244.895 137.584 243.891 137.319 242.389C137.056 240.887 138.061 239.456 139.565 239.192C141.069 238.928 142.502 239.932 142.767 241.434Z" fill="white"/>
<path d="M133.594 227.288C134.691 226.361 136.339 226.249 137.66 226.814C138.981 227.38 139.986 228.534 140.603 229.831C141.219 231.127 141.482 232.562 141.634 233.988C140.928 233.323 139.74 233.245 138.954 233.815C138.168 234.385 137.874 235.537 138.29 236.413C138.706 237.289 139.785 237.79 140.725 237.544" stroke="#915046" stroke-width="1.2164" stroke-miterlimit="10" stroke-linecap="round"/>
</g>
</svg>
