<svg width="594" height="446" viewBox="0 0 594 446" fill="none" xmlns="http://www.w3.org/2000/svg">
<path d="M594 391.586H0V391.884H594V391.586Z" fill="#EBEBEB"/>
<path d="M195.533 409.997H156.187V410.296H195.533V409.997Z" fill="#EBEBEB"/>
<path d="M307.501 406.762H297.178V407.06H307.501V406.762Z" fill="#EBEBEB"/>
<path d="M85.12 401.723H62.3223V402.021H85.12V401.723Z" fill="#EBEBEB"/>
<path d="M493.947 399.717H462.964V400.015H493.947V399.717Z" fill="#EBEBEB"/>
<path d="M452.379 399.717H424.532V400.015H452.379V399.717Z" fill="#EBEBEB"/>
<path d="M534.493 414.045H423.201V414.343H534.493V414.045Z" fill="#EBEBEB"/>
<path d="M281.556 338.333H52.1652C50.3681 338.33 48.6458 337.61 47.3762 336.332C46.1066 335.054 45.3936 333.321 45.3936 331.515V7.42796C45.4092 5.63222 46.1292 3.91519 47.397 2.64983C48.6649 1.38448 50.3784 0.672998 52.1652 0.669922H281.556C283.355 0.669922 285.081 1.38822 286.353 2.66679C287.625 3.94537 288.34 5.67948 288.34 7.48766V331.515C288.34 333.324 287.625 335.058 286.353 336.336C285.081 337.615 283.355 338.333 281.556 338.333ZM52.1652 0.908723C50.4469 0.911886 48.8001 1.60013 47.5862 2.82238C46.3723 4.04463 45.6906 5.70102 45.6906 7.42796V331.515C45.6906 333.242 46.3723 334.899 47.5862 336.121C48.8001 337.343 50.4469 338.031 52.1652 338.035H281.556C283.275 338.031 284.923 337.344 286.139 336.122C287.355 334.9 288.039 333.243 288.043 331.515V7.42796C288.039 5.69992 287.355 4.04356 286.139 2.82165C284.923 1.59974 283.275 0.911879 281.556 0.908723H52.1652Z" fill="#EBEBEB"/>
<path d="M538.532 338.333H309.129C307.331 338.33 305.607 337.611 304.336 336.333C303.065 335.055 302.349 333.323 302.346 331.515V7.42796C302.364 5.63113 303.087 3.91411 304.357 2.64909C305.627 1.38406 307.341 0.672965 309.129 0.669922H538.532C540.317 0.676136 542.027 1.38901 543.292 2.65403C544.558 3.91904 545.276 5.63428 545.292 7.42796V331.515C545.292 333.319 544.58 335.05 543.313 336.328C542.046 337.606 540.327 338.327 538.532 338.333ZM309.129 0.908723C307.41 0.911879 305.762 1.59974 304.546 2.82165C303.33 4.04356 302.646 5.69992 302.643 7.42796V331.515C302.646 333.243 303.33 334.9 304.546 336.122C305.762 337.344 307.41 338.031 309.129 338.035H538.532C540.251 338.031 541.899 337.344 543.115 336.122C544.331 334.9 545.015 333.243 545.018 331.515V7.42796C545.015 5.69992 544.331 4.04356 543.115 2.82165C541.899 1.59974 540.251 0.911879 538.532 0.908723H309.129Z" fill="#EBEBEB"/>
<path d="M378.497 388.027H406.475V264.998H378.497V388.027Z" fill="#E1DBF2"/>
<path d="M277.932 391.586H401.116V388.028H277.932V391.586Z" fill="#F0F0F0"/>
<path d="M378.497 264.998H272.551V388.028H378.497V264.998Z" fill="#E8E3F6"/>
<path d="M367.496 271.899H283.552V323.767H367.496V271.899Z" fill="white"/>
<path d="M367.496 329.259H283.552V381.126H367.496V329.259Z" fill="white"/>
<path d="M347.288 280.937H303.771C302.411 280.939 301.063 280.67 299.806 280.146C298.549 279.623 297.407 278.854 296.447 277.886C295.486 276.917 294.726 275.767 294.209 274.502C293.692 273.237 293.429 271.881 293.436 270.514H357.588C357.594 271.878 357.332 273.231 356.818 274.494C356.303 275.756 355.546 276.905 354.589 277.873C353.632 278.841 352.495 279.61 351.242 280.136C349.989 280.662 348.645 280.934 347.288 280.937Z" fill="#F5F5F5"/>
<path d="M347.288 338.298H303.772C301.034 338.298 298.408 337.205 296.472 335.259C294.536 333.313 293.448 330.674 293.448 327.922H357.6C357.6 330.672 356.514 333.309 354.581 335.255C352.647 337.2 350.024 338.295 347.288 338.298Z" fill="#F5F5F5"/>
<path d="M492.759 388.027H520.736V264.998H492.759V388.027Z" fill="#9E96B3"/>
<path d="M392.182 391.586H515.366V388.028H392.182V391.586Z" fill="#F0F0F0"/>
<path d="M492.758 264.998H386.812V388.028H492.758V264.998Z" fill="#E8E3F6"/>
<path d="M481.758 271.899H397.813V323.767H481.758V271.899Z" fill="white"/>
<path d="M481.758 329.259H397.813V381.126H481.758V329.259Z" fill="white"/>
<path d="M461.538 280.937H418.022C415.284 280.937 412.658 279.844 410.722 277.898C408.786 275.952 407.698 273.313 407.698 270.562H471.85C471.85 273.311 470.764 275.949 468.831 277.894C466.897 279.84 464.274 280.934 461.538 280.937Z" fill="#F5F5F5"/>
<path d="M461.538 338.298H418.022C415.284 338.298 412.658 337.205 410.722 335.259C408.786 333.313 407.698 330.674 407.698 327.922H471.85C471.85 330.672 470.764 333.309 468.831 335.255C466.897 337.2 464.274 338.295 461.538 338.298Z" fill="#F5F5F5"/>
<path d="M132.367 99.7002H180.291V44.024L132.367 44.024V99.7002Z" fill="#E6E6E6"/>
<path d="M126.902 99.7002H179.008V44.024L126.902 44.024V99.7002Z" fill="#F5F5F5"/>
<path d="M174.636 95.3183V48.418H131.262V95.3183H174.636Z" fill="white"/>
<path d="M164.134 83.9517V82.2443C164.131 76.2887 161.776 70.578 157.586 66.3668C153.396 62.1556 147.714 59.7883 141.788 59.7852V61.4926C141.788 67.4491 144.142 73.1617 148.333 77.3736C152.524 81.5855 158.208 83.9517 164.134 83.9517Z" fill="#F5F5F5"/>
<path d="M340.528 204.784L520.748 204.784V35.3556L340.528 35.3556V204.784Z" fill="#E6E6E6"/>
<path d="M334.945 204.784L518.135 204.784V35.3556L334.945 35.3556V204.784Z" fill="#D9D9D9"/>
<path d="M340.528 210.826L520.748 210.826V204.785L340.528 204.785V210.826Z" fill="#E6E6E6"/>
<path d="M325.631 210.826L508.82 210.826V204.785L325.631 204.785V210.826Z" fill="#F0F0F0"/>
<path d="M510.306 195.686V44.4541L342.75 44.4541V195.686H510.306Z" fill="#FAFAFA"/>
<path d="M462.798 195.698L434.892 44.4541H388.916L416.822 195.698H462.798Z" fill="white"/>
<path d="M506.694 144.38C506.853 144.368 507 144.294 507.105 144.173C507.209 144.052 507.262 143.895 507.253 143.735V50.3766C507.253 50.2278 507.194 50.085 507.089 49.9798C506.984 49.8746 506.842 49.8154 506.694 49.8154C506.546 49.8154 506.404 49.8746 506.299 49.9798C506.195 50.085 506.136 50.2278 506.136 50.3766V143.735C506.126 143.895 506.179 144.052 506.284 144.173C506.388 144.294 506.536 144.368 506.694 144.38Z" fill="#F0F0F0"/>
<path d="M406.937 195.698L379.043 44.4541H361.116L389.01 195.698H406.937Z" fill="white"/>
<path d="M343.748 195.686V44.4541H342.75V195.686H343.748Z" fill="#E6E6E6"/>
<path opacity="0.4" d="M333.092 56.0953H513.3L514.024 48H333.805L333.092 56.0953Z" fill="#CBC3E1"/>
<path opacity="0.4" d="M333.092 65.4207H513.3L514.024 57.3135H333.805L333.092 65.4207Z" fill="#CBC3E1"/>
<path opacity="0.4" d="M333.092 74.734H513.3L514.024 66.6387H333.805L333.092 74.734Z" fill="#E6E6E6"/>
<path opacity="0.4" d="M333.092 84.0584H513.3L514.024 75.9512H333.805L333.092 84.0584Z" fill="#CBC3E1"/>
<path opacity="0.4" d="M333.092 93.3717H513.3L514.024 85.2764H333.805L333.092 93.3717Z" fill="#CBC3E1"/>
<path opacity="0.4" d="M333.092 102.697H513.3L514.024 94.5898H333.805L333.092 102.697Z" fill="#CBC3E1"/>
<path opacity="0.4" d="M333.092 112.01H513.3L514.024 103.915H333.805L333.092 112.01Z" fill="#CBC3E1"/>
<path opacity="0.4" d="M333.092 121.336H513.3L514.024 113.229H333.805L333.092 121.336Z" fill="#CBC3E1"/>
<path opacity="0.4" d="M333.092 130.649H513.3L514.024 122.554H333.805L333.092 130.649Z" fill="#CBC3E1"/>
<path d="M98.39 190.528H135.776V147.413H98.39V190.528Z" fill="#E6E6E6"/>
<path d="M94.1612 190.528H134.518V147.413H94.1612V190.528Z" fill="#F5F5F5"/>
<path d="M131.144 187.125V150.804H97.5469V187.125H131.144Z" fill="white"/>
<path d="M122.994 169.633V168.308C122.994 167.165 122.77 166.034 122.335 164.978C121.899 163.923 121.261 162.964 120.457 162.157C119.652 161.35 118.698 160.71 117.647 160.273C116.596 159.837 115.47 159.614 114.334 159.615C112.048 159.628 109.86 160.549 108.249 162.178C106.637 163.807 105.732 166.01 105.732 168.308V169.633C105.732 171.938 106.644 174.149 108.266 175.779C109.887 177.409 112.087 178.325 114.381 178.325C116.669 178.316 118.859 177.396 120.474 175.767C122.088 174.138 122.994 171.932 122.994 169.633Z" fill="#F5F5F5"/>
<path d="M191.636 175.077H242.97V115.64H191.636V175.077Z" fill="#E6E6E6"/>
<path d="M185.815 175.077H241.438V115.64H185.815V175.077Z" fill="#F5F5F5"/>
<path d="M236.78 170.409V120.345H190.472V170.409H236.78Z" fill="white"/>
<path d="M215.563 136.081L224.354 151.388C224.55 151.73 224.653 152.117 224.653 152.511C224.653 152.905 224.55 153.293 224.354 153.634C224.157 153.975 223.875 154.259 223.535 154.455C223.195 154.652 222.81 154.756 222.418 154.755H204.835C204.443 154.756 204.058 154.652 203.718 154.455C203.378 154.259 203.096 153.975 202.899 153.634C202.703 153.293 202.6 152.905 202.6 152.511C202.6 152.117 202.703 151.73 202.899 151.388L211.69 136.081C211.888 135.742 212.171 135.461 212.511 135.265C212.85 135.07 213.235 134.967 213.626 134.967C214.018 134.967 214.403 135.07 214.742 135.265C215.082 135.461 215.365 135.742 215.563 136.081Z" fill="#F5F5F5"/>
<path d="M106.944 391.573H135.159V302.167H106.944L106.944 391.573Z" fill="#E6E6E6"/>
<path d="M112.301 391.586H106.943V376.267H117.92L112.301 391.586Z" fill="#F0F0F0"/>
<path d="M212.379 391.573H240.594V302.167H212.379V391.573Z" fill="#9E96B2"/>
<path d="M106.956 382.177H217.06V302.167H106.956L106.956 382.177Z" fill="#E1DBF2"/>
<path d="M111.102 307.194V363.037H160.202V307.194H111.102Z" fill="white"/>
<path d="M163.802 307.194V363.037H212.902V307.194H163.802Z" fill="white"/>
<path d="M183.499 311.48H193.205C195.289 311.486 197.353 311.066 199.271 310.245C201.189 309.424 202.921 308.219 204.36 306.704H172.284C173.73 308.228 175.471 309.438 177.4 310.259C179.328 311.08 181.404 311.496 183.499 311.48Z" fill="#F0F0F0"/>
<path d="M130.3 311.48H140.017C142.102 311.486 144.166 311.065 146.083 310.244C148.001 309.423 149.733 308.219 151.173 306.704H119.097C120.542 308.225 122.281 309.433 124.207 310.255C126.134 311.076 128.207 311.493 130.3 311.48Z" fill="#F0F0F0"/>
<path d="M211.701 391.586H217.059V376.267H206.082L211.701 391.586Z" fill="#F0F0F0"/>
<path d="M182.655 290.191C182.653 291.408 183.01 292.598 183.681 293.61C184.351 294.623 185.306 295.413 186.424 295.88C187.542 296.348 188.772 296.471 189.96 296.235C191.147 295.999 192.239 295.415 193.095 294.555C193.952 293.696 194.536 292.6 194.773 291.407C195.01 290.214 194.89 288.977 194.427 287.852C193.964 286.728 193.18 285.767 192.174 285.091C191.167 284.415 189.984 284.054 188.773 284.054C187.154 284.057 185.601 284.704 184.455 285.854C183.309 287.004 182.662 288.563 182.655 290.191Z" fill="#E0E0E0"/>
<path d="M191.541 292.341C194.913 292.341 197.647 289.593 197.647 286.204C197.647 282.814 194.913 280.066 191.541 280.066C188.168 280.066 185.435 282.814 185.435 286.204C185.435 289.593 188.168 292.341 191.541 292.341Z" fill="#E0E0E0"/>
<path d="M152.064 291.182C152.064 292.396 152.423 293.582 153.094 294.592C153.765 295.601 154.718 296.388 155.834 296.852C156.95 297.317 158.178 297.438 159.362 297.201C160.547 296.964 161.635 296.38 162.489 295.522C163.343 294.663 163.924 293.57 164.16 292.379C164.395 291.189 164.274 289.955 163.812 288.833C163.35 287.712 162.567 286.754 161.563 286.079C160.559 285.405 159.378 285.045 158.171 285.045C156.551 285.045 154.998 285.692 153.853 286.842C152.708 287.993 152.064 289.554 152.064 291.182Z" fill="#E0E0E0"/>
<path d="M199.715 294.74C203.855 294.74 207.211 291.367 207.211 287.206C207.211 283.045 203.855 279.672 199.715 279.672C195.575 279.672 192.219 283.045 192.219 287.206C192.219 291.367 195.575 294.74 199.715 294.74Z" fill="#E0E0E0"/>
<path d="M177.368 280.269C177.366 281.76 177.803 283.218 178.626 284.458C179.448 285.699 180.618 286.666 181.987 287.238C183.357 287.81 184.865 287.961 186.32 287.672C187.775 287.383 189.111 286.666 190.161 285.613C191.21 284.56 191.926 283.217 192.216 281.755C192.506 280.294 192.358 278.778 191.791 277.401C191.224 276.023 190.263 274.846 189.03 274.018C187.797 273.189 186.348 272.747 184.864 272.747C182.879 272.75 180.976 273.543 179.571 274.953C178.167 276.363 177.374 278.274 177.368 280.269Z" fill="#E0E0E0"/>
<path d="M165.488 282.191C165.486 283.682 165.924 285.14 166.746 286.38C167.568 287.621 168.738 288.588 170.108 289.16C171.477 289.732 172.985 289.883 174.44 289.594C175.895 289.305 177.231 288.588 178.281 287.535C179.331 286.482 180.046 285.139 180.336 283.677C180.626 282.215 180.478 280.7 179.911 279.323C179.344 277.945 178.384 276.768 177.151 275.94C175.917 275.111 174.468 274.669 172.985 274.669C170.998 274.669 169.094 275.461 167.688 276.871C166.283 278.282 165.491 280.195 165.488 282.191Z" fill="#E0E0E0"/>
<path d="M170.514 288.268C170.514 289.685 170.932 291.07 171.715 292.249C172.498 293.427 173.611 294.345 174.914 294.887C176.216 295.429 177.65 295.571 179.032 295.295C180.415 295.018 181.685 294.336 182.682 293.334C183.679 292.332 184.358 291.056 184.633 289.666C184.908 288.276 184.767 286.836 184.227 285.527C183.688 284.218 182.774 283.099 181.602 282.312C180.43 281.525 179.051 281.104 177.642 281.104C175.751 281.104 173.938 281.859 172.601 283.203C171.265 284.546 170.514 286.368 170.514 288.268Z" fill="#E0E0E0"/>
<path d="M158.111 287.804C158.111 289.334 158.563 290.83 159.409 292.102C160.255 293.374 161.457 294.366 162.864 294.952C164.27 295.537 165.818 295.691 167.311 295.392C168.805 295.093 170.176 294.357 171.253 293.274C172.33 292.192 173.063 290.814 173.36 289.313C173.657 287.812 173.504 286.256 172.922 284.843C172.339 283.429 171.352 282.221 170.086 281.37C168.821 280.52 167.332 280.066 165.81 280.066C163.768 280.066 161.81 280.882 160.366 282.333C158.922 283.784 158.111 285.752 158.111 287.804Z" fill="#E0E0E0"/>
<path d="M211.666 290.191C211.666 290.191 210.835 302.131 178.675 302.131C146.516 302.131 145.673 290.191 145.673 290.191H211.666Z" fill="#F0F0F0"/>
<path d="M297 445.507C424.214 445.507 527.341 439.455 527.341 431.991C527.341 424.526 424.214 418.475 297 418.475C169.786 418.475 66.6582 424.526 66.6582 431.991C66.6582 439.455 169.786 445.507 297 445.507Z" fill="#F5F5F5"/>
<path d="M365.631 78.1611C364.665 74.9527 363.383 71.8489 361.806 68.8956L364.182 61.0749L348.821 45.6246L341.039 48.0126C338.101 46.4267 335.013 45.1388 331.82 44.1679L327.995 37.0039H306.255L302.441 44.1679C299.248 45.1366 296.16 46.4246 293.222 48.0126L285.441 45.6246L270.068 61.0749L272.444 68.8956C270.875 71.8517 269.598 74.955 268.631 78.1611L261.443 82.0058V103.856L268.631 107.689C269.596 110.896 270.873 113.999 272.444 116.954L270.068 124.775L285.441 140.225L293.222 137.837C296.162 139.416 299.25 140.7 302.441 141.67L306.255 148.834H327.995L331.82 141.67C335.01 140.698 338.098 139.414 341.039 137.837L348.821 140.225L364.193 124.775L361.817 116.954C363.398 114.002 364.679 110.898 365.643 107.689L372.83 103.856V82.0058L365.631 78.1611ZM317.125 123.963C311.016 123.963 305.044 122.142 299.964 118.731C294.885 115.32 290.926 110.471 288.588 104.799C286.25 99.1264 285.639 92.8845 286.83 86.8625C288.022 80.8406 290.964 75.3091 295.284 70.9675C299.604 66.6259 305.107 63.6693 311.099 62.4714C317.091 61.2736 323.301 61.8884 328.945 64.238C334.589 66.5877 339.413 70.5666 342.807 75.6718C346.201 80.777 348.013 86.779 348.013 92.9189C348.013 101.152 344.759 109.048 338.966 114.87C333.173 120.692 325.317 123.963 317.125 123.963Z" fill="#713FFF"/>
<path opacity="0.2" d="M365.631 78.1611C364.665 74.9527 363.383 71.8489 361.806 68.8956L364.182 61.0749L348.821 45.6246L341.039 48.0126C338.101 46.4267 335.013 45.1388 331.82 44.1679L327.995 37.0039H306.255L302.441 44.1679C299.248 45.1366 296.16 46.4246 293.222 48.0126L285.441 45.6246L270.068 61.0749L272.444 68.8956C270.875 71.8517 269.598 74.955 268.631 78.1611L261.443 82.0058V103.856L268.631 107.689C269.596 110.896 270.873 113.999 272.444 116.954L270.068 124.775L285.441 140.225L293.222 137.837C296.162 139.416 299.25 140.7 302.441 141.67L306.255 148.834H327.995L331.82 141.67C335.01 140.698 338.098 139.414 341.039 137.837L348.821 140.225L364.193 124.775L361.817 116.954C363.398 114.002 364.679 110.898 365.643 107.689L372.83 103.856V82.0058L365.631 78.1611ZM317.125 123.963C311.016 123.963 305.044 122.142 299.964 118.731C294.885 115.32 290.926 110.471 288.588 104.799C286.25 99.1264 285.639 92.8845 286.83 86.8625C288.022 80.8406 290.964 75.3091 295.284 70.9675C299.604 66.6259 305.107 63.6693 311.099 62.4714C317.091 61.2736 323.301 61.8884 328.945 64.238C334.589 66.5877 339.413 70.5666 342.807 75.6718C346.201 80.777 348.013 86.779 348.013 92.9189C348.013 101.152 344.759 109.048 338.966 114.87C333.173 120.692 325.317 123.963 317.125 123.963Z" fill="white"/>
<path d="M317.125 82.6387C315.1 82.6387 313.12 83.2423 311.436 84.3732C309.752 85.5042 308.439 87.1116 307.664 88.9923C306.889 90.8729 306.686 92.9424 307.082 94.9389C307.477 96.9354 308.452 98.7693 309.884 100.209C311.316 101.648 313.141 102.628 315.128 103.025C317.114 103.423 319.173 103.219 321.044 102.44C322.915 101.661 324.515 100.342 325.64 98.649C326.765 96.9565 327.366 94.9666 327.366 92.931C327.366 90.2013 326.287 87.5834 324.366 85.6532C322.446 83.723 319.841 82.6387 317.125 82.6387Z" fill="#713FFF"/>
<path d="M520.344 112.823C518.963 108.236 517.137 103.797 514.891 99.5698L518.289 88.3939L496.346 66.3408L485.215 69.7676C481.024 67.4845 476.609 65.6438 472.04 64.2751L466.587 53.959H435.521L430.056 64.2751C425.489 65.6482 421.074 67.4886 416.881 69.7676L405.761 66.3408L383.795 88.4178L387.193 99.5937C384.937 103.816 383.11 108.256 381.74 112.847L371.464 118.328V149.551L381.728 155.043C383.096 159.631 384.923 164.067 387.181 168.284L383.783 179.448L405.75 201.525L416.869 198.111C421.067 200.382 425.486 202.215 430.056 203.579L435.521 213.907H466.587L472.04 203.591C476.605 202.212 481.019 200.372 485.215 198.099L496.346 201.514L518.313 179.436L514.915 168.261C517.155 164.038 518.973 159.602 520.344 155.019L530.608 149.527V118.304L520.344 112.823ZM451.048 190.517C439.908 190.517 429.019 187.197 419.757 180.977C410.494 174.757 403.275 165.916 399.012 155.572C394.749 145.228 393.634 133.846 395.807 122.866C397.98 111.885 403.345 101.798 411.222 93.8817C419.098 85.9649 429.134 80.5736 440.06 78.3894C450.986 76.2052 462.31 77.3262 472.602 81.6107C482.894 85.8952 491.69 93.1507 497.879 102.46C504.068 111.769 507.371 122.713 507.371 133.909C507.371 141.343 505.914 148.704 503.084 155.572C500.253 162.44 496.105 168.68 490.874 173.937C485.644 179.193 479.435 183.363 472.602 186.208C465.768 189.053 458.444 190.517 451.048 190.517Z" fill="#713FFF"/>
<path d="M451.048 85.2412C441.469 85.2436 432.106 88.1006 424.142 93.451C416.179 98.8014 409.973 106.405 406.308 115.3C402.644 124.195 401.687 133.983 403.557 143.425C405.427 152.867 410.041 161.54 416.815 168.346C423.59 175.153 432.22 179.788 441.615 181.665C451.01 183.543 460.748 182.578 469.598 178.893C478.447 175.209 486.011 168.969 491.333 160.964C496.654 152.959 499.495 143.548 499.495 133.921C499.479 121.013 494.369 108.638 485.287 99.5123C476.204 90.3862 463.891 85.2538 451.048 85.2412ZM451.048 176.117C442.744 176.119 434.625 173.646 427.72 169.011C420.814 164.376 415.431 157.787 412.251 150.077C409.072 142.366 408.239 133.882 409.857 125.696C411.476 117.51 415.474 109.99 421.345 104.088C427.216 98.1854 434.697 94.1654 442.841 92.5363C450.985 90.9072 459.428 91.7421 467.1 94.9355C474.772 98.1288 481.33 103.537 485.944 110.477C490.557 117.416 493.02 125.575 493.02 133.921C493.007 145.106 488.582 155.829 480.713 163.739C472.845 171.65 462.177 176.101 451.048 176.117Z" fill="#713FFF"/>
<path opacity="0.2" d="M451.048 85.2412C441.469 85.2436 432.106 88.1006 424.142 93.451C416.179 98.8014 409.973 106.405 406.308 115.3C402.644 124.195 401.687 133.983 403.557 143.425C405.427 152.867 410.041 161.54 416.815 168.346C423.59 175.153 432.22 179.788 441.615 181.665C451.01 183.543 460.748 182.578 469.598 178.893C478.447 175.209 486.011 168.969 491.333 160.964C496.654 152.959 499.495 143.548 499.495 133.921C499.479 121.013 494.369 108.638 485.287 99.5123C476.204 90.3862 463.891 85.2538 451.048 85.2412ZM451.048 176.117C442.744 176.119 434.625 173.646 427.72 169.011C420.814 164.376 415.431 157.787 412.251 150.077C409.072 142.366 408.239 133.882 409.857 125.696C411.476 117.51 415.474 109.99 421.345 104.088C427.216 98.1854 434.697 94.1654 442.841 92.5363C450.985 90.9072 459.428 91.7421 467.1 94.9355C474.772 98.1288 481.33 103.537 485.944 110.477C490.557 117.416 493.02 125.575 493.02 133.921C493.007 145.106 488.582 155.829 480.713 163.739C472.845 171.65 462.177 176.101 451.048 176.117Z" fill="black"/>
<path d="M339.768 216.975C339.453 216.975 339.151 216.849 338.928 216.626C338.705 216.402 338.58 216.098 338.58 215.781V213.393C338.58 213.077 338.705 212.773 338.928 212.549C339.151 212.325 339.453 212.199 339.768 212.199C340.083 212.199 340.385 212.325 340.608 212.549C340.831 212.773 340.956 213.077 340.956 213.393V215.781C340.956 216.098 340.831 216.402 340.608 216.626C340.385 216.849 340.083 216.975 339.768 216.975Z" fill="#713FFF"/>
<path d="M321.271 186.123C320.18 185.418 319.327 184.398 318.823 183.197C318.699 182.906 318.464 182.676 318.171 182.559C317.879 182.441 317.551 182.446 317.261 182.571C316.971 182.696 316.743 182.931 316.626 183.226C316.509 183.52 316.513 183.849 316.638 184.141C317.335 185.771 318.497 187.159 319.976 188.129C320.167 188.253 320.39 188.319 320.617 188.32C320.875 188.322 321.125 188.24 321.332 188.086C321.539 187.932 321.691 187.715 321.764 187.468C321.838 187.22 321.83 186.955 321.741 186.712C321.652 186.47 321.487 186.263 321.271 186.123Z" fill="#713FFF"/>
<path d="M317.125 171.209C317.44 171.209 317.742 171.083 317.965 170.859C318.187 170.635 318.313 170.332 318.313 170.015V165.442C318.313 165.125 318.187 164.822 317.965 164.598C317.742 164.374 317.44 164.248 317.125 164.248C316.809 164.248 316.507 164.374 316.284 164.598C316.062 164.822 315.937 165.125 315.937 165.442V170.015C315.937 170.332 316.062 170.635 316.284 170.859C316.507 171.083 316.809 171.209 317.125 171.209Z" fill="#713FFF"/>
<path d="M329.492 187.173H324.93C324.615 187.173 324.313 187.299 324.09 187.523C323.867 187.746 323.742 188.05 323.742 188.367C323.742 188.684 323.867 188.987 324.09 189.211C324.313 189.435 324.615 189.561 324.93 189.561H329.492C329.807 189.561 330.109 189.435 330.332 189.211C330.555 188.987 330.68 188.684 330.68 188.367C330.68 188.05 330.555 187.746 330.332 187.523C330.109 187.299 329.807 187.173 329.492 187.173Z" fill="#713FFF"/>
<path d="M318.313 179.173V174.6C318.313 174.284 318.187 173.98 317.965 173.756C317.742 173.532 317.44 173.406 317.125 173.406C316.809 173.406 316.507 173.532 316.284 173.756C316.062 173.98 315.937 174.284 315.937 174.6V179.173C315.937 179.49 316.062 179.794 316.284 180.018C316.507 180.241 316.809 180.367 317.125 180.367C317.44 180.367 317.742 180.241 317.965 180.018C318.187 179.794 318.313 179.49 318.313 179.173Z" fill="#713FFF"/>
<path d="M340.885 194.934C340.844 194.621 340.681 194.337 340.431 194.144C340.182 193.952 339.867 193.867 339.555 193.907C339.4 193.933 339.252 193.99 339.119 194.074C338.986 194.158 338.871 194.267 338.78 194.396C338.69 194.525 338.626 194.67 338.591 194.824C338.557 194.978 338.553 195.137 338.581 195.292C338.618 195.569 338.638 195.849 338.64 196.128V199.71C338.64 200.027 338.765 200.331 338.988 200.555C339.211 200.778 339.513 200.904 339.828 200.904C340.143 200.904 340.445 200.778 340.668 200.555C340.891 200.331 341.016 200.027 341.016 199.71V196.128C340.998 195.728 340.955 195.329 340.885 194.934Z" fill="#713FFF"/>
<path d="M339.768 203.042C339.453 203.042 339.151 203.168 338.928 203.392C338.705 203.616 338.58 203.919 338.58 204.236V208.821C338.58 209.138 338.705 209.441 338.928 209.665C339.151 209.889 339.453 210.015 339.768 210.015C340.083 210.015 340.385 209.889 340.608 209.665C340.831 209.441 340.956 209.138 340.956 208.821V204.236C340.956 203.919 340.831 203.616 340.608 203.392C340.385 203.168 340.083 203.042 339.768 203.042Z" fill="#713FFF"/>
<path d="M338.734 190.194C337.571 188.859 336.036 187.906 334.327 187.46C334.176 187.421 334.018 187.412 333.863 187.434C333.709 187.456 333.56 187.508 333.425 187.588C333.29 187.668 333.173 187.773 333.079 187.899C332.985 188.024 332.917 188.167 332.878 188.319C332.839 188.472 332.83 188.63 332.852 188.785C332.873 188.941 332.926 189.091 333.005 189.226C333.084 189.361 333.19 189.479 333.314 189.574C333.439 189.668 333.582 189.737 333.733 189.776C334.981 190.1 336.103 190.795 336.952 191.77C337.064 191.897 337.201 191.999 337.354 192.069C337.508 192.139 337.675 192.176 337.843 192.176C338.072 192.176 338.295 192.109 338.487 191.985C338.678 191.86 338.83 191.683 338.924 191.474C339.018 191.265 339.051 191.033 339.017 190.806C338.983 190.579 338.885 190.366 338.734 190.194Z" fill="#713FFF"/>
<path d="M317.125 162.004C316.809 162.004 316.507 161.878 316.284 161.654C316.062 161.43 315.937 161.126 315.937 160.81V158.422C315.937 158.105 316.062 157.801 316.284 157.577C316.507 157.353 316.809 157.228 317.125 157.228C317.44 157.228 317.742 157.353 317.965 157.577C318.187 157.801 318.313 158.105 318.313 158.422V160.81C318.313 161.126 318.187 161.43 317.965 161.654C317.742 161.878 317.44 162.004 317.125 162.004Z" fill="#713FFF"/>
<path d="M396.044 277.094H120.975V281.523H396.044V277.094Z" fill="#9898BE"/>
<path d="M396.044 281.523H455.729V277.094H396.044V281.523Z" fill="#9898BE"/>
<path opacity="0.2" d="M396.044 281.523H455.729V277.094H396.044V281.523Z" fill="black"/>
<path d="M435.795 286.264H140.909L131.049 281.523H445.655L435.795 286.264Z" fill="#9898BE"/>
<path opacity="0.6" d="M435.795 286.264H140.909L131.049 281.523H445.655L435.795 286.264Z" fill="white"/>
<path d="M149.819 286.264V427.562H153.597L158.349 286.264H149.819Z" fill="#9898BE"/>
<path d="M194.417 286.264V427.562H198.195L202.947 286.264H194.417Z" fill="#9898BE"/>
<path d="M435.794 286.264V427.562H432.029L427.265 286.264H435.794Z" fill="#9898BE"/>
<path d="M391.209 286.264V427.562H387.431L382.679 286.264H391.209Z" fill="#9898BE"/>
<path d="M301.444 223.459L289.029 274.288L288.685 277.093H374.316L374.672 274.288L387.075 223.459H301.444Z" fill="#9898BE"/>
<path opacity="0.3" d="M301.444 223.459L289.029 274.288L288.685 277.093H374.316L374.672 274.288L387.075 223.459H301.444Z" fill="black"/>
<path d="M384.449 223.459H298.806L286.403 274.288H372.034L384.449 223.459Z" fill="#9898BE"/>
<path d="M370.217 271.959L381.503 225.787H300.624L289.35 271.959H370.217Z" fill="white"/>
<path d="M349.724 274.287L349.368 277.093H255.076L255.421 274.287H349.724Z" fill="#9898BE"/>
<path opacity="0.6" d="M349.724 274.287L349.368 277.093H255.076L255.421 274.287H349.724Z" fill="white"/>
<path d="M171.595 267.851C171.536 266.033 170.827 264.296 169.599 262.959C168.371 261.622 166.706 260.773 164.907 260.568V259.195C164.905 259.115 164.888 259.037 164.856 258.965C164.824 258.892 164.778 258.826 164.72 258.772C164.663 258.717 164.595 258.675 164.521 258.647C164.447 258.619 164.368 258.607 164.289 258.61H151.459C151.379 258.607 151.3 258.619 151.225 258.647C151.15 258.675 151.082 258.717 151.023 258.771C150.965 258.826 150.918 258.891 150.884 258.964C150.851 259.036 150.832 259.115 150.829 259.195V277.105H164.907V275.147C166.709 274.944 168.377 274.094 169.606 272.754C170.834 271.414 171.541 269.673 171.595 267.851ZM164.907 272.83V262.884C166.094 263.06 167.179 263.659 167.963 264.572C168.748 265.485 169.179 266.651 169.179 267.857C169.179 269.064 168.748 270.23 167.963 271.142C167.179 272.055 166.094 272.655 164.907 272.83Z" fill="#9898BE"/>
<path d="M411.714 277.093H423.641L420.113 250.837H411.714V277.093Z" fill="#263238"/>
<path d="M394.227 277.094H416.822L421.016 246.36H398.432L394.227 277.094Z" fill="#9898BE"/>
<path opacity="0.3" d="M394.227 277.094H416.822L421.016 246.36H398.432L394.227 277.094Z" fill="black"/>
<path d="M391.209 277.094H414.72L418.925 246.36H395.415L391.209 277.094Z" fill="#9898BE"/>
<path opacity="0.4" d="M412.64 274.669L416.181 248.783H397.493L393.953 274.669H412.64Z" fill="white"/>
<path d="M234.678 231.721L233.704 232.772L232.658 233.966C231.957 234.778 231.256 235.602 230.591 236.45C229.261 238.145 227.978 239.876 226.778 241.655C224.39 245.096 222.398 248.797 220.838 252.688C220.111 254.537 219.547 256.447 219.151 258.395C218.961 259.494 218.842 259.971 218.782 260.437C218.717 260.808 218.717 261.188 218.782 261.559C218.982 262.143 219.294 262.681 219.702 263.142C220.11 263.604 220.605 263.979 221.158 264.246C221.96 264.743 222.803 265.17 223.677 265.524C224.136 265.715 224.612 265.894 225.103 266.061C225.554 266.228 226.124 266.395 226.481 266.538V273.117C225.649 273.237 225.043 273.332 224.342 273.38C223.641 273.428 222.964 273.44 222.263 273.38C220.822 273.351 219.388 273.167 217.986 272.831C216.407 272.458 214.893 271.846 213.496 271.016C211.853 270.05 210.442 268.734 209.362 267.159C208.249 265.484 207.511 263.585 207.199 261.595C207.12 261.129 207.068 260.659 207.045 260.186C207.021 259.733 207.021 259.279 207.045 258.825V258.157C207.032 257.978 207.032 257.798 207.045 257.619L207.14 256.569C207.444 253.84 208.017 251.148 208.851 248.533C210.46 243.51 212.725 238.724 215.587 234.3C216.962 232.128 218.457 230.036 220.065 228.032C220.861 227.029 221.681 226.05 222.537 225.083C222.952 224.593 223.392 224.116 223.843 223.638C224.295 223.16 224.711 222.743 225.328 222.146L234.678 231.721Z" fill="#B55B52"/>
<path d="M224.116 266.395L229.652 262.312L232.801 273.75C232.801 273.75 227.894 275.577 224.152 273.117L224.116 266.395Z" fill="#B55B52"/>
<path d="M237.339 259.565L239.501 269.141L232.801 273.75L229.652 262.312L237.339 259.565Z" fill="#B55B52"/>
<path d="M272.349 187.829C272.1 188.534 272.278 189.238 272.741 189.393C273.205 189.549 273.775 189.119 274.012 188.414C274.25 187.71 274.084 186.993 273.632 186.838C273.181 186.683 272.599 187.113 272.349 187.829Z" fill="#263238"/>
<path d="M272.219 189.215C272.311 191.674 272.739 194.108 273.49 196.45C272.891 196.623 272.263 196.663 271.648 196.568C271.033 196.473 270.445 196.246 269.926 195.901L272.219 189.215Z" fill="#A02724"/>
<path d="M271.209 183.03C271.297 183.06 271.393 183.06 271.482 183.03C272.003 182.855 272.558 182.808 273.102 182.891C273.645 182.974 274.161 183.185 274.606 183.508C274.696 183.573 274.806 183.602 274.916 183.589C275.026 183.576 275.126 183.522 275.198 183.438C275.27 183.353 275.308 183.245 275.304 183.134C275.3 183.023 275.254 182.918 275.177 182.839C274.619 182.421 273.97 182.144 273.284 182.03C272.598 181.915 271.894 181.968 271.233 182.182C271.146 182.212 271.071 182.269 271.017 182.344C270.964 182.418 270.936 182.508 270.936 182.6C270.936 182.692 270.964 182.782 271.017 182.857C271.071 182.932 271.146 182.988 271.233 183.018L271.209 183.03Z" fill="#263238"/>
<path d="M246.297 190.433C247.627 197.226 248.946 209.68 244.218 214.217C244.218 214.217 246.071 221.106 258.64 221.106C272.457 221.106 265.245 214.217 265.245 214.217C257.702 212.402 257.892 206.778 259.21 201.501L246.297 190.433Z" fill="#B55B52"/>
<path d="M242.412 216.582C241.414 214.396 240.333 211.901 242.578 211.125C245.061 210.265 258.652 209.382 263.333 210.994C263.952 211.163 264.531 211.454 265.036 211.851C265.541 212.248 265.963 212.742 266.276 213.305C266.589 213.867 266.787 214.487 266.859 215.128C266.931 215.768 266.875 216.417 266.695 217.035L242.412 216.582Z" fill="#263238"/>
<path d="M289.873 228.234C292.783 233.5 295.908 238.921 299.068 244.127C302.228 249.332 305.542 254.514 309.083 259.243C309.962 260.437 310.877 261.571 311.779 262.705C312.231 263.29 312.706 263.768 313.169 264.305L313.858 265.093L314.037 265.296L314.12 265.392L314.203 265.499C314.756 266.037 315.422 266.445 316.151 266.693C317.274 267.086 318.432 267.37 319.608 267.541C325.383 268.127 331.205 268.059 336.965 267.338L338.771 273.666C337.167 274.382 335.67 274.86 334.078 275.457C332.486 276.054 330.918 276.448 329.326 276.854C325.952 277.705 322.493 278.169 319.014 278.239C317.062 278.271 315.112 278.074 313.205 277.654C310.864 277.187 308.656 276.199 306.742 274.765L305.946 274.108L305.756 273.941L305.637 273.821L305.412 273.594L304.485 272.675C303.879 272.066 303.214 271.481 302.667 270.836C301.479 269.583 300.363 268.329 299.329 267.039C295.179 261.998 291.35 256.698 287.865 251.171C286.131 248.449 284.459 245.699 282.852 242.921C281.236 240.115 279.68 237.368 278.171 234.407L289.873 228.234Z" fill="#B55B52"/>
<path d="M227.669 216.318C218.996 218.312 209.064 242.061 209.064 242.061L226.469 254.001C230.797 247.762 234.638 241.195 237.957 234.36C243.101 223.542 236.531 214.277 227.669 216.318Z" fill="#407BFF"/>
<path opacity="0.2" d="M233.87 231.458L225.649 253.475L226.457 254.048C226.457 254.048 230.021 249.022 233.87 242.24V231.458Z" fill="black"/>
<path d="M279.466 216.784C279.466 216.784 289.302 227.96 280.012 297.092H230.556C230.223 289.463 234.987 252.257 227.669 216.306C233.134 215.248 238.662 214.546 244.218 214.205C251.221 213.792 258.242 213.792 265.245 214.205C270.045 214.69 274.8 215.553 279.466 216.784Z" fill="#407BFF"/>
<path opacity="0.2" d="M273.965 236.783C275.255 244.63 278.629 251.981 283.73 258.06C283.932 253.607 284.015 249.607 284.003 246.037L273.965 236.783Z" fill="black"/>
<path d="M269.676 224.33C268.488 233.13 285.714 255.601 285.714 255.601L303.047 243.661C303.047 243.661 298.235 231.28 290.145 223.16C280.926 213.847 271.03 214.755 269.676 224.33Z" fill="#407BFF"/>
<path d="M335.017 267.398L342.073 264.484L349.332 270.001C349.332 270.001 342.406 276.162 336.11 273.762L335.017 267.398Z" fill="#B55B52"/>
<path d="M346.73 264.198L352.052 268.019L349.296 270.001L342.037 264.485L346.73 264.198Z" fill="#B55B52"/>
<path d="M249.373 178.11C246.902 186.994 245.001 192.068 247.829 198.05C252.07 207.065 264.128 206.814 269.213 198.862C273.774 191.698 277.053 178.373 269.783 171.961C268.187 170.536 266.254 169.545 264.17 169.082C262.085 168.619 259.917 168.699 257.872 169.315C255.827 169.931 253.972 171.063 252.485 172.602C250.997 174.142 249.926 176.038 249.373 178.11Z" fill="#B55B52"/>
<path d="M268.192 178.206C264.628 188.403 260.434 199.602 250.194 197.477C243.588 196.104 243.066 185.418 240.69 180.558C238.587 176.296 238.717 167.723 243.066 167.615C241.117 164.773 250.966 154.374 257.69 159.866C259.412 157.478 271.827 150.445 281.022 161.609C289.683 172.164 285.441 180.964 268.192 178.206Z" fill="#263238"/>
<path d="M260.172 184.726C259.934 187.003 260.443 189.297 261.622 191.257C263.202 193.812 265.518 192.833 266.374 190.218C267.134 187.83 267.217 183.711 265.019 182.051C262.822 180.391 260.505 181.979 260.172 184.726Z" fill="#B55B52"/>
<path d="M336.062 420.815C337.25 420.815 338.438 420.648 338.783 420.11C338.881 419.968 338.933 419.8 338.933 419.627C338.933 419.454 338.881 419.285 338.783 419.143C338.625 418.892 338.379 418.709 338.094 418.63C336.549 418.212 333.342 420.063 333.187 420.146C333.147 420.166 333.114 420.2 333.095 420.241C333.075 420.282 333.07 420.329 333.08 420.373C333.088 420.416 333.108 420.455 333.137 420.487C333.167 420.519 333.205 420.541 333.247 420.552C334.176 420.722 335.118 420.81 336.062 420.815ZM337.535 419.012C337.673 418.992 337.813 418.992 337.951 419.012C338.041 419.029 338.126 419.065 338.2 419.119C338.273 419.172 338.335 419.242 338.379 419.322C338.533 419.597 338.486 419.728 338.379 419.8C337.951 420.409 335.611 420.421 333.888 420.17C335.018 419.55 336.256 419.156 337.535 419.012Z" fill="#407BFF"/>
<path d="M333.27 420.552H333.365C334.481 420.05 336.691 418.044 336.513 416.97C336.513 416.719 336.299 416.42 335.705 416.349C335.492 416.33 335.277 416.354 335.073 416.42C334.869 416.486 334.68 416.591 334.517 416.731C333.329 417.698 333.091 420.205 333.08 420.313C333.075 420.351 333.081 420.39 333.095 420.425C333.11 420.461 333.133 420.492 333.163 420.516C333.196 420.535 333.232 420.547 333.27 420.552ZM335.527 416.791H335.658C336.05 416.791 336.073 416.994 336.085 417.041C336.192 417.674 334.683 419.25 333.543 419.931C333.638 418.88 334.052 417.883 334.731 417.077C334.952 416.887 335.236 416.785 335.527 416.791Z" fill="#407BFF"/>
<path d="M322.519 420.337H331.761L333.864 398.81H324.621L322.519 420.337Z" fill="#B55B52"/>
<path d="M332.284 419.263H322.198C322.012 419.264 321.832 419.328 321.687 419.445C321.543 419.562 321.442 419.725 321.402 419.907L319.572 428.122C319.525 428.322 319.524 428.531 319.569 428.731C319.615 428.932 319.705 429.119 319.833 429.279C319.962 429.44 320.125 429.568 320.31 429.655C320.495 429.742 320.698 429.786 320.903 429.782C324.538 429.722 329.801 429.507 334.375 429.507C339.733 429.507 344.354 429.794 350.627 429.794C354.428 429.794 355.485 425.937 353.894 425.591C346.659 424.003 340.754 423.836 334.505 419.955C333.842 419.523 333.074 419.283 332.284 419.263Z" fill="#263238"/>
<path opacity="0.2" d="M333.852 398.821L332.783 409.914H323.528L324.609 398.821H333.852Z" fill="black"/>
<path d="M299.008 420.803C299.4 420.855 299.799 420.827 300.18 420.723C300.561 420.618 300.918 420.439 301.23 420.194C301.339 420.043 301.398 419.861 301.398 419.675C301.398 419.488 301.339 419.306 301.23 419.155C301.16 419.024 301.061 418.91 300.942 418.822C300.823 418.733 300.686 418.672 300.541 418.642C299.186 418.32 296.632 420.075 296.525 420.146C296.491 420.173 296.465 420.208 296.448 420.247C296.432 420.287 296.425 420.331 296.43 420.373C296.439 420.414 296.459 420.452 296.489 420.482C296.518 420.512 296.556 420.532 296.597 420.54C297.389 420.714 298.197 420.802 299.008 420.803ZM300.196 419.036C300.283 419.024 300.371 419.024 300.458 419.036C300.543 419.049 300.624 419.081 300.694 419.131C300.764 419.181 300.821 419.246 300.862 419.323C301.064 419.693 300.945 419.836 300.862 419.896C300.47 420.409 298.581 420.421 297.191 420.194C298.085 419.586 299.104 419.19 300.173 419.036H300.196Z" fill="#407BFF"/>
<path d="M296.655 420.552H296.75C297.713 420.027 299.566 417.997 299.364 416.97C299.334 416.805 299.247 416.657 299.119 416.55C298.991 416.443 298.83 416.385 298.663 416.385C298.497 416.364 298.329 416.379 298.169 416.429C298.01 416.478 297.862 416.561 297.737 416.671C296.667 417.555 296.442 420.253 296.43 420.349C296.429 420.389 296.439 420.429 296.457 420.464C296.476 420.5 296.503 420.53 296.537 420.552C296.575 420.564 296.617 420.564 296.655 420.552ZM298.521 416.791H298.616C298.901 416.791 298.925 416.958 298.936 417.018C299.055 417.627 297.867 419.167 296.917 419.895C296.981 418.836 297.362 417.82 298.01 416.982C298.152 416.859 298.333 416.791 298.521 416.791Z" fill="#407BFF"/>
<path d="M286.059 420.337H295.301L299.946 398.81H290.704L286.059 420.337Z" fill="#B55B52"/>
<path d="M295.955 419.262H285.571C285.387 419.264 285.209 419.328 285.066 419.446C284.924 419.563 284.825 419.726 284.787 419.907L282.958 428.122C282.915 428.323 282.918 428.532 282.966 428.733C283.015 428.933 283.107 429.12 283.238 429.279C283.368 429.439 283.532 429.567 283.718 429.654C283.904 429.74 284.107 429.784 284.312 429.781C287.936 429.722 289.706 429.507 294.268 429.507C297.083 429.507 300.683 429.793 304.568 429.793C308.452 429.793 308.951 425.937 307.359 425.59C300.231 424.026 299.744 421.865 297.463 419.8C297.043 419.441 296.506 419.25 295.955 419.262Z" fill="#263238"/>
<g opacity="0.2">
<path d="M290.704 398.821H299.947L297.547 409.914H288.305L290.704 398.821Z" fill="black"/>
</g>
<path d="M280.012 297.104C280.012 297.104 349.273 304.471 348.512 339.981C348.022 362.282 343.755 384.336 335.896 405.197H322.163C322.163 405.197 322.864 382.667 322.4 346.309C322.258 335.408 300.363 331.814 278.967 330.548C269.907 329.976 261.186 326.87 253.788 321.581C246.391 316.291 240.611 309.03 237.102 300.615L235.641 297.104H280.012Z" fill="#263238"/>
<path d="M339.258 401.496C339.329 401.496 338.367 408.027 338.367 408.027H319.359L318.836 402.201L339.258 401.496Z" fill="#407BFF"/>
<path d="M265.186 297.104C265.186 297.104 315.391 313.821 316.662 334.548C319.038 372.685 300.374 405.197 300.374 405.197H286.51C286.51 405.197 291.773 389.078 293.638 354.524C296.014 311.122 215.432 354.452 230.532 297.104H265.186Z" fill="#263238"/>
<path d="M304.568 401.496C304.639 401.496 302.821 408.027 302.821 408.027H283.813L284.158 402.201L304.568 401.496Z" fill="#407BFF"/>
<path d="M301.396 333.665H224.176C224.176 331.315 225.104 329.062 226.758 327.401C228.411 325.739 230.653 324.806 232.991 324.806H292.581C294.919 324.806 297.161 325.739 298.814 327.401C300.467 329.062 301.396 331.315 301.396 333.665Z" fill="#407BFF"/>
<path d="M227.752 333.653L216.109 431.752H218.604L233.371 333.653H227.752Z" fill="#407BFF"/>
<path opacity="0.4" d="M227.752 333.653L216.109 431.752H218.604L233.371 333.653H227.752Z" fill="black"/>
<path d="M243.326 333.653L243.101 431.752H245.584L248.946 333.653H243.326Z" fill="#407BFF"/>
<path opacity="0.4" d="M243.326 333.653L243.101 431.752H245.584L248.946 333.653H243.326Z" fill="black"/>
<path d="M297.82 333.653L309.463 431.752H306.968L292.213 333.653H297.82Z" fill="#407BFF"/>
<path opacity="0.4" d="M297.82 333.653L309.463 431.752H306.968L292.213 333.653H297.82Z" fill="black"/>
<path d="M282.245 333.653L282.471 431.752H279.988L276.626 333.653H282.245Z" fill="#407BFF"/>
<path opacity="0.4" d="M282.245 333.653L282.471 431.752H279.988L276.626 333.653H282.245Z" fill="black"/>
</svg>
