<svg width="207" height="205" viewBox="0 0 207 205" fill="none" xmlns="http://www.w3.org/2000/svg">
<path d="M132.644 102.748C112.257 102.555 93.8088 102.38 80.4364 102.253C73.7653 102.221 68.3652 102.195 64.615 102.177C62.7571 102.181 61.3113 102.185 60.3132 102.187C59.8315 102.193 59.4602 102.198 59.1946 102.202C58.9425 102.208 58.8135 102.215 58.8135 102.223C58.8135 102.23 58.9425 102.238 59.1946 102.247C59.4606 102.253 59.8315 102.262 60.3132 102.273C61.3113 102.285 62.7571 102.304 64.6146 102.327C68.3644 102.347 73.7649 102.375 80.436 102.411C93.8092 102.42 112.258 102.431 132.645 102.444C153.022 102.442 171.475 102.468 184.833 102.566C191.512 102.613 196.918 102.675 200.653 102.747C202.521 102.782 203.971 102.819 204.955 102.857C205.938 102.895 206.454 102.933 206.454 102.969C206.454 103.005 205.938 103.038 204.954 103.066C203.97 103.093 202.52 103.116 200.652 103.133C196.915 103.166 191.509 103.174 184.83 103.154C171.471 103.116 153.02 102.956 132.644 102.748Z" fill="#EBEBEB"/>
<path d="M132.241 107.284C112.133 103.967 93.9369 100.965 80.7475 98.7893C74.1625 97.7361 68.8316 96.8835 65.1298 96.2915C63.294 96.0114 61.8651 95.7937 60.8785 95.6435C60.4015 95.5764 60.034 95.5247 59.7709 95.4877C59.5209 95.4555 59.3923 95.4428 59.3906 95.4504C59.3894 95.458 59.5154 95.4865 59.7632 95.5336C60.0251 95.5807 60.39 95.6465 60.8636 95.7318C61.8477 95.8973 63.2728 96.137 65.1044 96.4451C68.8057 97.0401 74.1358 97.8965 80.7199 98.9544C93.9293 101.011 112.153 103.848 132.291 106.984C152.421 110.102 170.646 112.954 183.827 115.097C190.417 116.167 195.747 117.058 199.426 117.701C201.266 118.023 202.692 118.283 203.657 118.471C204.623 118.66 205.127 118.777 205.121 118.813C205.115 118.85 204.599 118.803 203.623 118.68C202.647 118.558 201.21 118.358 199.362 118.088C195.666 117.549 190.324 116.729 183.729 115.686C170.539 113.602 152.337 110.614 132.241 107.284Z" fill="#EBEBEB"/>
<path d="M131.115 111.702C111.788 105.303 94.2985 99.5122 81.6209 95.3147C75.2863 93.2523 70.1582 91.5824 66.5969 90.4226C64.8285 89.8612 63.4523 89.4245 62.5017 89.1228C62.0413 88.9827 61.6869 88.8745 61.4327 88.7973C61.1908 88.7264 61.0661 88.6941 61.0635 88.7018C61.061 88.7094 61.1811 88.757 61.4179 88.8423C61.6687 88.9297 62.0188 89.051 62.4733 89.2093C63.4188 89.5259 64.7874 89.9838 66.5468 90.5728C70.1073 91.7352 75.2337 93.4089 81.567 95.4764C94.2832 99.558 111.827 105.189 131.213 111.412C150.594 117.616 168.136 123.262 180.81 127.426C187.147 129.507 192.268 131.214 195.799 132.422C197.564 133.025 198.931 133.503 199.854 133.84C200.777 134.176 201.256 134.371 201.245 134.406C201.233 134.441 200.731 134.316 199.786 134.043C198.842 133.771 197.454 133.351 195.673 132.798C192.108 131.692 186.964 130.053 180.618 127.998C167.925 123.891 150.427 118.114 131.115 111.702Z" fill="#EBEBEB"/>
<path d="M129.298 115.886C111.232 106.569 94.8831 98.1375 83.033 92.0261C77.1062 89.0059 72.3083 86.5611 68.977 84.8636C67.3202 84.0344 66.0306 83.3894 65.1411 82.9442C64.7086 82.7341 64.3759 82.572 64.1374 82.4562C63.91 82.3488 63.792 82.297 63.7882 82.3038C63.7844 82.311 63.8955 82.3764 64.1158 82.4973C64.3492 82.6221 64.676 82.7965 65.0995 83.0231C65.9822 83.4819 67.2612 84.1469 68.9048 85.0011C72.2349 86.7011 77.0311 89.1493 82.9557 92.1738C94.8619 98.1787 111.288 106.464 129.438 115.619C147.587 124.755 164.01 133.054 175.861 139.132C181.788 142.17 186.573 144.651 189.867 146.39C191.514 147.259 192.788 147.943 193.646 148.418C194.504 148.893 194.947 149.159 194.93 149.191C194.913 149.224 194.437 149.022 193.548 148.605C192.659 148.189 191.357 147.559 189.685 146.736C186.343 145.09 181.524 142.672 175.585 139.658C163.706 133.633 147.347 125.213 129.298 115.886Z" fill="#EBEBEB"/>
<path d="M126.849 119.739C110.482 107.751 95.6712 96.9031 84.935 89.04C79.5599 85.1434 75.2089 81.9891 72.1874 79.7985C70.6825 78.724 69.5113 77.8884 68.7024 77.3108C68.309 77.0367 68.0056 76.8258 67.7888 76.6743C67.5812 76.5329 67.4726 76.4638 67.4679 76.4701C67.4633 76.4765 67.5626 76.558 67.7612 76.7116C67.9725 76.8712 68.267 77.0935 68.6494 77.3825C69.4489 77.972 70.6066 78.8258 72.0948 79.9228C75.1151 82.1155 79.4636 85.2728 84.8361 89.1732C95.6444 96.9396 110.555 107.655 127.032 119.494C143.51 131.316 158.414 142.045 169.157 149.875C174.529 153.79 178.862 156.977 181.84 159.203C183.329 160.316 184.479 161.188 185.251 161.789C186.023 162.391 186.418 162.721 186.396 162.751C186.374 162.781 185.936 162.507 185.124 161.96C184.312 161.411 183.125 160.588 181.605 159.518C178.564 157.377 174.188 154.247 168.8 150.354C158.021 142.571 143.199 131.733 126.849 119.739Z" fill="#EBEBEB"/>
<path d="M123.812 123.167C109.534 108.815 96.6145 95.827 87.2491 86.4128C82.5543 81.7392 78.7532 77.9555 76.114 75.3282C74.7968 74.036 73.7719 73.0307 73.0641 72.3364C72.7186 72.005 72.4526 71.7499 72.2616 71.5675C72.0791 71.396 71.9824 71.3111 71.9769 71.3167C71.9709 71.3222 72.0566 71.4181 72.2285 71.6001C72.4118 71.7903 72.6682 72.0551 73.0004 72.3988C73.6972 73.1037 74.7064 74.1247 76.0033 75.4364C78.6407 78.0654 82.4389 81.8517 87.1307 86.5282C96.5823 95.858 109.621 108.73 124.031 122.953C138.443 137.159 151.474 150.043 160.851 159.426C165.541 164.116 169.318 167.93 171.908 170.585C173.204 171.912 174.203 172.95 174.871 173.663C175.539 174.375 175.876 174.762 175.85 174.788C175.824 174.814 175.435 174.477 174.719 173.811C174.003 173.145 172.96 172.15 171.627 170.859C168.961 168.278 165.133 164.514 160.424 159.843C151.004 150.502 138.071 137.522 123.812 123.167Z" fill="#EBEBEB"/>
<path d="M120.274 126.087C108.434 109.719 97.7191 94.9078 89.9531 84.1716C86.0523 78.8347 82.8946 74.5142 80.7018 71.5144C79.6044 70.0359 78.7506 68.8858 78.1607 68.0914C77.8717 67.7111 77.6489 67.4183 77.4894 67.2087C77.3362 67.0114 77.2543 66.9125 77.2475 66.9172C77.2411 66.9218 77.3099 67.0296 77.4512 67.2359C77.6023 67.4514 77.8132 67.7523 78.0873 68.1436C78.6644 68.9469 79.5005 70.1101 80.5745 71.6047C82.7651 74.6063 85.9199 78.929 89.8169 84.2684C97.6818 94.9345 108.532 109.649 120.523 125.91C132.52 142.153 143.36 156.879 151.143 167.586C155.035 172.938 158.166 177.285 160.306 180.306C161.376 181.816 162.199 182.994 162.746 183.801C163.294 184.607 163.566 185.041 163.536 185.063C163.506 185.084 163.175 184.692 162.573 183.924C161.971 183.156 161.098 182.014 159.984 180.534C157.758 177.575 154.569 173.27 150.654 167.933C142.823 157.261 132.094 142.455 120.274 126.087Z" fill="#EBEBEB"/>
<path d="M116.314 128.431C107.215 110.439 98.9811 94.158 93.0128 82.3562C90.0061 76.4834 87.5719 71.7296 85.8817 68.428C85.0321 66.7988 84.3709 65.5308 83.9143 64.6553C83.6889 64.2352 83.5154 63.9118 83.391 63.6801C83.2705 63.4616 83.2052 63.3517 83.1979 63.3551C83.1907 63.3589 83.2417 63.476 83.3486 63.7013C83.4636 63.9377 83.6244 64.2675 83.8328 64.6961C84.2754 65.5783 84.9166 66.8561 85.7403 68.4984C87.4281 71.8009 89.8584 76.5568 92.8609 82.4318C98.9383 94.1792 107.323 110.386 116.588 128.295C125.863 146.187 134.236 162.404 140.226 174.179C143.222 180.067 145.624 184.842 147.259 188.156C148.076 189.812 148.702 191.103 149.115 191.984C149.528 192.865 149.728 193.336 149.695 193.352C149.661 193.369 149.396 192.931 148.923 192.079C148.45 191.228 147.769 189.965 146.904 188.332C145.173 185.067 142.707 180.323 139.686 174.448C133.642 162.7 125.394 146.421 116.314 128.431Z" fill="#EBEBEB"/>
<path d="M112.046 130.13C105.931 110.95 100.398 93.5935 96.3869 81.0126C94.3542 74.7468 92.7089 69.6739 91.5665 66.1516C90.9873 64.4109 90.5366 63.0563 90.2251 62.121C90.0693 61.6711 89.9497 61.3248 89.8635 61.0766C89.7795 60.8423 89.7328 60.7231 89.7248 60.7256C89.7171 60.7282 89.7485 60.8517 89.8181 61.091C89.8941 61.3422 90.0002 61.6932 90.1377 62.1485C90.4339 63.0885 90.8629 64.4499 91.4142 66.1996C92.554 69.7227 94.1955 74.7965 96.2227 81.064C100.351 93.608 106.046 110.914 112.339 130.037C118.644 149.146 124.326 166.459 128.362 179.018C130.382 185.296 131.992 190.385 133.077 193.911C133.62 195.674 134.032 197.046 134.299 197.98C134.566 198.914 134.688 199.41 134.652 199.421C134.617 199.432 134.425 198.958 134.093 198.045C133.762 197.131 133.291 195.778 132.696 194.031C131.508 190.538 129.829 185.47 127.783 179.2C123.691 166.66 118.142 149.304 112.046 130.13Z" fill="#EBEBEB"/>
<path d="M107.545 131.143C104.566 111.253 101.87 93.2544 99.9162 80.2076C98.9087 73.7041 98.0935 68.4394 97.5274 64.7838C97.2333 62.9748 97.0041 61.5671 96.8463 60.5953C96.7644 60.1268 96.7016 59.7665 96.6562 59.5081C96.6108 59.2636 96.5832 59.1389 96.5755 59.1401C96.5679 59.1414 96.5794 59.2683 96.6099 59.5153C96.6447 59.7754 96.6935 60.1378 96.7567 60.6089C96.8993 61.5832 97.106 62.9943 97.3716 64.8076C97.9352 68.464 98.7466 73.7291 99.749 80.233C101.824 93.2612 104.687 111.235 107.849 131.097C111.027 150.946 113.875 168.926 115.857 181.953C116.85 188.467 117.628 193.743 118.138 197.393C118.393 199.218 118.58 200.637 118.695 201.6C118.81 202.564 118.852 203.073 118.815 203.079C118.778 203.084 118.664 202.586 118.483 201.633C118.301 200.679 118.052 199.269 117.745 197.452C117.129 193.818 116.279 188.553 115.259 182.043C113.217 169.024 110.506 151.024 107.545 131.143Z" fill="#EBEBEB"/>
<path d="M102.938 131.452C103.121 111.348 103.287 93.1546 103.408 79.9668C103.436 73.3882 103.459 68.0624 103.474 64.3644C103.469 62.5324 103.465 61.1065 103.462 60.1224C103.455 59.6471 103.449 59.2813 103.446 59.0191C103.439 58.7704 103.432 58.6431 103.425 58.6431C103.417 58.6431 103.409 58.7704 103.4 59.0186C103.394 59.2809 103.385 59.6467 103.374 60.1216C103.362 61.1057 103.345 62.5316 103.323 64.3636C103.305 68.062 103.279 73.3874 103.247 79.966C103.247 93.1541 103.246 111.348 103.246 131.453C103.261 151.548 103.245 169.746 103.154 182.919C103.11 189.506 103.05 194.837 102.98 198.521C102.946 200.363 102.909 201.793 102.871 202.763C102.833 203.732 102.795 204.242 102.759 204.242C102.722 204.242 102.688 203.732 102.66 202.762C102.631 201.792 102.607 200.361 102.589 198.519C102.553 194.835 102.542 189.503 102.558 182.917C102.588 169.744 102.739 151.547 102.938 131.452Z" fill="#EBEBEB"/>
<path d="M98.339 131.057C101.69 111.225 104.722 93.2784 106.92 80.2693C107.984 73.7748 108.845 68.5172 109.443 64.8664C109.725 63.0556 109.945 61.6463 110.097 60.6736C110.165 60.203 110.217 59.841 110.254 59.5813C110.287 59.3347 110.3 59.2078 110.292 59.2066C110.284 59.2053 110.256 59.3296 110.208 59.5736C110.16 59.8317 110.094 60.1915 110.007 60.6592C109.84 61.6297 109.598 63.0352 109.287 64.8413C108.686 68.4918 107.821 73.7489 106.752 80.2426C104.675 93.2703 101.809 111.244 98.6428 131.105C95.4936 150.959 92.6129 168.933 90.4478 181.933C89.3665 188.433 88.4668 193.69 87.8167 197.318C87.4916 199.132 87.2294 200.539 87.0388 201.492C86.8483 202.444 86.7299 202.941 86.693 202.935C86.656 202.929 86.7027 202.421 86.8266 201.458C86.9506 200.495 87.1521 199.078 87.4241 197.255C87.9686 193.61 88.7966 188.342 89.8507 181.837C91.956 168.829 94.9741 150.876 98.339 131.057Z" fill="#EBEBEB"/>
<path d="M93.8598 129.952C100.337 110.889 106.198 93.6373 110.446 81.1324C112.533 74.8843 114.223 69.8258 115.397 66.3133C115.965 64.5692 116.407 63.2116 116.712 62.2742C116.854 61.8201 116.963 61.4704 117.041 61.2196C117.113 60.9811 117.146 60.8581 117.138 60.8555C117.131 60.853 117.082 60.9714 116.996 61.2052C116.908 61.4526 116.784 61.798 116.625 62.2462C116.304 63.1789 115.841 64.5289 115.245 66.2641C114.068 69.7758 112.374 74.833 110.282 81.0793C106.151 93.6224 100.452 110.927 94.1543 130.049C87.8749 149.166 82.1608 166.469 77.9468 178.97C75.8411 185.221 74.1126 190.272 72.8904 193.754C72.2797 195.495 71.7955 196.844 71.4552 197.755C71.1148 198.666 70.9179 199.138 70.8819 199.126C70.8462 199.115 70.9731 198.619 71.2485 197.688C71.5244 196.756 71.9492 195.388 72.5089 193.63C73.628 190.115 75.2868 185.041 77.3662 178.782C81.5234 166.261 87.3712 149.001 93.8598 129.952Z" fill="#EBEBEB"/>
<path d="M89.6169 128.166C99.0532 110.344 107.593 94.2163 113.783 82.5261C116.842 76.6796 119.318 71.9466 121.037 68.6599C121.877 67.0252 122.53 65.7533 122.981 64.8757C123.194 64.4492 123.358 64.1208 123.475 63.8857C123.584 63.6616 123.636 63.5449 123.629 63.5411C123.622 63.5377 123.556 63.6472 123.433 63.8645C123.307 64.0949 123.13 64.417 122.901 64.835C122.436 65.7058 121.763 66.9675 120.897 68.589C119.176 71.874 116.696 76.6053 113.632 82.4498C107.551 94.1946 99.1602 110.399 89.8881 128.304C80.6347 146.208 72.23 162.408 66.0741 174.1C62.997 179.946 60.4852 184.667 58.7236 187.916C57.843 189.541 57.15 190.798 56.6692 191.644C56.1884 192.491 55.9189 192.927 55.8863 192.91C55.8532 192.893 56.0581 192.424 56.4795 191.548C56.9014 190.671 57.5396 189.386 58.3731 187.737C60.04 184.44 62.4882 179.687 65.5407 173.828C71.6431 162.11 80.1713 145.972 89.6169 128.166Z" fill="#EBEBEB"/>
<path d="M85.7011 125.746C97.8465 109.598 108.838 94.9849 116.804 84.3931C120.752 79.0901 123.948 74.7968 126.168 71.816C127.256 70.3311 128.103 69.176 128.688 68.3782C128.966 67.9899 129.179 67.6907 129.333 67.4764C129.476 67.2719 129.546 67.1645 129.54 67.1598C129.533 67.1552 129.451 67.2532 129.295 67.4488C129.134 67.6572 128.908 67.9479 128.616 68.3251C128.018 69.1141 127.154 70.2565 126.042 71.7244C123.821 74.7039 120.622 78.9947 116.67 84.2951C108.801 94.9582 97.9454 109.669 85.9493 125.926C73.9723 142.183 63.1025 156.889 55.1689 167.488C51.2031 172.788 47.9733 177.063 45.7182 180.001C44.5906 181.469 43.7071 182.605 43.0977 183.366C42.4883 184.129 42.153 184.518 42.1233 184.496C42.0932 184.474 42.3699 184.043 42.9254 183.241C43.4805 182.44 44.3148 181.269 45.399 179.769C47.568 176.769 50.7397 172.452 54.683 167.136C62.5682 156.502 73.5492 141.877 85.7011 125.746Z" fill="#EBEBEB"/>
<path d="M82.2278 122.758C96.7722 108.67 109.934 95.92 119.474 86.6785C124.211 82.0456 128.045 78.295 130.707 75.6907C132.017 74.3908 133.036 73.3795 133.74 72.681C134.075 72.3403 134.334 72.0776 134.519 71.8896C134.692 71.7092 134.779 71.6142 134.773 71.6087C134.767 71.6031 134.67 71.6872 134.486 71.8569C134.293 72.0381 134.025 72.2906 133.676 72.6187C132.962 73.3061 131.927 74.3021 130.598 75.582C127.933 78.1847 124.097 81.9327 119.357 86.5622C109.902 95.8886 96.8579 108.756 82.4438 122.974C68.0479 137.196 54.9913 150.055 45.4824 159.308C40.729 163.935 36.8643 167.663 34.1734 170.219C32.8281 171.497 31.7761 172.483 31.0542 173.142C30.3324 173.802 29.9398 174.135 29.9135 174.109C29.8872 174.083 30.2288 173.699 30.9036 172.993C31.5783 172.287 32.5871 171.258 33.895 169.942C36.5108 167.311 40.3246 163.533 45.0585 158.887C54.5262 149.591 67.6795 136.829 82.2278 122.758Z" fill="#EBEBEB"/>
<path d="M79.2592 119.271C95.8487 107.584 110.862 97.0092 121.743 89.3438C127.153 85.4939 131.532 82.3769 134.572 80.2126C136.071 79.1296 137.237 78.2868 138.042 77.7046C138.427 77.4194 138.724 77.1996 138.937 77.0421C139.137 76.8906 139.237 76.81 139.232 76.8036C139.227 76.7973 139.118 76.8656 138.91 77.0048C138.691 77.1542 138.386 77.3625 137.99 77.6328C137.175 78.2024 135.996 79.0273 134.481 80.0878C131.439 82.25 127.058 85.364 121.646 89.2101C110.835 96.9731 95.9204 107.683 79.4396 119.517C62.9761 131.359 48.0502 142.058 37.1978 149.74C31.7722 153.582 27.3668 156.672 24.3054 158.784C22.7747 159.84 21.5801 160.652 20.7627 161.193C19.9454 161.733 19.5053 162.002 19.4833 161.972C19.4616 161.943 19.8593 161.616 20.6375 161.021C21.4154 160.427 22.574 159.566 24.0737 158.467C27.0727 156.269 31.4357 153.122 36.8451 149.258C47.6623 141.528 62.6689 130.938 79.2592 119.271Z" fill="#EBEBEB"/>
<path d="M76.892 115.371C95.1306 106.387 111.635 98.2567 123.599 92.3635C129.552 89.3946 134.372 86.9914 137.718 85.3223C139.37 84.4833 140.655 83.8307 141.542 83.38C141.968 83.1572 142.296 82.9862 142.531 82.8631C142.753 82.7443 142.864 82.6798 142.86 82.6726C142.857 82.6653 142.738 82.7158 142.509 82.8211C142.27 82.9348 141.935 83.0935 141.501 83.2993C140.607 83.7365 139.311 84.3692 137.647 85.1827C134.299 86.8492 129.478 89.249 123.523 92.2137C111.614 98.2143 95.1854 106.493 77.0308 115.642C58.8928 124.8 42.4544 133.067 30.5177 138.981C24.5498 141.939 19.7085 144.311 16.3497 145.925C14.6704 146.733 13.3617 147.35 12.4688 147.758C11.5759 148.166 11.0985 148.363 11.0815 148.331C11.0645 148.298 11.5093 148.036 12.372 147.569C13.2348 147.102 14.5155 146.43 16.1706 145.575C19.4807 143.867 24.2892 141.431 30.2448 138.448C42.1543 132.481 58.6556 124.336 76.892 115.371Z" fill="#EBEBEB"/>
<path d="M75.1617 111.152C94.6064 105.11 112.203 99.6419 124.958 95.6787C131.31 93.6702 136.453 92.0444 140.024 90.9156C141.789 90.3431 143.162 89.898 144.11 89.5903C144.566 89.4367 144.918 89.3183 145.169 89.2334C145.407 89.1502 145.527 89.104 145.525 89.0963C145.522 89.0887 145.397 89.1201 145.154 89.1884C144.9 89.2635 144.544 89.3684 144.082 89.5042C143.129 89.797 141.749 90.2209 139.975 90.7658C136.403 91.8921 131.259 93.514 124.905 95.5175C112.188 99.5961 94.6429 105.223 75.2551 111.441C55.8822 117.671 38.3298 123.285 25.5982 127.274C19.2327 129.269 14.0736 130.861 10.4987 131.934C8.71127 132.47 7.32061 132.877 6.37384 133.141C5.42665 133.405 4.92377 133.526 4.91231 133.491C4.90085 133.455 5.38166 133.266 6.30806 132.938C7.23446 132.61 8.60645 132.145 10.3774 131.558C13.9191 130.385 19.0561 128.725 25.4132 126.704C38.1265 122.659 55.7217 117.176 75.1617 111.152Z" fill="#EBEBEB"/>
<path d="M74.1287 106.719C94.2952 103.769 112.545 101.099 125.773 99.1643C132.367 98.1671 137.705 97.3595 141.412 96.7989C143.246 96.5078 144.673 96.2812 145.659 96.1246C146.134 96.0435 146.499 95.9811 146.761 95.9366C147.009 95.8916 147.136 95.8644 147.134 95.8568C147.133 95.8491 147.005 95.8606 146.754 95.8907C146.491 95.9255 146.123 95.9735 145.645 96.0363C144.657 96.1776 143.226 96.3822 141.388 96.6453C137.681 97.2033 132.342 98.0071 125.747 98.9997C112.538 101.054 94.3134 103.888 74.1754 107.02C54.0496 110.166 35.8199 112.986 22.6106 114.949C16.0061 115.932 10.6569 116.703 6.95597 117.208C5.10529 117.46 3.6671 117.647 2.68977 117.76C1.71245 117.874 1.19642 117.916 1.19047 117.879C1.18496 117.843 1.68996 117.73 2.6571 117.551C3.62424 117.371 5.05309 117.125 6.89571 116.82C10.5805 116.21 15.9187 115.368 22.5189 114.359C35.7189 112.336 53.9698 109.652 74.1287 106.719Z" fill="#EBEBEB"/>
<path d="M73.8116 102.178C94.1983 102.346 112.647 102.498 126.019 102.609C132.69 102.633 138.091 102.652 141.841 102.665C143.699 102.659 145.144 102.653 146.143 102.65C146.624 102.643 146.996 102.637 147.261 102.633C147.513 102.627 147.642 102.62 147.642 102.613C147.642 102.605 147.513 102.597 147.261 102.589C146.996 102.583 146.624 102.574 146.143 102.564C145.144 102.553 143.699 102.537 141.841 102.515C138.091 102.5 132.69 102.478 126.019 102.45C112.647 102.458 94.1971 102.469 73.8099 102.481C53.4329 102.508 34.98 102.504 21.6217 102.423C14.9425 102.384 9.53688 102.328 5.80114 102.261C3.93306 102.228 2.48299 102.192 1.49972 102.156C0.516459 102.119 0 102.082 0 102.046C0 102.01 0.516883 101.976 1.50015 101.948C2.48384 101.919 3.93434 101.894 5.80242 101.875C9.53857 101.838 14.9446 101.823 21.6238 101.835C34.9834 101.856 53.4354 101.994 73.8116 102.178Z" fill="#EBEBEB"/>
<path d="M74.212 97.6397C94.3241 100.932 112.525 103.91 125.717 106.069C132.303 107.114 137.635 107.96 141.338 108.548C143.174 108.825 144.603 109.041 145.59 109.191C146.067 109.257 146.434 109.308 146.698 109.345C146.948 109.377 147.077 109.39 147.078 109.382C147.079 109.374 146.953 109.346 146.705 109.299C146.444 109.253 146.079 109.187 145.604 109.102C144.62 108.938 143.195 108.7 141.363 108.395C137.661 107.804 132.33 106.955 125.744 105.905C112.532 103.865 94.3046 101.05 74.1627 97.9402C54.0285 94.8474 35.8001 92.0177 22.617 89.8911C16.0248 88.8289 10.6939 87.945 7.01418 87.3063C5.17411 86.9872 3.74737 86.7292 2.78151 86.542C1.81564 86.3549 1.31191 86.2382 1.31743 86.2017C1.32337 86.1652 1.8394 86.211 2.81546 86.3324C3.79193 86.4537 5.22885 86.6515 7.07698 86.9188C10.7737 87.4531 16.1165 88.2666 22.7129 89.3017C35.9066 91.3692 54.1125 94.3343 74.212 97.6397Z" fill="#EBEBEB"/>
<path d="M75.3259 93.2204C94.6611 99.5953 112.158 105.364 124.841 109.546C131.179 111.601 136.309 113.264 139.872 114.419C141.641 114.978 143.018 115.413 143.968 115.713C144.429 115.853 144.783 115.96 145.038 116.038C145.28 116.108 145.405 116.14 145.407 116.133C145.41 116.125 145.29 116.077 145.053 115.993C144.802 115.906 144.452 115.784 143.997 115.627C143.051 115.311 141.682 114.855 139.922 114.268C136.36 113.111 131.231 111.443 124.896 109.384C112.174 105.318 94.6233 99.7086 75.2292 93.5107C55.8397 87.3306 38.2903 81.7064 25.6114 77.5586C19.2713 75.486 14.1483 73.7847 10.6167 72.582C8.85087 71.9807 7.4827 71.5041 6.55927 71.1689C5.63584 70.8336 5.1563 70.6401 5.16818 70.6045C5.18007 70.5692 5.6821 70.694 6.62717 70.9652C7.57182 71.2364 8.95951 71.6548 10.7423 72.2052C14.3078 73.3064 19.4538 74.939 25.8028 76.9857C38.5004 81.0775 56.0056 86.8337 75.3259 93.2204Z" fill="#EBEBEB"/>
<path d="M77.1308 89.035C95.209 98.3296 111.568 106.741 123.426 112.838C129.357 115.85 134.158 118.289 137.492 119.983C139.15 120.81 140.44 121.453 141.33 121.897C141.763 122.107 142.096 122.268 142.334 122.384C142.561 122.492 142.68 122.543 142.684 122.536C142.688 122.529 142.576 122.464 142.356 122.343C142.122 122.218 141.796 122.044 141.372 121.818C140.488 121.36 139.208 120.697 137.564 119.845C134.231 118.149 129.432 115.706 123.504 112.689C111.59 106.699 95.1538 98.4349 76.9908 89.3028C58.8298 80.1891 42.3974 71.9104 30.5379 65.847C24.6078 62.8166 19.8192 60.3421 16.5231 58.6068C14.8753 57.7394 13.6 57.057 12.7411 56.583C11.8822 56.109 11.4396 55.8442 11.4565 55.8115C11.4735 55.7788 11.9492 55.9808 12.8387 56.3959C13.7282 56.8109 15.0314 57.4394 16.7039 58.2606C20.0488 59.902 24.87 62.3137 30.8129 65.3204C42.6999 71.3312 59.0692 79.7312 77.1308 89.035Z" fill="#EBEBEB"/>
<path d="M79.5887 85.1792C95.9711 97.1464 110.796 107.976 121.542 115.826C126.922 119.716 131.277 122.865 134.302 125.052C135.808 126.124 136.98 126.958 137.789 127.535C138.183 127.808 138.487 128.019 138.704 128.17C138.911 128.311 139.02 128.38 139.025 128.374C139.03 128.367 138.931 128.286 138.732 128.133C138.521 127.974 138.226 127.751 137.842 127.463C137.042 126.874 135.884 126.022 134.394 124.927C131.371 122.738 127.018 119.586 121.641 115.693C110.823 107.939 95.8986 97.2432 79.4067 85.4236C62.9135 73.6223 47.9952 62.9125 37.243 55.0951C31.8658 51.1875 27.5287 48.0052 24.5483 45.7832C23.0579 44.6722 21.9066 43.8014 21.1334 43.2013C20.3602 42.6008 19.9651 42.2707 19.9872 42.241C20.0093 42.2113 20.4472 42.4837 21.2599 43.0307C22.0726 43.5777 23.2604 44.3997 24.7822 45.4683C27.8257 47.6054 32.2057 50.7305 37.599 54.616C48.3878 62.3858 63.2242 73.2056 79.5887 85.1792Z" fill="#EBEBEB"/>
<path d="M82.612 81.7451C96.9074 96.0795 109.844 109.051 119.221 118.454C123.922 123.121 127.728 126.9 130.37 129.524C131.689 130.815 132.715 131.819 133.424 132.512C133.77 132.843 134.036 133.098 134.227 133.28C134.41 133.452 134.507 133.536 134.513 133.531C134.518 133.525 134.433 133.429 134.26 133.248C134.077 133.058 133.82 132.793 133.488 132.45C132.79 131.746 131.78 130.726 130.481 129.416C127.84 126.79 124.037 123.009 119.34 118.338C109.876 109.019 96.8204 96.1639 82.3939 81.9586C67.9632 67.771 54.9155 54.9028 45.5267 45.5314C40.8311 40.8468 37.0491 37.0381 34.4549 34.3862C33.158 33.06 32.1578 32.0237 31.489 31.3121C30.8202 30.6004 30.482 30.2138 30.5083 30.1879C30.5346 30.162 30.9241 30.4986 31.6405 31.1635C32.3568 31.8285 33.4008 32.8228 34.7354 34.1116C37.4051 36.6897 41.2385 40.4483 45.9536 45.1139C55.3853 54.4432 68.3349 67.4069 82.612 81.7451Z" fill="#EBEBEB"/>
<path d="M86.1478 78.8225C98.0086 95.1752 108.742 109.973 116.522 120.7C120.429 126.032 123.593 130.349 125.789 133.346C126.889 134.823 127.744 135.972 128.335 136.766C128.624 137.146 128.847 137.438 129.007 137.648C129.161 137.845 129.243 137.944 129.249 137.939C129.255 137.934 129.186 137.827 129.045 137.621C128.893 137.405 128.682 137.104 128.407 136.714C127.83 135.911 126.992 134.749 125.916 133.256C123.722 130.257 120.561 125.938 116.658 120.603C108.779 109.947 97.9097 95.2456 85.8983 79.0003C73.8806 62.772 63.0214 48.0595 55.2248 37.362C51.3253 32.014 48.19 27.6715 46.0461 24.6538C44.9742 23.1451 44.15 21.9675 43.6013 21.162C43.0526 20.3566 42.7797 19.9225 42.8099 19.9012C42.84 19.8796 43.1719 20.2717 43.7749 21.0386C44.3779 21.8054 45.2521 22.9474 46.3674 24.4255C48.5979 27.3812 51.7921 31.6822 55.7137 37.0144C63.5586 47.6763 74.3058 62.469 86.1478 78.8225Z" fill="#EBEBEB"/>
<path d="M90.1004 76.4748C99.2223 94.4554 107.477 110.727 113.46 122.521C116.475 128.39 118.915 133.141 120.609 136.44C121.461 138.069 122.124 139.336 122.581 140.211C122.807 140.63 122.981 140.954 123.106 141.185C123.226 141.403 123.292 141.514 123.299 141.51C123.306 141.507 123.255 141.389 123.148 141.164C123.032 140.928 122.871 140.598 122.662 140.17C122.218 139.288 121.576 138.011 120.75 136.37C119.058 133.07 116.621 128.317 113.611 122.446C107.519 110.706 99.1132 94.5101 89.825 76.6127C80.5275 58.7315 72.1334 42.5256 66.1286 30.7578C63.1253 24.8743 60.7166 20.1015 59.0777 16.7905C58.2582 15.135 57.6306 13.845 57.2168 12.9644C56.8031 12.0838 56.6019 11.6132 56.6354 11.5966C56.6685 11.5801 56.9346 12.018 57.4086 12.8685C57.8827 13.7189 58.5655 14.9814 59.4325 16.6131C61.1673 19.8765 63.6401 24.6172 66.6684 30.4879C72.728 42.2285 80.9977 58.4964 90.1004 76.4748Z" fill="#EBEBEB"/>
<path d="M94.3779 74.7694C100.517 93.9416 106.073 111.291 110.1 123.867C112.141 130.13 113.793 135.201 114.94 138.722C115.521 140.462 115.974 141.816 116.286 142.751C116.443 143.2 116.563 143.547 116.649 143.795C116.734 144.029 116.781 144.148 116.788 144.145C116.796 144.143 116.764 144.019 116.695 143.78C116.618 143.529 116.512 143.179 116.374 142.723C116.076 141.784 115.646 140.423 115.092 138.674C113.948 135.152 112.299 130.081 110.264 123.816C106.12 111.277 100.403 93.9781 94.0846 74.8627C87.7547 55.7618 82.0503 38.4556 77.998 25.9027C75.9704 19.6267 74.3535 14.5393 73.2633 11.0154C72.718 9.25338 72.3047 7.88182 72.0365 6.9482C71.7682 6.01459 71.6452 5.5185 71.6808 5.50704C71.7165 5.49558 71.9091 5.9696 72.2418 6.88285C72.5746 7.79609 73.0469 9.14898 73.6435 10.8948C74.836 14.3866 76.5225 19.4518 78.576 25.7198C82.686 38.254 88.2572 55.6023 94.3779 74.7694Z" fill="#EBEBEB"/>
<path d="M98.8748 73.7491C101.879 93.6346 104.598 111.63 106.568 124.674C107.584 131.177 108.406 136.44 108.977 140.095C109.274 141.904 109.504 143.311 109.663 144.283C109.745 144.751 109.809 145.112 109.855 145.37C109.9 145.614 109.928 145.739 109.936 145.738C109.944 145.737 109.932 145.61 109.901 145.363C109.866 145.103 109.817 144.74 109.753 144.269C109.609 143.295 109.4 141.884 109.132 140.071C108.564 136.416 107.746 131.152 106.735 124.649C104.644 111.623 101.758 93.6529 98.5697 73.7949C95.3669 53.9496 92.4957 35.9737 90.4964 22.9485C89.4958 16.4361 88.7103 11.1616 88.1959 7.51206C87.9388 5.68727 87.7491 4.26902 87.6328 3.30528C87.5165 2.34153 87.4741 1.83271 87.511 1.82719C87.5479 1.82168 87.6625 2.31946 87.845 3.27345C88.0275 4.22701 88.2783 5.63634 88.5885 7.45307C89.2089 11.0865 90.0657 16.3504 91.094 22.8586C93.1539 35.8744 95.8876 53.8711 98.8748 73.7491Z" fill="#EBEBEB"/>
<path d="M103.482 73.4353C103.324 93.5399 103.181 111.733 103.077 124.921C103.057 131.5 103.042 136.826 103.03 140.524C103.038 142.356 103.044 143.782 103.049 144.766C103.056 145.241 103.062 145.607 103.066 145.869C103.072 146.118 103.08 146.245 103.088 146.245C103.095 146.245 103.103 146.118 103.112 145.87C103.118 145.608 103.126 145.242 103.136 144.767C103.147 143.783 103.163 142.357 103.183 140.525C103.196 136.827 103.215 131.501 103.239 124.922C103.222 111.735 103.199 93.5403 103.174 73.4353C103.134 53.3401 103.127 35.1427 103.2 21.969C103.236 15.3819 103.289 10.0514 103.354 6.36742C103.387 4.52523 103.422 3.0951 103.458 2.12541C103.495 1.15573 103.532 0.646484 103.569 0.646484C103.605 0.646484 103.64 1.15615 103.669 2.12626C103.7 3.09637 103.725 4.52693 103.745 6.36912C103.786 10.0535 103.804 15.3844 103.796 21.9715C103.783 35.144 103.655 53.341 103.482 73.4353Z" fill="#EBEBEB"/>
<path d="M108.083 73.8257C104.758 93.6616 101.749 111.612 99.5685 124.624C98.5131 131.119 97.6588 136.378 97.0656 140.03C96.7851 141.841 96.5673 143.251 96.4167 144.224C96.3496 144.694 96.2979 145.057 96.261 145.316C96.2287 145.563 96.216 145.69 96.224 145.691C96.2321 145.692 96.2605 145.568 96.3081 145.324C96.3552 145.066 96.4214 144.705 96.5071 144.238C96.673 143.267 96.9132 141.861 97.2222 140.055C97.818 136.403 98.6765 131.145 99.7366 124.65C101.796 111.619 104.639 93.6425 107.78 73.7773C110.903 53.9197 113.76 35.9417 115.908 22.9394C116.981 16.4381 117.874 11.1801 118.52 7.55091C118.842 5.7363 119.103 4.32866 119.292 3.37638C119.481 2.42409 119.599 1.92673 119.636 1.93267C119.673 1.93861 119.627 2.44701 119.505 3.4099C119.382 4.3728 119.182 5.78977 118.913 7.61287C118.373 11.2591 117.552 16.528 116.506 23.0336C114.417 36.0457 111.422 54.0021 108.083 73.8257Z" fill="#EBEBEB"/>
<path d="M112.562 74.9245C106.111 93.9961 100.272 111.255 96.0398 123.766C93.9604 130.017 92.2774 135.077 91.1082 138.591C90.5425 140.336 90.102 141.694 89.7982 142.632C89.6569 143.086 89.5482 143.436 89.4702 143.687C89.3989 143.925 89.3662 144.049 89.3742 144.051C89.3819 144.054 89.4303 143.936 89.516 143.702C89.6038 143.454 89.7265 143.109 89.886 142.66C90.2052 141.727 90.6673 140.376 91.261 138.641C92.4327 135.127 94.12 130.068 96.2045 123.819C100.319 111.271 105.996 93.9592 112.268 74.8294C118.522 55.7043 124.214 38.3939 128.412 25.8877C130.509 19.6341 132.231 14.5803 133.448 11.0971C134.057 9.35505 134.54 8.00597 134.879 7.09485C135.218 6.18373 135.414 5.7114 135.45 5.72286C135.486 5.73432 135.359 6.22956 135.085 7.16148C134.81 8.09339 134.387 9.46199 133.83 11.2206C132.716 14.7378 131.064 19.8137 128.992 26.0757C124.852 38.6005 119.026 55.8673 112.562 74.9245Z" fill="#EBEBEB"/>
<path d="M116.815 76.7018C107.402 94.5355 98.8836 110.674 92.709 122.372C89.6578 128.222 87.1875 132.959 85.4726 136.247C84.6349 137.883 83.9835 139.156 83.5337 140.034C83.3215 140.461 83.1581 140.789 83.041 141.024C82.9324 141.249 82.8802 141.366 82.8874 141.369C82.8946 141.373 82.9608 141.263 83.0826 141.046C83.2091 140.815 83.3852 140.493 83.6139 140.075C84.0773 139.203 84.7491 137.941 85.6123 136.318C87.3297 133.031 89.8033 128.296 92.8588 122.448C98.9252 110.695 107.295 94.4808 116.543 76.5635C125.773 58.6478 134.157 42.4373 140.298 30.7378C143.367 24.8875 145.873 20.1638 147.631 16.9123C148.509 15.2865 149.2 14.0282 149.68 13.1812C150.16 12.3342 150.429 11.8975 150.462 11.914C150.495 11.931 150.291 12.3999 149.87 13.2775C149.45 14.1551 148.813 15.4405 147.982 17.0905C146.319 20.3904 143.877 25.1463 140.832 31.009C134.745 42.736 126.238 58.8842 116.815 76.7018Z" fill="#EBEBEB"/>
<path d="M120.715 79.116C108.59 95.2795 97.6181 109.906 89.665 120.508C85.7239 125.816 82.5334 130.113 80.3182 133.097C79.2318 134.583 78.3861 135.74 77.8026 136.538C77.525 136.927 77.3116 137.226 77.1588 137.441C77.0158 137.646 76.9462 137.753 76.9525 137.758C76.9589 137.763 77.0417 137.665 77.1966 137.469C77.3578 137.26 77.5832 136.969 77.8751 136.591C78.4714 135.802 79.335 134.658 80.4443 133.189C82.662 130.206 85.8554 125.912 89.8004 120.606C97.6555 109.933 108.492 95.2082 120.467 78.937C132.423 62.6645 143.274 47.9456 151.194 37.3368C155.153 32.0317 158.377 27.7524 160.628 24.8119C161.754 23.3415 162.636 22.2054 163.244 21.4428C163.853 20.6798 164.187 20.2902 164.218 20.3119C164.247 20.3335 163.971 20.7655 163.417 21.5676C162.863 22.3692 162.03 23.5413 160.948 25.0428C158.783 28.0456 155.617 32.367 151.68 37.6882C143.808 48.3322 132.846 62.9704 120.715 79.116Z" fill="#EBEBEB"/>
<path d="M124.199 82.1028C109.673 96.2097 96.5278 108.976 86.9994 118.229C82.269 122.868 78.4399 126.623 75.7803 129.231C74.4724 130.532 73.4548 131.545 72.7525 132.244C72.4172 132.585 72.1588 132.849 71.9742 133.037C71.8006 133.217 71.7145 133.313 71.72 133.318C71.7255 133.324 71.8227 133.24 72.0068 133.07C72.1991 132.888 72.4673 132.636 72.8157 132.307C73.5291 131.619 74.5624 130.621 75.8903 129.34C78.5511 126.734 82.3831 122.981 87.1166 118.345C96.5592 109.007 109.587 96.1236 123.982 81.8872C138.36 67.6471 151.4 54.7721 160.897 45.5072C165.644 40.874 169.504 37.1412 172.192 34.5818C173.536 33.3019 174.586 32.3153 175.307 31.6549C176.029 30.9946 176.421 30.6611 176.447 30.6869C176.473 30.7128 176.132 31.0973 175.458 31.8043C174.784 32.5113 173.776 33.5413 172.47 34.8581C169.858 37.4921 166.049 41.2754 161.321 45.9278C151.867 55.2351 138.729 68.0137 124.199 82.1028Z" fill="#EBEBEB"/>
<path d="M127.177 85.5873C110.603 97.2944 95.6039 107.889 84.732 115.568C79.3276 119.425 74.9528 122.547 71.9143 124.715C70.4171 125.8 69.2522 126.644 68.448 127.227C68.0627 127.513 67.7665 127.733 67.5539 127.891C67.3544 128.043 67.2543 128.124 67.2589 128.13C67.2636 128.136 67.3727 128.068 67.5815 127.928C67.8 127.779 68.1047 127.57 68.5007 127.299C69.3142 126.728 70.4918 125.902 72.006 124.84C75.0457 122.674 79.4227 119.554 84.83 115.702C95.6306 107.925 110.532 97.1968 126.997 85.3412C143.445 73.4792 158.357 62.7609 169.2 55.0654C174.62 51.2167 179.022 48.1214 182.08 46.0055C183.61 44.9471 184.803 44.1336 185.62 43.5921C186.436 43.0506 186.876 42.7811 186.898 42.8108C186.919 42.8405 186.522 43.1681 185.745 43.7631C184.967 44.3581 183.81 45.2212 182.312 46.3216C179.316 48.5233 174.957 51.6759 169.553 55.5466C158.746 63.2905 143.753 73.8989 127.177 85.5873Z" fill="#EBEBEB"/>
<path d="M129.553 89.4822C111.326 98.4895 94.8314 106.64 82.8756 112.549C76.9264 115.525 72.1102 117.935 68.7658 119.608C67.1154 120.449 65.8308 121.103 64.9443 121.555C64.5187 121.778 64.191 121.95 63.9564 122.073C63.7348 122.192 63.6232 122.257 63.627 122.264C63.6309 122.271 63.7493 122.22 63.9776 122.115C64.2169 122 64.5513 121.842 64.9855 121.635C65.8792 121.197 67.1739 120.562 68.8375 119.747C72.1832 118.076 77.0011 115.67 82.9524 112.698C94.8531 106.682 111.271 98.3825 129.414 89.211C147.54 80.0302 163.967 71.7422 175.896 65.8129C181.86 62.847 186.699 60.4688 190.055 58.8507C191.733 58.0414 193.041 57.4219 193.934 57.0132C194.826 56.6045 195.304 56.4063 195.32 56.439C195.337 56.4721 194.893 56.7344 194.031 57.2025C193.169 57.6705 191.889 58.3444 190.235 59.2008C186.927 60.9136 182.121 63.3554 176.17 66.3455C164.268 72.3279 147.777 80.4936 129.553 89.4822Z" fill="#EBEBEB"/>
<path d="M131.287 93.6996C111.85 99.7664 94.2611 105.257 81.5114 109.236C75.1615 111.253 70.0207 112.885 66.4513 114.018C64.6872 114.593 63.3144 115.04 62.3667 115.349C61.911 115.503 61.56 115.622 61.3084 115.707C61.0711 115.79 60.9506 115.837 60.9532 115.845C60.9557 115.852 61.0809 115.821 61.3232 115.752C61.5778 115.676 61.933 115.572 62.3947 115.435C63.3475 115.141 64.7271 114.715 66.5001 114.168C70.0708 113.038 75.2124 111.409 81.564 109.398C94.276 105.303 111.814 99.6531 131.193 93.4106C150.558 87.1558 168.103 81.5193 180.83 77.515C187.193 75.5115 192.35 73.9134 195.923 72.8363C197.709 72.2978 199.1 71.8887 200.046 71.6235C200.993 71.3582 201.496 71.2369 201.508 71.2721C201.519 71.3073 201.038 71.4974 200.113 71.8263C199.187 72.1548 197.815 72.622 196.045 73.211C192.505 74.3895 187.37 76.0556 181.016 78.0849C168.307 82.1457 150.719 87.6506 131.287 93.6996Z" fill="#EBEBEB"/>
<path d="M132.32 98.1347C112.157 101.11 93.9109 103.803 80.685 105.755C74.0924 106.76 68.7555 107.575 65.0495 108.14C63.2158 108.434 61.7886 108.662 60.8032 108.82C60.3284 108.901 59.963 108.964 59.7012 109.01C59.4533 109.055 59.3269 109.082 59.3281 109.09C59.3294 109.098 59.458 109.086 59.7084 109.055C59.9719 109.021 60.3398 108.972 60.8172 108.909C61.8048 108.766 63.2353 108.559 65.0737 108.294C68.7801 107.731 74.1179 106.921 80.7109 105.92C93.9181 103.849 112.138 100.992 132.273 97.8351C152.394 94.6637 170.621 91.8209 183.827 89.8408C190.431 88.8494 195.778 88.072 199.479 87.5623C201.329 87.3073 202.767 87.1193 203.745 87.0043C204.722 86.8893 205.238 86.8468 205.244 86.8833C205.25 86.9198 204.745 87.0331 203.777 87.2135C202.811 87.3943 201.382 87.6425 199.54 87.9494C195.856 88.5634 190.518 89.4117 183.919 90.4298C170.722 92.4689 152.474 95.1764 132.32 98.1347Z" fill="#EBEBEB"/>
<path d="M158.684 153.962C156.283 151.136 152.962 149.435 150.654 148.786C148.492 148.177 145.216 147.623 141.88 148.436C139.808 148.942 137.993 149.918 136.487 151.338C134.702 153.02 133.34 155.34 132.437 158.233C132.302 158.667 132.347 159.126 132.564 159.526C132.782 159.929 133.145 160.219 133.586 160.343L139.253 161.938C140.052 162.163 140.908 161.76 141.242 161C141.994 159.294 143.891 156.598 148.152 157.719C151.4 158.575 152.073 161.287 152.213 162.415C152.44 164.249 151.717 166.146 150.28 167.488C148.072 169.55 145.191 169.15 143.67 168.728C141.921 168.242 140.1 169.261 139.611 170.998L137.895 177.096C137.644 177.987 138.165 178.915 139.055 179.166L144.577 180.72C145.468 180.97 146.396 180.45 146.647 179.559L147.007 178.278C147.016 178.247 147.043 178.226 147.075 178.224C148.45 178.137 151.173 177.759 153.967 176.203C157.536 174.216 159.956 171.036 161.162 166.752C162.888 160.622 160.767 156.413 158.684 153.962Z" fill="#E0E0E0"/>
<path d="M141.659 181.555L141.176 181.419C138.867 180.769 136.459 182.119 135.81 184.428C135.16 186.738 136.509 189.145 138.819 189.795L139.302 189.931C141.611 190.581 144.019 189.231 144.668 186.922C145.318 184.612 143.969 182.205 141.659 181.555Z" fill="#E0E0E0"/>
<path d="M170.853 120.187C169.185 119.274 167.283 119.068 166.059 119.18C164.912 119.285 163.241 119.62 161.793 120.62C160.893 121.242 160.203 122.042 159.742 122.998C159.196 124.131 158.968 125.491 159.066 127.041C159.081 127.274 159.186 127.486 159.364 127.638C159.542 127.79 159.769 127.863 160.003 127.841L163.009 127.567C163.434 127.528 163.769 127.178 163.79 126.753C163.837 125.798 164.252 124.16 166.498 123.916C168.21 123.73 169.029 124.906 169.303 125.42C169.747 126.257 169.749 127.298 169.307 128.204C168.627 129.596 167.174 129.932 166.369 130.009C165.442 130.096 164.757 130.918 164.841 131.839L165.136 135.074C165.179 135.547 165.599 135.896 166.071 135.853L169 135.586C169.472 135.542 169.822 135.123 169.778 134.651L169.716 133.971C169.715 133.955 169.724 133.94 169.739 133.933C170.381 133.64 171.616 132.959 172.669 131.702C174.014 130.096 174.59 128.13 174.383 125.858C174.086 122.606 172.3 120.98 170.853 120.187Z" fill="#F5F5F5"/>
<path d="M167.756 136.521L167.5 136.544C166.275 136.656 165.369 137.743 165.481 138.968C165.593 140.194 166.68 141.099 167.905 140.987L168.162 140.964C169.386 140.852 170.292 139.764 170.18 138.539C170.068 137.314 168.981 136.409 167.756 136.521Z" fill="#F5F5F5"/>
<path d="M50.4666 51.125C49.337 50.0119 47.8576 49.4131 46.8497 49.2234C45.9059 49.046 44.489 48.9335 43.0987 49.4063C42.2351 49.7 41.4989 50.1846 40.9107 50.8466C40.2139 51.6308 39.7212 52.6706 39.4462 53.9369C39.405 54.127 39.4415 54.3209 39.5493 54.4835C39.6575 54.6468 39.823 54.7563 40.0157 54.7928L42.4906 55.2579C42.8399 55.3237 43.1891 55.1196 43.3028 54.7831C43.5583 54.0277 44.2649 52.8076 46.1228 53.1238C47.5385 53.3657 47.9281 54.4958 48.0303 54.9706C48.1963 55.7438 47.9603 56.579 47.3989 57.2049C46.5361 58.167 45.2936 58.1055 44.6294 57.9828C43.866 57.8424 43.1289 58.3448 42.9863 59.1036L42.4855 61.7665C42.4125 62.1552 42.6693 62.5312 43.058 62.6042L45.4693 63.0574C45.858 63.1304 46.234 62.8737 46.307 62.485L46.4122 61.9256C46.4148 61.9121 46.4254 61.9023 46.4389 61.9002C47.0212 61.8111 48.167 61.5471 49.2988 60.7786C50.7438 59.797 51.6549 58.3512 52.0063 56.4805C52.5096 53.8032 51.4469 52.0904 50.4666 51.125Z" fill="#F5F5F5"/>
<path d="M44.2578 63.5239L44.0468 63.4844C43.0385 63.2947 42.0638 63.961 41.8741 64.9693C41.6844 65.9776 42.3506 66.9524 43.3589 67.1421L43.5698 67.1815C44.5782 67.3712 45.5529 66.705 45.7426 65.6967C45.9319 64.6884 45.2661 63.7136 44.2578 63.5239Z" fill="#F5F5F5"/>
<path d="M166.374 51.9756C164.71 51.056 162.809 50.8426 161.584 50.9495C160.437 51.0497 158.765 51.3777 157.313 52.3729C156.411 52.9907 155.718 53.7881 155.253 54.7425C154.702 55.8731 154.469 57.2323 154.56 58.7834C154.574 59.016 154.679 59.2281 154.856 59.3809C155.034 59.5345 155.26 59.6075 155.494 59.5872L158.501 59.3245C158.926 59.2875 159.262 58.9391 159.285 58.5139C159.336 57.5591 159.757 55.9227 162.004 55.6872C163.717 55.5085 164.532 56.6874 164.803 57.203C165.244 58.0416 165.242 59.0826 164.796 59.9865C164.111 61.3759 162.657 61.706 161.851 61.7795C160.924 61.8639 160.235 62.6825 160.316 63.6042L160.598 66.8401C160.64 67.3128 161.058 67.6634 161.53 67.6222L164.46 67.3663C164.933 67.3251 165.283 66.9071 165.242 66.4344L165.183 65.7545C165.182 65.7384 165.191 65.7231 165.206 65.7163C165.849 65.4256 167.087 64.7505 168.145 63.4973C169.496 61.8974 170.08 59.9334 169.881 57.6605C169.598 54.4077 167.817 52.7735 166.374 51.9756Z" fill="#EBEBEB"/>
<path d="M163.212 68.2956L162.956 68.3181C161.73 68.4251 160.821 69.5089 160.927 70.7345C161.034 71.9601 162.118 72.8699 163.344 72.7626L163.6 72.7401C164.825 72.6331 165.735 71.5493 165.628 70.3237C165.521 69.0986 164.437 68.1887 163.212 68.2956Z" fill="#EBEBEB"/>
<path d="M75.9609 149.765C73.8785 148.784 71.5644 148.675 70.0935 148.901C68.7156 149.112 66.7215 149.64 65.0448 150.956C64.0034 151.773 63.2285 152.791 62.7417 153.98C62.165 155.389 61.9902 157.05 62.2227 158.917C62.2575 159.197 62.401 159.445 62.6267 159.616C62.8534 159.787 63.133 159.858 63.4139 159.815L67.0266 159.261C67.5363 159.183 67.9161 158.736 67.9106 158.221C67.8974 157.063 68.2777 155.053 70.9741 154.592C73.0293 154.242 74.1064 155.602 74.4747 156.204C75.0739 157.183 75.1525 158.44 74.6848 159.568C73.9663 161.3 72.2349 161.813 71.2669 161.965C70.1538 162.14 69.3861 163.183 69.5554 164.29L70.1508 168.178C70.2378 168.746 70.7704 169.136 71.3382 169.05L74.8579 168.511C75.4257 168.424 75.8166 167.891 75.73 167.323L75.6048 166.507C75.6019 166.487 75.6116 166.468 75.6295 166.459C76.384 166.057 77.826 165.144 79.0062 163.547C80.5127 161.507 81.0644 159.089 80.6464 156.358C80.0467 152.45 77.7674 150.616 75.9609 149.765Z" fill="#EBEBEB"/>
<path d="M73.4214 169.732L73.1134 169.779C71.6412 170.004 70.627 171.385 70.8527 172.857C71.0785 174.329 72.4594 175.343 73.9311 175.118L74.2392 175.071C75.7113 174.845 76.7256 173.464 76.4998 171.992C76.2745 170.52 74.8932 169.506 73.4214 169.732Z" fill="#EBEBEB"/>
<path d="M44.2833 76.2021C41.3551 74.8297 38.104 74.6825 36.0374 75.0029C34.1022 75.3029 31.3014 76.0494 28.9491 77.9026C27.488 79.0539 26.402 80.4853 25.7209 82.1578C24.9142 84.1387 24.6731 86.4728 25.0042 89.0945C25.0538 89.4879 25.2558 89.8363 25.5732 90.0752C25.8919 90.3154 26.2849 90.4143 26.6796 90.3532L31.7538 89.5668C32.4697 89.4561 33.0023 88.8263 32.9929 88.1023C32.9713 86.4761 33.5005 83.6507 37.2876 82.9967C40.1741 82.4998 41.6908 84.4082 42.2098 85.2523C43.0543 86.6259 43.1676 88.3922 42.5137 89.9776C41.5083 92.4131 39.0775 93.1388 37.7174 93.3548C36.1536 93.603 35.0779 95.0701 35.3189 96.6258L36.1651 102.086C36.2886 102.884 37.038 103.432 37.8354 103.308L42.7793 102.542C43.5767 102.419 44.125 101.669 44.0015 100.872L43.8237 99.725C43.8195 99.6974 43.833 99.6711 43.8581 99.6575C44.9173 99.091 46.9407 97.8051 48.5949 95.5581C50.7066 92.6893 51.4755 89.2901 50.8814 85.4547C50.0305 79.9646 46.8236 77.3929 44.2833 76.2021Z" fill="#EBEBEB"/>
<path d="M40.7674 104.261L40.335 104.328C38.2674 104.648 36.8458 106.591 37.1662 108.659C37.4866 110.726 39.4293 112.148 41.4969 111.827L41.9293 111.76C43.9968 111.44 45.4185 109.497 45.0981 107.43C44.7777 105.362 42.8349 103.941 40.7674 104.261Z" fill="#EBEBEB"/>
<path d="M115.747 41.6169L119.572 42.2543C121.452 44.5017 124.026 46.2217 127.113 47.0433C134.395 48.981 142.098 44.983 144.72 37.9193C147.75 29.7574 143.123 20.7442 134.646 18.4942C127.449 16.5841 119.834 20.4607 117.134 27.4C115.794 30.8438 115.833 34.4505 116.956 37.6477L116.951 37.6409L115.747 41.6169Z" fill="white"/>
<path d="M115.747 41.6169C115.747 41.6169 115.767 41.5337 115.815 41.364C115.866 41.1853 115.939 40.9324 116.034 40.6039C116.235 39.919 116.528 38.92 116.907 37.6283L116.933 37.5387L116.987 37.6155L116.991 37.6223L116.912 37.6626C116.301 35.9354 115.781 33.4716 116.215 30.565C116.426 29.1188 116.89 27.5881 117.638 26.0697C118.398 24.5589 119.481 23.0838 120.882 21.8048C122.287 20.5334 124.014 19.4703 125.969 18.7777C127.919 18.0894 130.102 17.7452 132.319 17.9825C134.532 18.2002 136.765 18.9373 138.765 20.1705C140.776 21.3923 142.493 23.1823 143.722 25.2973C144.372 26.354 144.806 27.5125 145.177 28.6673C145.262 28.9588 145.316 29.2576 145.387 29.5512C145.445 29.8474 145.541 30.136 145.566 30.4365C145.602 30.7348 145.638 31.0323 145.675 31.3289L145.726 31.7732L145.733 32.2192C145.82 34.5957 145.312 36.9162 144.39 38.9625C143.475 41.0207 142.056 42.7457 140.463 44.091C138.861 45.4363 137.051 46.3898 135.228 46.9555C133.401 47.5152 131.568 47.696 129.873 47.5802C129.45 47.5309 129.035 47.4826 128.627 47.435C128.221 47.3777 127.83 47.2704 127.441 47.1927C126.667 47.0247 125.944 46.77 125.266 46.4963C122.543 45.3781 120.696 43.6751 119.538 42.2828L119.564 42.2976C118.332 42.0812 117.375 41.9131 116.717 41.7973C116.402 41.7404 116.16 41.6967 115.988 41.6657C115.825 41.6352 115.747 41.6169 115.747 41.6169C115.747 41.6169 115.838 41.6271 116.007 41.6521C116.182 41.6789 116.429 41.7166 116.749 41.7659C117.403 41.869 118.354 42.0188 119.579 42.2115L119.594 42.214L119.605 42.2267C120.771 43.5987 122.616 45.2733 125.319 46.3656C125.992 46.633 126.709 46.8817 127.477 47.0442C127.862 47.1189 128.249 47.2237 128.651 47.2784C129.055 47.3239 129.466 47.3697 129.884 47.4168C131.561 47.5242 133.371 47.3387 135.174 46.7802C136.972 46.2158 138.757 45.2695 140.334 43.9382C141.903 42.6074 143.299 40.9044 144.197 38.8746C145.103 36.8563 145.602 34.5685 145.514 32.2277L145.507 31.7881L145.456 31.3501C145.42 31.0582 145.385 30.7649 145.349 30.4713C145.324 30.1755 145.229 29.8911 145.172 29.5996C145.102 29.3106 145.048 29.0161 144.965 28.7288C144.598 27.5915 144.171 26.4503 143.53 25.4094C142.319 23.3257 140.629 21.5616 138.649 20.3568C136.679 19.1406 134.479 18.4115 132.298 18.1938C130.114 17.9566 127.96 18.2923 126.035 18.967C124.105 19.646 122.397 20.6908 121.005 21.9423C119.618 23.2014 118.542 24.6548 117.785 26.1452C117.039 27.6433 116.572 29.1566 116.356 30.5875C115.91 33.4631 116.407 35.9108 116.996 37.6338L117.104 37.9482L116.917 37.6741L116.912 37.6673L116.992 37.655C116.595 38.929 116.288 39.9139 116.077 40.5891C115.972 40.9201 115.892 41.1739 115.835 41.3538C115.78 41.5253 115.747 41.6169 115.747 41.6169Z" fill="#263238"/>
<path d="M134.016 25.9611C132.884 25.2108 131.542 24.9502 130.664 24.9562C129.842 24.9617 128.633 25.0996 127.542 25.7247C126.865 26.113 126.326 26.6409 125.94 27.2936C125.483 28.0668 125.239 29.0212 125.216 30.1305C125.213 30.2969 125.275 30.4539 125.392 30.5727C125.51 30.6919 125.667 30.7573 125.835 30.756L127.99 30.7412C128.295 30.7391 128.554 30.5103 128.595 30.209C128.686 29.5321 129.08 28.3914 130.693 28.3524C131.922 28.3235 132.435 29.2092 132.599 29.5916C132.865 30.2141 132.804 30.9546 132.434 31.5729C131.867 32.5227 130.813 32.6746 130.235 32.6805C129.57 32.6873 129.033 33.231 129.038 33.8917L129.054 36.2117C129.056 36.5504 129.333 36.8241 129.672 36.822L131.773 36.8075C132.112 36.8054 132.385 36.5279 132.383 36.1888L132.38 35.7012C132.38 35.6893 132.387 35.6791 132.398 35.6753C132.873 35.5052 133.792 35.0956 134.617 34.2639C135.671 33.2021 136.199 31.8377 136.188 30.2082C136.171 27.8771 134.997 26.6116 134.016 25.9611Z" fill="#713FFF"/>
<path d="M130.83 37.399L130.646 37.4002C129.768 37.4062 129.058 38.1259 129.064 39.0044C129.069 39.8828 129.789 40.5928 130.668 40.5868L130.851 40.5856C131.73 40.5796 132.44 39.8599 132.434 38.9814C132.428 38.103 131.708 37.393 130.83 37.399Z" fill="#713FFF"/>
<path d="M136.686 60.7474C126.666 54.008 114.753 51.6069 106.945 51.6069C99.6325 51.6069 88.8713 52.7604 79.1312 58.2543C73.0822 61.6666 68.2559 66.3283 64.7858 72.1104C60.6757 78.9589 58.4512 87.4327 58.1741 97.2972C58.1325 98.777 58.6791 100.177 59.7137 101.241C60.753 102.31 62.1462 102.899 63.6374 102.899H82.8109C85.5163 102.899 87.8422 100.88 88.2204 98.2036C89.0708 92.1912 92.6393 82.0674 106.988 81.82C117.918 81.6324 122.428 89.5452 123.86 92.9567C126.19 98.5079 125.6 105.091 122.279 110.566C117.177 118.978 107.791 120.266 102.651 120.285C96.7392 120.307 91.9293 125.106 91.9293 130.983V151.615C91.9293 154.628 94.3805 157.079 97.3935 157.079H116.074C119.087 157.079 121.539 154.628 121.539 151.615V147.28C121.539 147.176 121.603 147.086 121.704 147.051C125.935 145.566 134.138 141.978 141.526 134.632C150.958 125.255 155.741 113.152 155.741 98.659C155.741 77.9175 145.379 66.5944 136.686 60.7474Z" fill="#713FFF"/>
<path d="M106.263 166.704H107.771C115.19 166.704 121.226 172.739 121.226 180.158C121.226 187.577 115.19 193.613 107.771 193.613H106.263C98.8444 193.613 92.8086 187.577 92.8086 180.158C92.8086 172.739 98.8444 166.704 106.263 166.704Z" fill="#263238"/>
<path d="M97.3219 161.069H115.995C119.007 161.069 121.457 158.695 121.457 155.778V147.342C121.457 147.242 121.522 147.154 121.622 147.12C123.829 146.37 126.917 144.994 130.411 142.847C118.481 142.763 96.7337 142.641 91.8594 142.819V155.778C91.8598 158.695 94.3101 161.069 97.3219 161.069Z" fill="#263238"/>
<path d="M112.698 67.6024L100.715 32.8036C98.185 24.0904 91.005 18.3007 82.3653 21.0719L81.5819 21.3744C73.6975 24.4206 69.4704 33.009 71.8731 41.1127C74.1083 48.6525 76.6749 56.9545 78.2391 60.8587C81.4771 68.9408 89.9539 66.6721 89.9539 66.6721C89.9725 66.6658 91.8406 72.0591 92.6575 74.4801L97.0464 78.8168L98.8593 76.8362L112.698 67.6024Z" fill="#FFBF9D"/>
<path d="M89.9492 66.6693C89.9492 66.6693 95.1838 64.9922 99.3151 59.458C99.3151 59.458 99.13 66.5463 90.7441 68.9457L89.9492 66.6693Z" fill="#FF9A6C"/>
<path d="M77.7394 46.6075C77.9542 47.2284 78.6574 47.5581 79.3096 47.3455C79.9606 47.1333 80.3158 46.459 80.1011 45.8382C79.8863 45.2173 79.1831 44.8867 78.5317 45.0989C77.8795 45.3111 77.5247 45.9867 77.7394 46.6075Z" fill="#263238"/>
<path d="M74.8557 43.6393C75.0577 43.7348 75.685 42.7452 76.9347 42.2665C78.1756 41.77 79.3396 42.0586 79.4156 41.8532C79.4559 41.7598 79.2043 41.5434 78.6933 41.4071C78.1892 41.2701 77.4109 41.2472 76.6347 41.551C75.8589 41.8557 75.3158 42.3942 75.0531 42.8326C74.7832 43.2752 74.7586 43.599 74.8557 43.6393Z" fill="#263238"/>
<path d="M88.1715 42.4638C88.3739 42.5593 89.0028 41.5697 90.2509 41.091C91.4918 40.5949 92.6558 40.883 92.7322 40.6777C92.7721 40.5843 92.5221 40.3679 92.0095 40.2321C91.5053 40.0946 90.727 40.0721 89.9509 40.3755C89.1751 40.6806 88.6319 41.2191 88.3688 41.6571C88.1002 42.0997 88.0751 42.4235 88.1715 42.4638Z" fill="#263238"/>
<path d="M86.421 50.5234C86.3993 50.4504 85.5718 50.6159 84.2529 50.9405C83.9214 51.0309 83.5955 51.0844 83.4576 50.8875C83.2938 50.6863 83.2942 50.2913 83.3052 49.8605C83.3069 48.9736 83.3082 48.0438 83.3099 47.0699C83.284 43.1092 83.1338 39.9027 82.9742 39.9048C82.8147 39.9078 82.7065 43.1194 82.7323 47.08C82.7468 48.054 82.7591 48.9821 82.7727 49.8699C82.7922 50.2785 82.7434 50.7695 83.0905 51.1845C83.2683 51.3895 83.5692 51.4718 83.7945 51.4481C84.0233 51.4315 84.2036 51.3658 84.3649 51.3144C85.6567 50.8939 86.4435 50.5964 86.421 50.5234Z" fill="#263238"/>
<path d="M85.2853 35.4511C85.5781 35.7041 86.6594 34.9011 88.1214 34.3002C89.5715 33.6692 90.9006 33.4523 90.9231 33.0662C90.9277 32.8845 90.5683 32.6936 89.9496 32.6363C89.3355 32.5769 88.466 32.6804 87.5922 33.0492C86.7197 33.4192 86.0399 33.9713 85.6545 34.4534C85.265 34.9372 85.1512 35.3281 85.2853 35.4511Z" fill="#263238"/>
<path d="M73.3868 39.9955C73.753 40.1839 74.6654 39.5109 75.8893 39.0432C77.0987 38.5395 78.2293 38.3969 78.3587 38.0099C78.41 37.8265 78.141 37.6016 77.5868 37.4993C77.0393 37.3958 76.2088 37.4531 75.3724 37.7862C74.5364 38.1206 73.9003 38.6494 73.5807 39.0988C73.2548 39.5524 73.2204 39.8987 73.3868 39.9955Z" fill="#263238"/>
<path d="M102.251 38.6794C102.366 38.5661 107.193 34.8732 109.161 40.4936C111.128 46.1139 105.08 46.93 105.014 46.7725C104.948 46.6147 102.251 38.6794 102.251 38.6794Z" fill="#FFBF9D"/>
<path d="M105.979 44.0406C105.998 44.0138 106.101 44.0745 106.294 44.0928C106.481 44.1102 106.776 44.0639 107.031 43.8513C107.548 43.4256 107.718 42.3079 107.39 41.2851C107.226 40.7687 106.948 40.3193 106.626 39.9793C106.31 39.6284 105.944 39.434 105.626 39.4858C105.304 39.5214 105.155 39.7744 105.142 39.9564C105.122 40.1397 105.197 40.2395 105.17 40.2598C105.16 40.2794 105.017 40.2076 104.981 39.9598C104.965 39.8397 104.984 39.6844 105.079 39.5303C105.175 39.3733 105.354 39.2481 105.57 39.1976C106.013 39.0759 106.543 39.3381 106.897 39.7107C107.276 40.0774 107.6 40.5785 107.785 41.1587C108.145 42.3036 107.937 43.5665 107.207 44.086C106.847 44.3279 106.476 44.3236 106.259 44.2506C106.037 44.1725 105.963 44.0575 105.979 44.0406Z" fill="#FF9A6C"/>
<path d="M90.6665 49.954C90.4683 50.0079 90.8999 51.3052 90.0979 52.597C89.2988 53.8913 87.8678 54.2079 87.9183 54.3929C87.9276 54.4803 88.3104 54.5419 88.8994 54.3623C89.4783 54.1905 90.2523 53.7271 90.7433 52.9369C91.2314 52.1454 91.2704 51.295 91.1371 50.7484C91.0047 50.1899 90.7527 49.9171 90.6665 49.954Z" fill="#263238"/>
<path d="M57.8451 37.1637C57.8179 36.8017 57.9626 36.4444 58.1964 36.1664C58.7061 35.5596 59.4649 35.3491 60.177 35.0851C61.9491 34.4286 63.5562 33.3499 64.8612 31.9834C64.2085 31.8977 63.5707 31.739 62.9765 31.4551C61.7497 30.8694 60.7393 29.6663 60.7274 28.3071C60.7253 28.052 60.7736 27.7669 60.9786 27.6149C61.3041 27.3743 61.7497 27.62 62.104 27.8148C63.2698 28.4548 64.1839 28.5838 65.3874 28.0181C66.1347 27.6667 66.8243 27.2283 67.3 26.6342C67.3153 26.6003 67.3272 26.5646 67.3429 26.5311C67.5288 26.1267 67.7125 25.7384 67.8954 25.3611C67.8954 25.3598 67.8963 25.359 67.8963 25.3577L67.8958 25.3598C69.2704 22.5195 70.5757 20.4274 72.1816 19.0151C74.5347 16.945 78.963 14.8817 82.0864 14.6245C85.2102 14.3674 88.5949 15.7822 90.0246 18.5712C91.1505 16.6505 93.5618 15.814 95.7914 15.9108L95.833 15.8722C98.2812 15.8811 100.326 17.7437 101.75 19.7352C101.827 19.8443 101.901 19.9563 101.977 20.0667C103.123 20.9735 104.474 21.6198 105.911 21.894C106.164 21.9424 106.458 22.0073 106.569 22.2403C106.679 22.4711 106.546 22.741 106.399 22.9507C106.009 23.5079 105.489 23.967 104.897 24.3023C105.282 24.7593 105.695 25.1892 106.157 25.5767C106.549 25.906 107.016 26.3011 106.954 26.8091C106.906 27.202 106.529 27.4893 106.141 27.5657C105.752 27.6417 105.352 27.5525 104.967 27.4643C105.414 27.9595 105.861 28.4552 106.308 28.9504C105.57 29.3646 104.732 29.5887 103.887 29.626C104.155 31.8629 105.162 35.8265 105.123 37.4204C103.641 37.9717 103.222 37.9373 102.558 38.4521C101.699 39.1175 102.676 40.7085 101.239 40.6652C100.507 40.6431 98.6572 38.5497 98.2099 37.9691C95.2448 34.118 93.1259 29.6201 92.0383 24.8833C90.7991 24.2403 89.4352 23.8389 88.0454 23.7073L88.1735 23.7608C85.5959 23.7723 82.7217 23.903 80.9227 25.749C79.5274 27.1808 79.1518 29.2848 78.3812 31.1296C76.9209 34.626 74.7087 36.9965 71.1924 38.4084C71.744 41.0013 73.0774 45.0901 73.7717 47.4466L70.1641 43.5114L70.1692 43.5305C69.9137 43.3154 69.6858 43.0883 69.4618 42.8592L69.3888 42.7913L69.3854 42.7807C69.0281 42.4119 68.6801 42.0389 68.271 41.6938C68.2659 41.7032 68.2608 41.7121 68.2557 41.7214C67.3917 43.2691 64.9486 42.229 65.4625 40.5323C65.5644 40.1958 65.715 39.875 65.914 39.5834C65.5308 40.3231 64.767 40.882 63.9343 40.916C63.1017 40.9499 62.2509 40.3948 62.0404 39.5885C61.8965 39.0381 62.1104 38.4258 62.5186 38.0443C61.5337 38.4788 60.4201 38.6235 59.3601 38.4309C58.6645 38.304 57.9053 37.9611 57.8451 37.1637Z" fill="#263238"/>
<path d="M87.7667 20.4282C87.7578 20.4554 88.1877 20.5241 88.8569 20.8916C89.5207 21.2583 90.3821 22.0001 91.0802 23.1764C91.4312 23.7595 91.7601 24.4343 92.0261 25.1914C92.296 25.9472 92.521 26.7793 92.7641 27.654C93.0098 28.5278 93.2666 29.4516 93.6523 30.3712C93.845 30.83 94.0695 31.287 94.339 31.7279C94.6072 32.1595 94.9093 32.6246 95.405 32.903C95.8022 33.1318 96.3242 33.1118 96.7023 32.8843C97.0876 32.6671 97.3758 32.3195 97.5383 31.927C97.8498 31.1236 97.7059 30.294 97.5939 29.5581L97.4288 29.6396C97.9291 30.1603 98.4346 30.6712 99.0355 31.0095C99.6304 31.3532 100.329 31.4729 100.941 31.3167C101.246 31.2391 101.528 31.0871 101.737 30.8699C101.951 30.6526 102.064 30.3716 102.113 30.0996C102.154 29.8255 102.129 29.5492 102.03 29.3094C101.931 29.0705 101.754 28.8723 101.541 28.7633L101.481 28.8719C102.369 29.3706 103.175 29.5229 103.714 29.5747C103.985 29.6001 104.195 29.5984 104.336 29.5946C104.477 29.5874 104.549 29.5798 104.549 29.5743C104.548 29.5679 104.475 29.5645 104.336 29.5603C104.196 29.5535 103.988 29.5437 103.721 29.5085C103.191 29.4372 102.403 29.2674 101.543 28.765L101.483 28.8732C101.863 29.0688 102.06 29.5776 101.968 30.0754C101.92 30.322 101.815 30.5736 101.625 30.7608C101.437 30.9518 101.18 31.0888 100.901 31.1567C100.337 31.2946 99.6843 31.1809 99.1246 30.852C98.5555 30.527 98.0649 30.0292 97.5676 29.5064L97.3567 29.2844L97.4025 29.5883C97.5141 30.3237 97.6384 31.1245 97.352 31.851C97.2069 32.2028 96.9412 32.5181 96.6038 32.7074C96.2682 32.9039 95.8459 32.9191 95.5013 32.7244C95.0697 32.485 94.7739 32.0479 94.5108 31.6227C94.2477 31.1928 94.0266 30.7459 93.8361 30.2948C93.4546 29.3918 93.1949 28.4751 92.9449 27.6039C92.6971 26.731 92.4654 25.8975 92.1849 25.1345C91.9082 24.3706 91.567 23.6891 91.2024 23.1013C90.4776 21.9161 89.5818 21.1734 88.8947 20.8229C88.2013 20.4698 87.7667 20.4282 87.7667 20.4282Z" fill="#455A64"/>
<path d="M65.1592 37.3853C65.1579 37.3883 65.1872 37.3998 65.2449 37.418C65.3145 37.4388 65.3994 37.4643 65.503 37.4953C65.6163 37.5309 65.758 37.5691 65.9299 37.5958C66.1005 37.6272 66.297 37.6693 66.5227 37.6828C67.4139 37.7766 68.7651 37.7058 70.2644 37.076C71.7505 36.4564 73.381 35.2784 74.5798 33.496C75.8062 31.7366 76.6342 29.4891 77.1108 27.0821C77.3582 25.876 77.4855 24.6839 77.6909 23.5526C77.8925 22.4216 78.1747 21.3425 78.6461 20.4029C79.1078 19.4625 79.7469 18.663 80.5083 18.1308C80.8847 17.8575 81.2989 17.6797 81.7067 17.5469C82.1196 17.4255 82.5329 17.372 82.9276 17.3636C83.7199 17.3517 84.4295 17.5418 85.0049 17.7917C85.5833 18.0447 86.0264 18.371 86.3565 18.6681C86.9965 19.2919 87.1883 19.7697 87.215 19.7511C87.2184 19.7494 87.2057 19.7214 87.1781 19.667C87.1433 19.6025 87.1017 19.5245 87.0504 19.429C86.9328 19.2231 86.7253 18.9375 86.4113 18.6108C86.0841 18.2993 85.6385 17.9564 85.0512 17.6874C84.4668 17.4217 83.7424 17.2163 82.9259 17.2193C82.5189 17.2235 82.0916 17.274 81.6617 17.3958C81.2378 17.5286 80.8024 17.7124 80.4111 17.992C79.6175 18.5374 78.9547 19.3594 78.4777 20.3189C77.9901 21.2788 77.6998 22.3779 77.4944 23.5169C77.2852 24.6576 77.1562 25.8471 76.9109 27.0422C76.4381 29.4314 75.6238 31.6517 74.4249 33.3895C73.2524 35.1506 71.6648 36.3147 70.208 36.9436C68.7401 37.5801 67.4126 37.6722 66.5295 37.6039C65.6388 37.5322 65.1656 37.3565 65.1592 37.3853Z" fill="#455A64"/>
<path d="M63.1368 34.0372C63.1342 34.0512 63.2645 34.0864 63.5038 34.1386C63.7423 34.195 64.0954 34.2443 64.5329 34.2744C64.9709 34.3079 65.4963 34.2986 66.0751 34.2413C66.6527 34.1738 67.2833 34.0524 67.9249 33.853C68.5649 33.6463 69.1501 33.3824 69.6614 33.1052C70.1677 32.8184 70.6023 32.5243 70.9414 32.2446C71.2817 31.9679 71.5418 31.7248 71.7044 31.541C71.8703 31.3602 71.9564 31.2567 71.9463 31.2469C71.9187 31.2198 71.5469 31.6136 70.8531 32.1305C70.5081 32.3919 70.0731 32.6681 69.5715 32.9402C69.0652 33.2029 68.4898 33.4562 67.8625 33.6586C67.2336 33.8538 66.6174 33.9782 66.0522 34.055C65.4856 34.1212 64.9705 34.1454 64.5385 34.1305C63.674 34.1072 63.1435 33.9994 63.1368 34.0372Z" fill="#455A64"/>
<path d="M78.5274 92.8629C78.454 92.8841 79.416 97.7015 80.3581 102.698H80.656C79.7139 97.7015 78.6012 92.8416 78.5274 92.8629Z" fill="#263238"/>
<path d="M82.5931 102.941C85.3167 102.941 87.8239 100.978 88.2045 98.3055C89.0605 92.3016 92.4864 82.1392 106.929 81.8922C117.932 81.7046 122.563 89.4927 123.86 92.9564C125.92 98.4549 125.664 105.129 122.321 110.597C117.186 118.996 107.738 120.282 102.564 120.301C96.613 120.323 91.7718 125.115 91.7718 130.983V153.417L121.577 152.856V147.257C121.577 147.153 121.642 147.063 121.743 147.028C125.374 145.764 131.13 143.369 137.607 138.146L135.667 112.31C135.667 112.31 141.339 101.409 141.058 98.9557C138.489 76.5477 130.869 63.8683 127.771 62.6856C124.293 61.3582 110.866 62.0045 110.866 62.0045C110.866 62.0045 105.067 72.7491 96.9317 73.9395C92.4049 74.6019 90.752 68.9489 90.752 68.9489L80.2365 75.1137C72.7528 78.8885 71.3006 93.5751 71.1631 102.941H82.5931Z" fill="#455A64"/>
<g opacity="0.3">
<path d="M117.134 116.14C123.142 117.669 129.065 119.604 135.073 121.133C135.518 121.247 135.993 121.378 136.294 121.726C136.736 122.238 136.637 123.015 136.439 123.662C135.807 125.728 134.444 127.513 132.821 128.938C131.514 130.087 129.948 131.055 128.214 131.191C126.282 131.341 124.425 130.446 122.791 129.403C118.615 126.738 115.05 122.843 112.811 118.424C112.811 118.424 114.219 117.844 115.297 117.268C116.298 116.732 117.134 116.14 117.134 116.14Z" fill="black"/>
</g>
<path d="M123.738 93.1117C126.14 98.6548 125.53 105.228 122.108 110.695C120.208 113.73 117.789 115.896 115.15 117.349C117.992 120.44 120.876 123.164 123.728 125.187C126.796 127.365 133.869 126.746 136.551 121.979C139.859 116.097 140.136 101.071 140.136 101.071C140.764 92.0122 140.764 92.0122 140.764 92.0122L122.263 89.1782L122.114 89.6853C122.908 90.8753 123.376 92.2765 123.738 93.1117Z" fill="#FFBF9D"/>
<path d="M91.5159 89.3044L90.4627 90.9649C89.6619 91.5174 88.8997 91.214 88.4049 90.1875L77.0156 72.8519L79.7902 71.0874L92.3693 87.7117C92.3693 87.7117 92.5467 88.5931 91.5159 89.3044Z" fill="#455A64"/>
<path d="M65.2121 72.5561C62.9825 71.2978 61.1123 69.3572 59.9551 66.8631C58.5296 63.7915 58.3857 60.3482 59.5502 57.168C60.7147 53.9877 63.0474 51.4513 66.1199 50.0258C72.4612 47.0832 80.0146 49.8484 82.9576 56.1902C84.3831 59.2622 84.5265 62.7056 83.3625 65.8858C82.198 69.066 79.8652 71.6021 76.7932 73.028C72.9455 74.8129 68.6512 74.4971 65.2121 72.5561ZM77.2825 51.2361C74.0734 49.4249 70.0674 49.1304 66.4772 50.7961C63.611 52.126 61.434 54.4927 60.3476 57.4599C59.2612 60.4271 59.3953 63.64 60.7253 66.5062C62.0553 69.3729 64.4216 71.5495 67.3892 72.6358C70.3564 73.7222 73.5689 73.5881 76.4355 72.2582C79.3017 70.9282 81.4787 68.5615 82.5647 65.5943C83.6515 62.6271 83.5169 59.4146 82.187 56.548C81.1078 54.2211 79.3624 52.4099 77.2825 51.2361Z" fill="#263238"/>
<path d="M65.7502 72.0224C63.5206 70.7641 61.6504 68.8235 60.4931 66.3294C59.0677 63.2578 58.9238 59.8145 60.0883 56.6343C61.2528 53.454 63.5855 50.9176 66.658 49.4921C72.9993 46.5495 80.5527 49.3147 83.4957 55.6569C84.9212 58.729 85.0646 62.1723 83.9006 65.3525C82.7365 68.5328 80.4033 71.0692 77.3313 72.4947C73.4831 74.2792 69.1889 73.9634 65.7502 72.0224ZM77.8202 50.702C74.6111 48.8908 70.605 48.5963 67.0149 50.2619C64.1487 51.5919 61.9716 53.9586 60.8853 56.9258C59.7989 59.893 59.933 63.1059 61.2629 65.9721C62.5929 68.8387 64.9592 71.0153 67.9268 72.1017C70.894 73.1881 74.1065 73.054 76.9731 71.724C79.8393 70.3941 82.0164 68.0273 83.1023 65.0601C84.1887 62.0929 84.0546 58.88 82.7246 56.0138C81.6455 53.687 79.9004 51.8758 77.8202 50.702Z" fill="#455A64"/>
<path d="M82.5357 61.172C82.5311 61.172 82.5268 61.0999 82.5226 60.9636C82.5124 60.8274 82.5285 60.6263 82.4984 60.3691C82.4695 59.8535 82.3541 59.1096 82.0783 58.2294C81.9429 57.7885 81.7506 57.3204 81.5232 56.8281C81.2771 56.3456 81.0063 55.8313 80.6562 55.3314C80.3146 54.8272 79.922 54.3188 79.4654 53.8376C79.0122 53.3547 78.5102 52.8819 77.9436 52.4652C77.3801 52.0455 76.7872 51.6958 76.1884 51.4115C75.5862 51.1335 74.9794 50.9269 74.3916 50.7686C73.2094 50.4711 72.1022 50.3892 71.1817 50.4431C70.2604 50.494 69.5224 50.6391 69.0246 50.7779C68.7721 50.8348 68.585 50.9099 68.453 50.9443C68.3223 50.9833 68.2527 51.002 68.251 50.9973C68.2493 50.9931 68.3155 50.9659 68.4437 50.9184C68.5731 50.8755 68.7586 50.7919 69.0102 50.727C69.5059 50.5721 70.2468 50.4112 71.1762 50.3472C72.1047 50.2805 73.2246 50.3527 74.4226 50.6472C75.0184 50.8042 75.6342 51.0109 76.2449 51.291C76.8521 51.5774 77.4543 51.9313 78.0255 52.3566C78.5989 52.7784 79.1064 53.2575 79.563 53.7472C80.0235 54.2348 80.4181 54.75 80.7606 55.2618C81.1115 55.7685 81.3815 56.29 81.6255 56.7798C81.8508 57.2788 82.0396 57.7537 82.1708 58.201C82.4373 59.0934 82.5391 59.8467 82.5519 60.3661C82.5744 60.6254 82.5493 60.8278 82.5506 60.9645C82.5451 61.1007 82.5404 61.172 82.5357 61.172Z" fill="white"/>
<path d="M69.3086 71.4923C69.3176 71.4609 69.8964 71.6765 70.8729 71.8098C70.9955 71.8246 71.1237 71.8399 71.2565 71.856C71.3897 71.8709 71.5302 71.8713 71.6745 71.8802C71.9631 71.9036 72.2724 71.8883 72.5971 71.8819C73.2459 71.8433 73.9559 71.7448 74.682 71.5543C75.406 71.354 76.0693 71.082 76.6498 70.7896C76.9337 70.6317 77.2087 70.4896 77.4468 70.3245C77.5669 70.2443 77.6883 70.1738 77.796 70.0936C77.903 70.013 78.0057 69.9353 78.1046 69.8611C78.8816 69.2551 79.2741 68.7781 79.2975 68.8006C79.3047 68.8065 79.2062 68.9236 79.0212 69.1311C78.9304 69.2368 78.8154 69.3616 78.6677 69.4931C78.5221 69.626 78.3643 69.7881 78.1644 69.9366C78.0664 70.0143 77.9641 70.0949 77.858 70.1789C77.7506 70.2621 77.6297 70.3359 77.5092 70.4191C77.2711 70.5906 76.9948 70.7382 76.7084 70.9012C76.1236 71.2038 75.4518 71.4834 74.7181 71.6863C73.9818 71.8798 73.2608 71.9753 72.6034 72.0075C72.2741 72.0105 71.961 72.0215 71.669 71.9931C71.523 71.9816 71.3817 71.9787 71.2467 71.9609C71.1126 71.9418 70.9836 71.9231 70.8601 71.9053C70.6127 71.8777 70.395 71.8166 70.2019 71.7746C70.0084 71.7351 69.8459 71.685 69.7143 71.6392C69.4495 71.553 69.3057 71.5013 69.3086 71.4923Z" fill="white"/>
<path d="M78.0312 63.3722C78.0044 63.3985 76.3515 61.7439 74.3404 59.6776C72.3285 57.6105 70.7197 55.9143 70.7464 55.888C70.7732 55.8617 72.4257 57.5159 74.4376 59.583C76.4491 61.6493 78.0579 63.3463 78.0312 63.3722Z" fill="white"/>
<path d="M76.0832 66.692C76.0798 66.695 76.0382 66.6547 75.9627 66.5744C75.8786 66.4828 75.7709 66.3657 75.6376 66.2201C75.3473 65.8967 74.9463 65.4507 74.4557 64.905C73.4593 63.7936 72.0784 62.2624 70.535 60.5879C68.9907 58.9129 67.5763 57.4123 66.5493 56.3289C66.0451 55.7959 65.6331 55.36 65.3347 55.0443C65.2006 54.8996 65.0924 54.7825 65.008 54.6917C64.9346 54.6098 64.8972 54.5656 64.9006 54.5622C64.904 54.5588 64.9477 54.597 65.0275 54.6726C65.1166 54.7591 65.2308 54.8703 65.3725 55.0074C65.6704 55.3002 66.0961 55.7288 66.6185 56.2623C67.6633 57.3291 69.0896 58.8199 70.6347 60.4958C72.179 62.1712 73.5493 63.7133 74.5279 64.8417C75.0172 65.4057 75.4097 65.8649 75.6775 66.1857C75.8031 66.3381 75.9045 66.4611 75.9835 66.5566C76.0522 66.6423 76.0866 66.6886 76.0832 66.692Z" fill="white"/>
<g opacity="0.3">
<path d="M65.7427 51.165L81.3099 68.0754C81.3099 68.0754 80.0499 69.8378 78.8956 70.6046L63 53.2992C63 53.2992 64.1458 51.9183 65.7427 51.165Z" fill="white"/>
</g>
<g opacity="0.3">
<path d="M61.6619 55.249L76.9728 71.7248C76.9728 71.7248 77.1149 71.8024 76.06 72.0689L61.2295 56.0855C61.2295 56.0855 61.3072 55.6849 61.6619 55.249Z" fill="white"/>
</g>
<path d="M101.964 82.4329C98.6942 79.8069 90.68 73.384 90.3137 73.213C89.8529 72.9974 82.7994 70.4915 81.4482 71.2965C80.097 72.1016 76.4746 76.6487 76.4746 76.6487C76.4746 76.6487 76.8188 79.4767 79.9782 77.4529C82.3891 75.909 82.7629 75.6693 82.8054 75.6421C82.8028 75.6438 82.8007 75.6451 82.8007 75.6451L86.1596 76.4297C86.1596 76.4297 82.0627 78.1408 81.1962 79.0405C80.3296 79.9401 78.9593 83.3847 79.814 84.1779C80.6687 84.971 81.6613 85.0389 81.6613 85.0389C81.6613 85.0389 79.9701 87.4409 82.97 88.8909C82.97 88.8909 83.408 90.9101 84.8878 91.7015C86.3675 92.4926 89.1247 92.2129 89.1247 92.2129C89.1247 92.2129 90.4033 91.4567 89.4536 90.2031C88.5038 88.9495 86.7516 88.7759 86.7516 88.7759L88.9231 87.5092C88.9231 87.5092 90.0528 87.8551 91.7265 89.1481C91.7265 89.1481 93.7091 86.6099 95.6888 85.1752C97.9108 83.5651 101.964 82.4329 101.964 82.4329Z" fill="#FFBF9D"/>
<path d="M88.0633 83.5C88.062 83.4902 87.947 83.4923 87.7408 83.5191C87.5345 83.5454 87.2383 83.6044 86.8827 83.7181C86.1753 83.9396 85.2264 84.4302 84.4485 85.276C83.6702 86.1222 83.2611 87.1088 83.0994 87.8324C83.0158 88.1961 82.9819 88.4961 82.973 88.704C82.9636 88.9115 82.9713 89.0265 82.981 89.027C83.0116 89.0295 83.018 88.5678 83.2094 87.8604C83.3961 87.1572 83.8111 86.2066 84.5665 85.3846C85.3223 84.563 86.2347 84.0699 86.9196 83.825C87.6088 83.5751 88.0684 83.5301 88.0633 83.5Z" fill="#FF9A6C"/>
<path d="M88.2064 79.8434C88.2052 79.8324 88.0829 79.8417 87.8619 79.8676C87.7511 79.8791 87.6161 79.8973 87.4621 79.933C87.3076 79.9669 87.1294 79.9962 86.9393 80.0573C86.5539 80.1592 86.1071 80.3259 85.6297 80.5504C85.1569 80.7843 84.6557 81.0813 84.1703 81.4505C83.689 81.8257 83.2736 82.2343 82.9269 82.632C82.5874 83.0364 82.3124 83.4255 82.1155 83.7722C82.0081 83.9403 81.9338 84.1054 81.8617 84.2458C81.7878 84.3859 81.7356 84.5115 81.6962 84.6155C81.6143 84.8226 81.5744 84.938 81.5846 84.9422C81.6139 84.955 81.7934 84.4966 82.2118 83.8308C82.418 83.4964 82.6985 83.1204 83.0376 82.7287C83.3843 82.3434 83.7951 81.9458 84.2674 81.5774C84.744 81.215 85.2919 80.8072 85.7532 80.57C86.2187 80.3421 86.5947 80.2797 86.9707 80.1655C87.7227 79.9317 88.2115 79.8748 88.2064 79.8434Z" fill="#FF9A6C"/>
<path d="M88.8193 75.6464C88.8235 75.629 88.6542 75.5633 88.3631 75.5437C88.0737 75.5229 87.6624 75.5684 87.2499 75.7428C86.6919 75.9813 86.4954 76.2138 86.3337 76.4061C86.1457 76.6289 86.0753 76.7965 86.091 76.8054C86.1283 76.8389 86.5179 76.2181 87.3128 75.8905C88.1 75.5463 88.8171 75.6965 88.8193 75.6464Z" fill="#FF9A6C"/>
<path d="M126.466 62.3467C126.466 62.3467 136.817 63.3397 140.103 72.3321C142.71 79.4696 144.127 100.852 143.474 101.288L125.2 100.704C124.959 95.4896 123.555 91.4695 121.587 88.8681L126.466 62.3467Z" fill="#455A64"/>
<path d="M125.48 100.705C125.489 100.692 125.616 100.764 125.839 100.904C126.062 101.044 126.377 101.26 126.756 101.54C127.516 102.097 128.522 102.932 129.537 103.952C130.554 104.972 131.387 105.977 131.958 106.725C132.243 107.1 132.466 107.409 132.612 107.628C132.759 107.847 132.834 107.972 132.822 107.981C132.795 108.001 132.435 107.544 131.836 106.822C131.236 106.102 130.39 105.12 129.38 104.108C128.373 103.095 127.392 102.249 126.661 101.663C125.93 101.076 125.461 100.733 125.48 100.705Z" fill="#FF9A6C"/>
<path d="M123.304 78.7095C123.364 78.7197 123.029 81.0024 122.555 83.8075C122.081 86.6134 121.648 88.8791 121.588 88.8689C121.528 88.8587 121.863 86.5765 122.337 83.7705C122.811 80.9655 123.244 78.6993 123.304 78.7095Z" fill="#263238"/>
<path d="M100.305 142.833C100.304 142.825 100.409 142.809 100.608 142.787C100.83 142.764 101.12 142.735 101.482 142.699C102.266 142.624 103.358 142.521 104.696 142.394C107.41 142.134 111.155 141.743 115.28 141.222C119.406 140.699 123.132 140.145 125.824 139.722C127.152 139.512 128.235 139.34 129.012 139.216C129.372 139.162 129.661 139.118 129.88 139.084C130.079 139.057 130.184 139.046 130.185 139.053C130.187 139.061 130.084 139.086 129.888 139.128C129.67 139.172 129.384 139.229 129.027 139.301C128.279 139.448 127.193 139.645 125.849 139.877C123.161 140.34 119.437 140.918 115.307 141.442C111.178 141.963 107.427 142.33 104.709 142.551C103.35 142.661 102.25 142.741 101.488 142.785C101.125 142.804 100.833 142.82 100.611 142.832C100.411 142.84 100.305 142.84 100.305 142.833Z" fill="#263238"/>
<path d="M98.6885 140.102C98.6881 140.087 98.9563 140.063 99.4417 140.034C99.9633 140.006 100.657 139.969 101.498 139.924C103.267 139.833 105.649 139.712 108.28 139.577C110.911 139.424 113.291 139.286 115.06 139.184C115.901 139.137 116.594 139.098 117.116 139.068C117.601 139.044 117.871 139.039 117.872 139.054C117.873 139.069 117.606 139.104 117.122 139.154C116.638 139.204 115.938 139.268 115.071 139.339C113.338 139.483 110.942 139.652 108.292 139.797C105.642 139.942 103.242 140.034 101.504 140.08C100.635 140.104 99.931 140.117 99.4447 140.119C98.958 140.123 98.6889 140.117 98.6885 140.102Z" fill="#263238"/>
<path d="M69.5824 101.409C69.6494 101.149 69.7589 100.904 69.913 100.683C70.2185 100.245 70.6815 99.9108 71.2056 99.7912C72.0764 99.5926 73.0521 100 73.5231 100.76C73.4917 100.181 73.9487 99.6414 74.5081 99.4886C75.067 99.3358 75.5011 99.5514 75.9471 99.9214C76.3931 100.292 76.5073 100.586 76.6885 101.137C77.1336 100.137 79.4227 100.259 79.7011 101.01C79.7011 101.01 81.6706 98.8537 82.678 99.9138C83.0965 100.354 82.917 101.03 82.6399 101.707C82.2698 102.61 82.0262 102.987 81.5424 103.982L79.6782 104.084C79.5212 104.667 79.1906 107.04 79.1205 107.64C79.0505 108.24 78.9304 108.851 78.6113 109.364C78.2922 109.877 77.7375 110.279 77.1332 110.271C76.5289 110.262 75.934 109.744 75.9696 109.141C75.8427 109.64 75.6305 110.131 75.263 110.491C74.8955 110.851 74.3515 111.059 73.8537 110.929C73.3559 110.799 72.9612 110.278 73.0622 109.774C72.3977 110.234 71.4153 109.825 70.9934 109.136C70.5712 108.446 70.561 107.589 70.5869 106.781C70.6098 106.064 70.6747 105.26 70.3925 104.582C70.348 104.475 70.2716 104.383 70.2457 104.269C70.2075 104.101 70.233 103.91 70.2211 103.737C70.1948 103.361 70.1256 102.987 69.9966 102.633C69.9681 102.555 69.9372 102.478 69.9028 102.403C69.8124 102.202 69.6787 102.032 69.5765 101.84C69.554 101.798 69.5349 101.757 69.5293 101.709C69.5179 101.61 69.5582 101.501 69.5824 101.409Z" fill="#FFBF9D"/>
<path d="M67.4834 100.373C66.9852 100.356 66.4425 100.459 66.1098 100.83C65.7155 101.271 65.6247 102.325 65.6697 102.914C66.3606 103.044 66.7293 102.891 67.4202 103.021C67.5658 103.049 67.6876 103.012 67.8081 103.098C68.1268 103.324 68.075 104.086 68.2032 104.455C68.4255 105.095 69.2459 105.408 69.8816 105.173C70.5173 104.937 70.9264 104.261 70.9586 103.584C70.9909 102.907 70.693 102.245 70.2567 101.726C69.5752 100.916 68.5418 100.412 67.4834 100.373Z" fill="#FFBF9D"/>
<path d="M79.2512 106.65C79.1808 106.635 79.4651 105.371 79.645 103.797C79.7316 103.011 79.7516 102.295 79.7206 101.779C79.6938 101.263 79.6332 100.945 79.6675 100.937C79.6926 100.93 79.8084 101.239 79.8763 101.765C79.9485 102.289 79.9527 103.023 79.8649 103.821C79.7791 104.62 79.6298 105.33 79.5067 105.839C79.3811 106.348 79.2801 106.656 79.2512 106.65Z" fill="#FF9A6C"/>
<path d="M75.8865 109.366C75.8556 109.359 75.9353 108.9 76.0711 108.161C76.2057 107.422 76.3954 106.401 76.5388 105.268C76.6822 104.133 76.7336 103.099 76.7183 102.352C76.7073 101.603 76.653 101.141 76.6886 101.136C76.7132 101.132 76.8227 101.589 76.8745 102.345C76.9301 103.101 76.9033 104.151 76.7582 105.295C76.6135 106.439 76.3983 107.46 76.2243 108.193C76.0487 108.926 75.9154 109.373 75.8865 109.366Z" fill="#FF9A6C"/>
<path d="M73.0398 109.851C73.0067 109.842 73.1243 109.335 73.2728 108.51C73.4222 107.685 73.5868 106.537 73.6573 105.261C73.7256 103.985 73.687 102.826 73.6284 101.99C73.5703 101.153 73.5087 100.636 73.5427 100.631C73.558 100.629 73.5902 100.755 73.636 100.987C73.6836 101.218 73.7349 101.556 73.7841 101.976C73.8835 102.814 73.9475 103.984 73.8784 105.274C73.8071 106.562 73.6161 107.718 73.4264 108.541C73.3322 108.952 73.2439 109.283 73.1718 109.507C73.1005 109.733 73.0542 109.855 73.0398 109.851Z" fill="#FF9A6C"/>
<path d="M69.2881 101.542C69.2978 101.519 69.5435 101.59 69.8694 101.835C70.1937 102.076 70.5841 102.511 70.8132 103.095C71.042 103.678 71.0598 104.269 70.9384 104.668C70.8149 105.078 70.5573 105.221 70.5489 105.195C70.5238 105.17 70.7161 105.003 70.7869 104.63C70.8591 104.264 70.82 103.717 70.6074 103.176C70.3944 102.633 70.0519 102.214 69.7693 101.955C69.4858 101.693 69.2711 101.573 69.2881 101.542Z" fill="#FF9A6C"/>
</svg>
